G75*
%MOIN*%
%OFA0B0*%
%FSLAX24Y24*%
%IPPOS*%
%LPD*%
%AMOC8*
5,1,8,0,0,1.08239X$1,22.5*
%
%ADD10C,0.0000*%
%ADD11C,0.0040*%
%ADD12C,0.0258*%
%ADD13C,0.0709*%
%ADD14C,0.0197*%
%ADD15C,0.0200*%
%ADD16C,0.0295*%
%ADD17C,0.0237*%
%ADD18C,0.0118*%
D10*
X001591Y000198D02*
X001591Y002167D01*
X000343Y002167D01*
X000343Y013269D01*
X011839Y013269D01*
X011839Y002167D01*
X010591Y002167D01*
X010591Y000198D01*
X001591Y000198D01*
D11*
X010835Y008014D02*
X011090Y008014D01*
X011090Y008141D01*
X011048Y008184D01*
X010963Y008184D01*
X010920Y008141D01*
X010920Y008014D01*
X010835Y008286D02*
X010920Y008371D01*
X010835Y008456D01*
X011090Y008456D01*
X011090Y008557D02*
X011090Y008685D01*
X011048Y008728D01*
X010963Y008728D01*
X010920Y008685D01*
X010920Y008557D01*
X010835Y008557D02*
X011090Y008557D01*
X010920Y008643D02*
X010835Y008728D01*
X010963Y008829D02*
X010963Y009000D01*
X011005Y009101D02*
X011090Y009186D01*
X010835Y009186D01*
X010835Y009101D02*
X010835Y009272D01*
X010835Y009373D02*
X011005Y009543D01*
X011048Y009543D01*
X011090Y009501D01*
X011090Y009416D01*
X011048Y009373D01*
X010835Y009373D02*
X010835Y009543D01*
X010920Y009645D02*
X010835Y009730D01*
X010920Y009815D01*
X011090Y009815D01*
X011090Y009645D02*
X010920Y009645D01*
X011307Y009272D02*
X011393Y009186D01*
X011393Y009229D02*
X011393Y009101D01*
X011307Y009101D02*
X011563Y009101D01*
X011563Y009229D01*
X011520Y009272D01*
X011435Y009272D01*
X011393Y009229D01*
X011307Y009000D02*
X011307Y008829D01*
X011563Y008829D01*
X011563Y009000D01*
X011435Y008915D02*
X011435Y008829D01*
X011520Y008728D02*
X011435Y008643D01*
X011307Y008643D01*
X011435Y008643D02*
X011520Y008557D01*
X011563Y008557D01*
X011478Y008456D02*
X011563Y008371D01*
X011478Y008286D01*
X011307Y008286D01*
X011307Y008184D02*
X011307Y008014D01*
X011563Y008014D01*
X011435Y008286D02*
X011435Y008456D01*
X011478Y008456D02*
X011307Y008456D01*
X011090Y008286D02*
X010835Y008286D01*
X011520Y008728D02*
X011563Y008728D01*
D12*
X009043Y007876D03*
X008531Y007876D03*
X008531Y007364D03*
X008531Y006852D03*
X009043Y006852D03*
X009043Y007364D03*
X008020Y007364D03*
X008020Y007876D03*
X007508Y007876D03*
X006996Y007876D03*
X006484Y007876D03*
X006484Y007364D03*
X006484Y006852D03*
X006996Y006852D03*
X006996Y007364D03*
X007508Y007364D03*
X007508Y006852D03*
X008020Y006852D03*
X005972Y006852D03*
X005972Y007364D03*
X005972Y007876D03*
D13*
X005402Y011773D03*
X006780Y011773D03*
X008157Y011773D03*
X009535Y011773D03*
X010913Y011773D03*
X004024Y011773D03*
X002646Y011773D03*
X001268Y011773D03*
D14*
X001747Y011333D02*
X002167Y011333D01*
X002095Y011405D02*
X002278Y011223D01*
X002516Y011124D01*
X002775Y011124D01*
X003014Y011223D01*
X003196Y011405D01*
X003295Y011644D01*
X003295Y011902D01*
X003196Y012141D01*
X003014Y012324D01*
X002775Y012423D01*
X002516Y012423D01*
X002278Y012324D01*
X002095Y012141D01*
X001996Y011902D01*
X001996Y011644D01*
X002095Y011405D01*
X002044Y011529D02*
X001870Y011529D01*
X001917Y011644D02*
X001917Y011902D01*
X001818Y012141D01*
X001636Y012324D01*
X001397Y012423D01*
X001139Y012423D01*
X000900Y012324D01*
X000717Y012141D01*
X000638Y011950D01*
X000638Y012974D01*
X011543Y012974D01*
X011543Y011950D01*
X011464Y012141D01*
X011281Y012324D01*
X011043Y012423D01*
X010784Y012423D01*
X010545Y012324D01*
X010363Y012141D01*
X010264Y011902D01*
X010264Y011644D01*
X010363Y011405D01*
X010545Y011223D01*
X010784Y011124D01*
X011043Y011124D01*
X011281Y011223D01*
X011464Y011405D01*
X011543Y011596D01*
X011543Y010513D01*
X010421Y010513D01*
X010421Y002415D01*
X010340Y002334D01*
X010295Y002226D01*
X010295Y000494D01*
X003454Y000494D01*
X003454Y000592D01*
X003399Y000727D01*
X003434Y000762D01*
X003494Y000907D01*
X003494Y001064D01*
X003434Y001210D01*
X003422Y001222D01*
X003454Y001301D01*
X003454Y001458D01*
X003422Y001537D01*
X003434Y001549D01*
X003494Y001695D01*
X003494Y001852D01*
X003434Y001997D01*
X003422Y002009D01*
X003454Y002088D01*
X003454Y002246D01*
X003394Y002391D01*
X003283Y002502D01*
X003138Y002562D01*
X002980Y002562D01*
X002835Y002502D01*
X002724Y002391D01*
X002664Y002246D01*
X002664Y002088D01*
X002724Y001943D01*
X002736Y001931D01*
X002703Y001852D01*
X002703Y001695D01*
X002736Y001615D01*
X002724Y001603D01*
X002664Y001458D01*
X002664Y001301D01*
X002724Y001156D01*
X002736Y001144D01*
X002703Y001064D01*
X002703Y000907D01*
X002759Y000772D01*
X002724Y000737D01*
X002664Y000592D01*
X002664Y000494D01*
X002344Y000494D01*
X002352Y000513D01*
X002352Y000671D01*
X002292Y000816D01*
X002280Y000828D01*
X002371Y000919D01*
X002431Y001065D01*
X002431Y001222D01*
X002371Y001367D01*
X002319Y001419D01*
X002371Y001471D01*
X002431Y001616D01*
X002431Y001773D01*
X002371Y001918D01*
X002308Y001981D01*
X002352Y002088D01*
X002352Y002246D01*
X002292Y002391D01*
X002181Y002502D01*
X002035Y002562D01*
X001878Y002562D01*
X001760Y002513D01*
X001760Y010592D01*
X000638Y010592D01*
X000638Y011596D01*
X000717Y011405D01*
X000900Y011223D01*
X001139Y011124D01*
X001397Y011124D01*
X001636Y011223D01*
X001818Y011405D01*
X001917Y011644D01*
X001917Y011724D02*
X001996Y011724D01*
X002003Y011919D02*
X001910Y011919D01*
X001829Y012115D02*
X002084Y012115D01*
X002264Y012310D02*
X001649Y012310D01*
X000886Y012310D02*
X000638Y012310D01*
X000638Y012115D02*
X000706Y012115D01*
X000638Y012506D02*
X011543Y012506D01*
X011543Y012701D02*
X000638Y012701D01*
X000638Y012896D02*
X011543Y012896D01*
X011543Y012310D02*
X011295Y012310D01*
X011475Y012115D02*
X011543Y012115D01*
X011515Y011529D02*
X011543Y011529D01*
X011543Y011333D02*
X011392Y011333D01*
X011543Y011138D02*
X011077Y011138D01*
X010749Y011138D02*
X009700Y011138D01*
X009665Y011124D02*
X009903Y011223D01*
X010086Y011405D01*
X010185Y011644D01*
X010185Y011902D01*
X010086Y012141D01*
X009903Y012324D01*
X009665Y012423D01*
X009406Y012423D01*
X009167Y012324D01*
X008985Y012141D01*
X008886Y011902D01*
X008886Y011644D01*
X008985Y011405D01*
X009167Y011223D01*
X009406Y011124D01*
X009665Y011124D01*
X009371Y011138D02*
X008322Y011138D01*
X008287Y011124D02*
X008525Y011223D01*
X008708Y011405D01*
X008807Y011644D01*
X008807Y011902D01*
X008708Y012141D01*
X008525Y012324D01*
X008287Y012423D01*
X008028Y012423D01*
X007790Y012324D01*
X007607Y012141D01*
X007508Y011902D01*
X007508Y011644D01*
X007607Y011405D01*
X007790Y011223D01*
X008028Y011124D01*
X008287Y011124D01*
X008636Y011333D02*
X009057Y011333D01*
X008934Y011529D02*
X008759Y011529D01*
X008807Y011724D02*
X008886Y011724D01*
X008893Y011919D02*
X008800Y011919D01*
X008719Y012115D02*
X008974Y012115D01*
X009154Y012310D02*
X008539Y012310D01*
X007776Y012310D02*
X007161Y012310D01*
X007147Y012324D02*
X006909Y012423D01*
X006650Y012423D01*
X006412Y012324D01*
X006229Y012141D01*
X006130Y011902D01*
X006130Y011644D01*
X006229Y011405D01*
X006412Y011223D01*
X006650Y011124D01*
X006909Y011124D01*
X007147Y011223D01*
X007330Y011405D01*
X007429Y011644D01*
X007429Y011902D01*
X007330Y012141D01*
X007147Y012324D01*
X007341Y012115D02*
X007596Y012115D01*
X007515Y011919D02*
X007422Y011919D01*
X007429Y011724D02*
X007508Y011724D01*
X007556Y011529D02*
X007381Y011529D01*
X007258Y011333D02*
X007679Y011333D01*
X007993Y011138D02*
X006944Y011138D01*
X006615Y011138D02*
X004188Y011138D01*
X004153Y011124D02*
X004392Y011223D01*
X004574Y011405D01*
X004673Y011644D01*
X004673Y011902D01*
X004574Y012141D01*
X004392Y012324D01*
X004153Y012423D01*
X003894Y012423D01*
X003656Y012324D01*
X003473Y012141D01*
X003374Y011902D01*
X003374Y011644D01*
X003473Y011405D01*
X003656Y011223D01*
X003894Y011124D01*
X004153Y011124D01*
X003860Y011138D02*
X002810Y011138D01*
X002482Y011138D02*
X001432Y011138D01*
X001104Y011138D02*
X000638Y011138D01*
X000638Y011333D02*
X000789Y011333D01*
X000666Y011529D02*
X000638Y011529D01*
X000638Y010943D02*
X011543Y010943D01*
X011543Y010747D02*
X006404Y010747D01*
X006381Y010771D02*
X006218Y010838D01*
X006042Y010838D01*
X005879Y010771D01*
X005754Y010646D01*
X005687Y010483D01*
X005687Y010307D01*
X005754Y010144D01*
X005879Y010020D01*
X006042Y009952D01*
X006218Y009952D01*
X006381Y010020D01*
X006505Y010144D01*
X006573Y010307D01*
X006573Y010483D01*
X006505Y010646D01*
X006381Y010771D01*
X006544Y010552D02*
X009271Y010552D01*
X009220Y010501D02*
X009179Y010402D01*
X008861Y010084D01*
X008807Y009954D01*
X008807Y008789D01*
X008861Y008659D01*
X009122Y008398D01*
X009122Y008300D01*
X008959Y008300D01*
X008803Y008235D01*
X008787Y008220D01*
X008772Y008235D01*
X008616Y008300D01*
X008447Y008300D01*
X008291Y008235D01*
X008276Y008220D01*
X008260Y008235D01*
X008104Y008300D01*
X007935Y008300D01*
X007779Y008235D01*
X007764Y008220D01*
X007748Y008235D01*
X007592Y008300D01*
X007424Y008300D01*
X007268Y008235D01*
X007252Y008220D01*
X007236Y008235D01*
X007080Y008300D01*
X006912Y008300D01*
X006756Y008235D01*
X006740Y008220D01*
X006725Y008235D01*
X006569Y008300D01*
X006400Y008300D01*
X006244Y008235D01*
X006228Y008220D01*
X006213Y008235D01*
X006057Y008300D01*
X005888Y008300D01*
X005732Y008235D01*
X005613Y008116D01*
X005548Y007960D01*
X005548Y007791D01*
X005613Y007635D01*
X005628Y007620D01*
X005613Y007604D01*
X005548Y007448D01*
X005548Y007279D01*
X005613Y007124D01*
X005628Y007108D01*
X005613Y007092D01*
X005548Y006936D01*
X005548Y006768D01*
X005613Y006612D01*
X005732Y006492D01*
X005888Y006428D01*
X006057Y006428D01*
X006213Y006492D01*
X006228Y006508D01*
X006244Y006492D01*
X006400Y006428D01*
X006464Y006428D01*
X006441Y006404D01*
X006341Y006305D01*
X006287Y006174D01*
X006287Y005948D01*
X006169Y005948D01*
X006024Y005888D01*
X005913Y005777D01*
X005853Y005631D01*
X005853Y005474D01*
X005913Y005329D01*
X006024Y005218D01*
X006168Y005158D01*
X006168Y005080D01*
X006228Y004935D01*
X006339Y004824D01*
X006484Y004764D01*
X006642Y004764D01*
X006787Y004824D01*
X006898Y004935D01*
X006958Y005080D01*
X006958Y005238D01*
X006898Y005383D01*
X006886Y005395D01*
X006977Y005486D01*
X007037Y005632D01*
X007037Y005789D01*
X006996Y005888D01*
X006996Y005907D01*
X007634Y005907D01*
X007585Y005789D01*
X007585Y005632D01*
X007645Y005486D01*
X007756Y005375D01*
X007902Y005315D01*
X008059Y005315D01*
X008166Y005359D01*
X008229Y005296D01*
X008374Y005236D01*
X008531Y005236D01*
X008677Y005296D01*
X008740Y005359D01*
X008847Y005315D01*
X009004Y005315D01*
X009149Y005375D01*
X009260Y005486D01*
X009321Y005632D01*
X009321Y005789D01*
X009266Y005921D01*
X009362Y005961D01*
X009462Y006061D01*
X009777Y006376D01*
X009831Y006506D01*
X009831Y008615D01*
X009777Y008746D01*
X009677Y008845D01*
X009516Y009007D01*
X009516Y009505D01*
X009555Y009488D01*
X009712Y009488D01*
X009858Y009548D01*
X009969Y009660D01*
X010029Y009805D01*
X010029Y009962D01*
X009969Y010107D01*
X009929Y010147D01*
X009950Y010199D01*
X009950Y010356D01*
X009890Y010501D01*
X009779Y010612D01*
X009634Y010672D01*
X009476Y010672D01*
X009331Y010612D01*
X009220Y010501D01*
X009134Y010357D02*
X006573Y010357D01*
X006512Y010161D02*
X008938Y010161D01*
X008812Y009966D02*
X006251Y009966D01*
X006009Y009966D02*
X004087Y009966D01*
X004047Y009983D02*
X004199Y009919D01*
X004316Y009803D01*
X004379Y009651D01*
X004379Y009486D01*
X004316Y009334D01*
X004199Y009218D01*
X004191Y009214D01*
X004199Y009211D01*
X004316Y009094D01*
X004379Y008942D01*
X004379Y008777D01*
X004316Y008625D01*
X004199Y008509D01*
X004096Y008466D01*
X004199Y008423D01*
X004316Y008307D01*
X004379Y008155D01*
X004379Y007990D01*
X004316Y007838D01*
X004199Y007721D01*
X004047Y007658D01*
X003882Y007658D01*
X003730Y007721D01*
X003650Y007802D01*
X003569Y007721D01*
X003417Y007658D01*
X003252Y007658D01*
X003100Y007721D01*
X003020Y007802D01*
X002939Y007721D01*
X002840Y007680D01*
X002941Y007680D01*
X003086Y007620D01*
X003197Y007509D01*
X003258Y007364D01*
X003258Y007206D01*
X003197Y007061D01*
X003086Y006950D01*
X002941Y006890D01*
X002784Y006890D01*
X002638Y006950D01*
X002527Y007061D01*
X002467Y007206D01*
X002467Y007364D01*
X002527Y007509D01*
X002638Y007620D01*
X002731Y007658D01*
X002622Y007658D01*
X002470Y007721D01*
X002354Y007838D01*
X002291Y007990D01*
X002291Y008155D01*
X002354Y008307D01*
X002470Y008423D01*
X002573Y008466D01*
X002470Y008509D01*
X002354Y008625D01*
X002291Y008777D01*
X002291Y008942D01*
X002354Y009094D01*
X002470Y009211D01*
X002478Y009214D01*
X002470Y009218D01*
X002354Y009334D01*
X002291Y009486D01*
X002291Y009651D01*
X002354Y009803D01*
X002470Y009919D01*
X002622Y009983D01*
X002787Y009983D01*
X002939Y009919D01*
X003020Y009839D01*
X003100Y009919D01*
X003252Y009983D01*
X003417Y009983D01*
X003569Y009919D01*
X003650Y009839D01*
X003730Y009919D01*
X003882Y009983D01*
X004047Y009983D01*
X003842Y009966D02*
X003457Y009966D01*
X003212Y009966D02*
X002827Y009966D01*
X002582Y009966D02*
X001760Y009966D01*
X001760Y010161D02*
X005747Y010161D01*
X005687Y010357D02*
X001760Y010357D01*
X001760Y010552D02*
X005715Y010552D01*
X005856Y010747D02*
X000638Y010747D01*
X001760Y009771D02*
X002340Y009771D01*
X002291Y009575D02*
X001760Y009575D01*
X001760Y009380D02*
X002335Y009380D01*
X002444Y009185D02*
X001760Y009185D01*
X001760Y008989D02*
X002310Y008989D01*
X002291Y008794D02*
X001760Y008794D01*
X001760Y008599D02*
X002381Y008599D01*
X002450Y008403D02*
X001760Y008403D01*
X001760Y008208D02*
X002313Y008208D01*
X002291Y008012D02*
X001760Y008012D01*
X001760Y007817D02*
X002375Y007817D01*
X002642Y007622D02*
X001760Y007622D01*
X001760Y007426D02*
X002493Y007426D01*
X002467Y007231D02*
X001760Y007231D01*
X001760Y007036D02*
X002552Y007036D01*
X003082Y007622D02*
X005626Y007622D01*
X005548Y007426D02*
X003232Y007426D01*
X003258Y007231D02*
X005568Y007231D01*
X005589Y007036D02*
X003172Y007036D01*
X003099Y005948D02*
X002953Y005888D01*
X002842Y005777D01*
X002782Y005631D01*
X002782Y005475D01*
X002638Y005415D01*
X002527Y005304D01*
X002467Y005159D01*
X002467Y005002D01*
X002527Y004856D01*
X002618Y004765D01*
X002606Y004753D01*
X002546Y004608D01*
X002546Y004457D01*
X002448Y004359D01*
X002388Y004214D01*
X002388Y004057D01*
X002448Y003912D01*
X002560Y003800D01*
X002705Y003740D01*
X002862Y003740D01*
X003007Y003800D01*
X003119Y003912D01*
X003179Y004057D01*
X003179Y004175D01*
X003188Y004175D01*
X003374Y003989D01*
X003374Y003199D01*
X003428Y003069D01*
X003528Y002969D01*
X004000Y002496D01*
X004130Y002443D01*
X005314Y002443D01*
X006677Y001079D01*
X006807Y001025D01*
X007921Y001025D01*
X008020Y000984D01*
X008177Y000984D01*
X008322Y001044D01*
X008434Y001156D01*
X008494Y001301D01*
X008494Y001458D01*
X008434Y001603D01*
X008421Y001616D01*
X008434Y001628D01*
X008494Y001773D01*
X008494Y001931D01*
X008434Y002076D01*
X008322Y002187D01*
X008296Y002198D01*
X008362Y002225D01*
X008473Y002337D01*
X008533Y002482D01*
X008533Y002639D01*
X008473Y002785D01*
X008362Y002896D01*
X008216Y002956D01*
X008147Y002956D01*
X008158Y002967D01*
X008218Y003112D01*
X008218Y003269D01*
X008158Y003414D01*
X008047Y003526D01*
X007901Y003586D01*
X007744Y003586D01*
X007599Y003526D01*
X007488Y003414D01*
X007459Y003346D01*
X007394Y003412D01*
X007263Y003466D01*
X004663Y003466D01*
X004498Y003630D01*
X004457Y003729D01*
X004346Y003841D01*
X004201Y003901D01*
X004083Y003901D01*
X004083Y004206D01*
X004029Y004336D01*
X003535Y004830D01*
X003405Y004883D01*
X003209Y004883D01*
X003258Y005002D01*
X003258Y005158D01*
X003401Y005218D01*
X003512Y005329D01*
X003572Y005474D01*
X003572Y005631D01*
X003512Y005777D01*
X003401Y005888D01*
X003256Y005948D01*
X003099Y005948D01*
X002929Y005864D02*
X001760Y005864D01*
X001760Y005668D02*
X002797Y005668D01*
X002777Y005473D02*
X001760Y005473D01*
X001760Y005278D02*
X002516Y005278D01*
X002467Y005082D02*
X001760Y005082D01*
X001760Y004887D02*
X002514Y004887D01*
X002580Y004691D02*
X001760Y004691D01*
X001760Y004496D02*
X002546Y004496D01*
X002424Y004301D02*
X001760Y004301D01*
X001760Y004105D02*
X002388Y004105D01*
X002450Y003910D02*
X001760Y003910D01*
X001760Y003715D02*
X003374Y003715D01*
X003374Y003519D02*
X001760Y003519D01*
X001760Y003324D02*
X003374Y003324D01*
X003403Y003129D02*
X001760Y003129D01*
X001760Y002933D02*
X003563Y002933D01*
X003759Y002738D02*
X001760Y002738D01*
X001760Y002543D02*
X001831Y002543D01*
X002083Y002543D02*
X002933Y002543D01*
X003185Y002543D02*
X003954Y002543D01*
X003412Y002347D02*
X005409Y002347D01*
X005604Y002152D02*
X003454Y002152D01*
X003450Y001957D02*
X005800Y001957D01*
X005995Y001761D02*
X003494Y001761D01*
X003440Y001566D02*
X006191Y001566D01*
X006386Y001371D02*
X003454Y001371D01*
X003448Y001175D02*
X006581Y001175D01*
X008271Y002933D02*
X010421Y002933D01*
X010421Y002738D02*
X008492Y002738D01*
X008533Y002543D02*
X010421Y002543D01*
X010353Y002347D02*
X008477Y002347D01*
X008358Y002152D02*
X010295Y002152D01*
X010295Y001957D02*
X008483Y001957D01*
X008489Y001761D02*
X010295Y001761D01*
X010295Y001566D02*
X008449Y001566D01*
X008494Y001371D02*
X010295Y001371D01*
X010295Y001175D02*
X008442Y001175D01*
X010295Y000980D02*
X003494Y000980D01*
X003443Y000784D02*
X010295Y000784D01*
X010295Y000589D02*
X003454Y000589D01*
X002754Y000784D02*
X002305Y000784D01*
X002352Y000589D02*
X002664Y000589D01*
X002703Y000980D02*
X002396Y000980D01*
X002431Y001175D02*
X002716Y001175D01*
X002664Y001371D02*
X002367Y001371D01*
X002410Y001566D02*
X002708Y001566D01*
X002703Y001761D02*
X002431Y001761D01*
X002332Y001957D02*
X002718Y001957D01*
X002664Y002152D02*
X002352Y002152D01*
X002310Y002347D02*
X002706Y002347D01*
X003117Y003910D02*
X003374Y003910D01*
X003257Y004105D02*
X003179Y004105D01*
X003673Y004691D02*
X004434Y004691D01*
X004449Y004707D02*
X004338Y004596D01*
X004278Y004450D01*
X004278Y004293D01*
X004338Y004148D01*
X004449Y004037D01*
X004595Y003976D01*
X004752Y003976D01*
X004851Y004017D01*
X008700Y004017D01*
X009258Y003459D01*
X009299Y003360D01*
X009410Y003249D01*
X009555Y003189D01*
X009712Y003189D01*
X009858Y003249D01*
X009969Y003360D01*
X010029Y003506D01*
X010029Y003663D01*
X009969Y003808D01*
X009858Y003919D01*
X009759Y003960D01*
X009147Y004572D01*
X009047Y004672D01*
X008917Y004726D01*
X004851Y004726D01*
X004811Y004742D01*
X004818Y004745D01*
X004930Y004856D01*
X004990Y005002D01*
X004990Y005159D01*
X004930Y005304D01*
X004818Y005415D01*
X004673Y005476D01*
X004516Y005476D01*
X004371Y005415D01*
X004259Y005304D01*
X004199Y005159D01*
X004199Y005002D01*
X004259Y004856D01*
X004371Y004745D01*
X004456Y004710D01*
X004449Y004707D01*
X004297Y004496D02*
X003869Y004496D01*
X004043Y004301D02*
X004278Y004301D01*
X004380Y004105D02*
X004083Y004105D01*
X004083Y003910D02*
X008807Y003910D01*
X009002Y003715D02*
X004463Y003715D01*
X004609Y003519D02*
X007593Y003519D01*
X008053Y003519D02*
X009198Y003519D01*
X009335Y003324D02*
X008195Y003324D01*
X008218Y003129D02*
X010421Y003129D01*
X010421Y003324D02*
X009933Y003324D01*
X010029Y003519D02*
X010421Y003519D01*
X010421Y003715D02*
X010008Y003715D01*
X009867Y003910D02*
X010421Y003910D01*
X010421Y004105D02*
X009614Y004105D01*
X009418Y004301D02*
X010421Y004301D01*
X010421Y004496D02*
X009223Y004496D01*
X009000Y004691D02*
X010421Y004691D01*
X010421Y004887D02*
X006850Y004887D01*
X006958Y005082D02*
X010421Y005082D01*
X010421Y005278D02*
X008631Y005278D01*
X008274Y005278D02*
X006942Y005278D01*
X006963Y005473D02*
X007659Y005473D01*
X007585Y005668D02*
X007037Y005668D01*
X007006Y005864D02*
X007616Y005864D01*
X006287Y006059D02*
X001760Y006059D01*
X001760Y006254D02*
X006320Y006254D01*
X006347Y006450D02*
X006110Y006450D01*
X005835Y006450D02*
X001760Y006450D01*
X001760Y006645D02*
X005599Y006645D01*
X005548Y006840D02*
X001760Y006840D01*
X003425Y005864D02*
X006000Y005864D01*
X005868Y005668D02*
X003557Y005668D01*
X003572Y005473D02*
X004509Y005473D01*
X004680Y005473D02*
X005853Y005473D01*
X005964Y005278D02*
X004941Y005278D01*
X004990Y005082D02*
X006168Y005082D01*
X006276Y004887D02*
X004942Y004887D01*
X004247Y004887D02*
X003210Y004887D01*
X003258Y005082D02*
X004199Y005082D01*
X004248Y005278D02*
X003461Y005278D01*
X004295Y007817D02*
X005548Y007817D01*
X005570Y008012D02*
X004379Y008012D01*
X004357Y008208D02*
X005705Y008208D01*
X005733Y008721D02*
X005580Y008784D01*
X005464Y008901D01*
X005401Y009053D01*
X005401Y009218D01*
X005464Y009370D01*
X005580Y009486D01*
X005733Y009549D01*
X005897Y009549D01*
X006049Y009486D01*
X006166Y009370D01*
X006229Y009218D01*
X006229Y009053D01*
X006166Y008901D01*
X006049Y008784D01*
X005897Y008721D01*
X005733Y008721D01*
X005571Y008794D02*
X004379Y008794D01*
X004289Y008599D02*
X008922Y008599D01*
X008807Y008794D02*
X006059Y008794D01*
X006203Y008989D02*
X008807Y008989D01*
X008807Y009185D02*
X006229Y009185D01*
X006156Y009380D02*
X008807Y009380D01*
X008807Y009575D02*
X004379Y009575D01*
X004335Y009380D02*
X005474Y009380D01*
X005401Y009185D02*
X004225Y009185D01*
X004359Y008989D02*
X005427Y008989D01*
X004329Y009771D02*
X008807Y009771D01*
X009516Y009380D02*
X010421Y009380D01*
X010421Y009575D02*
X009885Y009575D01*
X010015Y009771D02*
X010421Y009771D01*
X010421Y009966D02*
X010028Y009966D01*
X009935Y010161D02*
X010421Y010161D01*
X010421Y010357D02*
X009950Y010357D01*
X009839Y010552D02*
X011543Y010552D01*
X010435Y011333D02*
X010014Y011333D01*
X010137Y011529D02*
X010312Y011529D01*
X010264Y011724D02*
X010185Y011724D01*
X010178Y011919D02*
X010271Y011919D01*
X010352Y012115D02*
X010097Y012115D01*
X009917Y012310D02*
X010532Y012310D01*
X010421Y009185D02*
X009516Y009185D01*
X009533Y008989D02*
X010421Y008989D01*
X010421Y008794D02*
X009729Y008794D01*
X009831Y008599D02*
X010421Y008599D01*
X010421Y008403D02*
X009831Y008403D01*
X009831Y008208D02*
X010421Y008208D01*
X010421Y008012D02*
X009831Y008012D01*
X009831Y007817D02*
X010421Y007817D01*
X010421Y007622D02*
X009831Y007622D01*
X009831Y007426D02*
X010421Y007426D01*
X010421Y007231D02*
X009831Y007231D01*
X009831Y007036D02*
X010421Y007036D01*
X010421Y006840D02*
X009831Y006840D01*
X009831Y006645D02*
X010421Y006645D01*
X010421Y006450D02*
X009807Y006450D01*
X009655Y006254D02*
X010421Y006254D01*
X010421Y006059D02*
X009460Y006059D01*
X009290Y005864D02*
X010421Y005864D01*
X010421Y005668D02*
X009321Y005668D01*
X009247Y005473D02*
X010421Y005473D01*
X009117Y008403D02*
X004219Y008403D01*
X005189Y011261D02*
X005272Y011234D01*
X005358Y011220D01*
X005382Y011220D01*
X005382Y011754D01*
X004849Y011754D01*
X004849Y011730D01*
X004862Y011644D01*
X004889Y011561D01*
X004929Y011484D01*
X004980Y011413D01*
X005041Y011352D01*
X005112Y011300D01*
X005189Y011261D01*
X005067Y011333D02*
X004502Y011333D01*
X004625Y011529D02*
X004906Y011529D01*
X004850Y011724D02*
X004673Y011724D01*
X004849Y011793D02*
X005382Y011793D01*
X005382Y012326D01*
X005358Y012326D01*
X005272Y012312D01*
X005189Y012285D01*
X005112Y012246D01*
X005041Y012195D01*
X004980Y012133D01*
X004929Y012063D01*
X004889Y011985D01*
X004862Y011903D01*
X004849Y011817D01*
X004849Y011793D01*
X004868Y011919D02*
X004666Y011919D01*
X004585Y012115D02*
X004967Y012115D01*
X005265Y012310D02*
X004405Y012310D01*
X003642Y012310D02*
X003027Y012310D01*
X003207Y012115D02*
X003462Y012115D01*
X003381Y011919D02*
X003288Y011919D01*
X003295Y011724D02*
X003374Y011724D01*
X003422Y011529D02*
X003248Y011529D01*
X003125Y011333D02*
X003545Y011333D01*
X005382Y011333D02*
X005421Y011333D01*
X005421Y011220D02*
X005445Y011220D01*
X005531Y011234D01*
X005614Y011261D01*
X005691Y011300D01*
X005762Y011352D01*
X005823Y011413D01*
X005874Y011484D01*
X005914Y011561D01*
X005941Y011644D01*
X005954Y011730D01*
X005954Y011754D01*
X005421Y011754D01*
X005421Y011793D01*
X005382Y011793D01*
X005382Y011754D01*
X005421Y011754D01*
X005421Y011220D01*
X005737Y011333D02*
X006301Y011333D01*
X006178Y011529D02*
X005897Y011529D01*
X005953Y011724D02*
X006130Y011724D01*
X005954Y011793D02*
X005954Y011817D01*
X005941Y011903D01*
X005914Y011985D01*
X005874Y012063D01*
X005823Y012133D01*
X005762Y012195D01*
X005691Y012246D01*
X005614Y012285D01*
X005531Y012312D01*
X005445Y012326D01*
X005421Y012326D01*
X005421Y011793D01*
X005954Y011793D01*
X005935Y011919D02*
X006137Y011919D01*
X006218Y012115D02*
X005837Y012115D01*
X005538Y012310D02*
X006398Y012310D01*
X005421Y012310D02*
X005382Y012310D01*
X005382Y012115D02*
X005421Y012115D01*
X005421Y011919D02*
X005382Y011919D01*
X005382Y011724D02*
X005421Y011724D01*
X005421Y011529D02*
X005382Y011529D01*
D15*
X006130Y009372D03*
X006287Y009175D03*
X006484Y009332D03*
X006563Y009096D03*
X008453Y009096D03*
X008531Y009332D03*
X008768Y009372D03*
X009634Y009883D03*
X009555Y010277D03*
X008925Y005710D03*
X008453Y005631D03*
X007980Y005710D03*
X006642Y005710D03*
X006248Y005553D03*
X006563Y005159D03*
X007823Y003191D03*
X008138Y002561D03*
X008098Y001852D03*
X008098Y001380D03*
X006720Y002718D03*
X006248Y002718D03*
X005067Y002009D03*
X005146Y001694D03*
X005067Y001380D03*
X005146Y000986D03*
X005067Y000592D03*
X003098Y000986D03*
X003059Y001380D03*
X003098Y001773D03*
X003059Y002167D03*
X001957Y002167D03*
X002035Y001694D03*
X002035Y001143D03*
X001957Y000592D03*
X003059Y000513D03*
X004122Y003506D03*
X004673Y004372D03*
X004594Y005080D03*
X003177Y005553D03*
X002862Y005080D03*
X002941Y004529D03*
X002783Y004135D03*
X002862Y007285D03*
X009634Y003584D03*
D16*
X010028Y010120D03*
X006130Y010395D03*
X005382Y010671D03*
D17*
X005815Y009135D03*
X003965Y008860D03*
X003965Y009569D03*
X003335Y009569D03*
X002705Y009569D03*
X002705Y008860D03*
X003335Y008860D03*
X003335Y008072D03*
X002705Y008072D03*
X003965Y008072D03*
X009791Y007206D03*
D18*
X009476Y006576D02*
X009161Y006261D01*
X006799Y006261D01*
X006642Y006104D01*
X006642Y005710D01*
X004673Y004372D02*
X008846Y004372D01*
X009634Y003584D01*
X008138Y002561D02*
X007744Y002561D01*
X007193Y003112D01*
X004516Y003112D01*
X004122Y003506D01*
X003728Y003269D02*
X003728Y004135D01*
X003335Y004529D01*
X002941Y004529D01*
X003728Y003269D02*
X004201Y002797D01*
X005461Y002797D01*
X006878Y001380D01*
X008098Y001380D01*
X009476Y006576D02*
X009476Y008545D01*
X009161Y008860D01*
X009161Y009883D01*
X009555Y010277D01*
M02*
