%
M48
M72
T01C0.01201
T02C0.01378
T03C0.01575
T04C0.01969
T05C0.04724
%
T01
X17732Y5921
X18520Y11433
X18520Y16945
X17732Y21669
X28756Y21669
X29150Y17732
X28756Y13795
X29150Y9858
X28756Y5134
X48835Y5921
X49622Y9858
X48835Y13795
X49622Y16945
X48835Y20094
X60646Y27181
X65370Y27181
X76394Y31906
X79150Y18520
X79150Y13795
X94504Y35843
X87417Y57102
X82693Y56315
X77969Y57102
X63795Y51591
X60646Y55528
X44898Y43717
X44110Y50803
X29937Y55528
X26787Y50803
X27575Y45291
X26000Y41354
X26787Y72850
X59465Y93717
X61039Y91748
X63008Y93323
X63795Y90961
X82693Y90961
X83480Y93323
X85843Y93717
X94504Y98835
X93717Y102772
T02
X57890Y68520
X57890Y73638
X63008Y73638
X63008Y68520
X68126Y68520
X68126Y73638
X68126Y78756
X73244Y78756
X73244Y73638
X73244Y68520
X78362Y68520
X78362Y73638
X78362Y78756
X83480Y78756
X83480Y73638
X83480Y68520
X88598Y68520
X88598Y73638
X88598Y78756
X63008Y78756
X57890Y78756
T03
X25213Y80724
X31512Y80724
X37811Y80724
X37811Y88598
X37811Y95685
X31512Y95685
X25213Y95685
X25213Y88598
X31512Y88598
X56315Y91354
X96079Y72063
T04
X59465Y103953
X51984Y106709
X98441Y101197
T05
X10843Y117732
X24622Y117732
X38402Y117732
X52181Y117732
X65961Y117732
X79740Y117732
X93520Y117732
X107299Y117732
M30
