G75*
%MOIN*%
%OFA0B0*%
%FSLAX25Y25*%
%IPPOS*%
%LPD*%
%AMOC8*
5,1,8,0,0,1.08239X$1,22.5*
%
%ADD10C,0.00000*%
%ADD11R,0.05000X0.16535*%
%ADD12R,0.06299X0.11811*%
%ADD13R,0.19000X0.22500*%
%ADD14R,0.11024X0.03937*%
%ADD15R,0.00984X0.06102*%
%ADD16C,0.00500*%
%ADD17R,0.04724X0.03150*%
%ADD18R,0.03150X0.04724*%
D10*
X0014071Y0001984D02*
X0014071Y0021669D01*
X0001591Y0021669D01*
X0001591Y0132693D01*
X0116551Y0132693D01*
X0116551Y0021669D01*
X0104071Y0021669D01*
X0104071Y0001984D01*
X0014071Y0001984D01*
D11*
X0024071Y0013717D03*
X0034071Y0013717D03*
X0044071Y0013717D03*
X0054071Y0013717D03*
X0064071Y0013717D03*
X0074071Y0013717D03*
X0084071Y0013717D03*
X0094071Y0013717D03*
D12*
X0040488Y0061630D03*
X0022535Y0061630D03*
D13*
X0031512Y0088787D03*
D14*
X0028992Y0036079D03*
X0047496Y0036079D03*
D15*
X0056365Y0062614D03*
X0058965Y0062614D03*
X0061565Y0062614D03*
X0064165Y0062614D03*
X0066765Y0062614D03*
X0069365Y0062614D03*
X0071965Y0062614D03*
X0074565Y0062614D03*
X0077165Y0062614D03*
X0079765Y0062614D03*
X0082365Y0062614D03*
X0084965Y0062614D03*
X0087565Y0062614D03*
X0090165Y0062614D03*
X0090165Y0084661D03*
X0087565Y0084661D03*
X0084965Y0084661D03*
X0082365Y0084661D03*
X0079765Y0084661D03*
X0077165Y0084661D03*
X0074565Y0084661D03*
X0071965Y0084661D03*
X0069365Y0084661D03*
X0066765Y0084661D03*
X0064165Y0084661D03*
X0061565Y0084661D03*
X0058965Y0084661D03*
X0056365Y0084661D03*
D16*
X0070291Y0076591D02*
X0070291Y0070685D01*
X0076197Y0070685D01*
X0076197Y0076591D01*
X0070291Y0076591D01*
X0070291Y0076262D02*
X0076197Y0076262D01*
X0076197Y0075764D02*
X0070291Y0075764D01*
X0070291Y0075265D02*
X0076197Y0075265D01*
X0076197Y0074767D02*
X0070291Y0074767D01*
X0070291Y0074268D02*
X0076197Y0074268D01*
X0076197Y0073770D02*
X0070291Y0073770D01*
X0070291Y0073271D02*
X0076197Y0073271D01*
X0076197Y0072773D02*
X0070291Y0072773D01*
X0070291Y0072274D02*
X0076197Y0072274D01*
X0076197Y0071776D02*
X0070291Y0071776D01*
X0070291Y0071277D02*
X0076197Y0071277D01*
X0076197Y0070779D02*
X0070291Y0070779D01*
D17*
X0050016Y0060252D03*
X0050016Y0053165D03*
X0021276Y0049622D03*
X0021276Y0042535D03*
X0096079Y0067732D03*
X0096079Y0074819D03*
X0096079Y0080331D03*
X0096079Y0087417D03*
D18*
X0098441Y0094504D03*
X0091354Y0094504D03*
X0085055Y0098441D03*
X0077969Y0098441D03*
X0068520Y0098441D03*
X0061433Y0098441D03*
X0053953Y0098047D03*
X0046866Y0098047D03*
M02*
