G75*
%MOIN*%
%OFA0B0*%
%FSLAX25Y25*%
%IPPOS*%
%LPD*%
%AMOC8*
5,1,8,0,0,1.08239X$1,22.5*
%
%ADD10C,0.00000*%
%ADD11C,0.00400*%
%ADD12C,0.00300*%
%ADD13C,0.00800*%
%ADD14R,0.03400X0.03000*%
%ADD15C,0.00197*%
%ADD16C,0.00500*%
%ADD17C,0.00600*%
%ADD18R,0.00722X0.00038*%
%ADD19R,0.00798X0.00038*%
%ADD20R,0.01520X0.00038*%
%ADD21R,0.01444X0.00038*%
%ADD22R,0.01938X0.00038*%
%ADD23R,0.01900X0.00038*%
%ADD24R,0.02242X0.00038*%
%ADD25R,0.02204X0.00038*%
%ADD26R,0.02356X0.00038*%
%ADD27R,0.02204X0.00038*%
%ADD28R,0.02508X0.00038*%
%ADD29R,0.02470X0.00038*%
%ADD30R,0.02432X0.00038*%
%ADD31R,0.02736X0.00038*%
%ADD32R,0.02660X0.00038*%
%ADD33R,0.02926X0.00038*%
%ADD34R,0.02850X0.00038*%
%ADD35R,0.02356X0.00038*%
%ADD36R,0.03078X0.00038*%
%ADD37R,0.03002X0.00038*%
%ADD38R,0.03192X0.00038*%
%ADD39R,0.03344X0.00038*%
%ADD40R,0.02242X0.00038*%
%ADD41R,0.03306X0.00038*%
%ADD42R,0.03458X0.00038*%
%ADD43R,0.03572X0.00038*%
%ADD44R,0.03686X0.00038*%
%ADD45R,0.03800X0.00038*%
%ADD46R,0.03762X0.00038*%
%ADD47R,0.02394X0.00038*%
%ADD48R,0.03876X0.00038*%
%ADD49R,0.03876X0.00038*%
%ADD50R,0.03952X0.00038*%
%ADD51R,0.04028X0.00038*%
%ADD52R,0.04104X0.00038*%
%ADD53R,0.04142X0.00038*%
%ADD54R,0.04218X0.00038*%
%ADD55R,0.04256X0.00038*%
%ADD56R,0.04332X0.00038*%
%ADD57R,0.04370X0.00038*%
%ADD58R,0.04446X0.00038*%
%ADD59R,0.04484X0.00038*%
%ADD60R,0.02318X0.00038*%
%ADD61R,0.04560X0.00038*%
%ADD62R,0.04598X0.00038*%
%ADD63R,0.04636X0.00038*%
%ADD64R,0.04674X0.00038*%
%ADD65R,0.04712X0.00038*%
%ADD66R,0.04750X0.00038*%
%ADD67R,0.04788X0.00038*%
%ADD68R,0.04826X0.00038*%
%ADD69R,0.04864X0.00038*%
%ADD70R,0.04902X0.00038*%
%ADD71R,0.04940X0.00038*%
%ADD72R,0.04978X0.00038*%
%ADD73R,0.05054X0.00038*%
%ADD74R,0.05016X0.00038*%
%ADD75R,0.02318X0.00038*%
%ADD76R,0.05092X0.00038*%
%ADD77R,0.02166X0.00038*%
%ADD78R,0.05130X0.00038*%
%ADD79R,0.02128X0.00038*%
%ADD80R,0.05168X0.00038*%
%ADD81R,0.02090X0.00038*%
%ADD82R,0.02470X0.00038*%
%ADD83R,0.02052X0.00038*%
%ADD84R,0.02280X0.00038*%
%ADD85R,0.02014X0.00038*%
%ADD86R,0.02128X0.00038*%
%ADD87R,0.02090X0.00038*%
%ADD88R,0.02546X0.00038*%
%ADD89R,0.02014X0.00038*%
%ADD90R,0.04712X0.00038*%
%ADD91R,0.05586X0.00038*%
%ADD92R,0.04522X0.00038*%
%ADD93R,0.04408X0.00038*%
%ADD94R,0.03990X0.00038*%
%ADD95R,0.04180X0.00038*%
%ADD96R,0.04826X0.00038*%
%ADD97R,0.05548X0.00038*%
%ADD98R,0.04940X0.00038*%
%ADD99R,0.04142X0.00038*%
%ADD100R,0.05548X0.00038*%
%ADD101R,0.05244X0.00038*%
%ADD102R,0.04066X0.00038*%
%ADD103R,0.05282X0.00038*%
%ADD104R,0.05320X0.00038*%
%ADD105R,0.05358X0.00038*%
%ADD106R,0.05434X0.00038*%
%ADD107R,0.05510X0.00038*%
%ADD108R,0.05472X0.00038*%
%ADD109R,0.04294X0.00038*%
%ADD110R,0.05624X0.00038*%
%ADD111R,0.05662X0.00038*%
%ADD112R,0.04370X0.00038*%
%ADD113R,0.05168X0.00038*%
%ADD114R,0.05700X0.00038*%
%ADD115R,0.05738X0.00038*%
%ADD116R,0.02622X0.00038*%
%ADD117R,0.05776X0.00038*%
%ADD118R,0.05814X0.00038*%
%ADD119R,0.05814X0.00038*%
%ADD120R,0.05852X0.00038*%
%ADD121R,0.03154X0.00038*%
%ADD122R,0.01976X0.00038*%
%ADD123R,0.05890X0.00038*%
%ADD124R,0.00152X0.00038*%
%ADD125R,0.05928X0.00038*%
%ADD126R,0.05966X0.00038*%
%ADD127R,0.06004X0.00038*%
%ADD128R,0.06004X0.00038*%
%ADD129R,0.06042X0.00038*%
%ADD130R,0.02774X0.00038*%
%ADD131R,0.02584X0.00038*%
%ADD132R,0.05092X0.00038*%
%ADD133R,0.04864X0.00038*%
%ADD134R,0.05054X0.00038*%
%ADD135R,0.04978X0.00038*%
%ADD136R,0.01862X0.00038*%
%ADD137R,0.01824X0.00038*%
%ADD138R,0.01786X0.00038*%
%ADD139R,0.01748X0.00038*%
%ADD140R,0.01710X0.00038*%
%ADD141R,0.01672X0.00038*%
%ADD142R,0.01634X0.00038*%
%ADD143R,0.00836X0.00038*%
%ADD144R,0.00608X0.00038*%
%ADD145R,0.01596X0.00038*%
%ADD146R,0.00646X0.00038*%
%ADD147R,0.04256X0.00038*%
%ADD148R,0.00760X0.00038*%
%ADD149R,0.03838X0.00038*%
%ADD150R,0.00684X0.00038*%
%ADD151R,0.01482X0.00038*%
%ADD152R,0.03724X0.00038*%
%ADD153R,0.04104X0.00038*%
%ADD154R,0.03648X0.00038*%
%ADD155R,0.00798X0.00038*%
%ADD156R,0.03534X0.00038*%
%ADD157R,0.00684X0.00038*%
%ADD158R,0.01368X0.00038*%
%ADD159R,0.03382X0.00038*%
%ADD160R,0.01330X0.00038*%
%ADD161R,0.03762X0.00038*%
%ADD162R,0.01292X0.00038*%
%ADD163R,0.01254X0.00038*%
%ADD164R,0.01178X0.00038*%
%ADD165R,0.03420X0.00038*%
%ADD166R,0.01140X0.00038*%
%ADD167R,0.03306X0.00038*%
%ADD168R,0.01064X0.00038*%
%ADD169R,0.00988X0.00038*%
%ADD170R,0.00874X0.00038*%
%ADD171R,0.02812X0.00038*%
%ADD172R,0.02584X0.00038*%
%ADD173R,0.00532X0.00038*%
%ADD174R,0.01520X0.00038*%
%ADD175R,0.00912X0.00038*%
%ADD176R,0.00950X0.00038*%
%ADD177R,0.00912X0.00038*%
%ADD178R,0.01026X0.00038*%
%ADD179R,0.05320X0.00038*%
%ADD180R,0.01102X0.00038*%
%ADD181R,0.05890X0.00038*%
%ADD182R,0.00570X0.00038*%
%ADD183R,0.05662X0.00038*%
%ADD184R,0.05396X0.00038*%
%ADD185R,0.00570X0.00038*%
%ADD186R,0.05206X0.00038*%
%ADD187R,0.01292X0.00038*%
%ADD188R,0.01216X0.00038*%
%ADD189R,0.03914X0.00038*%
%ADD190R,0.01140X0.00038*%
%ADD191R,0.00050X0.00025*%
%ADD192R,0.00075X0.00025*%
%ADD193R,0.00125X0.00025*%
%ADD194R,0.00200X0.00025*%
%ADD195R,0.00250X0.00025*%
%ADD196R,0.00325X0.00025*%
%ADD197R,0.00300X0.00025*%
%ADD198R,0.00375X0.00025*%
%ADD199R,0.00450X0.00025*%
%ADD200R,0.00425X0.00025*%
%ADD201R,0.00500X0.00025*%
%ADD202R,0.00550X0.00025*%
%ADD203R,0.00625X0.00025*%
%ADD204R,0.00675X0.00025*%
%ADD205R,0.00750X0.00025*%
%ADD206R,0.00800X0.00025*%
%ADD207R,0.00875X0.00025*%
%ADD208R,0.00900X0.00025*%
%ADD209R,0.00925X0.00025*%
%ADD210R,0.00975X0.00025*%
%ADD211R,0.01025X0.00025*%
%ADD212R,0.01050X0.00025*%
%ADD213R,0.01075X0.00025*%
%ADD214R,0.01100X0.00025*%
%ADD215R,0.01150X0.00025*%
%ADD216R,0.00100X0.00025*%
%ADD217R,0.01175X0.00025*%
%ADD218R,0.01200X0.00025*%
%ADD219R,0.00175X0.00025*%
%ADD220R,0.01225X0.00025*%
%ADD221R,0.01300X0.00025*%
%ADD222R,0.00225X0.00025*%
%ADD223R,0.01350X0.00025*%
%ADD224R,0.01425X0.00025*%
%ADD225R,0.00350X0.00025*%
%ADD226R,0.01450X0.00025*%
%ADD227R,0.00400X0.00025*%
%ADD228R,0.01475X0.00025*%
%ADD229R,0.01550X0.00025*%
%ADD230R,0.00475X0.00025*%
%ADD231R,0.01625X0.00025*%
%ADD232R,0.00525X0.00025*%
%ADD233R,0.01600X0.00025*%
%ADD234R,0.02275X0.00025*%
%ADD235R,0.02300X0.00025*%
%ADD236R,0.02350X0.00025*%
%ADD237R,0.02375X0.00025*%
%ADD238R,0.02425X0.00025*%
%ADD239R,0.02400X0.00025*%
%ADD240R,0.02450X0.00025*%
%ADD241R,0.02475X0.00025*%
%ADD242R,0.02525X0.00025*%
%ADD243R,0.02550X0.00025*%
%ADD244R,0.02500X0.00025*%
%ADD245R,0.02325X0.00025*%
%ADD246R,0.02575X0.00025*%
%ADD247R,0.02600X0.00025*%
%ADD248R,0.02625X0.00025*%
%ADD249R,0.02650X0.00025*%
%ADD250R,0.02675X0.00025*%
%ADD251R,0.02700X0.00025*%
%ADD252R,0.02725X0.00025*%
%ADD253R,0.02750X0.00025*%
%ADD254R,0.02775X0.00025*%
%ADD255R,0.02900X0.00025*%
%ADD256R,0.03025X0.00025*%
%ADD257R,0.03125X0.00025*%
%ADD258R,0.03100X0.00025*%
%ADD259R,0.03225X0.00025*%
%ADD260R,0.03250X0.00025*%
%ADD261R,0.03350X0.00025*%
%ADD262R,0.03475X0.00025*%
%ADD263R,0.03450X0.00025*%
%ADD264R,0.03425X0.00025*%
%ADD265R,0.03400X0.00025*%
%ADD266R,0.03375X0.00025*%
%ADD267R,0.03325X0.00025*%
%ADD268R,0.03500X0.00025*%
%ADD269R,0.03300X0.00025*%
%ADD270R,0.03175X0.00025*%
%ADD271R,0.03050X0.00025*%
%ADD272R,0.02950X0.00025*%
%ADD273R,0.02850X0.00025*%
%ADD274R,0.02825X0.00025*%
%ADD275R,0.02800X0.00025*%
%ADD276R,0.02875X0.00025*%
%ADD277R,0.02925X0.00025*%
%ADD278R,0.03075X0.00025*%
%ADD279R,0.06450X0.00025*%
%ADD280R,0.06425X0.00025*%
%ADD281R,0.06400X0.00025*%
%ADD282R,0.06350X0.00025*%
%ADD283R,0.06325X0.00025*%
%ADD284R,0.06300X0.00025*%
%ADD285R,0.06250X0.00025*%
%ADD286R,0.06200X0.00025*%
%ADD287R,0.06175X0.00025*%
%ADD288R,0.06150X0.00025*%
%ADD289R,0.06100X0.00025*%
%ADD290R,0.06475X0.00025*%
%ADD291R,0.06525X0.00025*%
%ADD292R,0.06550X0.00025*%
%ADD293R,0.06600X0.00025*%
%ADD294R,0.06625X0.00025*%
%ADD295R,0.06650X0.00025*%
%ADD296R,0.06700X0.00025*%
%ADD297R,0.06725X0.00025*%
%ADD298R,0.06750X0.00025*%
%ADD299R,0.06800X0.00025*%
%ADD300R,0.06825X0.00025*%
%ADD301R,0.06850X0.00025*%
%ADD302R,0.06900X0.00025*%
%ADD303R,0.06925X0.00025*%
%ADD304R,0.06950X0.00025*%
%ADD305R,0.07000X0.00025*%
%ADD306R,0.07050X0.00025*%
%ADD307R,0.07100X0.00025*%
%ADD308R,0.07150X0.00025*%
%ADD309R,0.07200X0.00025*%
%ADD310R,0.07250X0.00025*%
%ADD311R,0.07275X0.00025*%
%ADD312R,0.07300X0.00025*%
%ADD313R,0.07350X0.00025*%
%ADD314R,0.07375X0.00025*%
%ADD315R,0.07400X0.00025*%
%ADD316R,0.07450X0.00025*%
%ADD317R,0.07475X0.00025*%
%ADD318R,0.01750X0.00025*%
%ADD319R,0.01675X0.00025*%
%ADD320R,0.03200X0.00025*%
%ADD321R,0.01500X0.00025*%
%ADD322R,0.01375X0.00025*%
%ADD323R,0.01325X0.00025*%
%ADD324R,0.01250X0.00025*%
%ADD325R,0.01125X0.00025*%
%ADD326R,0.02200X0.00025*%
%ADD327R,0.02100X0.00025*%
%ADD328R,0.01000X0.00025*%
%ADD329R,0.02000X0.00025*%
%ADD330R,0.00950X0.00025*%
%ADD331R,0.01850X0.00025*%
%ADD332R,0.01800X0.00025*%
%ADD333R,0.00825X0.00025*%
%ADD334R,0.01700X0.00025*%
%ADD335R,0.00700X0.00025*%
%ADD336R,0.00575X0.00025*%
%ADD337R,0.01650X0.00025*%
%ADD338R,0.00275X0.00025*%
%ADD339R,0.00150X0.00025*%
%ADD340R,0.01575X0.00025*%
%ADD341R,0.01525X0.00025*%
%ADD342R,0.01400X0.00025*%
D10*
X0014071Y0001984D02*
X0014071Y0021669D01*
X0001591Y0021669D01*
X0001591Y0132693D01*
X0116551Y0132693D01*
X0116551Y0021669D01*
X0104071Y0021669D01*
X0104071Y0001984D01*
X0014071Y0001984D01*
D11*
X0025449Y0023283D02*
X0025449Y0033323D01*
X0021981Y0033123D02*
X0021381Y0032523D01*
X0020780Y0032523D01*
X0020180Y0033123D01*
X0020180Y0034325D01*
X0020780Y0034925D01*
X0021381Y0034925D01*
X0021981Y0034325D01*
X0021981Y0033123D01*
X0020180Y0033123D02*
X0019579Y0032523D01*
X0018979Y0032523D01*
X0018378Y0033123D01*
X0018378Y0034325D01*
X0018979Y0034925D01*
X0019579Y0034925D01*
X0020180Y0034325D01*
X0019579Y0031242D02*
X0018979Y0031242D01*
X0018378Y0030641D01*
X0018378Y0029440D01*
X0018979Y0028840D01*
X0018979Y0027559D02*
X0018378Y0026958D01*
X0018378Y0025757D01*
X0018979Y0025157D01*
X0021381Y0025157D01*
X0021981Y0025757D01*
X0021981Y0026958D01*
X0021381Y0027559D01*
X0021981Y0028840D02*
X0019579Y0031242D01*
X0021981Y0031242D02*
X0021981Y0028840D01*
X0025449Y0023283D02*
X0047890Y0023283D01*
X0051039Y0026433D01*
X0058483Y0029743D02*
X0058483Y0033283D01*
X0060253Y0033283D01*
X0060843Y0032693D01*
X0060843Y0031513D01*
X0060253Y0030923D01*
X0058483Y0030923D01*
X0059663Y0030923D02*
X0060843Y0029743D01*
X0062109Y0030333D02*
X0062109Y0031513D01*
X0062699Y0032103D01*
X0063879Y0032103D01*
X0064469Y0031513D01*
X0064469Y0030923D01*
X0062109Y0030923D01*
X0062109Y0030333D02*
X0062699Y0029743D01*
X0063879Y0029743D01*
X0065734Y0032103D02*
X0066914Y0029743D01*
X0068094Y0032103D01*
X0069359Y0030333D02*
X0069949Y0030333D01*
X0069949Y0029743D01*
X0069359Y0029743D01*
X0069359Y0030333D01*
X0071171Y0029743D02*
X0071171Y0032103D01*
X0072351Y0033283D01*
X0073531Y0032103D01*
X0073531Y0029743D01*
X0073531Y0031513D02*
X0071171Y0031513D01*
X0069949Y0034468D02*
X0069359Y0034468D01*
X0069359Y0035058D01*
X0069949Y0035058D01*
X0069949Y0034468D01*
X0069949Y0036238D02*
X0069359Y0036238D01*
X0069359Y0036828D01*
X0069949Y0036828D01*
X0069949Y0036238D01*
X0068094Y0034468D02*
X0068094Y0038008D01*
X0065734Y0038008D02*
X0068094Y0034468D01*
X0065734Y0034468D02*
X0065734Y0038008D01*
X0064469Y0038008D02*
X0062109Y0034468D01*
X0060843Y0036238D02*
X0060253Y0035648D01*
X0058483Y0035648D01*
X0058483Y0034468D02*
X0058483Y0038008D01*
X0060253Y0038008D01*
X0060843Y0037418D01*
X0060843Y0036238D01*
X0051039Y0045724D02*
X0047890Y0048874D01*
X0025449Y0048874D01*
X0025449Y0039228D01*
X0024775Y0050316D02*
X0024775Y0053856D01*
X0026545Y0053856D01*
X0027135Y0053266D01*
X0027135Y0052086D01*
X0026545Y0051496D01*
X0024775Y0051496D01*
X0025955Y0051496D02*
X0027135Y0050316D01*
X0028400Y0050906D02*
X0028990Y0050316D01*
X0030170Y0050316D01*
X0030760Y0050906D01*
X0030760Y0051496D01*
X0030170Y0052086D01*
X0029580Y0052086D01*
X0030170Y0052086D02*
X0030760Y0052676D01*
X0030760Y0053266D01*
X0030170Y0053856D01*
X0028990Y0053856D01*
X0028400Y0053266D01*
X0028987Y0058417D02*
X0028397Y0059007D01*
X0028397Y0061367D01*
X0028987Y0061957D01*
X0030167Y0061957D01*
X0030757Y0061367D01*
X0030757Y0059007D01*
X0030167Y0058417D01*
X0028987Y0058417D01*
X0029577Y0059597D02*
X0030757Y0058417D01*
X0032022Y0058417D02*
X0034382Y0058417D01*
X0033202Y0058417D02*
X0033202Y0061957D01*
X0032022Y0060777D01*
X0046428Y0064686D02*
X0047018Y0064096D01*
X0048198Y0064096D01*
X0048788Y0064686D01*
X0050053Y0064686D02*
X0050643Y0064096D01*
X0051823Y0064096D01*
X0052413Y0064686D01*
X0052413Y0067046D01*
X0051823Y0067636D01*
X0050643Y0067636D01*
X0050053Y0067046D01*
X0050053Y0066456D01*
X0050643Y0065866D01*
X0052413Y0065866D01*
X0048788Y0067046D02*
X0048198Y0067636D01*
X0047018Y0067636D01*
X0046428Y0067046D01*
X0046428Y0064686D01*
X0069113Y0057283D02*
X0069113Y0054333D01*
X0069703Y0053743D01*
X0070883Y0053743D01*
X0071473Y0054333D01*
X0071473Y0057283D01*
X0072739Y0056103D02*
X0073919Y0057283D01*
X0073919Y0053743D01*
X0072739Y0053743D02*
X0075099Y0053743D01*
X0074797Y0038008D02*
X0074797Y0034468D01*
X0077157Y0034468D01*
X0078422Y0034468D02*
X0078422Y0036828D01*
X0079602Y0038008D01*
X0080782Y0036828D01*
X0080782Y0034468D01*
X0080782Y0036238D02*
X0078422Y0036238D01*
X0077157Y0038008D02*
X0074797Y0038008D01*
X0074797Y0036238D02*
X0075977Y0036238D01*
X0082047Y0038008D02*
X0084407Y0038008D01*
X0083227Y0038008D02*
X0083227Y0034468D01*
X0085672Y0035058D02*
X0085672Y0037418D01*
X0086262Y0038008D01*
X0087442Y0038008D01*
X0088032Y0037418D01*
X0085672Y0035058D01*
X0086262Y0034468D01*
X0087442Y0034468D01*
X0088032Y0035058D01*
X0088032Y0037418D01*
X0089297Y0037418D02*
X0089297Y0035058D01*
X0091657Y0037418D01*
X0091657Y0035058D01*
X0091067Y0034468D01*
X0089887Y0034468D01*
X0089297Y0035058D01*
X0089297Y0037418D02*
X0089887Y0038008D01*
X0091067Y0038008D01*
X0091657Y0037418D01*
X0092922Y0037418D02*
X0092922Y0035058D01*
X0095282Y0037418D01*
X0095282Y0035058D01*
X0094692Y0034468D01*
X0093512Y0034468D01*
X0092922Y0035058D01*
X0092922Y0037418D02*
X0093512Y0038008D01*
X0094692Y0038008D01*
X0095282Y0037418D01*
X0096547Y0036828D02*
X0097727Y0038008D01*
X0097727Y0034468D01*
X0096547Y0034468D02*
X0098907Y0034468D01*
X0089961Y0024783D02*
X0087601Y0024783D01*
X0088781Y0024783D02*
X0088781Y0028323D01*
X0087601Y0027143D01*
X0086336Y0028323D02*
X0085156Y0028323D01*
X0085746Y0028323D02*
X0085746Y0025373D01*
X0085156Y0024783D01*
X0084566Y0024783D01*
X0083976Y0025373D01*
X0099915Y0067688D02*
X0102275Y0067688D01*
X0102865Y0068278D01*
X0102865Y0069458D01*
X0102275Y0070048D01*
X0102275Y0071313D02*
X0101685Y0071313D01*
X0101095Y0071903D01*
X0101095Y0073083D01*
X0101685Y0073673D01*
X0102275Y0073673D01*
X0102865Y0073083D01*
X0102865Y0071903D01*
X0102275Y0071313D01*
X0101095Y0071903D02*
X0100505Y0071313D01*
X0099915Y0071313D01*
X0099325Y0071903D01*
X0099325Y0073083D01*
X0099915Y0073673D01*
X0100505Y0073673D01*
X0101095Y0073083D01*
X0099915Y0070048D02*
X0099325Y0069458D01*
X0099325Y0068278D01*
X0099915Y0067688D01*
X0099915Y0077924D02*
X0102275Y0077924D01*
X0102865Y0078514D01*
X0102865Y0079694D01*
X0102275Y0080284D01*
X0102865Y0081550D02*
X0102865Y0083910D01*
X0102865Y0082730D02*
X0099325Y0082730D01*
X0100505Y0081550D01*
X0099915Y0080284D02*
X0099325Y0079694D01*
X0099325Y0078514D01*
X0099915Y0077924D01*
X0100505Y0085175D02*
X0099325Y0086355D01*
X0102865Y0086355D01*
X0102865Y0085175D02*
X0102865Y0087535D01*
X0102865Y0088800D02*
X0102865Y0091160D01*
X0102865Y0089980D02*
X0099325Y0089980D01*
X0100505Y0088800D01*
X0096705Y0097954D02*
X0095525Y0097954D01*
X0094935Y0098544D01*
X0094935Y0099724D02*
X0096115Y0100314D01*
X0096705Y0100314D01*
X0097295Y0099724D01*
X0097295Y0098544D01*
X0096705Y0097954D01*
X0094935Y0099724D02*
X0094935Y0101494D01*
X0097295Y0101494D01*
X0093670Y0100904D02*
X0093080Y0101494D01*
X0091900Y0101494D01*
X0091310Y0100904D01*
X0091310Y0098544D01*
X0091900Y0097954D01*
X0093080Y0097954D01*
X0093670Y0098544D01*
X0081547Y0094801D02*
X0081547Y0094211D01*
X0079187Y0091851D01*
X0079187Y0091261D01*
X0077922Y0091261D02*
X0076742Y0092441D01*
X0077332Y0092441D02*
X0075562Y0092441D01*
X0075562Y0091261D02*
X0075562Y0094801D01*
X0077332Y0094801D01*
X0077922Y0094211D01*
X0077922Y0093031D01*
X0077332Y0092441D01*
X0079187Y0094801D02*
X0081547Y0094801D01*
X0071311Y0094407D02*
X0070131Y0093817D01*
X0068951Y0092637D01*
X0070721Y0092637D01*
X0071311Y0092047D01*
X0071311Y0091457D01*
X0070721Y0090867D01*
X0069541Y0090867D01*
X0068951Y0091457D01*
X0068951Y0092637D01*
X0067686Y0092637D02*
X0067686Y0093817D01*
X0067096Y0094407D01*
X0065326Y0094407D01*
X0065326Y0090867D01*
X0065326Y0092047D02*
X0067096Y0092047D01*
X0067686Y0092637D01*
X0066506Y0092047D02*
X0067686Y0090867D01*
X0052807Y0093817D02*
X0050447Y0091457D01*
X0050447Y0090867D01*
X0049182Y0091457D02*
X0048592Y0090867D01*
X0047412Y0090867D01*
X0046822Y0091457D01*
X0046822Y0093817D01*
X0047412Y0094407D01*
X0048592Y0094407D01*
X0049182Y0093817D01*
X0050447Y0094407D02*
X0052807Y0094407D01*
X0052807Y0093817D01*
X0020014Y0100412D02*
X0019424Y0099822D01*
X0018244Y0099822D01*
X0017654Y0100412D01*
X0017654Y0101592D02*
X0018834Y0102182D01*
X0019424Y0102182D01*
X0020014Y0101592D01*
X0020014Y0100412D01*
X0017654Y0101592D02*
X0017654Y0103362D01*
X0020014Y0103362D01*
X0016388Y0103362D02*
X0015208Y0103362D01*
X0015798Y0103362D02*
X0015798Y0100412D01*
X0015208Y0099822D01*
X0014618Y0099822D01*
X0014028Y0100412D01*
X0026433Y0039130D02*
X0026511Y0039418D01*
X0026595Y0039703D01*
X0026687Y0039986D01*
X0026785Y0040267D01*
X0026890Y0040545D01*
X0027002Y0040821D01*
X0027121Y0041094D01*
X0027246Y0041364D01*
X0027378Y0041631D01*
X0027516Y0041894D01*
X0027661Y0042155D01*
X0027812Y0042411D01*
X0027970Y0042664D01*
X0028133Y0042912D01*
X0028302Y0043157D01*
X0028478Y0043398D01*
X0028659Y0043634D01*
X0028846Y0043865D01*
X0029038Y0044092D01*
X0029236Y0044315D01*
X0029440Y0044532D01*
X0029648Y0044744D01*
X0029862Y0044951D01*
X0030081Y0045153D01*
X0030304Y0045350D01*
X0030533Y0045541D01*
X0030765Y0045726D01*
X0031003Y0045906D01*
X0031245Y0046079D01*
X0031490Y0046247D01*
X0031740Y0046409D01*
X0031994Y0046564D01*
X0032251Y0046714D01*
X0032512Y0046857D01*
X0032777Y0046993D01*
X0033045Y0047123D01*
X0033315Y0047247D01*
X0033589Y0047364D01*
X0033866Y0047474D01*
X0034145Y0047577D01*
X0034426Y0047674D01*
X0034710Y0047763D01*
X0034996Y0047846D01*
X0035284Y0047921D01*
X0035574Y0047990D01*
X0035865Y0048051D01*
X0036158Y0048106D01*
X0036451Y0048153D01*
X0036746Y0048193D01*
X0037042Y0048225D01*
X0037339Y0048251D01*
X0037636Y0048269D01*
X0037933Y0048280D01*
X0038231Y0048284D01*
X0038528Y0048280D01*
X0038826Y0048270D01*
X0039123Y0048252D01*
X0039420Y0048226D01*
X0039715Y0048194D01*
X0040010Y0048154D01*
X0040304Y0048107D01*
X0040597Y0048053D01*
X0040888Y0047992D01*
X0041178Y0047923D01*
X0041466Y0047848D01*
X0041752Y0047765D01*
X0042036Y0047676D01*
X0042317Y0047580D01*
X0042597Y0047477D01*
X0042873Y0047367D01*
X0043147Y0047250D01*
X0043418Y0047127D01*
X0043686Y0046997D01*
X0043950Y0046861D01*
X0044211Y0046718D01*
X0044469Y0046569D01*
X0044723Y0046413D01*
X0044973Y0046252D01*
X0045219Y0046084D01*
X0045461Y0045911D01*
X0045698Y0045731D01*
X0045931Y0045546D01*
X0046160Y0045355D01*
X0046383Y0045159D01*
X0046602Y0044957D01*
X0046816Y0044750D01*
X0047025Y0044538D01*
X0047228Y0044321D01*
X0047426Y0044099D01*
X0047619Y0043872D01*
X0047806Y0043640D01*
X0047987Y0043404D01*
X0048163Y0043164D01*
X0048332Y0042919D01*
X0048496Y0042671D01*
X0048653Y0042418D01*
X0048805Y0042162D01*
X0048950Y0041902D01*
X0049088Y0041638D01*
X0049220Y0041372D01*
X0049346Y0041102D01*
X0049465Y0040829D01*
X0049577Y0040553D01*
X0049682Y0040275D01*
X0049781Y0039994D01*
X0049872Y0039711D01*
X0049957Y0039425D01*
X0050055Y0033028D02*
X0049977Y0032740D01*
X0049893Y0032455D01*
X0049801Y0032172D01*
X0049703Y0031891D01*
X0049598Y0031613D01*
X0049486Y0031337D01*
X0049367Y0031064D01*
X0049242Y0030794D01*
X0049110Y0030527D01*
X0048972Y0030264D01*
X0048827Y0030003D01*
X0048676Y0029747D01*
X0048518Y0029494D01*
X0048355Y0029246D01*
X0048186Y0029001D01*
X0048010Y0028760D01*
X0047829Y0028524D01*
X0047642Y0028293D01*
X0047450Y0028066D01*
X0047252Y0027843D01*
X0047048Y0027626D01*
X0046840Y0027414D01*
X0046626Y0027207D01*
X0046407Y0027005D01*
X0046184Y0026808D01*
X0045955Y0026617D01*
X0045723Y0026432D01*
X0045485Y0026252D01*
X0045243Y0026079D01*
X0044998Y0025911D01*
X0044748Y0025749D01*
X0044494Y0025594D01*
X0044237Y0025444D01*
X0043976Y0025301D01*
X0043711Y0025165D01*
X0043443Y0025035D01*
X0043173Y0024911D01*
X0042899Y0024794D01*
X0042622Y0024684D01*
X0042343Y0024581D01*
X0042062Y0024484D01*
X0041778Y0024395D01*
X0041492Y0024312D01*
X0041204Y0024237D01*
X0040914Y0024168D01*
X0040623Y0024107D01*
X0040330Y0024052D01*
X0040037Y0024005D01*
X0039742Y0023965D01*
X0039446Y0023933D01*
X0039149Y0023907D01*
X0038852Y0023889D01*
X0038555Y0023878D01*
X0038257Y0023874D01*
X0037960Y0023878D01*
X0037662Y0023888D01*
X0037365Y0023906D01*
X0037068Y0023932D01*
X0036773Y0023964D01*
X0036478Y0024004D01*
X0036184Y0024051D01*
X0035891Y0024105D01*
X0035600Y0024166D01*
X0035310Y0024235D01*
X0035022Y0024310D01*
X0034736Y0024393D01*
X0034452Y0024482D01*
X0034171Y0024578D01*
X0033891Y0024681D01*
X0033615Y0024791D01*
X0033341Y0024908D01*
X0033070Y0025031D01*
X0032802Y0025161D01*
X0032538Y0025297D01*
X0032277Y0025440D01*
X0032019Y0025589D01*
X0031765Y0025745D01*
X0031515Y0025906D01*
X0031269Y0026074D01*
X0031027Y0026247D01*
X0030790Y0026427D01*
X0030557Y0026612D01*
X0030328Y0026803D01*
X0030105Y0026999D01*
X0029886Y0027201D01*
X0029672Y0027408D01*
X0029463Y0027620D01*
X0029260Y0027837D01*
X0029062Y0028059D01*
X0028869Y0028286D01*
X0028682Y0028518D01*
X0028501Y0028754D01*
X0028325Y0028994D01*
X0028156Y0029239D01*
X0027992Y0029487D01*
X0027835Y0029740D01*
X0027683Y0029996D01*
X0027538Y0030256D01*
X0027400Y0030520D01*
X0027268Y0030786D01*
X0027142Y0031056D01*
X0027023Y0031329D01*
X0026911Y0031605D01*
X0026806Y0031883D01*
X0026707Y0032164D01*
X0026616Y0032447D01*
X0026531Y0032733D01*
D12*
X0051347Y0039930D02*
X0051347Y0042585D01*
X0051789Y0041700D02*
X0052674Y0041700D01*
X0053117Y0041257D01*
X0053117Y0039930D01*
X0051347Y0041257D02*
X0051789Y0041700D01*
X0054066Y0041700D02*
X0054951Y0041700D01*
X0054508Y0042142D02*
X0054508Y0040372D01*
X0054951Y0039930D01*
X0056321Y0040372D02*
X0056763Y0039930D01*
X0056321Y0040372D02*
X0056321Y0042142D01*
X0055878Y0041700D02*
X0056763Y0041700D01*
X0057691Y0041700D02*
X0059018Y0041700D01*
X0059461Y0041257D01*
X0059461Y0040372D01*
X0059018Y0039930D01*
X0057691Y0039930D01*
X0057691Y0039045D02*
X0057691Y0041700D01*
X0060410Y0041700D02*
X0060410Y0041257D01*
X0060852Y0041257D01*
X0060852Y0041700D01*
X0060410Y0041700D01*
X0060410Y0040372D02*
X0060410Y0039930D01*
X0060852Y0039930D01*
X0060852Y0040372D01*
X0060410Y0040372D01*
X0061769Y0039930D02*
X0063539Y0042585D01*
X0066258Y0042585D02*
X0064488Y0039930D01*
X0067207Y0040372D02*
X0067207Y0041257D01*
X0067649Y0041700D01*
X0068977Y0041700D01*
X0068977Y0042585D02*
X0068977Y0039930D01*
X0067649Y0039930D01*
X0067207Y0040372D01*
X0069926Y0040372D02*
X0070368Y0039930D01*
X0071253Y0039930D01*
X0071696Y0040815D02*
X0069926Y0040815D01*
X0069926Y0041257D02*
X0070368Y0041700D01*
X0071253Y0041700D01*
X0071696Y0041257D01*
X0071696Y0040815D01*
X0072644Y0039930D02*
X0073529Y0039930D01*
X0073087Y0039930D02*
X0073087Y0042585D01*
X0072644Y0042585D01*
X0074457Y0041700D02*
X0075342Y0041700D01*
X0074900Y0042142D02*
X0074900Y0040372D01*
X0075342Y0039930D01*
X0076270Y0040372D02*
X0076712Y0040815D01*
X0078040Y0040815D01*
X0078040Y0041257D02*
X0078040Y0039930D01*
X0076712Y0039930D01*
X0076270Y0040372D01*
X0076712Y0041700D02*
X0077597Y0041700D01*
X0078040Y0041257D01*
X0078988Y0040372D02*
X0079431Y0040372D01*
X0079431Y0039930D01*
X0078988Y0039930D01*
X0078988Y0040372D01*
X0080348Y0041257D02*
X0081233Y0041257D01*
X0080790Y0042142D02*
X0080790Y0039930D01*
X0082160Y0039930D02*
X0083045Y0039930D01*
X0082603Y0039930D02*
X0082603Y0041700D01*
X0082160Y0041700D01*
X0082603Y0042585D02*
X0082603Y0043027D01*
X0081233Y0042585D02*
X0080790Y0042142D01*
X0083973Y0041700D02*
X0083973Y0039930D01*
X0083973Y0040815D02*
X0084858Y0041700D01*
X0085301Y0041700D01*
X0086239Y0041257D02*
X0086681Y0041700D01*
X0087566Y0041700D01*
X0088009Y0041257D01*
X0088009Y0040815D01*
X0086239Y0040815D01*
X0086239Y0041257D02*
X0086239Y0040372D01*
X0086681Y0039930D01*
X0087566Y0039930D01*
X0088958Y0039930D02*
X0090285Y0039930D01*
X0090728Y0040372D01*
X0090728Y0041257D01*
X0090285Y0041700D01*
X0088958Y0041700D01*
X0088958Y0039045D01*
X0091676Y0039930D02*
X0092561Y0039930D01*
X0092119Y0039930D02*
X0092119Y0041700D01*
X0091676Y0041700D01*
X0092119Y0042585D02*
X0092119Y0043027D01*
X0093489Y0041257D02*
X0093489Y0040372D01*
X0093931Y0039930D01*
X0095259Y0039930D01*
X0096208Y0039930D02*
X0096208Y0042585D01*
X0095259Y0041700D02*
X0093931Y0041700D01*
X0093489Y0041257D01*
X0096208Y0040815D02*
X0097535Y0041700D01*
X0096208Y0040815D02*
X0097535Y0039930D01*
X0098474Y0039930D02*
X0098474Y0040372D01*
X0098916Y0040372D01*
X0098916Y0039930D01*
X0098474Y0039930D01*
X0099833Y0040372D02*
X0100275Y0039930D01*
X0101160Y0039930D01*
X0101603Y0040372D01*
X0101603Y0041257D01*
X0101160Y0041700D01*
X0100275Y0041700D01*
X0099833Y0041257D01*
X0099833Y0040372D01*
X0102552Y0039930D02*
X0102552Y0041700D01*
X0102552Y0040815D02*
X0103437Y0041700D01*
X0103879Y0041700D01*
X0104818Y0041257D02*
X0104818Y0040372D01*
X0105260Y0039930D01*
X0106588Y0039930D01*
X0106588Y0039487D02*
X0106588Y0041700D01*
X0105260Y0041700D01*
X0104818Y0041257D01*
X0105703Y0039045D02*
X0106145Y0039045D01*
X0106588Y0039487D01*
X0069926Y0040372D02*
X0069926Y0041257D01*
D13*
X0044413Y0067854D02*
X0018610Y0067854D01*
X0018612Y0092242D01*
X0044412Y0092242D02*
X0044413Y0067854D01*
D14*
X0031512Y0065954D03*
D15*
X0089993Y0080331D02*
X0089995Y0080378D01*
X0090001Y0080424D01*
X0090010Y0080470D01*
X0090024Y0080514D01*
X0090041Y0080558D01*
X0090062Y0080599D01*
X0090086Y0080639D01*
X0090113Y0080677D01*
X0090144Y0080712D01*
X0090177Y0080745D01*
X0090213Y0080775D01*
X0090252Y0080801D01*
X0090292Y0080825D01*
X0090334Y0080844D01*
X0090378Y0080861D01*
X0090423Y0080873D01*
X0090469Y0080882D01*
X0090515Y0080887D01*
X0090562Y0080888D01*
X0090608Y0080885D01*
X0090654Y0080878D01*
X0090700Y0080867D01*
X0090744Y0080853D01*
X0090787Y0080835D01*
X0090828Y0080813D01*
X0090868Y0080788D01*
X0090905Y0080760D01*
X0090940Y0080729D01*
X0090972Y0080695D01*
X0091001Y0080658D01*
X0091026Y0080620D01*
X0091049Y0080579D01*
X0091068Y0080536D01*
X0091083Y0080492D01*
X0091095Y0080447D01*
X0091103Y0080401D01*
X0091107Y0080354D01*
X0091107Y0080308D01*
X0091103Y0080261D01*
X0091095Y0080215D01*
X0091083Y0080170D01*
X0091068Y0080126D01*
X0091049Y0080083D01*
X0091026Y0080042D01*
X0091001Y0080004D01*
X0090972Y0079967D01*
X0090940Y0079933D01*
X0090905Y0079902D01*
X0090868Y0079874D01*
X0090829Y0079849D01*
X0090787Y0079827D01*
X0090744Y0079809D01*
X0090700Y0079795D01*
X0090654Y0079784D01*
X0090608Y0079777D01*
X0090562Y0079774D01*
X0090515Y0079775D01*
X0090469Y0079780D01*
X0090423Y0079789D01*
X0090378Y0079801D01*
X0090334Y0079818D01*
X0090292Y0079837D01*
X0090252Y0079861D01*
X0090213Y0079887D01*
X0090177Y0079917D01*
X0090144Y0079950D01*
X0090113Y0079985D01*
X0090086Y0080023D01*
X0090062Y0080063D01*
X0090041Y0080104D01*
X0090024Y0080148D01*
X0090010Y0080192D01*
X0090001Y0080238D01*
X0089995Y0080284D01*
X0089993Y0080331D01*
D16*
X0091354Y0082693D02*
X0092535Y0082693D01*
X0092535Y0064583D01*
X0091354Y0064583D01*
X0116354Y0104346D02*
X0001787Y0104346D01*
X0001787Y0131906D01*
X0116354Y0131906D01*
X0116354Y0104346D01*
X0111236Y0129543D02*
X0103362Y0129543D01*
X0103362Y0131512D01*
X0097457Y0131512D02*
X0097457Y0129543D01*
X0089583Y0129543D01*
X0089583Y0131512D01*
X0083677Y0131512D02*
X0083677Y0129543D01*
X0075803Y0129543D01*
X0075803Y0131512D01*
X0069898Y0131512D02*
X0069898Y0129543D01*
X0062024Y0129543D01*
X0062024Y0131512D01*
X0056118Y0131512D02*
X0056118Y0129543D01*
X0048244Y0129543D01*
X0048244Y0131512D01*
X0042339Y0131512D02*
X0042339Y0129543D01*
X0034465Y0129543D01*
X0034465Y0131512D01*
X0028559Y0131512D02*
X0028559Y0129543D01*
X0020685Y0129543D01*
X0020685Y0131512D01*
X0014780Y0131512D02*
X0014780Y0129543D01*
X0006906Y0129543D01*
X0006906Y0131512D01*
X0053953Y0082693D02*
X0053953Y0064583D01*
X0055134Y0064583D01*
X0055134Y0082693D02*
X0053953Y0082693D01*
X0111236Y0129543D02*
X0111236Y0131512D01*
D17*
X0082693Y0100803D02*
X0080331Y0100803D01*
X0080331Y0096079D02*
X0082693Y0096079D01*
X0093717Y0096866D02*
X0096079Y0096866D01*
X0096079Y0092142D02*
X0093717Y0092142D01*
X0093717Y0085055D02*
X0093717Y0082693D01*
X0098441Y0082693D02*
X0098441Y0085055D01*
X0098441Y0072457D02*
X0098441Y0070094D01*
X0093717Y0070094D02*
X0093717Y0072457D01*
X0066157Y0096079D02*
X0063795Y0096079D01*
X0063795Y0100803D02*
X0066157Y0100803D01*
X0051591Y0100409D02*
X0049228Y0100409D01*
X0049228Y0095685D02*
X0051591Y0095685D01*
X0052378Y0057890D02*
X0052378Y0055528D01*
X0047654Y0055528D02*
X0047654Y0057890D01*
X0023638Y0047260D02*
X0023638Y0044898D01*
X0018913Y0044898D02*
X0018913Y0047260D01*
D18*
X0068808Y0043641D03*
X0098676Y0050139D03*
X0098676Y0050177D03*
X0098714Y0050253D03*
X0098714Y0050291D03*
X0098714Y0050329D03*
X0098752Y0050405D03*
X0098752Y0050443D03*
X0098752Y0050481D03*
X0098790Y0050557D03*
X0098790Y0050595D03*
X0098790Y0050633D03*
X0098828Y0050709D03*
X0098828Y0050747D03*
X0098828Y0050785D03*
X0098866Y0050861D03*
X0098866Y0050899D03*
X0098866Y0050937D03*
X0098904Y0051013D03*
X0098904Y0051051D03*
X0098904Y0051089D03*
X0098942Y0051165D03*
X0098942Y0051203D03*
X0098942Y0051241D03*
X0098980Y0051317D03*
X0098980Y0051355D03*
X0098980Y0051393D03*
X0099018Y0051469D03*
X0099018Y0051507D03*
X0099018Y0051545D03*
X0099056Y0051659D03*
X0099056Y0051697D03*
X0099094Y0051811D03*
X0099094Y0051849D03*
X0099132Y0051963D03*
X0099132Y0052001D03*
X0099170Y0052115D03*
X0099170Y0052153D03*
X0099208Y0052267D03*
X0099208Y0052305D03*
X0099246Y0052419D03*
X0101450Y0051925D03*
X0101450Y0051887D03*
X0101450Y0051849D03*
X0101412Y0051773D03*
X0101412Y0051735D03*
X0101412Y0051697D03*
X0101374Y0051621D03*
X0101374Y0051583D03*
X0101374Y0051545D03*
X0101374Y0051507D03*
X0101336Y0051469D03*
X0101336Y0051431D03*
X0101336Y0051393D03*
X0101336Y0051355D03*
X0101298Y0051317D03*
X0101298Y0051279D03*
X0101298Y0051241D03*
X0101298Y0051203D03*
X0101260Y0051165D03*
X0101260Y0051127D03*
X0101260Y0051089D03*
X0101260Y0051051D03*
X0101222Y0051013D03*
X0101222Y0050975D03*
X0101222Y0050937D03*
X0101222Y0050899D03*
X0101184Y0050861D03*
X0101184Y0050823D03*
X0101184Y0050785D03*
X0101184Y0050747D03*
X0101146Y0050709D03*
X0101146Y0050671D03*
X0101146Y0050633D03*
X0101146Y0050595D03*
X0101108Y0050519D03*
X0101108Y0050481D03*
X0101108Y0050443D03*
X0101070Y0050367D03*
X0101070Y0050329D03*
X0101070Y0050291D03*
X0101032Y0050215D03*
X0101032Y0050177D03*
X0101032Y0050139D03*
X0099930Y0050443D03*
X0099930Y0050481D03*
X0101488Y0052001D03*
X0101488Y0052039D03*
X0101488Y0052077D03*
X0101526Y0052153D03*
X0101526Y0052191D03*
X0101526Y0052229D03*
X0101564Y0052305D03*
X0101564Y0052343D03*
X0101564Y0052381D03*
D19*
X0097688Y0052647D03*
X0097688Y0052685D03*
X0097612Y0052381D03*
X0097612Y0052343D03*
X0097498Y0051925D03*
X0097498Y0051887D03*
X0097422Y0051621D03*
X0097422Y0051583D03*
X0097384Y0051469D03*
X0097384Y0051431D03*
X0097308Y0051165D03*
X0097308Y0051127D03*
X0097308Y0051089D03*
X0097270Y0051013D03*
X0097270Y0050975D03*
X0097270Y0050937D03*
X0097194Y0050709D03*
X0097194Y0050671D03*
X0097194Y0050633D03*
X0097156Y0050557D03*
X0097156Y0050519D03*
X0097156Y0050481D03*
X0097080Y0050253D03*
X0097080Y0050215D03*
X0097080Y0050177D03*
X0084958Y0043641D03*
D20*
X0070803Y0050747D03*
X0066775Y0050253D03*
X0068903Y0043679D03*
D21*
X0066813Y0050329D03*
X0066851Y0050367D03*
X0085015Y0043679D03*
D22*
X0068960Y0043717D03*
X0066414Y0049683D03*
D23*
X0066433Y0049721D03*
X0066471Y0049759D03*
X0070765Y0050709D03*
X0085053Y0043717D03*
D24*
X0083970Y0045313D03*
X0083970Y0045351D03*
X0083970Y0045389D03*
X0084008Y0046301D03*
X0084008Y0046339D03*
X0084046Y0046491D03*
X0084046Y0046529D03*
X0084046Y0046567D03*
X0084122Y0046833D03*
X0084122Y0046871D03*
X0084122Y0046909D03*
X0084160Y0046985D03*
X0084160Y0047023D03*
X0084160Y0047061D03*
X0084160Y0047099D03*
X0084236Y0047289D03*
X0084236Y0047327D03*
X0084236Y0047365D03*
X0084274Y0047441D03*
X0084274Y0047479D03*
X0084274Y0047517D03*
X0084350Y0047707D03*
X0084350Y0047745D03*
X0084388Y0047859D03*
X0084426Y0047973D03*
X0084920Y0049151D03*
X0084958Y0049189D03*
X0084996Y0049227D03*
X0081918Y0050063D03*
X0081918Y0050101D03*
X0081956Y0050215D03*
X0081956Y0050253D03*
X0082032Y0050519D03*
X0082032Y0050557D03*
X0081842Y0049797D03*
X0081842Y0049759D03*
X0081804Y0049645D03*
X0081804Y0049607D03*
X0081728Y0049341D03*
X0081728Y0049303D03*
X0081690Y0049189D03*
X0081690Y0049151D03*
X0081652Y0049037D03*
X0081652Y0048999D03*
X0081614Y0048885D03*
X0081614Y0048847D03*
X0081576Y0048733D03*
X0081576Y0048695D03*
X0081538Y0048581D03*
X0081538Y0048543D03*
X0081500Y0048429D03*
X0081500Y0048391D03*
X0081424Y0048125D03*
X0081424Y0048087D03*
X0081386Y0047973D03*
X0081386Y0047935D03*
X0081310Y0047669D03*
X0081310Y0047631D03*
X0081272Y0047517D03*
X0081272Y0047479D03*
X0081196Y0047213D03*
X0081196Y0047175D03*
X0081158Y0047061D03*
X0081158Y0047023D03*
X0081120Y0046909D03*
X0081120Y0046871D03*
X0081082Y0046757D03*
X0081082Y0046719D03*
X0081006Y0046453D03*
X0081006Y0046415D03*
X0080968Y0046301D03*
X0080968Y0046263D03*
X0080892Y0045997D03*
X0080892Y0045959D03*
X0080854Y0045845D03*
X0080854Y0045807D03*
X0080778Y0045541D03*
X0080778Y0045503D03*
X0080740Y0045389D03*
X0080740Y0045351D03*
X0080702Y0045237D03*
X0080702Y0045199D03*
X0080664Y0045085D03*
X0080664Y0045047D03*
X0080626Y0044933D03*
X0080626Y0044895D03*
X0080588Y0044781D03*
X0080588Y0044743D03*
X0080550Y0044629D03*
X0080550Y0044591D03*
X0080474Y0044325D03*
X0080474Y0044287D03*
X0080436Y0044173D03*
X0080436Y0044135D03*
X0080360Y0043869D03*
X0080360Y0043831D03*
X0089746Y0043831D03*
X0089746Y0043869D03*
X0089822Y0044135D03*
X0089822Y0044173D03*
X0089860Y0044287D03*
X0089860Y0044325D03*
X0089936Y0044591D03*
X0089936Y0044629D03*
X0089974Y0044743D03*
X0089974Y0044781D03*
X0090050Y0045047D03*
X0090050Y0045085D03*
X0090088Y0045199D03*
X0090088Y0045237D03*
X0090126Y0045351D03*
X0090126Y0045389D03*
X0090164Y0045503D03*
X0090164Y0045541D03*
X0090202Y0045617D03*
X0090886Y0048429D03*
X0090886Y0048467D03*
X0090924Y0048581D03*
X0090924Y0048619D03*
X0091000Y0048885D03*
X0091000Y0048923D03*
X0091038Y0049037D03*
X0091038Y0049075D03*
X0091076Y0049189D03*
X0091076Y0049227D03*
X0091114Y0049341D03*
X0091114Y0049379D03*
X0091152Y0049493D03*
X0091152Y0049531D03*
X0091190Y0049645D03*
X0091190Y0049683D03*
X0091228Y0049797D03*
X0091228Y0049835D03*
X0091304Y0050101D03*
X0091304Y0050139D03*
X0091342Y0050253D03*
X0091342Y0050291D03*
X0091418Y0050557D03*
X0091418Y0050595D03*
X0091456Y0050709D03*
X0091456Y0050747D03*
X0091532Y0051013D03*
X0091532Y0051051D03*
X0091570Y0051165D03*
X0091570Y0051203D03*
X0091608Y0051317D03*
X0091608Y0051355D03*
X0091646Y0051469D03*
X0091646Y0051507D03*
X0091722Y0051811D03*
X0091760Y0051963D03*
X0091836Y0052267D03*
X0091874Y0052419D03*
X0091950Y0052723D03*
X0091988Y0052875D03*
X0094040Y0049417D03*
X0094002Y0049379D03*
X0093964Y0049341D03*
X0093888Y0049227D03*
X0093850Y0049189D03*
X0093774Y0049113D03*
X0093736Y0049075D03*
X0093508Y0048809D03*
X0070746Y0050671D03*
X0068010Y0046833D03*
X0068010Y0046795D03*
X0067972Y0046681D03*
X0067972Y0046643D03*
X0067858Y0045085D03*
X0067896Y0045047D03*
X0068960Y0043755D03*
X0070708Y0045047D03*
X0063868Y0047631D03*
X0063868Y0047669D03*
X0063906Y0047745D03*
X0063906Y0047783D03*
X0063906Y0047821D03*
X0063792Y0047365D03*
X0063792Y0047327D03*
X0063754Y0047213D03*
X0063754Y0047175D03*
X0063678Y0046909D03*
X0063678Y0046871D03*
X0063640Y0046757D03*
X0063640Y0046719D03*
X0063602Y0046605D03*
X0063602Y0046567D03*
X0063564Y0046453D03*
X0063564Y0046415D03*
X0063526Y0046301D03*
X0063526Y0046263D03*
X0063488Y0046149D03*
X0063488Y0046111D03*
X0063450Y0045997D03*
X0063450Y0045959D03*
X0063374Y0045693D03*
X0063374Y0045655D03*
X0063336Y0045541D03*
X0063336Y0045503D03*
X0063260Y0045237D03*
X0063260Y0045199D03*
X0063222Y0045085D03*
X0063222Y0045047D03*
X0063146Y0044781D03*
X0063146Y0044743D03*
X0063108Y0044629D03*
X0063108Y0044591D03*
X0063070Y0044477D03*
X0063070Y0044439D03*
X0063032Y0044325D03*
X0063032Y0044287D03*
X0062956Y0044021D03*
X0062956Y0043983D03*
X0062918Y0043869D03*
X0062918Y0043831D03*
X0060258Y0045959D03*
X0060258Y0045997D03*
X0060296Y0046111D03*
X0060296Y0046149D03*
X0060372Y0046415D03*
X0060372Y0046453D03*
X0060410Y0046567D03*
X0060410Y0046605D03*
X0060486Y0046871D03*
X0060486Y0046909D03*
X0060524Y0047023D03*
X0060524Y0047061D03*
X0060600Y0047327D03*
X0060600Y0047365D03*
X0060638Y0047479D03*
X0060638Y0047517D03*
X0060676Y0047631D03*
X0060676Y0047669D03*
X0060714Y0047783D03*
X0060714Y0047821D03*
X0060752Y0047935D03*
X0060752Y0047973D03*
X0060790Y0048087D03*
X0060790Y0048125D03*
X0060828Y0048239D03*
X0060828Y0048277D03*
X0060904Y0048543D03*
X0060904Y0048581D03*
X0060942Y0048695D03*
X0060942Y0048733D03*
X0061018Y0048999D03*
X0061018Y0049037D03*
X0061056Y0049151D03*
X0061056Y0049189D03*
X0061132Y0049455D03*
X0061132Y0049493D03*
X0061170Y0049607D03*
X0061170Y0049645D03*
X0061208Y0049759D03*
X0061208Y0049797D03*
X0061246Y0049911D03*
X0061246Y0049949D03*
X0061322Y0050215D03*
X0061322Y0050253D03*
X0061360Y0050367D03*
X0061360Y0050405D03*
X0061550Y0051165D03*
X0061550Y0051203D03*
X0061588Y0051317D03*
X0061588Y0051355D03*
X0061626Y0051469D03*
X0061626Y0051507D03*
X0061664Y0051621D03*
X0061664Y0051659D03*
X0061702Y0051773D03*
X0061702Y0051811D03*
X0061740Y0051925D03*
X0061740Y0051963D03*
X0061778Y0052077D03*
X0061778Y0052115D03*
X0061854Y0052419D03*
X0061892Y0052571D03*
X0061968Y0052875D03*
X0060220Y0045845D03*
X0060220Y0045807D03*
X0060182Y0045693D03*
X0060182Y0045655D03*
X0060106Y0045389D03*
X0060106Y0045351D03*
X0060068Y0045237D03*
X0060068Y0045199D03*
X0059992Y0044933D03*
X0059992Y0044895D03*
X0059954Y0044781D03*
X0059954Y0044743D03*
X0059878Y0044477D03*
X0059878Y0044439D03*
X0059840Y0044325D03*
X0059840Y0044287D03*
X0059802Y0044173D03*
X0059802Y0044135D03*
X0059764Y0044021D03*
X0059764Y0043983D03*
X0059726Y0043869D03*
X0059726Y0043831D03*
D25*
X0059745Y0043907D03*
X0059745Y0043945D03*
X0059783Y0044059D03*
X0059783Y0044097D03*
X0059859Y0044363D03*
X0059859Y0044401D03*
X0059897Y0044515D03*
X0059897Y0044553D03*
X0059935Y0044667D03*
X0059935Y0044705D03*
X0059973Y0044819D03*
X0059973Y0044857D03*
X0060011Y0044971D03*
X0060011Y0045009D03*
X0060049Y0045123D03*
X0060049Y0045161D03*
X0060087Y0045275D03*
X0060087Y0045313D03*
X0060125Y0045427D03*
X0060125Y0045465D03*
X0060163Y0045579D03*
X0060163Y0045617D03*
X0060201Y0045731D03*
X0060201Y0045769D03*
X0060277Y0046035D03*
X0060277Y0046073D03*
X0060315Y0046187D03*
X0060315Y0046225D03*
X0060353Y0046339D03*
X0060353Y0046377D03*
X0060391Y0046491D03*
X0060391Y0046529D03*
X0060429Y0046643D03*
X0060429Y0046681D03*
X0060467Y0046795D03*
X0060467Y0046833D03*
X0060505Y0046947D03*
X0060505Y0046985D03*
X0060543Y0047099D03*
X0060543Y0047137D03*
X0060581Y0047251D03*
X0060581Y0047289D03*
X0060619Y0047403D03*
X0060619Y0047441D03*
X0060695Y0047707D03*
X0060695Y0047745D03*
X0060733Y0047859D03*
X0060733Y0047897D03*
X0060809Y0048163D03*
X0060809Y0048201D03*
X0060847Y0048315D03*
X0060847Y0048353D03*
X0060885Y0048467D03*
X0060885Y0048505D03*
X0060923Y0048619D03*
X0060923Y0048657D03*
X0060961Y0048771D03*
X0060961Y0048809D03*
X0060999Y0048923D03*
X0060999Y0048961D03*
X0061037Y0049075D03*
X0061037Y0049113D03*
X0061075Y0049227D03*
X0061075Y0049265D03*
X0061113Y0049379D03*
X0061113Y0049417D03*
X0061151Y0049531D03*
X0061151Y0049569D03*
X0061227Y0049835D03*
X0061227Y0049873D03*
X0061265Y0049987D03*
X0061265Y0050025D03*
X0061303Y0050139D03*
X0061303Y0050177D03*
X0061341Y0050291D03*
X0061341Y0050329D03*
X0061379Y0050443D03*
X0061379Y0050481D03*
X0061417Y0050595D03*
X0061569Y0051241D03*
X0061569Y0051279D03*
X0061645Y0051545D03*
X0061645Y0051583D03*
X0061683Y0051697D03*
X0061683Y0051735D03*
X0061759Y0052001D03*
X0061759Y0052039D03*
X0061797Y0052153D03*
X0061797Y0052191D03*
X0061835Y0052305D03*
X0061835Y0052343D03*
X0061835Y0052381D03*
X0061873Y0052457D03*
X0061873Y0052495D03*
X0061873Y0052533D03*
X0061911Y0052609D03*
X0061911Y0052647D03*
X0061911Y0052685D03*
X0061949Y0052761D03*
X0061949Y0052799D03*
X0061949Y0052837D03*
X0063887Y0047707D03*
X0063849Y0047593D03*
X0063849Y0047555D03*
X0063811Y0047441D03*
X0063811Y0047403D03*
X0063773Y0047289D03*
X0063773Y0047251D03*
X0063735Y0047137D03*
X0063735Y0047099D03*
X0063697Y0046985D03*
X0063697Y0046947D03*
X0063659Y0046833D03*
X0063659Y0046795D03*
X0063583Y0046529D03*
X0063583Y0046491D03*
X0063545Y0046377D03*
X0063545Y0046339D03*
X0063469Y0046073D03*
X0063469Y0046035D03*
X0063431Y0045921D03*
X0063431Y0045883D03*
X0063393Y0045769D03*
X0063393Y0045731D03*
X0063355Y0045617D03*
X0063355Y0045579D03*
X0063317Y0045465D03*
X0063317Y0045427D03*
X0063279Y0045313D03*
X0063279Y0045275D03*
X0063241Y0045161D03*
X0063241Y0045123D03*
X0063203Y0045009D03*
X0063203Y0044971D03*
X0063165Y0044857D03*
X0063165Y0044819D03*
X0063127Y0044705D03*
X0063127Y0044667D03*
X0063051Y0044401D03*
X0063051Y0044363D03*
X0063013Y0044249D03*
X0063013Y0044211D03*
X0062975Y0044097D03*
X0062975Y0044059D03*
X0062937Y0043945D03*
X0062937Y0043907D03*
X0062899Y0043793D03*
X0067877Y0046187D03*
X0067877Y0046225D03*
X0067877Y0046263D03*
X0067915Y0046339D03*
X0067915Y0046377D03*
X0067915Y0046415D03*
X0067915Y0046453D03*
X0067953Y0046529D03*
X0067953Y0046567D03*
X0067953Y0046605D03*
X0067991Y0046719D03*
X0067991Y0046757D03*
X0068903Y0049265D03*
X0068941Y0049303D03*
X0080949Y0046225D03*
X0080949Y0046187D03*
X0080911Y0046073D03*
X0080911Y0046035D03*
X0080873Y0045921D03*
X0080873Y0045883D03*
X0080835Y0045769D03*
X0080835Y0045731D03*
X0080797Y0045617D03*
X0080797Y0045579D03*
X0080759Y0045465D03*
X0080759Y0045427D03*
X0080683Y0045161D03*
X0080683Y0045123D03*
X0080645Y0045009D03*
X0080645Y0044971D03*
X0080569Y0044705D03*
X0080569Y0044667D03*
X0080531Y0044553D03*
X0080531Y0044515D03*
X0080493Y0044401D03*
X0080493Y0044363D03*
X0080455Y0044249D03*
X0080455Y0044211D03*
X0080417Y0044097D03*
X0080417Y0044059D03*
X0080379Y0043945D03*
X0080379Y0043907D03*
X0080341Y0043793D03*
X0080987Y0046339D03*
X0080987Y0046377D03*
X0081025Y0046491D03*
X0081025Y0046529D03*
X0081063Y0046643D03*
X0081063Y0046681D03*
X0081101Y0046795D03*
X0081101Y0046833D03*
X0081177Y0047099D03*
X0081177Y0047137D03*
X0081215Y0047251D03*
X0081215Y0047289D03*
X0081253Y0047403D03*
X0081253Y0047441D03*
X0081291Y0047555D03*
X0081291Y0047593D03*
X0081329Y0047707D03*
X0081329Y0047745D03*
X0081367Y0047859D03*
X0081367Y0047897D03*
X0081405Y0048011D03*
X0081405Y0048049D03*
X0081443Y0048163D03*
X0081443Y0048201D03*
X0081481Y0048315D03*
X0081481Y0048353D03*
X0081519Y0048467D03*
X0081519Y0048505D03*
X0081595Y0048771D03*
X0081595Y0048809D03*
X0081633Y0048923D03*
X0081633Y0048961D03*
X0081709Y0049227D03*
X0081709Y0049265D03*
X0081747Y0049379D03*
X0081747Y0049417D03*
X0081785Y0049531D03*
X0081785Y0049569D03*
X0081823Y0049683D03*
X0081823Y0049721D03*
X0081861Y0049835D03*
X0081861Y0049873D03*
X0081899Y0049987D03*
X0081899Y0050025D03*
X0081937Y0050139D03*
X0081937Y0050177D03*
X0081975Y0050291D03*
X0081975Y0050329D03*
X0082013Y0050443D03*
X0082013Y0050481D03*
X0082051Y0050595D03*
X0084863Y0049075D03*
X0084863Y0049037D03*
X0084825Y0048999D03*
X0084787Y0048923D03*
X0084749Y0048847D03*
X0084711Y0048771D03*
X0084673Y0048695D03*
X0084673Y0048657D03*
X0084635Y0048581D03*
X0084597Y0048505D03*
X0084597Y0048467D03*
X0084559Y0048391D03*
X0084559Y0048353D03*
X0084483Y0048201D03*
X0084483Y0048163D03*
X0084483Y0048125D03*
X0084445Y0048087D03*
X0084445Y0048049D03*
X0084445Y0048011D03*
X0084369Y0047821D03*
X0084369Y0047783D03*
X0084331Y0047669D03*
X0084255Y0047403D03*
X0084141Y0046947D03*
X0084103Y0046795D03*
X0084065Y0046605D03*
X0084027Y0046453D03*
X0084027Y0046415D03*
X0084027Y0046377D03*
X0083951Y0046035D03*
X0083951Y0045997D03*
X0083951Y0045959D03*
X0083951Y0045921D03*
X0083951Y0045883D03*
X0083951Y0045845D03*
X0083951Y0045807D03*
X0083951Y0045769D03*
X0083951Y0045731D03*
X0083951Y0045693D03*
X0083951Y0045655D03*
X0083951Y0045617D03*
X0083951Y0045579D03*
X0083951Y0045541D03*
X0083951Y0045503D03*
X0083951Y0045465D03*
X0083951Y0045427D03*
X0085091Y0043755D03*
X0086991Y0045237D03*
X0087029Y0045275D03*
X0089765Y0043945D03*
X0089765Y0043907D03*
X0089727Y0043793D03*
X0089803Y0044059D03*
X0089803Y0044097D03*
X0089841Y0044211D03*
X0089841Y0044249D03*
X0089879Y0044363D03*
X0089879Y0044401D03*
X0089917Y0044515D03*
X0089917Y0044553D03*
X0089955Y0044667D03*
X0089955Y0044705D03*
X0089993Y0044819D03*
X0089993Y0044857D03*
X0090031Y0044971D03*
X0090031Y0045009D03*
X0090069Y0045123D03*
X0090069Y0045161D03*
X0090145Y0045427D03*
X0090145Y0045465D03*
X0090183Y0045579D03*
X0090867Y0048391D03*
X0090905Y0048505D03*
X0090905Y0048543D03*
X0090943Y0048657D03*
X0090943Y0048695D03*
X0090981Y0048809D03*
X0090981Y0048847D03*
X0091019Y0048961D03*
X0091019Y0048999D03*
X0091095Y0049265D03*
X0091095Y0049303D03*
X0091133Y0049417D03*
X0091133Y0049455D03*
X0091209Y0049721D03*
X0091209Y0049759D03*
X0091247Y0049873D03*
X0091247Y0049911D03*
X0091285Y0050025D03*
X0091285Y0050063D03*
X0091323Y0050177D03*
X0091323Y0050215D03*
X0091361Y0050329D03*
X0091361Y0050367D03*
X0091399Y0050481D03*
X0091399Y0050519D03*
X0091437Y0050633D03*
X0091437Y0050671D03*
X0091475Y0050785D03*
X0091475Y0050823D03*
X0091513Y0050937D03*
X0091513Y0050975D03*
X0091551Y0051089D03*
X0091551Y0051127D03*
X0091627Y0051393D03*
X0091627Y0051431D03*
X0091665Y0051545D03*
X0091665Y0051583D03*
X0091665Y0051621D03*
X0091703Y0051697D03*
X0091703Y0051735D03*
X0091703Y0051773D03*
X0091741Y0051849D03*
X0091741Y0051887D03*
X0091741Y0051925D03*
X0091779Y0052001D03*
X0091779Y0052039D03*
X0091779Y0052077D03*
X0091817Y0052153D03*
X0091817Y0052191D03*
X0091817Y0052229D03*
X0091855Y0052305D03*
X0091855Y0052343D03*
X0091855Y0052381D03*
X0091893Y0052457D03*
X0091893Y0052495D03*
X0091893Y0052533D03*
X0091931Y0052609D03*
X0091931Y0052647D03*
X0091931Y0052685D03*
X0091969Y0052761D03*
X0091969Y0052799D03*
X0091969Y0052837D03*
X0093679Y0048999D03*
X0093641Y0048961D03*
X0093603Y0048923D03*
X0093565Y0048885D03*
X0093527Y0048847D03*
X0093451Y0048733D03*
X0093413Y0048695D03*
X0093375Y0048657D03*
X0093337Y0048619D03*
X0088017Y0049379D03*
X0084901Y0049113D03*
D26*
X0085129Y0049379D03*
X0087029Y0050785D03*
X0090297Y0045807D03*
X0090297Y0045769D03*
X0092995Y0046073D03*
X0092995Y0046111D03*
X0093033Y0046035D03*
X0093033Y0045997D03*
X0093033Y0045959D03*
X0093033Y0045921D03*
X0093071Y0045883D03*
X0093071Y0045845D03*
X0093071Y0045807D03*
X0093071Y0045769D03*
X0093147Y0045579D03*
X0093147Y0045541D03*
X0093147Y0045503D03*
X0093185Y0045389D03*
X0093261Y0045085D03*
X0094629Y0050101D03*
X0094667Y0050139D03*
X0094743Y0050215D03*
X0094781Y0050253D03*
X0094895Y0050405D03*
X0094933Y0050443D03*
X0094971Y0050481D03*
X0075553Y0051127D03*
X0075515Y0051051D03*
X0075515Y0051013D03*
X0075515Y0050975D03*
X0075439Y0050747D03*
X0075439Y0050709D03*
X0075439Y0050671D03*
X0075363Y0050443D03*
X0075363Y0050405D03*
X0075363Y0050367D03*
X0075325Y0050291D03*
X0075325Y0050253D03*
X0075325Y0050215D03*
X0075249Y0049987D03*
X0075249Y0049949D03*
X0075249Y0049911D03*
X0075211Y0049835D03*
X0075211Y0049797D03*
X0075211Y0049759D03*
X0075135Y0049531D03*
X0075135Y0049493D03*
X0075135Y0049455D03*
X0075097Y0049341D03*
X0075097Y0049303D03*
X0075021Y0049037D03*
X0074565Y0047251D03*
X0074565Y0047213D03*
X0074565Y0047175D03*
X0074489Y0046947D03*
X0074489Y0046909D03*
X0074489Y0046871D03*
X0074413Y0046643D03*
X0074413Y0046605D03*
X0074413Y0046567D03*
X0074413Y0046529D03*
X0074375Y0046491D03*
X0074375Y0046453D03*
X0074375Y0046415D03*
X0074375Y0046377D03*
X0074299Y0046187D03*
X0074299Y0046149D03*
X0074299Y0046111D03*
X0074299Y0046073D03*
X0074261Y0046035D03*
X0074261Y0045997D03*
X0074261Y0045959D03*
X0074261Y0045921D03*
X0074185Y0045731D03*
X0074185Y0045693D03*
X0074185Y0045655D03*
X0074185Y0045617D03*
X0074147Y0045541D03*
X0074147Y0045503D03*
X0074147Y0045465D03*
X0074071Y0045237D03*
X0074071Y0045199D03*
X0074071Y0045161D03*
X0074033Y0045085D03*
X0074033Y0045047D03*
X0074033Y0045009D03*
X0073995Y0044933D03*
X0073995Y0044895D03*
X0073995Y0044857D03*
X0073957Y0044781D03*
X0073957Y0044743D03*
X0073957Y0044705D03*
X0073881Y0044477D03*
X0073881Y0044439D03*
X0073881Y0044401D03*
X0073881Y0044363D03*
X0073843Y0044325D03*
X0073843Y0044287D03*
X0073843Y0044249D03*
X0073843Y0044211D03*
X0073767Y0044021D03*
X0073767Y0043983D03*
X0073767Y0043945D03*
X0073767Y0043907D03*
X0073729Y0043869D03*
X0073729Y0043831D03*
X0073729Y0043793D03*
X0070613Y0045009D03*
X0067953Y0045009D03*
X0064039Y0048125D03*
X0055565Y0050329D03*
X0055565Y0050367D03*
X0055565Y0050405D03*
X0055603Y0050481D03*
X0055603Y0050519D03*
X0055603Y0050557D03*
X0055679Y0050785D03*
X0055679Y0050823D03*
X0055679Y0050861D03*
X0055679Y0050899D03*
X0055717Y0050937D03*
X0055717Y0050975D03*
X0055489Y0050101D03*
X0055489Y0050063D03*
X0055489Y0050025D03*
X0055413Y0049797D03*
X0055413Y0049759D03*
X0055413Y0049721D03*
X0055375Y0049645D03*
X0055375Y0049607D03*
X0055375Y0049569D03*
X0054843Y0047517D03*
X0054843Y0047479D03*
X0054843Y0047441D03*
X0054767Y0047213D03*
X0054767Y0047175D03*
X0054767Y0047137D03*
X0054729Y0047061D03*
X0054729Y0047023D03*
X0054729Y0046985D03*
X0054653Y0046757D03*
X0054653Y0046719D03*
X0054653Y0046681D03*
X0054615Y0046605D03*
X0054615Y0046567D03*
X0054615Y0046529D03*
X0054539Y0046301D03*
X0054539Y0046263D03*
X0054539Y0046225D03*
X0054463Y0045997D03*
X0054463Y0045959D03*
X0054463Y0045921D03*
X0054463Y0045883D03*
X0054425Y0045845D03*
X0054425Y0045807D03*
X0054425Y0045769D03*
X0054425Y0045731D03*
X0054349Y0045541D03*
X0054349Y0045503D03*
X0054349Y0045465D03*
X0054349Y0045427D03*
X0054311Y0045389D03*
X0054311Y0045351D03*
X0054311Y0045313D03*
X0054311Y0045275D03*
X0054235Y0045085D03*
X0054235Y0045047D03*
X0054235Y0045009D03*
X0054235Y0044971D03*
X0054197Y0044933D03*
X0054197Y0044895D03*
X0054197Y0044857D03*
X0054197Y0044819D03*
X0054121Y0044629D03*
X0054121Y0044591D03*
X0054121Y0044553D03*
X0054121Y0044515D03*
X0054083Y0044477D03*
X0054083Y0044439D03*
X0054083Y0044401D03*
X0054083Y0044363D03*
X0054045Y0044325D03*
X0054045Y0044287D03*
X0054045Y0044249D03*
X0054045Y0044211D03*
X0054007Y0044173D03*
X0054007Y0044135D03*
X0054007Y0044097D03*
X0054007Y0044059D03*
X0053931Y0043869D03*
X0053931Y0043831D03*
X0053931Y0043793D03*
D27*
X0059707Y0043793D03*
X0059821Y0044211D03*
X0059821Y0044249D03*
X0060239Y0045883D03*
X0060239Y0045921D03*
X0060657Y0047555D03*
X0060657Y0047593D03*
X0060771Y0048011D03*
X0060771Y0048049D03*
X0061189Y0049683D03*
X0061189Y0049721D03*
X0061607Y0051393D03*
X0061607Y0051431D03*
X0061721Y0051849D03*
X0061721Y0051887D03*
X0063621Y0046681D03*
X0063621Y0046643D03*
X0063507Y0046225D03*
X0063507Y0046187D03*
X0063089Y0044553D03*
X0063089Y0044515D03*
X0067839Y0045123D03*
X0068371Y0048163D03*
X0080721Y0045313D03*
X0080721Y0045275D03*
X0080607Y0044857D03*
X0080607Y0044819D03*
X0081139Y0046947D03*
X0081139Y0046985D03*
X0081557Y0048619D03*
X0081557Y0048657D03*
X0081671Y0049075D03*
X0081671Y0049113D03*
X0084521Y0048315D03*
X0084521Y0048277D03*
X0084521Y0048239D03*
X0084407Y0047935D03*
X0084407Y0047897D03*
X0083989Y0046263D03*
X0083989Y0046225D03*
X0083989Y0046187D03*
X0083989Y0046149D03*
X0083989Y0046111D03*
X0083989Y0046073D03*
X0090107Y0045313D03*
X0090107Y0045275D03*
X0091057Y0049113D03*
X0091057Y0049151D03*
X0091171Y0049569D03*
X0091171Y0049607D03*
X0091589Y0051241D03*
X0091589Y0051279D03*
X0093489Y0048771D03*
D28*
X0090449Y0046073D03*
X0090411Y0045997D03*
X0078859Y0049493D03*
X0078821Y0049417D03*
X0078783Y0049379D03*
X0079087Y0050899D03*
X0079087Y0050937D03*
X0068979Y0043793D03*
X0064191Y0048353D03*
D29*
X0064172Y0048315D03*
X0070746Y0050633D03*
X0078840Y0049455D03*
X0078878Y0049531D03*
X0079106Y0050823D03*
X0079106Y0050861D03*
X0085110Y0043793D03*
X0090392Y0045959D03*
D30*
X0090373Y0045921D03*
X0087903Y0049455D03*
X0093375Y0044667D03*
X0093413Y0044515D03*
X0093451Y0044401D03*
X0093451Y0044363D03*
X0093451Y0044325D03*
X0093489Y0044249D03*
X0093489Y0044211D03*
X0093489Y0044173D03*
X0093527Y0044097D03*
X0093527Y0044059D03*
X0093527Y0044021D03*
X0093565Y0043983D03*
X0093565Y0043945D03*
X0093565Y0043907D03*
X0093565Y0043869D03*
X0093603Y0043831D03*
X0093603Y0043793D03*
X0079163Y0050595D03*
X0079163Y0050633D03*
X0079011Y0049835D03*
X0078973Y0049759D03*
X0078973Y0049721D03*
X0078935Y0049683D03*
X0078935Y0049645D03*
X0078897Y0049569D03*
X0064115Y0048239D03*
D31*
X0064343Y0048505D03*
X0068979Y0043831D03*
X0078593Y0049151D03*
X0079011Y0051089D03*
D32*
X0079049Y0051051D03*
X0078669Y0049227D03*
X0078631Y0049189D03*
X0085129Y0043831D03*
X0070727Y0050595D03*
X0064305Y0048467D03*
D33*
X0068998Y0043869D03*
X0078422Y0049037D03*
D34*
X0078498Y0049075D03*
X0078954Y0051127D03*
X0085148Y0043869D03*
X0070708Y0050557D03*
X0064400Y0048543D03*
D35*
X0064077Y0048163D03*
X0069055Y0049379D03*
X0074337Y0046339D03*
X0074337Y0046301D03*
X0074337Y0046263D03*
X0074337Y0046225D03*
X0074223Y0045883D03*
X0074223Y0045845D03*
X0074223Y0045807D03*
X0074223Y0045769D03*
X0074109Y0045389D03*
X0074109Y0045351D03*
X0074109Y0045313D03*
X0073919Y0044629D03*
X0073919Y0044591D03*
X0073919Y0044553D03*
X0073805Y0044173D03*
X0073805Y0044135D03*
X0073805Y0044097D03*
X0073805Y0044059D03*
X0074451Y0046719D03*
X0074451Y0046757D03*
X0074451Y0046795D03*
X0074527Y0047023D03*
X0074527Y0047061D03*
X0074527Y0047099D03*
X0075059Y0049113D03*
X0075059Y0049151D03*
X0075059Y0049189D03*
X0075173Y0049607D03*
X0075173Y0049645D03*
X0075173Y0049683D03*
X0075287Y0050063D03*
X0075287Y0050101D03*
X0075287Y0050139D03*
X0075401Y0050519D03*
X0075401Y0050557D03*
X0075401Y0050595D03*
X0075477Y0050823D03*
X0075477Y0050861D03*
X0075477Y0050899D03*
X0084027Y0045199D03*
X0086877Y0045161D03*
X0093109Y0045655D03*
X0093109Y0045693D03*
X0093109Y0045731D03*
X0093223Y0045237D03*
X0094705Y0050177D03*
X0055641Y0050633D03*
X0055641Y0050671D03*
X0055641Y0050709D03*
X0055641Y0050747D03*
X0055527Y0050253D03*
X0055527Y0050215D03*
X0055527Y0050177D03*
X0055451Y0049949D03*
X0055451Y0049911D03*
X0055451Y0049873D03*
X0055337Y0049493D03*
X0055337Y0049455D03*
X0055337Y0049417D03*
X0054805Y0047365D03*
X0054805Y0047327D03*
X0054805Y0047289D03*
X0054691Y0046909D03*
X0054691Y0046871D03*
X0054691Y0046833D03*
X0054577Y0046453D03*
X0054577Y0046415D03*
X0054577Y0046377D03*
X0054501Y0046149D03*
X0054501Y0046111D03*
X0054501Y0046073D03*
X0054387Y0045693D03*
X0054387Y0045655D03*
X0054387Y0045617D03*
X0054387Y0045579D03*
X0054273Y0045237D03*
X0054273Y0045199D03*
X0054273Y0045161D03*
X0054273Y0045123D03*
X0054159Y0044781D03*
X0054159Y0044743D03*
X0054159Y0044705D03*
X0054159Y0044667D03*
X0053969Y0044021D03*
X0053969Y0043983D03*
X0053969Y0043945D03*
X0053969Y0043907D03*
D36*
X0068998Y0043907D03*
D37*
X0064476Y0048581D03*
X0070708Y0050519D03*
X0085148Y0043907D03*
X0086972Y0050671D03*
D38*
X0085167Y0043945D03*
X0070689Y0050481D03*
X0069017Y0043945D03*
D39*
X0069017Y0043983D03*
D40*
X0067934Y0046491D03*
X0063944Y0047859D03*
X0063944Y0047897D03*
X0063830Y0047517D03*
X0063830Y0047479D03*
X0063716Y0047061D03*
X0063716Y0047023D03*
X0063412Y0045845D03*
X0063412Y0045807D03*
X0063298Y0045389D03*
X0063298Y0045351D03*
X0063184Y0044933D03*
X0063184Y0044895D03*
X0062994Y0044173D03*
X0062994Y0044135D03*
X0060334Y0046263D03*
X0060334Y0046301D03*
X0060448Y0046719D03*
X0060448Y0046757D03*
X0060562Y0047175D03*
X0060562Y0047213D03*
X0060866Y0048391D03*
X0060866Y0048429D03*
X0060980Y0048847D03*
X0060980Y0048885D03*
X0061094Y0049303D03*
X0061094Y0049341D03*
X0061284Y0050063D03*
X0061284Y0050101D03*
X0061398Y0050519D03*
X0061398Y0050557D03*
X0061816Y0052229D03*
X0061816Y0052267D03*
X0061930Y0052723D03*
X0060144Y0045541D03*
X0060144Y0045503D03*
X0060030Y0045085D03*
X0060030Y0045047D03*
X0059916Y0044629D03*
X0059916Y0044591D03*
X0080398Y0044021D03*
X0080398Y0043983D03*
X0080512Y0044439D03*
X0080512Y0044477D03*
X0080816Y0045655D03*
X0080816Y0045693D03*
X0080930Y0046111D03*
X0080930Y0046149D03*
X0081044Y0046567D03*
X0081044Y0046605D03*
X0081234Y0047327D03*
X0081234Y0047365D03*
X0081348Y0047783D03*
X0081348Y0047821D03*
X0081462Y0048239D03*
X0081462Y0048277D03*
X0081766Y0049455D03*
X0081766Y0049493D03*
X0081880Y0049911D03*
X0081880Y0049949D03*
X0081994Y0050367D03*
X0081994Y0050405D03*
X0084312Y0047631D03*
X0084312Y0047593D03*
X0084312Y0047555D03*
X0084198Y0047251D03*
X0084198Y0047213D03*
X0084198Y0047175D03*
X0084198Y0047137D03*
X0084084Y0046757D03*
X0084084Y0046719D03*
X0084084Y0046681D03*
X0084084Y0046643D03*
X0089784Y0044021D03*
X0089784Y0043983D03*
X0089898Y0044439D03*
X0089898Y0044477D03*
X0090012Y0044895D03*
X0090012Y0044933D03*
X0090962Y0048733D03*
X0090962Y0048771D03*
X0091266Y0049949D03*
X0091266Y0049987D03*
X0091380Y0050405D03*
X0091380Y0050443D03*
X0091494Y0050861D03*
X0091494Y0050899D03*
X0091684Y0051659D03*
X0091798Y0052115D03*
X0091912Y0052571D03*
X0093812Y0049151D03*
X0093698Y0049037D03*
D41*
X0085186Y0043983D03*
X0070670Y0050443D03*
D42*
X0064742Y0048657D03*
X0069036Y0044021D03*
X0085186Y0044021D03*
D43*
X0085205Y0044059D03*
X0086915Y0050519D03*
X0069055Y0044059D03*
D44*
X0069036Y0044097D03*
X0075268Y0047289D03*
X0085224Y0044097D03*
X0086896Y0050481D03*
D45*
X0069055Y0044135D03*
D46*
X0085224Y0044135D03*
D47*
X0085186Y0049417D03*
X0090316Y0045845D03*
X0090354Y0045883D03*
X0093128Y0045617D03*
X0093166Y0045465D03*
X0093166Y0045427D03*
X0093204Y0045351D03*
X0093204Y0045313D03*
X0093204Y0045275D03*
X0093242Y0045199D03*
X0093242Y0045161D03*
X0093242Y0045123D03*
X0093280Y0045047D03*
X0093280Y0045009D03*
X0093280Y0044971D03*
X0093318Y0044933D03*
X0093318Y0044895D03*
X0093318Y0044857D03*
X0093318Y0044819D03*
X0093356Y0044781D03*
X0093356Y0044743D03*
X0093356Y0044705D03*
X0093394Y0044629D03*
X0093394Y0044591D03*
X0093394Y0044553D03*
X0093432Y0044477D03*
X0093432Y0044439D03*
X0093470Y0044287D03*
X0093508Y0044135D03*
X0094800Y0050291D03*
X0094838Y0050329D03*
X0094876Y0050367D03*
X0094990Y0050519D03*
X0095028Y0050557D03*
X0095066Y0050595D03*
X0079144Y0050557D03*
X0079144Y0050519D03*
X0079144Y0050481D03*
X0079144Y0050443D03*
X0079144Y0050405D03*
X0079144Y0050367D03*
X0079144Y0050329D03*
X0079106Y0050291D03*
X0079106Y0050253D03*
X0079106Y0050215D03*
X0079106Y0050177D03*
X0079106Y0050139D03*
X0079068Y0050101D03*
X0079068Y0050063D03*
X0079068Y0050025D03*
X0079068Y0049987D03*
X0079030Y0049949D03*
X0079030Y0049911D03*
X0079030Y0049873D03*
X0078992Y0049797D03*
X0075420Y0050633D03*
X0075458Y0050785D03*
X0075496Y0050937D03*
X0075534Y0051089D03*
X0075382Y0050481D03*
X0075344Y0050329D03*
X0075306Y0050177D03*
X0075268Y0050025D03*
X0075230Y0049873D03*
X0075192Y0049721D03*
X0075154Y0049569D03*
X0075116Y0049417D03*
X0075116Y0049379D03*
X0075078Y0049265D03*
X0075078Y0049227D03*
X0075040Y0049075D03*
X0064096Y0048201D03*
X0055546Y0050291D03*
X0055584Y0050443D03*
X0055622Y0050595D03*
X0055508Y0050139D03*
X0055470Y0049987D03*
X0055432Y0049835D03*
X0055394Y0049683D03*
X0055356Y0049531D03*
X0055318Y0049379D03*
X0054824Y0047403D03*
X0054786Y0047251D03*
X0054748Y0047099D03*
X0054710Y0046947D03*
X0054672Y0046795D03*
X0054634Y0046643D03*
X0054596Y0046491D03*
X0054558Y0046339D03*
X0054520Y0046187D03*
X0054482Y0046035D03*
D48*
X0069055Y0044173D03*
X0070613Y0050215D03*
X0086877Y0050405D03*
D49*
X0085243Y0044173D03*
D50*
X0085243Y0044211D03*
X0086839Y0050367D03*
X0070613Y0050177D03*
X0069093Y0044211D03*
D51*
X0069093Y0044249D03*
X0085243Y0044249D03*
X0086839Y0050329D03*
D52*
X0091665Y0047859D03*
X0091703Y0047897D03*
X0091665Y0047783D03*
X0091665Y0047745D03*
X0070575Y0050101D03*
X0065293Y0049569D03*
X0065293Y0049531D03*
X0065255Y0049379D03*
X0065217Y0049227D03*
X0065179Y0049075D03*
X0065141Y0048923D03*
X0065103Y0048771D03*
X0069093Y0044287D03*
D53*
X0065084Y0048695D03*
X0065084Y0048733D03*
X0065198Y0049113D03*
X0065198Y0049151D03*
X0065198Y0049189D03*
X0065312Y0049607D03*
X0065312Y0049645D03*
X0085262Y0044287D03*
D54*
X0085262Y0044325D03*
X0091646Y0047555D03*
X0091760Y0048011D03*
X0091798Y0048049D03*
X0069112Y0044325D03*
D55*
X0069131Y0044363D03*
X0070575Y0050025D03*
X0085281Y0044363D03*
X0091665Y0047441D03*
X0091665Y0047479D03*
X0091665Y0047517D03*
X0091817Y0048087D03*
D56*
X0091855Y0048163D03*
X0091893Y0048201D03*
X0091665Y0047403D03*
X0091665Y0047365D03*
X0091665Y0047327D03*
X0091665Y0047289D03*
X0086801Y0050177D03*
X0085281Y0044401D03*
X0069131Y0044401D03*
D57*
X0069150Y0044439D03*
X0070556Y0049949D03*
X0075610Y0047403D03*
X0076978Y0052799D03*
X0085300Y0044439D03*
X0086782Y0050139D03*
D58*
X0075686Y0047441D03*
X0070518Y0049873D03*
X0069150Y0044477D03*
D59*
X0069169Y0044515D03*
X0085319Y0044477D03*
X0091665Y0047023D03*
X0091665Y0047061D03*
X0091665Y0047099D03*
D60*
X0090278Y0045731D03*
X0090240Y0045693D03*
X0086934Y0045199D03*
X0085072Y0049341D03*
X0094268Y0049683D03*
X0094306Y0049721D03*
X0094344Y0049759D03*
X0094382Y0049797D03*
X0094420Y0049835D03*
X0094420Y0049873D03*
X0094458Y0049911D03*
X0094496Y0049949D03*
X0094534Y0049987D03*
X0094572Y0050025D03*
X0094610Y0050063D03*
X0074546Y0047137D03*
X0074508Y0046985D03*
X0074470Y0046833D03*
X0074432Y0046681D03*
X0074166Y0045579D03*
X0074128Y0045427D03*
X0074090Y0045275D03*
X0074052Y0045123D03*
X0073976Y0044819D03*
X0073938Y0044667D03*
X0073900Y0044515D03*
X0064020Y0048049D03*
X0064020Y0048087D03*
D61*
X0069169Y0044553D03*
X0070499Y0049797D03*
X0085319Y0044553D03*
X0085319Y0044515D03*
X0086725Y0050025D03*
X0091665Y0046909D03*
X0091665Y0046871D03*
D62*
X0091684Y0046833D03*
X0091684Y0046795D03*
X0075762Y0047479D03*
X0069188Y0044591D03*
D63*
X0070499Y0049759D03*
X0077073Y0052723D03*
X0085319Y0044591D03*
X0086725Y0049987D03*
X0091665Y0046757D03*
D64*
X0091684Y0046719D03*
X0091684Y0046681D03*
X0091684Y0046643D03*
X0086706Y0049911D03*
X0086706Y0049949D03*
X0085338Y0044629D03*
X0070480Y0049721D03*
X0069188Y0044629D03*
D65*
X0069207Y0044667D03*
X0070461Y0049683D03*
X0077111Y0052685D03*
X0085357Y0044667D03*
D66*
X0086706Y0049873D03*
X0091684Y0046567D03*
X0091684Y0046529D03*
X0091684Y0046491D03*
X0070442Y0049645D03*
X0069226Y0044705D03*
D67*
X0069207Y0044743D03*
X0070461Y0049607D03*
X0075857Y0047555D03*
X0085357Y0044705D03*
X0086687Y0049835D03*
X0091665Y0046453D03*
D68*
X0091684Y0046415D03*
X0091684Y0046377D03*
X0091684Y0046339D03*
X0085376Y0044743D03*
X0070442Y0049569D03*
X0069226Y0044781D03*
D69*
X0069245Y0044819D03*
X0085395Y0044781D03*
X0086649Y0049759D03*
D70*
X0086630Y0049721D03*
X0085376Y0044819D03*
X0091684Y0046187D03*
X0091684Y0046225D03*
X0091684Y0046263D03*
X0091684Y0046301D03*
X0077168Y0052609D03*
X0070404Y0049493D03*
X0070404Y0049455D03*
X0069264Y0044857D03*
D71*
X0069245Y0044895D03*
X0070385Y0049417D03*
X0085395Y0044857D03*
D72*
X0085414Y0044895D03*
X0091684Y0046149D03*
X0077206Y0052571D03*
X0069264Y0044933D03*
D73*
X0085414Y0044933D03*
X0085414Y0044971D03*
D74*
X0086611Y0049607D03*
X0076009Y0047669D03*
X0069283Y0044971D03*
D75*
X0074014Y0044971D03*
D76*
X0076047Y0047707D03*
X0076085Y0047745D03*
X0077263Y0052495D03*
X0085433Y0045047D03*
X0085433Y0045009D03*
D77*
X0087086Y0045313D03*
X0084578Y0048429D03*
X0084616Y0048543D03*
X0084654Y0048619D03*
X0084692Y0048733D03*
X0084730Y0048809D03*
X0084768Y0048885D03*
X0084806Y0048961D03*
X0088036Y0049341D03*
X0093128Y0048391D03*
X0093166Y0048429D03*
X0093204Y0048467D03*
X0093242Y0048505D03*
X0093280Y0048543D03*
X0093318Y0048581D03*
X0071810Y0049341D03*
X0068884Y0049227D03*
X0068846Y0049189D03*
X0068808Y0049151D03*
X0068504Y0048543D03*
X0068466Y0048467D03*
X0068466Y0048429D03*
X0068428Y0048353D03*
X0068428Y0048315D03*
X0068390Y0048277D03*
X0068390Y0048239D03*
X0068390Y0048201D03*
X0068352Y0048125D03*
X0067896Y0046301D03*
X0067858Y0046149D03*
X0067858Y0046111D03*
X0067858Y0046073D03*
X0067858Y0046035D03*
X0067820Y0045959D03*
X0067820Y0045921D03*
X0067820Y0045883D03*
X0067820Y0045161D03*
X0070784Y0045085D03*
D78*
X0056534Y0048657D03*
X0056534Y0048695D03*
X0056572Y0048809D03*
X0056572Y0048847D03*
X0056610Y0048961D03*
X0056610Y0048999D03*
X0056648Y0049113D03*
X0056648Y0049151D03*
X0056686Y0049265D03*
X0056686Y0049303D03*
X0056496Y0048543D03*
X0056496Y0048505D03*
X0056458Y0048391D03*
X0056458Y0048353D03*
X0056420Y0048239D03*
X0056420Y0048201D03*
X0056382Y0048087D03*
X0056382Y0048049D03*
X0056344Y0047935D03*
X0056344Y0047897D03*
X0056306Y0047783D03*
X0056306Y0047745D03*
X0056268Y0047631D03*
X0056268Y0047593D03*
X0085452Y0045085D03*
D79*
X0087143Y0045389D03*
X0071829Y0049303D03*
X0068789Y0049113D03*
X0068751Y0049075D03*
X0068751Y0049037D03*
X0068713Y0048999D03*
X0068675Y0048923D03*
X0068599Y0048809D03*
X0068599Y0048771D03*
X0068561Y0048733D03*
X0068561Y0048695D03*
X0068561Y0048657D03*
X0068485Y0048505D03*
X0068447Y0048391D03*
X0067839Y0045997D03*
X0067801Y0045845D03*
X0067801Y0045807D03*
X0067801Y0045769D03*
X0067801Y0045731D03*
X0067801Y0045693D03*
X0067801Y0045351D03*
X0067801Y0045313D03*
X0067801Y0045275D03*
X0067801Y0045237D03*
X0067801Y0045199D03*
X0070803Y0045123D03*
X0064343Y0049683D03*
X0064343Y0049721D03*
X0064343Y0049759D03*
X0064343Y0049797D03*
X0064381Y0049835D03*
X0064381Y0049873D03*
X0064381Y0049911D03*
X0064381Y0049949D03*
X0064419Y0049987D03*
X0064419Y0050025D03*
X0064419Y0050063D03*
X0064419Y0050101D03*
X0064457Y0050139D03*
X0064457Y0050177D03*
X0064457Y0050215D03*
X0064457Y0050253D03*
X0064495Y0050291D03*
X0064495Y0050329D03*
X0064495Y0050367D03*
X0064495Y0050405D03*
X0064533Y0050443D03*
X0064533Y0050481D03*
X0064533Y0050519D03*
X0064533Y0050557D03*
X0064571Y0050595D03*
D80*
X0056705Y0049341D03*
X0056667Y0049227D03*
X0056667Y0049189D03*
X0056629Y0049075D03*
X0056629Y0049037D03*
X0056591Y0048923D03*
X0056591Y0048885D03*
X0056553Y0048771D03*
X0056553Y0048733D03*
X0056515Y0048619D03*
X0056515Y0048581D03*
X0056477Y0048467D03*
X0056477Y0048429D03*
X0056401Y0048163D03*
X0056401Y0048125D03*
X0056363Y0048011D03*
X0056363Y0047973D03*
X0056325Y0047859D03*
X0056325Y0047821D03*
X0056287Y0047707D03*
X0056287Y0047669D03*
X0056249Y0047555D03*
X0076123Y0047783D03*
X0077263Y0052457D03*
X0085471Y0045123D03*
D81*
X0087162Y0045427D03*
X0088074Y0049189D03*
X0088074Y0049227D03*
X0097688Y0052723D03*
X0097688Y0052761D03*
X0097688Y0052799D03*
X0097726Y0052837D03*
X0097726Y0052875D03*
X0097726Y0052913D03*
X0097726Y0052951D03*
X0097802Y0053141D03*
X0097802Y0053179D03*
X0097802Y0053217D03*
X0097802Y0053255D03*
X0097840Y0053293D03*
X0097840Y0053331D03*
X0097840Y0053369D03*
X0097840Y0053407D03*
X0071848Y0049265D03*
X0068694Y0048961D03*
X0071240Y0045997D03*
X0070860Y0045161D03*
D82*
X0064134Y0048277D03*
X0078916Y0049607D03*
X0079144Y0050671D03*
X0079144Y0050709D03*
X0079144Y0050747D03*
X0079144Y0050785D03*
X0084084Y0045161D03*
X0090430Y0046035D03*
D83*
X0087599Y0046605D03*
X0087561Y0046453D03*
X0087523Y0046301D03*
X0087447Y0046035D03*
X0087409Y0045921D03*
X0087333Y0045731D03*
X0087295Y0045655D03*
X0087257Y0045579D03*
X0087219Y0045503D03*
X0087979Y0048201D03*
X0087979Y0048239D03*
X0088017Y0048353D03*
X0088017Y0048391D03*
X0088017Y0048429D03*
X0088055Y0048543D03*
X0088055Y0048581D03*
X0088055Y0048619D03*
X0088055Y0048657D03*
X0088093Y0048809D03*
X0088093Y0048847D03*
X0088093Y0048885D03*
X0088093Y0048923D03*
X0088093Y0048961D03*
X0088093Y0048999D03*
X0088093Y0049037D03*
X0088093Y0049075D03*
X0088093Y0049113D03*
X0088093Y0049151D03*
X0071867Y0049227D03*
X0071791Y0048239D03*
X0071259Y0046111D03*
X0071259Y0046073D03*
X0071259Y0046035D03*
X0071221Y0045959D03*
X0071221Y0045921D03*
X0071221Y0045883D03*
X0071183Y0045845D03*
X0071183Y0045807D03*
X0071183Y0045769D03*
X0071145Y0045693D03*
X0071107Y0045579D03*
X0071069Y0045503D03*
X0071031Y0045427D03*
X0070993Y0045351D03*
X0070955Y0045275D03*
X0070917Y0045237D03*
X0070879Y0045199D03*
D84*
X0071753Y0049379D03*
X0068979Y0049341D03*
X0064001Y0048011D03*
X0063963Y0047973D03*
X0063963Y0047935D03*
X0083989Y0045275D03*
X0083989Y0045237D03*
X0085015Y0049265D03*
X0085053Y0049303D03*
X0087979Y0049417D03*
X0090221Y0045655D03*
X0093907Y0049265D03*
X0093945Y0049303D03*
X0094059Y0049455D03*
X0094097Y0049493D03*
X0094135Y0049531D03*
X0094173Y0049569D03*
X0094211Y0049607D03*
X0094249Y0049645D03*
D85*
X0088074Y0048771D03*
X0088074Y0048733D03*
X0088074Y0048695D03*
X0088036Y0048505D03*
X0088036Y0048467D03*
X0087960Y0048163D03*
X0087960Y0048125D03*
X0087618Y0046681D03*
X0087618Y0046643D03*
X0087542Y0046415D03*
X0087542Y0046377D03*
X0087542Y0046339D03*
X0087504Y0046263D03*
X0087504Y0046225D03*
X0087504Y0046187D03*
X0087466Y0046149D03*
X0087466Y0046111D03*
X0087466Y0046073D03*
X0087428Y0045997D03*
X0087428Y0045959D03*
X0087390Y0045883D03*
X0087390Y0045845D03*
X0087352Y0045807D03*
X0087352Y0045769D03*
X0087314Y0045693D03*
X0087276Y0045617D03*
X0087238Y0045541D03*
X0071810Y0048277D03*
X0071810Y0048315D03*
X0071810Y0048353D03*
X0071810Y0048391D03*
X0071772Y0048201D03*
X0071772Y0048163D03*
X0071772Y0048125D03*
X0071886Y0048733D03*
X0071886Y0048771D03*
X0071886Y0049113D03*
X0071886Y0049151D03*
X0071886Y0049189D03*
X0071164Y0045731D03*
X0071126Y0045655D03*
X0071126Y0045617D03*
X0071088Y0045541D03*
X0071050Y0045465D03*
X0071012Y0045389D03*
X0070974Y0045313D03*
D86*
X0068523Y0048581D03*
X0068523Y0048619D03*
X0068637Y0048847D03*
X0068637Y0048885D03*
X0087105Y0045351D03*
X0088055Y0049265D03*
X0088055Y0049303D03*
D87*
X0087200Y0045465D03*
X0097764Y0052989D03*
X0097764Y0053027D03*
X0097764Y0053065D03*
X0097764Y0053103D03*
X0071278Y0046149D03*
X0067782Y0045655D03*
X0067782Y0045617D03*
X0067782Y0045579D03*
X0067782Y0045541D03*
X0067782Y0045503D03*
X0067782Y0045465D03*
X0067782Y0045427D03*
X0067782Y0045389D03*
D88*
X0064210Y0048391D03*
X0078726Y0049303D03*
X0078764Y0049341D03*
X0079068Y0050975D03*
X0085262Y0049455D03*
X0090468Y0046111D03*
D89*
X0087580Y0046491D03*
X0087580Y0046529D03*
X0087580Y0046567D03*
X0087998Y0048277D03*
X0087998Y0048315D03*
X0087048Y0050823D03*
X0071848Y0048581D03*
X0071848Y0048543D03*
X0071848Y0048505D03*
X0071848Y0048467D03*
X0071848Y0048429D03*
D90*
X0075819Y0047517D03*
X0091665Y0046605D03*
D91*
X0076408Y0048163D03*
X0069948Y0047859D03*
X0069910Y0047745D03*
X0069910Y0047707D03*
X0069910Y0047669D03*
X0069872Y0047593D03*
X0069872Y0047555D03*
X0069872Y0047517D03*
X0069834Y0047479D03*
X0069834Y0047441D03*
X0069834Y0047403D03*
X0069834Y0047365D03*
X0069796Y0047327D03*
X0069796Y0047289D03*
X0069796Y0047251D03*
X0069796Y0047213D03*
X0069758Y0047175D03*
X0069758Y0047137D03*
X0069758Y0047099D03*
X0069758Y0047061D03*
X0069720Y0047023D03*
X0069720Y0046985D03*
X0069720Y0046947D03*
X0069720Y0046909D03*
X0069682Y0046871D03*
D92*
X0070518Y0049835D03*
X0077016Y0052761D03*
X0086744Y0050063D03*
X0091684Y0046985D03*
X0091684Y0046947D03*
D93*
X0091665Y0047137D03*
X0091665Y0047175D03*
X0091665Y0047213D03*
X0091665Y0047251D03*
X0091931Y0048277D03*
X0091931Y0048315D03*
X0091969Y0048353D03*
X0086763Y0050101D03*
X0070537Y0049911D03*
D94*
X0075420Y0047327D03*
D95*
X0075515Y0047365D03*
X0070575Y0050063D03*
X0076883Y0052837D03*
X0086801Y0050253D03*
X0091741Y0047973D03*
X0091665Y0047669D03*
X0091665Y0047631D03*
X0091665Y0047593D03*
D96*
X0086668Y0049797D03*
X0077168Y0052647D03*
X0075914Y0047593D03*
D97*
X0077377Y0052039D03*
X0077377Y0052077D03*
X0070005Y0048087D03*
X0070005Y0048049D03*
X0069891Y0047631D03*
D98*
X0075971Y0047631D03*
D99*
X0065274Y0049417D03*
X0065274Y0049455D03*
X0065274Y0049493D03*
X0065236Y0049341D03*
X0065236Y0049303D03*
X0065236Y0049265D03*
X0065160Y0049037D03*
X0065160Y0048999D03*
X0065160Y0048961D03*
X0065122Y0048885D03*
X0065122Y0048847D03*
X0065122Y0048809D03*
X0091646Y0047707D03*
X0091722Y0047935D03*
D100*
X0076389Y0048125D03*
X0069967Y0047973D03*
X0069967Y0047935D03*
X0069967Y0047897D03*
X0069929Y0047821D03*
X0069929Y0047783D03*
D101*
X0076161Y0047821D03*
X0077301Y0052381D03*
D102*
X0070594Y0050139D03*
X0091646Y0047821D03*
D103*
X0077320Y0052343D03*
X0076180Y0047859D03*
D104*
X0076237Y0047897D03*
X0057541Y0052343D03*
X0057655Y0052799D03*
X0057427Y0051887D03*
X0057351Y0051545D03*
X0057237Y0051089D03*
D105*
X0057256Y0051127D03*
X0057256Y0051165D03*
X0057256Y0051203D03*
X0057294Y0051279D03*
X0057294Y0051317D03*
X0057294Y0051355D03*
X0057332Y0051431D03*
X0057332Y0051469D03*
X0057332Y0051507D03*
X0057370Y0051583D03*
X0057370Y0051621D03*
X0057370Y0051659D03*
X0057408Y0051773D03*
X0057408Y0051811D03*
X0057408Y0051849D03*
X0057446Y0051925D03*
X0057446Y0051963D03*
X0057446Y0052001D03*
X0057484Y0052077D03*
X0057484Y0052115D03*
X0057484Y0052153D03*
X0057522Y0052229D03*
X0057522Y0052267D03*
X0057522Y0052305D03*
X0057560Y0052381D03*
X0057560Y0052419D03*
X0057560Y0052457D03*
X0057598Y0052533D03*
X0057598Y0052571D03*
X0057598Y0052609D03*
X0057636Y0052685D03*
X0057636Y0052723D03*
X0057636Y0052761D03*
X0057674Y0052837D03*
X0057674Y0052875D03*
X0057218Y0051051D03*
X0057218Y0051013D03*
X0076256Y0047935D03*
X0077320Y0052305D03*
D106*
X0077358Y0052191D03*
X0076294Y0047973D03*
D107*
X0076370Y0048087D03*
X0077358Y0052115D03*
X0077358Y0052153D03*
X0069986Y0048011D03*
D108*
X0076313Y0048011D03*
X0076351Y0048049D03*
D109*
X0070556Y0049987D03*
X0091836Y0048125D03*
D110*
X0077377Y0051963D03*
X0077377Y0052001D03*
X0076465Y0048201D03*
D111*
X0076484Y0048239D03*
D112*
X0091912Y0048239D03*
D113*
X0056439Y0048277D03*
X0056439Y0048315D03*
D114*
X0076503Y0048277D03*
X0076541Y0048353D03*
X0077377Y0051849D03*
D115*
X0077396Y0051811D03*
X0077396Y0051773D03*
X0077396Y0051735D03*
X0076560Y0048391D03*
X0076522Y0048315D03*
D116*
X0064248Y0048429D03*
D117*
X0076579Y0048429D03*
D118*
X0076598Y0048467D03*
D119*
X0076636Y0048505D03*
X0077396Y0051583D03*
X0077396Y0051621D03*
X0077396Y0051659D03*
X0077396Y0051697D03*
D120*
X0077377Y0051545D03*
X0076655Y0048581D03*
X0076655Y0048543D03*
D121*
X0086972Y0050633D03*
X0064590Y0048619D03*
D122*
X0071867Y0048619D03*
X0071867Y0048657D03*
X0071867Y0048695D03*
X0071905Y0048809D03*
X0071905Y0048847D03*
X0071905Y0048885D03*
X0071905Y0048923D03*
X0071905Y0048961D03*
X0071905Y0048999D03*
X0071905Y0049037D03*
X0071905Y0049075D03*
D123*
X0076674Y0048619D03*
X0076712Y0048657D03*
D124*
X0067079Y0048657D03*
D125*
X0076731Y0048695D03*
X0076731Y0048733D03*
X0077377Y0051279D03*
X0077377Y0051317D03*
X0077377Y0051355D03*
X0077377Y0051393D03*
D126*
X0077358Y0051241D03*
X0077358Y0051203D03*
X0077358Y0051165D03*
X0076788Y0048847D03*
X0076788Y0048809D03*
X0076750Y0048771D03*
D127*
X0076807Y0048885D03*
X0076807Y0048923D03*
D128*
X0076845Y0048961D03*
D129*
X0076864Y0048999D03*
D130*
X0078536Y0049113D03*
D131*
X0078707Y0049265D03*
X0079049Y0051013D03*
D132*
X0086573Y0049493D03*
D133*
X0070423Y0049531D03*
D134*
X0077244Y0052533D03*
X0086592Y0049569D03*
X0086592Y0049531D03*
D135*
X0086630Y0049645D03*
X0086630Y0049683D03*
D136*
X0066490Y0049797D03*
D137*
X0066509Y0049835D03*
D138*
X0066528Y0049873D03*
X0066566Y0049911D03*
X0066566Y0049949D03*
D139*
X0066585Y0049987D03*
D140*
X0066604Y0050025D03*
X0066642Y0050063D03*
D141*
X0066661Y0050101D03*
D142*
X0066680Y0050139D03*
D143*
X0087181Y0050899D03*
X0097061Y0050139D03*
X0097099Y0050291D03*
X0097137Y0050443D03*
X0097175Y0050595D03*
X0097213Y0050747D03*
X0097251Y0050899D03*
X0097289Y0051051D03*
X0097327Y0051203D03*
X0097327Y0051241D03*
X0097365Y0051355D03*
X0097365Y0051393D03*
X0097403Y0051507D03*
X0097403Y0051545D03*
X0097441Y0051659D03*
X0097441Y0051697D03*
X0097479Y0051811D03*
X0097479Y0051849D03*
X0097517Y0051963D03*
X0097517Y0052001D03*
X0097555Y0052115D03*
X0097555Y0052153D03*
X0097593Y0052267D03*
X0097593Y0052305D03*
X0097631Y0052419D03*
X0097631Y0052457D03*
X0097669Y0052571D03*
X0097669Y0052609D03*
X0099987Y0050747D03*
X0099987Y0050709D03*
D144*
X0099835Y0050139D03*
D145*
X0066737Y0050215D03*
X0066699Y0050177D03*
D146*
X0099854Y0050177D03*
X0099854Y0050215D03*
X0099892Y0050291D03*
X0099892Y0050329D03*
D147*
X0086801Y0050215D03*
D148*
X0098695Y0050215D03*
X0098733Y0050367D03*
X0098771Y0050519D03*
X0098809Y0050671D03*
X0098847Y0050823D03*
X0098885Y0050975D03*
X0098923Y0051127D03*
X0098961Y0051279D03*
X0098999Y0051431D03*
X0099037Y0051583D03*
X0099037Y0051621D03*
X0099075Y0051735D03*
X0099075Y0051773D03*
X0099113Y0051887D03*
X0099113Y0051925D03*
X0099151Y0052039D03*
X0099151Y0052077D03*
X0099189Y0052191D03*
X0099189Y0052229D03*
X0099227Y0052343D03*
X0099227Y0052381D03*
X0099949Y0050557D03*
X0099949Y0050519D03*
X0101051Y0050253D03*
X0101089Y0050405D03*
X0101127Y0050557D03*
X0101393Y0051659D03*
X0101431Y0051811D03*
X0101469Y0051963D03*
X0101507Y0052115D03*
X0101545Y0052267D03*
X0067269Y0050747D03*
D149*
X0070632Y0050253D03*
D150*
X0099873Y0050253D03*
D151*
X0066794Y0050291D03*
D152*
X0070651Y0050291D03*
D153*
X0086839Y0050291D03*
D154*
X0070651Y0050329D03*
D155*
X0070860Y0050785D03*
X0097118Y0050405D03*
X0097118Y0050367D03*
X0097118Y0050329D03*
X0097232Y0050785D03*
X0097232Y0050823D03*
X0097232Y0050861D03*
X0097346Y0051279D03*
X0097346Y0051317D03*
X0097460Y0051735D03*
X0097460Y0051773D03*
X0097536Y0052039D03*
X0097536Y0052077D03*
X0097574Y0052191D03*
X0097574Y0052229D03*
X0097650Y0052495D03*
X0097650Y0052533D03*
X0099968Y0050671D03*
X0099968Y0050633D03*
X0099968Y0050595D03*
D156*
X0070670Y0050367D03*
D157*
X0099911Y0050367D03*
X0099911Y0050405D03*
D158*
X0066889Y0050405D03*
D159*
X0070670Y0050405D03*
D160*
X0066908Y0050443D03*
X0099550Y0052457D03*
X0099550Y0052495D03*
X0099550Y0052533D03*
X0101298Y0052457D03*
X0101298Y0052419D03*
X0101336Y0052571D03*
D161*
X0086896Y0050443D03*
D162*
X0101317Y0052495D03*
X0101317Y0052533D03*
X0101393Y0052723D03*
X0066927Y0050481D03*
D163*
X0066984Y0050519D03*
X0099588Y0052723D03*
X0099588Y0052761D03*
X0099588Y0052799D03*
X0099588Y0052837D03*
X0099626Y0052875D03*
X0099626Y0052913D03*
X0099626Y0052951D03*
X0099626Y0052989D03*
X0101374Y0052685D03*
X0101412Y0052761D03*
X0101412Y0052799D03*
X0101450Y0052875D03*
X0101450Y0052913D03*
D164*
X0101526Y0053103D03*
X0101526Y0053141D03*
X0101564Y0053179D03*
X0101564Y0053217D03*
X0101564Y0053255D03*
X0101602Y0053331D03*
X0099664Y0053293D03*
X0099664Y0053255D03*
X0099664Y0053217D03*
X0099664Y0053179D03*
X0067022Y0050557D03*
D165*
X0086915Y0050557D03*
D166*
X0099683Y0053331D03*
X0099683Y0053369D03*
X0099683Y0053407D03*
X0101583Y0053293D03*
X0100177Y0051469D03*
X0067041Y0050595D03*
D167*
X0086934Y0050595D03*
D168*
X0100139Y0051279D03*
X0100139Y0051317D03*
X0100139Y0051355D03*
X0067079Y0050633D03*
D169*
X0067155Y0050671D03*
X0100101Y0051127D03*
X0100101Y0051165D03*
D170*
X0100006Y0050823D03*
X0100006Y0050785D03*
X0067212Y0050709D03*
D171*
X0086991Y0050709D03*
D172*
X0086991Y0050747D03*
D173*
X0099873Y0051507D03*
X0099873Y0051545D03*
X0099873Y0051583D03*
X0099873Y0051621D03*
X0099911Y0051659D03*
X0099911Y0051697D03*
X0099911Y0051735D03*
X0099911Y0051773D03*
X0099911Y0051811D03*
X0099911Y0051849D03*
X0099911Y0051887D03*
X0099911Y0051925D03*
X0099911Y0051963D03*
X0099911Y0052001D03*
X0099911Y0052039D03*
X0099911Y0052077D03*
X0099911Y0052115D03*
X0099911Y0052153D03*
X0099911Y0052191D03*
X0099911Y0052229D03*
X0099949Y0052305D03*
X0099949Y0052343D03*
X0099949Y0052381D03*
X0099949Y0052419D03*
X0100709Y0052039D03*
X0100709Y0052001D03*
X0100747Y0052077D03*
X0100747Y0052115D03*
X0100785Y0052153D03*
X0100785Y0052191D03*
X0100823Y0052267D03*
X0100861Y0052343D03*
X0100861Y0052381D03*
X0100671Y0051925D03*
X0100671Y0051887D03*
X0100633Y0051849D03*
X0100633Y0051811D03*
X0100595Y0051773D03*
X0100595Y0051735D03*
X0100557Y0051697D03*
X0100557Y0051659D03*
X0100519Y0051583D03*
X0100519Y0051545D03*
X0100481Y0051507D03*
X0067383Y0050785D03*
D174*
X0087105Y0050861D03*
D175*
X0100025Y0050861D03*
X0100025Y0050899D03*
D176*
X0100044Y0050937D03*
X0100082Y0051051D03*
X0100082Y0051089D03*
D177*
X0100063Y0051013D03*
X0100063Y0050975D03*
D178*
X0100120Y0051203D03*
X0100120Y0051241D03*
D179*
X0057617Y0052647D03*
X0057579Y0052495D03*
X0057503Y0052191D03*
X0057465Y0052039D03*
X0057389Y0051735D03*
X0057389Y0051697D03*
X0057313Y0051393D03*
X0057275Y0051241D03*
D180*
X0100158Y0051393D03*
X0100158Y0051431D03*
D181*
X0077396Y0051431D03*
X0077396Y0051469D03*
X0077396Y0051507D03*
D182*
X0100538Y0051621D03*
X0100690Y0051963D03*
X0100804Y0052229D03*
X0100842Y0052305D03*
D183*
X0077396Y0051925D03*
X0077396Y0051887D03*
D184*
X0077339Y0052229D03*
X0077339Y0052267D03*
D185*
X0099930Y0052267D03*
D186*
X0077282Y0052419D03*
D187*
X0099569Y0052571D03*
X0099569Y0052609D03*
X0099569Y0052647D03*
X0099569Y0052685D03*
X0101355Y0052647D03*
X0101355Y0052609D03*
D188*
X0101431Y0052837D03*
X0101469Y0052951D03*
X0101469Y0052989D03*
X0101507Y0053027D03*
X0101507Y0053065D03*
X0099645Y0053065D03*
X0099645Y0053103D03*
X0099645Y0053141D03*
X0099645Y0053027D03*
D189*
X0076750Y0052875D03*
D190*
X0101621Y0053369D03*
X0101621Y0053407D03*
D191*
X0033075Y0107071D03*
X0030275Y0107071D03*
X0028825Y0106646D03*
D192*
X0034537Y0106646D03*
X0034537Y0114096D03*
X0028812Y0114096D03*
D193*
X0030262Y0107096D03*
X0028812Y0106671D03*
X0034537Y0106671D03*
D194*
X0034525Y0106696D03*
X0028825Y0106696D03*
X0028825Y0114046D03*
X0034525Y0114046D03*
D195*
X0034525Y0106721D03*
X0028825Y0106721D03*
D196*
X0028837Y0106746D03*
X0028837Y0113996D03*
X0034512Y0113996D03*
D197*
X0033150Y0107171D03*
X0034525Y0106746D03*
X0030200Y0107171D03*
D198*
X0028837Y0106771D03*
X0034512Y0106771D03*
D199*
X0030150Y0107246D03*
X0028850Y0106796D03*
X0028850Y0113946D03*
X0034500Y0113946D03*
D200*
X0030162Y0107221D03*
X0034512Y0106796D03*
D201*
X0034500Y0106821D03*
X0033225Y0107271D03*
X0028850Y0106821D03*
D202*
X0028850Y0106846D03*
X0034500Y0106846D03*
D203*
X0034487Y0106871D03*
X0028862Y0106871D03*
X0028862Y0113871D03*
X0034487Y0113871D03*
D204*
X0034487Y0106896D03*
X0028862Y0106896D03*
D205*
X0028875Y0106921D03*
X0034475Y0106921D03*
X0034475Y0113821D03*
X0028875Y0113821D03*
D206*
X0028875Y0106946D03*
X0034475Y0106946D03*
D207*
X0034462Y0106971D03*
X0028887Y0106971D03*
X0028887Y0113771D03*
X0034462Y0113771D03*
D208*
X0028900Y0106996D03*
D209*
X0034462Y0106996D03*
D210*
X0034462Y0107021D03*
X0028912Y0107021D03*
D211*
X0028912Y0107046D03*
D212*
X0034450Y0107046D03*
D213*
X0028912Y0107071D03*
X0028912Y0113696D03*
X0034437Y0113696D03*
D214*
X0034450Y0107071D03*
D215*
X0028925Y0107096D03*
D216*
X0033100Y0107096D03*
D217*
X0034437Y0107096D03*
X0034437Y0113646D03*
D218*
X0028925Y0113646D03*
X0028925Y0107121D03*
D219*
X0030237Y0107121D03*
X0033112Y0107121D03*
D220*
X0034437Y0107121D03*
X0031687Y0115046D03*
D221*
X0031675Y0114996D03*
X0031675Y0114971D03*
X0031675Y0114946D03*
X0031675Y0114921D03*
X0031675Y0114896D03*
X0034425Y0107146D03*
X0028925Y0107146D03*
D222*
X0030212Y0107146D03*
X0033137Y0107146D03*
D223*
X0034425Y0107171D03*
X0028925Y0107171D03*
X0031675Y0114746D03*
X0031675Y0114771D03*
X0031675Y0114796D03*
X0031675Y0114821D03*
X0031675Y0114846D03*
D224*
X0031687Y0114596D03*
X0034412Y0113546D03*
X0034412Y0107196D03*
X0028937Y0107196D03*
D225*
X0030175Y0107196D03*
X0033175Y0107196D03*
D226*
X0028950Y0107221D03*
X0028950Y0113546D03*
X0031675Y0114471D03*
X0031675Y0114496D03*
X0031675Y0114521D03*
X0031675Y0114546D03*
X0031675Y0114571D03*
D227*
X0028850Y0113971D03*
X0034500Y0113971D03*
X0033200Y0107221D03*
D228*
X0034412Y0107221D03*
X0031687Y0114446D03*
D229*
X0031675Y0114296D03*
X0031675Y0114271D03*
X0031675Y0114246D03*
X0028950Y0113496D03*
X0028950Y0107246D03*
X0034400Y0107246D03*
X0034400Y0113496D03*
D230*
X0033212Y0107246D03*
D231*
X0028962Y0107271D03*
X0028962Y0113471D03*
X0031687Y0114071D03*
X0034387Y0113471D03*
D232*
X0034487Y0113921D03*
X0028862Y0113921D03*
X0030137Y0107271D03*
D233*
X0034400Y0107271D03*
X0031675Y0114096D03*
X0031675Y0114121D03*
X0031675Y0114146D03*
D234*
X0034087Y0107296D03*
X0029262Y0107296D03*
D235*
X0029250Y0107321D03*
X0029700Y0108421D03*
X0029725Y0108471D03*
X0029750Y0108496D03*
X0029750Y0108521D03*
X0033600Y0108521D03*
X0033600Y0108496D03*
X0033625Y0108471D03*
X0033600Y0108546D03*
X0034100Y0107321D03*
D236*
X0034100Y0107346D03*
X0033750Y0108246D03*
X0033725Y0108271D03*
X0033725Y0108296D03*
X0033700Y0108321D03*
X0033675Y0108371D03*
X0033600Y0108596D03*
X0029750Y0108596D03*
X0029675Y0108371D03*
X0029650Y0108321D03*
X0029625Y0108271D03*
X0029600Y0108221D03*
X0029250Y0107346D03*
X0031675Y0113646D03*
D237*
X0033587Y0108646D03*
X0033587Y0108621D03*
X0033762Y0108221D03*
X0033787Y0108171D03*
X0034112Y0107371D03*
X0029762Y0108621D03*
X0029612Y0108246D03*
X0029587Y0108196D03*
X0029237Y0107371D03*
D238*
X0029237Y0107396D03*
X0029462Y0107971D03*
X0029487Y0108021D03*
X0029512Y0108071D03*
X0029762Y0108671D03*
X0029762Y0108696D03*
X0033587Y0108696D03*
X0033862Y0108021D03*
X0033887Y0107996D03*
X0033912Y0107946D03*
X0033887Y0111271D03*
D239*
X0033600Y0108671D03*
X0033775Y0108196D03*
X0033800Y0108146D03*
X0033825Y0108121D03*
X0033825Y0108096D03*
X0033850Y0108071D03*
X0033850Y0108046D03*
X0034125Y0107396D03*
X0029750Y0108646D03*
X0029575Y0108171D03*
X0029550Y0108146D03*
X0029550Y0108121D03*
X0029525Y0108096D03*
X0029500Y0108046D03*
D240*
X0029475Y0107996D03*
X0029450Y0107946D03*
X0029425Y0107921D03*
X0029425Y0107896D03*
X0029225Y0107421D03*
X0029450Y0109496D03*
X0029450Y0111246D03*
X0029475Y0111271D03*
X0029500Y0111296D03*
X0033825Y0111346D03*
X0033850Y0111321D03*
X0033875Y0111296D03*
X0033900Y0111246D03*
X0033900Y0109496D03*
X0033900Y0109471D03*
X0033875Y0109446D03*
X0033600Y0108721D03*
X0033900Y0107971D03*
X0033925Y0107921D03*
X0033950Y0107871D03*
X0034125Y0107421D03*
D241*
X0034137Y0107446D03*
X0034012Y0107771D03*
X0033987Y0107796D03*
X0033987Y0107821D03*
X0033962Y0107846D03*
X0033937Y0107896D03*
X0033587Y0108746D03*
X0033587Y0108771D03*
X0033862Y0109421D03*
X0033937Y0109521D03*
X0033812Y0111371D03*
X0031687Y0113621D03*
X0029537Y0111346D03*
X0029512Y0111321D03*
X0029412Y0109521D03*
X0029462Y0109471D03*
X0029487Y0109446D03*
X0029762Y0108746D03*
X0029762Y0108721D03*
X0029412Y0107871D03*
X0029387Y0107846D03*
X0029362Y0107796D03*
X0029212Y0107446D03*
D242*
X0029212Y0107471D03*
X0029212Y0107496D03*
X0029262Y0107621D03*
X0029287Y0107646D03*
X0029287Y0107671D03*
X0029762Y0108796D03*
X0029762Y0108821D03*
X0029537Y0109371D03*
X0029362Y0109546D03*
X0029562Y0111396D03*
X0029587Y0111421D03*
X0033762Y0111421D03*
X0033787Y0111396D03*
X0033987Y0109546D03*
X0033837Y0109396D03*
X0033812Y0109371D03*
X0033587Y0108821D03*
X0033587Y0108796D03*
X0034062Y0107671D03*
X0034087Y0107621D03*
X0034137Y0107496D03*
X0034137Y0107471D03*
D243*
X0034125Y0107521D03*
X0034125Y0107546D03*
X0034125Y0107571D03*
X0034100Y0107596D03*
X0034075Y0107646D03*
X0033600Y0108846D03*
X0033775Y0109321D03*
X0033800Y0109346D03*
X0033750Y0111446D03*
X0029600Y0111446D03*
X0029550Y0109346D03*
X0029575Y0109321D03*
X0029250Y0107596D03*
X0029225Y0107571D03*
X0029225Y0107546D03*
X0029200Y0107521D03*
D244*
X0029300Y0107696D03*
X0029325Y0107721D03*
X0029325Y0107746D03*
X0029350Y0107771D03*
X0029375Y0107821D03*
X0029750Y0108771D03*
X0029525Y0109396D03*
X0029500Y0109421D03*
X0029400Y0111221D03*
X0029550Y0111371D03*
X0033950Y0111221D03*
X0034025Y0107746D03*
X0034025Y0107721D03*
X0034050Y0107696D03*
D245*
X0033687Y0108346D03*
X0033662Y0108396D03*
X0033637Y0108421D03*
X0033637Y0108446D03*
X0033587Y0108571D03*
X0029762Y0108571D03*
X0029762Y0108546D03*
X0029712Y0108446D03*
X0029687Y0108396D03*
X0029662Y0108346D03*
X0029637Y0108296D03*
D246*
X0029762Y0108846D03*
X0029762Y0108871D03*
X0029762Y0108896D03*
X0029587Y0109296D03*
X0029637Y0111471D03*
X0033712Y0111471D03*
X0033762Y0109296D03*
X0033587Y0108871D03*
D247*
X0033600Y0108896D03*
X0033725Y0109271D03*
X0034025Y0111196D03*
X0033700Y0111496D03*
X0031675Y0113596D03*
X0029325Y0111196D03*
X0029625Y0109271D03*
D248*
X0029637Y0109246D03*
X0029762Y0108946D03*
X0029762Y0108921D03*
X0029287Y0109571D03*
X0029662Y0111496D03*
X0029687Y0111521D03*
X0033712Y0109246D03*
X0033587Y0108946D03*
X0033587Y0108921D03*
D249*
X0033700Y0109221D03*
X0034075Y0109571D03*
X0033675Y0111521D03*
X0033650Y0111546D03*
X0029650Y0109221D03*
X0029775Y0108971D03*
D250*
X0029762Y0108996D03*
X0029762Y0109021D03*
X0029687Y0109196D03*
X0029712Y0111546D03*
X0033662Y0109196D03*
X0033587Y0108996D03*
X0033587Y0108971D03*
D251*
X0033600Y0109021D03*
X0033650Y0109171D03*
X0034100Y0111171D03*
X0033625Y0111571D03*
X0031675Y0113571D03*
X0029750Y0111571D03*
X0029250Y0111171D03*
X0029700Y0109171D03*
D252*
X0029737Y0109146D03*
X0029762Y0109071D03*
X0029762Y0109046D03*
X0033587Y0109046D03*
X0033587Y0111596D03*
D253*
X0033625Y0109146D03*
X0033600Y0109121D03*
X0033600Y0109096D03*
X0033600Y0109071D03*
X0029750Y0109096D03*
X0029750Y0109121D03*
X0029775Y0111596D03*
D254*
X0029212Y0109596D03*
X0034162Y0109596D03*
D255*
X0034225Y0109621D03*
X0029125Y0109621D03*
D256*
X0029037Y0109646D03*
X0034312Y0109646D03*
D257*
X0028987Y0109671D03*
D258*
X0034375Y0109671D03*
D259*
X0028912Y0109696D03*
D260*
X0034450Y0109696D03*
D261*
X0034525Y0109721D03*
X0034675Y0110096D03*
X0034675Y0110121D03*
X0034675Y0110146D03*
X0034675Y0110171D03*
X0034675Y0110196D03*
X0034675Y0110221D03*
X0034675Y0110246D03*
X0034675Y0110271D03*
X0034675Y0110496D03*
X0034675Y0110521D03*
X0034675Y0110546D03*
X0034675Y0110571D03*
X0034675Y0110596D03*
X0034675Y0110621D03*
X0034675Y0110646D03*
X0028825Y0109721D03*
X0028675Y0110146D03*
X0028675Y0110171D03*
X0028675Y0110196D03*
X0028675Y0110221D03*
X0028675Y0110246D03*
X0028675Y0110271D03*
X0028675Y0110296D03*
X0028675Y0110321D03*
X0028675Y0110346D03*
X0028675Y0110371D03*
X0028675Y0110396D03*
X0028675Y0110421D03*
X0028675Y0110446D03*
X0028675Y0110471D03*
X0028675Y0110496D03*
X0028675Y0110521D03*
X0028675Y0110546D03*
X0028675Y0110571D03*
X0028675Y0110596D03*
D262*
X0028737Y0110946D03*
X0028737Y0110971D03*
X0028737Y0109796D03*
X0028737Y0109771D03*
X0028762Y0109746D03*
X0034587Y0109746D03*
X0034612Y0109771D03*
X0034612Y0109796D03*
X0034612Y0110946D03*
X0034612Y0110971D03*
X0034587Y0110996D03*
D263*
X0034625Y0110921D03*
X0034625Y0110896D03*
X0034625Y0109846D03*
X0034625Y0109821D03*
X0031675Y0113421D03*
X0028725Y0110921D03*
X0028725Y0110896D03*
X0028725Y0110871D03*
X0028725Y0109846D03*
X0028725Y0109821D03*
D264*
X0028712Y0109871D03*
X0028712Y0109896D03*
X0028712Y0109921D03*
X0028712Y0109946D03*
X0028712Y0110796D03*
X0028712Y0110821D03*
X0028712Y0110846D03*
X0028787Y0111021D03*
X0034562Y0111021D03*
X0034637Y0110871D03*
X0034637Y0110846D03*
X0034637Y0110821D03*
X0034637Y0109921D03*
X0034637Y0109896D03*
X0034637Y0109871D03*
D265*
X0034650Y0109946D03*
X0034650Y0109971D03*
X0034650Y0109996D03*
X0034650Y0110746D03*
X0034650Y0110771D03*
X0034650Y0110796D03*
X0028700Y0110771D03*
X0028700Y0110746D03*
X0028700Y0110721D03*
X0028700Y0110021D03*
X0028700Y0109996D03*
X0028700Y0109971D03*
D266*
X0028687Y0110046D03*
X0028687Y0110071D03*
X0028687Y0110096D03*
X0028687Y0110121D03*
X0028687Y0110621D03*
X0028687Y0110646D03*
X0028687Y0110671D03*
X0028687Y0110696D03*
X0034662Y0110696D03*
X0034662Y0110671D03*
X0034662Y0110721D03*
X0034662Y0110071D03*
X0034662Y0110046D03*
X0034662Y0110021D03*
D267*
X0034687Y0110296D03*
X0034687Y0110321D03*
X0034687Y0110346D03*
X0034687Y0110371D03*
X0034687Y0110396D03*
X0034687Y0110421D03*
X0034687Y0110446D03*
X0034687Y0110471D03*
D268*
X0028750Y0110996D03*
D269*
X0028875Y0111046D03*
X0031675Y0113446D03*
X0034475Y0111046D03*
D270*
X0034412Y0111071D03*
X0028962Y0111071D03*
D271*
X0029025Y0111096D03*
X0031675Y0113496D03*
X0034325Y0111096D03*
D272*
X0034250Y0111121D03*
X0031675Y0113521D03*
X0029900Y0111671D03*
X0029100Y0111121D03*
D273*
X0029175Y0111146D03*
X0029850Y0111646D03*
D274*
X0031687Y0113546D03*
X0034187Y0111146D03*
D275*
X0033550Y0111621D03*
X0029800Y0111621D03*
D276*
X0033512Y0111646D03*
D277*
X0033462Y0111671D03*
D278*
X0033387Y0111696D03*
X0029987Y0111696D03*
D279*
X0031675Y0111721D03*
X0031675Y0112471D03*
D280*
X0031687Y0111746D03*
D281*
X0031675Y0111771D03*
X0031675Y0111796D03*
X0031675Y0112421D03*
X0031675Y0112446D03*
D282*
X0031675Y0112396D03*
X0031675Y0111846D03*
X0031675Y0111821D03*
D283*
X0031662Y0111871D03*
D284*
X0031675Y0111896D03*
X0031675Y0111921D03*
X0031675Y0112346D03*
X0031675Y0112371D03*
D285*
X0031675Y0112321D03*
X0031675Y0111971D03*
X0031675Y0111946D03*
D286*
X0031675Y0111996D03*
X0031675Y0112021D03*
X0031675Y0112296D03*
D287*
X0031687Y0112271D03*
X0031687Y0112046D03*
D288*
X0031675Y0112071D03*
X0031675Y0112096D03*
X0031675Y0112246D03*
D289*
X0031675Y0112221D03*
X0031675Y0112196D03*
X0031675Y0112171D03*
X0031675Y0112146D03*
X0031675Y0112121D03*
D290*
X0031687Y0112496D03*
D291*
X0031687Y0112521D03*
D292*
X0031675Y0112546D03*
D293*
X0031675Y0112571D03*
D294*
X0031687Y0112596D03*
D295*
X0031675Y0112621D03*
D296*
X0031675Y0112646D03*
D297*
X0031687Y0112671D03*
D298*
X0031675Y0112696D03*
D299*
X0031675Y0112721D03*
D300*
X0031687Y0112746D03*
D301*
X0031675Y0112771D03*
D302*
X0031675Y0112796D03*
D303*
X0031687Y0112821D03*
D304*
X0031675Y0112846D03*
D305*
X0031675Y0112871D03*
D306*
X0031675Y0112896D03*
X0031675Y0112921D03*
D307*
X0031675Y0112946D03*
D308*
X0031675Y0112971D03*
X0031675Y0112996D03*
D309*
X0031675Y0113021D03*
X0031675Y0113396D03*
D310*
X0031675Y0113371D03*
X0031675Y0113046D03*
D311*
X0031687Y0113071D03*
D312*
X0031675Y0113096D03*
X0031675Y0113346D03*
D313*
X0031675Y0113321D03*
X0031675Y0113121D03*
D314*
X0031687Y0113146D03*
D315*
X0031675Y0113171D03*
X0031675Y0113296D03*
D316*
X0031675Y0113271D03*
X0031675Y0113221D03*
X0031675Y0113196D03*
D317*
X0031662Y0113246D03*
D318*
X0031675Y0113796D03*
X0028975Y0113421D03*
X0034375Y0113421D03*
D319*
X0034387Y0113446D03*
X0031687Y0113921D03*
X0031687Y0113946D03*
X0028962Y0113446D03*
D320*
X0031675Y0113471D03*
D321*
X0031675Y0114346D03*
X0031675Y0114371D03*
X0031675Y0114396D03*
X0031675Y0114421D03*
X0028950Y0113521D03*
X0034400Y0113521D03*
D322*
X0034412Y0113571D03*
X0028937Y0113571D03*
D323*
X0028937Y0113596D03*
X0031662Y0114871D03*
X0034412Y0113596D03*
D324*
X0034425Y0113621D03*
X0031675Y0115021D03*
X0028925Y0113621D03*
D325*
X0028912Y0113671D03*
X0034437Y0113671D03*
D326*
X0031675Y0113671D03*
D327*
X0031675Y0113696D03*
D328*
X0028900Y0113721D03*
X0034450Y0113721D03*
D329*
X0031675Y0113721D03*
D330*
X0028900Y0113746D03*
X0034450Y0113746D03*
D331*
X0031675Y0113746D03*
D332*
X0031675Y0113771D03*
D333*
X0028887Y0113796D03*
X0034462Y0113796D03*
D334*
X0031675Y0113821D03*
X0031675Y0113846D03*
X0031675Y0113871D03*
X0031675Y0113896D03*
D335*
X0028875Y0113846D03*
X0034475Y0113846D03*
D336*
X0034487Y0113896D03*
X0028862Y0113896D03*
D337*
X0031675Y0113971D03*
X0031675Y0113996D03*
X0031675Y0114021D03*
X0031675Y0114046D03*
D338*
X0028837Y0114021D03*
X0034512Y0114021D03*
D339*
X0034525Y0114071D03*
X0028825Y0114071D03*
D340*
X0031687Y0114171D03*
X0031687Y0114196D03*
X0031687Y0114221D03*
D341*
X0031687Y0114321D03*
D342*
X0031675Y0114621D03*
X0031675Y0114646D03*
X0031675Y0114671D03*
X0031675Y0114696D03*
X0031675Y0114721D03*
M02*
