G75*
%MOIN*%
%OFA0B0*%
%FSLAX25Y25*%
%IPPOS*%
%LPD*%
%AMOC8*
5,1,8,0,0,1.08239X$1,22.5*
%
%ADD10C,0.00000*%
%ADD11C,0.01181*%
%ADD12R,0.05800X0.17335*%
%ADD13R,0.03162X0.04343*%
%ADD14C,0.03378*%
%ADD15R,0.05800X0.03300*%
%ADD16R,0.06706X0.07099*%
%ADD17R,0.05524X0.05524*%
%ADD18R,0.03950X0.05524*%
%ADD19R,0.05524X0.02965*%
%ADD20R,0.05524X0.03950*%
%ADD21R,0.07887X0.07887*%
%ADD22C,0.07887*%
%ADD23C,0.04737*%
D10*
X0014071Y0001984D02*
X0014071Y0021669D01*
X0001591Y0021669D01*
X0001591Y0132693D01*
X0116551Y0132693D01*
X0116551Y0021669D01*
X0104071Y0021669D01*
X0104071Y0001984D01*
X0014071Y0001984D01*
D11*
X0014189Y0021669D02*
X0001591Y0021669D01*
X0001591Y0103559D01*
X0014189Y0103559D01*
X0014189Y0021669D01*
X0014189Y0022038D02*
X0001591Y0022038D01*
X0001591Y0023217D02*
X0014189Y0023217D01*
X0014189Y0024397D02*
X0001591Y0024397D01*
X0001591Y0025577D02*
X0014189Y0025577D01*
X0014189Y0026756D02*
X0001591Y0026756D01*
X0001591Y0027936D02*
X0014189Y0027936D01*
X0014189Y0029115D02*
X0001591Y0029115D01*
X0001591Y0030295D02*
X0014189Y0030295D01*
X0014189Y0031475D02*
X0001591Y0031475D01*
X0001591Y0032654D02*
X0014189Y0032654D01*
X0014189Y0033834D02*
X0001591Y0033834D01*
X0001591Y0035013D02*
X0014189Y0035013D01*
X0014189Y0036193D02*
X0001591Y0036193D01*
X0001591Y0037373D02*
X0014189Y0037373D01*
X0014189Y0038552D02*
X0001591Y0038552D01*
X0001591Y0039732D02*
X0014189Y0039732D01*
X0014189Y0040912D02*
X0001591Y0040912D01*
X0001591Y0042091D02*
X0014189Y0042091D01*
X0014189Y0043271D02*
X0001591Y0043271D01*
X0001591Y0044450D02*
X0014189Y0044450D01*
X0014189Y0045630D02*
X0001591Y0045630D01*
X0001591Y0046810D02*
X0014189Y0046810D01*
X0014189Y0047989D02*
X0001591Y0047989D01*
X0001591Y0049169D02*
X0014189Y0049169D01*
X0014189Y0050348D02*
X0001591Y0050348D01*
X0001591Y0051528D02*
X0014189Y0051528D01*
X0014189Y0052708D02*
X0001591Y0052708D01*
X0001591Y0053887D02*
X0014189Y0053887D01*
X0014189Y0055067D02*
X0001591Y0055067D01*
X0001591Y0056246D02*
X0014189Y0056246D01*
X0014189Y0057426D02*
X0001591Y0057426D01*
X0001591Y0058606D02*
X0014189Y0058606D01*
X0014189Y0059785D02*
X0001591Y0059785D01*
X0001591Y0060965D02*
X0014189Y0060965D01*
X0014189Y0062145D02*
X0001591Y0062145D01*
X0001591Y0063324D02*
X0014189Y0063324D01*
X0014189Y0064504D02*
X0001591Y0064504D01*
X0001591Y0065683D02*
X0014189Y0065683D01*
X0014189Y0066863D02*
X0001591Y0066863D01*
X0001591Y0068043D02*
X0014189Y0068043D01*
X0014189Y0069222D02*
X0001591Y0069222D01*
X0001591Y0070402D02*
X0014189Y0070402D01*
X0014189Y0071581D02*
X0001591Y0071581D01*
X0001591Y0072761D02*
X0014189Y0072761D01*
X0014189Y0073941D02*
X0001591Y0073941D01*
X0001591Y0075120D02*
X0014189Y0075120D01*
X0014189Y0076300D02*
X0001591Y0076300D01*
X0001591Y0077480D02*
X0014189Y0077480D01*
X0014189Y0078659D02*
X0001591Y0078659D01*
X0001591Y0079839D02*
X0014189Y0079839D01*
X0014189Y0081018D02*
X0001591Y0081018D01*
X0001591Y0082198D02*
X0014189Y0082198D01*
X0014189Y0083378D02*
X0001591Y0083378D01*
X0001591Y0084557D02*
X0014189Y0084557D01*
X0014189Y0085737D02*
X0001591Y0085737D01*
X0001591Y0086916D02*
X0014189Y0086916D01*
X0014189Y0088096D02*
X0001591Y0088096D01*
X0001591Y0089276D02*
X0014189Y0089276D01*
X0014189Y0090455D02*
X0001591Y0090455D01*
X0001591Y0091635D02*
X0014189Y0091635D01*
X0014189Y0092815D02*
X0001591Y0092815D01*
X0001591Y0093994D02*
X0014189Y0093994D01*
X0014189Y0095174D02*
X0001591Y0095174D01*
X0001591Y0096353D02*
X0014189Y0096353D01*
X0014189Y0097533D02*
X0001591Y0097533D01*
X0001591Y0098713D02*
X0014189Y0098713D01*
X0014189Y0099892D02*
X0001591Y0099892D01*
X0001591Y0101072D02*
X0014189Y0101072D01*
X0014189Y0102251D02*
X0001591Y0102251D01*
X0001591Y0103431D02*
X0014189Y0103431D01*
X0103953Y0103431D02*
X0116551Y0103431D01*
X0116551Y0103559D02*
X0116551Y0021669D01*
X0103953Y0021669D01*
X0103953Y0103559D01*
X0116551Y0103559D01*
X0116551Y0102251D02*
X0103953Y0102251D01*
X0103953Y0101072D02*
X0116551Y0101072D01*
X0116551Y0099892D02*
X0103953Y0099892D01*
X0103953Y0098713D02*
X0116551Y0098713D01*
X0116551Y0097533D02*
X0103953Y0097533D01*
X0103953Y0096353D02*
X0116551Y0096353D01*
X0116551Y0095174D02*
X0103953Y0095174D01*
X0103953Y0093994D02*
X0116551Y0093994D01*
X0116551Y0092815D02*
X0103953Y0092815D01*
X0103953Y0091635D02*
X0116551Y0091635D01*
X0116551Y0090455D02*
X0103953Y0090455D01*
X0103953Y0089276D02*
X0116551Y0089276D01*
X0116551Y0088096D02*
X0103953Y0088096D01*
X0103953Y0086916D02*
X0116551Y0086916D01*
X0116551Y0085737D02*
X0103953Y0085737D01*
X0103953Y0084557D02*
X0116551Y0084557D01*
X0116551Y0083378D02*
X0103953Y0083378D01*
X0103953Y0082198D02*
X0116551Y0082198D01*
X0116551Y0081018D02*
X0103953Y0081018D01*
X0103953Y0079839D02*
X0116551Y0079839D01*
X0116551Y0078659D02*
X0103953Y0078659D01*
X0103953Y0077480D02*
X0116551Y0077480D01*
X0116551Y0076300D02*
X0103953Y0076300D01*
X0103953Y0075120D02*
X0116551Y0075120D01*
X0116551Y0073941D02*
X0103953Y0073941D01*
X0103953Y0072761D02*
X0116551Y0072761D01*
X0116551Y0071581D02*
X0103953Y0071581D01*
X0103953Y0070402D02*
X0116551Y0070402D01*
X0116551Y0069222D02*
X0103953Y0069222D01*
X0103953Y0068043D02*
X0116551Y0068043D01*
X0116551Y0066863D02*
X0103953Y0066863D01*
X0103953Y0065683D02*
X0116551Y0065683D01*
X0116551Y0064504D02*
X0103953Y0064504D01*
X0103953Y0063324D02*
X0116551Y0063324D01*
X0116551Y0062145D02*
X0103953Y0062145D01*
X0103953Y0060965D02*
X0116551Y0060965D01*
X0116551Y0059785D02*
X0103953Y0059785D01*
X0103953Y0058606D02*
X0116551Y0058606D01*
X0116551Y0057426D02*
X0103953Y0057426D01*
X0103953Y0056246D02*
X0116551Y0056246D01*
X0116551Y0055067D02*
X0103953Y0055067D01*
X0103953Y0053887D02*
X0116551Y0053887D01*
X0116551Y0052708D02*
X0103953Y0052708D01*
X0103953Y0051528D02*
X0116551Y0051528D01*
X0116551Y0050348D02*
X0103953Y0050348D01*
X0103953Y0049169D02*
X0116551Y0049169D01*
X0116551Y0047989D02*
X0103953Y0047989D01*
X0103953Y0046810D02*
X0116551Y0046810D01*
X0116551Y0045630D02*
X0103953Y0045630D01*
X0103953Y0044450D02*
X0116551Y0044450D01*
X0116551Y0043271D02*
X0103953Y0043271D01*
X0103953Y0042091D02*
X0116551Y0042091D01*
X0116551Y0040912D02*
X0103953Y0040912D01*
X0103953Y0039732D02*
X0116551Y0039732D01*
X0116551Y0038552D02*
X0103953Y0038552D01*
X0103953Y0037373D02*
X0116551Y0037373D01*
X0116551Y0036193D02*
X0103953Y0036193D01*
X0103953Y0035013D02*
X0116551Y0035013D01*
X0116551Y0033834D02*
X0103953Y0033834D01*
X0103953Y0032654D02*
X0116551Y0032654D01*
X0116551Y0031475D02*
X0103953Y0031475D01*
X0103953Y0030295D02*
X0116551Y0030295D01*
X0116551Y0029115D02*
X0103953Y0029115D01*
X0103953Y0027936D02*
X0116551Y0027936D01*
X0116551Y0026756D02*
X0103953Y0026756D01*
X0103953Y0025577D02*
X0116551Y0025577D01*
X0116551Y0024397D02*
X0103953Y0024397D01*
X0103953Y0023217D02*
X0116551Y0023217D01*
X0116551Y0022038D02*
X0103953Y0022038D01*
D12*
X0094071Y0013717D03*
X0084071Y0013717D03*
X0074071Y0013717D03*
X0064071Y0013717D03*
X0054071Y0013717D03*
X0044071Y0013717D03*
X0034071Y0013717D03*
X0024071Y0013717D03*
D13*
X0031551Y0040764D03*
X0035291Y0040764D03*
X0039031Y0040764D03*
X0039031Y0049819D03*
X0035291Y0049819D03*
X0031551Y0049819D03*
D14*
X0057890Y0068520D03*
X0057890Y0073638D03*
X0063008Y0073638D03*
X0063008Y0068520D03*
X0068126Y0068520D03*
X0068126Y0073638D03*
X0068126Y0078756D03*
X0073244Y0078756D03*
X0073244Y0073638D03*
X0073244Y0068520D03*
X0078362Y0068520D03*
X0078362Y0073638D03*
X0078362Y0078756D03*
X0083480Y0078756D03*
X0083480Y0073638D03*
X0083480Y0068520D03*
X0088598Y0068520D03*
X0088598Y0073638D03*
X0088598Y0078756D03*
X0063008Y0078756D03*
X0057890Y0078756D03*
D15*
X0074819Y0053507D03*
X0074819Y0049674D03*
X0082693Y0049674D03*
X0082693Y0053507D03*
X0090567Y0053507D03*
X0090567Y0049674D03*
D16*
X0069307Y0087417D03*
D17*
X0065370Y0100508D03*
X0073244Y0100508D03*
D18*
X0082299Y0100803D03*
X0089386Y0100803D03*
X0034268Y0066551D03*
X0034268Y0060252D03*
X0027181Y0060252D03*
X0027181Y0066551D03*
X0030921Y0029543D03*
X0038008Y0029543D03*
X0087024Y0028756D03*
X0094110Y0028756D03*
D19*
X0065764Y0032890D03*
X0065764Y0040370D03*
X0055527Y0040370D03*
X0055527Y0036630D03*
X0055527Y0032890D03*
D20*
X0055921Y0049622D03*
X0055921Y0056709D03*
D21*
X0107299Y0117732D03*
D22*
X0093520Y0117732D03*
X0079740Y0117732D03*
X0065961Y0117732D03*
X0052181Y0117732D03*
X0038402Y0117732D03*
X0024622Y0117732D03*
X0010843Y0117732D03*
D23*
X0007890Y0125606D03*
X0097654Y0042142D03*
M02*
