G75*
%MOIN*%
%OFA0B0*%
%FSLAX25Y25*%
%IPPOS*%
%LPD*%
%AMOC8*
5,1,8,0,0,1.08239X$1,22.5*
%
%ADD10C,0.00000*%
%ADD11C,0.00400*%
%ADD12C,0.02578*%
%ADD13C,0.07087*%
%ADD14C,0.01969*%
%ADD15C,0.02001*%
%ADD16C,0.02953*%
%ADD17C,0.02375*%
%ADD18C,0.01181*%
D10*
X0014071Y0001984D02*
X0014071Y0021669D01*
X0001591Y0021669D01*
X0001591Y0132693D01*
X0116551Y0132693D01*
X0116551Y0021669D01*
X0104071Y0021669D01*
X0104071Y0001984D01*
X0014071Y0001984D01*
D11*
X0107302Y0050216D02*
X0109857Y0050216D01*
X0109857Y0051493D01*
X0109431Y0051919D01*
X0108580Y0051919D01*
X0108154Y0051493D01*
X0108154Y0050216D01*
X0107302Y0052935D02*
X0108154Y0053786D01*
X0107302Y0054638D01*
X0109857Y0054638D01*
X0109857Y0055653D02*
X0109857Y0056931D01*
X0109431Y0057357D01*
X0108580Y0057357D01*
X0108154Y0056931D01*
X0108154Y0055653D01*
X0107302Y0055653D02*
X0109857Y0055653D01*
X0108154Y0056505D02*
X0107302Y0057357D01*
X0108580Y0058372D02*
X0108580Y0060076D01*
X0109006Y0061091D02*
X0109857Y0061943D01*
X0107302Y0061943D01*
X0107302Y0062794D02*
X0107302Y0061091D01*
X0107302Y0063810D02*
X0109006Y0065513D01*
X0109431Y0065513D01*
X0109857Y0065087D01*
X0109857Y0064236D01*
X0109431Y0063810D01*
X0107302Y0063810D02*
X0107302Y0065513D01*
X0108154Y0066529D02*
X0107302Y0067380D01*
X0108154Y0068232D01*
X0109857Y0068232D01*
X0109857Y0066529D02*
X0108154Y0066529D01*
X0112027Y0062794D02*
X0112878Y0061943D01*
X0112878Y0062369D02*
X0112878Y0061091D01*
X0112027Y0061091D02*
X0114582Y0061091D01*
X0114582Y0062369D01*
X0114156Y0062794D01*
X0113304Y0062794D01*
X0112878Y0062369D01*
X0112027Y0060076D02*
X0112027Y0058372D01*
X0114582Y0058372D01*
X0114582Y0060076D01*
X0113304Y0059224D02*
X0113304Y0058372D01*
X0114156Y0057357D02*
X0113304Y0056505D01*
X0112027Y0056505D01*
X0113304Y0056505D02*
X0114156Y0055653D01*
X0114582Y0055653D01*
X0113730Y0054638D02*
X0112027Y0054638D01*
X0113304Y0054638D02*
X0113304Y0052935D01*
X0113730Y0052935D02*
X0114582Y0053786D01*
X0113730Y0054638D01*
X0113730Y0052935D02*
X0112027Y0052935D01*
X0112027Y0051919D02*
X0112027Y0050216D01*
X0114582Y0050216D01*
X0109857Y0052935D02*
X0107302Y0052935D01*
X0114156Y0057357D02*
X0114582Y0057357D01*
D12*
X0088598Y0068520D03*
X0088598Y0073638D03*
X0083480Y0073638D03*
X0083480Y0068520D03*
X0078362Y0068520D03*
X0078362Y0073638D03*
X0078362Y0078756D03*
X0083480Y0078756D03*
X0088598Y0078756D03*
X0073244Y0078756D03*
X0068126Y0078756D03*
X0063008Y0078756D03*
X0063008Y0073638D03*
X0063008Y0068520D03*
X0068126Y0068520D03*
X0068126Y0073638D03*
X0073244Y0073638D03*
X0073244Y0068520D03*
X0057890Y0068520D03*
X0057890Y0073638D03*
X0057890Y0078756D03*
D13*
X0052181Y0117732D03*
X0065961Y0117732D03*
X0079740Y0117732D03*
X0093520Y0117732D03*
X0107299Y0117732D03*
X0038402Y0117732D03*
X0024622Y0117732D03*
X0010843Y0117732D03*
D14*
X0015789Y0121972D02*
X0019675Y0121972D01*
X0019115Y0121412D02*
X0018126Y0119024D01*
X0018126Y0116440D01*
X0019115Y0114053D01*
X0020942Y0112225D01*
X0023330Y0111236D01*
X0025914Y0111236D01*
X0028302Y0112225D01*
X0030129Y0114053D01*
X0031118Y0116440D01*
X0031118Y0119024D01*
X0030129Y0121412D01*
X0028302Y0123239D01*
X0025914Y0124228D01*
X0023330Y0124228D01*
X0020942Y0123239D01*
X0019115Y0121412D01*
X0018532Y0120005D02*
X0016932Y0120005D01*
X0017339Y0119024D02*
X0016350Y0121412D01*
X0014522Y0123239D01*
X0012135Y0124228D01*
X0009550Y0124228D01*
X0007163Y0123239D01*
X0005335Y0121412D01*
X0004543Y0119500D01*
X0004543Y0129740D01*
X0113598Y0129740D01*
X0113598Y0119500D01*
X0112806Y0121412D01*
X0110979Y0123239D01*
X0108591Y0124228D01*
X0106007Y0124228D01*
X0103619Y0123239D01*
X0101792Y0121412D01*
X0100803Y0119024D01*
X0100803Y0116440D01*
X0101792Y0114053D01*
X0103619Y0112225D01*
X0106007Y0111236D01*
X0108591Y0111236D01*
X0110979Y0112225D01*
X0112806Y0114053D01*
X0113598Y0115965D01*
X0113598Y0105134D01*
X0102378Y0105134D01*
X0102378Y0024152D01*
X0101568Y0023342D01*
X0101118Y0022257D01*
X0101118Y0004937D01*
X0032709Y0004937D01*
X0032709Y0005920D01*
X0032151Y0007269D01*
X0032501Y0007619D01*
X0033103Y0009072D01*
X0033103Y0010645D01*
X0032501Y0012098D01*
X0032381Y0012217D01*
X0032709Y0013009D01*
X0032709Y0014582D01*
X0032381Y0015373D01*
X0032501Y0015493D01*
X0033103Y0016946D01*
X0033103Y0018519D01*
X0032501Y0019972D01*
X0032381Y0020091D01*
X0032709Y0020883D01*
X0032709Y0022456D01*
X0032107Y0023909D01*
X0030995Y0025021D01*
X0029542Y0025622D01*
X0027970Y0025622D01*
X0026517Y0025021D01*
X0025405Y0023909D01*
X0024803Y0022456D01*
X0024803Y0020883D01*
X0025405Y0019430D01*
X0025524Y0019310D01*
X0025196Y0018519D01*
X0025196Y0016946D01*
X0025524Y0016154D01*
X0025405Y0016035D01*
X0024803Y0014582D01*
X0024803Y0013009D01*
X0025405Y0011556D01*
X0025524Y0011436D01*
X0025196Y0010645D01*
X0025196Y0009072D01*
X0025755Y0007724D01*
X0025405Y0007373D01*
X0024803Y0005920D01*
X0024803Y0004937D01*
X0021603Y0004937D01*
X0021685Y0005135D01*
X0021685Y0006708D01*
X0021084Y0008161D01*
X0020961Y0008283D01*
X0021871Y0009194D01*
X0022473Y0010647D01*
X0022473Y0012219D01*
X0021871Y0013672D01*
X0021354Y0014189D01*
X0021871Y0014706D01*
X0022473Y0016159D01*
X0022473Y0017731D01*
X0021871Y0019184D01*
X0021242Y0019813D01*
X0021685Y0020883D01*
X0021685Y0022456D01*
X0021084Y0023909D01*
X0019972Y0025021D01*
X0018519Y0025622D01*
X0016946Y0025622D01*
X0015764Y0025133D01*
X0015764Y0105921D01*
X0004543Y0105921D01*
X0004543Y0115965D01*
X0005335Y0114053D01*
X0007163Y0112225D01*
X0009550Y0111236D01*
X0012135Y0111236D01*
X0014522Y0112225D01*
X0016350Y0114053D01*
X0017339Y0116440D01*
X0017339Y0119024D01*
X0017339Y0118038D02*
X0018126Y0118038D01*
X0018279Y0116071D02*
X0017186Y0116071D01*
X0016371Y0114104D02*
X0019094Y0114104D01*
X0021155Y0112137D02*
X0014310Y0112137D01*
X0007375Y0112137D02*
X0004543Y0112137D01*
X0004543Y0110170D02*
X0113598Y0110170D01*
X0113598Y0112137D02*
X0110766Y0112137D01*
X0112828Y0114104D02*
X0113598Y0114104D01*
X0113598Y0120005D02*
X0113389Y0120005D01*
X0113598Y0121972D02*
X0112246Y0121972D01*
X0113598Y0123939D02*
X0109289Y0123939D01*
X0105309Y0123939D02*
X0095510Y0123939D01*
X0094812Y0124228D02*
X0092228Y0124228D01*
X0089840Y0123239D01*
X0088013Y0121412D01*
X0087024Y0119024D01*
X0087024Y0116440D01*
X0088013Y0114053D01*
X0089840Y0112225D01*
X0092228Y0111236D01*
X0094812Y0111236D01*
X0097199Y0112225D01*
X0099027Y0114053D01*
X0100016Y0116440D01*
X0100016Y0119024D01*
X0099027Y0121412D01*
X0097199Y0123239D01*
X0094812Y0124228D01*
X0091529Y0123939D02*
X0081730Y0123939D01*
X0081032Y0124228D02*
X0078448Y0124228D01*
X0076060Y0123239D01*
X0074233Y0121412D01*
X0073244Y0119024D01*
X0073244Y0116440D01*
X0074233Y0114053D01*
X0076060Y0112225D01*
X0078448Y0111236D01*
X0081032Y0111236D01*
X0083420Y0112225D01*
X0085247Y0114053D01*
X0086236Y0116440D01*
X0086236Y0119024D01*
X0085247Y0121412D01*
X0083420Y0123239D01*
X0081032Y0124228D01*
X0077750Y0123939D02*
X0067951Y0123939D01*
X0067253Y0124228D02*
X0064668Y0124228D01*
X0062281Y0123239D01*
X0060454Y0121412D01*
X0059465Y0119024D01*
X0059465Y0116440D01*
X0060454Y0114053D01*
X0062281Y0112225D01*
X0064668Y0111236D01*
X0067253Y0111236D01*
X0069640Y0112225D01*
X0071468Y0114053D01*
X0072457Y0116440D01*
X0072457Y0119024D01*
X0071468Y0121412D01*
X0069640Y0123239D01*
X0067253Y0124228D01*
X0063970Y0123939D02*
X0040392Y0123939D01*
X0039694Y0124228D02*
X0037109Y0124228D01*
X0034722Y0123239D01*
X0032894Y0121412D01*
X0031906Y0119024D01*
X0031906Y0116440D01*
X0032894Y0114053D01*
X0034722Y0112225D01*
X0037109Y0111236D01*
X0039694Y0111236D01*
X0042081Y0112225D01*
X0043909Y0114053D01*
X0044898Y0116440D01*
X0044898Y0119024D01*
X0043909Y0121412D01*
X0042081Y0123239D01*
X0039694Y0124228D01*
X0036411Y0123939D02*
X0026612Y0123939D01*
X0029569Y0121972D02*
X0033455Y0121972D01*
X0032312Y0120005D02*
X0030712Y0120005D01*
X0031118Y0118038D02*
X0031906Y0118038D01*
X0032058Y0116071D02*
X0030965Y0116071D01*
X0030150Y0114104D02*
X0032873Y0114104D01*
X0034934Y0112137D02*
X0028089Y0112137D01*
X0026036Y0099825D02*
X0024389Y0099825D01*
X0022867Y0099195D01*
X0021703Y0098030D01*
X0021072Y0096509D01*
X0021072Y0094862D01*
X0021703Y0093340D01*
X0022867Y0092175D01*
X0022948Y0092142D01*
X0022867Y0092108D01*
X0021703Y0090944D01*
X0021072Y0089422D01*
X0021072Y0087775D01*
X0021703Y0086253D01*
X0022867Y0085089D01*
X0023899Y0084661D01*
X0022867Y0084234D01*
X0021703Y0083070D01*
X0021072Y0081548D01*
X0021072Y0079901D01*
X0021703Y0078379D01*
X0022867Y0077215D01*
X0024389Y0076584D01*
X0025472Y0076584D01*
X0024548Y0076202D01*
X0023436Y0075090D01*
X0022834Y0073637D01*
X0022834Y0072064D01*
X0023436Y0070611D01*
X0024548Y0069499D01*
X0026001Y0068897D01*
X0027574Y0068897D01*
X0029027Y0069499D01*
X0030139Y0070611D01*
X0030741Y0072064D01*
X0030741Y0073637D01*
X0030139Y0075090D01*
X0029027Y0076202D01*
X0027574Y0076804D01*
X0026565Y0076804D01*
X0027558Y0077215D01*
X0028362Y0078019D01*
X0029167Y0077215D01*
X0030688Y0076584D01*
X0032335Y0076584D01*
X0033857Y0077215D01*
X0034661Y0078019D01*
X0035466Y0077215D01*
X0036987Y0076584D01*
X0038635Y0076584D01*
X0040156Y0077215D01*
X0041321Y0078379D01*
X0041951Y0079901D01*
X0041951Y0081548D01*
X0041321Y0083070D01*
X0040156Y0084234D01*
X0039125Y0084661D01*
X0040156Y0085089D01*
X0041321Y0086253D01*
X0041951Y0087775D01*
X0041951Y0089422D01*
X0041321Y0090944D01*
X0040156Y0092108D01*
X0040075Y0092142D01*
X0040156Y0092175D01*
X0041321Y0093340D01*
X0041951Y0094862D01*
X0041951Y0096509D01*
X0041321Y0098030D01*
X0040156Y0099195D01*
X0038635Y0099825D01*
X0036987Y0099825D01*
X0035466Y0099195D01*
X0034661Y0098390D01*
X0033857Y0099195D01*
X0032335Y0099825D01*
X0030688Y0099825D01*
X0029167Y0099195D01*
X0028362Y0098390D01*
X0027558Y0099195D01*
X0026036Y0099825D01*
X0022041Y0098368D02*
X0015764Y0098368D01*
X0015764Y0096401D02*
X0021072Y0096401D01*
X0021250Y0094434D02*
X0015764Y0094434D01*
X0015764Y0092467D02*
X0022576Y0092467D01*
X0021519Y0090500D02*
X0015764Y0090500D01*
X0015764Y0088533D02*
X0021072Y0088533D01*
X0021573Y0086566D02*
X0015764Y0086566D01*
X0015764Y0084599D02*
X0023748Y0084599D01*
X0021521Y0082632D02*
X0015764Y0082632D01*
X0015764Y0080665D02*
X0021072Y0080665D01*
X0021571Y0078698D02*
X0015764Y0078698D01*
X0015764Y0076731D02*
X0024035Y0076731D01*
X0023301Y0074764D02*
X0015764Y0074764D01*
X0015764Y0072797D02*
X0022834Y0072797D01*
X0023345Y0070830D02*
X0015764Y0070830D01*
X0015764Y0068863D02*
X0053648Y0068863D01*
X0053648Y0069363D02*
X0053648Y0067676D01*
X0054294Y0066117D01*
X0055487Y0064924D01*
X0057046Y0064278D01*
X0058733Y0064278D01*
X0060293Y0064924D01*
X0060449Y0065080D01*
X0060605Y0064924D01*
X0062164Y0064278D01*
X0063852Y0064278D01*
X0064762Y0064655D01*
X0064728Y0064621D01*
X0059396Y0059289D01*
X0058406Y0058879D01*
X0057294Y0057767D01*
X0056693Y0056314D01*
X0056693Y0054741D01*
X0057294Y0053288D01*
X0058406Y0052176D01*
X0059842Y0051582D01*
X0059842Y0050804D01*
X0060444Y0049351D01*
X0061556Y0048239D01*
X0063009Y0047637D01*
X0064582Y0047637D01*
X0066035Y0048239D01*
X0067147Y0049351D01*
X0067748Y0050804D01*
X0067748Y0052377D01*
X0067147Y0053830D01*
X0066035Y0054942D01*
X0065353Y0055224D01*
X0069200Y0059071D01*
X0074505Y0059071D01*
X0074015Y0057889D01*
X0074015Y0056316D01*
X0074617Y0054863D01*
X0075729Y0053751D01*
X0077182Y0053149D01*
X0078755Y0053149D01*
X0079825Y0053592D01*
X0080454Y0052964D01*
X0081907Y0052362D01*
X0083479Y0052362D01*
X0084932Y0052964D01*
X0085561Y0053592D01*
X0086631Y0053149D01*
X0088204Y0053149D01*
X0089657Y0053751D01*
X0090769Y0054863D01*
X0091370Y0056316D01*
X0091370Y0057889D01*
X0090823Y0059211D01*
X0091787Y0059610D01*
X0092783Y0060607D01*
X0095933Y0063757D01*
X0096472Y0065059D01*
X0096472Y0086154D01*
X0095933Y0087456D01*
X0094936Y0088453D01*
X0093323Y0090066D01*
X0093323Y0095045D01*
X0093718Y0094881D01*
X0095290Y0094881D01*
X0096743Y0095483D01*
X0097855Y0096595D01*
X0098457Y0098048D01*
X0098457Y0099621D01*
X0097855Y0101074D01*
X0097457Y0101472D01*
X0097670Y0101985D01*
X0097670Y0103558D01*
X0097068Y0105011D01*
X0095956Y0106123D01*
X0094503Y0106725D01*
X0092930Y0106725D01*
X0091477Y0106123D01*
X0090365Y0105011D01*
X0089955Y0104021D01*
X0087772Y0101839D01*
X0086776Y0100842D01*
X0086236Y0099539D01*
X0086236Y0087894D01*
X0086776Y0086591D01*
X0087772Y0085595D01*
X0087772Y0085595D01*
X0089386Y0083981D01*
X0089386Y0082998D01*
X0087755Y0082998D01*
X0086196Y0082352D01*
X0086039Y0082196D01*
X0085883Y0082352D01*
X0084324Y0082998D01*
X0082637Y0082998D01*
X0081078Y0082352D01*
X0080921Y0082196D01*
X0080765Y0082352D01*
X0079206Y0082998D01*
X0077518Y0082998D01*
X0075959Y0082352D01*
X0075803Y0082196D01*
X0075647Y0082352D01*
X0074088Y0082998D01*
X0072400Y0082998D01*
X0070841Y0082352D01*
X0070685Y0082196D01*
X0070529Y0082352D01*
X0068970Y0082998D01*
X0067282Y0082998D01*
X0065723Y0082352D01*
X0065567Y0082196D01*
X0065411Y0082352D01*
X0063852Y0082998D01*
X0062164Y0082998D01*
X0060605Y0082352D01*
X0060449Y0082196D01*
X0060293Y0082352D01*
X0058733Y0082998D01*
X0057046Y0082998D01*
X0055487Y0082352D01*
X0054294Y0081159D01*
X0053648Y0079600D01*
X0053648Y0077912D01*
X0054294Y0076353D01*
X0054450Y0076197D01*
X0054294Y0076041D01*
X0053648Y0074482D01*
X0053648Y0072794D01*
X0054294Y0071235D01*
X0054450Y0071079D01*
X0054294Y0070922D01*
X0053648Y0069363D01*
X0054255Y0070830D02*
X0030229Y0070830D01*
X0030741Y0072797D02*
X0053648Y0072797D01*
X0053765Y0074764D02*
X0030274Y0074764D01*
X0030334Y0076731D02*
X0027749Y0076731D01*
X0032689Y0076731D02*
X0036634Y0076731D01*
X0038988Y0076731D02*
X0054137Y0076731D01*
X0053648Y0078698D02*
X0041453Y0078698D01*
X0041951Y0080665D02*
X0054089Y0080665D01*
X0056163Y0082632D02*
X0041502Y0082632D01*
X0039276Y0084599D02*
X0088768Y0084599D01*
X0086872Y0082632D02*
X0085207Y0082632D01*
X0081754Y0082632D02*
X0080089Y0082632D01*
X0076635Y0082632D02*
X0074971Y0082632D01*
X0071517Y0082632D02*
X0069853Y0082632D01*
X0066399Y0082632D02*
X0064735Y0082632D01*
X0061281Y0082632D02*
X0059616Y0082632D01*
X0057138Y0087214D02*
X0055491Y0087214D01*
X0053970Y0087844D01*
X0052805Y0089009D01*
X0052175Y0090531D01*
X0052175Y0092178D01*
X0052805Y0093700D01*
X0053970Y0094864D01*
X0055491Y0095494D01*
X0057138Y0095494D01*
X0058660Y0094864D01*
X0059825Y0093700D01*
X0060455Y0092178D01*
X0060455Y0090531D01*
X0059825Y0089009D01*
X0058660Y0087844D01*
X0057138Y0087214D01*
X0059349Y0088533D02*
X0086236Y0088533D01*
X0086236Y0090500D02*
X0060442Y0090500D01*
X0060335Y0092467D02*
X0086236Y0092467D01*
X0086236Y0094434D02*
X0059090Y0094434D01*
X0058584Y0099524D02*
X0056956Y0100198D01*
X0055710Y0101444D01*
X0055035Y0103072D01*
X0055035Y0104834D01*
X0055710Y0106462D01*
X0056956Y0107708D01*
X0058584Y0108382D01*
X0060346Y0108382D01*
X0061973Y0107708D01*
X0063219Y0106462D01*
X0063894Y0104834D01*
X0063894Y0103072D01*
X0063219Y0101444D01*
X0061973Y0100198D01*
X0060346Y0099524D01*
X0058584Y0099524D01*
X0056819Y0100335D02*
X0015764Y0100335D01*
X0015764Y0102302D02*
X0055354Y0102302D01*
X0055035Y0104269D02*
X0015764Y0104269D01*
X0005314Y0114104D02*
X0004543Y0114104D01*
X0004543Y0120005D02*
X0004753Y0120005D01*
X0004543Y0121972D02*
X0005896Y0121972D01*
X0004543Y0123939D02*
X0008852Y0123939D01*
X0012833Y0123939D02*
X0022632Y0123939D01*
X0004543Y0125906D02*
X0113598Y0125906D01*
X0113598Y0127873D02*
X0004543Y0127873D01*
X0004543Y0108203D02*
X0058152Y0108203D01*
X0060777Y0108203D02*
X0113598Y0108203D01*
X0113598Y0106236D02*
X0095683Y0106236D01*
X0097375Y0104269D02*
X0102378Y0104269D01*
X0102378Y0102302D02*
X0097670Y0102302D01*
X0098161Y0100335D02*
X0102378Y0100335D01*
X0102378Y0098368D02*
X0098457Y0098368D01*
X0097661Y0096401D02*
X0102378Y0096401D01*
X0102378Y0094434D02*
X0093323Y0094434D01*
X0093323Y0092467D02*
X0102378Y0092467D01*
X0102378Y0090500D02*
X0093323Y0090500D01*
X0094856Y0088533D02*
X0102378Y0088533D01*
X0102378Y0086566D02*
X0096302Y0086566D01*
X0096472Y0084599D02*
X0102378Y0084599D01*
X0102378Y0082632D02*
X0096472Y0082632D01*
X0096472Y0080665D02*
X0102378Y0080665D01*
X0102378Y0078698D02*
X0096472Y0078698D01*
X0096472Y0076731D02*
X0102378Y0076731D01*
X0102378Y0074764D02*
X0096472Y0074764D01*
X0096472Y0072797D02*
X0102378Y0072797D01*
X0102378Y0070830D02*
X0096472Y0070830D01*
X0096472Y0068863D02*
X0102378Y0068863D01*
X0102378Y0066896D02*
X0096472Y0066896D01*
X0096418Y0064929D02*
X0102378Y0064929D01*
X0102378Y0062962D02*
X0095138Y0062962D01*
X0093171Y0060995D02*
X0102378Y0060995D01*
X0102378Y0059028D02*
X0090899Y0059028D01*
X0091370Y0057061D02*
X0102378Y0057061D01*
X0102378Y0055094D02*
X0090864Y0055094D01*
X0092783Y0060607D02*
X0092783Y0060607D01*
X0085095Y0053127D02*
X0102378Y0053127D01*
X0102378Y0051160D02*
X0067748Y0051160D01*
X0067438Y0053127D02*
X0080291Y0053127D01*
X0074522Y0055094D02*
X0065668Y0055094D01*
X0067190Y0057061D02*
X0074015Y0057061D01*
X0074487Y0059028D02*
X0069157Y0059028D01*
X0063069Y0062962D02*
X0015764Y0062962D01*
X0015764Y0064929D02*
X0055482Y0064929D01*
X0053971Y0066896D02*
X0015764Y0066896D01*
X0015764Y0060995D02*
X0061102Y0060995D01*
X0058766Y0059028D02*
X0031817Y0059028D01*
X0032176Y0058879D02*
X0030723Y0059481D01*
X0029151Y0059481D01*
X0027698Y0058879D01*
X0026586Y0057767D01*
X0025984Y0056314D01*
X0025984Y0054749D01*
X0024548Y0054154D01*
X0023436Y0053042D01*
X0022834Y0051589D01*
X0022834Y0050017D01*
X0023436Y0048564D01*
X0024346Y0047654D01*
X0024223Y0047531D01*
X0023622Y0046078D01*
X0023622Y0044567D01*
X0022649Y0043594D01*
X0022047Y0042141D01*
X0022047Y0040568D01*
X0022649Y0039115D01*
X0023761Y0038003D01*
X0025214Y0037401D01*
X0026786Y0037401D01*
X0028239Y0038003D01*
X0029351Y0039115D01*
X0029953Y0040568D01*
X0029953Y0041748D01*
X0030044Y0041748D01*
X0031906Y0039887D01*
X0031906Y0031988D01*
X0032445Y0030686D01*
X0033442Y0029689D01*
X0038166Y0024965D01*
X0039468Y0024425D01*
X0051304Y0024425D01*
X0064938Y0010791D01*
X0066240Y0010252D01*
X0077374Y0010252D01*
X0078363Y0009842D01*
X0079936Y0009842D01*
X0081389Y0010444D01*
X0082501Y0011556D01*
X0083103Y0013009D01*
X0083103Y0014582D01*
X0082501Y0016035D01*
X0082378Y0016157D01*
X0082501Y0016280D01*
X0083103Y0017733D01*
X0083103Y0019306D01*
X0082501Y0020759D01*
X0081389Y0021871D01*
X0079936Y0022473D01*
X0078363Y0022473D01*
X0076910Y0021871D01*
X0075798Y0020759D01*
X0075196Y0019306D01*
X0075196Y0017733D01*
X0075360Y0017339D01*
X0068413Y0017339D01*
X0062204Y0023548D01*
X0062885Y0023830D01*
X0063008Y0023953D01*
X0063131Y0023830D01*
X0064584Y0023228D01*
X0066156Y0023228D01*
X0067609Y0023830D01*
X0068721Y0024942D01*
X0069323Y0026395D01*
X0069323Y0027967D01*
X0068721Y0029420D01*
X0067609Y0030532D01*
X0066156Y0031134D01*
X0064584Y0031134D01*
X0063131Y0030532D01*
X0063008Y0030409D01*
X0062885Y0030532D01*
X0061432Y0031134D01*
X0059859Y0031134D01*
X0058406Y0030532D01*
X0057294Y0029420D01*
X0057012Y0028739D01*
X0055776Y0029976D01*
X0054779Y0030972D01*
X0053476Y0031512D01*
X0041641Y0031512D01*
X0038992Y0034161D01*
X0038992Y0042059D01*
X0038453Y0043361D01*
X0033519Y0048295D01*
X0032217Y0048835D01*
X0030251Y0048835D01*
X0030741Y0050017D01*
X0030741Y0051582D01*
X0032176Y0052176D01*
X0033288Y0053288D01*
X0033890Y0054741D01*
X0033890Y0056314D01*
X0033288Y0057767D01*
X0032176Y0058879D01*
X0033581Y0057061D02*
X0057002Y0057061D01*
X0056693Y0055094D02*
X0033890Y0055094D01*
X0033127Y0053127D02*
X0040843Y0053127D01*
X0040759Y0053042D02*
X0040157Y0051589D01*
X0040157Y0050017D01*
X0040759Y0048564D01*
X0041871Y0047452D01*
X0042728Y0047097D01*
X0042658Y0047068D01*
X0041546Y0045956D01*
X0040944Y0044503D01*
X0040944Y0042930D01*
X0041546Y0041477D01*
X0042658Y0040365D01*
X0044111Y0039763D01*
X0045684Y0039763D01*
X0046673Y0040173D01*
X0085162Y0040173D01*
X0090743Y0034593D01*
X0091153Y0033603D01*
X0092265Y0032491D01*
X0093718Y0031889D01*
X0095290Y0031889D01*
X0096743Y0032491D01*
X0097855Y0033603D01*
X0098457Y0035056D01*
X0098457Y0036629D01*
X0097855Y0038082D01*
X0096743Y0039194D01*
X0095754Y0039604D01*
X0089634Y0045724D01*
X0088637Y0046720D01*
X0087335Y0047260D01*
X0046673Y0047260D01*
X0046280Y0047423D01*
X0046350Y0047452D01*
X0047462Y0048564D01*
X0048063Y0050017D01*
X0048063Y0051589D01*
X0047462Y0053042D01*
X0046350Y0054154D01*
X0044897Y0054756D01*
X0043324Y0054756D01*
X0041871Y0054154D01*
X0040759Y0053042D01*
X0040157Y0051160D02*
X0030741Y0051160D01*
X0030399Y0049193D02*
X0040498Y0049193D01*
X0042417Y0047226D02*
X0034589Y0047226D01*
X0036556Y0045259D02*
X0041258Y0045259D01*
X0040944Y0043292D02*
X0038482Y0043292D01*
X0038992Y0041325D02*
X0041699Y0041325D01*
X0038992Y0039358D02*
X0085978Y0039358D01*
X0087945Y0037391D02*
X0038992Y0037391D01*
X0038992Y0035424D02*
X0074557Y0035424D01*
X0074154Y0035257D02*
X0075607Y0035859D01*
X0077180Y0035859D01*
X0078633Y0035257D01*
X0079745Y0034145D01*
X0080347Y0032692D01*
X0080347Y0031119D01*
X0079745Y0029666D01*
X0078633Y0028554D01*
X0077180Y0027952D01*
X0075607Y0027952D01*
X0074154Y0028554D01*
X0073042Y0029666D01*
X0072441Y0031119D01*
X0072441Y0032692D01*
X0073042Y0034145D01*
X0074154Y0035257D01*
X0072757Y0033456D02*
X0039696Y0033456D01*
X0035575Y0027555D02*
X0015764Y0027555D01*
X0015764Y0025588D02*
X0016864Y0025588D01*
X0018601Y0025588D02*
X0027887Y0025588D01*
X0029624Y0025588D02*
X0037542Y0025588D01*
X0033608Y0029522D02*
X0015764Y0029522D01*
X0015764Y0031489D02*
X0032112Y0031489D01*
X0031906Y0033456D02*
X0015764Y0033456D01*
X0015764Y0035424D02*
X0031906Y0035424D01*
X0031906Y0037391D02*
X0015764Y0037391D01*
X0015764Y0039358D02*
X0022548Y0039358D01*
X0022047Y0041325D02*
X0015764Y0041325D01*
X0015764Y0043292D02*
X0022524Y0043292D01*
X0023622Y0045259D02*
X0015764Y0045259D01*
X0015764Y0047226D02*
X0024097Y0047226D01*
X0023176Y0049193D02*
X0015764Y0049193D01*
X0015764Y0051160D02*
X0022834Y0051160D01*
X0023520Y0053127D02*
X0015764Y0053127D01*
X0015764Y0055094D02*
X0025984Y0055094D01*
X0026293Y0057061D02*
X0015764Y0057061D01*
X0015764Y0059028D02*
X0028057Y0059028D01*
X0029953Y0041325D02*
X0030468Y0041325D01*
X0029452Y0039358D02*
X0031906Y0039358D01*
X0032226Y0023621D02*
X0052108Y0023621D01*
X0054075Y0021654D02*
X0032709Y0021654D01*
X0032619Y0019687D02*
X0056042Y0019687D01*
X0058009Y0017720D02*
X0033103Y0017720D01*
X0032609Y0015753D02*
X0059976Y0015753D01*
X0061943Y0013786D02*
X0032709Y0013786D01*
X0032616Y0011819D02*
X0063910Y0011819D01*
X0068031Y0017720D02*
X0075202Y0017720D01*
X0075354Y0019687D02*
X0066064Y0019687D01*
X0064097Y0021654D02*
X0076694Y0021654D01*
X0081605Y0021654D02*
X0101118Y0021654D01*
X0101847Y0023621D02*
X0067106Y0023621D01*
X0068989Y0025588D02*
X0102378Y0025588D01*
X0102378Y0027555D02*
X0069323Y0027555D01*
X0068619Y0029522D02*
X0073186Y0029522D01*
X0072441Y0031489D02*
X0053530Y0031489D01*
X0056229Y0029522D02*
X0057396Y0029522D01*
X0062382Y0023621D02*
X0063634Y0023621D01*
X0078231Y0035424D02*
X0089912Y0035424D01*
X0091299Y0033456D02*
X0080030Y0033456D01*
X0080347Y0031489D02*
X0102378Y0031489D01*
X0102378Y0029522D02*
X0079601Y0029522D01*
X0082945Y0019687D02*
X0101118Y0019687D01*
X0101118Y0017720D02*
X0083097Y0017720D01*
X0082617Y0015753D02*
X0101118Y0015753D01*
X0101118Y0013786D02*
X0083103Y0013786D01*
X0082610Y0011819D02*
X0101118Y0011819D01*
X0101118Y0009852D02*
X0079961Y0009852D01*
X0078339Y0009852D02*
X0033103Y0009852D01*
X0032611Y0007885D02*
X0101118Y0007885D01*
X0101118Y0005918D02*
X0032709Y0005918D01*
X0025688Y0007885D02*
X0021198Y0007885D01*
X0021685Y0005918D02*
X0024803Y0005918D01*
X0025196Y0009852D02*
X0022144Y0009852D01*
X0022473Y0011819D02*
X0025296Y0011819D01*
X0024803Y0013786D02*
X0021757Y0013786D01*
X0022305Y0015753D02*
X0025288Y0015753D01*
X0025196Y0017720D02*
X0022473Y0017720D01*
X0021368Y0019687D02*
X0025298Y0019687D01*
X0024803Y0021654D02*
X0021685Y0021654D01*
X0021203Y0023621D02*
X0025286Y0023621D01*
X0047722Y0049193D02*
X0060603Y0049193D01*
X0059842Y0051160D02*
X0048063Y0051160D01*
X0047377Y0053127D02*
X0057456Y0053127D01*
X0066988Y0049193D02*
X0102378Y0049193D01*
X0102378Y0047226D02*
X0087417Y0047226D01*
X0090099Y0045259D02*
X0102378Y0045259D01*
X0102378Y0043292D02*
X0092066Y0043292D01*
X0094033Y0041325D02*
X0102378Y0041325D01*
X0102378Y0039358D02*
X0096348Y0039358D01*
X0098142Y0037391D02*
X0102378Y0037391D01*
X0102378Y0035424D02*
X0098457Y0035424D01*
X0097709Y0033456D02*
X0102378Y0033456D01*
X0060600Y0064929D02*
X0060298Y0064929D01*
X0041450Y0086566D02*
X0086801Y0086566D01*
X0094936Y0088453D02*
X0094936Y0088453D01*
X0086236Y0096401D02*
X0041951Y0096401D01*
X0040983Y0098368D02*
X0086236Y0098368D01*
X0086566Y0100335D02*
X0062111Y0100335D01*
X0063575Y0102302D02*
X0088236Y0102302D01*
X0087772Y0101839D02*
X0087772Y0101839D01*
X0090058Y0104269D02*
X0063894Y0104269D01*
X0063313Y0106236D02*
X0091750Y0106236D01*
X0090053Y0112137D02*
X0083207Y0112137D01*
X0085269Y0114104D02*
X0087991Y0114104D01*
X0087176Y0116071D02*
X0086083Y0116071D01*
X0086236Y0118038D02*
X0087024Y0118038D01*
X0087430Y0120005D02*
X0085830Y0120005D01*
X0084687Y0121972D02*
X0088573Y0121972D01*
X0096987Y0112137D02*
X0103832Y0112137D01*
X0101771Y0114104D02*
X0099048Y0114104D01*
X0099863Y0116071D02*
X0100956Y0116071D01*
X0100803Y0118038D02*
X0100016Y0118038D01*
X0099610Y0120005D02*
X0101209Y0120005D01*
X0102352Y0121972D02*
X0098467Y0121972D01*
X0076273Y0112137D02*
X0069428Y0112137D01*
X0071489Y0114104D02*
X0074212Y0114104D01*
X0073397Y0116071D02*
X0072304Y0116071D01*
X0072457Y0118038D02*
X0073244Y0118038D01*
X0073650Y0120005D02*
X0072050Y0120005D01*
X0070908Y0121972D02*
X0074793Y0121972D01*
X0062494Y0112137D02*
X0041869Y0112137D01*
X0043930Y0114104D02*
X0047992Y0114104D01*
X0047965Y0114131D02*
X0048580Y0113516D01*
X0049284Y0113005D01*
X0050059Y0112610D01*
X0050887Y0112341D01*
X0051746Y0112205D01*
X0051984Y0112205D01*
X0051984Y0117535D01*
X0052378Y0117535D01*
X0052378Y0112205D01*
X0052616Y0112205D01*
X0053475Y0112341D01*
X0054303Y0112610D01*
X0055078Y0113005D01*
X0055782Y0113516D01*
X0056397Y0114131D01*
X0056909Y0114835D01*
X0057304Y0115610D01*
X0057573Y0116438D01*
X0057709Y0117297D01*
X0057709Y0117535D01*
X0052378Y0117535D01*
X0052378Y0117929D01*
X0057709Y0117929D01*
X0057709Y0118167D01*
X0057573Y0119027D01*
X0057304Y0119854D01*
X0056909Y0120629D01*
X0056397Y0121333D01*
X0055782Y0121948D01*
X0055078Y0122460D01*
X0054303Y0122855D01*
X0053475Y0123124D01*
X0052616Y0123260D01*
X0052378Y0123260D01*
X0052378Y0117929D01*
X0051984Y0117929D01*
X0051984Y0117535D01*
X0046654Y0117535D01*
X0046654Y0117297D01*
X0046790Y0116438D01*
X0047059Y0115610D01*
X0047454Y0114835D01*
X0047965Y0114131D01*
X0046909Y0116071D02*
X0044745Y0116071D01*
X0044898Y0118038D02*
X0046654Y0118038D01*
X0046654Y0117929D02*
X0051984Y0117929D01*
X0051984Y0123260D01*
X0051746Y0123260D01*
X0050887Y0123124D01*
X0050059Y0122855D01*
X0049284Y0122460D01*
X0048580Y0121948D01*
X0047965Y0121333D01*
X0047454Y0120629D01*
X0047059Y0119854D01*
X0046790Y0119027D01*
X0046654Y0118167D01*
X0046654Y0117929D01*
X0047135Y0120005D02*
X0044491Y0120005D01*
X0043348Y0121972D02*
X0048613Y0121972D01*
X0051984Y0121972D02*
X0052378Y0121972D01*
X0052378Y0120005D02*
X0051984Y0120005D01*
X0051984Y0118038D02*
X0052378Y0118038D01*
X0052378Y0116071D02*
X0051984Y0116071D01*
X0051984Y0114104D02*
X0052378Y0114104D01*
X0056370Y0114104D02*
X0060432Y0114104D01*
X0059617Y0116071D02*
X0057453Y0116071D01*
X0057709Y0118038D02*
X0059465Y0118038D01*
X0059871Y0120005D02*
X0057227Y0120005D01*
X0055749Y0121972D02*
X0061014Y0121972D01*
X0055616Y0106236D02*
X0004543Y0106236D01*
X0040448Y0092467D02*
X0052295Y0092467D01*
X0053540Y0094434D02*
X0041774Y0094434D01*
X0041505Y0090500D02*
X0052188Y0090500D01*
X0053281Y0088533D02*
X0041951Y0088533D01*
D15*
X0026787Y0072850D03*
X0029937Y0055528D03*
X0026787Y0050803D03*
X0027575Y0045291D03*
X0026000Y0041354D03*
X0028756Y0021669D03*
X0029150Y0017732D03*
X0028756Y0013795D03*
X0029150Y0009858D03*
X0028756Y0005134D03*
X0017732Y0005921D03*
X0018520Y0011433D03*
X0018520Y0016945D03*
X0017732Y0021669D03*
X0044110Y0050803D03*
X0044898Y0043717D03*
X0060646Y0055528D03*
X0063795Y0051591D03*
X0077969Y0057102D03*
X0082693Y0056315D03*
X0087417Y0057102D03*
X0094504Y0035843D03*
X0079150Y0018520D03*
X0079150Y0013795D03*
X0065370Y0027181D03*
X0060646Y0027181D03*
X0049622Y0016945D03*
X0048835Y0013795D03*
X0049622Y0009858D03*
X0048835Y0005921D03*
X0048835Y0020094D03*
X0076394Y0031906D03*
X0082693Y0090961D03*
X0083480Y0093323D03*
X0085843Y0093717D03*
X0094504Y0098835D03*
X0093717Y0102772D03*
X0063008Y0093323D03*
X0063795Y0090961D03*
X0061039Y0091748D03*
X0059465Y0093717D03*
D16*
X0059465Y0103953D03*
X0051984Y0106709D03*
X0098441Y0101197D03*
D17*
X0096079Y0072063D03*
X0056315Y0091354D03*
X0037811Y0088598D03*
X0037811Y0095685D03*
X0031512Y0095685D03*
X0025213Y0095685D03*
X0025213Y0088598D03*
X0031512Y0088598D03*
X0031512Y0080724D03*
X0025213Y0080724D03*
X0037811Y0080724D03*
D18*
X0060646Y0055528D02*
X0067732Y0062614D01*
X0070094Y0062614D01*
X0089780Y0062614D01*
X0092929Y0065764D01*
X0092929Y0085449D01*
X0089780Y0088598D01*
X0089780Y0098835D01*
X0093717Y0102772D01*
X0086630Y0043717D02*
X0044898Y0043717D01*
X0035449Y0041354D02*
X0035449Y0032693D01*
X0040173Y0027969D01*
X0052772Y0027969D01*
X0066945Y0013795D01*
X0079150Y0013795D01*
X0094504Y0035843D02*
X0086630Y0043717D01*
X0035449Y0041354D02*
X0031512Y0045291D01*
X0027575Y0045291D01*
M02*
