G75*
%MOIN*%
%OFA0B0*%
%FSLAX24Y24*%
%IPPOS*%
%LPD*%
%AMOC8*
5,1,8,0,0,1.08239X$1,22.5*
%
%ADD10C,0.0000*%
%ADD11R,0.0500X0.1654*%
%ADD12R,0.0630X0.1181*%
%ADD13R,0.1900X0.2250*%
%ADD14R,0.1102X0.0394*%
%ADD15R,0.0098X0.0610*%
%ADD16C,0.0050*%
%ADD17R,0.0472X0.0315*%
%ADD18R,0.0315X0.0472*%
D10*
X001591Y000198D02*
X001591Y002167D01*
X000343Y002167D01*
X000343Y013269D01*
X011839Y013269D01*
X011839Y002167D01*
X010591Y002167D01*
X010591Y000198D01*
X001591Y000198D01*
D11*
X002591Y001372D03*
X003591Y001372D03*
X004591Y001372D03*
X005591Y001372D03*
X006591Y001372D03*
X007591Y001372D03*
X008591Y001372D03*
X009591Y001372D03*
D12*
X004232Y006163D03*
X002437Y006163D03*
D13*
X003335Y008879D03*
D14*
X003083Y003608D03*
X004933Y003608D03*
D15*
X005820Y006261D03*
X006080Y006261D03*
X006340Y006261D03*
X006600Y006261D03*
X006860Y006261D03*
X007120Y006261D03*
X007380Y006261D03*
X007640Y006261D03*
X007900Y006261D03*
X008160Y006261D03*
X008420Y006261D03*
X008680Y006261D03*
X008940Y006261D03*
X009200Y006261D03*
X009200Y008466D03*
X008940Y008466D03*
X008680Y008466D03*
X008420Y008466D03*
X008160Y008466D03*
X007900Y008466D03*
X007640Y008466D03*
X007380Y008466D03*
X007120Y008466D03*
X006860Y008466D03*
X006600Y008466D03*
X006340Y008466D03*
X006080Y008466D03*
X005820Y008466D03*
D16*
X007213Y007659D02*
X007213Y007069D01*
X007803Y007069D01*
X007803Y007659D01*
X007213Y007659D01*
X007213Y007619D02*
X007803Y007619D01*
X007803Y007570D02*
X007213Y007570D01*
X007213Y007522D02*
X007803Y007522D01*
X007803Y007473D02*
X007213Y007473D01*
X007213Y007425D02*
X007803Y007425D01*
X007803Y007376D02*
X007213Y007376D01*
X007213Y007328D02*
X007803Y007328D01*
X007803Y007279D02*
X007213Y007279D01*
X007213Y007231D02*
X007803Y007231D01*
X007803Y007182D02*
X007213Y007182D01*
X007213Y007134D02*
X007803Y007134D01*
X007803Y007085D02*
X007213Y007085D01*
D17*
X005185Y006025D03*
X005185Y005317D03*
X002311Y004962D03*
X002311Y004254D03*
X009791Y006773D03*
X009791Y007482D03*
X009791Y008033D03*
X009791Y008742D03*
D18*
X010028Y009450D03*
X009319Y009450D03*
X008689Y009844D03*
X007980Y009844D03*
X007035Y009844D03*
X006327Y009844D03*
X005579Y009805D03*
X004870Y009805D03*
M02*
