G75*
%MOIN*%
%OFA0B0*%
%FSLAX25Y25*%
%IPPOS*%
%LPD*%
%AMOC8*
5,1,8,0,0,1.08239X$1,22.5*
%
%ADD10C,0.00000*%
%ADD11C,0.00400*%
%ADD12R,0.05000X0.16535*%
%ADD13R,0.02362X0.03543*%
%ADD14C,0.02578*%
%ADD15R,0.05000X0.02500*%
%ADD16R,0.05906X0.06299*%
%ADD17R,0.04724X0.04724*%
%ADD18R,0.03150X0.04724*%
%ADD19R,0.04724X0.02165*%
%ADD20R,0.04724X0.03150*%
%ADD21R,0.07087X0.07087*%
%ADD22C,0.07087*%
%ADD23C,0.03937*%
%ADD24C,0.02001*%
%ADD25C,0.02953*%
%ADD26C,0.02375*%
%ADD27C,0.01181*%
%ADD28C,0.03937*%
%ADD29C,0.07874*%
%ADD30C,0.01969*%
D10*
X0014071Y0001984D02*
X0014071Y0021669D01*
X0001591Y0021669D01*
X0001591Y0132693D01*
X0116551Y0132693D01*
X0116551Y0021669D01*
X0104071Y0021669D01*
X0104071Y0001984D01*
X0014071Y0001984D01*
D11*
X0107302Y0031318D02*
X0107302Y0032596D01*
X0107728Y0033021D01*
X0108154Y0033021D01*
X0108580Y0032596D01*
X0108580Y0031318D01*
X0109857Y0031318D02*
X0109857Y0032596D01*
X0109431Y0033021D01*
X0109006Y0033021D01*
X0108580Y0032596D01*
X0109431Y0034037D02*
X0107728Y0034037D01*
X0107302Y0034463D01*
X0107302Y0035314D01*
X0107728Y0035740D01*
X0109431Y0035740D01*
X0109857Y0035314D01*
X0109857Y0034463D01*
X0109431Y0034037D01*
X0112027Y0034037D02*
X0113730Y0034037D01*
X0114582Y0034889D01*
X0113730Y0035740D01*
X0112027Y0035740D01*
X0113304Y0035740D02*
X0113304Y0034037D01*
X0112027Y0033021D02*
X0112027Y0031318D01*
X0114582Y0031318D01*
X0109857Y0031318D02*
X0107302Y0031318D01*
X0109857Y0036756D02*
X0109857Y0038459D01*
X0109857Y0037607D02*
X0107302Y0037607D01*
X0107302Y0040326D02*
X0109857Y0040326D01*
X0109857Y0039475D02*
X0109857Y0041178D01*
X0109431Y0042194D02*
X0107728Y0042194D01*
X0107302Y0042619D01*
X0107302Y0043471D01*
X0107728Y0043897D01*
X0109431Y0043897D01*
X0109857Y0043471D01*
X0109857Y0042619D01*
X0109431Y0042194D01*
X0112027Y0042194D02*
X0114582Y0042194D01*
X0114582Y0043471D01*
X0114156Y0043897D01*
X0113304Y0043897D01*
X0112878Y0043471D01*
X0112878Y0042194D01*
X0112878Y0043045D02*
X0112027Y0043897D01*
X0109857Y0044912D02*
X0109006Y0045764D01*
X0109857Y0046616D01*
X0107302Y0046616D01*
X0107302Y0044912D02*
X0109857Y0044912D01*
X0112027Y0041178D02*
X0112027Y0039475D01*
X0114582Y0039475D01*
X0114582Y0041178D01*
X0113304Y0040326D02*
X0113304Y0039475D01*
X0114156Y0038459D02*
X0113304Y0037607D01*
X0112027Y0037607D01*
X0113304Y0037607D02*
X0114156Y0036756D01*
X0114582Y0036756D01*
X0114582Y0038459D02*
X0114156Y0038459D01*
D12*
X0094071Y0013717D03*
X0084071Y0013717D03*
X0074071Y0013717D03*
X0064071Y0013717D03*
X0054071Y0013717D03*
X0044071Y0013717D03*
X0034071Y0013717D03*
X0024071Y0013717D03*
D13*
X0031551Y0040764D03*
X0035291Y0040764D03*
X0039031Y0040764D03*
X0039031Y0049819D03*
X0035291Y0049819D03*
X0031551Y0049819D03*
D14*
X0057890Y0068520D03*
X0057890Y0073638D03*
X0063008Y0073638D03*
X0063008Y0068520D03*
X0068126Y0068520D03*
X0068126Y0073638D03*
X0068126Y0078756D03*
X0073244Y0078756D03*
X0073244Y0073638D03*
X0073244Y0068520D03*
X0078362Y0068520D03*
X0078362Y0073638D03*
X0078362Y0078756D03*
X0083480Y0078756D03*
X0083480Y0073638D03*
X0083480Y0068520D03*
X0088598Y0068520D03*
X0088598Y0073638D03*
X0088598Y0078756D03*
X0063008Y0078756D03*
X0057890Y0078756D03*
D15*
X0074819Y0053507D03*
X0074819Y0049674D03*
X0082693Y0049674D03*
X0082693Y0053507D03*
X0090567Y0053507D03*
X0090567Y0049674D03*
D16*
X0069307Y0087417D03*
D17*
X0065370Y0100508D03*
X0073244Y0100508D03*
D18*
X0082299Y0100803D03*
X0089386Y0100803D03*
X0034268Y0066551D03*
X0034268Y0060252D03*
X0027181Y0060252D03*
X0027181Y0066551D03*
X0030921Y0029543D03*
X0038008Y0029543D03*
X0087024Y0028756D03*
X0094110Y0028756D03*
D19*
X0065764Y0032890D03*
X0065764Y0040370D03*
X0055527Y0040370D03*
X0055527Y0036630D03*
X0055527Y0032890D03*
D20*
X0055921Y0049622D03*
X0055921Y0056709D03*
D21*
X0107299Y0117732D03*
D22*
X0093520Y0117732D03*
X0079740Y0117732D03*
X0065961Y0117732D03*
X0052181Y0117732D03*
X0038402Y0117732D03*
X0024622Y0117732D03*
X0010843Y0117732D03*
D23*
X0007890Y0125606D03*
X0097654Y0042142D03*
D24*
X0094504Y0035843D03*
X0079150Y0018520D03*
X0079150Y0013795D03*
X0065370Y0027181D03*
X0060646Y0027181D03*
X0049622Y0016945D03*
X0048835Y0013795D03*
X0049622Y0009858D03*
X0048835Y0005921D03*
X0048835Y0020094D03*
X0029150Y0017732D03*
X0028756Y0013795D03*
X0029150Y0009858D03*
X0028756Y0005134D03*
X0017732Y0005921D03*
X0018520Y0011433D03*
X0018520Y0016945D03*
X0017732Y0021669D03*
X0028756Y0021669D03*
X0026000Y0041354D03*
X0027575Y0045291D03*
X0026787Y0050803D03*
X0029937Y0055528D03*
X0044110Y0050803D03*
X0044898Y0043717D03*
X0060646Y0055528D03*
X0063795Y0051591D03*
X0077969Y0057102D03*
X0082693Y0056315D03*
X0087417Y0057102D03*
X0076394Y0031906D03*
X0026787Y0072850D03*
X0059465Y0093717D03*
X0061039Y0091748D03*
X0063008Y0093323D03*
X0063795Y0090961D03*
X0082693Y0090961D03*
X0083480Y0093323D03*
X0085843Y0093717D03*
X0094504Y0098835D03*
X0093717Y0102772D03*
D25*
X0098441Y0101197D03*
X0059465Y0103953D03*
X0051984Y0106709D03*
D26*
X0056315Y0091354D03*
X0037811Y0088598D03*
X0037811Y0095685D03*
X0031512Y0095685D03*
X0025213Y0095685D03*
X0025213Y0088598D03*
X0031512Y0088598D03*
X0031512Y0080724D03*
X0025213Y0080724D03*
X0037811Y0080724D03*
X0096079Y0072063D03*
D27*
X0096953Y0069222D02*
X0103165Y0069222D01*
X0103165Y0068043D02*
X0091439Y0068043D01*
X0091478Y0068236D02*
X0091478Y0068520D01*
X0091478Y0068803D01*
X0091367Y0069360D01*
X0091150Y0069884D01*
X0090835Y0070355D01*
X0090434Y0070756D01*
X0089962Y0071071D01*
X0089945Y0071079D01*
X0089962Y0071086D01*
X0090434Y0071401D01*
X0090835Y0071802D01*
X0091150Y0072274D01*
X0091367Y0072798D01*
X0091478Y0073354D01*
X0091478Y0073638D01*
X0091478Y0073921D01*
X0091367Y0074478D01*
X0091150Y0075002D01*
X0090835Y0075473D01*
X0090434Y0075874D01*
X0089962Y0076190D01*
X0089945Y0076197D01*
X0089962Y0076204D01*
X0090434Y0076519D01*
X0090835Y0076920D01*
X0091150Y0077392D01*
X0091367Y0077916D01*
X0091478Y0078472D01*
X0091478Y0078756D01*
X0091478Y0079040D01*
X0091367Y0079596D01*
X0091150Y0080120D01*
X0090835Y0080591D01*
X0090434Y0080993D01*
X0089962Y0081308D01*
X0089438Y0081525D01*
X0088882Y0081635D01*
X0088598Y0081635D01*
X0088315Y0081635D01*
X0087758Y0081525D01*
X0087234Y0081308D01*
X0086763Y0080993D01*
X0086362Y0080591D01*
X0086047Y0080120D01*
X0086039Y0080102D01*
X0086032Y0080120D01*
X0085717Y0080591D01*
X0085316Y0080993D01*
X0084844Y0081308D01*
X0084320Y0081525D01*
X0083764Y0081635D01*
X0083480Y0081635D01*
X0083197Y0081635D01*
X0082640Y0081525D01*
X0082116Y0081308D01*
X0081645Y0080993D01*
X0081244Y0080591D01*
X0080929Y0080120D01*
X0080921Y0080102D01*
X0080914Y0080120D01*
X0080599Y0080591D01*
X0080198Y0080993D01*
X0079726Y0081308D01*
X0079202Y0081525D01*
X0078646Y0081635D01*
X0078362Y0081635D01*
X0078079Y0081635D01*
X0077522Y0081525D01*
X0076998Y0081308D01*
X0076527Y0080993D01*
X0076126Y0080591D01*
X0075810Y0080120D01*
X0075803Y0080102D01*
X0075796Y0080120D01*
X0075481Y0080591D01*
X0075080Y0080993D01*
X0074608Y0081308D01*
X0074084Y0081525D01*
X0073528Y0081635D01*
X0073244Y0081635D01*
X0072960Y0081635D01*
X0072404Y0081525D01*
X0071880Y0081308D01*
X0071409Y0080993D01*
X0071007Y0080591D01*
X0070692Y0080120D01*
X0070685Y0080102D01*
X0070678Y0080120D01*
X0070363Y0080591D01*
X0069962Y0080993D01*
X0069490Y0081308D01*
X0068966Y0081525D01*
X0068410Y0081635D01*
X0068126Y0081635D01*
X0067842Y0081635D01*
X0067286Y0081525D01*
X0066762Y0081308D01*
X0066290Y0080993D01*
X0065889Y0080591D01*
X0065574Y0080120D01*
X0065567Y0080102D01*
X0065560Y0080120D01*
X0065245Y0080591D01*
X0064843Y0080993D01*
X0064372Y0081308D01*
X0063848Y0081525D01*
X0063291Y0081635D01*
X0063008Y0081635D01*
X0063008Y0078756D01*
X0068126Y0078756D01*
X0068126Y0078756D01*
X0068126Y0081635D01*
X0068126Y0078756D01*
X0073244Y0078756D01*
X0073244Y0081635D01*
X0073244Y0078756D01*
X0073244Y0078756D01*
X0073244Y0078756D01*
X0070365Y0078756D01*
X0068126Y0078756D01*
X0068126Y0078756D01*
X0068126Y0078756D01*
X0065246Y0078756D01*
X0063008Y0078756D01*
X0063008Y0078756D01*
X0063008Y0078756D01*
X0063008Y0081635D01*
X0062724Y0081635D01*
X0062168Y0081525D01*
X0061644Y0081308D01*
X0061172Y0080993D01*
X0060771Y0080591D01*
X0060456Y0080120D01*
X0060449Y0080102D01*
X0060442Y0080120D01*
X0060126Y0080591D01*
X0059725Y0080993D01*
X0059254Y0081308D01*
X0058730Y0081525D01*
X0058173Y0081635D01*
X0057890Y0081635D01*
X0057890Y0078756D01*
X0063008Y0078756D01*
X0063008Y0076517D01*
X0063008Y0073638D01*
X0063008Y0073638D01*
X0065887Y0073638D01*
X0068126Y0073638D01*
X0068126Y0073638D01*
X0068126Y0076517D01*
X0068126Y0078756D01*
X0068126Y0078756D01*
X0068126Y0073638D01*
X0071005Y0073638D01*
X0073244Y0073638D01*
X0073244Y0078756D01*
X0078362Y0078756D01*
X0078362Y0078756D01*
X0078362Y0081635D01*
X0078362Y0078756D01*
X0078362Y0078756D01*
X0075483Y0078756D01*
X0073244Y0078756D01*
X0073244Y0078756D01*
X0073244Y0078756D01*
X0073244Y0076517D01*
X0073244Y0073638D01*
X0073244Y0073638D01*
X0073244Y0073638D01*
X0078362Y0073638D01*
X0078362Y0075876D01*
X0078362Y0078756D01*
X0078362Y0078756D01*
X0083480Y0078756D01*
X0083480Y0078756D01*
X0083480Y0081635D01*
X0083480Y0078756D01*
X0083480Y0078756D01*
X0080601Y0078756D01*
X0078362Y0078756D01*
X0078362Y0078756D01*
X0078362Y0073638D01*
X0078362Y0073638D01*
X0078362Y0073638D01*
X0075483Y0073638D01*
X0073244Y0073638D01*
X0073244Y0073638D01*
X0068126Y0073638D01*
X0068126Y0073638D01*
X0068126Y0073638D01*
X0063008Y0073638D01*
X0063008Y0073638D01*
X0063008Y0078756D01*
X0063008Y0078756D01*
X0063008Y0078756D01*
X0060128Y0078756D01*
X0057890Y0078756D01*
X0057890Y0078756D01*
X0057890Y0078756D01*
X0057890Y0076517D01*
X0057890Y0073638D01*
X0060769Y0073638D01*
X0063008Y0073638D01*
X0063008Y0073638D01*
X0063008Y0068520D01*
X0063008Y0068520D01*
X0065246Y0068520D01*
X0068126Y0068520D01*
X0068126Y0068520D01*
X0068126Y0073638D01*
X0068126Y0073638D01*
X0068126Y0071399D01*
X0068126Y0068520D01*
X0071005Y0068520D01*
X0073244Y0068520D01*
X0073244Y0071399D01*
X0073244Y0073638D01*
X0073244Y0073638D01*
X0073244Y0068520D01*
X0073244Y0068520D01*
X0073244Y0068520D01*
X0076124Y0068520D01*
X0078362Y0068520D01*
X0078362Y0071399D01*
X0078362Y0073638D01*
X0081242Y0073638D01*
X0083480Y0073638D01*
X0083480Y0073638D01*
X0083480Y0075876D01*
X0083480Y0078756D01*
X0083480Y0078756D01*
X0083480Y0073638D01*
X0083480Y0073638D01*
X0078362Y0073638D01*
X0078362Y0073638D01*
X0078362Y0073638D01*
X0078362Y0068520D01*
X0078362Y0068520D01*
X0078362Y0068520D01*
X0073244Y0068520D01*
X0073244Y0068520D01*
X0068126Y0068520D01*
X0068126Y0068520D01*
X0068126Y0068520D01*
X0063008Y0068520D01*
X0063008Y0068520D01*
X0063008Y0070758D01*
X0063008Y0073638D01*
X0063008Y0073638D01*
X0057890Y0073638D01*
X0057890Y0073638D01*
X0057890Y0073638D01*
X0057890Y0078756D01*
X0057890Y0078756D01*
X0057890Y0081635D01*
X0057606Y0081635D01*
X0057050Y0081525D01*
X0056526Y0081308D01*
X0056054Y0080993D01*
X0055653Y0080591D01*
X0055338Y0080120D01*
X0055121Y0079596D01*
X0055010Y0079040D01*
X0055010Y0078756D01*
X0057890Y0078756D01*
X0057890Y0078756D01*
X0055010Y0078756D01*
X0055010Y0078472D01*
X0055121Y0077916D01*
X0055338Y0077392D01*
X0055653Y0076920D01*
X0056054Y0076519D01*
X0056526Y0076204D01*
X0056543Y0076197D01*
X0056526Y0076190D01*
X0056054Y0075874D01*
X0055653Y0075473D01*
X0055338Y0075002D01*
X0055121Y0074478D01*
X0055010Y0073921D01*
X0055010Y0073638D01*
X0057890Y0073638D01*
X0057890Y0068520D01*
X0057890Y0068520D01*
X0060769Y0068520D01*
X0063008Y0068520D01*
X0063008Y0068520D01*
X0063008Y0065640D01*
X0063291Y0065640D01*
X0063848Y0065751D01*
X0064372Y0065968D01*
X0064843Y0066283D01*
X0065245Y0066684D01*
X0065560Y0067156D01*
X0065567Y0067173D01*
X0065574Y0067156D01*
X0065889Y0066684D01*
X0066290Y0066283D01*
X0066762Y0065968D01*
X0067286Y0065751D01*
X0067842Y0065640D01*
X0068126Y0065640D01*
X0068410Y0065640D01*
X0068966Y0065751D01*
X0069490Y0065968D01*
X0069962Y0066283D01*
X0070363Y0066684D01*
X0070678Y0067156D01*
X0070685Y0067173D01*
X0070692Y0067156D01*
X0071007Y0066684D01*
X0071409Y0066283D01*
X0071880Y0065968D01*
X0072404Y0065751D01*
X0072960Y0065640D01*
X0073244Y0065640D01*
X0073244Y0068520D01*
X0073244Y0068520D01*
X0073244Y0065640D01*
X0073528Y0065640D01*
X0074084Y0065751D01*
X0074608Y0065968D01*
X0075080Y0066283D01*
X0075481Y0066684D01*
X0075796Y0067156D01*
X0075803Y0067173D01*
X0075810Y0067156D01*
X0076126Y0066684D01*
X0076527Y0066283D01*
X0076998Y0065968D01*
X0077522Y0065751D01*
X0078079Y0065640D01*
X0078362Y0065640D01*
X0078362Y0068520D01*
X0081242Y0068520D01*
X0083480Y0068520D01*
X0083480Y0073638D01*
X0083480Y0073638D01*
X0085719Y0073638D01*
X0088598Y0073638D01*
X0088598Y0073638D01*
X0088598Y0076517D01*
X0088598Y0078756D01*
X0088598Y0078756D01*
X0083480Y0078756D01*
X0083480Y0078756D01*
X0085719Y0078756D01*
X0088598Y0078756D01*
X0088598Y0081635D01*
X0088598Y0078756D01*
X0088598Y0078756D01*
X0088598Y0078756D01*
X0088598Y0073638D01*
X0088598Y0073638D01*
X0083480Y0073638D01*
X0083480Y0073638D01*
X0083480Y0070758D01*
X0083480Y0068520D01*
X0083480Y0068520D01*
X0083480Y0068520D01*
X0078362Y0068520D01*
X0078362Y0068520D01*
X0078362Y0068520D01*
X0078362Y0065640D01*
X0078646Y0065640D01*
X0079202Y0065751D01*
X0079726Y0065968D01*
X0080198Y0066283D01*
X0080599Y0066684D01*
X0080914Y0067156D01*
X0080921Y0067173D01*
X0080929Y0067156D01*
X0081244Y0066684D01*
X0081645Y0066283D01*
X0082116Y0065968D01*
X0082640Y0065751D01*
X0083197Y0065640D01*
X0083480Y0065640D01*
X0083480Y0068520D01*
X0083480Y0068520D01*
X0086360Y0068520D01*
X0088598Y0068520D01*
X0088598Y0068520D01*
X0088598Y0071399D01*
X0088598Y0073638D01*
X0088598Y0073638D01*
X0088599Y0073638D02*
X0091478Y0073638D01*
X0088599Y0073638D01*
X0088599Y0073638D01*
X0088598Y0073638D02*
X0088598Y0068520D01*
X0088598Y0068520D01*
X0083480Y0068520D01*
X0083480Y0068520D01*
X0083480Y0065640D01*
X0083764Y0065640D01*
X0084320Y0065751D01*
X0084844Y0065968D01*
X0085316Y0066283D01*
X0085717Y0066684D01*
X0086032Y0067156D01*
X0086039Y0067173D01*
X0086047Y0067156D01*
X0086362Y0066684D01*
X0086763Y0066283D01*
X0087234Y0065968D01*
X0087758Y0065751D01*
X0088315Y0065640D01*
X0088598Y0065640D01*
X0088598Y0068520D01*
X0088598Y0068520D01*
X0088599Y0068520D02*
X0091478Y0068520D01*
X0088599Y0068520D01*
X0088599Y0068520D01*
X0088598Y0068520D02*
X0088598Y0065640D01*
X0088882Y0065640D01*
X0089438Y0065751D01*
X0089962Y0065968D01*
X0090434Y0066283D01*
X0090835Y0066684D01*
X0091150Y0067156D01*
X0091367Y0067680D01*
X0091478Y0068236D01*
X0092142Y0068043D02*
X0055134Y0068043D01*
X0055049Y0068043D02*
X0037433Y0068043D01*
X0037433Y0069123D02*
X0037433Y0066748D01*
X0034465Y0066748D01*
X0034465Y0066354D01*
X0037433Y0066354D01*
X0037433Y0063980D01*
X0037338Y0063624D01*
X0037614Y0063348D01*
X0037614Y0057156D01*
X0036576Y0056118D01*
X0032693Y0056118D01*
X0032709Y0056079D01*
X0032709Y0054976D01*
X0032287Y0053957D01*
X0031692Y0053362D01*
X0033466Y0053362D01*
X0033701Y0053127D01*
X0033901Y0053181D01*
X0035291Y0053181D01*
X0035291Y0049819D01*
X0035291Y0049819D01*
X0035291Y0049819D01*
X0035291Y0046457D01*
X0033901Y0046457D01*
X0033701Y0046510D01*
X0033466Y0046276D01*
X0030168Y0046276D01*
X0030347Y0045843D01*
X0030347Y0044740D01*
X0030168Y0044307D01*
X0039234Y0044307D01*
X0039622Y0044695D01*
X0041006Y0046079D01*
X0043357Y0046079D01*
X0044346Y0046489D01*
X0045449Y0046489D01*
X0046468Y0046067D01*
X0047248Y0045287D01*
X0047670Y0044268D01*
X0047670Y0043165D01*
X0047248Y0042146D01*
X0046468Y0041367D01*
X0045449Y0040944D01*
X0044346Y0040944D01*
X0043357Y0041354D01*
X0042963Y0041354D01*
X0041984Y0040376D01*
X0041984Y0038258D01*
X0040946Y0037220D01*
X0038593Y0037220D01*
X0038986Y0036827D01*
X0040370Y0035443D01*
X0040370Y0033624D01*
X0041354Y0032639D01*
X0041354Y0026447D01*
X0040370Y0025463D01*
X0040370Y0024628D01*
X0038986Y0023244D01*
X0038343Y0022600D01*
X0038343Y0004715D01*
X0037383Y0003756D01*
X0040573Y0003756D01*
X0039386Y0004943D01*
X0039386Y0022648D01*
X0040770Y0024031D01*
X0046472Y0024031D01*
X0046472Y0039183D01*
X0047856Y0040567D01*
X0050022Y0042732D01*
X0051939Y0042732D01*
X0052431Y0043224D01*
X0058623Y0043224D01*
X0059661Y0042187D01*
X0059661Y0038554D01*
X0059385Y0038277D01*
X0059480Y0037922D01*
X0059480Y0036630D01*
X0055527Y0036630D01*
X0055527Y0036630D01*
X0051574Y0036630D01*
X0051574Y0037604D01*
X0051197Y0037226D01*
X0051197Y0035252D01*
X0051597Y0035252D01*
X0051574Y0035338D01*
X0051574Y0036630D01*
X0055527Y0036630D01*
X0055527Y0036630D01*
X0059480Y0036630D01*
X0059480Y0035338D01*
X0059385Y0034983D01*
X0059661Y0034706D01*
X0059661Y0031073D01*
X0058623Y0030035D01*
X0052431Y0030035D01*
X0051939Y0030528D01*
X0051197Y0030528D01*
X0051197Y0024031D01*
X0056900Y0024031D01*
X0057175Y0023756D01*
X0057305Y0023756D01*
X0058343Y0022718D01*
X0058343Y0004715D01*
X0057383Y0003756D01*
X0060758Y0003756D01*
X0059799Y0004715D01*
X0059799Y0022718D01*
X0060784Y0023702D01*
X0060065Y0024421D01*
X0059075Y0024831D01*
X0058296Y0025611D01*
X0057874Y0026630D01*
X0057874Y0027732D01*
X0058296Y0028751D01*
X0059075Y0029531D01*
X0060094Y0029953D01*
X0061197Y0029953D01*
X0062216Y0029531D01*
X0062996Y0028751D01*
X0063008Y0028722D01*
X0063020Y0028751D01*
X0063800Y0029531D01*
X0064819Y0029953D01*
X0065921Y0029953D01*
X0066940Y0029531D01*
X0067720Y0028751D01*
X0068142Y0027732D01*
X0068142Y0026630D01*
X0067720Y0025611D01*
X0066940Y0024831D01*
X0066433Y0024621D01*
X0066433Y0023756D01*
X0067305Y0023756D01*
X0068343Y0022718D01*
X0068343Y0004715D01*
X0067383Y0003756D01*
X0070758Y0003756D01*
X0069799Y0004715D01*
X0069799Y0022718D01*
X0070837Y0023756D01*
X0071709Y0023756D01*
X0071709Y0030561D01*
X0073634Y0032486D01*
X0074044Y0033476D01*
X0074823Y0034256D01*
X0075842Y0034678D01*
X0076945Y0034678D01*
X0077964Y0034256D01*
X0078744Y0033476D01*
X0079166Y0032457D01*
X0079166Y0031354D01*
X0078744Y0030335D01*
X0077964Y0029555D01*
X0076974Y0029146D01*
X0076433Y0028604D01*
X0076433Y0023756D01*
X0077305Y0023756D01*
X0078343Y0022718D01*
X0078343Y0021186D01*
X0078598Y0021292D01*
X0079701Y0021292D01*
X0079799Y0021251D01*
X0079799Y0022718D01*
X0080837Y0023756D01*
X0087305Y0023756D01*
X0088343Y0022718D01*
X0088343Y0004715D01*
X0087383Y0003756D01*
X0090758Y0003756D01*
X0089799Y0004715D01*
X0089799Y0022718D01*
X0090837Y0023756D01*
X0091709Y0023756D01*
X0091709Y0024715D01*
X0090764Y0025660D01*
X0090764Y0031852D01*
X0091802Y0032890D01*
X0092142Y0032890D01*
X0092142Y0034302D01*
X0091732Y0035291D01*
X0091732Y0036394D01*
X0092154Y0037413D01*
X0092934Y0038193D01*
X0093953Y0038615D01*
X0095055Y0038615D01*
X0096074Y0038193D01*
X0096854Y0037413D01*
X0097276Y0036394D01*
X0097276Y0035291D01*
X0096866Y0034302D01*
X0096866Y0032442D01*
X0097457Y0031852D01*
X0097457Y0025660D01*
X0096433Y0024636D01*
X0096433Y0023756D01*
X0097305Y0023756D01*
X0098343Y0022718D01*
X0098343Y0004715D01*
X0097383Y0003756D01*
X0102299Y0003756D01*
X0102299Y0022403D01*
X0103165Y0023269D01*
X0103165Y0104346D01*
X0114780Y0104346D01*
X0114780Y0130921D01*
X0003362Y0130921D01*
X0003362Y0104346D01*
X0015370Y0104346D01*
X0015370Y0022876D01*
X0015843Y0022403D01*
X0015843Y0003756D01*
X0030758Y0003756D01*
X0029799Y0004715D01*
X0029799Y0022718D01*
X0030837Y0023756D01*
X0032817Y0023756D01*
X0035085Y0026024D01*
X0034661Y0026447D01*
X0034661Y0032639D01*
X0035577Y0033555D01*
X0033913Y0035218D01*
X0033913Y0034903D01*
X0033283Y0034273D01*
X0033283Y0033624D01*
X0034268Y0032639D01*
X0034268Y0026447D01*
X0033230Y0025409D01*
X0028613Y0025409D01*
X0027575Y0026447D01*
X0027575Y0032639D01*
X0028559Y0033624D01*
X0028559Y0036230D01*
X0029189Y0036860D01*
X0029189Y0037668D01*
X0028598Y0038258D01*
X0028598Y0038402D01*
X0025612Y0038402D01*
X0025419Y0038594D01*
X0024430Y0039004D01*
X0023650Y0039784D01*
X0023228Y0040803D01*
X0023228Y0041906D01*
X0023650Y0042925D01*
X0024430Y0043704D01*
X0025114Y0043988D01*
X0024803Y0044740D01*
X0024803Y0045843D01*
X0025225Y0046862D01*
X0026005Y0047641D01*
X0026432Y0047818D01*
X0026207Y0048043D01*
X0025217Y0048453D01*
X0024437Y0049233D01*
X0024015Y0050252D01*
X0024015Y0051355D01*
X0024437Y0052373D01*
X0025217Y0053153D01*
X0026236Y0053575D01*
X0027339Y0053575D01*
X0028358Y0053153D01*
X0028892Y0052618D01*
X0029134Y0052860D01*
X0028367Y0053178D01*
X0027587Y0053957D01*
X0027165Y0054976D01*
X0027165Y0055592D01*
X0026858Y0056118D01*
X0024872Y0056118D01*
X0023835Y0057156D01*
X0023835Y0063348D01*
X0023888Y0063402D01*
X0023835Y0063455D01*
X0023835Y0069647D01*
X0024575Y0070387D01*
X0024524Y0071193D01*
X0024437Y0071280D01*
X0024015Y0072299D01*
X0024015Y0073402D01*
X0024437Y0074421D01*
X0024639Y0074622D01*
X0022737Y0074622D01*
X0021073Y0075311D01*
X0019800Y0076585D01*
X0019110Y0078249D01*
X0019110Y0098948D01*
X0019800Y0100612D01*
X0021073Y0101886D01*
X0022737Y0102575D01*
X0027684Y0102575D01*
X0033291Y0120519D01*
X0034747Y0122262D01*
X0036759Y0123316D01*
X0039020Y0123520D01*
X0041188Y0122842D01*
X0042932Y0121387D01*
X0043985Y0119375D01*
X0044189Y0117113D01*
X0039646Y0102575D01*
X0040286Y0102575D01*
X0041950Y0101886D01*
X0043224Y0100612D01*
X0043913Y0098948D01*
X0043913Y0078249D01*
X0043224Y0076585D01*
X0041950Y0075311D01*
X0040286Y0074622D01*
X0028936Y0074622D01*
X0029137Y0074421D01*
X0029559Y0073402D01*
X0029559Y0072299D01*
X0029237Y0071521D01*
X0029290Y0070685D01*
X0029490Y0070685D01*
X0030528Y0069647D01*
X0030528Y0068913D01*
X0030915Y0068913D01*
X0031102Y0068726D01*
X0031102Y0069123D01*
X0031211Y0069527D01*
X0031420Y0069890D01*
X0031716Y0070186D01*
X0032079Y0070396D01*
X0032484Y0070504D01*
X0034071Y0070504D01*
X0034071Y0066748D01*
X0034465Y0066748D01*
X0034465Y0070504D01*
X0036052Y0070504D01*
X0036456Y0070396D01*
X0036819Y0070186D01*
X0037115Y0069890D01*
X0037325Y0069527D01*
X0037433Y0069123D01*
X0037406Y0069222D02*
X0055094Y0069222D01*
X0055134Y0069222D02*
X0092142Y0069222D01*
X0091395Y0069222D02*
X0095205Y0069222D01*
X0095490Y0069104D02*
X0096667Y0069104D01*
X0097755Y0069554D01*
X0098587Y0070387D01*
X0099038Y0071474D01*
X0099038Y0072652D01*
X0098587Y0073739D01*
X0097755Y0074572D01*
X0096667Y0075022D01*
X0095490Y0075022D01*
X0094403Y0074572D01*
X0093570Y0073739D01*
X0093120Y0072652D01*
X0093120Y0071474D01*
X0093570Y0070387D01*
X0094403Y0069554D01*
X0095490Y0069104D01*
X0093564Y0070402D02*
X0090789Y0070402D01*
X0090614Y0071581D02*
X0093120Y0071581D01*
X0092142Y0071581D02*
X0055134Y0071581D01*
X0055653Y0071802D02*
X0055338Y0072274D01*
X0055121Y0072798D01*
X0055010Y0073354D01*
X0055010Y0073638D01*
X0057890Y0073638D01*
X0057890Y0073638D01*
X0057890Y0073638D01*
X0057890Y0070758D01*
X0057890Y0068520D01*
X0057890Y0068520D01*
X0063008Y0068520D01*
X0063008Y0068520D01*
X0063008Y0065640D01*
X0062724Y0065640D01*
X0062168Y0065751D01*
X0061644Y0065968D01*
X0061172Y0066283D01*
X0060771Y0066684D01*
X0060456Y0067156D01*
X0060449Y0067173D01*
X0060442Y0067156D01*
X0060126Y0066684D01*
X0059725Y0066283D01*
X0059254Y0065968D01*
X0058730Y0065751D01*
X0058173Y0065640D01*
X0057890Y0065640D01*
X0057890Y0068520D01*
X0057890Y0068520D01*
X0055010Y0068520D01*
X0055010Y0068803D01*
X0055121Y0069360D01*
X0055338Y0069884D01*
X0055653Y0070355D01*
X0056054Y0070756D01*
X0056526Y0071071D01*
X0056543Y0071079D01*
X0056526Y0071086D01*
X0056054Y0071401D01*
X0055653Y0071802D01*
X0055874Y0071581D02*
X0029262Y0071581D01*
X0029559Y0072761D02*
X0055136Y0072761D01*
X0055134Y0072761D02*
X0092142Y0072761D01*
X0091352Y0072761D02*
X0093165Y0072761D01*
X0093772Y0073941D02*
X0091474Y0073941D01*
X0092142Y0073941D02*
X0055134Y0073941D01*
X0055014Y0073941D02*
X0029336Y0073941D01*
X0026787Y0072850D02*
X0027181Y0066551D01*
X0029937Y0066551D01*
X0030724Y0065764D01*
X0030724Y0061039D01*
X0031512Y0060252D01*
X0034268Y0060252D01*
X0037614Y0059785D02*
X0053019Y0059785D01*
X0052945Y0059766D02*
X0052582Y0059556D01*
X0052286Y0059260D01*
X0052077Y0058897D01*
X0051969Y0058493D01*
X0051969Y0056906D01*
X0055724Y0056906D01*
X0055724Y0059874D01*
X0053350Y0059874D01*
X0052945Y0059766D01*
X0051999Y0058606D02*
X0037614Y0058606D01*
X0037614Y0057426D02*
X0051969Y0057426D01*
X0051969Y0056512D02*
X0051969Y0054924D01*
X0052077Y0054520D01*
X0052286Y0054157D01*
X0052582Y0053861D01*
X0052945Y0053652D01*
X0053350Y0053543D01*
X0055724Y0053543D01*
X0055724Y0056512D01*
X0051969Y0056512D01*
X0051969Y0056246D02*
X0036705Y0056246D01*
X0037117Y0053362D02*
X0036882Y0053127D01*
X0036682Y0053181D01*
X0035291Y0053181D01*
X0035291Y0049819D01*
X0035291Y0046457D01*
X0036682Y0046457D01*
X0036882Y0046510D01*
X0037117Y0046276D01*
X0040946Y0046276D01*
X0041984Y0047313D01*
X0041984Y0047457D01*
X0044104Y0047457D01*
X0044691Y0048043D01*
X0045680Y0048453D01*
X0046460Y0049233D01*
X0046882Y0050252D01*
X0046882Y0051355D01*
X0046460Y0052373D01*
X0045680Y0053153D01*
X0044662Y0053575D01*
X0043559Y0053575D01*
X0042540Y0053153D01*
X0041848Y0052461D01*
X0040946Y0053362D01*
X0037117Y0053362D01*
X0035291Y0052708D02*
X0035291Y0052708D01*
X0035291Y0051528D02*
X0035291Y0051528D01*
X0035291Y0050348D02*
X0035291Y0050348D01*
X0035291Y0049169D02*
X0035291Y0049169D01*
X0035291Y0047989D02*
X0035291Y0047989D01*
X0035291Y0046810D02*
X0035291Y0046810D01*
X0031551Y0049819D02*
X0027772Y0049819D01*
X0026787Y0050803D01*
X0024772Y0052708D02*
X0015370Y0052708D01*
X0015370Y0053887D02*
X0027657Y0053887D01*
X0027165Y0055067D02*
X0015370Y0055067D01*
X0015370Y0056246D02*
X0024744Y0056246D01*
X0023835Y0057426D02*
X0015370Y0057426D01*
X0015370Y0058606D02*
X0023835Y0058606D01*
X0023835Y0059785D02*
X0015370Y0059785D01*
X0015370Y0060965D02*
X0023835Y0060965D01*
X0023835Y0062145D02*
X0015370Y0062145D01*
X0015370Y0063324D02*
X0023835Y0063324D01*
X0023835Y0064504D02*
X0015370Y0064504D01*
X0015370Y0065683D02*
X0023835Y0065683D01*
X0023835Y0066863D02*
X0015370Y0066863D01*
X0015370Y0068043D02*
X0023835Y0068043D01*
X0023835Y0069222D02*
X0015370Y0069222D01*
X0015370Y0070402D02*
X0024574Y0070402D01*
X0024313Y0071581D02*
X0015370Y0071581D01*
X0015370Y0072761D02*
X0024015Y0072761D01*
X0024239Y0073941D02*
X0015370Y0073941D01*
X0015370Y0075120D02*
X0021534Y0075120D01*
X0020085Y0076300D02*
X0015370Y0076300D01*
X0015370Y0077480D02*
X0019429Y0077480D01*
X0019110Y0078659D02*
X0015370Y0078659D01*
X0015370Y0079839D02*
X0019110Y0079839D01*
X0019110Y0081018D02*
X0015370Y0081018D01*
X0015370Y0082198D02*
X0019110Y0082198D01*
X0019110Y0083378D02*
X0015370Y0083378D01*
X0015370Y0084557D02*
X0019110Y0084557D01*
X0019110Y0085737D02*
X0015370Y0085737D01*
X0015370Y0086916D02*
X0019110Y0086916D01*
X0019110Y0088096D02*
X0015370Y0088096D01*
X0015370Y0089276D02*
X0019110Y0089276D01*
X0019110Y0090455D02*
X0015370Y0090455D01*
X0015370Y0091635D02*
X0019110Y0091635D01*
X0019110Y0092815D02*
X0015370Y0092815D01*
X0015370Y0093994D02*
X0019110Y0093994D01*
X0019110Y0095174D02*
X0015370Y0095174D01*
X0015370Y0096353D02*
X0019110Y0096353D01*
X0019110Y0097533D02*
X0015370Y0097533D01*
X0015370Y0098713D02*
X0019110Y0098713D01*
X0019501Y0099892D02*
X0015370Y0099892D01*
X0015370Y0101072D02*
X0020259Y0101072D01*
X0021957Y0102251D02*
X0015370Y0102251D01*
X0015370Y0103431D02*
X0027952Y0103431D01*
X0028320Y0104611D02*
X0003362Y0104611D01*
X0003362Y0105790D02*
X0028689Y0105790D01*
X0029057Y0106970D02*
X0003362Y0106970D01*
X0003362Y0108149D02*
X0029426Y0108149D01*
X0029795Y0109329D02*
X0003362Y0109329D01*
X0003362Y0110509D02*
X0030163Y0110509D01*
X0030532Y0111688D02*
X0003362Y0111688D01*
X0003362Y0112868D02*
X0009200Y0112868D01*
X0008872Y0112975D02*
X0009640Y0112725D01*
X0010252Y0112628D01*
X0010252Y0117142D01*
X0005738Y0117142D01*
X0005835Y0116530D01*
X0006085Y0115762D01*
X0006452Y0115042D01*
X0006927Y0114388D01*
X0007498Y0113816D01*
X0008152Y0113341D01*
X0008872Y0112975D01*
X0010252Y0112868D02*
X0011433Y0112868D01*
X0011433Y0112628D02*
X0012045Y0112725D01*
X0012813Y0112975D01*
X0013533Y0113341D01*
X0014187Y0113816D01*
X0014758Y0114388D01*
X0015233Y0115042D01*
X0015600Y0115762D01*
X0015850Y0116530D01*
X0015947Y0117142D01*
X0011433Y0117142D01*
X0011433Y0118323D01*
X0010252Y0118323D01*
X0010252Y0122679D01*
X0011061Y0123488D01*
X0011630Y0124862D01*
X0011630Y0126350D01*
X0011061Y0127725D01*
X0010008Y0128777D01*
X0008634Y0129346D01*
X0007146Y0129346D01*
X0005771Y0128777D01*
X0004719Y0127725D01*
X0004150Y0126350D01*
X0004150Y0124862D01*
X0004719Y0123488D01*
X0005771Y0122436D01*
X0007146Y0121866D01*
X0007798Y0121866D01*
X0007498Y0121648D01*
X0006927Y0121077D01*
X0006452Y0120423D01*
X0006085Y0119703D01*
X0005835Y0118934D01*
X0005738Y0118323D01*
X0010252Y0118323D01*
X0010252Y0117142D01*
X0011433Y0117142D01*
X0011433Y0112628D01*
X0012485Y0112868D02*
X0022477Y0112868D01*
X0021611Y0113226D02*
X0023565Y0112417D01*
X0025679Y0112417D01*
X0027633Y0113226D01*
X0029128Y0114722D01*
X0029937Y0116675D01*
X0029937Y0118789D01*
X0029128Y0120743D01*
X0027633Y0122238D01*
X0025679Y0123047D01*
X0023565Y0123047D01*
X0021611Y0122238D01*
X0020116Y0120743D01*
X0019307Y0118789D01*
X0019307Y0116675D01*
X0020116Y0114722D01*
X0021611Y0113226D01*
X0020790Y0114048D02*
X0014418Y0114048D01*
X0015328Y0115227D02*
X0019907Y0115227D01*
X0019418Y0116407D02*
X0015810Y0116407D01*
X0015947Y0118323D02*
X0015850Y0118934D01*
X0015600Y0119703D01*
X0015233Y0120423D01*
X0014758Y0121077D01*
X0014187Y0121648D01*
X0013533Y0122123D01*
X0012813Y0122490D01*
X0012045Y0122740D01*
X0011433Y0122837D01*
X0011433Y0118323D01*
X0015947Y0118323D01*
X0015877Y0118766D02*
X0019307Y0118766D01*
X0019307Y0117586D02*
X0011433Y0117586D01*
X0011433Y0116407D02*
X0010252Y0116407D01*
X0010252Y0117586D02*
X0003362Y0117586D01*
X0003362Y0116407D02*
X0005875Y0116407D01*
X0006357Y0115227D02*
X0003362Y0115227D01*
X0003362Y0114048D02*
X0007267Y0114048D01*
X0010252Y0114048D02*
X0011433Y0114048D01*
X0011433Y0115227D02*
X0010252Y0115227D01*
X0010252Y0118766D02*
X0011433Y0118766D01*
X0011433Y0119946D02*
X0010252Y0119946D01*
X0010252Y0121125D02*
X0011433Y0121125D01*
X0011433Y0122305D02*
X0010252Y0122305D01*
X0011057Y0123484D02*
X0038628Y0123484D01*
X0039133Y0123484D02*
X0114780Y0123484D01*
X0114780Y0122305D02*
X0112319Y0122305D01*
X0112614Y0122009D02*
X0111576Y0123047D01*
X0103022Y0123047D01*
X0101984Y0122009D01*
X0101984Y0113455D01*
X0103022Y0112417D01*
X0111576Y0112417D01*
X0112614Y0113455D01*
X0112614Y0122009D01*
X0112614Y0121125D02*
X0114780Y0121125D01*
X0114780Y0119946D02*
X0112614Y0119946D01*
X0112614Y0118766D02*
X0114780Y0118766D01*
X0114780Y0117586D02*
X0112614Y0117586D01*
X0112614Y0116407D02*
X0114780Y0116407D01*
X0114780Y0115227D02*
X0112614Y0115227D01*
X0112614Y0114048D02*
X0114780Y0114048D01*
X0114780Y0112868D02*
X0112027Y0112868D01*
X0114780Y0111688D02*
X0042494Y0111688D01*
X0042125Y0110509D02*
X0114780Y0110509D01*
X0114780Y0109329D02*
X0053957Y0109329D01*
X0053824Y0109462D02*
X0052630Y0109957D01*
X0051338Y0109957D01*
X0050144Y0109462D01*
X0049231Y0108549D01*
X0048736Y0107355D01*
X0048736Y0106063D01*
X0049231Y0104869D01*
X0050144Y0103955D01*
X0051338Y0103461D01*
X0052630Y0103461D01*
X0053824Y0103955D01*
X0054738Y0104869D01*
X0055232Y0106063D01*
X0055232Y0107355D01*
X0054738Y0108549D01*
X0053824Y0109462D01*
X0054903Y0108149D02*
X0114780Y0108149D01*
X0114780Y0106970D02*
X0055232Y0106970D01*
X0055119Y0105790D02*
X0114780Y0105790D01*
X0114780Y0104611D02*
X0095798Y0104611D01*
X0096067Y0104342D02*
X0095287Y0105122D01*
X0094268Y0105544D01*
X0093165Y0105544D01*
X0092146Y0105122D01*
X0091828Y0104803D01*
X0091694Y0104937D01*
X0087077Y0104937D01*
X0086039Y0103899D01*
X0086039Y0097707D01*
X0087077Y0096669D01*
X0091694Y0096669D01*
X0092732Y0097707D01*
X0092732Y0098447D01*
X0094297Y0100012D01*
X0095252Y0100407D01*
X0095687Y0099357D01*
X0096601Y0098443D01*
X0097795Y0097949D01*
X0099087Y0097949D01*
X0100281Y0098443D01*
X0101194Y0099357D01*
X0101689Y0100551D01*
X0101689Y0101843D01*
X0101194Y0103037D01*
X0100281Y0103950D01*
X0099087Y0104445D01*
X0097795Y0104445D01*
X0096601Y0103950D01*
X0096338Y0103687D01*
X0096067Y0104342D01*
X0093717Y0102772D02*
X0091748Y0100803D01*
X0089386Y0100803D01*
X0086039Y0101072D02*
X0085646Y0101072D01*
X0085646Y0102251D02*
X0086039Y0102251D01*
X0086039Y0103431D02*
X0085646Y0103431D01*
X0085646Y0103899D02*
X0084608Y0104937D01*
X0079991Y0104937D01*
X0078953Y0103899D01*
X0078953Y0102870D01*
X0077378Y0102870D01*
X0077378Y0103604D01*
X0076340Y0104642D01*
X0070148Y0104642D01*
X0069132Y0103626D01*
X0069005Y0103847D01*
X0068709Y0104143D01*
X0068346Y0104352D01*
X0067942Y0104461D01*
X0065961Y0104461D01*
X0065961Y0101098D01*
X0064780Y0101098D01*
X0064779Y0101098D02*
X0064779Y0099917D01*
X0061417Y0099917D01*
X0061417Y0097936D01*
X0061526Y0097532D01*
X0061735Y0097169D01*
X0062031Y0096873D01*
X0062394Y0096664D01*
X0062798Y0096555D01*
X0064780Y0096555D01*
X0064780Y0099917D01*
X0065961Y0099917D01*
X0065961Y0096555D01*
X0067942Y0096555D01*
X0068346Y0096664D01*
X0068709Y0096873D01*
X0069005Y0097169D01*
X0069132Y0097390D01*
X0070148Y0096374D01*
X0076340Y0096374D01*
X0077378Y0097412D01*
X0077378Y0098146D01*
X0078953Y0098146D01*
X0078953Y0097707D01*
X0079991Y0096669D01*
X0084608Y0096669D01*
X0085646Y0097707D01*
X0085646Y0103899D01*
X0084934Y0104611D02*
X0086751Y0104611D01*
X0086039Y0099892D02*
X0085646Y0099892D01*
X0085646Y0098713D02*
X0086039Y0098713D01*
X0086214Y0097533D02*
X0085472Y0097533D01*
X0085291Y0096489D02*
X0084272Y0096067D01*
X0084222Y0096016D01*
X0084032Y0096095D01*
X0082929Y0096095D01*
X0081910Y0095673D01*
X0081130Y0094893D01*
X0080708Y0093874D01*
X0080708Y0092896D01*
X0080343Y0092531D01*
X0079921Y0091512D01*
X0079921Y0090409D01*
X0080343Y0089390D01*
X0081123Y0088611D01*
X0082142Y0088189D01*
X0083244Y0088189D01*
X0084263Y0088611D01*
X0085043Y0089390D01*
X0085465Y0090409D01*
X0085465Y0090944D01*
X0086394Y0090944D01*
X0087413Y0091367D01*
X0088193Y0092146D01*
X0088615Y0093165D01*
X0088615Y0094268D01*
X0088193Y0095287D01*
X0087413Y0096067D01*
X0086394Y0096489D01*
X0085291Y0096489D01*
X0084965Y0096353D02*
X0060342Y0096353D01*
X0060016Y0096489D02*
X0061035Y0096067D01*
X0061433Y0095668D01*
X0061438Y0095673D01*
X0062456Y0096095D01*
X0063559Y0096095D01*
X0064578Y0095673D01*
X0065358Y0094893D01*
X0065780Y0093874D01*
X0065780Y0092896D01*
X0066145Y0092531D01*
X0066225Y0092339D01*
X0072994Y0092339D01*
X0074031Y0091301D01*
X0074031Y0083534D01*
X0072994Y0082496D01*
X0073586Y0083089D01*
X0092142Y0082299D01*
X0092142Y0064976D01*
X0055134Y0064976D01*
X0055134Y0083874D01*
X0064647Y0083469D01*
X0065620Y0082496D01*
X0072994Y0082496D01*
X0065620Y0082496D01*
X0064583Y0083534D01*
X0064583Y0085055D01*
X0059273Y0085055D01*
X0055933Y0088395D01*
X0055726Y0088395D01*
X0054639Y0088846D01*
X0053806Y0089678D01*
X0053356Y0090766D01*
X0053356Y0091943D01*
X0053806Y0093030D01*
X0054639Y0093863D01*
X0055726Y0094313D01*
X0056711Y0094313D01*
X0057115Y0095287D01*
X0057894Y0096067D01*
X0058913Y0096489D01*
X0060016Y0096489D01*
X0058587Y0096353D02*
X0043913Y0096353D01*
X0043913Y0095174D02*
X0057068Y0095174D01*
X0054956Y0093994D02*
X0043913Y0093994D01*
X0043913Y0092815D02*
X0053717Y0092815D01*
X0053356Y0091635D02*
X0043913Y0091635D01*
X0043913Y0090455D02*
X0053484Y0090455D01*
X0054209Y0089276D02*
X0043913Y0089276D01*
X0043913Y0088096D02*
X0056233Y0088096D01*
X0057412Y0086916D02*
X0043913Y0086916D01*
X0043913Y0085737D02*
X0058592Y0085737D01*
X0060252Y0087417D02*
X0056315Y0091354D01*
X0060252Y0087417D02*
X0069307Y0087417D01*
X0074031Y0086916D02*
X0103165Y0086916D01*
X0103165Y0085737D02*
X0074031Y0085737D01*
X0074031Y0084557D02*
X0103165Y0084557D01*
X0103165Y0083378D02*
X0073875Y0083378D01*
X0073244Y0081018D02*
X0073244Y0081018D01*
X0073244Y0079839D02*
X0073244Y0079839D01*
X0073244Y0078659D02*
X0073244Y0078659D01*
X0073244Y0077480D02*
X0073244Y0077480D01*
X0073244Y0076300D02*
X0073244Y0076300D01*
X0073244Y0075120D02*
X0073244Y0075120D01*
X0073244Y0073941D02*
X0073244Y0073941D01*
X0073244Y0072761D02*
X0073244Y0072761D01*
X0073244Y0071581D02*
X0073244Y0071581D01*
X0073244Y0070402D02*
X0073244Y0070402D01*
X0073244Y0069222D02*
X0073244Y0069222D01*
X0073244Y0068043D02*
X0073244Y0068043D01*
X0073244Y0066863D02*
X0073244Y0066863D01*
X0073244Y0065683D02*
X0073244Y0065683D01*
X0072743Y0065683D02*
X0068627Y0065683D01*
X0068126Y0065683D02*
X0068126Y0065683D01*
X0068126Y0065640D02*
X0068126Y0068520D01*
X0068126Y0068520D01*
X0068126Y0065640D01*
X0067625Y0065683D02*
X0063509Y0065683D01*
X0063008Y0065683D02*
X0063008Y0065683D01*
X0062507Y0065683D02*
X0058391Y0065683D01*
X0057890Y0065683D02*
X0057890Y0065683D01*
X0057890Y0065640D02*
X0057890Y0068520D01*
X0057890Y0068520D01*
X0055010Y0068520D01*
X0055010Y0068236D01*
X0055121Y0067680D01*
X0055338Y0067156D01*
X0055653Y0066684D01*
X0056054Y0066283D01*
X0056526Y0065968D01*
X0057050Y0065751D01*
X0057606Y0065640D01*
X0057890Y0065640D01*
X0057389Y0065683D02*
X0037433Y0065683D01*
X0037433Y0064504D02*
X0103165Y0064504D01*
X0103165Y0065683D02*
X0089099Y0065683D01*
X0088598Y0065683D02*
X0088598Y0065683D01*
X0088097Y0065683D02*
X0083981Y0065683D01*
X0083480Y0065683D02*
X0083480Y0065683D01*
X0082979Y0065683D02*
X0078863Y0065683D01*
X0078362Y0065683D02*
X0078362Y0065683D01*
X0077861Y0065683D02*
X0073745Y0065683D01*
X0075600Y0066863D02*
X0076006Y0066863D01*
X0078362Y0066863D02*
X0078362Y0066863D01*
X0078362Y0068043D02*
X0078362Y0068043D01*
X0078362Y0069222D02*
X0078362Y0069222D01*
X0078362Y0070402D02*
X0078362Y0070402D01*
X0078362Y0071581D02*
X0078362Y0071581D01*
X0078362Y0072761D02*
X0078362Y0072761D01*
X0078362Y0073941D02*
X0078362Y0073941D01*
X0078362Y0075120D02*
X0078362Y0075120D01*
X0078362Y0076300D02*
X0078362Y0076300D01*
X0078362Y0077480D02*
X0078362Y0077480D01*
X0078362Y0078659D02*
X0078362Y0078659D01*
X0078362Y0079839D02*
X0078362Y0079839D01*
X0078362Y0081018D02*
X0078362Y0081018D01*
X0080159Y0081018D02*
X0081683Y0081018D01*
X0083480Y0081018D02*
X0083480Y0081018D01*
X0083480Y0079839D02*
X0083480Y0079839D01*
X0083480Y0078659D02*
X0083480Y0078659D01*
X0083480Y0077480D02*
X0083480Y0077480D01*
X0083480Y0076300D02*
X0083480Y0076300D01*
X0083480Y0075120D02*
X0083480Y0075120D01*
X0083480Y0073941D02*
X0083480Y0073941D01*
X0083480Y0072761D02*
X0083480Y0072761D01*
X0083480Y0071581D02*
X0083480Y0071581D01*
X0083480Y0070402D02*
X0083480Y0070402D01*
X0083480Y0069222D02*
X0083480Y0069222D01*
X0083480Y0068043D02*
X0083480Y0068043D01*
X0083480Y0066863D02*
X0083480Y0066863D01*
X0081124Y0066863D02*
X0080718Y0066863D01*
X0085837Y0066863D02*
X0086242Y0066863D01*
X0088598Y0066863D02*
X0088598Y0066863D01*
X0088598Y0068043D02*
X0088598Y0068043D01*
X0088598Y0069222D02*
X0088598Y0069222D01*
X0088598Y0070402D02*
X0088598Y0070402D01*
X0088598Y0071581D02*
X0088598Y0071581D01*
X0088598Y0072761D02*
X0088598Y0072761D01*
X0088598Y0073941D02*
X0088598Y0073941D01*
X0088598Y0075120D02*
X0088598Y0075120D01*
X0088598Y0076300D02*
X0088598Y0076300D01*
X0088598Y0077480D02*
X0088598Y0077480D01*
X0088598Y0078659D02*
X0088598Y0078659D01*
X0088599Y0078756D02*
X0088599Y0078756D01*
X0091478Y0078756D01*
X0088599Y0078756D01*
X0088598Y0079839D02*
X0088598Y0079839D01*
X0088598Y0081018D02*
X0088598Y0081018D01*
X0086801Y0081018D02*
X0085277Y0081018D01*
X0090395Y0081018D02*
X0103165Y0081018D01*
X0103165Y0079839D02*
X0091267Y0079839D01*
X0092142Y0079839D02*
X0055134Y0079839D01*
X0055222Y0079839D02*
X0043913Y0079839D01*
X0043913Y0081018D02*
X0056093Y0081018D01*
X0055134Y0081018D02*
X0092142Y0081018D01*
X0092142Y0082198D02*
X0055134Y0082198D01*
X0055134Y0083378D02*
X0064739Y0083378D01*
X0043913Y0083378D01*
X0043913Y0084557D02*
X0064583Y0084557D01*
X0064805Y0081018D02*
X0066329Y0081018D01*
X0068126Y0081018D02*
X0068126Y0081018D01*
X0068126Y0079839D02*
X0068126Y0079839D01*
X0068126Y0078659D02*
X0068126Y0078659D01*
X0068126Y0077480D02*
X0068126Y0077480D01*
X0068126Y0076300D02*
X0068126Y0076300D01*
X0068126Y0075120D02*
X0068126Y0075120D01*
X0068126Y0073941D02*
X0068126Y0073941D01*
X0068126Y0072761D02*
X0068126Y0072761D01*
X0068126Y0071581D02*
X0068126Y0071581D01*
X0068126Y0070402D02*
X0068126Y0070402D01*
X0068126Y0069222D02*
X0068126Y0069222D01*
X0068126Y0068043D02*
X0068126Y0068043D01*
X0068126Y0066863D02*
X0068126Y0066863D01*
X0070482Y0066863D02*
X0070888Y0066863D01*
X0065770Y0066863D02*
X0065364Y0066863D01*
X0063008Y0066863D02*
X0063008Y0066863D01*
X0063008Y0068043D02*
X0063008Y0068043D01*
X0063008Y0069222D02*
X0063008Y0069222D01*
X0063008Y0070402D02*
X0063008Y0070402D01*
X0063008Y0071581D02*
X0063008Y0071581D01*
X0063008Y0072761D02*
X0063008Y0072761D01*
X0063008Y0073941D02*
X0063008Y0073941D01*
X0063008Y0075120D02*
X0063008Y0075120D01*
X0063008Y0076300D02*
X0063008Y0076300D01*
X0063008Y0077480D02*
X0063008Y0077480D01*
X0063008Y0078659D02*
X0063008Y0078659D01*
X0063008Y0079839D02*
X0063008Y0079839D01*
X0063008Y0081018D02*
X0063008Y0081018D01*
X0061211Y0081018D02*
X0059687Y0081018D01*
X0057890Y0081018D02*
X0057890Y0081018D01*
X0057890Y0079839D02*
X0057890Y0079839D01*
X0057890Y0078659D02*
X0057890Y0078659D01*
X0057890Y0077480D02*
X0057890Y0077480D01*
X0057890Y0076300D02*
X0057890Y0076300D01*
X0057890Y0075120D02*
X0057890Y0075120D01*
X0057890Y0073941D02*
X0057890Y0073941D01*
X0057890Y0072761D02*
X0057890Y0072761D01*
X0057890Y0071581D02*
X0057890Y0071581D01*
X0057890Y0070402D02*
X0057890Y0070402D01*
X0057890Y0069222D02*
X0057890Y0069222D01*
X0057890Y0068043D02*
X0057890Y0068043D01*
X0057890Y0066863D02*
X0057890Y0066863D01*
X0060246Y0066863D02*
X0060652Y0066863D01*
X0055534Y0066863D02*
X0037433Y0066863D01*
X0034465Y0066863D02*
X0034071Y0066863D01*
X0034071Y0068043D02*
X0034465Y0068043D01*
X0034465Y0069222D02*
X0034071Y0069222D01*
X0034071Y0070402D02*
X0034465Y0070402D01*
X0036433Y0070402D02*
X0055700Y0070402D01*
X0055134Y0070402D02*
X0092142Y0070402D01*
X0092142Y0066863D02*
X0055134Y0066863D01*
X0055134Y0065683D02*
X0092142Y0065683D01*
X0090955Y0066863D02*
X0103165Y0066863D01*
X0103165Y0063324D02*
X0037614Y0063324D01*
X0037614Y0062145D02*
X0103165Y0062145D01*
X0103165Y0060965D02*
X0037614Y0060965D01*
X0032709Y0055067D02*
X0051969Y0055067D01*
X0052556Y0053887D02*
X0032217Y0053887D01*
X0029937Y0055528D02*
X0027181Y0060252D01*
X0028803Y0052708D02*
X0028982Y0052708D01*
X0024087Y0051528D02*
X0015370Y0051528D01*
X0015370Y0050348D02*
X0024015Y0050348D01*
X0024501Y0049169D02*
X0015370Y0049169D01*
X0015370Y0047989D02*
X0026261Y0047989D01*
X0025203Y0046810D02*
X0015370Y0046810D01*
X0015370Y0045630D02*
X0024803Y0045630D01*
X0024923Y0044450D02*
X0015370Y0044450D01*
X0015370Y0043271D02*
X0023996Y0043271D01*
X0023305Y0042091D02*
X0015370Y0042091D01*
X0015370Y0040912D02*
X0023228Y0040912D01*
X0023702Y0039732D02*
X0015370Y0039732D01*
X0015370Y0038552D02*
X0025461Y0038552D01*
X0026591Y0040764D02*
X0026000Y0041354D01*
X0026591Y0040764D02*
X0031551Y0040764D01*
X0031551Y0035882D01*
X0030921Y0035252D01*
X0030921Y0029543D01*
X0034253Y0032654D02*
X0034676Y0032654D01*
X0034661Y0031475D02*
X0034268Y0031475D01*
X0034268Y0030295D02*
X0034661Y0030295D01*
X0034661Y0029115D02*
X0034268Y0029115D01*
X0034268Y0027936D02*
X0034661Y0027936D01*
X0034661Y0026756D02*
X0034268Y0026756D01*
X0034637Y0025577D02*
X0033397Y0025577D01*
X0033458Y0024397D02*
X0015370Y0024397D01*
X0015370Y0025577D02*
X0028446Y0025577D01*
X0027575Y0026756D02*
X0015370Y0026756D01*
X0015370Y0027936D02*
X0027575Y0027936D01*
X0027575Y0029115D02*
X0015370Y0029115D01*
X0015370Y0030295D02*
X0027575Y0030295D01*
X0027575Y0031475D02*
X0015370Y0031475D01*
X0015370Y0032654D02*
X0027590Y0032654D01*
X0028559Y0033834D02*
X0015370Y0033834D01*
X0015370Y0035013D02*
X0028559Y0035013D01*
X0028559Y0036193D02*
X0015370Y0036193D01*
X0015370Y0037373D02*
X0029189Y0037373D01*
X0033913Y0035013D02*
X0034118Y0035013D01*
X0033283Y0033834D02*
X0035298Y0033834D01*
X0038008Y0034465D02*
X0035291Y0037181D01*
X0035291Y0040764D01*
X0039031Y0040764D02*
X0041984Y0043717D01*
X0044898Y0043717D01*
X0047192Y0042091D02*
X0049380Y0042091D01*
X0048201Y0040912D02*
X0042520Y0040912D01*
X0041984Y0039732D02*
X0047021Y0039732D01*
X0046472Y0038552D02*
X0041984Y0038552D01*
X0041099Y0037373D02*
X0046472Y0037373D01*
X0046472Y0036193D02*
X0039620Y0036193D01*
X0040370Y0035013D02*
X0046472Y0035013D01*
X0046472Y0033834D02*
X0040370Y0033834D01*
X0041339Y0032654D02*
X0046472Y0032654D01*
X0046472Y0031475D02*
X0041354Y0031475D01*
X0041354Y0030295D02*
X0046472Y0030295D01*
X0046472Y0029115D02*
X0041354Y0029115D01*
X0041354Y0027936D02*
X0046472Y0027936D01*
X0046472Y0026756D02*
X0041354Y0026756D01*
X0040484Y0025577D02*
X0046472Y0025577D01*
X0046472Y0024397D02*
X0040139Y0024397D01*
X0039955Y0023217D02*
X0038960Y0023217D01*
X0039386Y0022038D02*
X0038343Y0022038D01*
X0038343Y0020858D02*
X0039386Y0020858D01*
X0039386Y0019678D02*
X0038343Y0019678D01*
X0038343Y0018499D02*
X0039386Y0018499D01*
X0039386Y0017319D02*
X0038343Y0017319D01*
X0038343Y0016140D02*
X0039386Y0016140D01*
X0039386Y0014960D02*
X0038343Y0014960D01*
X0038343Y0013780D02*
X0039386Y0013780D01*
X0039386Y0012601D02*
X0038343Y0012601D01*
X0038343Y0011421D02*
X0039386Y0011421D01*
X0039386Y0010242D02*
X0038343Y0010242D01*
X0038343Y0009062D02*
X0039386Y0009062D01*
X0039386Y0007882D02*
X0038343Y0007882D01*
X0038343Y0006703D02*
X0039386Y0006703D01*
X0039386Y0005523D02*
X0038343Y0005523D01*
X0037971Y0004343D02*
X0039985Y0004343D01*
X0041748Y0005921D02*
X0041748Y0021669D01*
X0055921Y0021669D01*
X0055921Y0005921D01*
X0041748Y0005921D01*
X0041748Y0006703D02*
X0055921Y0006703D01*
X0055921Y0007882D02*
X0041748Y0007882D01*
X0041748Y0009062D02*
X0055921Y0009062D01*
X0055921Y0010242D02*
X0041748Y0010242D01*
X0041748Y0011421D02*
X0055921Y0011421D01*
X0055921Y0012601D02*
X0041748Y0012601D01*
X0041748Y0013780D02*
X0055921Y0013780D01*
X0055921Y0014960D02*
X0041748Y0014960D01*
X0041748Y0016140D02*
X0055921Y0016140D01*
X0055921Y0017319D02*
X0041748Y0017319D01*
X0041748Y0018499D02*
X0055921Y0018499D01*
X0055921Y0019678D02*
X0041748Y0019678D01*
X0041748Y0020858D02*
X0055921Y0020858D01*
X0058343Y0020858D02*
X0059799Y0020858D01*
X0059799Y0019678D02*
X0058343Y0019678D01*
X0058343Y0018499D02*
X0059799Y0018499D01*
X0059799Y0017319D02*
X0058343Y0017319D01*
X0058343Y0016140D02*
X0059799Y0016140D01*
X0059799Y0014960D02*
X0058343Y0014960D01*
X0058343Y0013780D02*
X0059799Y0013780D01*
X0059799Y0012601D02*
X0058343Y0012601D01*
X0058343Y0011421D02*
X0059799Y0011421D01*
X0059799Y0010242D02*
X0058343Y0010242D01*
X0058343Y0009062D02*
X0059799Y0009062D01*
X0059799Y0007882D02*
X0058343Y0007882D01*
X0058343Y0006703D02*
X0059799Y0006703D01*
X0059799Y0005523D02*
X0058343Y0005523D01*
X0057971Y0004343D02*
X0060171Y0004343D01*
X0067971Y0004343D02*
X0070171Y0004343D01*
X0069799Y0005523D02*
X0068343Y0005523D01*
X0068343Y0006703D02*
X0069799Y0006703D01*
X0069799Y0007882D02*
X0068343Y0007882D01*
X0068343Y0009062D02*
X0069799Y0009062D01*
X0069799Y0010242D02*
X0068343Y0010242D01*
X0068343Y0011421D02*
X0069799Y0011421D01*
X0069799Y0012601D02*
X0068343Y0012601D01*
X0068343Y0013780D02*
X0069799Y0013780D01*
X0069799Y0014960D02*
X0068343Y0014960D01*
X0068343Y0016140D02*
X0069799Y0016140D01*
X0069799Y0017319D02*
X0068343Y0017319D01*
X0068343Y0018499D02*
X0069799Y0018499D01*
X0069799Y0019678D02*
X0068343Y0019678D01*
X0068343Y0020858D02*
X0069799Y0020858D01*
X0069799Y0022038D02*
X0068343Y0022038D01*
X0067843Y0023217D02*
X0070298Y0023217D01*
X0071709Y0024397D02*
X0066433Y0024397D01*
X0067686Y0025577D02*
X0071709Y0025577D01*
X0071709Y0026756D02*
X0068142Y0026756D01*
X0068058Y0027936D02*
X0071709Y0027936D01*
X0071709Y0029115D02*
X0067356Y0029115D01*
X0068860Y0030035D02*
X0069352Y0030528D01*
X0069695Y0030528D01*
X0074031Y0034864D01*
X0074031Y0036630D01*
X0082502Y0036630D01*
X0084661Y0034470D01*
X0084661Y0032836D01*
X0083677Y0031852D01*
X0083677Y0025660D01*
X0084715Y0024622D01*
X0089332Y0024622D01*
X0090370Y0025660D01*
X0090370Y0031852D01*
X0089386Y0032836D01*
X0089386Y0036427D01*
X0085843Y0039971D01*
X0084459Y0041354D01*
X0074031Y0041354D01*
X0074031Y0043908D01*
X0072648Y0045291D01*
X0070628Y0047311D01*
X0070926Y0047311D01*
X0071585Y0046652D01*
X0078053Y0046652D01*
X0078318Y0046918D01*
X0079193Y0046918D01*
X0079459Y0046652D01*
X0085927Y0046652D01*
X0086192Y0046918D01*
X0087067Y0046918D01*
X0087333Y0046652D01*
X0093801Y0046652D01*
X0094839Y0047690D01*
X0094839Y0055491D01*
X0093801Y0056529D01*
X0092906Y0056529D01*
X0089971Y0059465D01*
X0088958Y0059465D01*
X0087969Y0059874D01*
X0086866Y0059874D01*
X0085847Y0059452D01*
X0085067Y0058673D01*
X0084830Y0058099D01*
X0084263Y0058665D01*
X0083244Y0059087D01*
X0082142Y0059087D01*
X0081123Y0058665D01*
X0080556Y0058099D01*
X0080319Y0058673D01*
X0079539Y0059452D01*
X0078520Y0059874D01*
X0077417Y0059874D01*
X0076428Y0059465D01*
X0074628Y0059465D01*
X0073840Y0058677D01*
X0072457Y0057293D01*
X0072457Y0056529D01*
X0071585Y0056529D01*
X0070547Y0055491D01*
X0070547Y0052904D01*
X0065561Y0057890D01*
X0062186Y0057890D01*
X0061197Y0058300D01*
X0060094Y0058300D01*
X0059874Y0058208D01*
X0059874Y0058493D01*
X0059766Y0058897D01*
X0059556Y0059260D01*
X0059260Y0059556D01*
X0058897Y0059766D01*
X0058493Y0059874D01*
X0056118Y0059874D01*
X0056118Y0056906D01*
X0055724Y0056906D01*
X0055724Y0056512D01*
X0056118Y0056512D01*
X0056118Y0053543D01*
X0058493Y0053543D01*
X0058664Y0053589D01*
X0059075Y0053178D01*
X0060094Y0052756D01*
X0061197Y0052756D01*
X0061294Y0052796D01*
X0061023Y0052142D01*
X0061023Y0051039D01*
X0061433Y0050050D01*
X0061433Y0048441D01*
X0060055Y0048441D01*
X0060055Y0051931D01*
X0059017Y0052968D01*
X0052825Y0052968D01*
X0051787Y0051931D01*
X0051787Y0047313D01*
X0052825Y0046276D01*
X0053959Y0046276D01*
X0055134Y0045100D01*
X0056518Y0043717D01*
X0067541Y0043717D01*
X0068033Y0043224D01*
X0062668Y0043224D01*
X0061630Y0042187D01*
X0061630Y0038554D01*
X0062668Y0037516D01*
X0068860Y0037516D01*
X0069307Y0037963D01*
X0069307Y0036821D01*
X0068230Y0035744D01*
X0062668Y0035744D01*
X0061630Y0034706D01*
X0061630Y0031073D01*
X0062668Y0030035D01*
X0068860Y0030035D01*
X0069120Y0030295D02*
X0071709Y0030295D01*
X0072622Y0031475D02*
X0070642Y0031475D01*
X0071822Y0032654D02*
X0073703Y0032654D01*
X0074402Y0033834D02*
X0073001Y0033834D01*
X0074031Y0035013D02*
X0084118Y0035013D01*
X0084661Y0033834D02*
X0078386Y0033834D01*
X0079084Y0032654D02*
X0084479Y0032654D01*
X0083677Y0031475D02*
X0079166Y0031475D01*
X0078703Y0030295D02*
X0083677Y0030295D01*
X0083677Y0029115D02*
X0076944Y0029115D01*
X0076433Y0027936D02*
X0083677Y0027936D01*
X0083677Y0026756D02*
X0076433Y0026756D01*
X0076433Y0025577D02*
X0083760Y0025577D01*
X0080298Y0023217D02*
X0077843Y0023217D01*
X0078343Y0022038D02*
X0079799Y0022038D01*
X0076433Y0024397D02*
X0091709Y0024397D01*
X0090847Y0025577D02*
X0090287Y0025577D01*
X0090370Y0026756D02*
X0090764Y0026756D01*
X0090764Y0027936D02*
X0090370Y0027936D01*
X0090370Y0029115D02*
X0090764Y0029115D01*
X0090764Y0030295D02*
X0090370Y0030295D01*
X0090370Y0031475D02*
X0090764Y0031475D01*
X0091566Y0032654D02*
X0089568Y0032654D01*
X0089386Y0033834D02*
X0092142Y0033834D01*
X0091847Y0035013D02*
X0089386Y0035013D01*
X0089386Y0036193D02*
X0091732Y0036193D01*
X0092137Y0037373D02*
X0088440Y0037373D01*
X0087261Y0038552D02*
X0093802Y0038552D01*
X0095206Y0038552D02*
X0096546Y0038552D01*
X0096910Y0038402D02*
X0095535Y0038971D01*
X0094483Y0040023D01*
X0093913Y0041398D01*
X0093913Y0042886D01*
X0094483Y0044260D01*
X0095535Y0045312D01*
X0096910Y0045882D01*
X0098398Y0045882D01*
X0099772Y0045312D01*
X0100824Y0044260D01*
X0101394Y0042886D01*
X0101394Y0041398D01*
X0100824Y0040023D01*
X0099772Y0038971D01*
X0098398Y0038402D01*
X0096910Y0038402D01*
X0096871Y0037373D02*
X0103165Y0037373D01*
X0103165Y0038552D02*
X0098761Y0038552D01*
X0097276Y0036193D02*
X0103165Y0036193D01*
X0103165Y0035013D02*
X0097161Y0035013D01*
X0096866Y0033834D02*
X0103165Y0033834D01*
X0103165Y0032654D02*
X0096866Y0032654D01*
X0097457Y0031475D02*
X0103165Y0031475D01*
X0103165Y0030295D02*
X0097457Y0030295D01*
X0097457Y0029115D02*
X0103165Y0029115D01*
X0103165Y0027936D02*
X0097457Y0027936D01*
X0097457Y0026756D02*
X0103165Y0026756D01*
X0103165Y0025577D02*
X0097373Y0025577D01*
X0096433Y0024397D02*
X0103165Y0024397D01*
X0103113Y0023217D02*
X0097843Y0023217D01*
X0098343Y0022038D02*
X0102299Y0022038D01*
X0102299Y0020858D02*
X0098343Y0020858D01*
X0098343Y0019678D02*
X0102299Y0019678D01*
X0102299Y0018499D02*
X0098343Y0018499D01*
X0098343Y0017319D02*
X0102299Y0017319D01*
X0102299Y0016140D02*
X0098343Y0016140D01*
X0098343Y0014960D02*
X0102299Y0014960D01*
X0102299Y0013780D02*
X0098343Y0013780D01*
X0098343Y0012601D02*
X0102299Y0012601D01*
X0102299Y0011421D02*
X0098343Y0011421D01*
X0098343Y0010242D02*
X0102299Y0010242D01*
X0102299Y0009062D02*
X0098343Y0009062D01*
X0098343Y0007882D02*
X0102299Y0007882D01*
X0102299Y0006703D02*
X0098343Y0006703D01*
X0098343Y0005523D02*
X0102299Y0005523D01*
X0102299Y0004343D02*
X0097971Y0004343D01*
X0090171Y0004343D02*
X0087971Y0004343D01*
X0088343Y0005523D02*
X0089799Y0005523D01*
X0089799Y0006703D02*
X0088343Y0006703D01*
X0088343Y0007882D02*
X0089799Y0007882D01*
X0089799Y0009062D02*
X0088343Y0009062D01*
X0088343Y0010242D02*
X0089799Y0010242D01*
X0089799Y0011421D02*
X0088343Y0011421D01*
X0088343Y0012601D02*
X0089799Y0012601D01*
X0089799Y0013780D02*
X0088343Y0013780D01*
X0088343Y0014960D02*
X0089799Y0014960D01*
X0089799Y0016140D02*
X0088343Y0016140D01*
X0088343Y0017319D02*
X0089799Y0017319D01*
X0089799Y0018499D02*
X0088343Y0018499D01*
X0088343Y0019678D02*
X0089799Y0019678D01*
X0089799Y0020858D02*
X0088343Y0020858D01*
X0088343Y0022038D02*
X0089799Y0022038D01*
X0090298Y0023217D02*
X0087843Y0023217D01*
X0087024Y0028756D02*
X0087024Y0035449D01*
X0083480Y0038992D01*
X0071866Y0038992D01*
X0071669Y0039189D01*
X0071669Y0035843D01*
X0068717Y0032890D01*
X0065764Y0032890D01*
X0061630Y0032654D02*
X0059661Y0032654D01*
X0059661Y0031475D02*
X0061630Y0031475D01*
X0062409Y0030295D02*
X0058883Y0030295D01*
X0058660Y0029115D02*
X0051197Y0029115D01*
X0051197Y0027936D02*
X0057958Y0027936D01*
X0057874Y0026756D02*
X0051197Y0026756D01*
X0051197Y0025577D02*
X0058330Y0025577D01*
X0060089Y0024397D02*
X0051197Y0024397D01*
X0048835Y0020094D02*
X0048835Y0033480D01*
X0049425Y0032890D01*
X0055527Y0032890D01*
X0059661Y0033834D02*
X0061630Y0033834D01*
X0061937Y0035013D02*
X0059393Y0035013D01*
X0059480Y0036193D02*
X0068679Y0036193D01*
X0069307Y0037373D02*
X0059480Y0037373D01*
X0059660Y0038552D02*
X0061632Y0038552D01*
X0061630Y0039732D02*
X0059661Y0039732D01*
X0059661Y0040912D02*
X0061630Y0040912D01*
X0061630Y0042091D02*
X0059661Y0042091D01*
X0055527Y0040370D02*
X0051000Y0040370D01*
X0048835Y0038205D01*
X0048835Y0033480D01*
X0051197Y0036193D02*
X0051574Y0036193D01*
X0051574Y0037373D02*
X0051343Y0037373D01*
X0047670Y0043271D02*
X0067987Y0043271D01*
X0068520Y0046079D02*
X0071669Y0042929D01*
X0071669Y0039189D01*
X0074031Y0042091D02*
X0093913Y0042091D01*
X0094073Y0043271D02*
X0074031Y0043271D01*
X0073489Y0044450D02*
X0094673Y0044450D01*
X0096301Y0045630D02*
X0072309Y0045630D01*
X0071427Y0046810D02*
X0071130Y0046810D01*
X0068520Y0046079D02*
X0063795Y0046079D01*
X0063795Y0051591D01*
X0061258Y0052708D02*
X0059278Y0052708D01*
X0060055Y0051528D02*
X0061023Y0051528D01*
X0061309Y0050348D02*
X0060055Y0050348D01*
X0060055Y0049169D02*
X0061433Y0049169D01*
X0063795Y0046079D02*
X0057496Y0046079D01*
X0055921Y0047654D01*
X0055921Y0049622D01*
X0054604Y0045630D02*
X0046904Y0045630D01*
X0047594Y0044450D02*
X0055784Y0044450D01*
X0052291Y0046810D02*
X0041480Y0046810D01*
X0040557Y0045630D02*
X0030347Y0045630D01*
X0030227Y0044450D02*
X0039377Y0044450D01*
X0039031Y0049819D02*
X0043126Y0049819D01*
X0044110Y0050803D01*
X0042094Y0052708D02*
X0041601Y0052708D01*
X0046126Y0052708D02*
X0052564Y0052708D01*
X0051787Y0051528D02*
X0046810Y0051528D01*
X0046882Y0050348D02*
X0051787Y0050348D01*
X0051787Y0049169D02*
X0046396Y0049169D01*
X0044637Y0047989D02*
X0051787Y0047989D01*
X0055724Y0053887D02*
X0056118Y0053887D01*
X0056118Y0055067D02*
X0055724Y0055067D01*
X0055724Y0056246D02*
X0056118Y0056246D01*
X0056118Y0057426D02*
X0055724Y0057426D01*
X0055724Y0058606D02*
X0056118Y0058606D01*
X0056118Y0059785D02*
X0055724Y0059785D01*
X0058824Y0059785D02*
X0077202Y0059785D01*
X0078735Y0059785D02*
X0086651Y0059785D01*
X0088184Y0059785D02*
X0103165Y0059785D01*
X0103165Y0058606D02*
X0090829Y0058606D01*
X0092009Y0057426D02*
X0103165Y0057426D01*
X0103165Y0056246D02*
X0094083Y0056246D01*
X0094839Y0055067D02*
X0103165Y0055067D01*
X0103165Y0053887D02*
X0094839Y0053887D01*
X0094839Y0052708D02*
X0103165Y0052708D01*
X0103165Y0051528D02*
X0094839Y0051528D01*
X0094839Y0050348D02*
X0103165Y0050348D01*
X0103165Y0049169D02*
X0094839Y0049169D01*
X0094839Y0047989D02*
X0103165Y0047989D01*
X0103165Y0046810D02*
X0093958Y0046810D01*
X0099006Y0045630D02*
X0103165Y0045630D01*
X0103165Y0044450D02*
X0100634Y0044450D01*
X0101234Y0043271D02*
X0103165Y0043271D01*
X0103165Y0042091D02*
X0101394Y0042091D01*
X0101192Y0040912D02*
X0103165Y0040912D01*
X0103165Y0039732D02*
X0100533Y0039732D01*
X0094774Y0039732D02*
X0086081Y0039732D01*
X0084902Y0040912D02*
X0094115Y0040912D01*
X0094504Y0035843D02*
X0094504Y0029150D01*
X0094110Y0028756D01*
X0094071Y0028717D01*
X0094071Y0013717D01*
X0084071Y0013717D02*
X0079622Y0013717D01*
X0079150Y0013795D01*
X0074071Y0013717D02*
X0074071Y0029583D01*
X0076394Y0031906D01*
X0074031Y0036193D02*
X0082939Y0036193D01*
X0086084Y0046810D02*
X0087175Y0046810D01*
X0090567Y0053507D02*
X0090567Y0055528D01*
X0088992Y0057102D01*
X0087417Y0057102D01*
X0085040Y0058606D02*
X0084322Y0058606D01*
X0082693Y0056315D02*
X0082693Y0053507D01*
X0081063Y0058606D02*
X0080346Y0058606D01*
X0077969Y0057102D02*
X0075606Y0057102D01*
X0074819Y0056315D01*
X0074819Y0053507D01*
X0074819Y0049674D02*
X0070437Y0049674D01*
X0064583Y0055528D01*
X0060646Y0055528D01*
X0059844Y0058606D02*
X0073769Y0058606D01*
X0072589Y0057426D02*
X0066025Y0057426D01*
X0067204Y0056246D02*
X0071302Y0056246D01*
X0070547Y0055067D02*
X0068384Y0055067D01*
X0069564Y0053887D02*
X0070547Y0053887D01*
X0078210Y0046810D02*
X0079301Y0046810D01*
X0063384Y0029115D02*
X0062632Y0029115D01*
X0060646Y0027181D02*
X0064071Y0023756D01*
X0064071Y0013717D01*
X0059799Y0022038D02*
X0058343Y0022038D01*
X0057843Y0023217D02*
X0060298Y0023217D01*
X0052172Y0030295D02*
X0051197Y0030295D01*
X0038008Y0029543D02*
X0038008Y0025606D01*
X0034071Y0021669D01*
X0034071Y0013717D01*
X0029799Y0013780D02*
X0024661Y0013780D01*
X0024661Y0014307D02*
X0028161Y0014307D01*
X0028161Y0022194D01*
X0028053Y0022598D01*
X0027844Y0022961D01*
X0027547Y0023257D01*
X0027185Y0023466D01*
X0026780Y0023575D01*
X0024661Y0023575D01*
X0024661Y0014307D01*
X0023480Y0014307D01*
X0023480Y0013126D01*
X0019980Y0013126D01*
X0019980Y0005239D01*
X0020089Y0004835D01*
X0020298Y0004472D01*
X0020594Y0004176D01*
X0020957Y0003967D01*
X0021361Y0003858D01*
X0023480Y0003858D01*
X0023480Y0013126D01*
X0024661Y0013126D01*
X0024661Y0003858D01*
X0026780Y0003858D01*
X0027185Y0003967D01*
X0027547Y0004176D01*
X0027844Y0004472D01*
X0028053Y0004835D01*
X0028161Y0005239D01*
X0028161Y0013126D01*
X0024661Y0013126D01*
X0024661Y0014307D01*
X0024661Y0014960D02*
X0023480Y0014960D01*
X0023480Y0014307D02*
X0023480Y0023575D01*
X0021361Y0023575D01*
X0020957Y0023466D01*
X0020594Y0023257D01*
X0020298Y0022961D01*
X0020089Y0022598D01*
X0019980Y0022194D01*
X0019980Y0014307D01*
X0023480Y0014307D01*
X0023480Y0013780D02*
X0015843Y0013780D01*
X0015843Y0012601D02*
X0019980Y0012601D01*
X0019980Y0011421D02*
X0015843Y0011421D01*
X0015843Y0010242D02*
X0019980Y0010242D01*
X0019980Y0009062D02*
X0015843Y0009062D01*
X0015843Y0007882D02*
X0019980Y0007882D01*
X0019980Y0006703D02*
X0015843Y0006703D01*
X0015843Y0005523D02*
X0019980Y0005523D01*
X0020427Y0004343D02*
X0015843Y0004343D01*
X0023480Y0004343D02*
X0024661Y0004343D01*
X0024661Y0005523D02*
X0023480Y0005523D01*
X0023480Y0006703D02*
X0024661Y0006703D01*
X0024661Y0007882D02*
X0023480Y0007882D01*
X0023480Y0009062D02*
X0024661Y0009062D01*
X0024661Y0010242D02*
X0023480Y0010242D01*
X0023480Y0011421D02*
X0024661Y0011421D01*
X0024661Y0012601D02*
X0023480Y0012601D01*
X0023480Y0016140D02*
X0024661Y0016140D01*
X0024661Y0017319D02*
X0023480Y0017319D01*
X0023480Y0018499D02*
X0024661Y0018499D01*
X0024661Y0019678D02*
X0023480Y0019678D01*
X0023480Y0020858D02*
X0024661Y0020858D01*
X0024661Y0022038D02*
X0023480Y0022038D01*
X0023480Y0023217D02*
X0024661Y0023217D01*
X0027587Y0023217D02*
X0030298Y0023217D01*
X0029799Y0022038D02*
X0028161Y0022038D01*
X0028161Y0020858D02*
X0029799Y0020858D01*
X0029799Y0019678D02*
X0028161Y0019678D01*
X0028161Y0018499D02*
X0029799Y0018499D01*
X0029799Y0017319D02*
X0028161Y0017319D01*
X0028161Y0016140D02*
X0029799Y0016140D01*
X0029799Y0014960D02*
X0028161Y0014960D01*
X0028161Y0012601D02*
X0029799Y0012601D01*
X0029799Y0011421D02*
X0028161Y0011421D01*
X0028161Y0010242D02*
X0029799Y0010242D01*
X0029799Y0009062D02*
X0028161Y0009062D01*
X0028161Y0007882D02*
X0029799Y0007882D01*
X0029799Y0006703D02*
X0028161Y0006703D01*
X0028161Y0005523D02*
X0029799Y0005523D01*
X0030171Y0004343D02*
X0027715Y0004343D01*
X0019980Y0014960D02*
X0015843Y0014960D01*
X0015843Y0016140D02*
X0019980Y0016140D01*
X0019980Y0017319D02*
X0015843Y0017319D01*
X0015843Y0018499D02*
X0019980Y0018499D01*
X0019980Y0019678D02*
X0015843Y0019678D01*
X0015843Y0020858D02*
X0019980Y0020858D01*
X0019980Y0022038D02*
X0015843Y0022038D01*
X0015370Y0023217D02*
X0020555Y0023217D01*
X0038008Y0029543D02*
X0038008Y0034465D01*
X0031129Y0069222D02*
X0030528Y0069222D01*
X0029773Y0070402D02*
X0032103Y0070402D01*
X0041489Y0075120D02*
X0055417Y0075120D01*
X0055134Y0075120D02*
X0092142Y0075120D01*
X0091071Y0075120D02*
X0103165Y0075120D01*
X0103165Y0073941D02*
X0098386Y0073941D01*
X0098992Y0072761D02*
X0103165Y0072761D01*
X0103165Y0071581D02*
X0099038Y0071581D01*
X0098594Y0070402D02*
X0103165Y0070402D01*
X0103165Y0076300D02*
X0090106Y0076300D01*
X0091187Y0077480D02*
X0103165Y0077480D01*
X0103165Y0078659D02*
X0091478Y0078659D01*
X0092142Y0078659D02*
X0055134Y0078659D01*
X0055010Y0078659D02*
X0043913Y0078659D01*
X0043595Y0077480D02*
X0055302Y0077480D01*
X0055134Y0077480D02*
X0092142Y0077480D01*
X0092142Y0076300D02*
X0055134Y0076300D01*
X0056382Y0076300D02*
X0042939Y0076300D01*
X0043913Y0082198D02*
X0103165Y0082198D01*
X0103165Y0088096D02*
X0074031Y0088096D01*
X0074031Y0089276D02*
X0080458Y0089276D01*
X0079921Y0090455D02*
X0074031Y0090455D01*
X0073697Y0091635D02*
X0079972Y0091635D01*
X0080627Y0092815D02*
X0065862Y0092815D01*
X0065730Y0093994D02*
X0080758Y0093994D01*
X0081411Y0095174D02*
X0065077Y0095174D01*
X0064780Y0097533D02*
X0065961Y0097533D01*
X0065961Y0098713D02*
X0064780Y0098713D01*
X0064780Y0099892D02*
X0065961Y0099892D01*
X0064779Y0101072D02*
X0042764Y0101072D01*
X0043522Y0099892D02*
X0061417Y0099892D01*
X0061417Y0098713D02*
X0043913Y0098713D01*
X0043913Y0097533D02*
X0061525Y0097533D01*
X0061417Y0101098D02*
X0064779Y0101098D01*
X0064780Y0101098D02*
X0064780Y0104461D01*
X0062798Y0104461D01*
X0062394Y0104352D01*
X0062031Y0104143D01*
X0061735Y0103847D01*
X0061526Y0103484D01*
X0061417Y0103079D01*
X0061417Y0101098D01*
X0061417Y0102251D02*
X0041067Y0102251D01*
X0039913Y0103431D02*
X0061512Y0103431D01*
X0064780Y0103431D02*
X0065961Y0103431D01*
X0065961Y0102251D02*
X0064780Y0102251D01*
X0070117Y0104611D02*
X0054480Y0104611D01*
X0050011Y0109329D02*
X0041756Y0109329D01*
X0041388Y0108149D02*
X0049065Y0108149D01*
X0048736Y0106970D02*
X0041019Y0106970D01*
X0040651Y0105790D02*
X0048849Y0105790D01*
X0049489Y0104611D02*
X0040282Y0104611D01*
X0042862Y0112868D02*
X0050036Y0112868D01*
X0049170Y0113226D02*
X0051124Y0112417D01*
X0053238Y0112417D01*
X0055192Y0113226D01*
X0056687Y0114722D01*
X0057496Y0116675D01*
X0057496Y0118789D01*
X0056687Y0120743D01*
X0055192Y0122238D01*
X0053238Y0123047D01*
X0051124Y0123047D01*
X0049170Y0122238D01*
X0047675Y0120743D01*
X0046866Y0118789D01*
X0046866Y0116675D01*
X0047675Y0114722D01*
X0049170Y0113226D01*
X0048349Y0114048D02*
X0043231Y0114048D01*
X0043600Y0115227D02*
X0047466Y0115227D01*
X0046977Y0116407D02*
X0043968Y0116407D01*
X0044146Y0117586D02*
X0046866Y0117586D01*
X0046866Y0118766D02*
X0044040Y0118766D01*
X0043687Y0119946D02*
X0047345Y0119946D01*
X0048058Y0121125D02*
X0043069Y0121125D01*
X0041832Y0122305D02*
X0049332Y0122305D01*
X0055031Y0122305D02*
X0063111Y0122305D01*
X0062950Y0122238D02*
X0061455Y0120743D01*
X0060646Y0118789D01*
X0060646Y0116675D01*
X0061455Y0114722D01*
X0062950Y0113226D01*
X0064903Y0112417D01*
X0067018Y0112417D01*
X0068971Y0113226D01*
X0070466Y0114722D01*
X0071276Y0116675D01*
X0071276Y0118789D01*
X0070466Y0120743D01*
X0068971Y0122238D01*
X0067018Y0123047D01*
X0064903Y0123047D01*
X0062950Y0122238D01*
X0061837Y0121125D02*
X0056305Y0121125D01*
X0057017Y0119946D02*
X0061125Y0119946D01*
X0060646Y0118766D02*
X0057496Y0118766D01*
X0057496Y0117586D02*
X0060646Y0117586D01*
X0060757Y0116407D02*
X0057385Y0116407D01*
X0056896Y0115227D02*
X0061245Y0115227D01*
X0062129Y0114048D02*
X0056013Y0114048D01*
X0054326Y0112868D02*
X0063816Y0112868D01*
X0068106Y0112868D02*
X0077595Y0112868D01*
X0076729Y0113226D02*
X0078683Y0112417D01*
X0080797Y0112417D01*
X0082751Y0113226D01*
X0084246Y0114722D01*
X0085055Y0116675D01*
X0085055Y0118789D01*
X0084246Y0120743D01*
X0082751Y0122238D01*
X0080797Y0123047D01*
X0078683Y0123047D01*
X0076729Y0122238D01*
X0075234Y0120743D01*
X0074425Y0118789D01*
X0074425Y0116675D01*
X0075234Y0114722D01*
X0076729Y0113226D01*
X0075908Y0114048D02*
X0069792Y0114048D01*
X0070676Y0115227D02*
X0075025Y0115227D01*
X0074536Y0116407D02*
X0071164Y0116407D01*
X0071276Y0117586D02*
X0074425Y0117586D01*
X0074425Y0118766D02*
X0071276Y0118766D01*
X0070797Y0119946D02*
X0074904Y0119946D01*
X0075617Y0121125D02*
X0070084Y0121125D01*
X0068810Y0122305D02*
X0076891Y0122305D01*
X0082590Y0122305D02*
X0090670Y0122305D01*
X0090509Y0122238D02*
X0089014Y0120743D01*
X0088205Y0118789D01*
X0088205Y0116675D01*
X0089014Y0114722D01*
X0090509Y0113226D01*
X0092462Y0112417D01*
X0094577Y0112417D01*
X0096530Y0113226D01*
X0098025Y0114722D01*
X0098835Y0116675D01*
X0098835Y0118789D01*
X0098025Y0120743D01*
X0096530Y0122238D01*
X0094577Y0123047D01*
X0092462Y0123047D01*
X0090509Y0122238D01*
X0089396Y0121125D02*
X0083864Y0121125D01*
X0084576Y0119946D02*
X0088684Y0119946D01*
X0088205Y0118766D02*
X0085055Y0118766D01*
X0085055Y0117586D02*
X0088205Y0117586D01*
X0088316Y0116407D02*
X0084944Y0116407D01*
X0084455Y0115227D02*
X0088804Y0115227D01*
X0089688Y0114048D02*
X0083572Y0114048D01*
X0081885Y0112868D02*
X0091375Y0112868D01*
X0095665Y0112868D02*
X0102571Y0112868D01*
X0101984Y0114048D02*
X0097351Y0114048D01*
X0098235Y0115227D02*
X0101984Y0115227D01*
X0101984Y0116407D02*
X0098723Y0116407D01*
X0098835Y0117586D02*
X0101984Y0117586D01*
X0101984Y0118766D02*
X0098835Y0118766D01*
X0098356Y0119946D02*
X0101984Y0119946D01*
X0101984Y0121125D02*
X0097643Y0121125D01*
X0096369Y0122305D02*
X0102280Y0122305D01*
X0114780Y0124664D02*
X0011548Y0124664D01*
X0011630Y0125844D02*
X0114780Y0125844D01*
X0114780Y0127023D02*
X0011351Y0127023D01*
X0010583Y0128203D02*
X0114780Y0128203D01*
X0114780Y0129383D02*
X0003362Y0129383D01*
X0003362Y0130562D02*
X0114780Y0130562D01*
X0103165Y0103431D02*
X0100800Y0103431D01*
X0101520Y0102251D02*
X0103165Y0102251D01*
X0103165Y0101072D02*
X0101689Y0101072D01*
X0101416Y0099892D02*
X0103165Y0099892D01*
X0103165Y0098713D02*
X0100550Y0098713D01*
X0103165Y0097533D02*
X0092558Y0097533D01*
X0092998Y0098713D02*
X0096332Y0098713D01*
X0095466Y0099892D02*
X0094178Y0099892D01*
X0088615Y0093994D02*
X0103165Y0093994D01*
X0103165Y0092815D02*
X0088469Y0092815D01*
X0087681Y0091635D02*
X0103165Y0091635D01*
X0103165Y0090455D02*
X0085465Y0090455D01*
X0084928Y0089276D02*
X0103165Y0089276D01*
X0103165Y0095174D02*
X0088239Y0095174D01*
X0086720Y0096353D02*
X0103165Y0096353D01*
X0082299Y0100803D02*
X0082004Y0100508D01*
X0073244Y0100508D01*
X0076371Y0104611D02*
X0079664Y0104611D01*
X0078953Y0103431D02*
X0077378Y0103431D01*
X0077378Y0097533D02*
X0079127Y0097533D01*
X0076565Y0081018D02*
X0075041Y0081018D01*
X0071447Y0081018D02*
X0069923Y0081018D01*
X0033112Y0119946D02*
X0029458Y0119946D01*
X0029937Y0118766D02*
X0032744Y0118766D01*
X0032375Y0117586D02*
X0029937Y0117586D01*
X0029826Y0116407D02*
X0032006Y0116407D01*
X0031638Y0115227D02*
X0029337Y0115227D01*
X0028454Y0114048D02*
X0031269Y0114048D01*
X0030901Y0112868D02*
X0026767Y0112868D01*
X0028746Y0121125D02*
X0033798Y0121125D01*
X0034828Y0122305D02*
X0027472Y0122305D01*
X0021773Y0122305D02*
X0013177Y0122305D01*
X0014710Y0121125D02*
X0020499Y0121125D01*
X0019786Y0119946D02*
X0015477Y0119946D01*
X0006975Y0121125D02*
X0003362Y0121125D01*
X0003362Y0119946D02*
X0006208Y0119946D01*
X0005808Y0118766D02*
X0003362Y0118766D01*
X0003362Y0122305D02*
X0006087Y0122305D01*
X0004722Y0123484D02*
X0003362Y0123484D01*
X0003362Y0124664D02*
X0004232Y0124664D01*
X0004150Y0125844D02*
X0003362Y0125844D01*
X0003362Y0127023D02*
X0004428Y0127023D01*
X0005197Y0128203D02*
X0003362Y0128203D01*
D28*
X0023638Y0098047D02*
X0039386Y0098047D01*
X0039386Y0079150D01*
X0023638Y0079150D01*
X0023638Y0098047D01*
X0023638Y0096437D02*
X0039386Y0096437D01*
X0039386Y0092501D02*
X0023638Y0092501D01*
X0023638Y0088566D02*
X0039386Y0088566D01*
X0039386Y0084630D02*
X0023638Y0084630D01*
X0023638Y0080695D02*
X0039386Y0080695D01*
D29*
X0031512Y0095685D02*
X0038402Y0117732D01*
D30*
X0074819Y0049674D02*
X0082693Y0049674D01*
X0090567Y0049674D01*
M02*
