%
M48
M72
T01C0.0120
T02C0.0138
T03C0.0157
T04C0.0197
T05C0.0472
%
T01
X1957Y592
X2035Y1143
X2035Y1694
X1957Y2167
X3059Y2167
X3098Y1773
X3059Y1380
X3098Y986
X3059Y513
X5067Y592
X5146Y986
X5067Y1380
X5146Y1694
X5067Y2009
X6248Y2718
X6720Y2718
X7823Y3191
X8138Y2561
X8098Y1852
X8098Y1380
X9634Y3584
X8925Y5710
X8453Y5631
X7980Y5710
X6642Y5710
X6248Y5553
X6563Y5159
X4594Y5080
X4673Y4372
X4122Y3506
X2941Y4529
X2783Y4135
X2862Y5080
X3177Y5553
X2862Y7285
X6130Y9372
X6287Y9175
X6484Y9332
X6563Y9096
X8453Y9096
X8531Y9332
X8768Y9372
X9634Y9883
X9555Y10277
T02
X9043Y7876
X8531Y7876
X8531Y7364
X8531Y6852
X9043Y6852
X9043Y7364
X8020Y7364
X8020Y7876
X7508Y7876
X6996Y7876
X6484Y7876
X6484Y7364
X6484Y6852
X6996Y6852
X6996Y7364
X7508Y7364
X7508Y6852
X8020Y6852
X5972Y6852
X5972Y7364
X5972Y7876
T03
X5815Y9135
X3965Y8860
X3965Y9569
X3335Y9569
X2705Y9569
X2705Y8860
X3335Y8860
X3335Y8072
X2705Y8072
X3965Y8072
X9791Y7206
T04
X10028Y10120
X6130Y10395
X5382Y10671
T05
X5402Y11773
X6780Y11773
X8157Y11773
X9535Y11773
X10913Y11773
X4024Y11773
X2646Y11773
X1268Y11773
M30
