G75*
%MOIN*%
%OFA0B0*%
%FSLAX24Y24*%
%IPPOS*%
%LPD*%
%AMOC8*
5,1,8,0,0,1.08239X$1,22.5*
%
%ADD10C,0.0000*%
%ADD11C,0.0040*%
%ADD12R,0.0500X0.1654*%
%ADD13R,0.0236X0.0354*%
%ADD14C,0.0258*%
%ADD15R,0.0500X0.0250*%
%ADD16R,0.0591X0.0630*%
%ADD17R,0.0472X0.0472*%
%ADD18R,0.0315X0.0472*%
%ADD19R,0.0472X0.0217*%
%ADD20R,0.0472X0.0315*%
%ADD21R,0.0709X0.0709*%
%ADD22C,0.0709*%
%ADD23C,0.0394*%
%ADD24C,0.0200*%
%ADD25C,0.0295*%
%ADD26C,0.0237*%
%ADD27C,0.0118*%
%ADD28C,0.0394*%
%ADD29C,0.0787*%
%ADD30C,0.0197*%
D10*
X001591Y000198D02*
X001591Y002167D01*
X000343Y002167D01*
X000343Y013269D01*
X011839Y013269D01*
X011839Y002167D01*
X010591Y002167D01*
X010591Y000198D01*
X001591Y000198D01*
D11*
X010835Y008014D02*
X010835Y008141D01*
X010878Y008184D01*
X010920Y008184D01*
X010963Y008141D01*
X010963Y008014D01*
X010963Y008141D02*
X011005Y008184D01*
X011048Y008184D01*
X011090Y008141D01*
X011090Y008014D01*
X010835Y008014D01*
X010878Y008286D02*
X010835Y008328D01*
X010835Y008413D01*
X010878Y008456D01*
X011048Y008456D01*
X011090Y008413D01*
X011090Y008328D01*
X011048Y008286D01*
X010878Y008286D01*
X011090Y008557D02*
X011090Y008728D01*
X011090Y008643D02*
X010835Y008643D01*
X010835Y008915D02*
X011090Y008915D01*
X011090Y009000D02*
X011090Y008829D01*
X011307Y008829D02*
X011307Y009000D01*
X011307Y009101D02*
X011563Y009101D01*
X011563Y009229D01*
X011520Y009272D01*
X011435Y009272D01*
X011393Y009229D01*
X011393Y009101D01*
X011393Y009186D02*
X011307Y009272D01*
X011090Y009229D02*
X011048Y009272D01*
X010878Y009272D01*
X010835Y009229D01*
X010835Y009144D01*
X010878Y009101D01*
X011048Y009101D01*
X011090Y009144D01*
X011090Y009229D01*
X011090Y009373D02*
X010835Y009373D01*
X010835Y009543D02*
X011090Y009543D01*
X011005Y009458D01*
X011090Y009373D01*
X011435Y008915D02*
X011435Y008829D01*
X011563Y008829D02*
X011307Y008829D01*
X011307Y008643D02*
X011435Y008643D01*
X011520Y008728D01*
X011563Y008728D01*
X011563Y008829D02*
X011563Y009000D01*
X011435Y008643D02*
X011520Y008557D01*
X011563Y008557D01*
X011478Y008456D02*
X011563Y008371D01*
X011478Y008286D01*
X011307Y008286D01*
X011307Y008184D02*
X011307Y008014D01*
X011563Y008014D01*
X011435Y008286D02*
X011435Y008456D01*
X011478Y008456D02*
X011307Y008456D01*
D12*
X009591Y001372D03*
X008591Y001372D03*
X007591Y001372D03*
X006591Y001372D03*
X005591Y001372D03*
X004591Y001372D03*
X003591Y001372D03*
X002591Y001372D03*
D13*
X003339Y004076D03*
X003713Y004076D03*
X004087Y004076D03*
X004087Y004982D03*
X003713Y004982D03*
X003339Y004982D03*
D14*
X005972Y006852D03*
X005972Y007364D03*
X005972Y007876D03*
X006484Y007876D03*
X006996Y007876D03*
X007508Y007876D03*
X008020Y007876D03*
X008020Y007364D03*
X008020Y006852D03*
X007508Y006852D03*
X007508Y007364D03*
X006996Y007364D03*
X006484Y007364D03*
X006484Y006852D03*
X006996Y006852D03*
X008531Y006852D03*
X008531Y007364D03*
X008531Y007876D03*
X009043Y007876D03*
X009043Y007364D03*
X009043Y006852D03*
D15*
X009240Y005351D03*
X009240Y004967D03*
X008453Y004967D03*
X008453Y005351D03*
X007665Y005351D03*
X007665Y004967D03*
D16*
X007114Y008742D03*
D17*
X006720Y010051D03*
X007508Y010051D03*
D18*
X008413Y010080D03*
X009122Y010080D03*
X003610Y006655D03*
X003610Y006025D03*
X002902Y006025D03*
X002902Y006655D03*
X003295Y002954D03*
X004004Y002954D03*
X008886Y002876D03*
X009594Y002876D03*
D19*
X006760Y003289D03*
X006760Y004037D03*
X005736Y004037D03*
X005736Y003663D03*
X005736Y003289D03*
D20*
X005776Y004962D03*
X005776Y005671D03*
D21*
X010913Y011773D03*
D22*
X009535Y011773D03*
X008157Y011773D03*
X006780Y011773D03*
X005402Y011773D03*
X004024Y011773D03*
X002646Y011773D03*
X001268Y011773D03*
D23*
X000972Y012561D03*
X009949Y004214D03*
D24*
X009634Y003584D03*
X008138Y002561D03*
X007823Y003191D03*
X006720Y002718D03*
X006248Y002718D03*
X005067Y002009D03*
X005146Y001694D03*
X005067Y001380D03*
X005146Y000986D03*
X005067Y000592D03*
X003098Y000986D03*
X003059Y001380D03*
X003098Y001773D03*
X003059Y002167D03*
X001957Y002167D03*
X002035Y001694D03*
X002035Y001143D03*
X001957Y000592D03*
X003059Y000513D03*
X004122Y003506D03*
X004673Y004372D03*
X004594Y005080D03*
X003177Y005553D03*
X002862Y005080D03*
X002941Y004529D03*
X002783Y004135D03*
X002862Y007285D03*
X006130Y009372D03*
X006287Y009175D03*
X006484Y009332D03*
X006563Y009096D03*
X008453Y009096D03*
X008531Y009332D03*
X008768Y009372D03*
X009634Y009883D03*
X009555Y010277D03*
X008925Y005710D03*
X008453Y005631D03*
X007980Y005710D03*
X006642Y005710D03*
X006248Y005553D03*
X006563Y005159D03*
X008098Y001852D03*
X008098Y001380D03*
D25*
X010028Y010120D03*
X006130Y010395D03*
X005382Y010671D03*
D26*
X005815Y009135D03*
X003965Y008860D03*
X003965Y009569D03*
X003335Y009569D03*
X002705Y009569D03*
X002705Y008860D03*
X003335Y008860D03*
X003335Y008072D03*
X002705Y008072D03*
X003965Y008072D03*
X009791Y007206D03*
D27*
X009495Y007195D02*
X009277Y007195D01*
X009267Y007180D02*
X009298Y007227D01*
X009320Y007280D01*
X009331Y007335D01*
X009331Y007364D01*
X009331Y007392D01*
X009320Y007448D01*
X009298Y007500D01*
X009267Y007547D01*
X009227Y007587D01*
X009180Y007619D01*
X009178Y007620D01*
X009180Y007620D01*
X009227Y007652D01*
X009267Y007692D01*
X009298Y007739D01*
X009320Y007792D01*
X009331Y007847D01*
X009331Y007876D01*
X009331Y007904D01*
X009320Y007960D01*
X009298Y008012D01*
X009267Y008059D01*
X009227Y008099D01*
X009180Y008131D01*
X009127Y008152D01*
X009072Y008164D01*
X009043Y008164D01*
X009015Y008164D01*
X008959Y008152D01*
X008907Y008131D01*
X008860Y008099D01*
X008820Y008059D01*
X008788Y008012D01*
X008787Y008010D01*
X008787Y008012D01*
X008755Y008059D01*
X008715Y008099D01*
X008668Y008131D01*
X008615Y008152D01*
X008560Y008164D01*
X008532Y008164D01*
X008532Y007876D01*
X009043Y007876D01*
X009043Y008164D01*
X009043Y007876D01*
X009043Y007876D01*
X009043Y007876D01*
X008755Y007876D01*
X008532Y007876D01*
X008532Y007876D01*
X008531Y007876D01*
X008531Y008164D01*
X008503Y008164D01*
X008448Y008152D01*
X008395Y008131D01*
X008348Y008099D01*
X008308Y008059D01*
X008276Y008012D01*
X008276Y008010D01*
X008275Y008012D01*
X008243Y008059D01*
X008203Y008099D01*
X008156Y008131D01*
X008104Y008152D01*
X008048Y008164D01*
X008020Y008164D01*
X008020Y007876D01*
X008020Y007876D01*
X008531Y007876D01*
X008531Y007876D01*
X008244Y007876D01*
X008020Y007876D01*
X008020Y007876D01*
X008020Y008164D01*
X007991Y008164D01*
X007936Y008152D01*
X007883Y008131D01*
X007836Y008099D01*
X007796Y008059D01*
X007765Y008012D01*
X007764Y008010D01*
X007763Y008012D01*
X007732Y008059D01*
X007691Y008099D01*
X007644Y008131D01*
X007592Y008152D01*
X007536Y008164D01*
X007508Y008164D01*
X007508Y007876D01*
X007508Y007876D01*
X007508Y008164D01*
X007480Y008164D01*
X007424Y008152D01*
X007371Y008131D01*
X007324Y008099D01*
X007284Y008059D01*
X007253Y008012D01*
X007252Y008010D01*
X007251Y008012D01*
X007220Y008059D01*
X007180Y008099D01*
X007132Y008131D01*
X007080Y008152D01*
X007024Y008164D01*
X006996Y008164D01*
X006968Y008164D01*
X006912Y008152D01*
X006860Y008131D01*
X006813Y008099D01*
X006772Y008059D01*
X006741Y008012D01*
X006740Y008010D01*
X006739Y008012D01*
X006708Y008059D01*
X006668Y008099D01*
X006621Y008131D01*
X006568Y008152D01*
X006513Y008164D01*
X006484Y008164D01*
X006456Y008164D01*
X006400Y008152D01*
X006348Y008131D01*
X006301Y008099D01*
X006261Y008059D01*
X006229Y008012D01*
X006228Y008010D01*
X006228Y008012D01*
X006196Y008059D01*
X006156Y008099D01*
X006109Y008131D01*
X006056Y008152D01*
X006001Y008164D01*
X005972Y008164D01*
X005944Y008164D01*
X005888Y008152D01*
X005836Y008131D01*
X005789Y008099D01*
X005749Y008059D01*
X005717Y008012D01*
X005696Y007960D01*
X005684Y007904D01*
X005684Y007876D01*
X005972Y007876D01*
X005972Y008164D01*
X005972Y007876D01*
X005972Y007876D01*
X005972Y007876D01*
X005684Y007876D01*
X005684Y007847D01*
X005696Y007792D01*
X005717Y007739D01*
X005749Y007692D01*
X005789Y007652D01*
X005836Y007620D01*
X005838Y007620D01*
X005836Y007619D01*
X005789Y007587D01*
X005749Y007547D01*
X005717Y007500D01*
X005696Y007448D01*
X005684Y007392D01*
X005684Y007364D01*
X005972Y007364D01*
X005972Y007364D01*
X005972Y007876D01*
X005972Y007876D01*
X006484Y007876D01*
X006484Y008164D01*
X006484Y007876D01*
X006484Y007876D01*
X006484Y007876D01*
X006196Y007876D01*
X005972Y007876D01*
X005972Y007876D01*
X005972Y007652D01*
X005972Y007364D01*
X005972Y007364D01*
X005684Y007364D01*
X005684Y007335D01*
X005696Y007280D01*
X005717Y007227D01*
X005749Y007180D01*
X005789Y007140D01*
X005836Y007109D01*
X005838Y007108D01*
X005836Y007107D01*
X005789Y007076D01*
X005749Y007036D01*
X005717Y006988D01*
X005696Y006936D01*
X005684Y006880D01*
X005684Y006852D01*
X005972Y006852D01*
X005972Y006852D01*
X005684Y006852D01*
X005684Y006824D01*
X005696Y006768D01*
X005717Y006716D01*
X005749Y006668D01*
X005789Y006628D01*
X005836Y006597D01*
X005888Y006575D01*
X005944Y006564D01*
X005972Y006564D01*
X005972Y006852D01*
X005972Y007076D01*
X005972Y007364D01*
X005972Y007364D01*
X006260Y007364D01*
X006484Y007364D01*
X006484Y007364D01*
X006484Y007876D01*
X006996Y007876D01*
X006996Y008164D01*
X006996Y007876D01*
X006996Y007876D01*
X006996Y007876D01*
X007508Y007876D01*
X008020Y007876D01*
X008020Y007876D01*
X008020Y007364D01*
X008308Y007364D01*
X008531Y007364D01*
X008531Y007364D01*
X008531Y007588D01*
X008531Y007876D01*
X008532Y007876D01*
X008532Y007364D01*
X008755Y007364D01*
X009043Y007364D01*
X009043Y007652D01*
X009043Y007876D01*
X009331Y007876D01*
X009043Y007876D01*
X009043Y007876D01*
X009043Y007876D01*
X009043Y007364D01*
X009043Y007364D01*
X009043Y007364D01*
X008532Y007364D01*
X008532Y007364D01*
X008531Y007364D01*
X008020Y007364D01*
X008020Y007364D01*
X008020Y007364D01*
X008020Y007588D01*
X008020Y007876D01*
X008020Y007876D01*
X007732Y007876D01*
X007508Y007876D01*
X007508Y007876D01*
X007508Y007876D01*
X007220Y007876D01*
X006996Y007876D01*
X006996Y007876D01*
X006708Y007876D01*
X006484Y007876D01*
X006484Y007876D01*
X006484Y007876D01*
X006484Y007652D01*
X006484Y007364D01*
X006484Y007364D01*
X005972Y007364D01*
X005972Y007364D01*
X005972Y006852D01*
X005972Y006852D01*
X005972Y006852D01*
X005972Y006564D01*
X006001Y006564D01*
X006056Y006575D01*
X006109Y006597D01*
X006156Y006628D01*
X006196Y006668D01*
X006228Y006716D01*
X006228Y006717D01*
X006229Y006716D01*
X006261Y006668D01*
X006301Y006628D01*
X006348Y006597D01*
X006400Y006575D01*
X006456Y006564D01*
X006484Y006564D01*
X006484Y006852D01*
X006484Y006852D01*
X006260Y006852D01*
X005972Y006852D01*
X005972Y006852D01*
X006484Y006852D01*
X006484Y007076D01*
X006484Y007364D01*
X006484Y007364D01*
X006772Y007364D01*
X006996Y007364D01*
X006996Y007876D01*
X006996Y007876D01*
X006996Y007652D01*
X006996Y007364D01*
X006996Y007364D01*
X006996Y007364D01*
X007284Y007364D01*
X007508Y007364D01*
X007508Y007364D01*
X007508Y007652D01*
X007508Y007876D01*
X007508Y007876D01*
X007508Y007364D01*
X008020Y007364D01*
X008020Y006852D01*
X008308Y006852D01*
X008531Y006852D01*
X008531Y006852D01*
X008020Y006852D01*
X008020Y006852D01*
X008020Y006852D01*
X008020Y006564D01*
X008048Y006564D01*
X008104Y006575D01*
X008156Y006597D01*
X008203Y006628D01*
X008243Y006668D01*
X008275Y006716D01*
X008276Y006717D01*
X008276Y006716D01*
X008308Y006668D01*
X008348Y006628D01*
X008395Y006597D01*
X008448Y006575D01*
X008503Y006564D01*
X008531Y006564D01*
X008531Y006852D01*
X008531Y007364D01*
X008532Y007364D01*
X008532Y007076D01*
X008532Y006852D01*
X008819Y006852D01*
X009043Y006852D01*
X009043Y006852D01*
X008532Y006852D01*
X008532Y006852D01*
X008531Y006852D01*
X008532Y006852D01*
X008532Y006564D01*
X008560Y006564D01*
X008615Y006575D01*
X008668Y006597D01*
X008715Y006628D01*
X008755Y006668D01*
X008787Y006716D01*
X008787Y006717D01*
X008788Y006716D01*
X008820Y006668D01*
X008860Y006628D01*
X008907Y006597D01*
X008959Y006575D01*
X009015Y006564D01*
X009043Y006564D01*
X009043Y006852D01*
X009043Y007140D01*
X009043Y007364D01*
X009043Y007364D01*
X009331Y007364D01*
X009043Y007364D01*
X009043Y007364D01*
X009043Y006852D01*
X009043Y006852D01*
X009043Y006852D01*
X009043Y006564D01*
X009072Y006564D01*
X009127Y006575D01*
X009180Y006597D01*
X009227Y006628D01*
X009267Y006668D01*
X009298Y006716D01*
X009320Y006768D01*
X009331Y006824D01*
X009331Y006852D01*
X009331Y006880D01*
X009320Y006936D01*
X009298Y006988D01*
X009267Y007036D01*
X009227Y007076D01*
X009180Y007107D01*
X009178Y007108D01*
X009180Y007109D01*
X009227Y007140D01*
X009267Y007180D01*
X009223Y007078D02*
X009524Y007078D01*
X009540Y007039D02*
X009624Y006955D01*
X009732Y006910D01*
X009850Y006910D01*
X009959Y006955D01*
X010042Y007039D01*
X010087Y007147D01*
X010087Y007265D01*
X010042Y007374D01*
X009959Y007457D01*
X009850Y007502D01*
X009732Y007502D01*
X009624Y007457D01*
X009540Y007374D01*
X009495Y007265D01*
X009495Y007147D01*
X009540Y007039D01*
X009617Y006962D02*
X009309Y006962D01*
X009398Y006962D02*
X005697Y006962D01*
X005706Y006962D02*
X003911Y006962D01*
X003916Y006953D02*
X003895Y006989D01*
X003865Y007019D01*
X003829Y007040D01*
X003789Y007050D01*
X003630Y007050D01*
X003630Y006675D01*
X003591Y006675D01*
X003591Y007050D01*
X003432Y007050D01*
X003391Y007040D01*
X003355Y007019D01*
X003325Y006989D01*
X003305Y006953D01*
X003294Y006912D01*
X003294Y006873D01*
X003275Y006891D01*
X003236Y006891D01*
X003236Y006965D01*
X003132Y007069D01*
X003112Y007069D01*
X003107Y007152D01*
X003139Y007230D01*
X003139Y007340D01*
X003097Y007442D01*
X003077Y007462D01*
X004212Y007462D01*
X004379Y007531D01*
X004506Y007658D01*
X004575Y007825D01*
X004575Y009895D01*
X004506Y010061D01*
X004379Y010189D01*
X004212Y010257D01*
X004148Y010257D01*
X004602Y011711D01*
X004582Y011938D01*
X004477Y012139D01*
X004302Y012284D01*
X004086Y012352D01*
X003859Y012332D01*
X003658Y012226D01*
X003513Y012052D01*
X002952Y010257D01*
X002457Y010257D01*
X002291Y010189D01*
X002163Y010061D01*
X002094Y009895D01*
X002094Y007825D01*
X002163Y007658D01*
X002291Y007531D01*
X002457Y007462D01*
X002647Y007462D01*
X002627Y007442D01*
X002585Y007340D01*
X002585Y007230D01*
X002627Y007128D01*
X002636Y007119D01*
X002641Y007039D01*
X002567Y006965D01*
X002567Y006346D01*
X002572Y006340D01*
X002567Y006335D01*
X002567Y005716D01*
X002671Y005612D01*
X002869Y005612D01*
X002900Y005559D01*
X002900Y005498D01*
X002942Y005396D01*
X003020Y005318D01*
X003097Y005286D01*
X003073Y005262D01*
X003019Y005315D01*
X002917Y005358D01*
X002807Y005358D01*
X002705Y005315D01*
X002627Y005237D01*
X002585Y005135D01*
X002585Y005025D01*
X002627Y004923D01*
X002705Y004845D01*
X002804Y004804D01*
X002827Y004782D01*
X002784Y004764D01*
X002706Y004686D01*
X002664Y004584D01*
X002664Y004474D01*
X002695Y004399D01*
X002626Y004370D01*
X002548Y004292D01*
X002506Y004191D01*
X002506Y004080D01*
X002548Y003978D01*
X002626Y003900D01*
X002725Y003859D01*
X002745Y003840D01*
X003043Y003840D01*
X003043Y003826D01*
X003147Y003722D01*
X003375Y003722D01*
X003059Y003407D01*
X003059Y003362D01*
X002961Y003264D01*
X002961Y002645D01*
X003064Y002541D01*
X003321Y002541D01*
X003354Y002498D01*
X003354Y002376D01*
X003267Y002376D01*
X003163Y002272D01*
X003163Y000471D01*
X003259Y000376D01*
X001768Y000376D01*
X001768Y002240D01*
X001720Y002288D01*
X001720Y010435D01*
X000520Y010435D01*
X000520Y013092D01*
X011661Y013092D01*
X011661Y010435D01*
X010500Y010435D01*
X010500Y002327D01*
X010413Y002240D01*
X010413Y000376D01*
X009922Y000376D01*
X010018Y000471D01*
X010018Y002272D01*
X009914Y002376D01*
X009827Y002376D01*
X009827Y002464D01*
X009929Y002566D01*
X009929Y003185D01*
X009870Y003244D01*
X009870Y003430D01*
X009911Y003529D01*
X009911Y003639D01*
X009869Y003741D01*
X009791Y003819D01*
X009689Y003861D01*
X009579Y003861D01*
X009477Y003819D01*
X009399Y003741D01*
X009357Y003639D01*
X009357Y003529D01*
X009398Y003430D01*
X009398Y003289D01*
X009364Y003289D01*
X009260Y003185D01*
X009260Y002566D01*
X009354Y002471D01*
X009354Y002376D01*
X009267Y002376D01*
X009163Y002272D01*
X009163Y000471D01*
X009259Y000376D01*
X008922Y000376D01*
X009018Y000471D01*
X009018Y002272D01*
X008914Y002376D01*
X008345Y002376D01*
X008373Y002404D01*
X008414Y002503D01*
X008551Y002639D01*
X008551Y002566D01*
X008655Y002462D01*
X009117Y002462D01*
X009220Y002566D01*
X009220Y003185D01*
X009117Y003289D01*
X008655Y003289D01*
X008551Y003185D01*
X008551Y003112D01*
X008355Y003112D01*
X008080Y002837D01*
X007981Y002796D01*
X007903Y002718D01*
X007861Y002616D01*
X007861Y002505D01*
X007903Y002404D01*
X007981Y002326D01*
X008083Y002283D01*
X008175Y002283D01*
X008163Y002272D01*
X008163Y002125D01*
X008154Y002129D01*
X008043Y002129D01*
X008018Y002119D01*
X008018Y002272D01*
X007914Y002376D01*
X007827Y002376D01*
X007827Y002860D01*
X007881Y002915D01*
X007980Y002956D01*
X008058Y003034D01*
X008100Y003135D01*
X008100Y003246D01*
X008058Y003348D01*
X007980Y003426D01*
X007878Y003468D01*
X007768Y003468D01*
X007666Y003426D01*
X007588Y003348D01*
X007547Y003249D01*
X007354Y003056D01*
X007354Y002376D01*
X007267Y002376D01*
X007163Y002272D01*
X007163Y000471D01*
X007259Y000376D01*
X006922Y000376D01*
X007018Y000471D01*
X007018Y002272D01*
X006914Y002376D01*
X006827Y002376D01*
X006827Y002462D01*
X006877Y002483D01*
X006955Y002561D01*
X006998Y002663D01*
X006998Y002773D01*
X006955Y002875D01*
X006877Y002953D01*
X006776Y002995D01*
X006665Y002995D01*
X006563Y002953D01*
X006485Y002875D01*
X006484Y002872D01*
X006483Y002875D01*
X006405Y002953D01*
X006303Y002995D01*
X006193Y002995D01*
X006091Y002953D01*
X006013Y002875D01*
X005971Y002773D01*
X005971Y002663D01*
X006013Y002561D01*
X006091Y002483D01*
X006190Y002442D01*
X006262Y002370D01*
X006163Y002272D01*
X006163Y000471D01*
X006259Y000376D01*
X005922Y000376D01*
X006018Y000471D01*
X006018Y002272D01*
X005914Y002376D01*
X005901Y002376D01*
X005873Y002403D01*
X005303Y002403D01*
X005303Y003053D01*
X005377Y003053D01*
X005427Y003004D01*
X006046Y003004D01*
X006150Y003107D01*
X006150Y003471D01*
X006122Y003498D01*
X006131Y003534D01*
X006131Y003663D01*
X005736Y003663D01*
X005341Y003663D01*
X005341Y003534D01*
X005343Y003525D01*
X005303Y003525D01*
X005303Y003723D01*
X005341Y003760D01*
X005341Y003663D01*
X005736Y003663D01*
X005736Y003663D01*
X006131Y003663D01*
X006131Y003792D01*
X006122Y003828D01*
X006150Y003855D01*
X006150Y004219D01*
X006046Y004322D01*
X005427Y004322D01*
X005377Y004273D01*
X005186Y004273D01*
X004969Y004057D01*
X004831Y003918D01*
X004831Y002403D01*
X004260Y002403D01*
X004122Y002265D01*
X004122Y000494D01*
X004241Y000376D01*
X003922Y000376D01*
X004018Y000471D01*
X004018Y002272D01*
X003914Y002376D01*
X003827Y002376D01*
X003827Y002541D01*
X004235Y002541D01*
X004339Y002645D01*
X004339Y003264D01*
X004306Y003297D01*
X004357Y003348D01*
X004399Y003450D01*
X004399Y003561D01*
X004357Y003663D01*
X004288Y003732D01*
X004382Y003826D01*
X004382Y004038D01*
X004480Y004135D01*
X004519Y004135D01*
X004618Y004094D01*
X004728Y004094D01*
X004830Y004137D01*
X004908Y004215D01*
X004950Y004317D01*
X004950Y004427D01*
X004908Y004529D01*
X004830Y004607D01*
X004728Y004649D01*
X004618Y004649D01*
X004519Y004608D01*
X004284Y004608D01*
X004146Y004469D01*
X004107Y004431D01*
X003200Y004431D01*
X003218Y004474D01*
X003218Y004584D01*
X003200Y004628D01*
X003530Y004628D01*
X003554Y004651D01*
X003574Y004646D01*
X003713Y004646D01*
X003852Y004646D01*
X003872Y004651D01*
X003895Y004628D01*
X004278Y004628D01*
X004382Y004731D01*
X004382Y004746D01*
X004594Y004746D01*
X004653Y004804D01*
X004752Y004845D01*
X004829Y004923D01*
X004872Y005025D01*
X004872Y005135D01*
X004829Y005237D01*
X004752Y005315D01*
X004650Y005358D01*
X004539Y005358D01*
X004437Y005315D01*
X004368Y005246D01*
X004278Y005336D01*
X003895Y005336D01*
X003872Y005313D01*
X003852Y005318D01*
X003713Y005318D01*
X003713Y004982D01*
X003713Y004982D01*
X003713Y004646D01*
X003713Y004982D01*
X003713Y004982D01*
X003713Y005318D01*
X003574Y005318D01*
X003554Y005313D01*
X003530Y005336D01*
X003353Y005336D01*
X003412Y005396D01*
X003454Y005498D01*
X003454Y005608D01*
X003453Y005612D01*
X003841Y005612D01*
X003945Y005716D01*
X003945Y006335D01*
X003917Y006362D01*
X003927Y006398D01*
X003927Y006635D01*
X003630Y006635D01*
X003630Y006675D01*
X003927Y006675D01*
X003927Y006912D01*
X003916Y006953D01*
X003927Y006845D02*
X005684Y006845D01*
X005697Y006845D02*
X009398Y006845D01*
X009331Y006845D02*
X010500Y006845D01*
X010500Y006729D02*
X009304Y006729D01*
X009398Y006729D02*
X005697Y006729D01*
X005712Y006729D02*
X003927Y006729D01*
X003927Y006612D02*
X005813Y006612D01*
X005697Y006612D02*
X009398Y006612D01*
X009398Y006498D02*
X005697Y006498D01*
X005697Y008387D01*
X006648Y008347D01*
X006746Y008250D01*
X007483Y008250D01*
X007542Y008309D01*
X009398Y008230D01*
X009398Y006498D01*
X009202Y006612D02*
X010500Y006612D01*
X010500Y006495D02*
X003927Y006495D01*
X003922Y006379D02*
X010500Y006379D01*
X010500Y006262D02*
X003945Y006262D01*
X003945Y006146D02*
X010500Y006146D01*
X010500Y006029D02*
X003945Y006029D01*
X003945Y005912D02*
X005404Y005912D01*
X005412Y005926D02*
X005391Y005890D01*
X005380Y005849D01*
X005380Y005691D01*
X005756Y005691D01*
X005756Y005987D01*
X005518Y005987D01*
X005478Y005977D01*
X005442Y005956D01*
X005412Y005926D01*
X005380Y005796D02*
X003945Y005796D01*
X003908Y005679D02*
X005756Y005679D01*
X005756Y005691D02*
X005756Y005651D01*
X005795Y005651D01*
X005795Y005354D01*
X006033Y005354D01*
X006050Y005359D01*
X006091Y005318D01*
X006193Y005276D01*
X006303Y005276D01*
X006313Y005280D01*
X006286Y005214D01*
X006286Y005104D01*
X006327Y005005D01*
X006327Y004844D01*
X006189Y004844D01*
X006189Y005193D01*
X006085Y005297D01*
X005466Y005297D01*
X005362Y005193D01*
X005362Y004731D01*
X005466Y004628D01*
X005579Y004628D01*
X005697Y004510D01*
X005835Y004372D01*
X006938Y004372D01*
X006987Y004322D01*
X006450Y004322D01*
X006346Y004219D01*
X006346Y003855D01*
X006450Y003752D01*
X007069Y003752D01*
X007114Y003796D01*
X007114Y003682D01*
X007006Y003574D01*
X006450Y003574D01*
X006346Y003471D01*
X006346Y003107D01*
X006450Y003004D01*
X007069Y003004D01*
X007119Y003053D01*
X007153Y003053D01*
X007587Y003486D01*
X007587Y004391D01*
X007448Y004529D01*
X007246Y004731D01*
X007276Y004731D01*
X007342Y004665D01*
X007989Y004665D01*
X008015Y004692D01*
X008103Y004692D01*
X008129Y004665D01*
X008776Y004665D01*
X008803Y004692D01*
X008890Y004692D01*
X008917Y004665D01*
X009564Y004665D01*
X009667Y004769D01*
X009667Y005549D01*
X009564Y005653D01*
X009474Y005653D01*
X009181Y005946D01*
X009079Y005946D01*
X008980Y005987D01*
X008870Y005987D01*
X008768Y005945D01*
X008690Y005867D01*
X008666Y005810D01*
X008610Y005866D01*
X008508Y005909D01*
X008398Y005909D01*
X008296Y005866D01*
X008239Y005810D01*
X008215Y005867D01*
X008137Y005945D01*
X008035Y005987D01*
X007925Y005987D01*
X007826Y005946D01*
X007646Y005946D01*
X007568Y005868D01*
X007429Y005729D01*
X007429Y005653D01*
X007342Y005653D01*
X007266Y005577D01*
X007035Y005808D01*
X006897Y005946D01*
X006796Y005946D01*
X006697Y005987D01*
X006587Y005987D01*
X006485Y005945D01*
X006407Y005867D01*
X006378Y005799D01*
X006303Y005830D01*
X006193Y005830D01*
X006171Y005821D01*
X006171Y005849D01*
X006160Y005890D01*
X006139Y005926D01*
X006109Y005956D01*
X006073Y005977D01*
X006033Y005987D01*
X005795Y005987D01*
X005795Y005691D01*
X005756Y005691D01*
X005756Y005651D02*
X005380Y005651D01*
X005380Y005492D01*
X005391Y005452D01*
X005412Y005416D01*
X005442Y005386D01*
X005478Y005365D01*
X005518Y005354D01*
X005756Y005354D01*
X005756Y005651D01*
X005756Y005563D02*
X005795Y005563D01*
X005795Y005446D02*
X005756Y005446D01*
X006079Y005329D02*
X004718Y005329D01*
X004840Y005213D02*
X005382Y005213D01*
X005362Y005096D02*
X004872Y005096D01*
X004853Y004979D02*
X005362Y004979D01*
X005362Y004863D02*
X004769Y004863D01*
X004594Y004746D02*
X005362Y004746D01*
X005464Y004630D02*
X004775Y004630D01*
X004915Y004513D02*
X005694Y004513D01*
X005810Y004396D02*
X004950Y004396D01*
X004935Y004280D02*
X005384Y004280D01*
X005283Y004037D02*
X005067Y003820D01*
X005067Y003348D01*
X005126Y003289D01*
X005736Y003289D01*
X005736Y003663D02*
X005736Y003663D01*
X005736Y004037D02*
X005283Y004037D01*
X005076Y004163D02*
X004857Y004163D01*
X004959Y004047D02*
X004391Y004047D01*
X004382Y003930D02*
X004842Y003930D01*
X004831Y003813D02*
X004369Y003813D01*
X004323Y003697D02*
X004831Y003697D01*
X004831Y003580D02*
X004391Y003580D01*
X004399Y003464D02*
X004831Y003464D01*
X004831Y003347D02*
X004355Y003347D01*
X004339Y003230D02*
X004831Y003230D01*
X004831Y003114D02*
X004339Y003114D01*
X004339Y002997D02*
X004831Y002997D01*
X004831Y002880D02*
X004339Y002880D01*
X004339Y002764D02*
X004831Y002764D01*
X004831Y002647D02*
X004339Y002647D01*
X004155Y002297D02*
X003992Y002297D01*
X004018Y002181D02*
X004122Y002181D01*
X004122Y002064D02*
X004018Y002064D01*
X004018Y001948D02*
X004122Y001948D01*
X004122Y001831D02*
X004018Y001831D01*
X004018Y001714D02*
X004122Y001714D01*
X004122Y001598D02*
X004018Y001598D01*
X004018Y001481D02*
X004122Y001481D01*
X004122Y001365D02*
X004018Y001365D01*
X004018Y001248D02*
X004122Y001248D01*
X004122Y001131D02*
X004018Y001131D01*
X004018Y001015D02*
X004122Y001015D01*
X004122Y000898D02*
X004018Y000898D01*
X004018Y000781D02*
X004122Y000781D01*
X004122Y000665D02*
X004018Y000665D01*
X004018Y000548D02*
X004122Y000548D01*
X004185Y000432D02*
X003978Y000432D01*
X004358Y000592D02*
X004358Y002167D01*
X005776Y002167D01*
X005776Y000592D01*
X004358Y000592D01*
X004358Y000665D02*
X005776Y000665D01*
X005776Y000781D02*
X004358Y000781D01*
X004358Y000898D02*
X005776Y000898D01*
X005776Y001015D02*
X004358Y001015D01*
X004358Y001131D02*
X005776Y001131D01*
X005776Y001248D02*
X004358Y001248D01*
X004358Y001365D02*
X005776Y001365D01*
X005776Y001481D02*
X004358Y001481D01*
X004358Y001598D02*
X005776Y001598D01*
X005776Y001714D02*
X004358Y001714D01*
X004358Y001831D02*
X005776Y001831D01*
X005776Y001948D02*
X004358Y001948D01*
X004358Y002064D02*
X005776Y002064D01*
X006018Y002064D02*
X006163Y002064D01*
X006163Y001948D02*
X006018Y001948D01*
X006018Y001831D02*
X006163Y001831D01*
X006163Y001714D02*
X006018Y001714D01*
X006018Y001598D02*
X006163Y001598D01*
X006163Y001481D02*
X006018Y001481D01*
X006018Y001365D02*
X006163Y001365D01*
X006163Y001248D02*
X006018Y001248D01*
X006018Y001131D02*
X006163Y001131D01*
X006163Y001015D02*
X006018Y001015D01*
X006018Y000898D02*
X006163Y000898D01*
X006163Y000781D02*
X006018Y000781D01*
X006018Y000665D02*
X006163Y000665D01*
X006163Y000548D02*
X006018Y000548D01*
X005978Y000432D02*
X006203Y000432D01*
X006978Y000432D02*
X007203Y000432D01*
X007163Y000548D02*
X007018Y000548D01*
X007018Y000665D02*
X007163Y000665D01*
X007163Y000781D02*
X007018Y000781D01*
X007018Y000898D02*
X007163Y000898D01*
X007163Y001015D02*
X007018Y001015D01*
X007018Y001131D02*
X007163Y001131D01*
X007163Y001248D02*
X007018Y001248D01*
X007018Y001365D02*
X007163Y001365D01*
X007163Y001481D02*
X007018Y001481D01*
X007018Y001598D02*
X007163Y001598D01*
X007163Y001714D02*
X007018Y001714D01*
X007018Y001831D02*
X007163Y001831D01*
X007163Y001948D02*
X007018Y001948D01*
X007018Y002064D02*
X007163Y002064D01*
X007163Y002181D02*
X007018Y002181D01*
X006992Y002297D02*
X007189Y002297D01*
X007354Y002414D02*
X006827Y002414D01*
X006925Y002531D02*
X007354Y002531D01*
X007354Y002647D02*
X006991Y002647D01*
X006998Y002764D02*
X007354Y002764D01*
X007354Y002880D02*
X006950Y002880D01*
X007214Y003114D02*
X007412Y003114D01*
X007354Y002997D02*
X005303Y002997D01*
X005303Y002880D02*
X006018Y002880D01*
X005971Y002764D02*
X005303Y002764D01*
X005303Y002647D02*
X005977Y002647D01*
X006043Y002531D02*
X005303Y002531D01*
X005303Y002414D02*
X006218Y002414D01*
X006189Y002297D02*
X005992Y002297D01*
X006018Y002181D02*
X006163Y002181D01*
X006591Y002376D02*
X006248Y002718D01*
X006478Y002880D02*
X006491Y002880D01*
X006346Y003114D02*
X006150Y003114D01*
X006150Y003230D02*
X006346Y003230D01*
X006346Y003347D02*
X006150Y003347D01*
X006150Y003464D02*
X006346Y003464D01*
X006131Y003580D02*
X007012Y003580D01*
X007114Y003697D02*
X006131Y003697D01*
X006126Y003813D02*
X006389Y003813D01*
X006346Y003930D02*
X006150Y003930D01*
X006150Y004047D02*
X006346Y004047D01*
X006346Y004163D02*
X006150Y004163D01*
X006088Y004280D02*
X006408Y004280D01*
X006563Y004608D02*
X006563Y005159D01*
X006289Y005096D02*
X006189Y005096D01*
X006189Y004979D02*
X006327Y004979D01*
X006327Y004863D02*
X006189Y004863D01*
X006169Y005213D02*
X006286Y005213D01*
X005776Y004962D02*
X005776Y004765D01*
X005933Y004608D01*
X006563Y004608D01*
X007035Y004608D01*
X007350Y004293D01*
X007350Y003584D01*
X007055Y003289D01*
X006760Y003289D01*
X007331Y003230D02*
X007529Y003230D01*
X007588Y003347D02*
X007447Y003347D01*
X007564Y003464D02*
X007757Y003464D01*
X007888Y003464D02*
X009384Y003464D01*
X009398Y003347D02*
X008058Y003347D01*
X008100Y003230D02*
X008596Y003230D01*
X008551Y003114D02*
X008091Y003114D01*
X008021Y002997D02*
X008240Y002997D01*
X008124Y002880D02*
X007847Y002880D01*
X007827Y002764D02*
X007949Y002764D01*
X007874Y002647D02*
X007827Y002647D01*
X007827Y002531D02*
X007861Y002531D01*
X007827Y002414D02*
X007898Y002414D01*
X007992Y002297D02*
X008049Y002297D01*
X008018Y002181D02*
X008163Y002181D01*
X008377Y002414D02*
X009354Y002414D01*
X009295Y002531D02*
X009185Y002531D01*
X009220Y002647D02*
X009260Y002647D01*
X009260Y002764D02*
X009220Y002764D01*
X009220Y002880D02*
X009260Y002880D01*
X009260Y002997D02*
X009220Y002997D01*
X009220Y003114D02*
X009260Y003114D01*
X009305Y003230D02*
X009175Y003230D01*
X009357Y003580D02*
X007587Y003580D01*
X007587Y003697D02*
X009380Y003697D01*
X009471Y003813D02*
X007587Y003813D01*
X007587Y003930D02*
X009704Y003930D01*
X009737Y003897D02*
X009632Y004002D01*
X009575Y004140D01*
X009575Y004289D01*
X009632Y004426D01*
X009737Y004531D01*
X009874Y004588D01*
X010023Y004588D01*
X010161Y004531D01*
X010266Y004426D01*
X010323Y004289D01*
X010323Y004140D01*
X010266Y004002D01*
X010161Y003897D01*
X010023Y003840D01*
X009874Y003840D01*
X009737Y003897D01*
X009797Y003813D02*
X010500Y003813D01*
X010500Y003697D02*
X009887Y003697D01*
X009911Y003580D02*
X010500Y003580D01*
X010500Y003464D02*
X009884Y003464D01*
X009870Y003347D02*
X010500Y003347D01*
X010500Y003230D02*
X009884Y003230D01*
X009929Y003114D02*
X010500Y003114D01*
X010500Y002997D02*
X009929Y002997D01*
X009929Y002880D02*
X010500Y002880D01*
X010500Y002764D02*
X009929Y002764D01*
X009929Y002647D02*
X010500Y002647D01*
X010500Y002531D02*
X009894Y002531D01*
X009827Y002414D02*
X010500Y002414D01*
X010470Y002297D02*
X009992Y002297D01*
X010018Y002181D02*
X010413Y002181D01*
X010413Y002064D02*
X010018Y002064D01*
X010018Y001948D02*
X010413Y001948D01*
X010413Y001831D02*
X010018Y001831D01*
X010018Y001714D02*
X010413Y001714D01*
X010413Y001598D02*
X010018Y001598D01*
X010018Y001481D02*
X010413Y001481D01*
X010413Y001365D02*
X010018Y001365D01*
X010018Y001248D02*
X010413Y001248D01*
X010413Y001131D02*
X010018Y001131D01*
X010018Y001015D02*
X010413Y001015D01*
X010413Y000898D02*
X010018Y000898D01*
X010018Y000781D02*
X010413Y000781D01*
X010413Y000665D02*
X010018Y000665D01*
X010018Y000548D02*
X010413Y000548D01*
X010413Y000432D02*
X009978Y000432D01*
X009203Y000432D02*
X008978Y000432D01*
X009018Y000548D02*
X009163Y000548D01*
X009163Y000665D02*
X009018Y000665D01*
X009018Y000781D02*
X009163Y000781D01*
X009163Y000898D02*
X009018Y000898D01*
X009018Y001015D02*
X009163Y001015D01*
X009163Y001131D02*
X009018Y001131D01*
X009018Y001248D02*
X009163Y001248D01*
X009163Y001365D02*
X009018Y001365D01*
X009018Y001481D02*
X009163Y001481D01*
X009163Y001598D02*
X009018Y001598D01*
X009018Y001714D02*
X009163Y001714D01*
X009163Y001831D02*
X009018Y001831D01*
X009018Y001948D02*
X009163Y001948D01*
X009163Y002064D02*
X009018Y002064D01*
X009018Y002181D02*
X009163Y002181D01*
X009189Y002297D02*
X008992Y002297D01*
X008587Y002531D02*
X008442Y002531D01*
X008551Y002639D02*
X008551Y002639D01*
X008453Y002876D02*
X008138Y002561D01*
X008453Y002876D02*
X008886Y002876D01*
X009591Y002872D02*
X009594Y002876D01*
X009634Y002915D01*
X009634Y003584D01*
X009613Y004047D02*
X007587Y004047D01*
X007587Y004163D02*
X009575Y004163D01*
X009575Y004280D02*
X007587Y004280D01*
X007581Y004396D02*
X009619Y004396D01*
X009719Y004513D02*
X007464Y004513D01*
X007348Y004630D02*
X010500Y004630D01*
X010500Y004746D02*
X009645Y004746D01*
X009667Y004863D02*
X010500Y004863D01*
X010500Y004979D02*
X009667Y004979D01*
X009667Y005096D02*
X010500Y005096D01*
X010500Y005213D02*
X009667Y005213D01*
X009667Y005329D02*
X010500Y005329D01*
X010500Y005446D02*
X009667Y005446D01*
X009654Y005563D02*
X010500Y005563D01*
X010500Y005679D02*
X009448Y005679D01*
X009331Y005796D02*
X010500Y005796D01*
X010500Y005912D02*
X009215Y005912D01*
X009083Y005710D02*
X008925Y005710D01*
X009083Y005710D02*
X009240Y005553D01*
X009240Y005351D01*
X008735Y005912D02*
X008170Y005912D01*
X007980Y005710D02*
X007744Y005710D01*
X007665Y005631D01*
X007665Y005351D01*
X007665Y004967D02*
X007227Y004967D01*
X007035Y005159D01*
X007035Y005474D01*
X006799Y005710D01*
X006642Y005710D01*
X006452Y005912D02*
X006147Y005912D01*
X005795Y005912D02*
X005756Y005912D01*
X005756Y005796D02*
X005795Y005796D01*
X005380Y005563D02*
X003454Y005563D01*
X003433Y005446D02*
X005395Y005446D01*
X004594Y005080D02*
X004496Y004982D01*
X004087Y004982D01*
X004285Y005329D02*
X004471Y005329D01*
X003888Y005329D02*
X003537Y005329D01*
X003713Y005213D02*
X003713Y005213D01*
X003713Y005096D02*
X003713Y005096D01*
X003713Y004979D02*
X003713Y004979D01*
X003713Y004863D02*
X003713Y004863D01*
X003713Y004746D02*
X003713Y004746D01*
X003532Y004630D02*
X003893Y004630D01*
X004189Y004513D02*
X003218Y004513D01*
X003339Y004076D02*
X002843Y004076D01*
X002783Y004135D01*
X002597Y003930D02*
X001720Y003930D01*
X001720Y004047D02*
X002520Y004047D01*
X002506Y004163D02*
X001720Y004163D01*
X001720Y004280D02*
X002543Y004280D01*
X002689Y004396D02*
X001720Y004396D01*
X001720Y004513D02*
X002664Y004513D01*
X002683Y004630D02*
X001720Y004630D01*
X001720Y004746D02*
X002766Y004746D01*
X002688Y004863D02*
X001720Y004863D01*
X001720Y004979D02*
X002604Y004979D01*
X002585Y005096D02*
X001720Y005096D01*
X001720Y005213D02*
X002617Y005213D01*
X002739Y005329D02*
X001720Y005329D01*
X001720Y005446D02*
X002921Y005446D01*
X002898Y005563D02*
X001720Y005563D01*
X001720Y005679D02*
X002603Y005679D01*
X002567Y005796D02*
X001720Y005796D01*
X001720Y005912D02*
X002567Y005912D01*
X002567Y006029D02*
X001720Y006029D01*
X001720Y006146D02*
X002567Y006146D01*
X002567Y006262D02*
X001720Y006262D01*
X001720Y006379D02*
X002567Y006379D01*
X002567Y006495D02*
X001720Y006495D01*
X001720Y006612D02*
X002567Y006612D01*
X002567Y006729D02*
X001720Y006729D01*
X001720Y006845D02*
X002567Y006845D01*
X002567Y006962D02*
X001720Y006962D01*
X001720Y007078D02*
X002638Y007078D01*
X002599Y007195D02*
X001720Y007195D01*
X001720Y007312D02*
X002585Y007312D01*
X002621Y007428D02*
X001720Y007428D01*
X001720Y007545D02*
X002277Y007545D01*
X002162Y007661D02*
X001720Y007661D01*
X001720Y007778D02*
X002114Y007778D01*
X002094Y007895D02*
X001720Y007895D01*
X001720Y008011D02*
X002094Y008011D01*
X002094Y008128D02*
X001720Y008128D01*
X001720Y008245D02*
X002094Y008245D01*
X002094Y008361D02*
X001720Y008361D01*
X001720Y008478D02*
X002094Y008478D01*
X002094Y008594D02*
X001720Y008594D01*
X001720Y008711D02*
X002094Y008711D01*
X002094Y008828D02*
X001720Y008828D01*
X001720Y008944D02*
X002094Y008944D01*
X002094Y009061D02*
X001720Y009061D01*
X001720Y009177D02*
X002094Y009177D01*
X002094Y009294D02*
X001720Y009294D01*
X001720Y009411D02*
X002094Y009411D01*
X002094Y009527D02*
X001720Y009527D01*
X001720Y009644D02*
X002094Y009644D01*
X002094Y009760D02*
X001720Y009760D01*
X001720Y009877D02*
X002094Y009877D01*
X002135Y009994D02*
X001720Y009994D01*
X001720Y010110D02*
X002213Y010110D01*
X002383Y010227D02*
X001720Y010227D01*
X001720Y010344D02*
X002979Y010344D01*
X003015Y010460D02*
X000520Y010460D01*
X000520Y010577D02*
X003052Y010577D01*
X003088Y010693D02*
X000520Y010693D01*
X000520Y010810D02*
X003125Y010810D01*
X003161Y010927D02*
X000520Y010927D01*
X000520Y011043D02*
X003197Y011043D01*
X003234Y011160D02*
X000520Y011160D01*
X000520Y011276D02*
X001135Y011276D01*
X001147Y011272D02*
X001209Y011263D01*
X001209Y011714D01*
X001327Y011714D01*
X001327Y011832D01*
X001778Y011832D01*
X001768Y011893D01*
X001743Y011970D01*
X001707Y012042D01*
X001659Y012108D01*
X001602Y012165D01*
X001537Y012212D01*
X001465Y012249D01*
X001388Y012274D01*
X001327Y012284D01*
X001327Y011832D01*
X001209Y011832D01*
X001209Y011714D01*
X000757Y011714D01*
X000767Y011653D01*
X000792Y011576D01*
X000829Y011504D01*
X000876Y011439D01*
X000933Y011382D01*
X000999Y011334D01*
X001071Y011297D01*
X001147Y011272D01*
X001209Y011276D02*
X001327Y011276D01*
X001327Y011263D02*
X001388Y011272D01*
X001465Y011297D01*
X001537Y011334D01*
X001602Y011382D01*
X001659Y011439D01*
X001707Y011504D01*
X001743Y011576D01*
X001768Y011653D01*
X001778Y011714D01*
X001327Y011714D01*
X001327Y011263D01*
X001400Y011276D02*
X002456Y011276D01*
X002540Y011242D02*
X002751Y011242D01*
X002947Y011323D01*
X003096Y011472D01*
X003177Y011668D01*
X003177Y011879D01*
X003096Y012074D01*
X002947Y012224D01*
X002751Y012305D01*
X002540Y012305D01*
X002345Y012224D01*
X002195Y012074D01*
X002114Y011879D01*
X002114Y011668D01*
X002195Y011472D01*
X002345Y011323D01*
X002540Y011242D01*
X002835Y011276D02*
X003270Y011276D01*
X003307Y011393D02*
X003017Y011393D01*
X003112Y011510D02*
X003343Y011510D01*
X003380Y011626D02*
X003160Y011626D01*
X003177Y011743D02*
X003416Y011743D01*
X003452Y011859D02*
X003177Y011859D01*
X003137Y011976D02*
X003489Y011976D01*
X003547Y012093D02*
X003078Y012093D01*
X002961Y012209D02*
X003644Y012209D01*
X003848Y012326D02*
X001267Y012326D01*
X001290Y012349D02*
X001346Y012486D01*
X001346Y012635D01*
X001290Y012772D01*
X001184Y012878D01*
X001047Y012935D01*
X000898Y012935D01*
X000761Y012878D01*
X000655Y012772D01*
X000598Y012635D01*
X000598Y012486D01*
X000655Y012349D01*
X000761Y012244D01*
X000898Y012187D01*
X000963Y012187D01*
X000933Y012165D01*
X000876Y012108D01*
X000829Y012042D01*
X000792Y011970D01*
X000767Y011893D01*
X000757Y011832D01*
X001209Y011832D01*
X001209Y012268D01*
X001290Y012349D01*
X001328Y012443D02*
X011661Y012443D01*
X011661Y012559D02*
X001346Y012559D01*
X001330Y012676D02*
X011661Y012676D01*
X011661Y012792D02*
X001270Y012792D01*
X001109Y012909D02*
X011661Y012909D01*
X011661Y013026D02*
X000520Y013026D01*
X000520Y012909D02*
X000836Y012909D01*
X000675Y012792D02*
X000520Y012792D01*
X000520Y012676D02*
X000615Y012676D01*
X000598Y012559D02*
X000520Y012559D01*
X000520Y012443D02*
X000617Y012443D01*
X000678Y012326D02*
X000520Y012326D01*
X000520Y012209D02*
X000843Y012209D01*
X000865Y012093D02*
X000520Y012093D01*
X000520Y011976D02*
X000795Y011976D01*
X000762Y011859D02*
X000520Y011859D01*
X000520Y011743D02*
X001209Y011743D01*
X001209Y011859D02*
X001327Y011859D01*
X001327Y011743D02*
X002114Y011743D01*
X002114Y011859D02*
X001774Y011859D01*
X001741Y011976D02*
X002154Y011976D01*
X002213Y012093D02*
X001670Y012093D01*
X001541Y012209D02*
X002330Y012209D01*
X002131Y011626D02*
X001760Y011626D01*
X001710Y011510D02*
X002180Y011510D01*
X002274Y011393D02*
X001614Y011393D01*
X001327Y011393D02*
X001209Y011393D01*
X001209Y011510D02*
X001327Y011510D01*
X001327Y011626D02*
X001209Y011626D01*
X001209Y011976D02*
X001327Y011976D01*
X001327Y012093D02*
X001209Y012093D01*
X001209Y012209D02*
X001327Y012209D01*
X000776Y011626D02*
X000520Y011626D01*
X000520Y011510D02*
X000826Y011510D01*
X000922Y011393D02*
X000520Y011393D01*
X004169Y012326D02*
X011661Y012326D01*
X011661Y012209D02*
X011437Y012209D01*
X011445Y012201D02*
X011341Y012305D01*
X010486Y012305D01*
X010382Y012201D01*
X010382Y011346D01*
X010486Y011242D01*
X011341Y011242D01*
X011445Y011346D01*
X011445Y012201D01*
X011445Y012093D02*
X011661Y012093D01*
X011661Y011976D02*
X011445Y011976D01*
X011445Y011859D02*
X011661Y011859D01*
X011661Y011743D02*
X011445Y011743D01*
X011445Y011626D02*
X011661Y011626D01*
X011661Y011510D02*
X011445Y011510D01*
X011445Y011393D02*
X011661Y011393D01*
X011661Y011276D02*
X011376Y011276D01*
X011661Y011160D02*
X004430Y011160D01*
X004466Y011276D02*
X005212Y011276D01*
X005296Y011242D02*
X005507Y011242D01*
X005703Y011323D01*
X005852Y011472D01*
X005933Y011668D01*
X005933Y011879D01*
X005852Y012074D01*
X005703Y012224D01*
X005507Y012305D01*
X005296Y012305D01*
X005101Y012224D01*
X004951Y012074D01*
X004870Y011879D01*
X004870Y011668D01*
X004951Y011472D01*
X005101Y011323D01*
X005296Y011242D01*
X005317Y010996D02*
X005198Y010946D01*
X005107Y010855D01*
X005057Y010735D01*
X005057Y010606D01*
X005107Y010487D01*
X005198Y010396D01*
X005317Y010346D01*
X005446Y010346D01*
X005566Y010396D01*
X005657Y010487D01*
X005707Y010606D01*
X005707Y010735D01*
X005657Y010855D01*
X005566Y010946D01*
X005446Y010996D01*
X005317Y010996D01*
X005178Y010927D02*
X004357Y010927D01*
X004394Y011043D02*
X011661Y011043D01*
X011661Y010927D02*
X005586Y010927D01*
X005676Y010810D02*
X011661Y010810D01*
X011661Y010693D02*
X005707Y010693D01*
X005694Y010577D02*
X011661Y010577D01*
X011661Y010460D02*
X009764Y010460D01*
X009790Y010434D02*
X009712Y010512D01*
X009610Y010554D01*
X009500Y010554D01*
X009398Y010512D01*
X009366Y010480D01*
X009353Y010494D01*
X008891Y010494D01*
X008787Y010390D01*
X008787Y009771D01*
X008891Y009667D01*
X009353Y009667D01*
X009457Y009771D01*
X009457Y009845D01*
X009613Y010001D01*
X009709Y010041D01*
X009752Y009936D01*
X009844Y009844D01*
X009963Y009795D01*
X010092Y009795D01*
X010212Y009844D01*
X010303Y009936D01*
X010352Y010055D01*
X010352Y010184D01*
X010303Y010304D01*
X010212Y010395D01*
X010092Y010444D01*
X009963Y010444D01*
X009844Y010395D01*
X009817Y010369D01*
X009790Y010434D01*
X009555Y010277D02*
X009358Y010080D01*
X009122Y010080D01*
X008787Y010110D02*
X008748Y010110D01*
X008748Y009994D02*
X008787Y009994D01*
X008787Y009877D02*
X008748Y009877D01*
X008748Y009771D02*
X008748Y010390D01*
X008644Y010494D01*
X008183Y010494D01*
X008079Y010390D01*
X008079Y010287D01*
X007921Y010287D01*
X007921Y010360D01*
X007817Y010464D01*
X007198Y010464D01*
X007097Y010363D01*
X007084Y010385D01*
X007054Y010414D01*
X007018Y010435D01*
X006978Y010446D01*
X006780Y010446D01*
X006780Y010110D01*
X006661Y010110D01*
X006661Y009992D01*
X006325Y009992D01*
X006325Y009794D01*
X006336Y009753D01*
X006357Y009717D01*
X006387Y009687D01*
X006423Y009666D01*
X006463Y009656D01*
X006661Y009656D01*
X006661Y009992D01*
X006780Y009992D01*
X006780Y009656D01*
X006978Y009656D01*
X007018Y009666D01*
X007054Y009687D01*
X007084Y009717D01*
X007097Y009739D01*
X007198Y009637D01*
X007817Y009637D01*
X007921Y009741D01*
X007921Y009815D01*
X008079Y009815D01*
X008079Y009771D01*
X008183Y009667D01*
X008644Y009667D01*
X008748Y009771D01*
X008738Y009760D02*
X008798Y009760D01*
X008823Y009649D02*
X008713Y009649D01*
X008611Y009607D01*
X008606Y009602D01*
X008587Y009609D01*
X008476Y009609D01*
X008374Y009567D01*
X008296Y009489D01*
X008254Y009387D01*
X008254Y009290D01*
X008218Y009253D01*
X008176Y009151D01*
X008176Y009041D01*
X008218Y008939D01*
X008296Y008861D01*
X008398Y008819D01*
X008508Y008819D01*
X008610Y008861D01*
X008688Y008939D01*
X008730Y009041D01*
X008730Y009094D01*
X008823Y009094D01*
X008925Y009137D01*
X009003Y009215D01*
X009045Y009317D01*
X009045Y009427D01*
X009003Y009529D01*
X008925Y009607D01*
X008823Y009649D01*
X008835Y009644D02*
X010500Y009644D01*
X010500Y009760D02*
X009446Y009760D01*
X009489Y009877D02*
X009811Y009877D01*
X009728Y009994D02*
X009606Y009994D01*
X010244Y009877D02*
X010500Y009877D01*
X010500Y009994D02*
X010327Y009994D01*
X010352Y010110D02*
X010500Y010110D01*
X010500Y010227D02*
X010335Y010227D01*
X010263Y010344D02*
X010500Y010344D01*
X010500Y009527D02*
X009003Y009527D01*
X009045Y009411D02*
X010500Y009411D01*
X010500Y009294D02*
X009036Y009294D01*
X008966Y009177D02*
X010500Y009177D01*
X010500Y009061D02*
X008730Y009061D01*
X008690Y008944D02*
X010500Y008944D01*
X010500Y008828D02*
X008529Y008828D01*
X008377Y008828D02*
X007587Y008828D01*
X007587Y008944D02*
X008216Y008944D01*
X008176Y009061D02*
X007587Y009061D01*
X007587Y009130D02*
X007483Y009234D01*
X006806Y009234D01*
X006798Y009253D01*
X006761Y009290D01*
X006761Y009387D01*
X006719Y009489D01*
X006641Y009567D01*
X006539Y009609D01*
X006429Y009609D01*
X006327Y009567D01*
X006287Y009607D01*
X006185Y009649D01*
X006075Y009649D01*
X005973Y009607D01*
X005895Y009529D01*
X005855Y009431D01*
X005756Y009431D01*
X005647Y009386D01*
X005564Y009303D01*
X005519Y009194D01*
X005519Y009077D01*
X005564Y008968D01*
X005647Y008885D01*
X005756Y008840D01*
X005777Y008840D01*
X006111Y008506D01*
X006642Y008506D01*
X006642Y008353D01*
X006746Y008250D01*
X007483Y008250D01*
X007587Y008353D01*
X007587Y009130D01*
X007539Y009177D02*
X008186Y009177D01*
X008254Y009294D02*
X006761Y009294D01*
X006752Y009411D02*
X008264Y009411D01*
X008334Y009527D02*
X006681Y009527D01*
X006661Y009760D02*
X006780Y009760D01*
X006780Y009877D02*
X006661Y009877D01*
X006661Y009994D02*
X004534Y009994D01*
X004575Y009877D02*
X006325Y009877D01*
X006334Y009760D02*
X004575Y009760D01*
X004575Y009644D02*
X006063Y009644D01*
X006197Y009644D02*
X007192Y009644D01*
X007508Y010051D02*
X008384Y010051D01*
X008413Y010080D01*
X008748Y010227D02*
X008787Y010227D01*
X008787Y010344D02*
X008748Y010344D01*
X008678Y010460D02*
X008858Y010460D01*
X009234Y011323D02*
X009430Y011242D01*
X009641Y011242D01*
X009837Y011323D01*
X009986Y011472D01*
X010067Y011668D01*
X010067Y011879D01*
X009986Y012074D01*
X009837Y012224D01*
X009641Y012305D01*
X009430Y012305D01*
X009234Y012224D01*
X009085Y012074D01*
X009004Y011879D01*
X009004Y011668D01*
X009085Y011472D01*
X009234Y011323D01*
X009164Y011393D02*
X008529Y011393D01*
X008459Y011323D02*
X008608Y011472D01*
X008689Y011668D01*
X008689Y011879D01*
X008608Y012074D01*
X008459Y012224D01*
X008263Y012305D01*
X008052Y012305D01*
X007856Y012224D01*
X007707Y012074D01*
X007626Y011879D01*
X007626Y011668D01*
X007707Y011472D01*
X007856Y011323D01*
X008052Y011242D01*
X008263Y011242D01*
X008459Y011323D01*
X008347Y011276D02*
X009346Y011276D01*
X009069Y011510D02*
X008624Y011510D01*
X008672Y011626D02*
X009021Y011626D01*
X009004Y011743D02*
X008689Y011743D01*
X008689Y011859D02*
X009004Y011859D01*
X009044Y011976D02*
X008649Y011976D01*
X008590Y012093D02*
X009103Y012093D01*
X009220Y012209D02*
X008473Y012209D01*
X007842Y012209D02*
X007095Y012209D01*
X007081Y012224D02*
X006885Y012305D01*
X006674Y012305D01*
X006478Y012224D01*
X006329Y012074D01*
X006248Y011879D01*
X006248Y011668D01*
X006329Y011472D01*
X006478Y011323D01*
X006674Y011242D01*
X006885Y011242D01*
X007081Y011323D01*
X007230Y011472D01*
X007311Y011668D01*
X007311Y011879D01*
X007230Y012074D01*
X007081Y012224D01*
X007212Y012093D02*
X007725Y012093D01*
X007666Y011976D02*
X007271Y011976D01*
X007311Y011859D02*
X007626Y011859D01*
X007626Y011743D02*
X007311Y011743D01*
X007294Y011626D02*
X007643Y011626D01*
X007691Y011510D02*
X007246Y011510D01*
X007151Y011393D02*
X007786Y011393D01*
X007968Y011276D02*
X006969Y011276D01*
X006590Y011276D02*
X005591Y011276D01*
X005773Y011393D02*
X006408Y011393D01*
X006313Y011510D02*
X005868Y011510D01*
X005916Y011626D02*
X006265Y011626D01*
X006248Y011743D02*
X005933Y011743D01*
X005933Y011859D02*
X006248Y011859D01*
X006288Y011976D02*
X005893Y011976D01*
X005834Y012093D02*
X006347Y012093D01*
X006464Y012209D02*
X005717Y012209D01*
X005086Y012209D02*
X004392Y012209D01*
X004501Y012093D02*
X004969Y012093D01*
X004910Y011976D02*
X004562Y011976D01*
X004589Y011859D02*
X004870Y011859D01*
X004870Y011743D02*
X004600Y011743D01*
X004576Y011626D02*
X004887Y011626D01*
X004935Y011510D02*
X004539Y011510D01*
X004503Y011393D02*
X005030Y011393D01*
X005088Y010810D02*
X004321Y010810D01*
X004284Y010693D02*
X005057Y010693D01*
X005069Y010577D02*
X004248Y010577D01*
X004211Y010460D02*
X005133Y010460D01*
X005631Y010460D02*
X007194Y010460D01*
X006780Y010344D02*
X006661Y010344D01*
X006661Y010446D02*
X006463Y010446D01*
X006423Y010435D01*
X006387Y010414D01*
X006357Y010385D01*
X006336Y010348D01*
X006325Y010308D01*
X006325Y010110D01*
X006661Y010110D01*
X006661Y010446D01*
X006661Y010227D02*
X006780Y010227D01*
X006780Y010110D02*
X006661Y010110D01*
X006325Y010110D02*
X004457Y010110D01*
X004286Y010227D02*
X006325Y010227D01*
X006335Y010344D02*
X004175Y010344D01*
X004575Y009527D02*
X005894Y009527D01*
X005706Y009411D02*
X004575Y009411D01*
X004575Y009294D02*
X005560Y009294D01*
X005519Y009177D02*
X004575Y009177D01*
X004575Y009061D02*
X005526Y009061D01*
X005588Y008944D02*
X004575Y008944D01*
X004575Y008828D02*
X005789Y008828D01*
X005905Y008711D02*
X004575Y008711D01*
X004575Y008594D02*
X006022Y008594D01*
X006209Y008742D02*
X005815Y009135D01*
X006209Y008742D02*
X007114Y008742D01*
X007587Y008711D02*
X010500Y008711D01*
X010500Y008594D02*
X007587Y008594D01*
X007587Y008478D02*
X010500Y008478D01*
X010500Y008361D02*
X007587Y008361D01*
X007649Y008128D02*
X007879Y008128D01*
X008020Y008128D02*
X008020Y008128D01*
X008020Y008011D02*
X008020Y008011D01*
X008020Y007895D02*
X008020Y007895D01*
X008020Y007778D02*
X008020Y007778D01*
X008020Y007661D02*
X008020Y007661D01*
X008020Y007545D02*
X008020Y007545D01*
X008020Y007428D02*
X008020Y007428D01*
X008020Y007364D02*
X008020Y007364D01*
X008020Y007364D01*
X008020Y007140D01*
X008020Y006852D01*
X008020Y006852D01*
X008020Y006564D01*
X007991Y006564D01*
X007936Y006575D01*
X007883Y006597D01*
X007836Y006628D01*
X007796Y006668D01*
X007765Y006716D01*
X007764Y006717D01*
X007763Y006716D01*
X007732Y006668D01*
X007691Y006628D01*
X007644Y006597D01*
X007592Y006575D01*
X007536Y006564D01*
X007508Y006564D01*
X007508Y006852D01*
X007796Y006852D01*
X008020Y006852D01*
X008020Y006852D01*
X007508Y006852D01*
X007508Y006852D01*
X007508Y006852D01*
X007508Y007364D01*
X007508Y007364D01*
X007732Y007364D01*
X008020Y007364D01*
X008020Y007312D02*
X008020Y007312D01*
X008020Y007195D02*
X008020Y007195D01*
X008020Y007078D02*
X008020Y007078D01*
X008020Y006962D02*
X008020Y006962D01*
X008020Y006845D02*
X008020Y006845D01*
X008020Y006729D02*
X008020Y006729D01*
X008020Y006612D02*
X008020Y006612D01*
X007861Y006612D02*
X007667Y006612D01*
X007508Y006612D02*
X007508Y006612D01*
X007508Y006564D02*
X007508Y006852D01*
X007508Y006852D01*
X007508Y007140D01*
X007508Y007364D01*
X007508Y007364D01*
X007508Y007364D01*
X006996Y007364D01*
X006996Y007364D01*
X006484Y007364D01*
X006484Y007364D01*
X006484Y006852D01*
X006484Y006852D01*
X006484Y006852D01*
X006484Y006564D01*
X006513Y006564D01*
X006568Y006575D01*
X006621Y006597D01*
X006668Y006628D01*
X006708Y006668D01*
X006739Y006716D01*
X006740Y006717D01*
X006741Y006716D01*
X006772Y006668D01*
X006813Y006628D01*
X006860Y006597D01*
X006912Y006575D01*
X006968Y006564D01*
X006996Y006564D01*
X006996Y006852D01*
X006996Y006852D01*
X006708Y006852D01*
X006484Y006852D01*
X006484Y006852D01*
X006996Y006852D01*
X006996Y007140D01*
X006996Y007364D01*
X006996Y007364D01*
X006996Y006852D01*
X006996Y006852D01*
X006996Y006852D01*
X007284Y006852D01*
X007508Y006852D01*
X007508Y006852D01*
X006996Y006852D01*
X006996Y006852D01*
X006996Y006564D01*
X007024Y006564D01*
X007080Y006575D01*
X007132Y006597D01*
X007180Y006628D01*
X007220Y006668D01*
X007251Y006716D01*
X007252Y006717D01*
X007253Y006716D01*
X007284Y006668D01*
X007324Y006628D01*
X007371Y006597D01*
X007424Y006575D01*
X007480Y006564D01*
X007508Y006564D01*
X007508Y006729D02*
X007508Y006729D01*
X007508Y006845D02*
X007508Y006845D01*
X007508Y006962D02*
X007508Y006962D01*
X007508Y007078D02*
X007508Y007078D01*
X007508Y007195D02*
X007508Y007195D01*
X007508Y007312D02*
X007508Y007312D01*
X007508Y007428D02*
X007508Y007428D01*
X007508Y007545D02*
X007508Y007545D01*
X007508Y007661D02*
X007508Y007661D01*
X007508Y007778D02*
X007508Y007778D01*
X007508Y007895D02*
X007508Y007895D01*
X007508Y008011D02*
X007508Y008011D01*
X007508Y008128D02*
X007508Y008128D01*
X007367Y008128D02*
X007137Y008128D01*
X006996Y008128D02*
X006996Y008128D01*
X006996Y008011D02*
X006996Y008011D01*
X006996Y007895D02*
X006996Y007895D01*
X006996Y007778D02*
X006996Y007778D01*
X006996Y007661D02*
X006996Y007661D01*
X006996Y007545D02*
X006996Y007545D01*
X006996Y007428D02*
X006996Y007428D01*
X006996Y007312D02*
X006996Y007312D01*
X006996Y007195D02*
X006996Y007195D01*
X006996Y007078D02*
X006996Y007078D01*
X006996Y006962D02*
X006996Y006962D01*
X006996Y006845D02*
X006996Y006845D01*
X006996Y006729D02*
X006996Y006729D01*
X006996Y006612D02*
X006996Y006612D01*
X007155Y006612D02*
X007349Y006612D01*
X006837Y006612D02*
X006643Y006612D01*
X006484Y006612D02*
X006484Y006612D01*
X006484Y006729D02*
X006484Y006729D01*
X006484Y006845D02*
X006484Y006845D01*
X006484Y006962D02*
X006484Y006962D01*
X006484Y007078D02*
X006484Y007078D01*
X006484Y007195D02*
X006484Y007195D01*
X006484Y007312D02*
X006484Y007312D01*
X006484Y007428D02*
X006484Y007428D01*
X006484Y007545D02*
X006484Y007545D01*
X006484Y007661D02*
X006484Y007661D01*
X006484Y007778D02*
X006484Y007778D01*
X006484Y007895D02*
X006484Y007895D01*
X006484Y008011D02*
X006484Y008011D01*
X006484Y008128D02*
X006484Y008128D01*
X006625Y008128D02*
X006855Y008128D01*
X006741Y008011D02*
X006740Y008011D01*
X006642Y008361D02*
X004575Y008361D01*
X004575Y008245D02*
X010500Y008245D01*
X010500Y008128D02*
X009184Y008128D01*
X009043Y008128D02*
X009043Y008128D01*
X009043Y008011D02*
X009043Y008011D01*
X009043Y007895D02*
X009043Y007895D01*
X009043Y007778D02*
X009043Y007778D01*
X009043Y007661D02*
X009043Y007661D01*
X009043Y007545D02*
X009043Y007545D01*
X009043Y007428D02*
X009043Y007428D01*
X009043Y007312D02*
X009043Y007312D01*
X009043Y007195D02*
X009043Y007195D01*
X009043Y007078D02*
X009043Y007078D01*
X009043Y006962D02*
X009043Y006962D01*
X009043Y006852D02*
X009331Y006852D01*
X009043Y006852D01*
X009043Y006852D01*
X009043Y006845D02*
X009043Y006845D01*
X009043Y006729D02*
X009043Y006729D01*
X009043Y006612D02*
X009043Y006612D01*
X008884Y006612D02*
X008691Y006612D01*
X008532Y006612D02*
X008531Y006612D01*
X008531Y006729D02*
X008532Y006729D01*
X008531Y006845D02*
X008532Y006845D01*
X008531Y006962D02*
X008532Y006962D01*
X008531Y007078D02*
X008532Y007078D01*
X008531Y007195D02*
X008532Y007195D01*
X008531Y007312D02*
X008532Y007312D01*
X008531Y007428D02*
X008532Y007428D01*
X008531Y007545D02*
X008532Y007545D01*
X008531Y007661D02*
X008532Y007661D01*
X008531Y007778D02*
X008532Y007778D01*
X008531Y007895D02*
X008532Y007895D01*
X008531Y008011D02*
X008532Y008011D01*
X008531Y008128D02*
X008532Y008128D01*
X008672Y008128D02*
X008903Y008128D01*
X008787Y008011D02*
X008788Y008011D01*
X009054Y008245D02*
X005697Y008245D01*
X005697Y008361D02*
X006314Y008361D01*
X006344Y008128D02*
X006113Y008128D01*
X005972Y008128D02*
X005972Y008128D01*
X005972Y008011D02*
X005972Y008011D01*
X005972Y007895D02*
X005972Y007895D01*
X005972Y007778D02*
X005972Y007778D01*
X005972Y007661D02*
X005972Y007661D01*
X005972Y007545D02*
X005972Y007545D01*
X005972Y007428D02*
X005972Y007428D01*
X005972Y007312D02*
X005972Y007312D01*
X005972Y007195D02*
X005972Y007195D01*
X005972Y007078D02*
X005972Y007078D01*
X005972Y006962D02*
X005972Y006962D01*
X005972Y006845D02*
X005972Y006845D01*
X005972Y006729D02*
X005972Y006729D01*
X005972Y006612D02*
X005972Y006612D01*
X006132Y006612D02*
X006325Y006612D01*
X005793Y007078D02*
X003112Y007078D01*
X003125Y007195D02*
X005739Y007195D01*
X005697Y007195D02*
X009398Y007195D01*
X009398Y007078D02*
X005697Y007078D01*
X005697Y007312D02*
X009398Y007312D01*
X009327Y007312D02*
X009515Y007312D01*
X009595Y007428D02*
X009324Y007428D01*
X009398Y007428D02*
X005697Y007428D01*
X005692Y007428D02*
X003103Y007428D01*
X003139Y007312D02*
X005689Y007312D01*
X005697Y007545D02*
X009398Y007545D01*
X009398Y007661D02*
X005697Y007661D01*
X005779Y007661D02*
X004507Y007661D01*
X004555Y007778D02*
X005701Y007778D01*
X005697Y007778D02*
X009398Y007778D01*
X009315Y007778D02*
X010500Y007778D01*
X010500Y007661D02*
X009236Y007661D01*
X009269Y007545D02*
X010500Y007545D01*
X010500Y007428D02*
X009988Y007428D01*
X010068Y007312D02*
X010500Y007312D01*
X010500Y007195D02*
X010087Y007195D01*
X010059Y007078D02*
X010500Y007078D01*
X010500Y006962D02*
X009965Y006962D01*
X010500Y007895D02*
X009331Y007895D01*
X009398Y007895D02*
X005697Y007895D01*
X005684Y007895D02*
X004575Y007895D01*
X004575Y008011D02*
X005717Y008011D01*
X005697Y008011D02*
X009398Y008011D01*
X009299Y008011D02*
X010500Y008011D01*
X009398Y008128D02*
X005697Y008128D01*
X005832Y008128D02*
X004575Y008128D01*
X004575Y008478D02*
X006642Y008478D01*
X006229Y008011D02*
X006228Y008011D01*
X005747Y007545D02*
X004392Y007545D01*
X003630Y006962D02*
X003591Y006962D01*
X003591Y006845D02*
X003630Y006845D01*
X003630Y006729D02*
X003591Y006729D01*
X003310Y006962D02*
X003236Y006962D01*
X003177Y006655D02*
X002902Y006655D01*
X002862Y007285D01*
X003177Y006655D02*
X003256Y006576D01*
X003256Y006104D01*
X003335Y006025D01*
X003610Y006025D01*
X003177Y005553D02*
X002902Y006025D01*
X002986Y005329D02*
X003009Y005329D01*
X002862Y005080D02*
X002961Y004982D01*
X003339Y004982D01*
X003713Y004076D02*
X003713Y003726D01*
X003295Y003309D01*
X003295Y002954D01*
X003591Y002580D01*
X003591Y001372D01*
X003163Y001365D02*
X002650Y001365D01*
X002650Y001313D02*
X002650Y001431D01*
X003000Y001431D01*
X003000Y002219D01*
X002989Y002260D01*
X002968Y002296D01*
X002938Y002326D01*
X002902Y002347D01*
X002861Y002357D01*
X002650Y002357D01*
X002650Y001431D01*
X002531Y001431D01*
X002531Y001313D01*
X002181Y001313D01*
X002181Y000524D01*
X002192Y000483D01*
X002213Y000447D01*
X002243Y000418D01*
X002279Y000397D01*
X002320Y000386D01*
X002531Y000386D01*
X002531Y001313D01*
X002650Y001313D01*
X003000Y001313D01*
X003000Y000524D01*
X002989Y000483D01*
X002968Y000447D01*
X002938Y000418D01*
X002902Y000397D01*
X002861Y000386D01*
X002650Y000386D01*
X002650Y001313D01*
X002650Y001248D02*
X002531Y001248D01*
X002531Y001365D02*
X001768Y001365D01*
X001768Y001481D02*
X002181Y001481D01*
X002181Y001431D02*
X002181Y002219D01*
X002192Y002260D01*
X002213Y002296D01*
X002243Y002326D01*
X002279Y002347D01*
X002320Y002357D01*
X002531Y002357D01*
X002531Y001431D01*
X002181Y001431D01*
X002181Y001598D02*
X001768Y001598D01*
X001768Y001714D02*
X002181Y001714D01*
X002181Y001831D02*
X001768Y001831D01*
X001768Y001948D02*
X002181Y001948D01*
X002181Y002064D02*
X001768Y002064D01*
X001768Y002181D02*
X002181Y002181D01*
X002215Y002297D02*
X001720Y002297D01*
X001720Y002414D02*
X003354Y002414D01*
X003329Y002531D02*
X001720Y002531D01*
X001720Y002647D02*
X002961Y002647D01*
X002961Y002764D02*
X001720Y002764D01*
X001720Y002880D02*
X002961Y002880D01*
X002961Y002997D02*
X001720Y002997D01*
X001720Y003114D02*
X002961Y003114D01*
X002961Y003230D02*
X001720Y003230D01*
X001720Y003347D02*
X003044Y003347D01*
X003116Y003464D02*
X001720Y003464D01*
X001720Y003580D02*
X003233Y003580D01*
X003349Y003697D02*
X001720Y003697D01*
X001720Y003813D02*
X003056Y003813D01*
X004004Y003387D02*
X004004Y002954D01*
X004004Y003387D02*
X004122Y003506D01*
X004087Y004076D02*
X004382Y004372D01*
X004673Y004372D01*
X004572Y004630D02*
X004280Y004630D01*
X005303Y003697D02*
X005341Y003697D01*
X005341Y003580D02*
X005303Y003580D01*
X005067Y003348D02*
X005067Y002009D01*
X004831Y002414D02*
X003827Y002414D01*
X003827Y002531D02*
X004831Y002531D01*
X003189Y002297D02*
X002966Y002297D01*
X003000Y002181D02*
X003163Y002181D01*
X003163Y002064D02*
X003000Y002064D01*
X003000Y001948D02*
X003163Y001948D01*
X003163Y001831D02*
X003000Y001831D01*
X003000Y001714D02*
X003163Y001714D01*
X003163Y001598D02*
X003000Y001598D01*
X003000Y001481D02*
X003163Y001481D01*
X003163Y001248D02*
X003000Y001248D01*
X003000Y001131D02*
X003163Y001131D01*
X003163Y001015D02*
X003000Y001015D01*
X003000Y000898D02*
X003163Y000898D01*
X003163Y000781D02*
X003000Y000781D01*
X003000Y000665D02*
X003163Y000665D01*
X003163Y000548D02*
X003000Y000548D01*
X002952Y000432D02*
X003203Y000432D01*
X002650Y000432D02*
X002531Y000432D01*
X002531Y000548D02*
X002650Y000548D01*
X002650Y000665D02*
X002531Y000665D01*
X002531Y000781D02*
X002650Y000781D01*
X002650Y000898D02*
X002531Y000898D01*
X002531Y001015D02*
X002650Y001015D01*
X002650Y001131D02*
X002531Y001131D01*
X002181Y001131D02*
X001768Y001131D01*
X001768Y001015D02*
X002181Y001015D01*
X002181Y000898D02*
X001768Y000898D01*
X001768Y000781D02*
X002181Y000781D01*
X002181Y000665D02*
X001768Y000665D01*
X001768Y000548D02*
X002181Y000548D01*
X002229Y000432D02*
X001768Y000432D01*
X001768Y001248D02*
X002181Y001248D01*
X002531Y001481D02*
X002650Y001481D01*
X002650Y001598D02*
X002531Y001598D01*
X002531Y001714D02*
X002650Y001714D01*
X002650Y001831D02*
X002531Y001831D01*
X002531Y001948D02*
X002650Y001948D01*
X002650Y002064D02*
X002531Y002064D01*
X002531Y002181D02*
X002650Y002181D01*
X002650Y002297D02*
X002531Y002297D01*
X006591Y002376D02*
X006591Y001372D01*
X007591Y001372D02*
X007591Y002958D01*
X007823Y003191D01*
X008098Y001380D02*
X008146Y001372D01*
X008591Y001372D01*
X009591Y001372D02*
X009591Y002872D01*
X010194Y003930D02*
X010500Y003930D01*
X010500Y004047D02*
X010284Y004047D01*
X010323Y004163D02*
X010500Y004163D01*
X010500Y004280D02*
X010323Y004280D01*
X010278Y004396D02*
X010500Y004396D01*
X010500Y004513D02*
X010179Y004513D01*
X008453Y005351D02*
X008453Y005631D01*
X007612Y005912D02*
X006931Y005912D01*
X007048Y005796D02*
X007496Y005796D01*
X007429Y005679D02*
X007164Y005679D01*
X008179Y006612D02*
X008372Y006612D01*
X008275Y008011D02*
X008276Y008011D01*
X008160Y008128D02*
X008391Y008128D01*
X007764Y008011D02*
X007763Y008011D01*
X007252Y008011D02*
X007252Y008011D01*
X006327Y009567D02*
X006327Y009567D01*
X007824Y009644D02*
X008701Y009644D01*
X008089Y009760D02*
X007921Y009760D01*
X007921Y010344D02*
X008079Y010344D01*
X008149Y010460D02*
X007822Y010460D01*
X009725Y011276D02*
X010451Y011276D01*
X010382Y011393D02*
X009907Y011393D01*
X010002Y011510D02*
X010382Y011510D01*
X010382Y011626D02*
X010050Y011626D01*
X010067Y011743D02*
X010382Y011743D01*
X010382Y011859D02*
X010067Y011859D01*
X010027Y011976D02*
X010382Y011976D01*
X010382Y012093D02*
X009968Y012093D01*
X009851Y012209D02*
X010390Y012209D01*
D28*
X004122Y009805D02*
X004122Y007915D01*
X002547Y007915D01*
X002547Y009805D01*
X004122Y009805D01*
X004122Y009611D02*
X002547Y009611D01*
X002547Y009219D02*
X004122Y009219D01*
X004122Y008827D02*
X002547Y008827D01*
X002547Y008435D02*
X004122Y008435D01*
X004122Y008042D02*
X002547Y008042D01*
D29*
X003335Y009569D02*
X004024Y011773D01*
D30*
X007665Y004967D02*
X008453Y004967D01*
X009240Y004967D01*
M02*
