G75*
%MOIN*%
%OFA0B0*%
%FSLAX25Y25*%
%IPPOS*%
%LPD*%
%AMOC8*
5,1,8,0,0,1.08239X$1,22.5*
%
%ADD10C,0.00000*%
%ADD11C,0.00400*%
%ADD12C,0.02578*%
%ADD13C,0.07087*%
%ADD14C,0.02001*%
%ADD15C,0.02953*%
%ADD16C,0.02375*%
%ADD17C,0.01181*%
%ADD18C,0.01969*%
D10*
X0014071Y0001984D02*
X0014071Y0021669D01*
X0001591Y0021669D01*
X0001591Y0132693D01*
X0116551Y0132693D01*
X0116551Y0021669D01*
X0104071Y0021669D01*
X0104071Y0001984D01*
X0014071Y0001984D01*
D11*
X0106710Y0070688D02*
X0106710Y0071966D01*
X0107135Y0072391D01*
X0107987Y0072391D01*
X0108413Y0071966D01*
X0108413Y0070688D01*
X0109265Y0070688D02*
X0106710Y0070688D01*
X0106710Y0073407D02*
X0109265Y0073407D01*
X0108413Y0074259D01*
X0109265Y0075110D01*
X0106710Y0075110D01*
X0106710Y0076126D02*
X0106710Y0077403D01*
X0107135Y0077829D01*
X0107987Y0077829D01*
X0108413Y0077403D01*
X0108413Y0076126D01*
X0108413Y0076978D02*
X0109265Y0077829D01*
X0107987Y0078845D02*
X0107987Y0080548D01*
X0107987Y0081564D02*
X0107561Y0082415D01*
X0107561Y0082841D01*
X0107987Y0083267D01*
X0108839Y0083267D01*
X0109265Y0082841D01*
X0109265Y0081989D01*
X0108839Y0081564D01*
X0107987Y0081564D02*
X0106710Y0081564D01*
X0106710Y0083267D01*
X0106710Y0084282D02*
X0108413Y0084282D01*
X0109265Y0085134D01*
X0108413Y0085986D01*
X0106710Y0085986D01*
X0111434Y0082841D02*
X0111434Y0081564D01*
X0113989Y0081564D01*
X0113137Y0081564D02*
X0113137Y0082841D01*
X0112712Y0083267D01*
X0111860Y0083267D01*
X0111434Y0082841D01*
X0113137Y0082415D02*
X0113989Y0083267D01*
X0113989Y0080548D02*
X0113989Y0078845D01*
X0111434Y0078845D01*
X0111434Y0080548D01*
X0112712Y0079696D02*
X0112712Y0078845D01*
X0111860Y0077829D02*
X0112712Y0076978D01*
X0113989Y0076978D01*
X0112712Y0076978D02*
X0111860Y0076126D01*
X0111434Y0076126D01*
X0112286Y0075110D02*
X0111434Y0074259D01*
X0112286Y0073407D01*
X0113989Y0073407D01*
X0113989Y0072391D02*
X0113989Y0070688D01*
X0111434Y0070688D01*
X0112712Y0073407D02*
X0112712Y0075110D01*
X0112286Y0075110D02*
X0113989Y0075110D01*
X0111860Y0077829D02*
X0111434Y0077829D01*
X0109265Y0076126D02*
X0106710Y0076126D01*
D12*
X0088598Y0073638D03*
X0088598Y0068520D03*
X0083480Y0068520D03*
X0083480Y0073638D03*
X0078362Y0073638D03*
X0078362Y0068520D03*
X0073244Y0068520D03*
X0073244Y0073638D03*
X0073244Y0078756D03*
X0068126Y0078756D03*
X0063008Y0078756D03*
X0063008Y0073638D03*
X0063008Y0068520D03*
X0068126Y0068520D03*
X0068126Y0073638D03*
X0057890Y0073638D03*
X0057890Y0068520D03*
X0057890Y0078756D03*
X0078362Y0078756D03*
X0083480Y0078756D03*
X0088598Y0078756D03*
D13*
X0093520Y0117732D03*
X0107299Y0117732D03*
X0079740Y0117732D03*
X0065961Y0117732D03*
X0052181Y0117732D03*
X0038402Y0117732D03*
X0024622Y0117732D03*
X0010843Y0117732D03*
D14*
X0026787Y0072850D03*
X0029937Y0055528D03*
X0026787Y0050803D03*
X0027575Y0045291D03*
X0026000Y0041354D03*
X0028756Y0021669D03*
X0029150Y0017732D03*
X0028756Y0013795D03*
X0029150Y0009858D03*
X0028756Y0005134D03*
X0017732Y0005921D03*
X0018520Y0011433D03*
X0018520Y0016945D03*
X0017732Y0021669D03*
X0044110Y0050803D03*
X0044898Y0043717D03*
X0060646Y0055528D03*
X0063795Y0051591D03*
X0077969Y0057102D03*
X0082693Y0056315D03*
X0087417Y0057102D03*
X0094504Y0035843D03*
X0079150Y0018520D03*
X0079150Y0013795D03*
X0065370Y0027181D03*
X0060646Y0027181D03*
X0049622Y0016945D03*
X0048835Y0013795D03*
X0049622Y0009858D03*
X0048835Y0005921D03*
X0048835Y0020094D03*
X0076394Y0031906D03*
X0082693Y0090961D03*
X0083480Y0093323D03*
X0085843Y0093717D03*
X0094504Y0098835D03*
X0093717Y0102772D03*
X0063008Y0093323D03*
X0063795Y0090961D03*
X0061039Y0091748D03*
X0059465Y0093717D03*
D15*
X0059465Y0103953D03*
X0051984Y0106709D03*
X0098441Y0101197D03*
D16*
X0096079Y0072063D03*
X0056315Y0091354D03*
X0037811Y0088598D03*
X0037811Y0095685D03*
X0031512Y0095685D03*
X0025213Y0095685D03*
X0025213Y0088598D03*
X0031512Y0088598D03*
X0031512Y0080724D03*
X0025213Y0080724D03*
X0037811Y0080724D03*
D17*
X0026787Y0072850D02*
X0017339Y0072850D01*
X0017339Y0110449D01*
X0024622Y0117732D01*
X0017339Y0072850D02*
X0017339Y0034268D01*
X0022850Y0028756D01*
X0050409Y0028756D01*
X0055921Y0023244D01*
X0075606Y0023244D01*
X0079150Y0019701D01*
X0079150Y0018520D01*
X0065370Y0027181D02*
X0065370Y0035055D01*
X0049622Y0050803D01*
X0044110Y0050803D01*
X0040961Y0039780D02*
X0029937Y0050803D01*
X0026787Y0050803D01*
X0040961Y0039780D02*
X0048047Y0039780D01*
X0060646Y0027181D01*
D18*
X0055216Y0019701D02*
X0074139Y0019701D01*
X0075196Y0018643D01*
X0075196Y0017733D01*
X0075798Y0016280D01*
X0075921Y0016157D01*
X0075798Y0016035D01*
X0075196Y0014582D01*
X0075196Y0013009D01*
X0075798Y0011556D01*
X0076910Y0010444D01*
X0078363Y0009842D01*
X0079936Y0009842D01*
X0081389Y0010444D01*
X0082501Y0011556D01*
X0083103Y0013009D01*
X0083103Y0014582D01*
X0082501Y0016035D01*
X0082378Y0016157D01*
X0082501Y0016280D01*
X0083103Y0017733D01*
X0083103Y0019306D01*
X0082693Y0020295D01*
X0082693Y0020406D01*
X0082153Y0021708D01*
X0077613Y0026248D01*
X0076311Y0026787D01*
X0069323Y0026787D01*
X0069323Y0027967D01*
X0068913Y0028957D01*
X0068913Y0035760D01*
X0068374Y0037062D01*
X0067377Y0038059D01*
X0051629Y0053807D01*
X0050327Y0054346D01*
X0045886Y0054346D01*
X0044897Y0054756D01*
X0043324Y0054756D01*
X0041871Y0054154D01*
X0040759Y0053042D01*
X0040157Y0051589D01*
X0040157Y0050017D01*
X0040759Y0048564D01*
X0041871Y0047452D01*
X0042728Y0047097D01*
X0042658Y0047068D01*
X0041546Y0045956D01*
X0041033Y0044718D01*
X0031944Y0053807D01*
X0030642Y0054346D01*
X0028563Y0054346D01*
X0027574Y0054756D01*
X0026001Y0054756D01*
X0024548Y0054154D01*
X0023436Y0053042D01*
X0022834Y0051589D01*
X0022834Y0050017D01*
X0023436Y0048564D01*
X0024346Y0047654D01*
X0024223Y0047531D01*
X0023622Y0046078D01*
X0023622Y0044505D01*
X0024223Y0043052D01*
X0025336Y0041940D01*
X0026788Y0041338D01*
X0028361Y0041338D01*
X0029814Y0041940D01*
X0030926Y0043052D01*
X0031439Y0044290D01*
X0038954Y0036776D01*
X0040256Y0036236D01*
X0046580Y0036236D01*
X0050517Y0032299D01*
X0024318Y0032299D01*
X0020882Y0035735D01*
X0020882Y0069307D01*
X0025012Y0069307D01*
X0026001Y0068897D01*
X0027574Y0068897D01*
X0029027Y0069499D01*
X0030139Y0070611D01*
X0030741Y0072064D01*
X0030741Y0073637D01*
X0030139Y0075090D01*
X0029027Y0076202D01*
X0027574Y0076804D01*
X0026565Y0076804D01*
X0027558Y0077215D01*
X0028362Y0078019D01*
X0029167Y0077215D01*
X0030688Y0076584D01*
X0032335Y0076584D01*
X0033857Y0077215D01*
X0034661Y0078019D01*
X0035466Y0077215D01*
X0036987Y0076584D01*
X0038635Y0076584D01*
X0040156Y0077215D01*
X0041321Y0078379D01*
X0041951Y0079901D01*
X0041951Y0081548D01*
X0041321Y0083070D01*
X0040156Y0084234D01*
X0039125Y0084661D01*
X0040156Y0085089D01*
X0041321Y0086253D01*
X0041951Y0087775D01*
X0041951Y0089422D01*
X0041321Y0090944D01*
X0040156Y0092108D01*
X0040075Y0092142D01*
X0040156Y0092175D01*
X0041321Y0093340D01*
X0041951Y0094862D01*
X0041951Y0096509D01*
X0041321Y0098030D01*
X0040156Y0099195D01*
X0038635Y0099825D01*
X0036987Y0099825D01*
X0035466Y0099195D01*
X0034661Y0098390D01*
X0033857Y0099195D01*
X0032335Y0099825D01*
X0030688Y0099825D01*
X0029167Y0099195D01*
X0028362Y0098390D01*
X0027558Y0099195D01*
X0026036Y0099825D01*
X0024389Y0099825D01*
X0022867Y0099195D01*
X0021703Y0098030D01*
X0021072Y0096509D01*
X0021072Y0094862D01*
X0021703Y0093340D01*
X0022867Y0092175D01*
X0022948Y0092142D01*
X0022867Y0092108D01*
X0021703Y0090944D01*
X0021072Y0089422D01*
X0021072Y0087775D01*
X0021703Y0086253D01*
X0022867Y0085089D01*
X0023899Y0084661D01*
X0022867Y0084234D01*
X0021703Y0083070D01*
X0021072Y0081548D01*
X0021072Y0079901D01*
X0021703Y0078379D01*
X0022867Y0077215D01*
X0024389Y0076584D01*
X0025472Y0076584D01*
X0025012Y0076394D01*
X0020882Y0076394D01*
X0020882Y0108981D01*
X0023193Y0111293D01*
X0023330Y0111236D01*
X0025914Y0111236D01*
X0028302Y0112225D01*
X0030129Y0114053D01*
X0031118Y0116440D01*
X0031118Y0119024D01*
X0030129Y0121412D01*
X0028302Y0123239D01*
X0025914Y0124228D01*
X0023330Y0124228D01*
X0020942Y0123239D01*
X0019115Y0121412D01*
X0018126Y0119024D01*
X0018126Y0116440D01*
X0018182Y0116304D01*
X0016645Y0114767D01*
X0017339Y0116440D01*
X0017339Y0119024D01*
X0016350Y0121412D01*
X0014522Y0123239D01*
X0012135Y0124228D01*
X0009550Y0124228D01*
X0007163Y0123239D01*
X0005335Y0121412D01*
X0004543Y0119500D01*
X0004543Y0129740D01*
X0113598Y0129740D01*
X0113598Y0119500D01*
X0112806Y0121412D01*
X0110979Y0123239D01*
X0108591Y0124228D01*
X0106007Y0124228D01*
X0103619Y0123239D01*
X0101792Y0121412D01*
X0100803Y0119024D01*
X0100803Y0116440D01*
X0101792Y0114053D01*
X0103619Y0112225D01*
X0106007Y0111236D01*
X0108591Y0111236D01*
X0110979Y0112225D01*
X0112806Y0114053D01*
X0113598Y0115965D01*
X0113598Y0105134D01*
X0103165Y0105134D01*
X0103165Y0024490D01*
X0102398Y0024173D01*
X0101568Y0023342D01*
X0101118Y0022257D01*
X0101118Y0004937D01*
X0052706Y0004937D01*
X0052788Y0005135D01*
X0052788Y0006708D01*
X0052575Y0007221D01*
X0052973Y0007619D01*
X0053575Y0009072D01*
X0053575Y0010645D01*
X0052973Y0012098D01*
X0052575Y0012496D01*
X0052788Y0013009D01*
X0052788Y0014520D01*
X0052973Y0014706D01*
X0053575Y0016159D01*
X0053575Y0017731D01*
X0052973Y0019184D01*
X0052788Y0019370D01*
X0052788Y0020881D01*
X0052444Y0021710D01*
X0053914Y0020240D01*
X0055216Y0019701D01*
X0053575Y0017720D02*
X0075202Y0017720D01*
X0074152Y0019687D02*
X0052788Y0019687D01*
X0052500Y0021654D02*
X0052467Y0021654D01*
X0053407Y0015753D02*
X0075682Y0015753D01*
X0075196Y0013786D02*
X0052788Y0013786D01*
X0053089Y0011819D02*
X0075689Y0011819D01*
X0078339Y0009852D02*
X0053575Y0009852D01*
X0053084Y0007885D02*
X0101118Y0007885D01*
X0101118Y0005918D02*
X0052788Y0005918D01*
X0069323Y0027555D02*
X0103165Y0027555D01*
X0103165Y0025588D02*
X0078273Y0025588D01*
X0077180Y0027952D02*
X0078633Y0028554D01*
X0079745Y0029666D01*
X0080347Y0031119D01*
X0080347Y0032692D01*
X0079745Y0034145D01*
X0078633Y0035257D01*
X0077180Y0035859D01*
X0075607Y0035859D01*
X0074154Y0035257D01*
X0073042Y0034145D01*
X0072441Y0032692D01*
X0072441Y0031119D01*
X0073042Y0029666D01*
X0074154Y0028554D01*
X0075607Y0027952D01*
X0077180Y0027952D01*
X0079601Y0029522D02*
X0103165Y0029522D01*
X0103165Y0031489D02*
X0080347Y0031489D01*
X0080030Y0033456D02*
X0091299Y0033456D01*
X0091153Y0033603D02*
X0092265Y0032491D01*
X0093718Y0031889D01*
X0095290Y0031889D01*
X0096743Y0032491D01*
X0097855Y0033603D01*
X0098457Y0035056D01*
X0098457Y0036629D01*
X0097855Y0038082D01*
X0096743Y0039194D01*
X0095290Y0039796D01*
X0093718Y0039796D01*
X0092265Y0039194D01*
X0091153Y0038082D01*
X0090551Y0036629D01*
X0090551Y0035056D01*
X0091153Y0033603D01*
X0090551Y0035424D02*
X0078231Y0035424D01*
X0074557Y0035424D02*
X0068913Y0035424D01*
X0068046Y0037391D02*
X0090866Y0037391D01*
X0092660Y0039358D02*
X0066079Y0039358D01*
X0064112Y0041325D02*
X0103165Y0041325D01*
X0103165Y0039358D02*
X0096348Y0039358D01*
X0098142Y0037391D02*
X0103165Y0037391D01*
X0103165Y0035424D02*
X0098457Y0035424D01*
X0097709Y0033456D02*
X0103165Y0033456D01*
X0101847Y0023621D02*
X0080240Y0023621D01*
X0082176Y0021654D02*
X0101118Y0021654D01*
X0101118Y0019687D02*
X0082945Y0019687D01*
X0083097Y0017720D02*
X0101118Y0017720D01*
X0101118Y0015753D02*
X0082617Y0015753D01*
X0083103Y0013786D02*
X0101118Y0013786D01*
X0101118Y0011819D02*
X0082610Y0011819D01*
X0079961Y0009852D02*
X0101118Y0009852D01*
X0073186Y0029522D02*
X0068913Y0029522D01*
X0068913Y0031489D02*
X0072441Y0031489D01*
X0072757Y0033456D02*
X0068913Y0033456D01*
X0062145Y0043292D02*
X0103165Y0043292D01*
X0103165Y0045259D02*
X0060178Y0045259D01*
X0058211Y0047226D02*
X0103165Y0047226D01*
X0103165Y0049193D02*
X0056244Y0049193D01*
X0054277Y0051160D02*
X0103165Y0051160D01*
X0103165Y0053127D02*
X0085095Y0053127D01*
X0084932Y0052964D02*
X0085561Y0053592D01*
X0086631Y0053149D01*
X0088204Y0053149D01*
X0089657Y0053751D01*
X0090769Y0054863D01*
X0091370Y0056316D01*
X0091370Y0057889D01*
X0090769Y0059342D01*
X0089657Y0060454D01*
X0088204Y0061055D01*
X0086631Y0061055D01*
X0085178Y0060454D01*
X0084549Y0059825D01*
X0083479Y0060268D01*
X0081907Y0060268D01*
X0080837Y0059825D01*
X0080208Y0060454D01*
X0078755Y0061055D01*
X0077182Y0061055D01*
X0075729Y0060454D01*
X0074617Y0059342D01*
X0074015Y0057889D01*
X0074015Y0056316D01*
X0074617Y0054863D01*
X0075729Y0053751D01*
X0077182Y0053149D01*
X0078755Y0053149D01*
X0079825Y0053592D01*
X0080454Y0052964D01*
X0081907Y0052362D01*
X0083479Y0052362D01*
X0084932Y0052964D01*
X0080291Y0053127D02*
X0063835Y0053127D01*
X0063997Y0053288D02*
X0064599Y0054741D01*
X0064599Y0056314D01*
X0063997Y0057767D01*
X0062885Y0058879D01*
X0061432Y0059481D01*
X0059859Y0059481D01*
X0058406Y0058879D01*
X0057294Y0057767D01*
X0056693Y0056314D01*
X0056693Y0054741D01*
X0057294Y0053288D01*
X0058406Y0052176D01*
X0059859Y0051574D01*
X0061432Y0051574D01*
X0062885Y0052176D01*
X0063997Y0053288D01*
X0064599Y0055094D02*
X0074522Y0055094D01*
X0074015Y0057061D02*
X0064289Y0057061D01*
X0062526Y0059028D02*
X0074487Y0059028D01*
X0077035Y0060995D02*
X0020882Y0060995D01*
X0020882Y0059028D02*
X0058766Y0059028D01*
X0057002Y0057061D02*
X0020882Y0057061D01*
X0020882Y0055094D02*
X0056693Y0055094D01*
X0057456Y0053127D02*
X0052310Y0053127D01*
X0042417Y0047226D02*
X0038526Y0047226D01*
X0040493Y0045259D02*
X0041258Y0045259D01*
X0040498Y0049193D02*
X0036559Y0049193D01*
X0034591Y0051160D02*
X0040157Y0051160D01*
X0040843Y0053127D02*
X0032624Y0053127D01*
X0032438Y0043292D02*
X0031025Y0043292D01*
X0034405Y0041325D02*
X0020882Y0041325D01*
X0020882Y0039358D02*
X0036372Y0039358D01*
X0038339Y0037391D02*
X0020882Y0037391D01*
X0021194Y0035424D02*
X0047392Y0035424D01*
X0049359Y0033456D02*
X0023161Y0033456D01*
X0024124Y0043292D02*
X0020882Y0043292D01*
X0020882Y0045259D02*
X0023622Y0045259D01*
X0024097Y0047226D02*
X0020882Y0047226D01*
X0020882Y0049193D02*
X0023176Y0049193D01*
X0022834Y0051160D02*
X0020882Y0051160D01*
X0020882Y0053127D02*
X0023520Y0053127D01*
X0020882Y0062962D02*
X0103165Y0062962D01*
X0103165Y0064929D02*
X0091006Y0064929D01*
X0091001Y0064924D02*
X0092194Y0066117D01*
X0092840Y0067676D01*
X0092840Y0069363D01*
X0092781Y0069505D01*
X0093734Y0068553D01*
X0095255Y0067923D01*
X0096902Y0067923D01*
X0098424Y0068553D01*
X0099589Y0069718D01*
X0100219Y0071239D01*
X0100219Y0072887D01*
X0099589Y0074408D01*
X0098424Y0075573D01*
X0096902Y0076203D01*
X0095255Y0076203D01*
X0093734Y0075573D01*
X0092782Y0074621D01*
X0092194Y0076041D01*
X0092038Y0076197D01*
X0092194Y0076353D01*
X0092840Y0077912D01*
X0092840Y0079600D01*
X0092194Y0081159D01*
X0091001Y0082352D01*
X0089442Y0082998D01*
X0087755Y0082998D01*
X0086196Y0082352D01*
X0086039Y0082196D01*
X0085883Y0082352D01*
X0084324Y0082998D01*
X0082637Y0082998D01*
X0081078Y0082352D01*
X0080921Y0082196D01*
X0080765Y0082352D01*
X0079206Y0082998D01*
X0077518Y0082998D01*
X0075959Y0082352D01*
X0075803Y0082196D01*
X0075647Y0082352D01*
X0074088Y0082998D01*
X0072400Y0082998D01*
X0070841Y0082352D01*
X0070685Y0082196D01*
X0070529Y0082352D01*
X0068970Y0082998D01*
X0067282Y0082998D01*
X0065723Y0082352D01*
X0065567Y0082196D01*
X0065411Y0082352D01*
X0063852Y0082998D01*
X0062164Y0082998D01*
X0060605Y0082352D01*
X0060449Y0082196D01*
X0060293Y0082352D01*
X0058733Y0082998D01*
X0057046Y0082998D01*
X0055487Y0082352D01*
X0054294Y0081159D01*
X0053648Y0079600D01*
X0053648Y0077912D01*
X0054294Y0076353D01*
X0054450Y0076197D01*
X0054294Y0076041D01*
X0053648Y0074482D01*
X0053648Y0072794D01*
X0054294Y0071235D01*
X0054450Y0071079D01*
X0054294Y0070922D01*
X0053648Y0069363D01*
X0053648Y0067676D01*
X0054294Y0066117D01*
X0055487Y0064924D01*
X0057046Y0064278D01*
X0058733Y0064278D01*
X0060293Y0064924D01*
X0060449Y0065080D01*
X0060605Y0064924D01*
X0062164Y0064278D01*
X0063852Y0064278D01*
X0065411Y0064924D01*
X0065567Y0065080D01*
X0065723Y0064924D01*
X0067282Y0064278D01*
X0068970Y0064278D01*
X0070529Y0064924D01*
X0070685Y0065080D01*
X0070841Y0064924D01*
X0072400Y0064278D01*
X0074088Y0064278D01*
X0075647Y0064924D01*
X0075803Y0065080D01*
X0075959Y0064924D01*
X0077518Y0064278D01*
X0079206Y0064278D01*
X0080765Y0064924D01*
X0080921Y0065080D01*
X0081078Y0064924D01*
X0082637Y0064278D01*
X0084324Y0064278D01*
X0085883Y0064924D01*
X0086039Y0065080D01*
X0086196Y0064924D01*
X0087755Y0064278D01*
X0089442Y0064278D01*
X0091001Y0064924D01*
X0092517Y0066896D02*
X0103165Y0066896D01*
X0103165Y0068863D02*
X0098734Y0068863D01*
X0100049Y0070830D02*
X0103165Y0070830D01*
X0103165Y0072797D02*
X0100219Y0072797D01*
X0099233Y0074764D02*
X0103165Y0074764D01*
X0103165Y0076731D02*
X0092351Y0076731D01*
X0092840Y0078698D02*
X0103165Y0078698D01*
X0103165Y0080665D02*
X0092399Y0080665D01*
X0090325Y0082632D02*
X0103165Y0082632D01*
X0103165Y0084599D02*
X0039276Y0084599D01*
X0041450Y0086566D02*
X0103165Y0086566D01*
X0103165Y0088533D02*
X0085856Y0088533D01*
X0086044Y0088721D02*
X0086476Y0089763D01*
X0086629Y0089763D01*
X0088082Y0090365D01*
X0089194Y0091477D01*
X0089796Y0092930D01*
X0089796Y0094503D01*
X0089194Y0095956D01*
X0088082Y0097068D01*
X0086629Y0097670D01*
X0085056Y0097670D01*
X0084106Y0097276D01*
X0082694Y0097276D01*
X0081241Y0096674D01*
X0080129Y0095562D01*
X0079527Y0094109D01*
X0079527Y0093385D01*
X0079342Y0093200D01*
X0078740Y0091747D01*
X0078740Y0090174D01*
X0079342Y0088721D01*
X0080454Y0087609D01*
X0081907Y0087007D01*
X0083479Y0087007D01*
X0084932Y0087609D01*
X0086044Y0088721D01*
X0088217Y0090500D02*
X0103165Y0090500D01*
X0103165Y0092467D02*
X0089604Y0092467D01*
X0089796Y0094434D02*
X0103165Y0094434D01*
X0103165Y0096401D02*
X0097661Y0096401D01*
X0097855Y0096595D02*
X0097927Y0096768D01*
X0099322Y0096768D01*
X0100950Y0097442D01*
X0102196Y0098688D01*
X0102870Y0100316D01*
X0102870Y0102078D01*
X0102196Y0103706D01*
X0100950Y0104952D01*
X0099322Y0105626D01*
X0097560Y0105626D01*
X0096777Y0105302D01*
X0095956Y0106123D01*
X0094503Y0106725D01*
X0092930Y0106725D01*
X0091477Y0106123D01*
X0090365Y0105011D01*
X0089763Y0103558D01*
X0089763Y0101985D01*
X0090365Y0100532D01*
X0090763Y0100134D01*
X0090551Y0099621D01*
X0090551Y0098048D01*
X0091153Y0096595D01*
X0092265Y0095483D01*
X0093718Y0094881D01*
X0095290Y0094881D01*
X0096743Y0095483D01*
X0097855Y0096595D01*
X0101876Y0098368D02*
X0103165Y0098368D01*
X0103165Y0100335D02*
X0102870Y0100335D01*
X0102777Y0102302D02*
X0103165Y0102302D01*
X0103165Y0104269D02*
X0101632Y0104269D01*
X0095683Y0106236D02*
X0113598Y0106236D01*
X0113598Y0108203D02*
X0060777Y0108203D01*
X0060346Y0108382D02*
X0058584Y0108382D01*
X0056956Y0107708D01*
X0056413Y0107165D01*
X0056413Y0107590D01*
X0055739Y0109218D01*
X0054493Y0110463D01*
X0052865Y0111138D01*
X0051103Y0111138D01*
X0049475Y0110463D01*
X0048229Y0109218D01*
X0047555Y0107590D01*
X0047555Y0105828D01*
X0048229Y0104200D01*
X0049475Y0102954D01*
X0051103Y0102280D01*
X0052865Y0102280D01*
X0054493Y0102954D01*
X0055035Y0103496D01*
X0055035Y0103072D01*
X0055710Y0101444D01*
X0056956Y0100198D01*
X0058584Y0099524D01*
X0060346Y0099524D01*
X0061973Y0100198D01*
X0063219Y0101444D01*
X0063894Y0103072D01*
X0063894Y0104834D01*
X0063219Y0106462D01*
X0061973Y0107708D01*
X0060346Y0108382D01*
X0058152Y0108203D02*
X0056159Y0108203D01*
X0054787Y0110170D02*
X0113598Y0110170D01*
X0113598Y0112137D02*
X0110766Y0112137D01*
X0112828Y0114104D02*
X0113598Y0114104D01*
X0113598Y0120005D02*
X0113389Y0120005D01*
X0113598Y0121972D02*
X0112246Y0121972D01*
X0113598Y0123939D02*
X0109289Y0123939D01*
X0105309Y0123939D02*
X0095510Y0123939D01*
X0094812Y0124228D02*
X0092228Y0124228D01*
X0089840Y0123239D01*
X0088013Y0121412D01*
X0087024Y0119024D01*
X0087024Y0116440D01*
X0088013Y0114053D01*
X0089840Y0112225D01*
X0092228Y0111236D01*
X0094812Y0111236D01*
X0097199Y0112225D01*
X0099027Y0114053D01*
X0100016Y0116440D01*
X0100016Y0119024D01*
X0099027Y0121412D01*
X0097199Y0123239D01*
X0094812Y0124228D01*
X0091529Y0123939D02*
X0081730Y0123939D01*
X0081032Y0124228D02*
X0078448Y0124228D01*
X0076060Y0123239D01*
X0074233Y0121412D01*
X0073244Y0119024D01*
X0073244Y0116440D01*
X0074233Y0114053D01*
X0076060Y0112225D01*
X0078448Y0111236D01*
X0081032Y0111236D01*
X0083420Y0112225D01*
X0085247Y0114053D01*
X0086236Y0116440D01*
X0086236Y0119024D01*
X0085247Y0121412D01*
X0083420Y0123239D01*
X0081032Y0124228D01*
X0077750Y0123939D02*
X0067951Y0123939D01*
X0067253Y0124228D02*
X0064668Y0124228D01*
X0062281Y0123239D01*
X0060454Y0121412D01*
X0059465Y0119024D01*
X0059465Y0116440D01*
X0060454Y0114053D01*
X0062281Y0112225D01*
X0064668Y0111236D01*
X0067253Y0111236D01*
X0069640Y0112225D01*
X0071468Y0114053D01*
X0072457Y0116440D01*
X0072457Y0119024D01*
X0071468Y0121412D01*
X0069640Y0123239D01*
X0067253Y0124228D01*
X0063970Y0123939D02*
X0054171Y0123939D01*
X0053473Y0124228D02*
X0050889Y0124228D01*
X0048501Y0123239D01*
X0046674Y0121412D01*
X0045685Y0119024D01*
X0045685Y0116440D01*
X0046674Y0114053D01*
X0048501Y0112225D01*
X0050889Y0111236D01*
X0053473Y0111236D01*
X0055861Y0112225D01*
X0057688Y0114053D01*
X0058677Y0116440D01*
X0058677Y0119024D01*
X0057688Y0121412D01*
X0055861Y0123239D01*
X0053473Y0124228D01*
X0050191Y0123939D02*
X0040392Y0123939D01*
X0039694Y0124228D02*
X0037109Y0124228D01*
X0034722Y0123239D01*
X0032894Y0121412D01*
X0031906Y0119024D01*
X0031906Y0116440D01*
X0032894Y0114053D01*
X0034722Y0112225D01*
X0037109Y0111236D01*
X0039694Y0111236D01*
X0042081Y0112225D01*
X0043909Y0114053D01*
X0044898Y0116440D01*
X0044898Y0119024D01*
X0043909Y0121412D01*
X0042081Y0123239D01*
X0039694Y0124228D01*
X0036411Y0123939D02*
X0026612Y0123939D01*
X0029569Y0121972D02*
X0033455Y0121972D01*
X0032312Y0120005D02*
X0030712Y0120005D01*
X0031118Y0118038D02*
X0031906Y0118038D01*
X0032058Y0116071D02*
X0030965Y0116071D01*
X0030150Y0114104D02*
X0032873Y0114104D01*
X0034934Y0112137D02*
X0028089Y0112137D01*
X0022071Y0110170D02*
X0049182Y0110170D01*
X0048714Y0112137D02*
X0041869Y0112137D01*
X0043930Y0114104D02*
X0046653Y0114104D01*
X0045838Y0116071D02*
X0044745Y0116071D01*
X0044898Y0118038D02*
X0045685Y0118038D01*
X0046091Y0120005D02*
X0044491Y0120005D01*
X0043348Y0121972D02*
X0047234Y0121972D01*
X0055648Y0112137D02*
X0062494Y0112137D01*
X0060432Y0114104D02*
X0057710Y0114104D01*
X0058524Y0116071D02*
X0059617Y0116071D01*
X0059465Y0118038D02*
X0058677Y0118038D01*
X0058271Y0120005D02*
X0059871Y0120005D01*
X0061014Y0121972D02*
X0057128Y0121972D01*
X0069428Y0112137D02*
X0076273Y0112137D01*
X0074212Y0114104D02*
X0071489Y0114104D01*
X0072304Y0116071D02*
X0073397Y0116071D01*
X0073244Y0118038D02*
X0072457Y0118038D01*
X0072050Y0120005D02*
X0073650Y0120005D01*
X0074793Y0121972D02*
X0070908Y0121972D01*
X0083207Y0112137D02*
X0090053Y0112137D01*
X0087991Y0114104D02*
X0085269Y0114104D01*
X0086083Y0116071D02*
X0087176Y0116071D01*
X0087024Y0118038D02*
X0086236Y0118038D01*
X0085830Y0120005D02*
X0087430Y0120005D01*
X0088573Y0121972D02*
X0084687Y0121972D01*
X0096987Y0112137D02*
X0103832Y0112137D01*
X0101771Y0114104D02*
X0099048Y0114104D01*
X0099863Y0116071D02*
X0100956Y0116071D01*
X0100803Y0118038D02*
X0100016Y0118038D01*
X0099610Y0120005D02*
X0101209Y0120005D01*
X0102352Y0121972D02*
X0098467Y0121972D01*
X0091750Y0106236D02*
X0063313Y0106236D01*
X0063894Y0104269D02*
X0090058Y0104269D01*
X0089763Y0102302D02*
X0063575Y0102302D01*
X0062111Y0100335D02*
X0090563Y0100335D01*
X0090551Y0098368D02*
X0040983Y0098368D01*
X0041951Y0096401D02*
X0056558Y0096401D01*
X0056113Y0095956D02*
X0055922Y0095494D01*
X0055491Y0095494D01*
X0053970Y0094864D01*
X0052805Y0093700D01*
X0052175Y0092178D01*
X0052175Y0090531D01*
X0052805Y0089009D01*
X0053970Y0087844D01*
X0055491Y0087214D01*
X0057138Y0087214D01*
X0058660Y0087844D01*
X0059092Y0088276D01*
X0060253Y0087795D01*
X0061370Y0087795D01*
X0061556Y0087609D01*
X0063009Y0087007D01*
X0064582Y0087007D01*
X0066035Y0087609D01*
X0067147Y0088721D01*
X0067748Y0090174D01*
X0067748Y0091747D01*
X0067147Y0093200D01*
X0066961Y0093385D01*
X0066961Y0094109D01*
X0066359Y0095562D01*
X0065247Y0096674D01*
X0063794Y0097276D01*
X0062222Y0097276D01*
X0061708Y0097063D01*
X0061704Y0097068D01*
X0060251Y0097670D01*
X0058678Y0097670D01*
X0057225Y0097068D01*
X0056113Y0095956D01*
X0053540Y0094434D02*
X0041774Y0094434D01*
X0040448Y0092467D02*
X0052295Y0092467D01*
X0052188Y0090500D02*
X0041505Y0090500D01*
X0041951Y0088533D02*
X0053281Y0088533D01*
X0056163Y0082632D02*
X0041502Y0082632D01*
X0041951Y0080665D02*
X0054089Y0080665D01*
X0053648Y0078698D02*
X0041453Y0078698D01*
X0038988Y0076731D02*
X0054137Y0076731D01*
X0053765Y0074764D02*
X0030274Y0074764D01*
X0030741Y0072797D02*
X0053648Y0072797D01*
X0054255Y0070830D02*
X0030229Y0070830D01*
X0030334Y0076731D02*
X0027749Y0076731D01*
X0024035Y0076731D02*
X0020882Y0076731D01*
X0020882Y0078698D02*
X0021571Y0078698D01*
X0021072Y0080665D02*
X0020882Y0080665D01*
X0020882Y0082632D02*
X0021521Y0082632D01*
X0020882Y0084599D02*
X0023748Y0084599D01*
X0021573Y0086566D02*
X0020882Y0086566D01*
X0020882Y0088533D02*
X0021072Y0088533D01*
X0020882Y0090500D02*
X0021519Y0090500D01*
X0020882Y0092467D02*
X0022576Y0092467D01*
X0021250Y0094434D02*
X0020882Y0094434D01*
X0020882Y0096401D02*
X0021072Y0096401D01*
X0020882Y0098368D02*
X0022041Y0098368D01*
X0020882Y0100335D02*
X0056819Y0100335D01*
X0055354Y0102302D02*
X0052920Y0102302D01*
X0051049Y0102302D02*
X0020882Y0102302D01*
X0020882Y0104269D02*
X0048201Y0104269D01*
X0047555Y0106236D02*
X0020882Y0106236D01*
X0020882Y0108203D02*
X0047809Y0108203D01*
X0065520Y0096401D02*
X0080968Y0096401D01*
X0079662Y0094434D02*
X0066826Y0094434D01*
X0067450Y0092467D02*
X0079038Y0092467D01*
X0078740Y0090500D02*
X0067748Y0090500D01*
X0066958Y0088533D02*
X0079530Y0088533D01*
X0080089Y0082632D02*
X0081754Y0082632D01*
X0085207Y0082632D02*
X0086872Y0082632D01*
X0092723Y0074764D02*
X0092925Y0074764D01*
X0092840Y0068863D02*
X0093424Y0068863D01*
X0088350Y0060995D02*
X0103165Y0060995D01*
X0103165Y0059028D02*
X0090899Y0059028D01*
X0091370Y0057061D02*
X0103165Y0057061D01*
X0103165Y0055094D02*
X0090864Y0055094D01*
X0086484Y0060995D02*
X0078902Y0060995D01*
X0080770Y0064929D02*
X0081073Y0064929D01*
X0085888Y0064929D02*
X0086191Y0064929D01*
X0075954Y0064929D02*
X0075652Y0064929D01*
X0070836Y0064929D02*
X0070534Y0064929D01*
X0065718Y0064929D02*
X0065416Y0064929D01*
X0060600Y0064929D02*
X0060298Y0064929D01*
X0055482Y0064929D02*
X0020882Y0064929D01*
X0020882Y0066896D02*
X0053971Y0066896D01*
X0053648Y0068863D02*
X0020882Y0068863D01*
X0032689Y0076731D02*
X0036634Y0076731D01*
X0059616Y0082632D02*
X0061281Y0082632D01*
X0064735Y0082632D02*
X0066399Y0082632D01*
X0069853Y0082632D02*
X0071517Y0082632D01*
X0074971Y0082632D02*
X0076635Y0082632D01*
X0088749Y0096401D02*
X0091347Y0096401D01*
X0113598Y0125906D02*
X0004543Y0125906D01*
X0004543Y0127873D02*
X0113598Y0127873D01*
X0022632Y0123939D02*
X0012833Y0123939D01*
X0015789Y0121972D02*
X0019675Y0121972D01*
X0018532Y0120005D02*
X0016932Y0120005D01*
X0017339Y0118038D02*
X0018126Y0118038D01*
X0017950Y0116071D02*
X0017186Y0116071D01*
X0008852Y0123939D02*
X0004543Y0123939D01*
X0004543Y0121972D02*
X0005896Y0121972D01*
X0004753Y0120005D02*
X0004543Y0120005D01*
M02*
