G75*
%MOIN*%
%OFA0B0*%
%FSLAX24Y24*%
%IPPOS*%
%LPD*%
%AMOC8*
5,1,8,0,0,1.08239X$1,22.5*
%
%ADD10C,0.0000*%
%ADD11R,0.0500X0.1654*%
%ADD12R,0.0236X0.0354*%
%ADD13R,0.0500X0.0250*%
%ADD14R,0.0900X0.0960*%
%ADD15R,0.0591X0.0630*%
%ADD16R,0.0472X0.0472*%
%ADD17R,0.0315X0.0472*%
%ADD18R,0.0472X0.0217*%
%ADD19R,0.0472X0.0315*%
D10*
X001591Y000198D02*
X001591Y002167D01*
X000343Y002167D01*
X000343Y013269D01*
X011839Y013269D01*
X011839Y002167D01*
X010591Y002167D01*
X010591Y000198D01*
X001591Y000198D01*
D11*
X002591Y001372D03*
X003591Y001372D03*
X004591Y001372D03*
X005591Y001372D03*
X006591Y001372D03*
X007591Y001372D03*
X008591Y001372D03*
X009591Y001372D03*
D12*
X004087Y004076D03*
X003713Y004076D03*
X003339Y004076D03*
X003339Y004982D03*
X003713Y004982D03*
X004087Y004982D03*
D13*
X007665Y004967D03*
X007665Y005351D03*
X008453Y005351D03*
X008453Y004967D03*
X009240Y004967D03*
X009240Y005351D03*
D14*
X009240Y005159D03*
X008453Y005159D03*
X007665Y005159D03*
D15*
X007114Y008742D03*
D16*
X006720Y010051D03*
X007508Y010051D03*
D17*
X008413Y010080D03*
X009122Y010080D03*
X003610Y006655D03*
X003610Y006025D03*
X002902Y006025D03*
X002902Y006655D03*
X003295Y002954D03*
X004004Y002954D03*
X008886Y002876D03*
X009594Y002876D03*
D18*
X006760Y003289D03*
X006760Y004037D03*
X005736Y004037D03*
X005736Y003663D03*
X005736Y003289D03*
D19*
X005776Y004962D03*
X005776Y005671D03*
M02*
