G75*
%MOIN*%
%OFA0B0*%
%FSLAX24Y24*%
%IPPOS*%
%LPD*%
%AMOC8*
5,1,8,0,0,1.08239X$1,22.5*
%
%ADD10C,0.0000*%
%ADD11C,0.0118*%
%ADD12R,0.0580X0.1734*%
%ADD13R,0.0316X0.0434*%
%ADD14C,0.0338*%
%ADD15R,0.0580X0.0330*%
%ADD16R,0.0671X0.0710*%
%ADD17R,0.0552X0.0552*%
%ADD18R,0.0395X0.0552*%
%ADD19R,0.0552X0.0297*%
%ADD20R,0.0552X0.0395*%
%ADD21R,0.0789X0.0789*%
%ADD22C,0.0789*%
%ADD23C,0.0474*%
D10*
X001591Y000198D02*
X001591Y002167D01*
X000343Y002167D01*
X000343Y013269D01*
X011839Y013269D01*
X011839Y002167D01*
X010591Y002167D01*
X010591Y000198D01*
X001591Y000198D01*
D11*
X001602Y002167D02*
X000343Y002167D01*
X000343Y010356D01*
X001602Y010356D01*
X001602Y002167D01*
X001602Y002181D02*
X000343Y002181D01*
X000343Y002297D02*
X001602Y002297D01*
X001602Y002414D02*
X000343Y002414D01*
X000343Y002531D02*
X001602Y002531D01*
X001602Y002647D02*
X000343Y002647D01*
X000343Y002764D02*
X001602Y002764D01*
X001602Y002880D02*
X000343Y002880D01*
X000343Y002997D02*
X001602Y002997D01*
X001602Y003114D02*
X000343Y003114D01*
X000343Y003230D02*
X001602Y003230D01*
X001602Y003347D02*
X000343Y003347D01*
X000343Y003464D02*
X001602Y003464D01*
X001602Y003580D02*
X000343Y003580D01*
X000343Y003697D02*
X001602Y003697D01*
X001602Y003813D02*
X000343Y003813D01*
X000343Y003930D02*
X001602Y003930D01*
X001602Y004047D02*
X000343Y004047D01*
X000343Y004163D02*
X001602Y004163D01*
X001602Y004280D02*
X000343Y004280D01*
X000343Y004396D02*
X001602Y004396D01*
X001602Y004513D02*
X000343Y004513D01*
X000343Y004630D02*
X001602Y004630D01*
X001602Y004746D02*
X000343Y004746D01*
X000343Y004863D02*
X001602Y004863D01*
X001602Y004979D02*
X000343Y004979D01*
X000343Y005096D02*
X001602Y005096D01*
X001602Y005213D02*
X000343Y005213D01*
X000343Y005329D02*
X001602Y005329D01*
X001602Y005446D02*
X000343Y005446D01*
X000343Y005563D02*
X001602Y005563D01*
X001602Y005679D02*
X000343Y005679D01*
X000343Y005796D02*
X001602Y005796D01*
X001602Y005912D02*
X000343Y005912D01*
X000343Y006029D02*
X001602Y006029D01*
X001602Y006146D02*
X000343Y006146D01*
X000343Y006262D02*
X001602Y006262D01*
X001602Y006379D02*
X000343Y006379D01*
X000343Y006495D02*
X001602Y006495D01*
X001602Y006612D02*
X000343Y006612D01*
X000343Y006729D02*
X001602Y006729D01*
X001602Y006845D02*
X000343Y006845D01*
X000343Y006962D02*
X001602Y006962D01*
X001602Y007078D02*
X000343Y007078D01*
X000343Y007195D02*
X001602Y007195D01*
X001602Y007312D02*
X000343Y007312D01*
X000343Y007428D02*
X001602Y007428D01*
X001602Y007545D02*
X000343Y007545D01*
X000343Y007661D02*
X001602Y007661D01*
X001602Y007778D02*
X000343Y007778D01*
X000343Y007895D02*
X001602Y007895D01*
X001602Y008011D02*
X000343Y008011D01*
X000343Y008128D02*
X001602Y008128D01*
X001602Y008245D02*
X000343Y008245D01*
X000343Y008361D02*
X001602Y008361D01*
X001602Y008478D02*
X000343Y008478D01*
X000343Y008594D02*
X001602Y008594D01*
X001602Y008711D02*
X000343Y008711D01*
X000343Y008828D02*
X001602Y008828D01*
X001602Y008944D02*
X000343Y008944D01*
X000343Y009061D02*
X001602Y009061D01*
X001602Y009177D02*
X000343Y009177D01*
X000343Y009294D02*
X001602Y009294D01*
X001602Y009411D02*
X000343Y009411D01*
X000343Y009527D02*
X001602Y009527D01*
X001602Y009644D02*
X000343Y009644D01*
X000343Y009760D02*
X001602Y009760D01*
X001602Y009877D02*
X000343Y009877D01*
X000343Y009994D02*
X001602Y009994D01*
X001602Y010110D02*
X000343Y010110D01*
X000343Y010227D02*
X001602Y010227D01*
X001602Y010344D02*
X000343Y010344D01*
X010579Y010344D02*
X011839Y010344D01*
X011839Y010356D02*
X011839Y002167D01*
X010579Y002167D01*
X010579Y010356D01*
X011839Y010356D01*
X011839Y010227D02*
X010579Y010227D01*
X010579Y010110D02*
X011839Y010110D01*
X011839Y009994D02*
X010579Y009994D01*
X010579Y009877D02*
X011839Y009877D01*
X011839Y009760D02*
X010579Y009760D01*
X010579Y009644D02*
X011839Y009644D01*
X011839Y009527D02*
X010579Y009527D01*
X010579Y009411D02*
X011839Y009411D01*
X011839Y009294D02*
X010579Y009294D01*
X010579Y009177D02*
X011839Y009177D01*
X011839Y009061D02*
X010579Y009061D01*
X010579Y008944D02*
X011839Y008944D01*
X011839Y008828D02*
X010579Y008828D01*
X010579Y008711D02*
X011839Y008711D01*
X011839Y008594D02*
X010579Y008594D01*
X010579Y008478D02*
X011839Y008478D01*
X011839Y008361D02*
X010579Y008361D01*
X010579Y008245D02*
X011839Y008245D01*
X011839Y008128D02*
X010579Y008128D01*
X010579Y008011D02*
X011839Y008011D01*
X011839Y007895D02*
X010579Y007895D01*
X010579Y007778D02*
X011839Y007778D01*
X011839Y007661D02*
X010579Y007661D01*
X010579Y007545D02*
X011839Y007545D01*
X011839Y007428D02*
X010579Y007428D01*
X010579Y007312D02*
X011839Y007312D01*
X011839Y007195D02*
X010579Y007195D01*
X010579Y007078D02*
X011839Y007078D01*
X011839Y006962D02*
X010579Y006962D01*
X010579Y006845D02*
X011839Y006845D01*
X011839Y006729D02*
X010579Y006729D01*
X010579Y006612D02*
X011839Y006612D01*
X011839Y006495D02*
X010579Y006495D01*
X010579Y006379D02*
X011839Y006379D01*
X011839Y006262D02*
X010579Y006262D01*
X010579Y006146D02*
X011839Y006146D01*
X011839Y006029D02*
X010579Y006029D01*
X010579Y005912D02*
X011839Y005912D01*
X011839Y005796D02*
X010579Y005796D01*
X010579Y005679D02*
X011839Y005679D01*
X011839Y005563D02*
X010579Y005563D01*
X010579Y005446D02*
X011839Y005446D01*
X011839Y005329D02*
X010579Y005329D01*
X010579Y005213D02*
X011839Y005213D01*
X011839Y005096D02*
X010579Y005096D01*
X010579Y004979D02*
X011839Y004979D01*
X011839Y004863D02*
X010579Y004863D01*
X010579Y004746D02*
X011839Y004746D01*
X011839Y004630D02*
X010579Y004630D01*
X010579Y004513D02*
X011839Y004513D01*
X011839Y004396D02*
X010579Y004396D01*
X010579Y004280D02*
X011839Y004280D01*
X011839Y004163D02*
X010579Y004163D01*
X010579Y004047D02*
X011839Y004047D01*
X011839Y003930D02*
X010579Y003930D01*
X010579Y003813D02*
X011839Y003813D01*
X011839Y003697D02*
X010579Y003697D01*
X010579Y003580D02*
X011839Y003580D01*
X011839Y003464D02*
X010579Y003464D01*
X010579Y003347D02*
X011839Y003347D01*
X011839Y003230D02*
X010579Y003230D01*
X010579Y003114D02*
X011839Y003114D01*
X011839Y002997D02*
X010579Y002997D01*
X010579Y002880D02*
X011839Y002880D01*
X011839Y002764D02*
X010579Y002764D01*
X010579Y002647D02*
X011839Y002647D01*
X011839Y002531D02*
X010579Y002531D01*
X010579Y002414D02*
X011839Y002414D01*
X011839Y002297D02*
X010579Y002297D01*
X010579Y002181D02*
X011839Y002181D01*
D12*
X009591Y001372D03*
X008591Y001372D03*
X007591Y001372D03*
X006591Y001372D03*
X005591Y001372D03*
X004591Y001372D03*
X003591Y001372D03*
X002591Y001372D03*
D13*
X003339Y004076D03*
X003713Y004076D03*
X004087Y004076D03*
X004087Y004982D03*
X003713Y004982D03*
X003339Y004982D03*
D14*
X005972Y006852D03*
X005972Y007364D03*
X005972Y007876D03*
X006484Y007876D03*
X006996Y007876D03*
X007508Y007876D03*
X008020Y007876D03*
X008020Y007364D03*
X008020Y006852D03*
X007508Y006852D03*
X007508Y007364D03*
X006996Y007364D03*
X006484Y007364D03*
X006484Y006852D03*
X006996Y006852D03*
X008531Y006852D03*
X008531Y007364D03*
X008531Y007876D03*
X009043Y007876D03*
X009043Y007364D03*
X009043Y006852D03*
D15*
X009240Y005351D03*
X009240Y004967D03*
X008453Y004967D03*
X008453Y005351D03*
X007665Y005351D03*
X007665Y004967D03*
D16*
X007114Y008742D03*
D17*
X006720Y010051D03*
X007508Y010051D03*
D18*
X008413Y010080D03*
X009122Y010080D03*
X003610Y006655D03*
X003610Y006025D03*
X002902Y006025D03*
X002902Y006655D03*
X003295Y002954D03*
X004004Y002954D03*
X008886Y002876D03*
X009594Y002876D03*
D19*
X006760Y003289D03*
X006760Y004037D03*
X005736Y004037D03*
X005736Y003663D03*
X005736Y003289D03*
D20*
X005776Y004962D03*
X005776Y005671D03*
D21*
X010913Y011773D03*
D22*
X009535Y011773D03*
X008157Y011773D03*
X006780Y011773D03*
X005402Y011773D03*
X004024Y011773D03*
X002646Y011773D03*
X001268Y011773D03*
D23*
X000972Y012561D03*
X009949Y004214D03*
M02*
