G75*
%MOIN*%
%OFA0B0*%
%FSLAX24Y24*%
%IPPOS*%
%LPD*%
%AMOC8*
5,1,8,0,0,1.08239X$1,22.5*
%
%ADD10C,0.0000*%
%ADD11C,0.0020*%
%ADD12C,0.0040*%
%ADD13C,0.0080*%
%ADD14R,0.0340X0.0300*%
%ADD15C,0.0030*%
%ADD16C,0.0020*%
%ADD17C,0.0050*%
%ADD18C,0.0060*%
%ADD19R,0.0072X0.0004*%
%ADD20R,0.0080X0.0004*%
%ADD21R,0.0152X0.0004*%
%ADD22R,0.0144X0.0004*%
%ADD23R,0.0194X0.0004*%
%ADD24R,0.0190X0.0004*%
%ADD25R,0.0224X0.0004*%
%ADD26R,0.0220X0.0004*%
%ADD27R,0.0236X0.0004*%
%ADD28R,0.0220X0.0004*%
%ADD29R,0.0251X0.0004*%
%ADD30R,0.0247X0.0004*%
%ADD31R,0.0243X0.0004*%
%ADD32R,0.0274X0.0004*%
%ADD33R,0.0266X0.0004*%
%ADD34R,0.0293X0.0004*%
%ADD35R,0.0285X0.0004*%
%ADD36R,0.0236X0.0004*%
%ADD37R,0.0308X0.0004*%
%ADD38R,0.0300X0.0004*%
%ADD39R,0.0319X0.0004*%
%ADD40R,0.0334X0.0004*%
%ADD41R,0.0224X0.0004*%
%ADD42R,0.0331X0.0004*%
%ADD43R,0.0346X0.0004*%
%ADD44R,0.0357X0.0004*%
%ADD45R,0.0369X0.0004*%
%ADD46R,0.0380X0.0004*%
%ADD47R,0.0376X0.0004*%
%ADD48R,0.0239X0.0004*%
%ADD49R,0.0388X0.0004*%
%ADD50R,0.0388X0.0004*%
%ADD51R,0.0395X0.0004*%
%ADD52R,0.0403X0.0004*%
%ADD53R,0.0410X0.0004*%
%ADD54R,0.0414X0.0004*%
%ADD55R,0.0422X0.0004*%
%ADD56R,0.0426X0.0004*%
%ADD57R,0.0433X0.0004*%
%ADD58R,0.0437X0.0004*%
%ADD59R,0.0445X0.0004*%
%ADD60R,0.0448X0.0004*%
%ADD61R,0.0232X0.0004*%
%ADD62R,0.0456X0.0004*%
%ADD63R,0.0460X0.0004*%
%ADD64R,0.0464X0.0004*%
%ADD65R,0.0467X0.0004*%
%ADD66R,0.0471X0.0004*%
%ADD67R,0.0475X0.0004*%
%ADD68R,0.0479X0.0004*%
%ADD69R,0.0483X0.0004*%
%ADD70R,0.0486X0.0004*%
%ADD71R,0.0490X0.0004*%
%ADD72R,0.0494X0.0004*%
%ADD73R,0.0498X0.0004*%
%ADD74R,0.0505X0.0004*%
%ADD75R,0.0502X0.0004*%
%ADD76R,0.0232X0.0004*%
%ADD77R,0.0509X0.0004*%
%ADD78R,0.0217X0.0004*%
%ADD79R,0.0513X0.0004*%
%ADD80R,0.0213X0.0004*%
%ADD81R,0.0517X0.0004*%
%ADD82R,0.0209X0.0004*%
%ADD83R,0.0247X0.0004*%
%ADD84R,0.0205X0.0004*%
%ADD85R,0.0228X0.0004*%
%ADD86R,0.0201X0.0004*%
%ADD87R,0.0213X0.0004*%
%ADD88R,0.0209X0.0004*%
%ADD89R,0.0255X0.0004*%
%ADD90R,0.0201X0.0004*%
%ADD91R,0.0471X0.0004*%
%ADD92R,0.0559X0.0004*%
%ADD93R,0.0452X0.0004*%
%ADD94R,0.0441X0.0004*%
%ADD95R,0.0399X0.0004*%
%ADD96R,0.0418X0.0004*%
%ADD97R,0.0483X0.0004*%
%ADD98R,0.0555X0.0004*%
%ADD99R,0.0494X0.0004*%
%ADD100R,0.0414X0.0004*%
%ADD101R,0.0555X0.0004*%
%ADD102R,0.0524X0.0004*%
%ADD103R,0.0407X0.0004*%
%ADD104R,0.0528X0.0004*%
%ADD105R,0.0532X0.0004*%
%ADD106R,0.0536X0.0004*%
%ADD107R,0.0543X0.0004*%
%ADD108R,0.0551X0.0004*%
%ADD109R,0.0547X0.0004*%
%ADD110R,0.0429X0.0004*%
%ADD111R,0.0562X0.0004*%
%ADD112R,0.0566X0.0004*%
%ADD113R,0.0437X0.0004*%
%ADD114R,0.0517X0.0004*%
%ADD115R,0.0570X0.0004*%
%ADD116R,0.0574X0.0004*%
%ADD117R,0.0262X0.0004*%
%ADD118R,0.0578X0.0004*%
%ADD119R,0.0581X0.0004*%
%ADD120R,0.0581X0.0004*%
%ADD121R,0.0585X0.0004*%
%ADD122R,0.0315X0.0004*%
%ADD123R,0.0198X0.0004*%
%ADD124R,0.0589X0.0004*%
%ADD125R,0.0015X0.0004*%
%ADD126R,0.0593X0.0004*%
%ADD127R,0.0597X0.0004*%
%ADD128R,0.0600X0.0004*%
%ADD129R,0.0600X0.0004*%
%ADD130R,0.0604X0.0004*%
%ADD131R,0.0277X0.0004*%
%ADD132R,0.0258X0.0004*%
%ADD133R,0.0509X0.0004*%
%ADD134R,0.0486X0.0004*%
%ADD135R,0.0505X0.0004*%
%ADD136R,0.0498X0.0004*%
%ADD137R,0.0186X0.0004*%
%ADD138R,0.0182X0.0004*%
%ADD139R,0.0179X0.0004*%
%ADD140R,0.0175X0.0004*%
%ADD141R,0.0171X0.0004*%
%ADD142R,0.0167X0.0004*%
%ADD143R,0.0163X0.0004*%
%ADD144R,0.0084X0.0004*%
%ADD145R,0.0061X0.0004*%
%ADD146R,0.0160X0.0004*%
%ADD147R,0.0065X0.0004*%
%ADD148R,0.0426X0.0004*%
%ADD149R,0.0076X0.0004*%
%ADD150R,0.0384X0.0004*%
%ADD151R,0.0068X0.0004*%
%ADD152R,0.0148X0.0004*%
%ADD153R,0.0372X0.0004*%
%ADD154R,0.0410X0.0004*%
%ADD155R,0.0365X0.0004*%
%ADD156R,0.0080X0.0004*%
%ADD157R,0.0353X0.0004*%
%ADD158R,0.0068X0.0004*%
%ADD159R,0.0137X0.0004*%
%ADD160R,0.0338X0.0004*%
%ADD161R,0.0133X0.0004*%
%ADD162R,0.0376X0.0004*%
%ADD163R,0.0129X0.0004*%
%ADD164R,0.0125X0.0004*%
%ADD165R,0.0118X0.0004*%
%ADD166R,0.0342X0.0004*%
%ADD167R,0.0114X0.0004*%
%ADD168R,0.0331X0.0004*%
%ADD169R,0.0106X0.0004*%
%ADD170R,0.0099X0.0004*%
%ADD171R,0.0087X0.0004*%
%ADD172R,0.0281X0.0004*%
%ADD173R,0.0258X0.0004*%
%ADD174R,0.0053X0.0004*%
%ADD175R,0.0152X0.0004*%
%ADD176R,0.0091X0.0004*%
%ADD177R,0.0095X0.0004*%
%ADD178R,0.0091X0.0004*%
%ADD179R,0.0103X0.0004*%
%ADD180R,0.0532X0.0004*%
%ADD181R,0.0110X0.0004*%
%ADD182R,0.0589X0.0004*%
%ADD183R,0.0057X0.0004*%
%ADD184R,0.0566X0.0004*%
%ADD185R,0.0540X0.0004*%
%ADD186R,0.0057X0.0004*%
%ADD187R,0.0521X0.0004*%
%ADD188R,0.0129X0.0004*%
%ADD189R,0.0122X0.0004*%
%ADD190R,0.0391X0.0004*%
%ADD191R,0.0114X0.0004*%
%ADD192R,0.0005X0.0003*%
%ADD193R,0.0008X0.0003*%
%ADD194R,0.0013X0.0003*%
%ADD195R,0.0020X0.0003*%
%ADD196R,0.0025X0.0003*%
%ADD197R,0.0032X0.0003*%
%ADD198R,0.0030X0.0003*%
%ADD199R,0.0037X0.0003*%
%ADD200R,0.0045X0.0003*%
%ADD201R,0.0043X0.0003*%
%ADD202R,0.0050X0.0003*%
%ADD203R,0.0055X0.0003*%
%ADD204R,0.0063X0.0003*%
%ADD205R,0.0067X0.0003*%
%ADD206R,0.0075X0.0003*%
%ADD207R,0.0080X0.0003*%
%ADD208R,0.0088X0.0003*%
%ADD209R,0.0090X0.0003*%
%ADD210R,0.0092X0.0003*%
%ADD211R,0.0098X0.0003*%
%ADD212R,0.0103X0.0003*%
%ADD213R,0.0105X0.0003*%
%ADD214R,0.0107X0.0003*%
%ADD215R,0.0110X0.0003*%
%ADD216R,0.0115X0.0003*%
%ADD217R,0.0010X0.0003*%
%ADD218R,0.0118X0.0003*%
%ADD219R,0.0120X0.0003*%
%ADD220R,0.0018X0.0003*%
%ADD221R,0.0123X0.0003*%
%ADD222R,0.0130X0.0003*%
%ADD223R,0.0022X0.0003*%
%ADD224R,0.0135X0.0003*%
%ADD225R,0.0143X0.0003*%
%ADD226R,0.0035X0.0003*%
%ADD227R,0.0145X0.0003*%
%ADD228R,0.0040X0.0003*%
%ADD229R,0.0147X0.0003*%
%ADD230R,0.0155X0.0003*%
%ADD231R,0.0047X0.0003*%
%ADD232R,0.0163X0.0003*%
%ADD233R,0.0053X0.0003*%
%ADD234R,0.0160X0.0003*%
%ADD235R,0.0227X0.0003*%
%ADD236R,0.0230X0.0003*%
%ADD237R,0.0235X0.0003*%
%ADD238R,0.0238X0.0003*%
%ADD239R,0.0243X0.0003*%
%ADD240R,0.0240X0.0003*%
%ADD241R,0.0245X0.0003*%
%ADD242R,0.0248X0.0003*%
%ADD243R,0.0253X0.0003*%
%ADD244R,0.0255X0.0003*%
%ADD245R,0.0250X0.0003*%
%ADD246R,0.0233X0.0003*%
%ADD247R,0.0257X0.0003*%
%ADD248R,0.0260X0.0003*%
%ADD249R,0.0262X0.0003*%
%ADD250R,0.0265X0.0003*%
%ADD251R,0.0267X0.0003*%
%ADD252R,0.0270X0.0003*%
%ADD253R,0.0273X0.0003*%
%ADD254R,0.0275X0.0003*%
%ADD255R,0.0278X0.0003*%
%ADD256R,0.0290X0.0003*%
%ADD257R,0.0302X0.0003*%
%ADD258R,0.0313X0.0003*%
%ADD259R,0.0310X0.0003*%
%ADD260R,0.0323X0.0003*%
%ADD261R,0.0325X0.0003*%
%ADD262R,0.0335X0.0003*%
%ADD263R,0.0348X0.0003*%
%ADD264R,0.0345X0.0003*%
%ADD265R,0.0343X0.0003*%
%ADD266R,0.0340X0.0003*%
%ADD267R,0.0338X0.0003*%
%ADD268R,0.0333X0.0003*%
%ADD269R,0.0350X0.0003*%
%ADD270R,0.0330X0.0003*%
%ADD271R,0.0318X0.0003*%
%ADD272R,0.0305X0.0003*%
%ADD273R,0.0295X0.0003*%
%ADD274R,0.0285X0.0003*%
%ADD275R,0.0283X0.0003*%
%ADD276R,0.0280X0.0003*%
%ADD277R,0.0288X0.0003*%
%ADD278R,0.0293X0.0003*%
%ADD279R,0.0308X0.0003*%
%ADD280R,0.0645X0.0003*%
%ADD281R,0.0643X0.0003*%
%ADD282R,0.0640X0.0003*%
%ADD283R,0.0635X0.0003*%
%ADD284R,0.0633X0.0003*%
%ADD285R,0.0630X0.0003*%
%ADD286R,0.0625X0.0003*%
%ADD287R,0.0620X0.0003*%
%ADD288R,0.0617X0.0003*%
%ADD289R,0.0615X0.0003*%
%ADD290R,0.0610X0.0003*%
%ADD291R,0.0648X0.0003*%
%ADD292R,0.0653X0.0003*%
%ADD293R,0.0655X0.0003*%
%ADD294R,0.0660X0.0003*%
%ADD295R,0.0663X0.0003*%
%ADD296R,0.0665X0.0003*%
%ADD297R,0.0670X0.0003*%
%ADD298R,0.0673X0.0003*%
%ADD299R,0.0675X0.0003*%
%ADD300R,0.0680X0.0003*%
%ADD301R,0.0683X0.0003*%
%ADD302R,0.0685X0.0003*%
%ADD303R,0.0690X0.0003*%
%ADD304R,0.0693X0.0003*%
%ADD305R,0.0695X0.0003*%
%ADD306R,0.0700X0.0003*%
%ADD307R,0.0705X0.0003*%
%ADD308R,0.0710X0.0003*%
%ADD309R,0.0715X0.0003*%
%ADD310R,0.0720X0.0003*%
%ADD311R,0.0725X0.0003*%
%ADD312R,0.0727X0.0003*%
%ADD313R,0.0730X0.0003*%
%ADD314R,0.0735X0.0003*%
%ADD315R,0.0737X0.0003*%
%ADD316R,0.0740X0.0003*%
%ADD317R,0.0745X0.0003*%
%ADD318R,0.0747X0.0003*%
%ADD319R,0.0175X0.0003*%
%ADD320R,0.0168X0.0003*%
%ADD321R,0.0320X0.0003*%
%ADD322R,0.0150X0.0003*%
%ADD323R,0.0138X0.0003*%
%ADD324R,0.0133X0.0003*%
%ADD325R,0.0125X0.0003*%
%ADD326R,0.0113X0.0003*%
%ADD327R,0.0220X0.0003*%
%ADD328R,0.0210X0.0003*%
%ADD329R,0.0100X0.0003*%
%ADD330R,0.0200X0.0003*%
%ADD331R,0.0095X0.0003*%
%ADD332R,0.0185X0.0003*%
%ADD333R,0.0180X0.0003*%
%ADD334R,0.0083X0.0003*%
%ADD335R,0.0170X0.0003*%
%ADD336R,0.0070X0.0003*%
%ADD337R,0.0057X0.0003*%
%ADD338R,0.0165X0.0003*%
%ADD339R,0.0027X0.0003*%
%ADD340R,0.0015X0.0003*%
%ADD341R,0.0158X0.0003*%
%ADD342R,0.0153X0.0003*%
%ADD343R,0.0140X0.0003*%
D10*
X001591Y000198D02*
X001591Y002167D01*
X000343Y002167D01*
X000343Y013269D01*
X011839Y013269D01*
X011839Y002167D01*
X010591Y002167D01*
X010591Y000198D01*
X001591Y000198D01*
D11*
X005864Y003201D02*
X005864Y003476D01*
X006002Y003476D01*
X006048Y003430D01*
X006048Y003338D01*
X006002Y003292D01*
X005864Y003292D01*
X005864Y003594D02*
X005864Y003870D01*
X005910Y003778D02*
X005864Y003732D01*
X005910Y003778D02*
X006002Y003778D01*
X006048Y003732D01*
X006048Y003594D01*
X006182Y003640D02*
X006228Y003594D01*
X006182Y003640D02*
X006182Y003824D01*
X006136Y003778D02*
X006228Y003778D01*
X006317Y003778D02*
X006409Y003778D01*
X006363Y003824D02*
X006363Y003640D01*
X006409Y003594D01*
X006499Y003594D02*
X006636Y003594D01*
X006682Y003640D01*
X006682Y003732D01*
X006636Y003778D01*
X006499Y003778D01*
X006499Y003502D01*
X006408Y003476D02*
X006592Y003201D01*
X006592Y003476D01*
X006680Y003384D02*
X006680Y003338D01*
X006726Y003338D01*
X006726Y003384D01*
X006680Y003384D01*
X006680Y003246D02*
X006680Y003201D01*
X006726Y003201D01*
X006726Y003246D01*
X006680Y003246D01*
X006408Y003201D02*
X006408Y003476D01*
X006320Y003476D02*
X006136Y003201D01*
X006771Y003594D02*
X006771Y003640D01*
X006817Y003640D01*
X006817Y003594D01*
X006771Y003594D01*
X006907Y003594D02*
X007090Y003870D01*
X007362Y003870D02*
X007178Y003594D01*
X007088Y003476D02*
X007088Y003201D01*
X007271Y003201D01*
X007360Y003201D02*
X007360Y003384D01*
X007452Y003476D01*
X007543Y003384D01*
X007543Y003201D01*
X007543Y003338D02*
X007360Y003338D01*
X007271Y003476D02*
X007088Y003476D01*
X007088Y003338D02*
X007180Y003338D01*
X007450Y003640D02*
X007450Y003732D01*
X007496Y003778D01*
X007634Y003778D01*
X007634Y003870D02*
X007634Y003594D01*
X007496Y003594D01*
X007450Y003640D01*
X007632Y003476D02*
X007815Y003476D01*
X007723Y003476D02*
X007723Y003201D01*
X007903Y003246D02*
X008087Y003430D01*
X008087Y003246D01*
X008041Y003201D01*
X007949Y003201D01*
X007903Y003246D01*
X007903Y003430D01*
X007949Y003476D01*
X008041Y003476D01*
X008087Y003430D01*
X008175Y003430D02*
X008175Y003246D01*
X008359Y003430D01*
X008359Y003246D01*
X008313Y003201D01*
X008221Y003201D01*
X008175Y003246D01*
X008175Y003430D02*
X008221Y003476D01*
X008313Y003476D01*
X008359Y003430D01*
X008447Y003430D02*
X008447Y003246D01*
X008631Y003430D01*
X008631Y003246D01*
X008585Y003201D01*
X008493Y003201D01*
X008447Y003246D01*
X008447Y003430D02*
X008493Y003476D01*
X008585Y003476D01*
X008631Y003430D01*
X008719Y003384D02*
X008811Y003476D01*
X008811Y003201D01*
X008719Y003201D02*
X008903Y003201D01*
X008946Y003594D02*
X009038Y003594D01*
X008992Y003594D02*
X008992Y003778D01*
X008946Y003778D01*
X008856Y003732D02*
X008764Y003732D01*
X008810Y003824D02*
X008810Y003594D01*
X008674Y003594D02*
X008674Y003640D01*
X008628Y003640D01*
X008628Y003594D01*
X008674Y003594D01*
X008540Y003594D02*
X008540Y003732D01*
X008494Y003778D01*
X008403Y003778D01*
X008403Y003686D02*
X008357Y003640D01*
X008403Y003594D01*
X008540Y003594D01*
X008540Y003686D02*
X008403Y003686D01*
X008267Y003594D02*
X008221Y003640D01*
X008221Y003824D01*
X008175Y003778D02*
X008267Y003778D01*
X008040Y003870D02*
X008040Y003594D01*
X007994Y003594D02*
X008086Y003594D01*
X007906Y003686D02*
X007722Y003686D01*
X007722Y003640D02*
X007722Y003732D01*
X007768Y003778D01*
X007860Y003778D01*
X007906Y003732D01*
X007906Y003686D01*
X007860Y003594D02*
X007768Y003594D01*
X007722Y003640D01*
X007994Y003870D02*
X008040Y003870D01*
X008810Y003824D02*
X008856Y003870D01*
X008992Y003870D02*
X008992Y003916D01*
X009127Y003778D02*
X009127Y003594D01*
X009127Y003686D02*
X009219Y003778D01*
X009265Y003778D01*
X009354Y003732D02*
X009399Y003778D01*
X009491Y003778D01*
X009537Y003732D01*
X009537Y003686D01*
X009354Y003686D01*
X009354Y003640D02*
X009354Y003732D01*
X009354Y003640D02*
X009399Y003594D01*
X009491Y003594D01*
X009625Y003594D02*
X009763Y003594D01*
X009809Y003640D01*
X009809Y003732D01*
X009763Y003778D01*
X009625Y003778D01*
X009625Y003502D01*
X009897Y003594D02*
X009989Y003594D01*
X009943Y003594D02*
X009943Y003778D01*
X009897Y003778D01*
X009943Y003870D02*
X009943Y003916D01*
X010124Y003778D02*
X010079Y003732D01*
X010079Y003640D01*
X010124Y003594D01*
X010262Y003594D01*
X010350Y003594D02*
X010350Y003870D01*
X010262Y003778D02*
X010124Y003778D01*
X010350Y003686D02*
X010488Y003778D01*
X010577Y003640D02*
X010623Y003640D01*
X010623Y003594D01*
X010577Y003594D01*
X010577Y003640D01*
X010488Y003594D02*
X010350Y003686D01*
X010713Y003640D02*
X010759Y003594D01*
X010851Y003594D01*
X010897Y003640D01*
X010897Y003732D01*
X010851Y003778D01*
X010759Y003778D01*
X010713Y003732D01*
X010713Y003640D01*
X010985Y003594D02*
X010985Y003778D01*
X010985Y003686D02*
X011077Y003778D01*
X011123Y003778D01*
X011211Y003732D02*
X011211Y003640D01*
X011257Y003594D01*
X011395Y003594D01*
X011395Y003548D02*
X011395Y003778D01*
X011257Y003778D01*
X011211Y003732D01*
X011303Y003502D02*
X011349Y003502D01*
X011395Y003548D01*
X006817Y003732D02*
X006771Y003732D01*
X006771Y003778D01*
X006817Y003778D01*
X006817Y003732D01*
D12*
X005287Y004572D02*
X004972Y004887D01*
X002728Y004887D01*
X002728Y003923D01*
X002728Y003332D02*
X002728Y002328D01*
X004972Y002328D01*
X005287Y002643D01*
X005189Y003303D02*
X005170Y003237D01*
X005147Y003171D01*
X005120Y003107D01*
X005090Y003045D01*
X005056Y002984D01*
X005020Y002926D01*
X004979Y002870D01*
X004936Y002816D01*
X004890Y002764D01*
X004840Y002716D01*
X004788Y002670D01*
X004734Y002627D01*
X004677Y002588D01*
X004618Y002551D01*
X004557Y002518D01*
X004495Y002489D01*
X004431Y002463D01*
X004365Y002441D01*
X004298Y002423D01*
X004231Y002408D01*
X004162Y002398D01*
X004093Y002391D01*
X004024Y002388D01*
X003955Y002389D01*
X003886Y002394D01*
X003817Y002403D01*
X003749Y002416D01*
X003682Y002433D01*
X003616Y002453D01*
X003551Y002477D01*
X003488Y002505D01*
X003426Y002536D01*
X003367Y002571D01*
X003309Y002609D01*
X003253Y002651D01*
X003200Y002695D01*
X003150Y002743D01*
X003102Y002793D01*
X003058Y002846D01*
X003016Y002901D01*
X002977Y002958D01*
X002942Y003018D01*
X002911Y003080D01*
X002883Y003143D01*
X002858Y003207D01*
X002837Y003273D01*
X002827Y003913D02*
X002846Y003979D01*
X002869Y004045D01*
X002896Y004109D01*
X002926Y004171D01*
X002960Y004232D01*
X002996Y004290D01*
X003037Y004346D01*
X003080Y004400D01*
X003126Y004452D01*
X003176Y004500D01*
X003228Y004546D01*
X003282Y004589D01*
X003339Y004628D01*
X003398Y004665D01*
X003459Y004698D01*
X003521Y004727D01*
X003585Y004753D01*
X003651Y004775D01*
X003718Y004793D01*
X003785Y004808D01*
X003854Y004818D01*
X003923Y004825D01*
X003992Y004828D01*
X004061Y004827D01*
X004130Y004822D01*
X004199Y004813D01*
X004267Y004800D01*
X004334Y004783D01*
X004400Y004763D01*
X004465Y004739D01*
X004528Y004711D01*
X004590Y004680D01*
X004649Y004645D01*
X004707Y004607D01*
X004763Y004565D01*
X004816Y004521D01*
X004866Y004473D01*
X004914Y004423D01*
X004958Y004370D01*
X005000Y004315D01*
X005039Y004258D01*
X005074Y004198D01*
X005105Y004136D01*
X005133Y004073D01*
X005158Y004009D01*
X005179Y003943D01*
X008581Y002555D02*
X008658Y002478D01*
X008734Y002478D01*
X008811Y002555D01*
X008811Y002939D01*
X008734Y002939D02*
X008888Y002939D01*
X009041Y002785D02*
X009195Y002939D01*
X009195Y002478D01*
X009348Y002478D02*
X009041Y002478D01*
D13*
X004625Y006785D02*
X002044Y006785D01*
X002045Y009224D01*
X004625Y009224D02*
X004625Y006785D01*
D14*
X003335Y006595D03*
D15*
X003200Y005391D02*
X003079Y005391D01*
X003018Y005330D01*
X002899Y005330D02*
X002899Y005209D01*
X002838Y005148D01*
X002656Y005148D01*
X002777Y005148D02*
X002899Y005027D01*
X003018Y005087D02*
X003079Y005027D01*
X003200Y005027D01*
X003261Y005087D01*
X003261Y005148D01*
X003200Y005209D01*
X003140Y005209D01*
X003200Y005209D02*
X003261Y005269D01*
X003261Y005330D01*
X003200Y005391D01*
X002899Y005330D02*
X002838Y005391D01*
X002656Y005391D01*
X002656Y005027D01*
X002246Y003494D02*
X002308Y003432D01*
X002308Y003309D01*
X002246Y003247D01*
X002184Y003247D01*
X002123Y003309D01*
X002123Y003432D01*
X002184Y003494D01*
X002246Y003494D01*
X002123Y003432D02*
X002061Y003494D01*
X001999Y003494D01*
X001938Y003432D01*
X001938Y003309D01*
X001999Y003247D01*
X002061Y003247D01*
X002123Y003309D01*
X002061Y003126D02*
X001999Y003126D01*
X001938Y003064D01*
X001938Y002941D01*
X001999Y002879D01*
X001999Y002758D02*
X001938Y002696D01*
X001938Y002572D01*
X001999Y002511D01*
X002246Y002511D01*
X002308Y002572D01*
X002308Y002696D01*
X002246Y002758D01*
X002308Y002879D02*
X002061Y003126D01*
X002308Y003126D02*
X002308Y002879D01*
X005609Y005127D02*
X005669Y005066D01*
X005791Y005066D01*
X005851Y005127D01*
X005971Y005127D02*
X006032Y005066D01*
X006153Y005066D01*
X006214Y005127D01*
X006214Y005369D01*
X006153Y005430D01*
X006032Y005430D01*
X005971Y005369D01*
X005971Y005309D01*
X006032Y005248D01*
X006214Y005248D01*
X005851Y005369D02*
X005791Y005430D01*
X005669Y005430D01*
X005609Y005369D01*
X005609Y005127D01*
X007090Y005430D02*
X007150Y005369D01*
X007272Y005369D01*
X007332Y005430D01*
X007332Y005733D01*
X007452Y005612D02*
X007574Y005733D01*
X007574Y005369D01*
X007695Y005369D02*
X007452Y005369D01*
X007090Y005430D02*
X007090Y005733D01*
X009585Y005724D02*
X009585Y005481D01*
X009646Y005420D01*
X009767Y005420D01*
X009828Y005481D01*
X009948Y005481D02*
X009948Y005542D01*
X010008Y005602D01*
X010130Y005602D01*
X010190Y005542D01*
X010190Y005481D01*
X010130Y005420D01*
X010008Y005420D01*
X009948Y005481D01*
X010008Y005602D02*
X009948Y005663D01*
X009948Y005724D01*
X010008Y005784D01*
X010130Y005784D01*
X010190Y005724D01*
X010190Y005663D01*
X010130Y005602D01*
X009828Y005724D02*
X009767Y005784D01*
X009646Y005784D01*
X009585Y005724D01*
X010197Y008649D02*
X010318Y008649D01*
X010379Y008709D01*
X010499Y008649D02*
X010741Y008649D01*
X010861Y008649D02*
X011104Y008649D01*
X011224Y008649D02*
X011466Y008649D01*
X011345Y008649D02*
X011345Y009013D01*
X011224Y008891D01*
X010983Y009013D02*
X010983Y008649D01*
X010861Y008891D02*
X010983Y009013D01*
X010620Y009013D02*
X010620Y008649D01*
X010499Y008891D02*
X010620Y009013D01*
X010379Y008952D02*
X010318Y009013D01*
X010197Y009013D01*
X010136Y008952D01*
X010136Y008709D01*
X010197Y008649D01*
X010394Y009397D02*
X010515Y009397D01*
X010576Y009457D01*
X010696Y009457D02*
X010756Y009397D01*
X010878Y009397D01*
X010938Y009457D01*
X010938Y009579D01*
X010878Y009639D01*
X010817Y009639D01*
X010696Y009579D01*
X010696Y009761D01*
X010938Y009761D01*
X010576Y009700D02*
X010515Y009761D01*
X010394Y009761D01*
X010333Y009700D01*
X010333Y009457D01*
X010394Y009397D01*
X008340Y009424D02*
X008097Y009182D01*
X008097Y009121D01*
X007977Y009121D02*
X007856Y009242D01*
X007917Y009242D02*
X007735Y009242D01*
X007735Y009121D02*
X007735Y009485D01*
X007917Y009485D01*
X007977Y009424D01*
X007977Y009303D01*
X007917Y009242D01*
X008097Y009485D02*
X008340Y009485D01*
X008340Y009424D01*
X007316Y009446D02*
X007195Y009385D01*
X007074Y009264D01*
X007256Y009264D01*
X007316Y009203D01*
X007316Y009142D01*
X007256Y009082D01*
X007134Y009082D01*
X007074Y009142D01*
X007074Y009264D01*
X006954Y009264D02*
X006893Y009203D01*
X006711Y009203D01*
X006711Y009082D02*
X006711Y009446D01*
X006893Y009446D01*
X006954Y009385D01*
X006954Y009264D01*
X006832Y009203D02*
X006954Y009082D01*
X005466Y009385D02*
X005223Y009142D01*
X005223Y009082D01*
X005103Y009142D02*
X005043Y009082D01*
X004921Y009082D01*
X004861Y009142D01*
X004861Y009385D01*
X004921Y009446D01*
X005043Y009446D01*
X005103Y009385D01*
X005223Y009446D02*
X005466Y009446D01*
X005466Y009385D01*
X001812Y007963D02*
X001570Y007963D01*
X001450Y007963D02*
X001450Y008327D01*
X001328Y008205D01*
X001207Y008327D01*
X001207Y007963D01*
X001570Y008205D02*
X001691Y008327D01*
X001691Y007963D01*
X001102Y009741D02*
X000981Y009741D01*
X000920Y009802D01*
X000920Y009923D02*
X001042Y009984D01*
X001102Y009984D01*
X001163Y009923D01*
X001163Y009802D01*
X001102Y009741D01*
X000920Y009923D02*
X000920Y010105D01*
X001163Y010105D01*
X000800Y010105D02*
X000679Y010105D01*
X000740Y010105D02*
X000740Y009802D01*
X000679Y009741D01*
X000618Y009741D01*
X000558Y009802D01*
D16*
X009183Y008033D02*
X009185Y008047D01*
X009191Y008061D01*
X009199Y008073D01*
X009211Y008081D01*
X009225Y008087D01*
X009239Y008089D01*
X009253Y008087D01*
X009267Y008081D01*
X009279Y008073D01*
X009287Y008061D01*
X009293Y008047D01*
X009295Y008033D01*
X009293Y008019D01*
X009287Y008005D01*
X009279Y007993D01*
X009267Y007985D01*
X009253Y007979D01*
X009239Y007977D01*
X009225Y007979D01*
X009211Y007985D01*
X009199Y007993D01*
X009191Y008005D01*
X009185Y008019D01*
X009183Y008033D01*
D17*
X009319Y008269D02*
X009437Y008269D01*
X009437Y006458D01*
X009319Y006458D01*
X011819Y010435D02*
X000362Y010435D01*
X000362Y013191D01*
X011819Y013191D01*
X011819Y010435D01*
X011307Y012954D02*
X010520Y012954D01*
X010520Y013151D01*
X009929Y013151D02*
X009929Y012954D01*
X009142Y012954D01*
X009142Y013151D01*
X008551Y013151D02*
X008551Y012954D01*
X007764Y012954D01*
X007764Y013151D01*
X007173Y013151D02*
X007173Y012954D01*
X006386Y012954D01*
X006386Y013151D01*
X005795Y013151D02*
X005795Y012954D01*
X005008Y012954D01*
X005008Y013151D01*
X004417Y013151D02*
X004417Y012954D01*
X003630Y012954D01*
X003630Y013151D01*
X003039Y013151D02*
X003039Y012954D01*
X002252Y012954D01*
X002252Y013151D01*
X001661Y013151D02*
X001661Y012954D01*
X000874Y012954D01*
X000874Y013151D01*
X005579Y008269D02*
X005579Y006458D01*
X005697Y006458D01*
X005697Y008269D02*
X005579Y008269D01*
X011307Y012954D02*
X011307Y013151D01*
D18*
X008453Y010080D02*
X008217Y010080D01*
X008217Y009608D02*
X008453Y009608D01*
X009555Y009687D02*
X009791Y009687D01*
X009791Y009214D02*
X009555Y009214D01*
X009555Y008506D02*
X009555Y008269D01*
X010028Y008269D02*
X010028Y008506D01*
X010028Y007246D02*
X010028Y007009D01*
X009555Y007009D02*
X009555Y007246D01*
X006799Y009608D02*
X006563Y009608D01*
X006563Y010080D02*
X006799Y010080D01*
X005343Y010041D02*
X005106Y010041D01*
X005106Y009569D02*
X005343Y009569D01*
X005421Y005789D02*
X005421Y005553D01*
X004949Y005553D02*
X004949Y005789D01*
X002547Y004726D02*
X002547Y004490D01*
X002075Y004490D02*
X002075Y004726D01*
D19*
X007222Y003970D03*
X010209Y004620D03*
X010209Y004624D03*
X010212Y004632D03*
X010212Y004635D03*
X010212Y004639D03*
X010216Y004647D03*
X010216Y004651D03*
X010216Y004654D03*
X010220Y004662D03*
X010220Y004666D03*
X010220Y004670D03*
X010224Y004677D03*
X010224Y004681D03*
X010224Y004685D03*
X010228Y004692D03*
X010228Y004696D03*
X010228Y004700D03*
X010231Y004708D03*
X010231Y004711D03*
X010231Y004715D03*
X010235Y004723D03*
X010235Y004727D03*
X010235Y004730D03*
X010239Y004738D03*
X010239Y004742D03*
X010239Y004746D03*
X010243Y004753D03*
X010243Y004757D03*
X010243Y004761D03*
X010247Y004772D03*
X010247Y004776D03*
X010250Y004787D03*
X010250Y004791D03*
X010254Y004803D03*
X010254Y004806D03*
X010258Y004818D03*
X010258Y004822D03*
X010262Y004833D03*
X010262Y004837D03*
X010266Y004848D03*
X010334Y004654D03*
X010334Y004651D03*
X010444Y004628D03*
X010444Y004624D03*
X010444Y004620D03*
X010448Y004635D03*
X010448Y004639D03*
X010448Y004643D03*
X010452Y004651D03*
X010452Y004654D03*
X010452Y004658D03*
X010456Y004666D03*
X010456Y004670D03*
X010456Y004673D03*
X010456Y004677D03*
X010459Y004681D03*
X010459Y004685D03*
X010459Y004689D03*
X010459Y004692D03*
X010463Y004696D03*
X010463Y004700D03*
X010463Y004704D03*
X010463Y004708D03*
X010467Y004711D03*
X010467Y004715D03*
X010467Y004719D03*
X010467Y004723D03*
X010471Y004727D03*
X010471Y004730D03*
X010471Y004734D03*
X010471Y004738D03*
X010475Y004742D03*
X010475Y004746D03*
X010475Y004749D03*
X010475Y004753D03*
X010478Y004757D03*
X010478Y004761D03*
X010478Y004765D03*
X010478Y004768D03*
X010482Y004776D03*
X010482Y004780D03*
X010482Y004784D03*
X010486Y004791D03*
X010486Y004795D03*
X010486Y004799D03*
X010490Y004806D03*
X010490Y004810D03*
X010490Y004814D03*
X010494Y004822D03*
X010494Y004825D03*
X010494Y004829D03*
X010497Y004837D03*
X010497Y004841D03*
X010497Y004844D03*
D20*
X010110Y004871D03*
X010110Y004875D03*
X010102Y004844D03*
X010102Y004841D03*
X010091Y004799D03*
X010091Y004795D03*
X010083Y004768D03*
X010083Y004765D03*
X010079Y004753D03*
X010079Y004749D03*
X010072Y004723D03*
X010072Y004719D03*
X010072Y004715D03*
X010068Y004708D03*
X010068Y004704D03*
X010068Y004700D03*
X010060Y004677D03*
X010060Y004673D03*
X010060Y004670D03*
X010057Y004662D03*
X010057Y004658D03*
X010057Y004654D03*
X010049Y004632D03*
X010049Y004628D03*
X010049Y004624D03*
X008837Y003970D03*
D21*
X007421Y004681D03*
X007018Y004632D03*
X007231Y003974D03*
D22*
X007022Y004639D03*
X007026Y004643D03*
X008842Y003974D03*
D23*
X007237Y003978D03*
X006982Y004575D03*
D24*
X006984Y004578D03*
X006988Y004582D03*
X007417Y004677D03*
X008846Y003978D03*
D25*
X008738Y004138D03*
X008738Y004141D03*
X008738Y004145D03*
X008742Y004236D03*
X008742Y004240D03*
X008746Y004255D03*
X008746Y004259D03*
X008746Y004263D03*
X008753Y004290D03*
X008753Y004293D03*
X008753Y004297D03*
X008757Y004305D03*
X008757Y004309D03*
X008757Y004312D03*
X008757Y004316D03*
X008765Y004335D03*
X008765Y004339D03*
X008765Y004343D03*
X008768Y004350D03*
X008768Y004354D03*
X008768Y004358D03*
X008776Y004377D03*
X008776Y004381D03*
X008780Y004392D03*
X008784Y004404D03*
X008833Y004521D03*
X008837Y004525D03*
X008841Y004529D03*
X008533Y004613D03*
X008533Y004616D03*
X008537Y004628D03*
X008537Y004632D03*
X008544Y004658D03*
X008544Y004662D03*
X008525Y004586D03*
X008525Y004582D03*
X008521Y004571D03*
X008521Y004567D03*
X008514Y004540D03*
X008514Y004537D03*
X008510Y004525D03*
X008510Y004521D03*
X008506Y004510D03*
X008506Y004506D03*
X008502Y004495D03*
X008502Y004491D03*
X008499Y004480D03*
X008499Y004476D03*
X008495Y004464D03*
X008495Y004461D03*
X008491Y004449D03*
X008491Y004445D03*
X008483Y004419D03*
X008483Y004415D03*
X008480Y004404D03*
X008480Y004400D03*
X008472Y004373D03*
X008472Y004369D03*
X008468Y004358D03*
X008468Y004354D03*
X008461Y004328D03*
X008461Y004324D03*
X008457Y004312D03*
X008457Y004309D03*
X008453Y004297D03*
X008453Y004293D03*
X008449Y004282D03*
X008449Y004278D03*
X008442Y004252D03*
X008442Y004248D03*
X008438Y004236D03*
X008438Y004233D03*
X008430Y004206D03*
X008430Y004202D03*
X008426Y004191D03*
X008426Y004187D03*
X008419Y004160D03*
X008419Y004157D03*
X008415Y004145D03*
X008415Y004141D03*
X008411Y004130D03*
X008411Y004126D03*
X008407Y004115D03*
X008407Y004111D03*
X008404Y004100D03*
X008404Y004096D03*
X008400Y004084D03*
X008400Y004081D03*
X008396Y004069D03*
X008396Y004065D03*
X008388Y004039D03*
X008388Y004035D03*
X008385Y004024D03*
X008385Y004020D03*
X008377Y003993D03*
X008377Y003989D03*
X009316Y003989D03*
X009316Y003993D03*
X009323Y004020D03*
X009323Y004024D03*
X009327Y004035D03*
X009327Y004039D03*
X009335Y004065D03*
X009335Y004069D03*
X009338Y004081D03*
X009338Y004084D03*
X009346Y004111D03*
X009346Y004115D03*
X009350Y004126D03*
X009350Y004130D03*
X009354Y004141D03*
X009354Y004145D03*
X009357Y004157D03*
X009357Y004160D03*
X009361Y004168D03*
X009430Y004449D03*
X009430Y004453D03*
X009433Y004464D03*
X009433Y004468D03*
X009441Y004495D03*
X009441Y004499D03*
X009445Y004510D03*
X009445Y004514D03*
X009449Y004525D03*
X009449Y004529D03*
X009452Y004540D03*
X009452Y004544D03*
X009456Y004556D03*
X009456Y004559D03*
X009460Y004571D03*
X009460Y004575D03*
X009464Y004586D03*
X009464Y004590D03*
X009471Y004616D03*
X009471Y004620D03*
X009475Y004632D03*
X009475Y004635D03*
X009483Y004662D03*
X009483Y004666D03*
X009487Y004677D03*
X009487Y004681D03*
X009494Y004708D03*
X009494Y004711D03*
X009498Y004723D03*
X009498Y004727D03*
X009502Y004738D03*
X009502Y004742D03*
X009506Y004753D03*
X009506Y004757D03*
X009513Y004787D03*
X009517Y004803D03*
X009525Y004833D03*
X009528Y004848D03*
X009536Y004879D03*
X009540Y004894D03*
X009745Y004548D03*
X009741Y004544D03*
X009737Y004540D03*
X009730Y004529D03*
X009726Y004525D03*
X009718Y004518D03*
X009715Y004514D03*
X009692Y004487D03*
X007416Y004673D03*
X007142Y004290D03*
X007142Y004286D03*
X007138Y004274D03*
X007138Y004271D03*
X007127Y004115D03*
X007131Y004111D03*
X007237Y003982D03*
X007412Y004111D03*
X006720Y004339D03*
X006720Y004343D03*
X006716Y004328D03*
X006716Y004324D03*
X006709Y004297D03*
X006709Y004293D03*
X006705Y004282D03*
X006705Y004278D03*
X006701Y004267D03*
X006701Y004263D03*
X006697Y004252D03*
X006697Y004248D03*
X006694Y004236D03*
X006694Y004233D03*
X006690Y004221D03*
X006690Y004217D03*
X006686Y004206D03*
X006686Y004202D03*
X006678Y004176D03*
X006678Y004172D03*
X006675Y004160D03*
X006675Y004157D03*
X006667Y004130D03*
X006667Y004126D03*
X006663Y004115D03*
X006663Y004111D03*
X006656Y004084D03*
X006656Y004081D03*
X006652Y004069D03*
X006652Y004065D03*
X006648Y004054D03*
X006648Y004050D03*
X006644Y004039D03*
X006644Y004035D03*
X006637Y004008D03*
X006637Y004005D03*
X006633Y003993D03*
X006633Y003989D03*
X006359Y004172D03*
X006359Y004176D03*
X006363Y004187D03*
X006363Y004191D03*
X006367Y004202D03*
X006367Y004206D03*
X006371Y004217D03*
X006371Y004221D03*
X006378Y004248D03*
X006378Y004252D03*
X006382Y004263D03*
X006382Y004267D03*
X006390Y004293D03*
X006390Y004297D03*
X006393Y004309D03*
X006393Y004312D03*
X006401Y004339D03*
X006401Y004343D03*
X006405Y004354D03*
X006405Y004358D03*
X006409Y004369D03*
X006409Y004373D03*
X006412Y004385D03*
X006412Y004388D03*
X006416Y004400D03*
X006416Y004404D03*
X006420Y004415D03*
X006420Y004419D03*
X006424Y004430D03*
X006424Y004434D03*
X006431Y004461D03*
X006431Y004464D03*
X006435Y004476D03*
X006435Y004480D03*
X006443Y004506D03*
X006443Y004510D03*
X006447Y004521D03*
X006447Y004525D03*
X006454Y004552D03*
X006454Y004556D03*
X006458Y004567D03*
X006458Y004571D03*
X006462Y004582D03*
X006462Y004586D03*
X006466Y004597D03*
X006466Y004601D03*
X006473Y004628D03*
X006473Y004632D03*
X006477Y004643D03*
X006477Y004647D03*
X006496Y004723D03*
X006496Y004727D03*
X006500Y004738D03*
X006500Y004742D03*
X006504Y004753D03*
X006504Y004757D03*
X006507Y004768D03*
X006507Y004772D03*
X006511Y004784D03*
X006511Y004787D03*
X006515Y004799D03*
X006515Y004803D03*
X006519Y004814D03*
X006519Y004818D03*
X006526Y004848D03*
X006530Y004863D03*
X006538Y004894D03*
X006732Y004388D03*
X006732Y004385D03*
X006732Y004381D03*
X006728Y004373D03*
X006728Y004369D03*
X006352Y004145D03*
X006352Y004141D03*
X006348Y004130D03*
X006348Y004126D03*
X006340Y004100D03*
X006340Y004096D03*
X006336Y004084D03*
X006336Y004081D03*
X006329Y004054D03*
X006329Y004050D03*
X006325Y004039D03*
X006325Y004035D03*
X006321Y004024D03*
X006321Y004020D03*
X006317Y004008D03*
X006317Y004005D03*
X006314Y003993D03*
X006314Y003989D03*
D26*
X006315Y003997D03*
X006315Y004001D03*
X006319Y004012D03*
X006319Y004016D03*
X006327Y004043D03*
X006327Y004046D03*
X006331Y004058D03*
X006331Y004062D03*
X006334Y004073D03*
X006334Y004077D03*
X006338Y004088D03*
X006338Y004092D03*
X006342Y004103D03*
X006342Y004107D03*
X006346Y004119D03*
X006346Y004122D03*
X006350Y004134D03*
X006350Y004138D03*
X006353Y004149D03*
X006353Y004153D03*
X006357Y004164D03*
X006357Y004168D03*
X006361Y004179D03*
X006361Y004183D03*
X006369Y004210D03*
X006369Y004214D03*
X006372Y004225D03*
X006372Y004229D03*
X006376Y004240D03*
X006376Y004244D03*
X006380Y004255D03*
X006380Y004259D03*
X006384Y004271D03*
X006384Y004274D03*
X006388Y004286D03*
X006388Y004290D03*
X006391Y004301D03*
X006391Y004305D03*
X006395Y004316D03*
X006395Y004320D03*
X006399Y004331D03*
X006399Y004335D03*
X006403Y004347D03*
X006403Y004350D03*
X006410Y004377D03*
X006410Y004381D03*
X006414Y004392D03*
X006414Y004396D03*
X006422Y004423D03*
X006422Y004426D03*
X006426Y004438D03*
X006426Y004442D03*
X006429Y004453D03*
X006429Y004457D03*
X006433Y004468D03*
X006433Y004472D03*
X006437Y004483D03*
X006437Y004487D03*
X006441Y004499D03*
X006441Y004502D03*
X006445Y004514D03*
X006445Y004518D03*
X006448Y004529D03*
X006448Y004533D03*
X006452Y004544D03*
X006452Y004548D03*
X006456Y004559D03*
X006456Y004563D03*
X006464Y004590D03*
X006464Y004594D03*
X006467Y004605D03*
X006467Y004609D03*
X006471Y004620D03*
X006471Y004624D03*
X006475Y004635D03*
X006475Y004639D03*
X006479Y004651D03*
X006479Y004654D03*
X006483Y004666D03*
X006498Y004730D03*
X006498Y004734D03*
X006505Y004761D03*
X006505Y004765D03*
X006509Y004776D03*
X006509Y004780D03*
X006517Y004806D03*
X006517Y004810D03*
X006521Y004822D03*
X006521Y004825D03*
X006524Y004837D03*
X006524Y004841D03*
X006524Y004844D03*
X006528Y004852D03*
X006528Y004856D03*
X006528Y004860D03*
X006532Y004867D03*
X006532Y004871D03*
X006532Y004875D03*
X006536Y004882D03*
X006536Y004886D03*
X006536Y004890D03*
X006730Y004377D03*
X006726Y004366D03*
X006726Y004362D03*
X006722Y004350D03*
X006722Y004347D03*
X006718Y004335D03*
X006718Y004331D03*
X006714Y004320D03*
X006714Y004316D03*
X006711Y004305D03*
X006711Y004301D03*
X006707Y004290D03*
X006707Y004286D03*
X006699Y004259D03*
X006699Y004255D03*
X006695Y004244D03*
X006695Y004240D03*
X006688Y004214D03*
X006688Y004210D03*
X006684Y004198D03*
X006684Y004195D03*
X006680Y004183D03*
X006680Y004179D03*
X006676Y004168D03*
X006676Y004164D03*
X006673Y004153D03*
X006673Y004149D03*
X006669Y004138D03*
X006669Y004134D03*
X006665Y004122D03*
X006665Y004119D03*
X006661Y004107D03*
X006661Y004103D03*
X006657Y004092D03*
X006657Y004088D03*
X006654Y004077D03*
X006654Y004073D03*
X006646Y004046D03*
X006646Y004043D03*
X006642Y004031D03*
X006642Y004027D03*
X006638Y004016D03*
X006638Y004012D03*
X006635Y004001D03*
X006635Y003997D03*
X006631Y003986D03*
X007129Y004225D03*
X007129Y004229D03*
X007129Y004233D03*
X007132Y004240D03*
X007132Y004244D03*
X007132Y004248D03*
X007132Y004252D03*
X007136Y004259D03*
X007136Y004263D03*
X007136Y004267D03*
X007140Y004278D03*
X007140Y004282D03*
X007231Y004533D03*
X007235Y004537D03*
X008398Y004077D03*
X008398Y004073D03*
X008394Y004062D03*
X008394Y004058D03*
X008390Y004046D03*
X008390Y004043D03*
X008386Y004031D03*
X008386Y004027D03*
X008383Y004016D03*
X008383Y004012D03*
X008379Y004001D03*
X008379Y003997D03*
X008375Y003986D03*
X008405Y004103D03*
X008405Y004107D03*
X008409Y004119D03*
X008409Y004122D03*
X008417Y004149D03*
X008417Y004153D03*
X008421Y004164D03*
X008421Y004168D03*
X008424Y004179D03*
X008424Y004183D03*
X008428Y004195D03*
X008428Y004198D03*
X008432Y004210D03*
X008432Y004214D03*
X008436Y004225D03*
X008436Y004229D03*
X008440Y004240D03*
X008440Y004244D03*
X008443Y004255D03*
X008443Y004259D03*
X008447Y004271D03*
X008447Y004274D03*
X008451Y004286D03*
X008451Y004290D03*
X008459Y004316D03*
X008459Y004320D03*
X008462Y004331D03*
X008462Y004335D03*
X008466Y004347D03*
X008466Y004350D03*
X008470Y004362D03*
X008470Y004366D03*
X008474Y004377D03*
X008474Y004381D03*
X008478Y004392D03*
X008478Y004396D03*
X008481Y004407D03*
X008481Y004411D03*
X008485Y004423D03*
X008485Y004426D03*
X008489Y004438D03*
X008489Y004442D03*
X008493Y004453D03*
X008493Y004457D03*
X008500Y004483D03*
X008500Y004487D03*
X008504Y004499D03*
X008504Y004502D03*
X008512Y004529D03*
X008512Y004533D03*
X008516Y004544D03*
X008516Y004548D03*
X008519Y004559D03*
X008519Y004563D03*
X008523Y004575D03*
X008523Y004578D03*
X008527Y004590D03*
X008527Y004594D03*
X008531Y004605D03*
X008531Y004609D03*
X008535Y004620D03*
X008535Y004624D03*
X008538Y004635D03*
X008538Y004639D03*
X008542Y004651D03*
X008542Y004654D03*
X008546Y004666D03*
X008827Y004514D03*
X008827Y004510D03*
X008823Y004506D03*
X008820Y004499D03*
X008816Y004491D03*
X008812Y004483D03*
X008808Y004476D03*
X008808Y004472D03*
X008804Y004464D03*
X008801Y004457D03*
X008801Y004453D03*
X008797Y004445D03*
X008797Y004442D03*
X008789Y004426D03*
X008789Y004423D03*
X008789Y004419D03*
X008785Y004415D03*
X008785Y004411D03*
X008785Y004407D03*
X008778Y004388D03*
X008778Y004385D03*
X008774Y004373D03*
X008766Y004347D03*
X008755Y004301D03*
X008751Y004286D03*
X008747Y004267D03*
X008744Y004252D03*
X008744Y004248D03*
X008744Y004244D03*
X008736Y004210D03*
X008736Y004206D03*
X008736Y004202D03*
X008736Y004198D03*
X008736Y004195D03*
X008736Y004191D03*
X008736Y004187D03*
X008736Y004183D03*
X008736Y004179D03*
X008736Y004176D03*
X008736Y004172D03*
X008736Y004168D03*
X008736Y004164D03*
X008736Y004160D03*
X008736Y004157D03*
X008736Y004153D03*
X008736Y004149D03*
X008850Y003982D03*
X009040Y004130D03*
X009044Y004134D03*
X009333Y004062D03*
X009333Y004058D03*
X009329Y004046D03*
X009329Y004043D03*
X009325Y004031D03*
X009325Y004027D03*
X009321Y004016D03*
X009321Y004012D03*
X009317Y004001D03*
X009317Y003997D03*
X009314Y003986D03*
X009336Y004073D03*
X009336Y004077D03*
X009340Y004088D03*
X009340Y004092D03*
X009344Y004103D03*
X009344Y004107D03*
X009348Y004119D03*
X009348Y004122D03*
X009355Y004149D03*
X009355Y004153D03*
X009359Y004164D03*
X009428Y004445D03*
X009431Y004457D03*
X009431Y004461D03*
X009435Y004472D03*
X009435Y004476D03*
X009439Y004487D03*
X009439Y004491D03*
X009443Y004502D03*
X009443Y004506D03*
X009450Y004533D03*
X009450Y004537D03*
X009454Y004548D03*
X009454Y004552D03*
X009462Y004578D03*
X009462Y004582D03*
X009466Y004594D03*
X009466Y004597D03*
X009469Y004609D03*
X009469Y004613D03*
X009473Y004624D03*
X009473Y004628D03*
X009477Y004639D03*
X009477Y004643D03*
X009481Y004654D03*
X009481Y004658D03*
X009485Y004670D03*
X009485Y004673D03*
X009488Y004685D03*
X009488Y004689D03*
X009492Y004700D03*
X009492Y004704D03*
X009496Y004715D03*
X009496Y004719D03*
X009504Y004746D03*
X009504Y004749D03*
X009507Y004761D03*
X009507Y004765D03*
X009507Y004768D03*
X009511Y004776D03*
X009511Y004780D03*
X009511Y004784D03*
X009515Y004791D03*
X009515Y004795D03*
X009515Y004799D03*
X009519Y004806D03*
X009519Y004810D03*
X009519Y004814D03*
X009523Y004822D03*
X009523Y004825D03*
X009523Y004829D03*
X009526Y004837D03*
X009526Y004841D03*
X009526Y004844D03*
X009530Y004852D03*
X009530Y004856D03*
X009530Y004860D03*
X009534Y004867D03*
X009534Y004871D03*
X009534Y004875D03*
X009538Y004882D03*
X009538Y004886D03*
X009538Y004890D03*
X009709Y004506D03*
X009705Y004502D03*
X009701Y004499D03*
X009697Y004495D03*
X009694Y004491D03*
X009686Y004480D03*
X009682Y004476D03*
X009678Y004472D03*
X009675Y004468D03*
X009143Y004544D03*
X008831Y004518D03*
D27*
X008854Y004544D03*
X009044Y004685D03*
X009371Y004187D03*
X009371Y004183D03*
X009640Y004214D03*
X009640Y004217D03*
X009644Y004210D03*
X009644Y004206D03*
X009644Y004202D03*
X009644Y004198D03*
X009648Y004195D03*
X009648Y004191D03*
X009648Y004187D03*
X009648Y004183D03*
X009656Y004164D03*
X009656Y004160D03*
X009656Y004157D03*
X009659Y004145D03*
X009667Y004115D03*
X009804Y004616D03*
X009808Y004620D03*
X009815Y004628D03*
X009819Y004632D03*
X009830Y004647D03*
X009834Y004651D03*
X009838Y004654D03*
X007896Y004719D03*
X007892Y004711D03*
X007892Y004708D03*
X007892Y004704D03*
X007885Y004681D03*
X007885Y004677D03*
X007885Y004673D03*
X007877Y004651D03*
X007877Y004647D03*
X007877Y004643D03*
X007873Y004635D03*
X007873Y004632D03*
X007873Y004628D03*
X007866Y004605D03*
X007866Y004601D03*
X007866Y004597D03*
X007862Y004590D03*
X007862Y004586D03*
X007862Y004582D03*
X007854Y004559D03*
X007854Y004556D03*
X007854Y004552D03*
X007851Y004540D03*
X007851Y004537D03*
X007843Y004510D03*
X007797Y004331D03*
X007797Y004328D03*
X007797Y004324D03*
X007790Y004301D03*
X007790Y004297D03*
X007790Y004293D03*
X007782Y004271D03*
X007782Y004267D03*
X007782Y004263D03*
X007782Y004259D03*
X007778Y004255D03*
X007778Y004252D03*
X007778Y004248D03*
X007778Y004244D03*
X007771Y004225D03*
X007771Y004221D03*
X007771Y004217D03*
X007771Y004214D03*
X007767Y004210D03*
X007767Y004206D03*
X007767Y004202D03*
X007767Y004198D03*
X007759Y004179D03*
X007759Y004176D03*
X007759Y004172D03*
X007759Y004168D03*
X007756Y004160D03*
X007756Y004157D03*
X007756Y004153D03*
X007748Y004130D03*
X007748Y004126D03*
X007748Y004122D03*
X007744Y004115D03*
X007744Y004111D03*
X007744Y004107D03*
X007740Y004100D03*
X007740Y004096D03*
X007740Y004092D03*
X007737Y004084D03*
X007737Y004081D03*
X007737Y004077D03*
X007729Y004054D03*
X007729Y004050D03*
X007729Y004046D03*
X007729Y004043D03*
X007725Y004039D03*
X007725Y004035D03*
X007725Y004031D03*
X007725Y004027D03*
X007718Y004008D03*
X007718Y004005D03*
X007718Y004001D03*
X007718Y003997D03*
X007714Y003993D03*
X007714Y003989D03*
X007714Y003986D03*
X007402Y004107D03*
X007136Y004107D03*
X006745Y004419D03*
X005897Y004639D03*
X005897Y004643D03*
X005897Y004647D03*
X005901Y004654D03*
X005901Y004658D03*
X005901Y004662D03*
X005909Y004685D03*
X005909Y004689D03*
X005909Y004692D03*
X005909Y004696D03*
X005913Y004700D03*
X005913Y004704D03*
X005890Y004616D03*
X005890Y004613D03*
X005890Y004609D03*
X005882Y004586D03*
X005882Y004582D03*
X005882Y004578D03*
X005878Y004571D03*
X005878Y004567D03*
X005878Y004563D03*
X005825Y004358D03*
X005825Y004354D03*
X005825Y004350D03*
X005818Y004328D03*
X005818Y004324D03*
X005818Y004320D03*
X005814Y004312D03*
X005814Y004309D03*
X005814Y004305D03*
X005806Y004282D03*
X005806Y004278D03*
X005806Y004274D03*
X005802Y004267D03*
X005802Y004263D03*
X005802Y004259D03*
X005795Y004236D03*
X005795Y004233D03*
X005795Y004229D03*
X005787Y004206D03*
X005787Y004202D03*
X005787Y004198D03*
X005787Y004195D03*
X005783Y004191D03*
X005783Y004187D03*
X005783Y004183D03*
X005783Y004179D03*
X005776Y004160D03*
X005776Y004157D03*
X005776Y004153D03*
X005776Y004149D03*
X005772Y004145D03*
X005772Y004141D03*
X005772Y004138D03*
X005772Y004134D03*
X005764Y004115D03*
X005764Y004111D03*
X005764Y004107D03*
X005764Y004103D03*
X005761Y004100D03*
X005761Y004096D03*
X005761Y004092D03*
X005761Y004088D03*
X005753Y004069D03*
X005753Y004065D03*
X005753Y004062D03*
X005753Y004058D03*
X005749Y004054D03*
X005749Y004050D03*
X005749Y004046D03*
X005749Y004043D03*
X005745Y004039D03*
X005745Y004035D03*
X005745Y004031D03*
X005745Y004027D03*
X005742Y004024D03*
X005742Y004020D03*
X005742Y004016D03*
X005742Y004012D03*
X005734Y003993D03*
X005734Y003989D03*
X005734Y003986D03*
D28*
X006312Y003986D03*
X006323Y004027D03*
X006323Y004031D03*
X006365Y004195D03*
X006365Y004198D03*
X006407Y004362D03*
X006407Y004366D03*
X006418Y004407D03*
X006418Y004411D03*
X006460Y004575D03*
X006460Y004578D03*
X006502Y004746D03*
X006502Y004749D03*
X006513Y004791D03*
X006513Y004795D03*
X006703Y004274D03*
X006703Y004271D03*
X006692Y004229D03*
X006692Y004225D03*
X006650Y004062D03*
X006650Y004058D03*
X007125Y004119D03*
X007178Y004423D03*
X008413Y004138D03*
X008413Y004134D03*
X008402Y004092D03*
X008402Y004088D03*
X008455Y004301D03*
X008455Y004305D03*
X008497Y004468D03*
X008497Y004472D03*
X008508Y004514D03*
X008508Y004518D03*
X008740Y004233D03*
X008740Y004229D03*
X008740Y004225D03*
X008740Y004221D03*
X008740Y004217D03*
X008740Y004214D03*
X008782Y004396D03*
X008782Y004400D03*
X008793Y004430D03*
X008793Y004434D03*
X008793Y004438D03*
X009352Y004138D03*
X009352Y004134D03*
X009447Y004518D03*
X009447Y004521D03*
X009458Y004563D03*
X009458Y004567D03*
X009500Y004730D03*
X009500Y004734D03*
X009690Y004483D03*
D29*
X009386Y004214D03*
X009382Y004206D03*
X008227Y004556D03*
X008223Y004548D03*
X008219Y004544D03*
X008250Y004696D03*
X008250Y004700D03*
X007239Y003986D03*
X006760Y004442D03*
D30*
X006758Y004438D03*
X007416Y004670D03*
X008225Y004552D03*
X008229Y004559D03*
X008252Y004689D03*
X008252Y004692D03*
X008852Y003986D03*
X009380Y004202D03*
D31*
X009378Y004198D03*
X009678Y004073D03*
X009682Y004058D03*
X009686Y004046D03*
X009686Y004043D03*
X009686Y004039D03*
X009690Y004031D03*
X009690Y004027D03*
X009690Y004024D03*
X009694Y004016D03*
X009694Y004012D03*
X009694Y004008D03*
X009697Y004005D03*
X009697Y004001D03*
X009697Y003997D03*
X009697Y003993D03*
X009701Y003989D03*
X009701Y003986D03*
X009131Y004552D03*
X008257Y004666D03*
X008257Y004670D03*
X008242Y004590D03*
X008238Y004582D03*
X008238Y004578D03*
X008234Y004575D03*
X008234Y004571D03*
X008231Y004563D03*
X006752Y004430D03*
D32*
X006775Y004457D03*
X007239Y003989D03*
X008200Y004521D03*
X008242Y004715D03*
D33*
X008246Y004711D03*
X008208Y004529D03*
X008204Y004525D03*
X008854Y003989D03*
X007414Y004666D03*
X006771Y004453D03*
D34*
X007241Y003993D03*
X008183Y004510D03*
D35*
X008191Y004514D03*
X008236Y004719D03*
X008856Y003993D03*
X007412Y004662D03*
X006781Y004461D03*
D36*
X006749Y004423D03*
X007246Y004544D03*
X007794Y004316D03*
X007794Y004312D03*
X007794Y004309D03*
X007786Y004286D03*
X007786Y004282D03*
X007786Y004278D03*
X007775Y004240D03*
X007775Y004236D03*
X007775Y004233D03*
X007775Y004229D03*
X007763Y004195D03*
X007763Y004191D03*
X007763Y004187D03*
X007763Y004183D03*
X007752Y004145D03*
X007752Y004141D03*
X007752Y004138D03*
X007733Y004069D03*
X007733Y004065D03*
X007733Y004062D03*
X007721Y004024D03*
X007721Y004020D03*
X007721Y004016D03*
X007721Y004012D03*
X007847Y004518D03*
X007847Y004521D03*
X007847Y004525D03*
X007858Y004567D03*
X007858Y004571D03*
X007858Y004575D03*
X007870Y004613D03*
X007870Y004616D03*
X007870Y004620D03*
X007881Y004658D03*
X007881Y004662D03*
X007881Y004666D03*
X007889Y004689D03*
X007889Y004692D03*
X007889Y004696D03*
X008744Y004126D03*
X009029Y004122D03*
X009652Y004172D03*
X009652Y004176D03*
X009652Y004179D03*
X009663Y004130D03*
X009811Y004624D03*
X005905Y004670D03*
X005905Y004673D03*
X005905Y004677D03*
X005905Y004681D03*
X005894Y004632D03*
X005894Y004628D03*
X005894Y004624D03*
X005886Y004601D03*
X005886Y004597D03*
X005886Y004594D03*
X005875Y004556D03*
X005875Y004552D03*
X005875Y004548D03*
X005821Y004343D03*
X005821Y004339D03*
X005821Y004335D03*
X005810Y004297D03*
X005810Y004293D03*
X005810Y004290D03*
X005799Y004252D03*
X005799Y004248D03*
X005799Y004244D03*
X005791Y004221D03*
X005791Y004217D03*
X005791Y004214D03*
X005780Y004176D03*
X005780Y004172D03*
X005780Y004168D03*
X005780Y004164D03*
X005768Y004130D03*
X005768Y004126D03*
X005768Y004122D03*
X005768Y004119D03*
X005757Y004084D03*
X005757Y004081D03*
X005757Y004077D03*
X005757Y004073D03*
X005738Y004008D03*
X005738Y004005D03*
X005738Y004001D03*
X005738Y003997D03*
D37*
X007241Y003997D03*
D38*
X006789Y004464D03*
X007412Y004658D03*
X008856Y003997D03*
X009038Y004673D03*
D39*
X008858Y004001D03*
X007410Y004654D03*
X007243Y004001D03*
D40*
X007243Y004005D03*
D41*
X007134Y004255D03*
X006735Y004392D03*
X006735Y004396D03*
X006724Y004358D03*
X006724Y004354D03*
X006713Y004312D03*
X006713Y004309D03*
X006682Y004191D03*
X006682Y004187D03*
X006671Y004145D03*
X006671Y004141D03*
X006659Y004100D03*
X006659Y004096D03*
X006640Y004024D03*
X006640Y004020D03*
X006374Y004233D03*
X006374Y004236D03*
X006386Y004278D03*
X006386Y004282D03*
X006397Y004324D03*
X006397Y004328D03*
X006428Y004445D03*
X006428Y004449D03*
X006439Y004491D03*
X006439Y004495D03*
X006450Y004537D03*
X006450Y004540D03*
X006469Y004613D03*
X006469Y004616D03*
X006481Y004658D03*
X006481Y004662D03*
X006523Y004829D03*
X006523Y004833D03*
X006534Y004879D03*
X006355Y004160D03*
X006355Y004157D03*
X006344Y004115D03*
X006344Y004111D03*
X006333Y004069D03*
X006333Y004065D03*
X008381Y004008D03*
X008381Y004005D03*
X008392Y004050D03*
X008392Y004054D03*
X008423Y004172D03*
X008423Y004176D03*
X008434Y004217D03*
X008434Y004221D03*
X008445Y004263D03*
X008445Y004267D03*
X008464Y004339D03*
X008464Y004343D03*
X008476Y004385D03*
X008476Y004388D03*
X008487Y004430D03*
X008487Y004434D03*
X008518Y004552D03*
X008518Y004556D03*
X008529Y004597D03*
X008529Y004601D03*
X008540Y004643D03*
X008540Y004647D03*
X008772Y004369D03*
X008772Y004366D03*
X008772Y004362D03*
X008761Y004331D03*
X008761Y004328D03*
X008761Y004324D03*
X008761Y004320D03*
X008749Y004282D03*
X008749Y004278D03*
X008749Y004274D03*
X008749Y004271D03*
X009342Y004100D03*
X009342Y004096D03*
X009331Y004054D03*
X009331Y004050D03*
X009319Y004008D03*
X009319Y004005D03*
X009437Y004480D03*
X009437Y004483D03*
X009468Y004601D03*
X009468Y004605D03*
X009479Y004647D03*
X009479Y004651D03*
X009490Y004692D03*
X009490Y004696D03*
X009509Y004772D03*
X009521Y004818D03*
X009532Y004863D03*
X009722Y004521D03*
X009711Y004510D03*
D42*
X008860Y004005D03*
X007408Y004651D03*
D43*
X006815Y004472D03*
X007245Y004008D03*
X008860Y004008D03*
D44*
X008861Y004012D03*
X009032Y004658D03*
X007246Y004012D03*
D45*
X007245Y004016D03*
X007868Y004335D03*
X008863Y004016D03*
X009031Y004654D03*
D46*
X007246Y004020D03*
D47*
X008863Y004020D03*
D48*
X008860Y004548D03*
X008255Y004639D03*
X008255Y004643D03*
X008255Y004647D03*
X008255Y004651D03*
X008255Y004654D03*
X008255Y004658D03*
X008255Y004662D03*
X008252Y004635D03*
X008252Y004632D03*
X008252Y004628D03*
X008252Y004624D03*
X008252Y004620D03*
X008248Y004616D03*
X008248Y004613D03*
X008248Y004609D03*
X008248Y004605D03*
X008244Y004601D03*
X008244Y004597D03*
X008244Y004594D03*
X008240Y004586D03*
X007883Y004670D03*
X007887Y004685D03*
X007891Y004700D03*
X007894Y004715D03*
X007879Y004654D03*
X007875Y004639D03*
X007872Y004624D03*
X007868Y004609D03*
X007864Y004594D03*
X007860Y004578D03*
X007856Y004563D03*
X007853Y004548D03*
X007853Y004544D03*
X007849Y004533D03*
X007849Y004529D03*
X007845Y004514D03*
X006751Y004426D03*
X005896Y004635D03*
X005892Y004620D03*
X005888Y004605D03*
X005884Y004590D03*
X005880Y004575D03*
X005877Y004559D03*
X005873Y004544D03*
X005899Y004651D03*
X005903Y004666D03*
X005823Y004347D03*
X005820Y004331D03*
X005816Y004316D03*
X005812Y004301D03*
X005808Y004286D03*
X005804Y004271D03*
X005801Y004255D03*
X005797Y004240D03*
X005793Y004225D03*
X005789Y004210D03*
X009373Y004191D03*
X009376Y004195D03*
X009654Y004168D03*
X009658Y004153D03*
X009658Y004149D03*
X009661Y004141D03*
X009661Y004138D03*
X009661Y004134D03*
X009665Y004126D03*
X009665Y004122D03*
X009665Y004119D03*
X009669Y004111D03*
X009669Y004107D03*
X009669Y004103D03*
X009673Y004100D03*
X009673Y004096D03*
X009673Y004092D03*
X009673Y004088D03*
X009677Y004084D03*
X009677Y004081D03*
X009677Y004077D03*
X009680Y004069D03*
X009680Y004065D03*
X009680Y004062D03*
X009684Y004054D03*
X009684Y004050D03*
X009688Y004035D03*
X009692Y004020D03*
X009821Y004635D03*
X009825Y004639D03*
X009829Y004643D03*
X009840Y004658D03*
X009844Y004662D03*
X009848Y004666D03*
D49*
X009029Y004647D03*
X007402Y004628D03*
X007246Y004024D03*
D50*
X008865Y004024D03*
D51*
X008865Y004027D03*
X009025Y004643D03*
X007402Y004624D03*
X007250Y004027D03*
D52*
X007250Y004031D03*
X008865Y004031D03*
X009025Y004639D03*
D53*
X009507Y004392D03*
X009511Y004396D03*
X009507Y004385D03*
X009507Y004381D03*
X007398Y004616D03*
X006870Y004563D03*
X006870Y004559D03*
X006866Y004544D03*
X006863Y004529D03*
X006859Y004514D03*
X006855Y004499D03*
X006851Y004483D03*
X007250Y004035D03*
D54*
X006849Y004476D03*
X006849Y004480D03*
X006861Y004518D03*
X006861Y004521D03*
X006861Y004525D03*
X006872Y004567D03*
X006872Y004571D03*
X008867Y004035D03*
D55*
X008867Y004039D03*
X009506Y004362D03*
X009517Y004407D03*
X009521Y004411D03*
X007252Y004039D03*
D56*
X007254Y004043D03*
X007398Y004609D03*
X008869Y004043D03*
X009507Y004350D03*
X009507Y004354D03*
X009507Y004358D03*
X009523Y004415D03*
D57*
X009526Y004423D03*
X009530Y004426D03*
X009507Y004347D03*
X009507Y004343D03*
X009507Y004339D03*
X009507Y004335D03*
X009021Y004624D03*
X008869Y004046D03*
X007254Y004046D03*
D58*
X007256Y004050D03*
X007397Y004601D03*
X007902Y004347D03*
X008039Y004886D03*
X008871Y004050D03*
X009019Y004620D03*
D59*
X007910Y004350D03*
X007393Y004594D03*
X007256Y004054D03*
D60*
X007258Y004058D03*
X008873Y004054D03*
X009507Y004309D03*
X009507Y004312D03*
X009507Y004316D03*
D61*
X009369Y004179D03*
X009365Y004176D03*
X009034Y004126D03*
X008848Y004540D03*
X009768Y004575D03*
X009772Y004578D03*
X009775Y004582D03*
X009779Y004586D03*
X009783Y004590D03*
X009783Y004594D03*
X009787Y004597D03*
X009791Y004601D03*
X009794Y004605D03*
X009798Y004609D03*
X009802Y004613D03*
X007796Y004320D03*
X007792Y004305D03*
X007788Y004290D03*
X007784Y004274D03*
X007758Y004164D03*
X007754Y004149D03*
X007750Y004134D03*
X007746Y004119D03*
X007739Y004088D03*
X007735Y004073D03*
X007731Y004058D03*
X006743Y004411D03*
X006743Y004415D03*
D62*
X007258Y004062D03*
X007391Y004586D03*
X008873Y004062D03*
X008873Y004058D03*
X009013Y004609D03*
X009507Y004297D03*
X009507Y004293D03*
D63*
X009509Y004290D03*
X009509Y004286D03*
X007917Y004354D03*
X007260Y004065D03*
D64*
X007391Y004582D03*
X008048Y004879D03*
X008873Y004065D03*
X009013Y004605D03*
X009507Y004282D03*
D65*
X009509Y004278D03*
X009509Y004274D03*
X009509Y004271D03*
X009012Y004597D03*
X009012Y004601D03*
X008875Y004069D03*
X007389Y004578D03*
X007260Y004069D03*
D66*
X007262Y004073D03*
X007387Y004575D03*
X008052Y004875D03*
X008877Y004073D03*
D67*
X009012Y004594D03*
X009509Y004263D03*
X009509Y004259D03*
X009509Y004255D03*
X007385Y004571D03*
X007264Y004077D03*
D68*
X007262Y004081D03*
X007387Y004567D03*
X007927Y004362D03*
X008877Y004077D03*
X009010Y004590D03*
X009507Y004252D03*
D69*
X009509Y004248D03*
X009509Y004244D03*
X009509Y004240D03*
X008879Y004081D03*
X007385Y004563D03*
X007264Y004084D03*
D70*
X007265Y004088D03*
X008880Y004084D03*
X009006Y004582D03*
D71*
X009004Y004578D03*
X008879Y004088D03*
X009509Y004225D03*
X009509Y004229D03*
X009509Y004233D03*
X009509Y004236D03*
X008058Y004867D03*
X007381Y004556D03*
X007381Y004552D03*
X007267Y004092D03*
D72*
X007265Y004096D03*
X007379Y004548D03*
X008880Y004092D03*
D73*
X008882Y004096D03*
X009509Y004221D03*
X008062Y004863D03*
X007267Y004100D03*
D74*
X008882Y004100D03*
X008882Y004103D03*
D75*
X009002Y004567D03*
X007942Y004373D03*
X007269Y004103D03*
D76*
X007742Y004103D03*
D77*
X007946Y004377D03*
X007949Y004381D03*
X008067Y004856D03*
X008884Y004111D03*
X008884Y004107D03*
D78*
X009050Y004138D03*
X008799Y004449D03*
X008803Y004461D03*
X008806Y004468D03*
X008810Y004480D03*
X008814Y004487D03*
X008818Y004495D03*
X008822Y004502D03*
X009145Y004540D03*
X009654Y004445D03*
X009658Y004449D03*
X009661Y004453D03*
X009665Y004457D03*
X009669Y004461D03*
X009673Y004464D03*
X007522Y004540D03*
X007229Y004529D03*
X007226Y004525D03*
X007222Y004521D03*
X007191Y004461D03*
X007188Y004453D03*
X007188Y004449D03*
X007184Y004442D03*
X007184Y004438D03*
X007180Y004434D03*
X007180Y004430D03*
X007180Y004426D03*
X007176Y004419D03*
X007131Y004236D03*
X007127Y004221D03*
X007127Y004217D03*
X007127Y004214D03*
X007127Y004210D03*
X007123Y004202D03*
X007123Y004198D03*
X007123Y004195D03*
X007123Y004122D03*
X007419Y004115D03*
D79*
X006002Y004502D03*
X006002Y004506D03*
X006006Y004518D03*
X006006Y004521D03*
X006010Y004533D03*
X006010Y004537D03*
X005998Y004491D03*
X005998Y004487D03*
X005994Y004476D03*
X005994Y004472D03*
X005991Y004461D03*
X005991Y004457D03*
X005987Y004445D03*
X005987Y004442D03*
X005983Y004430D03*
X005983Y004426D03*
X005979Y004415D03*
X005979Y004411D03*
X005975Y004400D03*
X005975Y004396D03*
X005972Y004385D03*
X005972Y004381D03*
X005968Y004369D03*
X005968Y004366D03*
X008886Y004115D03*
D80*
X009055Y004145D03*
X007524Y004537D03*
X007220Y004518D03*
X007216Y004514D03*
X007216Y004510D03*
X007212Y004506D03*
X007208Y004499D03*
X007201Y004487D03*
X007201Y004483D03*
X007197Y004480D03*
X007197Y004476D03*
X007197Y004472D03*
X007189Y004457D03*
X007186Y004445D03*
X007125Y004206D03*
X007121Y004191D03*
X007121Y004187D03*
X007121Y004183D03*
X007121Y004179D03*
X007121Y004176D03*
X007121Y004141D03*
X007121Y004138D03*
X007121Y004134D03*
X007121Y004130D03*
X007121Y004126D03*
X007421Y004119D03*
X006775Y004575D03*
X006775Y004578D03*
X006775Y004582D03*
X006775Y004586D03*
X006779Y004590D03*
X006779Y004594D03*
X006779Y004597D03*
X006779Y004601D03*
X006783Y004605D03*
X006783Y004609D03*
X006783Y004613D03*
X006783Y004616D03*
X006787Y004620D03*
X006787Y004624D03*
X006787Y004628D03*
X006787Y004632D03*
X006790Y004635D03*
X006790Y004639D03*
X006790Y004643D03*
X006790Y004647D03*
X006794Y004651D03*
X006794Y004654D03*
X006794Y004658D03*
X006794Y004662D03*
X006798Y004666D03*
D81*
X006011Y004540D03*
X006008Y004529D03*
X006008Y004525D03*
X006004Y004514D03*
X006004Y004510D03*
X006000Y004499D03*
X006000Y004495D03*
X005996Y004483D03*
X005996Y004480D03*
X005992Y004468D03*
X005992Y004464D03*
X005989Y004453D03*
X005989Y004449D03*
X005981Y004423D03*
X005981Y004419D03*
X005977Y004407D03*
X005977Y004404D03*
X005973Y004392D03*
X005973Y004388D03*
X005970Y004377D03*
X005970Y004373D03*
X005966Y004362D03*
X007953Y004385D03*
X008067Y004852D03*
X008888Y004119D03*
D82*
X009057Y004149D03*
X009148Y004525D03*
X009148Y004529D03*
X010110Y004879D03*
X010110Y004882D03*
X010110Y004886D03*
X010114Y004890D03*
X010114Y004894D03*
X010114Y004898D03*
X010114Y004901D03*
X010121Y004920D03*
X010121Y004924D03*
X010121Y004928D03*
X010121Y004932D03*
X010125Y004936D03*
X010125Y004939D03*
X010125Y004943D03*
X010125Y004947D03*
X007526Y004533D03*
X007210Y004502D03*
X007465Y004206D03*
X007427Y004122D03*
D83*
X006754Y004434D03*
X008233Y004567D03*
X008255Y004673D03*
X008255Y004677D03*
X008255Y004681D03*
X008255Y004685D03*
X008749Y004122D03*
X009384Y004210D03*
D84*
X009139Y004426D03*
X009139Y004430D03*
X009143Y004442D03*
X009143Y004445D03*
X009143Y004449D03*
X009146Y004461D03*
X009146Y004464D03*
X009146Y004468D03*
X009146Y004472D03*
X009150Y004487D03*
X009150Y004491D03*
X009150Y004495D03*
X009150Y004499D03*
X009150Y004502D03*
X009150Y004506D03*
X009150Y004510D03*
X009150Y004514D03*
X009150Y004518D03*
X009150Y004521D03*
X009101Y004267D03*
X009097Y004252D03*
X009093Y004236D03*
X009086Y004210D03*
X009082Y004198D03*
X009074Y004179D03*
X009070Y004172D03*
X009067Y004164D03*
X009063Y004157D03*
X007520Y004430D03*
X007528Y004529D03*
X007467Y004217D03*
X007467Y004214D03*
X007467Y004210D03*
X007463Y004202D03*
X007463Y004198D03*
X007463Y004195D03*
X007459Y004191D03*
X007459Y004187D03*
X007459Y004183D03*
X007455Y004176D03*
X007452Y004164D03*
X007448Y004157D03*
X007444Y004149D03*
X007440Y004141D03*
X007436Y004134D03*
X007433Y004130D03*
X007429Y004126D03*
D85*
X007516Y004544D03*
X007239Y004540D03*
X006741Y004407D03*
X006737Y004404D03*
X006737Y004400D03*
X008740Y004134D03*
X008740Y004130D03*
X008842Y004533D03*
X008846Y004537D03*
X009139Y004548D03*
X009363Y004172D03*
X009732Y004533D03*
X009735Y004537D03*
X009747Y004552D03*
X009751Y004556D03*
X009754Y004559D03*
X009758Y004563D03*
X009762Y004567D03*
X009766Y004571D03*
D86*
X009148Y004483D03*
X009148Y004480D03*
X009148Y004476D03*
X009145Y004457D03*
X009145Y004453D03*
X009137Y004423D03*
X009137Y004419D03*
X009103Y004274D03*
X009103Y004271D03*
X009095Y004248D03*
X009095Y004244D03*
X009095Y004240D03*
X009091Y004233D03*
X009091Y004229D03*
X009091Y004225D03*
X009088Y004221D03*
X009088Y004217D03*
X009088Y004214D03*
X009084Y004206D03*
X009084Y004202D03*
X009080Y004195D03*
X009080Y004191D03*
X009076Y004187D03*
X009076Y004183D03*
X009072Y004176D03*
X009069Y004168D03*
X009065Y004160D03*
X007522Y004434D03*
X007522Y004438D03*
X007522Y004442D03*
X007522Y004445D03*
X007518Y004426D03*
X007518Y004423D03*
X007518Y004419D03*
X007530Y004480D03*
X007530Y004483D03*
X007530Y004518D03*
X007530Y004521D03*
X007530Y004525D03*
X007457Y004179D03*
X007454Y004172D03*
X007454Y004168D03*
X007450Y004160D03*
X007446Y004153D03*
X007442Y004145D03*
X007438Y004138D03*
D87*
X007193Y004464D03*
X007193Y004468D03*
X007205Y004491D03*
X007205Y004495D03*
X009051Y004141D03*
X009146Y004533D03*
X009146Y004537D03*
D88*
X009061Y004153D03*
X010117Y004905D03*
X010117Y004909D03*
X010117Y004913D03*
X010117Y004917D03*
X007469Y004221D03*
X007119Y004172D03*
X007119Y004168D03*
X007119Y004164D03*
X007119Y004160D03*
X007119Y004157D03*
X007119Y004153D03*
X007119Y004149D03*
X007119Y004145D03*
D89*
X006762Y004445D03*
X008214Y004537D03*
X008217Y004540D03*
X008248Y004704D03*
X008867Y004552D03*
X009388Y004217D03*
D90*
X009141Y004434D03*
X009141Y004438D03*
X009099Y004263D03*
X009099Y004259D03*
X009099Y004255D03*
X009046Y004689D03*
X007526Y004464D03*
X007526Y004461D03*
X007526Y004457D03*
X007526Y004453D03*
X007526Y004449D03*
D91*
X007923Y004358D03*
X009507Y004267D03*
D92*
X007982Y004423D03*
X007336Y004392D03*
X007332Y004381D03*
X007332Y004377D03*
X007332Y004373D03*
X007328Y004366D03*
X007328Y004362D03*
X007328Y004358D03*
X007324Y004354D03*
X007324Y004350D03*
X007324Y004347D03*
X007324Y004343D03*
X007321Y004339D03*
X007321Y004335D03*
X007321Y004331D03*
X007321Y004328D03*
X007317Y004324D03*
X007317Y004320D03*
X007317Y004316D03*
X007317Y004312D03*
X007313Y004309D03*
X007313Y004305D03*
X007313Y004301D03*
X007313Y004297D03*
X007309Y004293D03*
D93*
X007393Y004590D03*
X008043Y004882D03*
X009015Y004613D03*
X009509Y004305D03*
X009509Y004301D03*
D94*
X009507Y004320D03*
X009507Y004324D03*
X009507Y004328D03*
X009507Y004331D03*
X009534Y004434D03*
X009534Y004438D03*
X009538Y004442D03*
X009017Y004616D03*
X007395Y004597D03*
D95*
X007883Y004339D03*
D96*
X007892Y004343D03*
X007398Y004613D03*
X008029Y004890D03*
X009021Y004632D03*
X009515Y004404D03*
X009507Y004373D03*
X009507Y004369D03*
X009507Y004366D03*
D97*
X009008Y004586D03*
X008058Y004871D03*
X007932Y004366D03*
D98*
X008079Y004810D03*
X008079Y004814D03*
X007341Y004415D03*
X007341Y004411D03*
X007330Y004369D03*
D99*
X007938Y004369D03*
D100*
X006868Y004548D03*
X006868Y004552D03*
X006868Y004556D03*
X006865Y004540D03*
X006865Y004537D03*
X006865Y004533D03*
X006857Y004510D03*
X006857Y004506D03*
X006857Y004502D03*
X006853Y004495D03*
X006853Y004491D03*
X006853Y004487D03*
X009506Y004377D03*
X009513Y004400D03*
D101*
X007980Y004419D03*
X007338Y004404D03*
X007338Y004400D03*
X007338Y004396D03*
X007334Y004388D03*
X007334Y004385D03*
D102*
X007957Y004388D03*
X008071Y004844D03*
D103*
X007400Y004620D03*
X009506Y004388D03*
D104*
X008073Y004841D03*
X007959Y004392D03*
D105*
X007965Y004396D03*
X006095Y004841D03*
X006106Y004886D03*
X006084Y004795D03*
X006076Y004761D03*
X006065Y004715D03*
D106*
X006067Y004719D03*
X006067Y004723D03*
X006067Y004727D03*
X006070Y004734D03*
X006070Y004738D03*
X006070Y004742D03*
X006074Y004749D03*
X006074Y004753D03*
X006074Y004757D03*
X006078Y004765D03*
X006078Y004768D03*
X006078Y004772D03*
X006082Y004784D03*
X006082Y004787D03*
X006082Y004791D03*
X006086Y004799D03*
X006086Y004803D03*
X006086Y004806D03*
X006089Y004814D03*
X006089Y004818D03*
X006089Y004822D03*
X006093Y004829D03*
X006093Y004833D03*
X006093Y004837D03*
X006097Y004844D03*
X006097Y004848D03*
X006097Y004852D03*
X006101Y004860D03*
X006101Y004863D03*
X006101Y004867D03*
X006105Y004875D03*
X006105Y004879D03*
X006105Y004882D03*
X006108Y004890D03*
X006108Y004894D03*
X006063Y004711D03*
X006063Y004708D03*
X007967Y004400D03*
X008073Y004837D03*
D107*
X008077Y004825D03*
X007970Y004404D03*
D108*
X007978Y004415D03*
X008077Y004818D03*
X008077Y004822D03*
X007340Y004407D03*
D109*
X007972Y004407D03*
X007976Y004411D03*
D110*
X007397Y004605D03*
X009525Y004419D03*
D111*
X008079Y004803D03*
X008079Y004806D03*
X007987Y004426D03*
D112*
X007989Y004430D03*
D113*
X009532Y004430D03*
D114*
X005985Y004434D03*
X005985Y004438D03*
D115*
X007991Y004434D03*
X007995Y004442D03*
X008079Y004791D03*
D116*
X008081Y004787D03*
X008081Y004784D03*
X008081Y004780D03*
X007997Y004445D03*
X007993Y004438D03*
D117*
X006766Y004449D03*
D118*
X007999Y004449D03*
D119*
X008001Y004453D03*
D120*
X008005Y004457D03*
X008081Y004765D03*
X008081Y004768D03*
X008081Y004772D03*
X008081Y004776D03*
D121*
X008079Y004761D03*
X008006Y004464D03*
X008006Y004461D03*
D122*
X009038Y004670D03*
X006800Y004468D03*
D123*
X007528Y004468D03*
X007528Y004472D03*
X007528Y004476D03*
X007531Y004487D03*
X007531Y004491D03*
X007531Y004495D03*
X007531Y004499D03*
X007531Y004502D03*
X007531Y004506D03*
X007531Y004510D03*
X007531Y004514D03*
D124*
X008008Y004468D03*
X008012Y004472D03*
D125*
X007049Y004472D03*
D126*
X008014Y004476D03*
X008014Y004480D03*
X008079Y004734D03*
X008079Y004738D03*
X008079Y004742D03*
X008079Y004746D03*
D127*
X008077Y004730D03*
X008077Y004727D03*
X008077Y004723D03*
X008020Y004491D03*
X008020Y004487D03*
X008016Y004483D03*
D128*
X008022Y004495D03*
X008022Y004499D03*
D129*
X008025Y004502D03*
D130*
X008027Y004506D03*
D131*
X008195Y004518D03*
D132*
X008212Y004533D03*
X008246Y004708D03*
D133*
X008998Y004556D03*
D134*
X007383Y004559D03*
D135*
X008065Y004860D03*
X009000Y004563D03*
X009000Y004559D03*
D136*
X009004Y004571D03*
X009004Y004575D03*
D137*
X006990Y004586D03*
D138*
X006992Y004590D03*
D139*
X006994Y004594D03*
X006998Y004597D03*
X006998Y004601D03*
D140*
X006999Y004605D03*
D141*
X007001Y004609D03*
X007005Y004613D03*
D142*
X007007Y004616D03*
D143*
X007009Y004620D03*
D144*
X009059Y004696D03*
X010047Y004620D03*
X010051Y004635D03*
X010055Y004651D03*
X010058Y004666D03*
X010062Y004681D03*
X010066Y004696D03*
X010070Y004711D03*
X010074Y004727D03*
X010074Y004730D03*
X010077Y004742D03*
X010077Y004746D03*
X010081Y004757D03*
X010081Y004761D03*
X010085Y004772D03*
X010085Y004776D03*
X010089Y004787D03*
X010089Y004791D03*
X010093Y004803D03*
X010093Y004806D03*
X010096Y004818D03*
X010096Y004822D03*
X010100Y004833D03*
X010100Y004837D03*
X010104Y004848D03*
X010104Y004852D03*
X010108Y004863D03*
X010108Y004867D03*
X010340Y004681D03*
X010340Y004677D03*
D145*
X010324Y004620D03*
D146*
X007015Y004628D03*
X007011Y004624D03*
D147*
X010326Y004624D03*
X010326Y004628D03*
X010330Y004635D03*
X010330Y004639D03*
D148*
X009021Y004628D03*
D149*
X010210Y004628D03*
X010214Y004643D03*
X010218Y004658D03*
X010222Y004673D03*
X010226Y004689D03*
X010229Y004704D03*
X010233Y004719D03*
X010237Y004734D03*
X010241Y004749D03*
X010245Y004765D03*
X010245Y004768D03*
X010248Y004780D03*
X010248Y004784D03*
X010252Y004795D03*
X010252Y004799D03*
X010256Y004810D03*
X010256Y004814D03*
X010260Y004825D03*
X010260Y004829D03*
X010264Y004841D03*
X010264Y004844D03*
X010336Y004662D03*
X010336Y004658D03*
X010446Y004632D03*
X010450Y004647D03*
X010454Y004662D03*
X010480Y004772D03*
X010484Y004787D03*
X010488Y004803D03*
X010492Y004818D03*
X010495Y004833D03*
X007068Y004681D03*
D150*
X007404Y004632D03*
D151*
X010328Y004632D03*
D152*
X007020Y004635D03*
D153*
X007406Y004635D03*
D154*
X009025Y004635D03*
D155*
X007406Y004639D03*
D156*
X007427Y004685D03*
X010053Y004647D03*
X010053Y004643D03*
X010053Y004639D03*
X010064Y004685D03*
X010064Y004689D03*
X010064Y004692D03*
X010076Y004734D03*
X010076Y004738D03*
X010087Y004780D03*
X010087Y004784D03*
X010095Y004810D03*
X010095Y004814D03*
X010098Y004825D03*
X010098Y004829D03*
X010106Y004856D03*
X010106Y004860D03*
X010338Y004673D03*
X010338Y004670D03*
X010338Y004666D03*
D157*
X007408Y004643D03*
D158*
X010332Y004643D03*
X010332Y004647D03*
D159*
X007030Y004647D03*
D160*
X007408Y004647D03*
D161*
X007032Y004651D03*
X010296Y004852D03*
X010296Y004856D03*
X010296Y004860D03*
X010471Y004852D03*
X010471Y004848D03*
X010475Y004863D03*
D162*
X009031Y004651D03*
D163*
X010473Y004856D03*
X010473Y004860D03*
X010480Y004879D03*
X007034Y004654D03*
D164*
X007039Y004658D03*
X010300Y004879D03*
X010300Y004882D03*
X010300Y004886D03*
X010300Y004890D03*
X010304Y004894D03*
X010304Y004898D03*
X010304Y004901D03*
X010304Y004905D03*
X010478Y004875D03*
X010482Y004882D03*
X010482Y004886D03*
X010486Y004894D03*
X010486Y004898D03*
D165*
X010494Y004917D03*
X010494Y004920D03*
X010497Y004924D03*
X010497Y004928D03*
X010497Y004932D03*
X010501Y004939D03*
X010307Y004936D03*
X010307Y004932D03*
X010307Y004928D03*
X010307Y004924D03*
X007043Y004662D03*
D166*
X009032Y004662D03*
D167*
X010309Y004939D03*
X010309Y004943D03*
X010309Y004947D03*
X010359Y004753D03*
X010499Y004936D03*
X007045Y004666D03*
D168*
X009034Y004666D03*
D169*
X010355Y004734D03*
X010355Y004738D03*
X010355Y004742D03*
X007049Y004670D03*
D170*
X007056Y004673D03*
X010351Y004719D03*
X010351Y004723D03*
D171*
X010342Y004689D03*
X010342Y004685D03*
X007062Y004677D03*
D172*
X009040Y004677D03*
D173*
X009040Y004681D03*
D174*
X010328Y004757D03*
X010328Y004761D03*
X010328Y004765D03*
X010328Y004768D03*
X010332Y004772D03*
X010332Y004776D03*
X010332Y004780D03*
X010332Y004784D03*
X010332Y004787D03*
X010332Y004791D03*
X010332Y004795D03*
X010332Y004799D03*
X010332Y004803D03*
X010332Y004806D03*
X010332Y004810D03*
X010332Y004814D03*
X010332Y004818D03*
X010332Y004822D03*
X010332Y004825D03*
X010332Y004829D03*
X010336Y004837D03*
X010336Y004841D03*
X010336Y004844D03*
X010336Y004848D03*
X010412Y004810D03*
X010412Y004806D03*
X010408Y004799D03*
X010408Y004795D03*
X010404Y004791D03*
X010404Y004787D03*
X010400Y004784D03*
X010400Y004780D03*
X010397Y004776D03*
X010397Y004772D03*
X010393Y004765D03*
X010393Y004761D03*
X010389Y004757D03*
X010416Y004814D03*
X010416Y004818D03*
X010419Y004822D03*
X010419Y004825D03*
X010423Y004833D03*
X010427Y004841D03*
X010427Y004844D03*
X007079Y004685D03*
D175*
X009051Y004692D03*
D176*
X010343Y004692D03*
X010343Y004696D03*
D177*
X010345Y004700D03*
X010349Y004711D03*
X010349Y004715D03*
D178*
X010347Y004708D03*
X010347Y004704D03*
D179*
X010353Y004727D03*
X010353Y004730D03*
D180*
X006103Y004871D03*
X006099Y004856D03*
X006091Y004825D03*
X006087Y004810D03*
X006080Y004780D03*
X006080Y004776D03*
X006072Y004746D03*
X006068Y004730D03*
D181*
X010357Y004746D03*
X010357Y004749D03*
D182*
X008081Y004749D03*
X008081Y004753D03*
X008081Y004757D03*
D183*
X010395Y004768D03*
X010410Y004803D03*
X010421Y004829D03*
X010425Y004837D03*
D184*
X008081Y004799D03*
X008081Y004795D03*
D185*
X008075Y004829D03*
X008075Y004833D03*
D186*
X010334Y004833D03*
D187*
X008069Y004848D03*
D188*
X010298Y004863D03*
X010298Y004867D03*
X010298Y004871D03*
X010298Y004875D03*
X010476Y004871D03*
X010476Y004867D03*
D189*
X010484Y004890D03*
X010488Y004901D03*
X010488Y004905D03*
X010492Y004909D03*
X010492Y004913D03*
X010305Y004913D03*
X010305Y004917D03*
X010305Y004920D03*
X010305Y004909D03*
D190*
X008016Y004894D03*
D191*
X010503Y004943D03*
X010503Y004947D03*
D192*
X001129Y008581D03*
X000849Y008581D03*
X000704Y008539D03*
D193*
X001275Y008539D03*
X001275Y009284D03*
X000703Y009284D03*
D194*
X000848Y008584D03*
X000703Y008541D03*
X001275Y008541D03*
D195*
X001274Y008544D03*
X000704Y008544D03*
X000704Y009279D03*
X001274Y009279D03*
D196*
X001274Y008546D03*
X000704Y008546D03*
D197*
X000705Y008549D03*
X000705Y009274D03*
X001273Y009274D03*
D198*
X001136Y008591D03*
X001274Y008549D03*
X000841Y008591D03*
D199*
X000705Y008551D03*
X001273Y008551D03*
D200*
X000836Y008599D03*
X000706Y008554D03*
X000706Y009269D03*
X001271Y009269D03*
D201*
X000838Y008596D03*
X001273Y008554D03*
D202*
X001271Y008556D03*
X001144Y008601D03*
X000706Y008556D03*
D203*
X000706Y008559D03*
X001271Y008559D03*
D204*
X001270Y008561D03*
X000708Y008561D03*
X000708Y009261D03*
X001270Y009261D03*
D205*
X001270Y008564D03*
X000708Y008564D03*
D206*
X000709Y008566D03*
X001269Y008566D03*
X001269Y009256D03*
X000709Y009256D03*
D207*
X000709Y008569D03*
X001269Y008569D03*
D208*
X001268Y008571D03*
X000710Y008571D03*
X000710Y009251D03*
X001268Y009251D03*
D209*
X000711Y008574D03*
D210*
X001268Y008574D03*
D211*
X001268Y008576D03*
X000713Y008576D03*
D212*
X000713Y008579D03*
D213*
X001266Y008579D03*
D214*
X000713Y008581D03*
X000713Y009244D03*
X001265Y009244D03*
D215*
X001266Y008581D03*
D216*
X000714Y008584D03*
D217*
X001131Y008584D03*
D218*
X001265Y008584D03*
X001265Y009239D03*
D219*
X000714Y009239D03*
X000714Y008586D03*
D220*
X000845Y008586D03*
X001133Y008586D03*
D221*
X001265Y008586D03*
X000990Y009379D03*
D222*
X000989Y009374D03*
X000989Y009371D03*
X000989Y009369D03*
X000989Y009366D03*
X000989Y009364D03*
X001264Y008589D03*
X000714Y008589D03*
D223*
X000843Y008589D03*
X001135Y008589D03*
D224*
X001264Y008591D03*
X000714Y008591D03*
X000989Y009349D03*
X000989Y009351D03*
X000989Y009354D03*
X000989Y009356D03*
X000989Y009359D03*
D225*
X000990Y009334D03*
X001263Y009229D03*
X001263Y008594D03*
X000715Y008594D03*
D226*
X000839Y008594D03*
X001139Y008594D03*
D227*
X000716Y008596D03*
X000716Y009229D03*
X000989Y009321D03*
X000989Y009324D03*
X000989Y009326D03*
X000989Y009329D03*
X000989Y009331D03*
D228*
X001271Y009271D03*
X000706Y009271D03*
X001141Y008596D03*
D229*
X001263Y008596D03*
X000990Y009319D03*
D230*
X000989Y009304D03*
X000989Y009301D03*
X000989Y009299D03*
X001261Y009224D03*
X001261Y008599D03*
X000716Y008599D03*
X000716Y009224D03*
D231*
X001143Y008599D03*
D232*
X000718Y008601D03*
X000718Y009221D03*
X000990Y009281D03*
X001260Y009221D03*
D233*
X001270Y009266D03*
X000708Y009266D03*
X000835Y008601D03*
D234*
X001261Y008601D03*
X000989Y009284D03*
X000989Y009286D03*
X000989Y009289D03*
D235*
X001230Y008604D03*
X000748Y008604D03*
D236*
X000746Y008606D03*
X000791Y008716D03*
X000794Y008721D03*
X000796Y008724D03*
X000796Y008726D03*
X001181Y008726D03*
X001181Y008724D03*
X001184Y008721D03*
X001181Y008729D03*
X001231Y008606D03*
D237*
X001231Y008609D03*
X001196Y008699D03*
X001194Y008701D03*
X001194Y008704D03*
X001191Y008706D03*
X001189Y008711D03*
X001181Y008734D03*
X000796Y008734D03*
X000789Y008711D03*
X000786Y008706D03*
X000784Y008701D03*
X000781Y008696D03*
X000746Y008609D03*
X000989Y009239D03*
D238*
X001180Y008739D03*
X001180Y008736D03*
X001198Y008696D03*
X001200Y008691D03*
X001233Y008611D03*
X000798Y008736D03*
X000783Y008699D03*
X000780Y008694D03*
X000745Y008611D03*
D239*
X000745Y008614D03*
X000768Y008671D03*
X000770Y008676D03*
X000773Y008681D03*
X000798Y008741D03*
X000798Y008744D03*
X001180Y008744D03*
X001208Y008676D03*
X001210Y008674D03*
X001213Y008669D03*
X001210Y009001D03*
D240*
X001181Y008741D03*
X001199Y008694D03*
X001201Y008689D03*
X001204Y008686D03*
X001204Y008684D03*
X001206Y008681D03*
X001206Y008679D03*
X001234Y008614D03*
X000796Y008739D03*
X000779Y008691D03*
X000776Y008689D03*
X000776Y008686D03*
X000774Y008684D03*
X000771Y008679D03*
D241*
X000769Y008674D03*
X000766Y008669D03*
X000764Y008666D03*
X000764Y008664D03*
X000744Y008616D03*
X000766Y008824D03*
X000766Y008999D03*
X000769Y009001D03*
X000771Y009004D03*
X001181Y008746D03*
X001209Y008819D03*
X001211Y008821D03*
X001211Y008824D03*
X001211Y008671D03*
X001214Y008666D03*
X001216Y008661D03*
X001234Y008616D03*
X001211Y008999D03*
X001209Y009004D03*
X001206Y009006D03*
X001204Y009009D03*
D242*
X001203Y009011D03*
X001215Y008826D03*
X001208Y008816D03*
X001180Y008751D03*
X001180Y008749D03*
X001215Y008664D03*
X001218Y008659D03*
X001220Y008656D03*
X001220Y008654D03*
X001223Y008651D03*
X001235Y008619D03*
X000798Y008746D03*
X000798Y008749D03*
X000770Y008819D03*
X000768Y008821D03*
X000763Y008826D03*
X000763Y008661D03*
X000760Y008659D03*
X000758Y008654D03*
X000743Y008619D03*
X000773Y009006D03*
X000775Y009009D03*
X000990Y009236D03*
D243*
X001198Y009016D03*
X001200Y009014D03*
X001220Y008829D03*
X001205Y008814D03*
X001203Y008811D03*
X001180Y008756D03*
X001180Y008754D03*
X001228Y008641D03*
X001230Y008636D03*
X001235Y008624D03*
X001235Y008621D03*
X000798Y008754D03*
X000798Y008756D03*
X000775Y008811D03*
X000758Y008829D03*
X000750Y008641D03*
X000750Y008639D03*
X000748Y008636D03*
X000743Y008624D03*
X000743Y008621D03*
X000778Y009014D03*
X000780Y009016D03*
D244*
X000781Y009019D03*
X000776Y008809D03*
X000779Y008806D03*
X000746Y008634D03*
X000744Y008631D03*
X000744Y008629D03*
X000741Y008626D03*
X001181Y008759D03*
X001199Y008806D03*
X001201Y008809D03*
X001229Y008639D03*
X001231Y008634D03*
X001234Y008631D03*
X001234Y008629D03*
X001234Y008626D03*
X001196Y009019D03*
D245*
X001216Y008996D03*
X001224Y008649D03*
X001224Y008646D03*
X001226Y008644D03*
X000796Y008751D03*
X000774Y008814D03*
X000771Y008816D03*
X000759Y008656D03*
X000756Y008651D03*
X000754Y008649D03*
X000754Y008646D03*
X000751Y008644D03*
X000761Y008996D03*
X000776Y009011D03*
D246*
X000798Y008731D03*
X000798Y008729D03*
X000793Y008719D03*
X000790Y008714D03*
X000788Y008709D03*
X000785Y008704D03*
X001180Y008731D03*
X001185Y008719D03*
X001185Y008716D03*
X001188Y008714D03*
X001190Y008709D03*
D247*
X001180Y008761D03*
X001198Y008804D03*
X001193Y009021D03*
X000785Y009021D03*
X000780Y008804D03*
X000798Y008764D03*
X000798Y008761D03*
X000798Y008759D03*
D248*
X000784Y008801D03*
X000754Y008994D03*
X000989Y009234D03*
X001191Y009024D03*
X001224Y008994D03*
X001194Y008801D03*
X001181Y008764D03*
D249*
X001180Y008766D03*
X001180Y008769D03*
X001193Y008799D03*
X000798Y008769D03*
X000798Y008766D03*
X000785Y008799D03*
X000750Y008831D03*
X000788Y009024D03*
X000790Y009026D03*
D250*
X000786Y008796D03*
X000799Y008771D03*
X001191Y008796D03*
X001229Y008831D03*
X001189Y009026D03*
X001186Y009029D03*
D251*
X001188Y008794D03*
X001180Y008774D03*
X001180Y008771D03*
X000798Y008774D03*
X000798Y008776D03*
X000790Y008794D03*
X000793Y009029D03*
D252*
X000796Y009031D03*
X000746Y008991D03*
X000791Y008791D03*
X001181Y008776D03*
X001186Y008791D03*
X001231Y008991D03*
X001184Y009031D03*
X000989Y009231D03*
D253*
X001180Y009034D03*
X001180Y008779D03*
X000798Y008779D03*
X000798Y008781D03*
X000795Y008789D03*
D254*
X000796Y008786D03*
X000796Y008784D03*
X000799Y009034D03*
X001181Y008786D03*
X001181Y008784D03*
X001181Y008781D03*
X001184Y008789D03*
D255*
X001238Y008834D03*
X000743Y008834D03*
D256*
X000734Y008836D03*
X001244Y008836D03*
D257*
X001253Y008839D03*
X000725Y008839D03*
D258*
X000720Y008841D03*
D259*
X001259Y008841D03*
D260*
X000713Y008844D03*
D261*
X001266Y008844D03*
D262*
X001274Y008846D03*
X001289Y008884D03*
X001289Y008886D03*
X001289Y008889D03*
X001289Y008891D03*
X001289Y008894D03*
X001289Y008896D03*
X001289Y008899D03*
X001289Y008901D03*
X001289Y008924D03*
X001289Y008926D03*
X001289Y008929D03*
X001289Y008931D03*
X001289Y008934D03*
X001289Y008936D03*
X001289Y008939D03*
X000704Y008846D03*
X000689Y008889D03*
X000689Y008891D03*
X000689Y008894D03*
X000689Y008896D03*
X000689Y008899D03*
X000689Y008901D03*
X000689Y008904D03*
X000689Y008906D03*
X000689Y008909D03*
X000689Y008911D03*
X000689Y008914D03*
X000689Y008916D03*
X000689Y008919D03*
X000689Y008921D03*
X000689Y008924D03*
X000689Y008926D03*
X000689Y008929D03*
X000689Y008931D03*
X000689Y008934D03*
D263*
X000695Y008969D03*
X000695Y008971D03*
X000695Y008854D03*
X000695Y008851D03*
X000698Y008849D03*
X001280Y008849D03*
X001283Y008851D03*
X001283Y008854D03*
X001283Y008969D03*
X001283Y008971D03*
X001280Y008974D03*
D264*
X001284Y008966D03*
X001284Y008964D03*
X001284Y008859D03*
X001284Y008856D03*
X000989Y009216D03*
X000694Y008966D03*
X000694Y008964D03*
X000694Y008961D03*
X000694Y008859D03*
X000694Y008856D03*
D265*
X000693Y008861D03*
X000693Y008864D03*
X000693Y008866D03*
X000693Y008869D03*
X000693Y008954D03*
X000693Y008956D03*
X000693Y008959D03*
X000700Y008976D03*
X001278Y008976D03*
X001285Y008961D03*
X001285Y008959D03*
X001285Y008956D03*
X001285Y008866D03*
X001285Y008864D03*
X001285Y008861D03*
D266*
X001286Y008869D03*
X001286Y008871D03*
X001286Y008874D03*
X001286Y008949D03*
X001286Y008951D03*
X001286Y008954D03*
X000691Y008951D03*
X000691Y008949D03*
X000691Y008946D03*
X000691Y008876D03*
X000691Y008874D03*
X000691Y008871D03*
D267*
X000690Y008879D03*
X000690Y008881D03*
X000690Y008884D03*
X000690Y008886D03*
X000690Y008936D03*
X000690Y008939D03*
X000690Y008941D03*
X000690Y008944D03*
X001288Y008944D03*
X001288Y008946D03*
X001288Y008941D03*
X001288Y008881D03*
X001288Y008879D03*
X001288Y008876D03*
D268*
X001290Y008904D03*
X001290Y008906D03*
X001290Y008909D03*
X001290Y008911D03*
X001290Y008914D03*
X001290Y008916D03*
X001290Y008919D03*
X001290Y008921D03*
D269*
X000696Y008974D03*
D270*
X000709Y008979D03*
X000989Y009219D03*
X001269Y008979D03*
D271*
X001263Y008981D03*
X000718Y008981D03*
D272*
X000724Y008984D03*
X000989Y009224D03*
X001254Y008984D03*
D273*
X001246Y008986D03*
X000989Y009226D03*
X000811Y009041D03*
X000731Y008986D03*
D274*
X000739Y008989D03*
X000806Y009039D03*
D275*
X000990Y009229D03*
X001240Y008989D03*
D276*
X001176Y009036D03*
X000801Y009036D03*
D277*
X001173Y009039D03*
D278*
X001168Y009041D03*
D279*
X001160Y009044D03*
X000820Y009044D03*
D280*
X000989Y009046D03*
X000989Y009121D03*
D281*
X000990Y009049D03*
D282*
X000989Y009051D03*
X000989Y009054D03*
X000989Y009116D03*
X000989Y009119D03*
D283*
X000989Y009114D03*
X000989Y009059D03*
X000989Y009056D03*
D284*
X000988Y009061D03*
D285*
X000989Y009064D03*
X000989Y009066D03*
X000989Y009109D03*
X000989Y009111D03*
D286*
X000989Y009106D03*
X000989Y009071D03*
X000989Y009069D03*
D287*
X000989Y009074D03*
X000989Y009076D03*
X000989Y009104D03*
D288*
X000990Y009101D03*
X000990Y009079D03*
D289*
X000989Y009081D03*
X000989Y009084D03*
X000989Y009099D03*
D290*
X000989Y009096D03*
X000989Y009094D03*
X000989Y009091D03*
X000989Y009089D03*
X000989Y009086D03*
D291*
X000990Y009124D03*
D292*
X000990Y009126D03*
D293*
X000989Y009129D03*
D294*
X000989Y009131D03*
D295*
X000990Y009134D03*
D296*
X000989Y009136D03*
D297*
X000989Y009139D03*
D298*
X000990Y009141D03*
D299*
X000989Y009144D03*
D300*
X000989Y009146D03*
D301*
X000990Y009149D03*
D302*
X000989Y009151D03*
D303*
X000989Y009154D03*
D304*
X000990Y009156D03*
D305*
X000989Y009159D03*
D306*
X000989Y009161D03*
D307*
X000989Y009164D03*
X000989Y009166D03*
D308*
X000989Y009169D03*
D309*
X000989Y009171D03*
X000989Y009174D03*
D310*
X000989Y009176D03*
X000989Y009214D03*
D311*
X000989Y009211D03*
X000989Y009179D03*
D312*
X000990Y009181D03*
D313*
X000989Y009184D03*
X000989Y009209D03*
D314*
X000989Y009206D03*
X000989Y009186D03*
D315*
X000990Y009189D03*
D316*
X000989Y009191D03*
X000989Y009204D03*
D317*
X000989Y009201D03*
X000989Y009196D03*
X000989Y009194D03*
D318*
X000988Y009199D03*
D319*
X000989Y009254D03*
X001259Y009216D03*
X000719Y009216D03*
D320*
X000718Y009219D03*
X000990Y009266D03*
X000990Y009269D03*
X001260Y009219D03*
D321*
X000989Y009221D03*
D322*
X000989Y009309D03*
X000989Y009311D03*
X000989Y009314D03*
X000989Y009316D03*
X001261Y009226D03*
X000716Y009226D03*
D323*
X000715Y009231D03*
X001263Y009231D03*
D324*
X001263Y009234D03*
X000988Y009361D03*
X000715Y009234D03*
D325*
X000714Y009236D03*
X000989Y009376D03*
X001264Y009236D03*
D326*
X001265Y009241D03*
X000713Y009241D03*
D327*
X000989Y009241D03*
D328*
X000989Y009244D03*
D329*
X001266Y009246D03*
X000711Y009246D03*
D330*
X000989Y009246D03*
D331*
X001266Y009249D03*
X000711Y009249D03*
D332*
X000989Y009249D03*
D333*
X000989Y009251D03*
D334*
X001268Y009254D03*
X000710Y009254D03*
D335*
X000989Y009256D03*
X000989Y009259D03*
X000989Y009261D03*
X000989Y009264D03*
D336*
X001269Y009259D03*
X000709Y009259D03*
D337*
X000708Y009264D03*
X001270Y009264D03*
D338*
X000989Y009271D03*
X000989Y009274D03*
X000989Y009276D03*
X000989Y009279D03*
D339*
X001273Y009276D03*
X000705Y009276D03*
D340*
X000704Y009281D03*
X001274Y009281D03*
D341*
X000990Y009291D03*
X000990Y009294D03*
X000990Y009296D03*
D342*
X000990Y009306D03*
D343*
X000989Y009336D03*
X000989Y009339D03*
X000989Y009341D03*
X000989Y009344D03*
X000989Y009346D03*
M02*
