G75*
%MOIN*%
%OFA0B0*%
%FSLAX24Y24*%
%IPPOS*%
%LPD*%
%AMOC8*
5,1,8,0,0,1.08239X$1,22.5*
%
%ADD10C,0.0000*%
%ADD11C,0.0040*%
%ADD12R,0.0500X0.1654*%
%ADD13R,0.0630X0.1181*%
%ADD14R,0.1900X0.2250*%
%ADD15R,0.1102X0.0394*%
%ADD16R,0.0098X0.0610*%
%ADD17R,0.2039X0.1220*%
%ADD18C,0.0258*%
%ADD19R,0.0472X0.0315*%
%ADD20R,0.0315X0.0472*%
%ADD21C,0.0394*%
%ADD22R,0.0709X0.0709*%
%ADD23C,0.0709*%
%ADD24C,0.0394*%
%ADD25C,0.0118*%
%ADD26C,0.0200*%
%ADD27C,0.0197*%
%ADD28C,0.0295*%
%ADD29C,0.0237*%
%ADD30C,0.0787*%
%ADD31C,0.0295*%
%ADD32C,0.0157*%
D10*
X001591Y000198D02*
X001591Y002167D01*
X000343Y002167D01*
X000343Y013269D01*
X011839Y013269D01*
X011839Y002167D01*
X010591Y002167D01*
X010591Y000198D01*
X001591Y000198D01*
D11*
X010854Y008014D02*
X010854Y008184D01*
X010854Y008099D02*
X011110Y008099D01*
X011067Y008286D02*
X011110Y008328D01*
X011110Y008413D01*
X011067Y008456D01*
X010897Y008456D01*
X010854Y008413D01*
X010854Y008328D01*
X010897Y008286D01*
X011067Y008286D01*
X011327Y008371D02*
X011412Y008456D01*
X011582Y008456D01*
X011455Y008456D02*
X011455Y008286D01*
X011412Y008286D02*
X011327Y008371D01*
X011412Y008286D02*
X011582Y008286D01*
X011582Y008184D02*
X011582Y008014D01*
X011327Y008014D01*
X011327Y008557D02*
X011369Y008557D01*
X011455Y008643D01*
X011582Y008643D01*
X011455Y008643D02*
X011369Y008728D01*
X011327Y008728D01*
X011327Y008829D02*
X011582Y008829D01*
X011582Y009000D01*
X011582Y009101D02*
X011327Y009101D01*
X011327Y009229D01*
X011369Y009272D01*
X011455Y009272D01*
X011497Y009229D01*
X011497Y009101D01*
X011497Y009186D02*
X011582Y009272D01*
X011327Y009000D02*
X011327Y008829D01*
X011455Y008829D02*
X011455Y008915D01*
X011110Y008557D02*
X010854Y008557D01*
X010854Y008685D01*
X010897Y008728D01*
X010982Y008728D01*
X011025Y008685D01*
X011025Y008557D01*
D12*
X009591Y001372D03*
X008591Y001372D03*
X007591Y001372D03*
X006591Y001372D03*
X005591Y001372D03*
X004591Y001372D03*
X003591Y001372D03*
X002591Y001372D03*
D13*
X002437Y006163D03*
X004232Y006163D03*
D14*
X003335Y008879D03*
D15*
X003083Y003608D03*
X004933Y003608D03*
D16*
X005820Y006261D03*
X006080Y006261D03*
X006340Y006261D03*
X006600Y006261D03*
X006860Y006261D03*
X007120Y006261D03*
X007380Y006261D03*
X007640Y006261D03*
X007900Y006261D03*
X008160Y006261D03*
X008420Y006261D03*
X008680Y006261D03*
X008940Y006261D03*
X009200Y006261D03*
X009200Y008466D03*
X008940Y008466D03*
X008680Y008466D03*
X008420Y008466D03*
X008160Y008466D03*
X007900Y008466D03*
X007640Y008466D03*
X007380Y008466D03*
X007120Y008466D03*
X006860Y008466D03*
X006600Y008466D03*
X006340Y008466D03*
X006080Y008466D03*
X005820Y008466D03*
D17*
X007510Y007364D03*
D18*
X007508Y007364D03*
X007508Y007876D03*
X008020Y007876D03*
X008020Y007364D03*
X008020Y006852D03*
X007508Y006852D03*
X006996Y006852D03*
X006996Y007364D03*
X006996Y007876D03*
X006484Y007876D03*
X006484Y007364D03*
X006484Y006852D03*
X005972Y006852D03*
X005972Y007364D03*
X005972Y007876D03*
X008531Y007876D03*
X008531Y007364D03*
X008531Y006852D03*
X009043Y006852D03*
X009043Y007364D03*
X009043Y007876D03*
D19*
X009791Y008033D03*
X009791Y007482D03*
X009791Y006773D03*
X009791Y008742D03*
X005185Y006025D03*
X005185Y005317D03*
X002311Y004962D03*
X002311Y004254D03*
D20*
X004870Y009805D03*
X005579Y009805D03*
X006327Y009844D03*
X007035Y009844D03*
X007980Y009844D03*
X008689Y009844D03*
X009319Y009450D03*
X010028Y009450D03*
D21*
X009634Y006183D03*
X010028Y003033D03*
X005224Y008387D03*
X000972Y012561D03*
D22*
X010913Y011773D03*
D23*
X009535Y011773D03*
X008157Y011773D03*
X006780Y011773D03*
X005402Y011773D03*
X004024Y011773D03*
X002646Y011773D03*
X001268Y011773D03*
D24*
X004933Y003608D02*
X004933Y003057D01*
X004591Y002714D01*
X004591Y001372D01*
X004673Y001375D02*
X005618Y001375D01*
X005618Y000983D02*
X004673Y000983D01*
X004673Y000671D02*
X004673Y001931D01*
X005618Y001931D01*
X005618Y000671D01*
X004673Y000671D01*
X004673Y001767D02*
X005618Y001767D01*
D25*
X006018Y001714D02*
X006163Y001714D01*
X006163Y001598D02*
X006018Y001598D01*
X006018Y001481D02*
X006163Y001481D01*
X006163Y001365D02*
X006018Y001365D01*
X006018Y001248D02*
X006163Y001248D01*
X006163Y001131D02*
X006018Y001131D01*
X006018Y001015D02*
X006163Y001015D01*
X006163Y000898D02*
X006018Y000898D01*
X006018Y000781D02*
X006163Y000781D01*
X006163Y000665D02*
X006018Y000665D01*
X006018Y000548D02*
X006163Y000548D01*
X006163Y000471D02*
X006259Y000376D01*
X005922Y000376D01*
X006018Y000471D01*
X006018Y002272D01*
X005914Y002376D01*
X005267Y002376D01*
X005196Y002305D01*
X004985Y002305D01*
X004965Y002325D01*
X004965Y002559D01*
X005145Y002740D01*
X005250Y002845D01*
X005307Y002982D01*
X005307Y003234D01*
X005558Y003234D01*
X005661Y003338D01*
X005661Y003878D01*
X005558Y003982D01*
X004309Y003982D01*
X004205Y003878D01*
X004205Y003771D01*
X004177Y003783D01*
X004067Y003783D01*
X003965Y003741D01*
X003887Y003663D01*
X003845Y003561D01*
X003845Y003450D01*
X003887Y003348D01*
X003965Y003271D01*
X004067Y003228D01*
X004177Y003228D01*
X004274Y003268D01*
X004309Y003234D01*
X004559Y003234D01*
X004559Y003212D01*
X004273Y002926D01*
X004217Y002789D01*
X004217Y002325D01*
X004163Y002272D01*
X004163Y000471D01*
X004259Y000376D01*
X001768Y000376D01*
X001768Y002240D01*
X001720Y002288D01*
X001720Y010435D01*
X000520Y010435D01*
X000520Y013092D01*
X011661Y013092D01*
X011661Y010435D01*
X010500Y010435D01*
X010500Y002327D01*
X010413Y002240D01*
X010413Y000376D01*
X009922Y000376D01*
X010018Y000471D01*
X010018Y002272D01*
X009914Y002376D01*
X009827Y002376D01*
X009827Y002623D01*
X009688Y002761D01*
X009338Y003112D01*
X008090Y003112D01*
X008100Y003135D01*
X008100Y003246D01*
X008058Y003348D01*
X007980Y003426D01*
X007881Y003467D01*
X007876Y003471D01*
X007876Y005453D01*
X007925Y005433D01*
X008035Y005433D01*
X008137Y005475D01*
X008194Y005532D01*
X008218Y005474D01*
X008296Y005396D01*
X008398Y005354D01*
X008508Y005354D01*
X008610Y005396D01*
X008688Y005474D01*
X008712Y005532D01*
X008768Y005475D01*
X008870Y005433D01*
X008980Y005433D01*
X009082Y005475D01*
X009160Y005553D01*
X009202Y005655D01*
X009202Y005765D01*
X009189Y005797D01*
X009200Y005797D01*
X009270Y005797D01*
X009311Y005808D01*
X009347Y005829D01*
X009376Y005859D01*
X009396Y005892D01*
X009422Y005866D01*
X009559Y005809D01*
X009708Y005809D01*
X009846Y005866D01*
X009951Y005971D01*
X010008Y006108D01*
X010008Y006257D01*
X009951Y006395D01*
X009889Y006457D01*
X010048Y006457D01*
X010089Y006468D01*
X010125Y006488D01*
X010155Y006518D01*
X010176Y006554D01*
X010187Y006595D01*
X010187Y006754D01*
X009811Y006754D01*
X009811Y006793D01*
X010187Y006793D01*
X010187Y006952D01*
X010176Y006992D01*
X010155Y007028D01*
X010125Y007058D01*
X010089Y007079D01*
X010062Y007086D01*
X010087Y007147D01*
X010101Y007147D01*
X010205Y007251D01*
X010205Y007713D01*
X010160Y007757D01*
X010205Y007802D01*
X010205Y008264D01*
X010101Y008368D01*
X009632Y008368D01*
X009593Y008407D01*
X010101Y008407D01*
X010205Y008511D01*
X010205Y008973D01*
X010140Y009037D01*
X010258Y009037D01*
X010362Y009141D01*
X010362Y009760D01*
X010303Y009819D01*
X010303Y009936D01*
X010352Y010055D01*
X010352Y010184D01*
X010303Y010304D01*
X010212Y010395D01*
X010092Y010444D01*
X009963Y010444D01*
X009844Y010395D01*
X009817Y010369D01*
X009790Y010434D01*
X009753Y010471D01*
X011407Y011065D01*
X011464Y011065D01*
X011496Y011096D01*
X011538Y011112D01*
X011562Y011163D01*
X011602Y011203D01*
X011602Y011248D01*
X011622Y011289D01*
X011602Y011342D01*
X011602Y012344D01*
X011464Y012482D01*
X010402Y012482D01*
X010264Y012344D01*
X010264Y011895D01*
X010264Y011895D01*
X010264Y012344D01*
X010125Y012482D01*
X009321Y012482D01*
X009307Y012493D01*
X009225Y012482D01*
X009142Y012482D01*
X009130Y012470D01*
X009113Y012467D01*
X009062Y012402D01*
X009004Y012344D01*
X009004Y012326D01*
X008768Y012019D01*
X008768Y012344D01*
X008629Y012482D01*
X007600Y012482D01*
X007516Y012492D01*
X007504Y012482D01*
X007489Y012482D01*
X007432Y012425D01*
X007398Y012468D01*
X007381Y012470D01*
X007369Y012482D01*
X007286Y012482D01*
X007204Y012492D01*
X007191Y012482D01*
X006150Y012482D01*
X006012Y012344D01*
X006012Y011357D01*
X005993Y011319D01*
X006012Y011262D01*
X006012Y011203D01*
X006042Y011173D01*
X006353Y010239D01*
X006346Y010239D01*
X006346Y009864D01*
X006307Y009864D01*
X006307Y010239D01*
X006148Y010239D01*
X006108Y010229D01*
X006072Y010208D01*
X006042Y010178D01*
X006021Y010142D01*
X006010Y010101D01*
X006010Y009864D01*
X006307Y009864D01*
X006307Y009824D01*
X006010Y009824D01*
X006010Y009641D01*
X005913Y009577D01*
X005913Y010114D01*
X005854Y010173D01*
X005854Y010529D01*
X005812Y010630D01*
X005706Y010736D01*
X005657Y010855D01*
X005566Y010946D01*
X005446Y010996D01*
X005317Y010996D01*
X005198Y010946D01*
X005107Y010855D01*
X005057Y010735D01*
X005057Y010606D01*
X005107Y010487D01*
X005198Y010396D01*
X005303Y010352D01*
X005303Y010173D01*
X005244Y010114D01*
X005244Y009495D01*
X005348Y009391D01*
X005660Y009391D01*
X005647Y009386D01*
X005564Y009303D01*
X005519Y009194D01*
X005519Y009077D01*
X005564Y008968D01*
X005647Y008885D01*
X005656Y008881D01*
X005643Y008869D01*
X005622Y008833D01*
X005612Y008792D01*
X005612Y008466D01*
X005612Y008140D01*
X005622Y008100D01*
X005643Y008063D01*
X005673Y008034D01*
X005709Y008013D01*
X005717Y008011D01*
X005696Y007960D01*
X005684Y007904D01*
X005684Y007876D01*
X005972Y007876D01*
X005972Y007876D01*
X005684Y007876D01*
X005684Y007847D01*
X005696Y007792D01*
X005717Y007739D01*
X005749Y007692D01*
X005789Y007652D01*
X005836Y007620D01*
X005838Y007620D01*
X005836Y007619D01*
X005789Y007587D01*
X005749Y007547D01*
X005717Y007500D01*
X005696Y007448D01*
X005684Y007392D01*
X005684Y007364D01*
X005972Y007364D01*
X005972Y007364D01*
X005972Y007876D01*
X005820Y008028D01*
X005820Y008466D01*
X005612Y008466D01*
X005820Y008466D01*
X005820Y008466D01*
X005612Y008478D02*
X005592Y008478D01*
X005598Y008462D02*
X005541Y008599D01*
X005436Y008704D01*
X005299Y008761D01*
X005150Y008761D01*
X005013Y008704D01*
X004907Y008599D01*
X004850Y008462D01*
X004850Y008313D01*
X004907Y008176D01*
X005013Y008070D01*
X005150Y008013D01*
X005299Y008013D01*
X005436Y008070D01*
X005541Y008176D01*
X005598Y008313D01*
X005598Y008462D01*
X005598Y008361D02*
X005612Y008361D01*
X005612Y008245D02*
X005570Y008245D01*
X005615Y008128D02*
X005494Y008128D01*
X005618Y007994D02*
X005947Y007994D01*
X005957Y007984D01*
X006203Y007984D01*
X006210Y007991D01*
X006217Y007984D01*
X006463Y007984D01*
X006470Y007991D01*
X006477Y007984D01*
X006723Y007984D01*
X006730Y007991D01*
X006737Y007984D01*
X006983Y007984D01*
X006990Y007991D01*
X006997Y007984D01*
X007243Y007984D01*
X007250Y007991D01*
X007257Y007984D01*
X007503Y007984D01*
X007510Y007991D01*
X007517Y007984D01*
X007763Y007984D01*
X007770Y007991D01*
X007777Y007984D01*
X008023Y007984D01*
X008030Y007991D01*
X008037Y007984D01*
X008283Y007984D01*
X008290Y007991D01*
X008297Y007984D01*
X008543Y007984D01*
X008550Y007991D01*
X008557Y007984D01*
X008803Y007984D01*
X008810Y007991D01*
X008817Y007984D01*
X009063Y007984D01*
X009070Y007991D01*
X009077Y007984D01*
X009308Y007984D01*
X009308Y007968D01*
X009319Y007943D01*
X009319Y006734D01*
X009072Y006734D01*
X009063Y006744D01*
X008817Y006744D01*
X008810Y006736D01*
X008803Y006744D01*
X008557Y006744D01*
X008550Y006736D01*
X008543Y006744D01*
X008297Y006744D01*
X008290Y006736D01*
X008283Y006744D01*
X008037Y006744D01*
X008030Y006736D01*
X008023Y006744D01*
X007777Y006744D01*
X007770Y006736D01*
X007763Y006744D01*
X007517Y006744D01*
X007510Y006736D01*
X007503Y006744D01*
X007257Y006744D01*
X007250Y006736D01*
X007243Y006744D01*
X006997Y006744D01*
X006990Y006736D01*
X006983Y006744D01*
X006737Y006744D01*
X006730Y006736D01*
X006723Y006744D01*
X006477Y006744D01*
X006470Y006736D01*
X006463Y006744D01*
X006217Y006744D01*
X006210Y006736D01*
X006203Y006744D01*
X005957Y006744D01*
X005950Y006736D01*
X005943Y006744D01*
X005697Y006744D01*
X005687Y006734D01*
X005618Y006734D01*
X005618Y007994D01*
X005715Y008011D02*
X004462Y008011D01*
X004462Y007895D02*
X005684Y007895D01*
X005618Y007895D02*
X009319Y007895D01*
X009331Y007895D02*
X009339Y007895D01*
X009331Y007904D02*
X009331Y007876D01*
X009043Y007876D01*
X009043Y007876D01*
X008689Y007876D01*
X008689Y007876D01*
X008755Y007876D01*
X009043Y007876D01*
X009043Y007876D01*
X009043Y007876D01*
X009043Y007652D01*
X009043Y007364D01*
X009043Y007364D01*
X008755Y007364D01*
X008532Y007364D01*
X008532Y007364D01*
X009043Y007364D01*
X009043Y007364D01*
X009043Y007876D01*
X009331Y007876D01*
X009331Y007847D01*
X009320Y007792D01*
X009298Y007739D01*
X009267Y007692D01*
X009227Y007652D01*
X009180Y007620D01*
X009178Y007620D01*
X009180Y007619D01*
X009227Y007587D01*
X009267Y007547D01*
X009298Y007500D01*
X009320Y007448D01*
X009331Y007392D01*
X009331Y007364D01*
X009043Y007364D01*
X009043Y007140D01*
X009043Y006852D01*
X009043Y006852D01*
X008689Y006852D01*
X008689Y006852D01*
X008755Y006852D01*
X009043Y006852D01*
X009043Y006852D01*
X009200Y006695D01*
X009200Y006261D01*
X009200Y005797D01*
X009200Y006261D01*
X009200Y006261D01*
X009200Y006146D02*
X009200Y006146D01*
X009200Y006029D02*
X009200Y006029D01*
X009200Y005912D02*
X009200Y005912D01*
X009190Y005796D02*
X010500Y005796D01*
X010500Y005912D02*
X009892Y005912D01*
X009975Y006029D02*
X010500Y006029D01*
X010500Y006146D02*
X010008Y006146D01*
X010006Y006262D02*
X010500Y006262D01*
X010500Y006379D02*
X009957Y006379D01*
X010132Y006495D02*
X010500Y006495D01*
X010500Y006612D02*
X010187Y006612D01*
X010187Y006729D02*
X010500Y006729D01*
X010500Y006845D02*
X010187Y006845D01*
X010184Y006962D02*
X010500Y006962D01*
X010500Y007078D02*
X010090Y007078D01*
X010149Y007195D02*
X010500Y007195D01*
X010500Y007312D02*
X010205Y007312D01*
X010205Y007428D02*
X010500Y007428D01*
X010500Y007545D02*
X010205Y007545D01*
X010205Y007661D02*
X010500Y007661D01*
X010500Y007778D02*
X010181Y007778D01*
X010205Y007895D02*
X010500Y007895D01*
X010500Y008011D02*
X010205Y008011D01*
X010205Y008128D02*
X010500Y008128D01*
X010500Y008245D02*
X010205Y008245D01*
X010107Y008361D02*
X010500Y008361D01*
X010500Y008478D02*
X010172Y008478D01*
X010205Y008594D02*
X010500Y008594D01*
X010500Y008711D02*
X010205Y008711D01*
X010205Y008828D02*
X010500Y008828D01*
X010500Y008944D02*
X010205Y008944D01*
X010282Y009061D02*
X010500Y009061D01*
X010500Y009177D02*
X010362Y009177D01*
X010362Y009294D02*
X010500Y009294D01*
X010500Y009411D02*
X010362Y009411D01*
X010362Y009527D02*
X010500Y009527D01*
X010500Y009644D02*
X010362Y009644D01*
X010362Y009760D02*
X010500Y009760D01*
X010500Y009877D02*
X010303Y009877D01*
X010327Y009994D02*
X010500Y009994D01*
X010500Y010110D02*
X010352Y010110D01*
X010335Y010227D02*
X010500Y010227D01*
X010500Y010344D02*
X010263Y010344D01*
X010048Y010577D02*
X011661Y010577D01*
X011661Y010693D02*
X010373Y010693D01*
X010324Y010927D02*
X009315Y010927D01*
X009478Y011043D02*
X010649Y011043D01*
X010698Y010810D02*
X011661Y010810D01*
X011661Y010927D02*
X011023Y010927D01*
X010973Y011160D02*
X009641Y011160D01*
X009804Y011276D02*
X011298Y011276D01*
X011366Y011301D02*
X011366Y012246D01*
X010500Y012246D01*
X010500Y011773D01*
X008295Y010198D01*
X008457Y010257D01*
X008458Y010257D01*
X008460Y010257D01*
X011366Y011301D01*
X011366Y011393D02*
X009968Y011393D01*
X010131Y011510D02*
X011366Y011510D01*
X011366Y011626D02*
X010294Y011626D01*
X010457Y011743D02*
X011366Y011743D01*
X011366Y011859D02*
X010500Y011859D01*
X010500Y011976D02*
X011366Y011976D01*
X011366Y012093D02*
X010500Y012093D01*
X010500Y012209D02*
X011366Y012209D01*
X011503Y012443D02*
X011661Y012443D01*
X011661Y012559D02*
X001346Y012559D01*
X001346Y012486D02*
X001346Y012635D01*
X001290Y012772D01*
X001184Y012878D01*
X001047Y012935D01*
X000898Y012935D01*
X000761Y012878D01*
X000655Y012772D01*
X000598Y012635D01*
X000598Y012486D01*
X000655Y012349D01*
X000761Y012244D01*
X000898Y012187D01*
X000963Y012187D01*
X000933Y012165D01*
X000876Y012108D01*
X000829Y012042D01*
X000792Y011970D01*
X000767Y011893D01*
X000757Y011832D01*
X001209Y011832D01*
X001209Y011714D01*
X001327Y011714D01*
X001327Y011832D01*
X001778Y011832D01*
X001768Y011893D01*
X001743Y011970D01*
X001707Y012042D01*
X001659Y012108D01*
X001602Y012165D01*
X001537Y012212D01*
X001465Y012249D01*
X001388Y012274D01*
X001327Y012284D01*
X001327Y011832D01*
X001209Y011832D01*
X001209Y012268D01*
X001290Y012349D01*
X001346Y012486D01*
X001328Y012443D02*
X006111Y012443D01*
X006012Y012326D02*
X004189Y012326D01*
X004110Y012351D02*
X003884Y012333D01*
X003682Y012229D01*
X003535Y012056D01*
X002932Y010181D01*
X002311Y010181D01*
X002207Y010077D01*
X002207Y007680D01*
X002311Y007577D01*
X004358Y007577D01*
X004462Y007680D01*
X004462Y010077D01*
X004358Y010181D01*
X004131Y010181D01*
X004622Y011707D01*
X004603Y011933D01*
X004499Y012135D01*
X004326Y012282D01*
X004110Y012351D01*
X003870Y012326D02*
X001267Y012326D01*
X001209Y012209D02*
X001327Y012209D01*
X001327Y012093D02*
X001209Y012093D01*
X001209Y011976D02*
X001327Y011976D01*
X001327Y011859D02*
X001209Y011859D01*
X001209Y011743D02*
X000520Y011743D01*
X000520Y011859D02*
X000762Y011859D01*
X000795Y011976D02*
X000520Y011976D01*
X000520Y012093D02*
X000865Y012093D01*
X000843Y012209D02*
X000520Y012209D01*
X000520Y012326D02*
X000678Y012326D01*
X000617Y012443D02*
X000520Y012443D01*
X000520Y012559D02*
X000598Y012559D01*
X000615Y012676D02*
X000520Y012676D01*
X000520Y012792D02*
X000675Y012792D01*
X000520Y012909D02*
X000836Y012909D01*
X000520Y013026D02*
X011661Y013026D01*
X011661Y012909D02*
X001109Y012909D01*
X001270Y012792D02*
X011661Y012792D01*
X011661Y012676D02*
X001330Y012676D01*
X001541Y012209D02*
X002330Y012209D01*
X002345Y012224D02*
X002195Y012074D01*
X002114Y011879D01*
X002114Y011668D01*
X002195Y011472D01*
X002345Y011323D01*
X002540Y011242D01*
X002751Y011242D01*
X002947Y011323D01*
X003096Y011472D01*
X003177Y011668D01*
X003177Y011879D01*
X003096Y012074D01*
X002947Y012224D01*
X002751Y012305D01*
X002540Y012305D01*
X002345Y012224D01*
X002213Y012093D02*
X001670Y012093D01*
X001741Y011976D02*
X002154Y011976D01*
X002114Y011859D02*
X001774Y011859D01*
X001778Y011714D02*
X001327Y011714D01*
X001327Y011263D01*
X001388Y011272D01*
X001465Y011297D01*
X001537Y011334D01*
X001602Y011382D01*
X001659Y011439D01*
X001707Y011504D01*
X001743Y011576D01*
X001768Y011653D01*
X001778Y011714D01*
X001760Y011626D02*
X002131Y011626D01*
X002114Y011743D02*
X001327Y011743D01*
X001327Y011626D02*
X001209Y011626D01*
X001209Y011714D02*
X001209Y011263D01*
X001147Y011272D01*
X001071Y011297D01*
X000999Y011334D01*
X000933Y011382D01*
X000876Y011439D01*
X000829Y011504D01*
X000792Y011576D01*
X000767Y011653D01*
X000757Y011714D01*
X001209Y011714D01*
X001209Y011510D02*
X001327Y011510D01*
X001327Y011393D02*
X001209Y011393D01*
X001209Y011276D02*
X001327Y011276D01*
X001400Y011276D02*
X002456Y011276D01*
X002274Y011393D02*
X001614Y011393D01*
X001710Y011510D02*
X002180Y011510D01*
X002835Y011276D02*
X003284Y011276D01*
X003247Y011160D02*
X000520Y011160D01*
X000520Y011276D02*
X001135Y011276D01*
X000922Y011393D02*
X000520Y011393D01*
X000520Y011510D02*
X000826Y011510D01*
X000776Y011626D02*
X000520Y011626D01*
X000520Y011043D02*
X003209Y011043D01*
X003172Y010927D02*
X000520Y010927D01*
X000520Y010810D02*
X003134Y010810D01*
X003097Y010693D02*
X000520Y010693D01*
X000520Y010577D02*
X003059Y010577D01*
X003022Y010460D02*
X000520Y010460D01*
X001720Y010344D02*
X002984Y010344D01*
X002947Y010227D02*
X001720Y010227D01*
X001720Y010110D02*
X002241Y010110D01*
X002207Y009994D02*
X001720Y009994D01*
X001720Y009877D02*
X002207Y009877D01*
X002207Y009760D02*
X001720Y009760D01*
X001720Y009644D02*
X002207Y009644D01*
X002207Y009527D02*
X001720Y009527D01*
X001720Y009411D02*
X002207Y009411D01*
X002207Y009294D02*
X001720Y009294D01*
X001720Y009177D02*
X002207Y009177D01*
X002207Y009061D02*
X001720Y009061D01*
X001720Y008944D02*
X002207Y008944D01*
X002207Y008828D02*
X001720Y008828D01*
X001720Y008711D02*
X002207Y008711D01*
X002207Y008594D02*
X001720Y008594D01*
X001720Y008478D02*
X002207Y008478D01*
X002207Y008361D02*
X001720Y008361D01*
X001720Y008245D02*
X002207Y008245D01*
X002207Y008128D02*
X001720Y008128D01*
X001720Y008011D02*
X002207Y008011D01*
X002207Y007895D02*
X001720Y007895D01*
X001720Y007778D02*
X002207Y007778D01*
X002226Y007661D02*
X001720Y007661D01*
X001720Y007545D02*
X002765Y007545D01*
X002807Y007562D02*
X002705Y007520D01*
X002627Y007442D01*
X002585Y007340D01*
X002585Y007230D01*
X002627Y007128D01*
X002705Y007050D01*
X002807Y007008D01*
X002917Y007008D01*
X003019Y007050D01*
X003097Y007128D01*
X003139Y007230D01*
X003139Y007340D01*
X003097Y007442D01*
X003019Y007520D01*
X002917Y007562D01*
X002807Y007562D01*
X002959Y007545D02*
X005747Y007545D01*
X005779Y007661D02*
X004443Y007661D01*
X004462Y007778D02*
X005701Y007778D01*
X005618Y007778D02*
X009319Y007778D01*
X009315Y007778D02*
X009402Y007778D01*
X009423Y007757D02*
X009378Y007802D01*
X009378Y007829D01*
X009358Y007849D01*
X009328Y007921D01*
X009331Y007904D01*
X009423Y007757D02*
X009378Y007713D01*
X009378Y007251D01*
X009482Y007147D01*
X009496Y007147D01*
X009521Y007086D01*
X009494Y007079D01*
X009457Y007058D01*
X009428Y007028D01*
X009407Y006992D01*
X009396Y006952D01*
X009396Y006793D01*
X009772Y006793D01*
X009772Y006754D01*
X009396Y006754D01*
X009396Y006630D01*
X009376Y006664D01*
X009347Y006694D01*
X009311Y006715D01*
X009299Y006718D01*
X009320Y006768D01*
X009331Y006824D01*
X009331Y006852D01*
X009331Y006880D01*
X009320Y006936D01*
X009298Y006988D01*
X009267Y007036D01*
X009227Y007076D01*
X009180Y007107D01*
X009178Y007108D01*
X009180Y007109D01*
X009227Y007140D01*
X009267Y007180D01*
X009298Y007227D01*
X009320Y007280D01*
X009331Y007335D01*
X009331Y007364D01*
X009043Y007364D01*
X009043Y007364D01*
X009043Y007364D01*
X009043Y006852D01*
X009331Y006852D01*
X009043Y006852D01*
X009043Y006852D01*
X009043Y006962D02*
X009043Y006962D01*
X009043Y007078D02*
X009043Y007078D01*
X009043Y007195D02*
X009043Y007195D01*
X009043Y007312D02*
X009043Y007312D01*
X009043Y007428D02*
X009043Y007428D01*
X009043Y007545D02*
X009043Y007545D01*
X009043Y007661D02*
X009043Y007661D01*
X009043Y007778D02*
X009043Y007778D01*
X009236Y007661D02*
X009378Y007661D01*
X009319Y007661D02*
X005618Y007661D01*
X005618Y007545D02*
X009319Y007545D01*
X009269Y007545D02*
X009378Y007545D01*
X009378Y007428D02*
X009324Y007428D01*
X009319Y007428D02*
X005618Y007428D01*
X005692Y007428D02*
X003103Y007428D01*
X003139Y007312D02*
X005689Y007312D01*
X005684Y007335D02*
X005696Y007280D01*
X005717Y007227D01*
X005749Y007180D01*
X005789Y007140D01*
X005836Y007109D01*
X005838Y007108D01*
X005836Y007107D01*
X005789Y007076D01*
X005749Y007036D01*
X005717Y006988D01*
X005696Y006936D01*
X005684Y006880D01*
X005684Y006852D01*
X005972Y006852D01*
X005972Y006852D01*
X005684Y006852D01*
X005684Y006824D01*
X005696Y006768D01*
X005706Y006744D01*
X005697Y006744D01*
X005687Y006734D01*
X005678Y006734D01*
X005643Y006699D01*
X004943Y006419D01*
X004890Y006419D01*
X004855Y006384D01*
X004810Y006366D01*
X004789Y006318D01*
X004752Y006281D01*
X004752Y006231D01*
X004733Y006186D01*
X004752Y006137D01*
X004752Y005849D01*
X004772Y005829D01*
X004772Y005794D01*
X004875Y005691D01*
X005374Y005691D01*
X006011Y005401D01*
X006013Y005396D01*
X006091Y005318D01*
X006193Y005276D01*
X006303Y005276D01*
X006313Y005280D01*
X006286Y005214D01*
X006286Y005104D01*
X006328Y005002D01*
X006406Y004924D01*
X006508Y004882D01*
X006618Y004882D01*
X006720Y004924D01*
X006798Y005002D01*
X006840Y005104D01*
X006840Y005214D01*
X006798Y005316D01*
X006720Y005394D01*
X006626Y005433D01*
X006697Y005433D01*
X006799Y005475D01*
X006877Y005553D01*
X006884Y005570D01*
X006884Y002947D01*
X006877Y002953D01*
X006776Y002995D01*
X006665Y002995D01*
X006563Y002953D01*
X006485Y002875D01*
X006484Y002872D01*
X006483Y002875D01*
X006405Y002953D01*
X006303Y002995D01*
X006193Y002995D01*
X006091Y002953D01*
X006013Y002875D01*
X005971Y002773D01*
X005971Y002663D01*
X006013Y002561D01*
X006091Y002483D01*
X006193Y002441D01*
X006303Y002441D01*
X006354Y002462D01*
X006354Y002376D01*
X006267Y002376D01*
X006163Y002272D01*
X006163Y000471D01*
X006203Y000432D02*
X005978Y000432D01*
X006591Y001372D02*
X006591Y002588D01*
X006720Y002718D01*
X006491Y002880D02*
X006478Y002880D01*
X006018Y002880D02*
X005265Y002880D01*
X005307Y002997D02*
X006884Y002997D01*
X006884Y003114D02*
X005307Y003114D01*
X005307Y003230D02*
X006884Y003230D01*
X006884Y003347D02*
X005661Y003347D01*
X005661Y003464D02*
X006884Y003464D01*
X006884Y003580D02*
X005661Y003580D01*
X005661Y003697D02*
X006884Y003697D01*
X006884Y003813D02*
X005661Y003813D01*
X005610Y003930D02*
X006884Y003930D01*
X006884Y004047D02*
X003047Y004047D01*
X003061Y004080D02*
X003061Y004191D01*
X003030Y004266D01*
X003098Y004294D01*
X003176Y004372D01*
X003218Y004474D01*
X003218Y004584D01*
X003176Y004686D01*
X003098Y004764D01*
X002996Y004806D01*
X002925Y004806D01*
X003019Y004845D01*
X003097Y004923D01*
X003139Y005025D01*
X003139Y005135D01*
X003097Y005237D01*
X003019Y005315D01*
X002917Y005358D01*
X002807Y005358D01*
X002705Y005315D01*
X002654Y005264D01*
X002651Y005267D01*
X002671Y005286D01*
X002713Y005388D01*
X002713Y005395D01*
X002825Y005395D01*
X002908Y005478D01*
X002942Y005396D01*
X003020Y005318D01*
X003122Y005276D01*
X003232Y005276D01*
X003334Y005318D01*
X003412Y005396D01*
X003454Y005498D01*
X003454Y005608D01*
X003412Y005710D01*
X003334Y005788D01*
X003232Y005830D01*
X003122Y005830D01*
X003020Y005788D01*
X002942Y005710D01*
X002929Y005678D01*
X002929Y006827D01*
X002825Y006931D01*
X002049Y006931D01*
X001945Y006827D01*
X001945Y005499D01*
X002046Y005398D01*
X002035Y005371D01*
X002035Y005297D01*
X002001Y005297D01*
X001898Y005193D01*
X001898Y004731D01*
X002001Y004628D01*
X002312Y004628D01*
X002369Y004570D01*
X002331Y004570D01*
X002331Y004273D01*
X002291Y004273D01*
X002291Y004234D01*
X001916Y004234D01*
X001916Y004075D01*
X001927Y004035D01*
X001948Y003998D01*
X001977Y003969D01*
X002013Y003948D01*
X002054Y003937D01*
X002291Y003937D01*
X002291Y004234D01*
X002331Y004234D01*
X002331Y003937D01*
X002443Y003937D01*
X002434Y003932D01*
X002404Y003902D01*
X002383Y003866D01*
X002372Y003826D01*
X002372Y003647D01*
X003043Y003647D01*
X003043Y003569D01*
X002372Y003569D01*
X002372Y003390D01*
X002383Y003350D01*
X002404Y003313D01*
X002434Y003284D01*
X002470Y003263D01*
X002511Y003252D01*
X003043Y003252D01*
X003043Y003568D01*
X003122Y003568D01*
X003122Y003252D01*
X003655Y003252D01*
X003695Y003263D01*
X003732Y003284D01*
X003761Y003313D01*
X003782Y003350D01*
X003793Y003390D01*
X003793Y003569D01*
X003122Y003569D01*
X003122Y003647D01*
X003793Y003647D01*
X003793Y003826D01*
X003782Y003866D01*
X003761Y003902D01*
X003732Y003932D01*
X003695Y003953D01*
X003655Y003964D01*
X003122Y003964D01*
X003122Y003647D01*
X003043Y003647D01*
X003043Y003964D01*
X003004Y003964D01*
X003018Y003978D01*
X003061Y004080D01*
X003061Y004163D02*
X004490Y004163D01*
X004516Y004137D02*
X004618Y004094D01*
X004728Y004094D01*
X004830Y004137D01*
X004908Y004215D01*
X004950Y004317D01*
X004950Y004427D01*
X004908Y004529D01*
X004830Y004607D01*
X004728Y004649D01*
X004618Y004649D01*
X004516Y004607D01*
X004438Y004529D01*
X004396Y004427D01*
X004396Y004317D01*
X004438Y004215D01*
X004516Y004137D01*
X004411Y004280D02*
X003063Y004280D01*
X003186Y004396D02*
X004396Y004396D01*
X004432Y004513D02*
X003218Y004513D01*
X003199Y004630D02*
X004572Y004630D01*
X004539Y004803D02*
X004650Y004803D01*
X004752Y004845D01*
X004829Y004923D01*
X004870Y005021D01*
X004887Y005011D01*
X004928Y005000D01*
X005165Y005000D01*
X005165Y005297D01*
X004790Y005297D01*
X004790Y005277D01*
X004752Y005315D01*
X004650Y005358D01*
X004539Y005358D01*
X004437Y005315D01*
X004359Y005237D01*
X004317Y005135D01*
X004317Y005025D01*
X004359Y004923D01*
X004437Y004845D01*
X004539Y004803D01*
X004420Y004863D02*
X003037Y004863D01*
X003116Y004746D02*
X006884Y004746D01*
X006884Y004630D02*
X004775Y004630D01*
X004915Y004513D02*
X006884Y004513D01*
X006884Y004396D02*
X004950Y004396D01*
X004935Y004280D02*
X006884Y004280D01*
X006884Y004163D02*
X004857Y004163D01*
X004257Y003930D02*
X003734Y003930D01*
X003793Y003813D02*
X004205Y003813D01*
X003921Y003697D02*
X003793Y003697D01*
X003853Y003580D02*
X003122Y003580D01*
X003043Y003580D02*
X001720Y003580D01*
X001720Y003464D02*
X002372Y003464D01*
X002385Y003347D02*
X001720Y003347D01*
X001720Y003230D02*
X004062Y003230D01*
X004182Y003230D02*
X004559Y003230D01*
X004461Y003114D02*
X001720Y003114D01*
X001720Y002997D02*
X004345Y002997D01*
X004255Y002880D02*
X001720Y002880D01*
X001720Y002764D02*
X004217Y002764D01*
X004217Y002647D02*
X001720Y002647D01*
X001720Y002531D02*
X004217Y002531D01*
X004217Y002414D02*
X001720Y002414D01*
X001720Y002297D02*
X002215Y002297D01*
X002213Y002296D02*
X002192Y002260D01*
X002181Y002219D01*
X002181Y001431D01*
X002531Y001431D01*
X002531Y001313D01*
X002181Y001313D01*
X002181Y000524D01*
X002192Y000483D01*
X002213Y000447D01*
X002243Y000418D01*
X002279Y000397D01*
X002320Y000386D01*
X002531Y000386D01*
X002531Y001313D01*
X002650Y001313D01*
X002650Y001431D01*
X003000Y001431D01*
X003000Y002219D01*
X002989Y002260D01*
X002968Y002296D01*
X002938Y002326D01*
X002902Y002347D01*
X002861Y002357D01*
X002650Y002357D01*
X002650Y001431D01*
X002531Y001431D01*
X002531Y002357D01*
X002320Y002357D01*
X002279Y002347D01*
X002243Y002326D01*
X002213Y002296D01*
X002181Y002181D02*
X001768Y002181D01*
X001768Y002064D02*
X002181Y002064D01*
X002181Y001948D02*
X001768Y001948D01*
X001768Y001831D02*
X002181Y001831D01*
X002181Y001714D02*
X001768Y001714D01*
X001768Y001598D02*
X002181Y001598D01*
X002181Y001481D02*
X001768Y001481D01*
X001768Y001365D02*
X002531Y001365D01*
X002531Y001481D02*
X002650Y001481D01*
X002650Y001365D02*
X003531Y001365D01*
X003531Y001313D02*
X003531Y001431D01*
X003181Y001431D01*
X003181Y002219D01*
X003192Y002260D01*
X003213Y002296D01*
X003243Y002326D01*
X003279Y002347D01*
X003320Y002357D01*
X003531Y002357D01*
X003531Y001431D01*
X003650Y001431D01*
X004000Y001431D01*
X004000Y002219D01*
X003989Y002260D01*
X003968Y002296D01*
X003938Y002326D01*
X003902Y002347D01*
X003861Y002357D01*
X003650Y002357D01*
X003650Y001431D01*
X003650Y001313D01*
X004000Y001313D01*
X004000Y000524D01*
X003989Y000483D01*
X003968Y000447D01*
X003938Y000418D01*
X003902Y000397D01*
X003861Y000386D01*
X003650Y000386D01*
X003650Y001313D01*
X003531Y001313D01*
X003181Y001313D01*
X003181Y000524D01*
X003192Y000483D01*
X003213Y000447D01*
X003243Y000418D01*
X003279Y000397D01*
X003320Y000386D01*
X003531Y000386D01*
X003531Y001313D01*
X003531Y001248D02*
X003650Y001248D01*
X003650Y001365D02*
X004163Y001365D01*
X004163Y001481D02*
X004000Y001481D01*
X004000Y001598D02*
X004163Y001598D01*
X004163Y001714D02*
X004000Y001714D01*
X004000Y001831D02*
X004163Y001831D01*
X004163Y001948D02*
X004000Y001948D01*
X004000Y002064D02*
X004163Y002064D01*
X004163Y002181D02*
X004000Y002181D01*
X003966Y002297D02*
X004189Y002297D01*
X003650Y002297D02*
X003531Y002297D01*
X003531Y002181D02*
X003650Y002181D01*
X003650Y002064D02*
X003531Y002064D01*
X003531Y001948D02*
X003650Y001948D01*
X003650Y001831D02*
X003531Y001831D01*
X003531Y001714D02*
X003650Y001714D01*
X003650Y001598D02*
X003531Y001598D01*
X003531Y001481D02*
X003650Y001481D01*
X003650Y001131D02*
X003531Y001131D01*
X003531Y001015D02*
X003650Y001015D01*
X003650Y000898D02*
X003531Y000898D01*
X003531Y000781D02*
X003650Y000781D01*
X003650Y000665D02*
X003531Y000665D01*
X003531Y000548D02*
X003650Y000548D01*
X003650Y000432D02*
X003531Y000432D01*
X003229Y000432D02*
X002952Y000432D01*
X002938Y000418D02*
X002968Y000447D01*
X002989Y000483D01*
X003000Y000524D01*
X003000Y001313D01*
X002650Y001313D01*
X002650Y000386D01*
X002861Y000386D01*
X002902Y000397D01*
X002938Y000418D01*
X003000Y000548D02*
X003181Y000548D01*
X003181Y000665D02*
X003000Y000665D01*
X003000Y000781D02*
X003181Y000781D01*
X003181Y000898D02*
X003000Y000898D01*
X003000Y001015D02*
X003181Y001015D01*
X003181Y001131D02*
X003000Y001131D01*
X003000Y001248D02*
X003181Y001248D01*
X003181Y001481D02*
X003000Y001481D01*
X003000Y001598D02*
X003181Y001598D01*
X003181Y001714D02*
X003000Y001714D01*
X003000Y001831D02*
X003181Y001831D01*
X003181Y001948D02*
X003000Y001948D01*
X003000Y002064D02*
X003181Y002064D01*
X003181Y002181D02*
X003000Y002181D01*
X002966Y002297D02*
X003215Y002297D01*
X002650Y002297D02*
X002531Y002297D01*
X002531Y002181D02*
X002650Y002181D01*
X002650Y002064D02*
X002531Y002064D01*
X002531Y001948D02*
X002650Y001948D01*
X002650Y001831D02*
X002531Y001831D01*
X002531Y001714D02*
X002650Y001714D01*
X002650Y001598D02*
X002531Y001598D01*
X002531Y001248D02*
X002650Y001248D01*
X002650Y001131D02*
X002531Y001131D01*
X002531Y001015D02*
X002650Y001015D01*
X002650Y000898D02*
X002531Y000898D01*
X002531Y000781D02*
X002650Y000781D01*
X002650Y000665D02*
X002531Y000665D01*
X002531Y000548D02*
X002650Y000548D01*
X002650Y000432D02*
X002531Y000432D01*
X002229Y000432D02*
X001768Y000432D01*
X001768Y000548D02*
X002181Y000548D01*
X002181Y000665D02*
X001768Y000665D01*
X001768Y000781D02*
X002181Y000781D01*
X002181Y000898D02*
X001768Y000898D01*
X001768Y001015D02*
X002181Y001015D01*
X002181Y001131D02*
X001768Y001131D01*
X001768Y001248D02*
X002181Y001248D01*
X003952Y000432D02*
X004203Y000432D01*
X004163Y000548D02*
X004000Y000548D01*
X004000Y000665D02*
X004163Y000665D01*
X004163Y000781D02*
X004000Y000781D01*
X004000Y000898D02*
X004163Y000898D01*
X004163Y001015D02*
X004000Y001015D01*
X004000Y001131D02*
X004163Y001131D01*
X004163Y001248D02*
X004000Y001248D01*
X004965Y002414D02*
X006354Y002414D01*
X006189Y002297D02*
X005992Y002297D01*
X006018Y002181D02*
X006163Y002181D01*
X006163Y002064D02*
X006018Y002064D01*
X006018Y001948D02*
X006163Y001948D01*
X006163Y001831D02*
X006018Y001831D01*
X006043Y002531D02*
X004965Y002531D01*
X005053Y002647D02*
X005977Y002647D01*
X005971Y002764D02*
X005169Y002764D01*
X003889Y003347D02*
X003781Y003347D01*
X003793Y003464D02*
X003845Y003464D01*
X003122Y003464D02*
X003043Y003464D01*
X003043Y003347D02*
X003122Y003347D01*
X003122Y003697D02*
X003043Y003697D01*
X003043Y003813D02*
X003122Y003813D01*
X003122Y003930D02*
X003043Y003930D01*
X002941Y004529D02*
X002744Y004529D01*
X002311Y004962D01*
X002291Y004570D02*
X002054Y004570D01*
X002013Y004559D01*
X001977Y004538D01*
X001948Y004509D01*
X001927Y004472D01*
X001916Y004432D01*
X001916Y004273D01*
X002291Y004273D01*
X002291Y004570D01*
X002291Y004513D02*
X002331Y004513D01*
X002331Y004396D02*
X002291Y004396D01*
X002291Y004280D02*
X002331Y004280D01*
X002331Y004163D02*
X002291Y004163D01*
X002291Y004047D02*
X002331Y004047D01*
X002432Y003930D02*
X001720Y003930D01*
X001720Y004047D02*
X001923Y004047D01*
X001916Y004163D02*
X001720Y004163D01*
X001720Y004280D02*
X001916Y004280D01*
X001916Y004396D02*
X001720Y004396D01*
X001720Y004513D02*
X001952Y004513D01*
X001999Y004630D02*
X001720Y004630D01*
X001720Y004746D02*
X001898Y004746D01*
X001898Y004863D02*
X001720Y004863D01*
X001720Y004979D02*
X001898Y004979D01*
X001898Y005096D02*
X001720Y005096D01*
X001720Y005213D02*
X001917Y005213D01*
X002035Y005329D02*
X001720Y005329D01*
X001720Y005446D02*
X001998Y005446D01*
X001945Y005563D02*
X001720Y005563D01*
X001720Y005679D02*
X001945Y005679D01*
X001945Y005796D02*
X001720Y005796D01*
X001720Y005912D02*
X001945Y005912D01*
X001945Y006029D02*
X001720Y006029D01*
X001720Y006146D02*
X001945Y006146D01*
X001945Y006262D02*
X001720Y006262D01*
X001720Y006379D02*
X001945Y006379D01*
X001945Y006495D02*
X001720Y006495D01*
X001720Y006612D02*
X001945Y006612D01*
X001945Y006729D02*
X001720Y006729D01*
X001720Y006845D02*
X001963Y006845D01*
X001720Y006962D02*
X005706Y006962D01*
X005618Y006962D02*
X009319Y006962D01*
X009309Y006962D02*
X009399Y006962D01*
X009396Y006845D02*
X009331Y006845D01*
X009319Y006845D02*
X005618Y006845D01*
X005684Y006845D02*
X004678Y006845D01*
X004675Y006851D02*
X004645Y006881D01*
X004609Y006902D01*
X004568Y006913D01*
X004291Y006913D01*
X004291Y006222D01*
X004173Y006222D01*
X004173Y006104D01*
X003758Y006104D01*
X003758Y005551D01*
X003769Y005511D01*
X003790Y005475D01*
X003820Y005445D01*
X003856Y005424D01*
X003896Y005413D01*
X004173Y005413D01*
X004173Y006104D01*
X004291Y006104D01*
X004291Y005413D01*
X004568Y005413D01*
X004609Y005424D01*
X004645Y005445D01*
X004675Y005475D01*
X004695Y005511D01*
X004706Y005551D01*
X004706Y006104D01*
X004291Y006104D01*
X004291Y006222D01*
X004706Y006222D01*
X004706Y006774D01*
X004695Y006815D01*
X004675Y006851D01*
X004706Y006729D02*
X005673Y006729D01*
X005770Y006495D02*
X006327Y006495D01*
X006327Y006498D02*
X006327Y005868D01*
X006451Y005806D01*
X006477Y005779D01*
X006504Y005779D01*
X006642Y005710D01*
X006248Y005553D01*
X005382Y005946D01*
X004988Y005946D01*
X004988Y006183D01*
X005776Y006498D01*
X006327Y006498D01*
X006327Y006379D02*
X005478Y006379D01*
X005425Y006612D02*
X004706Y006612D01*
X004706Y006495D02*
X005134Y006495D01*
X005187Y006262D02*
X006327Y006262D01*
X006327Y006146D02*
X004988Y006146D01*
X004988Y006029D02*
X006327Y006029D01*
X006327Y005912D02*
X005457Y005912D01*
X005399Y005679D02*
X004706Y005679D01*
X004706Y005563D02*
X004816Y005563D01*
X004822Y005572D02*
X004801Y005535D01*
X004790Y005495D01*
X004790Y005336D01*
X005165Y005336D01*
X005165Y005297D01*
X005205Y005297D01*
X005205Y005336D01*
X005580Y005336D01*
X005580Y005495D01*
X005569Y005535D01*
X005549Y005572D01*
X005519Y005601D01*
X005483Y005622D01*
X005442Y005633D01*
X005205Y005633D01*
X005205Y005336D01*
X005165Y005336D01*
X005165Y005633D01*
X004928Y005633D01*
X004887Y005622D01*
X004851Y005601D01*
X004822Y005572D01*
X004790Y005446D02*
X004646Y005446D01*
X004718Y005329D02*
X005165Y005329D01*
X005205Y005329D02*
X006079Y005329D01*
X005912Y005446D02*
X005580Y005446D01*
X005554Y005563D02*
X005656Y005563D01*
X005713Y005796D02*
X006461Y005796D01*
X006564Y005679D02*
X005970Y005679D01*
X006227Y005563D02*
X006272Y005563D01*
X006286Y005213D02*
X005580Y005213D01*
X005580Y005138D02*
X005580Y005297D01*
X005205Y005297D01*
X005205Y005000D01*
X005442Y005000D01*
X005483Y005011D01*
X005519Y005032D01*
X005549Y005061D01*
X005569Y005098D01*
X005580Y005138D01*
X005569Y005096D02*
X006289Y005096D01*
X006351Y004979D02*
X004853Y004979D01*
X004769Y004863D02*
X006884Y004863D01*
X006884Y004979D02*
X006775Y004979D01*
X006837Y005096D02*
X006884Y005096D01*
X006884Y005213D02*
X006840Y005213D01*
X006884Y005329D02*
X006785Y005329D01*
X006728Y005446D02*
X006884Y005446D01*
X006881Y005563D02*
X006884Y005563D01*
X007120Y006261D02*
X007120Y002870D01*
X007591Y002399D01*
X007591Y001372D01*
X008098Y001852D02*
X008610Y001852D01*
X008591Y001832D01*
X008591Y001372D01*
X009591Y001372D02*
X009591Y002525D01*
X009240Y002876D01*
X007508Y002876D01*
X007380Y003004D01*
X007380Y006261D01*
X007640Y006261D02*
X007640Y003373D01*
X007823Y003191D01*
X008091Y003114D02*
X009656Y003114D01*
X009654Y003107D02*
X009654Y002959D01*
X009710Y002821D01*
X009816Y002716D01*
X009953Y002659D01*
X010102Y002659D01*
X010239Y002716D01*
X010345Y002821D01*
X010402Y002959D01*
X010402Y003107D01*
X010345Y003245D01*
X010239Y003350D01*
X010102Y003407D01*
X009953Y003407D01*
X009816Y003350D01*
X009710Y003245D01*
X009654Y003107D01*
X009654Y002997D02*
X009453Y002997D01*
X009569Y002880D02*
X009686Y002880D01*
X009686Y002764D02*
X009768Y002764D01*
X009803Y002647D02*
X010500Y002647D01*
X010500Y002531D02*
X009827Y002531D01*
X009827Y002414D02*
X010500Y002414D01*
X010470Y002297D02*
X009992Y002297D01*
X010018Y002181D02*
X010413Y002181D01*
X010413Y002064D02*
X010018Y002064D01*
X010018Y001948D02*
X010413Y001948D01*
X010413Y001831D02*
X010018Y001831D01*
X010018Y001714D02*
X010413Y001714D01*
X010413Y001598D02*
X010018Y001598D01*
X010018Y001481D02*
X010413Y001481D01*
X010413Y001365D02*
X010018Y001365D01*
X010018Y001248D02*
X010413Y001248D01*
X010413Y001131D02*
X010018Y001131D01*
X010018Y001015D02*
X010413Y001015D01*
X010413Y000898D02*
X010018Y000898D01*
X010018Y000781D02*
X010413Y000781D01*
X010413Y000665D02*
X010018Y000665D01*
X010018Y000548D02*
X010413Y000548D01*
X010413Y000432D02*
X009978Y000432D01*
X010287Y002764D02*
X010500Y002764D01*
X010500Y002880D02*
X010369Y002880D01*
X010402Y002997D02*
X010500Y002997D01*
X010500Y003114D02*
X010399Y003114D01*
X010351Y003230D02*
X010500Y003230D01*
X010500Y003347D02*
X010243Y003347D01*
X010500Y003464D02*
X009884Y003464D01*
X009869Y003427D02*
X009911Y003529D01*
X009911Y003639D01*
X009869Y003741D01*
X009791Y003819D01*
X009689Y003861D01*
X009579Y003861D01*
X009477Y003819D01*
X009399Y003741D01*
X009357Y003639D01*
X009357Y003529D01*
X009399Y003427D01*
X009477Y003349D01*
X009579Y003307D01*
X009689Y003307D01*
X009791Y003349D01*
X009869Y003427D01*
X009812Y003347D02*
X009785Y003347D01*
X009704Y003230D02*
X008100Y003230D01*
X008058Y003347D02*
X009482Y003347D01*
X009384Y003464D02*
X007888Y003464D01*
X007876Y003580D02*
X009357Y003580D01*
X009380Y003697D02*
X007876Y003697D01*
X007876Y003813D02*
X009471Y003813D01*
X009797Y003813D02*
X010500Y003813D01*
X010500Y003697D02*
X009887Y003697D01*
X009911Y003580D02*
X010500Y003580D01*
X010500Y003930D02*
X007876Y003930D01*
X007876Y004047D02*
X010500Y004047D01*
X010500Y004163D02*
X007876Y004163D01*
X007876Y004280D02*
X010500Y004280D01*
X010500Y004396D02*
X007876Y004396D01*
X007876Y004513D02*
X010500Y004513D01*
X010500Y004630D02*
X007876Y004630D01*
X007876Y004746D02*
X010500Y004746D01*
X010500Y004863D02*
X007876Y004863D01*
X007876Y004979D02*
X010500Y004979D01*
X010500Y005096D02*
X007876Y005096D01*
X007876Y005213D02*
X010500Y005213D01*
X010500Y005329D02*
X007876Y005329D01*
X007876Y005446D02*
X007894Y005446D01*
X008067Y005446D02*
X008246Y005446D01*
X008453Y005631D02*
X008420Y005664D01*
X008420Y006261D01*
X008680Y006261D02*
X008680Y005877D01*
X008925Y005710D01*
X008839Y005446D02*
X008659Y005446D01*
X009011Y005446D02*
X010500Y005446D01*
X010500Y005563D02*
X009164Y005563D01*
X009202Y005679D02*
X010500Y005679D01*
X009396Y006729D02*
X009304Y006729D01*
X009319Y007078D02*
X005618Y007078D01*
X005618Y007195D02*
X009319Y007195D01*
X009277Y007195D02*
X009434Y007195D01*
X009378Y007312D02*
X009327Y007312D01*
X009319Y007312D02*
X005618Y007312D01*
X005684Y007335D02*
X005684Y007364D01*
X005972Y007364D01*
X005972Y007364D01*
X005972Y007588D01*
X005972Y007876D01*
X005972Y007876D01*
X006331Y007876D01*
X006331Y007876D01*
X006260Y007876D01*
X005972Y007876D01*
X005972Y007876D01*
X005972Y007778D02*
X005972Y007778D01*
X005972Y007661D02*
X005972Y007661D01*
X005972Y007545D02*
X005972Y007545D01*
X005972Y007428D02*
X005972Y007428D01*
X005972Y007364D02*
X006260Y007364D01*
X006484Y007364D01*
X006484Y007364D01*
X005972Y007364D01*
X005972Y007364D01*
X005972Y007076D01*
X005972Y006852D01*
X005972Y006852D01*
X005972Y007364D01*
X005972Y007364D01*
X005972Y007312D02*
X005972Y007312D01*
X005972Y007195D02*
X005972Y007195D01*
X005972Y007078D02*
X005972Y007078D01*
X005972Y006962D02*
X005972Y006962D01*
X005972Y006852D02*
X006196Y006852D01*
X006331Y006852D01*
X006331Y006852D01*
X005972Y006852D01*
X005972Y006852D01*
X005793Y007078D02*
X003048Y007078D01*
X003125Y007195D02*
X005739Y007195D01*
X006484Y007364D02*
X006484Y007364D01*
X006772Y007364D01*
X006996Y007364D01*
X006996Y007364D01*
X007284Y007364D01*
X007451Y007364D01*
X007451Y007364D01*
X006996Y007364D01*
X006996Y007364D01*
X006484Y007364D01*
X006327Y008230D02*
X006091Y008230D01*
X006091Y008860D01*
X006091Y008466D01*
X006080Y008466D01*
X006091Y008466D02*
X006340Y008466D01*
X006327Y008478D02*
X006091Y008478D01*
X006091Y008594D02*
X006327Y008594D01*
X006327Y008702D02*
X006327Y008230D01*
X006327Y008245D02*
X006091Y008245D01*
X006091Y008361D02*
X006327Y008361D01*
X006327Y008702D02*
X006091Y008860D01*
X005815Y009135D01*
X005588Y008944D02*
X004462Y008944D01*
X004462Y008828D02*
X005621Y008828D01*
X005612Y008711D02*
X005421Y008711D01*
X005544Y008594D02*
X005612Y008594D01*
X005526Y009061D02*
X004462Y009061D01*
X004462Y009177D02*
X005519Y009177D01*
X005560Y009294D02*
X004462Y009294D01*
X004462Y009411D02*
X004687Y009411D01*
X004692Y009409D02*
X004850Y009409D01*
X004850Y009785D01*
X004554Y009785D01*
X004554Y009548D01*
X004564Y009507D01*
X004585Y009471D01*
X004615Y009441D01*
X004651Y009420D01*
X004692Y009409D01*
X004850Y009411D02*
X004890Y009411D01*
X004890Y009409D02*
X005048Y009409D01*
X005089Y009420D01*
X005125Y009441D01*
X005155Y009471D01*
X005176Y009507D01*
X005187Y009548D01*
X005187Y009785D01*
X004890Y009785D01*
X004890Y009824D01*
X005187Y009824D01*
X005187Y010062D01*
X005176Y010102D01*
X005155Y010139D01*
X005125Y010168D01*
X005089Y010189D01*
X005048Y010200D01*
X004890Y010200D01*
X004890Y009824D01*
X004850Y009824D01*
X004850Y009785D01*
X004890Y009785D01*
X004890Y009409D01*
X004890Y009527D02*
X004850Y009527D01*
X004850Y009644D02*
X004890Y009644D01*
X004890Y009760D02*
X004850Y009760D01*
X004850Y009824D02*
X004554Y009824D01*
X004554Y010062D01*
X004564Y010102D01*
X004585Y010139D01*
X004615Y010168D01*
X004651Y010189D01*
X004692Y010200D01*
X004850Y010200D01*
X004850Y009824D01*
X004850Y009877D02*
X004890Y009877D01*
X004890Y009994D02*
X004850Y009994D01*
X004850Y010110D02*
X004890Y010110D01*
X004569Y010110D02*
X004429Y010110D01*
X004462Y009994D02*
X004554Y009994D01*
X004554Y009877D02*
X004462Y009877D01*
X004462Y009760D02*
X004554Y009760D01*
X004554Y009644D02*
X004462Y009644D01*
X004462Y009527D02*
X004559Y009527D01*
X005053Y009411D02*
X005329Y009411D01*
X005244Y009527D02*
X005181Y009527D01*
X005187Y009644D02*
X005244Y009644D01*
X005244Y009760D02*
X005187Y009760D01*
X005187Y009877D02*
X005244Y009877D01*
X005244Y009994D02*
X005187Y009994D01*
X005171Y010110D02*
X005244Y010110D01*
X005303Y010227D02*
X004146Y010227D01*
X004183Y010344D02*
X005303Y010344D01*
X005133Y010460D02*
X004221Y010460D01*
X004258Y010577D02*
X005069Y010577D01*
X005057Y010693D02*
X004296Y010693D01*
X004333Y010810D02*
X005088Y010810D01*
X005178Y010927D02*
X004371Y010927D01*
X004408Y011043D02*
X006085Y011043D01*
X006124Y010927D02*
X005586Y010927D01*
X005676Y010810D02*
X006163Y010810D01*
X006202Y010693D02*
X005749Y010693D01*
X005834Y010577D02*
X006240Y010577D01*
X006279Y010460D02*
X005854Y010460D01*
X005854Y010344D02*
X006318Y010344D01*
X006307Y010227D02*
X006346Y010227D01*
X006346Y010110D02*
X006307Y010110D01*
X006307Y009994D02*
X006346Y009994D01*
X006346Y009877D02*
X006307Y009877D01*
X006010Y009877D02*
X005913Y009877D01*
X005913Y009760D02*
X006010Y009760D01*
X006010Y009644D02*
X005913Y009644D01*
X006091Y009411D02*
X006484Y009332D01*
X006624Y008984D01*
X006624Y008939D01*
X006563Y008939D01*
X006248Y009175D01*
X006091Y009411D01*
X006092Y009411D01*
X006130Y009372D02*
X006287Y009175D01*
X006484Y009332D01*
X006563Y009096D01*
X006600Y009059D01*
X006600Y008466D01*
X006860Y008466D02*
X006860Y009350D01*
X006681Y009529D01*
X006681Y009687D01*
X007035Y009569D02*
X007120Y009484D01*
X007120Y008466D01*
X007380Y008466D02*
X007380Y010130D01*
X008157Y011773D01*
X008334Y011510D02*
X007502Y011510D01*
X007515Y011626D02*
X008421Y011626D01*
X008509Y011743D02*
X007529Y011743D01*
X007542Y011859D02*
X008531Y011859D01*
X008531Y011773D02*
X007350Y010198D01*
X007587Y012246D01*
X008531Y012246D01*
X008531Y011773D01*
X008531Y011976D02*
X007556Y011976D01*
X007569Y012093D02*
X008531Y012093D01*
X008531Y012209D02*
X007582Y012209D01*
X007449Y012443D02*
X007418Y012443D01*
X007272Y012246D02*
X007035Y010356D01*
X006871Y010257D01*
X006805Y010257D01*
X006704Y010157D01*
X006661Y010131D01*
X006661Y010154D01*
X006615Y010200D01*
X006248Y011301D01*
X006248Y012246D01*
X007272Y012246D01*
X007267Y012209D02*
X006248Y012209D01*
X006248Y012093D02*
X007253Y012093D01*
X007238Y011976D02*
X006248Y011976D01*
X006248Y011859D02*
X007223Y011859D01*
X007209Y011743D02*
X006248Y011743D01*
X006248Y011626D02*
X007194Y011626D01*
X007180Y011510D02*
X006248Y011510D01*
X006248Y011393D02*
X007165Y011393D01*
X007150Y011276D02*
X006256Y011276D01*
X006295Y011160D02*
X007136Y011160D01*
X007121Y011043D02*
X006334Y011043D01*
X006373Y010927D02*
X007107Y010927D01*
X007092Y010810D02*
X006412Y010810D01*
X006451Y010693D02*
X007078Y010693D01*
X007063Y010577D02*
X006489Y010577D01*
X006528Y010460D02*
X007048Y010460D01*
X007015Y010344D02*
X006567Y010344D01*
X006606Y010227D02*
X006774Y010227D01*
X006681Y010080D02*
X006780Y011773D01*
X006012Y011743D02*
X005933Y011743D01*
X005933Y011668D02*
X005852Y011472D01*
X005703Y011323D01*
X005507Y011242D01*
X005296Y011242D01*
X005101Y011323D01*
X004951Y011472D01*
X004870Y011668D01*
X004870Y011879D01*
X004951Y012074D01*
X005101Y012224D01*
X005296Y012305D01*
X005507Y012305D01*
X005703Y012224D01*
X005852Y012074D01*
X005933Y011879D01*
X005933Y011668D01*
X005916Y011626D02*
X006012Y011626D01*
X006012Y011510D02*
X005868Y011510D01*
X005773Y011393D02*
X006012Y011393D01*
X006007Y011276D02*
X005591Y011276D01*
X005212Y011276D02*
X004483Y011276D01*
X004446Y011160D02*
X006046Y011160D01*
X006012Y011859D02*
X005933Y011859D01*
X005893Y011976D02*
X006012Y011976D01*
X006012Y012093D02*
X005834Y012093D01*
X005717Y012209D02*
X006012Y012209D01*
X005086Y012209D02*
X004412Y012209D01*
X004521Y012093D02*
X004969Y012093D01*
X004910Y011976D02*
X004581Y011976D01*
X004609Y011859D02*
X004870Y011859D01*
X004870Y011743D02*
X004619Y011743D01*
X004596Y011626D02*
X004887Y011626D01*
X004935Y011510D02*
X004558Y011510D01*
X004521Y011393D02*
X005030Y011393D01*
X005854Y010227D02*
X006105Y010227D01*
X006013Y010110D02*
X005913Y010110D01*
X005913Y009994D02*
X006010Y009994D01*
X006169Y009294D02*
X006500Y009294D01*
X006546Y009177D02*
X006246Y009177D01*
X006400Y009061D02*
X006593Y009061D01*
X006624Y008944D02*
X006555Y008944D01*
X006314Y008711D02*
X006091Y008711D01*
X006091Y008828D02*
X006139Y008828D01*
X007035Y009569D02*
X007035Y009844D01*
X007354Y010227D02*
X007372Y010227D01*
X007367Y010344D02*
X007459Y010344D01*
X007381Y010460D02*
X007547Y010460D01*
X007634Y010577D02*
X007394Y010577D01*
X007408Y010693D02*
X007722Y010693D01*
X007809Y010810D02*
X007421Y010810D01*
X007434Y010927D02*
X007897Y010927D01*
X007984Y011043D02*
X007448Y011043D01*
X007461Y011160D02*
X008071Y011160D01*
X008159Y011276D02*
X007475Y011276D01*
X007488Y011393D02*
X008246Y011393D01*
X008495Y011276D02*
X009282Y011276D01*
X009457Y011393D02*
X008584Y011393D01*
X008674Y011510D02*
X009632Y011510D01*
X009807Y011626D02*
X008764Y011626D01*
X008853Y011743D02*
X009982Y011743D01*
X010028Y011773D02*
X007754Y010257D01*
X007749Y010257D01*
X007740Y010249D01*
X007678Y010207D01*
X007687Y010227D01*
X007708Y010227D01*
X007687Y010227D02*
X009240Y012246D01*
X010028Y012246D01*
X010028Y011773D01*
X010028Y011859D02*
X008943Y011859D01*
X009033Y011976D02*
X010028Y011976D01*
X010028Y012093D02*
X009122Y012093D01*
X009212Y012209D02*
X010028Y012209D01*
X010165Y012443D02*
X010363Y012443D01*
X010264Y012326D02*
X010264Y012326D01*
X010264Y012209D02*
X010264Y012209D01*
X010264Y012093D02*
X010264Y012093D01*
X010264Y011976D02*
X010264Y011976D01*
X010913Y011773D02*
X008374Y010198D01*
X008335Y010159D01*
X008335Y009608D01*
X008160Y009276D01*
X008160Y008466D01*
X008420Y008466D02*
X008420Y009063D01*
X008531Y009332D01*
X008768Y009372D01*
X008768Y009411D02*
X008498Y009411D01*
X008768Y009411D01*
X008801Y009345D01*
X008503Y009048D01*
X008453Y009017D01*
X008396Y009074D01*
X008396Y009185D01*
X008412Y009247D01*
X008498Y009411D01*
X008436Y009294D02*
X008750Y009294D01*
X008633Y009177D02*
X008396Y009177D01*
X008409Y009061D02*
X008517Y009061D01*
X008680Y008890D02*
X009161Y009372D01*
X009319Y009450D01*
X009654Y009411D02*
X009693Y009411D01*
X009693Y009527D02*
X009654Y009527D01*
X009654Y009644D02*
X009693Y009644D01*
X009693Y009760D02*
X009693Y009174D01*
X009654Y009214D01*
X009654Y009760D01*
X009550Y009864D01*
X009088Y009864D01*
X009006Y009781D01*
X009006Y009824D01*
X008709Y009824D01*
X008709Y009864D01*
X009006Y009864D01*
X009006Y010101D01*
X008995Y010142D01*
X008974Y010178D01*
X008964Y010188D01*
X009278Y010300D01*
X009278Y010222D01*
X009320Y010120D01*
X009398Y010042D01*
X009500Y010000D01*
X009610Y010000D01*
X009709Y010041D01*
X009752Y009936D01*
X009752Y009819D01*
X009693Y009760D01*
X009653Y009760D01*
X009752Y009877D02*
X009006Y009877D01*
X009006Y009994D02*
X009728Y009994D01*
X009330Y010110D02*
X009003Y010110D01*
X009074Y010227D02*
X009278Y010227D01*
X009024Y010460D02*
X008662Y010460D01*
X008700Y010344D02*
X008498Y010344D01*
X008375Y010227D02*
X008335Y010227D01*
X008058Y010460D02*
X007867Y010460D01*
X007883Y010344D02*
X007777Y010344D01*
X007640Y010134D02*
X008925Y011537D01*
X009535Y011773D01*
X009107Y011160D02*
X008405Y011160D01*
X008315Y011043D02*
X008933Y011043D01*
X008758Y010927D02*
X008225Y010927D01*
X008136Y010810D02*
X008583Y010810D01*
X008408Y010693D02*
X008046Y010693D01*
X007956Y010577D02*
X008233Y010577D01*
X008825Y010577D02*
X009349Y010577D01*
X009151Y010810D02*
X009999Y010810D01*
X009764Y010460D02*
X011661Y010460D01*
X011661Y011043D02*
X011348Y011043D01*
X011561Y011160D02*
X011661Y011160D01*
X011661Y011276D02*
X011616Y011276D01*
X011602Y011393D02*
X011661Y011393D01*
X011661Y011510D02*
X011602Y011510D01*
X011602Y011626D02*
X011661Y011626D01*
X011661Y011743D02*
X011602Y011743D01*
X011602Y011859D02*
X011661Y011859D01*
X011661Y011976D02*
X011602Y011976D01*
X011602Y012093D02*
X011661Y012093D01*
X011661Y012209D02*
X011602Y012209D01*
X011602Y012326D02*
X011661Y012326D01*
X009674Y010693D02*
X008988Y010693D01*
X007980Y009765D02*
X007980Y009608D01*
X007900Y009527D01*
X007900Y008466D01*
X007640Y008466D02*
X007640Y010134D01*
X008680Y008890D02*
X008680Y008466D01*
X008940Y008466D02*
X008940Y008796D01*
X009161Y009017D01*
X009516Y009017D01*
X009791Y008742D01*
X009693Y009177D02*
X009690Y009177D01*
X009693Y009294D02*
X009654Y009294D01*
X009200Y008466D02*
X009633Y008033D01*
X009493Y007078D02*
X009223Y007078D01*
X008531Y007364D02*
X008020Y007364D01*
X008308Y007364D01*
X008531Y007364D01*
X008531Y007364D01*
X008020Y007364D02*
X008020Y007364D01*
X008020Y007364D01*
X007569Y007364D01*
X007569Y007364D01*
X007732Y007364D01*
X008020Y007364D01*
X007508Y007423D02*
X007508Y007423D01*
X007508Y007652D01*
X007508Y007876D01*
X007508Y007876D01*
X007508Y007423D01*
X007508Y007428D02*
X007508Y007428D01*
X007508Y007545D02*
X007508Y007545D01*
X007508Y007661D02*
X007508Y007661D01*
X007508Y007778D02*
X007508Y007778D01*
X007508Y007305D02*
X007508Y006852D01*
X007508Y006852D01*
X007508Y007140D01*
X007508Y007305D01*
X007508Y007305D01*
X007508Y007195D02*
X007508Y007195D01*
X007508Y007078D02*
X007508Y007078D01*
X007508Y006962D02*
X007508Y006962D01*
X008160Y006261D02*
X008160Y005890D01*
X007980Y005710D01*
X005205Y005563D02*
X005165Y005563D01*
X005165Y005446D02*
X005205Y005446D01*
X005205Y005213D02*
X005165Y005213D01*
X005165Y005096D02*
X005205Y005096D01*
X004772Y005796D02*
X004706Y005796D01*
X004706Y005912D02*
X004752Y005912D01*
X004752Y006029D02*
X004706Y006029D01*
X004749Y006146D02*
X004291Y006146D01*
X004291Y006262D02*
X004173Y006262D01*
X004173Y006222D02*
X004173Y006913D01*
X003896Y006913D01*
X003856Y006902D01*
X003820Y006881D01*
X003790Y006851D01*
X003769Y006815D01*
X003758Y006774D01*
X003758Y006222D01*
X004173Y006222D01*
X004173Y006146D02*
X002929Y006146D01*
X002929Y006262D02*
X003758Y006262D01*
X003758Y006379D02*
X002929Y006379D01*
X002929Y006495D02*
X003758Y006495D01*
X003758Y006612D02*
X002929Y006612D01*
X002929Y006729D02*
X003758Y006729D01*
X003787Y006845D02*
X002911Y006845D01*
X002677Y007078D02*
X001720Y007078D01*
X001720Y007195D02*
X002599Y007195D01*
X002585Y007312D02*
X001720Y007312D01*
X001720Y007428D02*
X002621Y007428D01*
X002929Y006029D02*
X003758Y006029D01*
X003758Y005912D02*
X002929Y005912D01*
X002929Y005796D02*
X003039Y005796D01*
X002929Y005679D02*
X002929Y005679D01*
X002921Y005446D02*
X002876Y005446D01*
X002986Y005329D02*
X003009Y005329D01*
X003107Y005213D02*
X004349Y005213D01*
X004317Y005096D02*
X003139Y005096D01*
X003120Y004979D02*
X004336Y004979D01*
X004471Y005329D02*
X003346Y005329D01*
X003433Y005446D02*
X003819Y005446D01*
X003758Y005563D02*
X003454Y005563D01*
X003425Y005679D02*
X003758Y005679D01*
X003758Y005796D02*
X003315Y005796D01*
X002739Y005329D02*
X002688Y005329D01*
X002372Y003813D02*
X001720Y003813D01*
X001720Y003697D02*
X002372Y003697D01*
X004173Y005446D02*
X004291Y005446D01*
X004291Y005563D02*
X004173Y005563D01*
X004173Y005679D02*
X004291Y005679D01*
X004291Y005796D02*
X004173Y005796D01*
X004173Y005912D02*
X004291Y005912D01*
X004291Y006029D02*
X004173Y006029D01*
X004173Y006379D02*
X004291Y006379D01*
X004291Y006495D02*
X004173Y006495D01*
X004173Y006612D02*
X004291Y006612D01*
X004291Y006729D02*
X004173Y006729D01*
X004173Y006845D02*
X004291Y006845D01*
X004706Y006379D02*
X004842Y006379D01*
X004752Y006262D02*
X004706Y006262D01*
X004462Y008128D02*
X004955Y008128D01*
X004879Y008245D02*
X004462Y008245D01*
X004462Y008361D02*
X004850Y008361D01*
X004857Y008478D02*
X004462Y008478D01*
X004462Y008594D02*
X004905Y008594D01*
X005028Y008711D02*
X004462Y008711D01*
X003321Y011393D02*
X003017Y011393D01*
X003112Y011510D02*
X003359Y011510D01*
X003396Y011626D02*
X003160Y011626D01*
X003177Y011743D02*
X003434Y011743D01*
X003471Y011859D02*
X003177Y011859D01*
X003137Y011976D02*
X003509Y011976D01*
X003566Y012093D02*
X003078Y012093D01*
X002961Y012209D02*
X003665Y012209D01*
X008669Y012443D02*
X009094Y012443D01*
X009004Y012326D02*
X008768Y012326D01*
X008768Y012209D02*
X008914Y012209D01*
X008824Y012093D02*
X008768Y012093D01*
D26*
X009555Y010277D03*
X009634Y009883D03*
X008768Y009372D03*
X008531Y009332D03*
X008453Y009096D03*
X006563Y009096D03*
X006484Y009332D03*
X006287Y009175D03*
X006130Y009372D03*
X006642Y005710D03*
X006248Y005553D03*
X006563Y005159D03*
X007980Y005710D03*
X008453Y005631D03*
X008925Y005710D03*
X009634Y003584D03*
X008138Y002561D03*
X007823Y003191D03*
X006720Y002718D03*
X006248Y002718D03*
X005067Y002009D03*
X005146Y001694D03*
X005067Y001380D03*
X005146Y000986D03*
X005067Y000592D03*
X003098Y000986D03*
X003059Y001380D03*
X003098Y001773D03*
X003059Y002167D03*
X001957Y002167D03*
X002035Y001694D03*
X002035Y001143D03*
X001957Y000592D03*
X003059Y000513D03*
X004122Y003506D03*
X004673Y004372D03*
X004594Y005080D03*
X003177Y005553D03*
X002862Y005080D03*
X002941Y004529D03*
X002783Y004135D03*
X002862Y007285D03*
X008098Y001852D03*
X008098Y001380D03*
D27*
X009791Y007206D02*
X009791Y007482D01*
X010028Y009450D02*
X010028Y010120D01*
X005579Y009805D02*
X005579Y010474D01*
X005382Y010671D01*
X002437Y006163D02*
X002437Y005443D01*
X002311Y005317D01*
X002311Y004962D01*
D28*
X006130Y010395D03*
X005382Y010671D03*
X010028Y010120D03*
D29*
X009791Y007206D03*
X005815Y009135D03*
X003965Y008860D03*
X003965Y009569D03*
X003335Y009569D03*
X002705Y009569D03*
X002705Y008860D03*
X003335Y008860D03*
X003335Y008072D03*
X002705Y008072D03*
X003965Y008072D03*
D30*
X003335Y009569D02*
X004043Y011773D01*
D31*
X009633Y008033D02*
X009791Y008033D01*
D32*
X007980Y009765D02*
X007980Y009844D01*
X006681Y009687D02*
X006681Y010080D01*
M02*
