G75*
%MOIN*%
%OFA0B0*%
%FSLAX25Y25*%
%IPPOS*%
%LPD*%
%AMOC8*
5,1,8,0,0,1.08239X$1,22.5*
%
%ADD10C,0.00000*%
%ADD11C,0.00400*%
%ADD12R,0.05000X0.16535*%
%ADD13R,0.06299X0.11811*%
%ADD14R,0.19000X0.22500*%
%ADD15R,0.11024X0.03937*%
%ADD16R,0.00984X0.06102*%
%ADD17R,0.20394X0.12205*%
%ADD18C,0.02578*%
%ADD19R,0.04724X0.03150*%
%ADD20R,0.03150X0.04724*%
%ADD21C,0.03937*%
%ADD22R,0.07087X0.07087*%
%ADD23C,0.07087*%
%ADD24C,0.03937*%
%ADD25C,0.01181*%
%ADD26C,0.02001*%
%ADD27C,0.01969*%
%ADD28C,0.02953*%
%ADD29C,0.02375*%
%ADD30C,0.07874*%
%ADD31C,0.02953*%
%ADD32C,0.01575*%
%ADD33C,0.01000*%
D10*
X0014071Y0001984D02*
X0014071Y0021669D01*
X0001591Y0021669D01*
X0001591Y0132693D01*
X0116551Y0132693D01*
X0116551Y0021669D01*
X0104071Y0021669D01*
X0104071Y0001984D01*
X0014071Y0001984D01*
D11*
X0106710Y0088011D02*
X0106710Y0089714D01*
X0106710Y0088863D02*
X0109265Y0088863D01*
X0108839Y0090730D02*
X0109265Y0091156D01*
X0109265Y0092007D01*
X0108839Y0092433D01*
X0107135Y0092433D01*
X0106710Y0092007D01*
X0106710Y0091156D01*
X0107135Y0090730D01*
X0108839Y0090730D01*
X0111434Y0091582D02*
X0112286Y0092433D01*
X0113989Y0092433D01*
X0112712Y0092433D02*
X0112712Y0090730D01*
X0112286Y0090730D02*
X0111434Y0091582D01*
X0112286Y0090730D02*
X0113989Y0090730D01*
X0113989Y0089714D02*
X0113989Y0088011D01*
X0111434Y0088011D01*
X0111434Y0093449D02*
X0111860Y0093449D01*
X0112712Y0094300D01*
X0113989Y0094300D01*
X0112712Y0094300D02*
X0111860Y0095152D01*
X0111434Y0095152D01*
X0111434Y0096168D02*
X0113989Y0096168D01*
X0113989Y0097871D01*
X0113989Y0098886D02*
X0111434Y0098886D01*
X0111434Y0100164D01*
X0111860Y0100590D01*
X0112712Y0100590D01*
X0113137Y0100164D01*
X0113137Y0098886D01*
X0113137Y0099738D02*
X0113989Y0100590D01*
X0111434Y0097871D02*
X0111434Y0096168D01*
X0112712Y0096168D02*
X0112712Y0097019D01*
X0109265Y0093449D02*
X0106710Y0093449D01*
X0106710Y0094726D01*
X0107135Y0095152D01*
X0107987Y0095152D01*
X0108413Y0094726D01*
X0108413Y0093449D01*
D12*
X0094071Y0013717D03*
X0084071Y0013717D03*
X0074071Y0013717D03*
X0064071Y0013717D03*
X0054071Y0013717D03*
X0044071Y0013717D03*
X0034071Y0013717D03*
X0024071Y0013717D03*
D13*
X0022535Y0061630D03*
X0040488Y0061630D03*
D14*
X0031512Y0088787D03*
D15*
X0028992Y0036079D03*
X0047496Y0036079D03*
D16*
X0056365Y0062614D03*
X0058965Y0062614D03*
X0061565Y0062614D03*
X0064165Y0062614D03*
X0066765Y0062614D03*
X0069365Y0062614D03*
X0071965Y0062614D03*
X0074565Y0062614D03*
X0077165Y0062614D03*
X0079765Y0062614D03*
X0082365Y0062614D03*
X0084965Y0062614D03*
X0087565Y0062614D03*
X0090165Y0062614D03*
X0090165Y0084661D03*
X0087565Y0084661D03*
X0084965Y0084661D03*
X0082365Y0084661D03*
X0079765Y0084661D03*
X0077165Y0084661D03*
X0074565Y0084661D03*
X0071965Y0084661D03*
X0069365Y0084661D03*
X0066765Y0084661D03*
X0064165Y0084661D03*
X0061565Y0084661D03*
X0058965Y0084661D03*
X0056365Y0084661D03*
D17*
X0073264Y0073638D03*
D18*
X0073244Y0073638D03*
X0073244Y0068520D03*
X0068126Y0068520D03*
X0068126Y0073638D03*
X0068126Y0078756D03*
X0073244Y0078756D03*
X0078362Y0078756D03*
X0078362Y0073638D03*
X0078362Y0068520D03*
X0083480Y0068520D03*
X0083480Y0073638D03*
X0083480Y0078756D03*
X0088598Y0078756D03*
X0088598Y0073638D03*
X0088598Y0068520D03*
X0063008Y0068520D03*
X0063008Y0073638D03*
X0063008Y0078756D03*
X0057890Y0078756D03*
X0057890Y0073638D03*
X0057890Y0068520D03*
D19*
X0050016Y0060252D03*
X0050016Y0053165D03*
X0021276Y0049622D03*
X0021276Y0042535D03*
X0096079Y0067732D03*
X0096079Y0074819D03*
X0096079Y0080331D03*
X0096079Y0087417D03*
D20*
X0098441Y0094504D03*
X0091354Y0094504D03*
X0085055Y0098441D03*
X0077969Y0098441D03*
X0068520Y0098441D03*
X0061433Y0098441D03*
X0053953Y0098047D03*
X0046866Y0098047D03*
D21*
X0050409Y0083874D03*
X0007890Y0125606D03*
X0094504Y0061827D03*
X0098441Y0030331D03*
D22*
X0107299Y0117732D03*
D23*
X0093520Y0117732D03*
X0079740Y0117732D03*
X0065961Y0117732D03*
X0052181Y0117732D03*
X0038402Y0117732D03*
X0024622Y0117732D03*
X0010843Y0117732D03*
D24*
X0047496Y0036079D02*
X0047496Y0030567D01*
X0044071Y0027142D01*
X0044071Y0013717D01*
X0044898Y0013791D02*
X0054346Y0013791D01*
X0054346Y0017726D02*
X0044898Y0017726D01*
X0044898Y0019307D02*
X0054346Y0019307D01*
X0054346Y0006709D01*
X0044898Y0006709D01*
X0044898Y0019307D01*
X0044898Y0009855D02*
X0054346Y0009855D01*
D25*
X0058343Y0010242D02*
X0059799Y0010242D01*
X0059799Y0011421D02*
X0058343Y0011421D01*
X0058343Y0012601D02*
X0059799Y0012601D01*
X0059799Y0013780D02*
X0058343Y0013780D01*
X0058343Y0014960D02*
X0059799Y0014960D01*
X0059799Y0016140D02*
X0058343Y0016140D01*
X0058343Y0017319D02*
X0059799Y0017319D01*
X0059799Y0018499D02*
X0058343Y0018499D01*
X0058343Y0019678D02*
X0059799Y0019678D01*
X0059799Y0020858D02*
X0058343Y0020858D01*
X0058343Y0022038D02*
X0059799Y0022038D01*
X0059799Y0022718D02*
X0059799Y0004715D01*
X0060758Y0003756D01*
X0057383Y0003756D01*
X0058343Y0004715D01*
X0058343Y0022718D01*
X0057305Y0023756D01*
X0050837Y0023756D01*
X0050128Y0023047D01*
X0048013Y0023047D01*
X0047811Y0023250D01*
X0047811Y0025592D01*
X0049615Y0027396D01*
X0050667Y0028448D01*
X0051236Y0029823D01*
X0051236Y0032339D01*
X0053742Y0032339D01*
X0054780Y0033376D01*
X0054780Y0038781D01*
X0053742Y0039819D01*
X0041250Y0039819D01*
X0040213Y0038781D01*
X0040213Y0033376D01*
X0041250Y0032339D01*
X0043756Y0032339D01*
X0043756Y0032116D01*
X0040900Y0029260D01*
X0040331Y0027886D01*
X0040331Y0023250D01*
X0039799Y0022718D01*
X0039799Y0004715D01*
X0040758Y0003756D01*
X0015843Y0003756D01*
X0015843Y0022403D01*
X0015370Y0022876D01*
X0015370Y0104346D01*
X0003362Y0104346D01*
X0003362Y0130921D01*
X0114780Y0130921D01*
X0114780Y0104346D01*
X0103165Y0104346D01*
X0103165Y0023269D01*
X0102299Y0022403D01*
X0102299Y0003756D01*
X0097383Y0003756D01*
X0098343Y0004715D01*
X0098343Y0022718D01*
X0097305Y0023756D01*
X0096433Y0023756D01*
X0096433Y0026230D01*
X0095049Y0027614D01*
X0091545Y0031118D01*
X0079068Y0031118D01*
X0079166Y0031354D01*
X0079166Y0032457D01*
X0078744Y0033476D01*
X0077964Y0034256D01*
X0076974Y0034665D01*
X0076927Y0034713D01*
X0076927Y0054533D01*
X0077417Y0054330D01*
X0078520Y0054330D01*
X0079539Y0054752D01*
X0080105Y0055319D01*
X0080343Y0054745D01*
X0081123Y0053965D01*
X0082142Y0053543D01*
X0083244Y0053543D01*
X0084263Y0053965D01*
X0085043Y0054745D01*
X0085281Y0055319D01*
X0085847Y0054752D01*
X0086866Y0054330D01*
X0087969Y0054330D01*
X0088988Y0054752D01*
X0089767Y0055532D01*
X0090189Y0056551D01*
X0090189Y0057654D01*
X0090057Y0057972D01*
X0090164Y0057972D01*
X0090164Y0062614D01*
X0090165Y0062614D01*
X0090165Y0057972D01*
X0090866Y0057972D01*
X0091271Y0058081D01*
X0091633Y0058290D01*
X0091929Y0058586D01*
X0092122Y0058920D01*
X0092385Y0058656D01*
X0093760Y0058087D01*
X0095248Y0058087D01*
X0096623Y0058656D01*
X0097675Y0059708D01*
X0098244Y0061083D01*
X0098244Y0062571D01*
X0097675Y0063945D01*
X0097053Y0064567D01*
X0098650Y0064567D01*
X0099055Y0064675D01*
X0099418Y0064885D01*
X0099714Y0065181D01*
X0099923Y0065544D01*
X0100031Y0065948D01*
X0100031Y0067535D01*
X0096276Y0067535D01*
X0096276Y0067929D01*
X0100031Y0067929D01*
X0100031Y0069516D01*
X0099923Y0069921D01*
X0099714Y0070284D01*
X0099418Y0070580D01*
X0099055Y0070789D01*
X0098784Y0070862D01*
X0099037Y0071472D01*
X0099175Y0071472D01*
X0100213Y0072510D01*
X0100213Y0077128D01*
X0099765Y0077575D01*
X0100213Y0078022D01*
X0100213Y0082639D01*
X0099175Y0083677D01*
X0094489Y0083677D01*
X0094096Y0084071D01*
X0099175Y0084071D01*
X0100213Y0085109D01*
X0100213Y0089726D01*
X0099568Y0090370D01*
X0100750Y0090370D01*
X0101787Y0091408D01*
X0101787Y0097600D01*
X0101197Y0098191D01*
X0101197Y0099363D01*
X0101689Y0100551D01*
X0101689Y0101843D01*
X0101194Y0103037D01*
X0100281Y0103950D01*
X0099087Y0104445D01*
X0097795Y0104445D01*
X0096601Y0103950D01*
X0096338Y0103687D01*
X0096067Y0104342D01*
X0095700Y0104709D01*
X0112238Y0110646D01*
X0112805Y0110646D01*
X0113123Y0110963D01*
X0113546Y0111115D01*
X0113788Y0111628D01*
X0114189Y0112029D01*
X0114189Y0112479D01*
X0114381Y0112885D01*
X0114189Y0113419D01*
X0114189Y0123435D01*
X0112805Y0124819D01*
X0102187Y0124819D01*
X0100803Y0123435D01*
X0099419Y0124819D01*
X0091370Y0124819D01*
X0091232Y0124926D01*
X0090414Y0124819D01*
X0089588Y0124819D01*
X0089465Y0124695D01*
X0089291Y0124672D01*
X0088788Y0124019D01*
X0088205Y0123435D01*
X0088205Y0123260D01*
X0085843Y0120189D01*
X0085843Y0123435D01*
X0084459Y0124819D01*
X0074167Y0124819D01*
X0073330Y0124915D01*
X0073208Y0124819D01*
X0073053Y0124819D01*
X0072482Y0124247D01*
X0072146Y0124679D01*
X0071979Y0124700D01*
X0071860Y0124819D01*
X0071029Y0124819D01*
X0070204Y0124922D01*
X0070071Y0124819D01*
X0059667Y0124819D01*
X0058283Y0123435D01*
X0058283Y0113566D01*
X0058095Y0113189D01*
X0058283Y0112625D01*
X0058283Y0112029D01*
X0058581Y0111732D01*
X0061694Y0102394D01*
X0061630Y0102394D01*
X0061630Y0098638D01*
X0061236Y0098638D01*
X0061236Y0102394D01*
X0059649Y0102394D01*
X0059244Y0102285D01*
X0058882Y0102076D01*
X0058586Y0101780D01*
X0058376Y0101417D01*
X0058268Y0101013D01*
X0058268Y0098638D01*
X0061236Y0098638D01*
X0061236Y0098244D01*
X0058268Y0098244D01*
X0058268Y0096414D01*
X0057299Y0095768D01*
X0057299Y0101143D01*
X0056709Y0101734D01*
X0056709Y0105288D01*
X0056289Y0106301D01*
X0055230Y0107360D01*
X0054738Y0108549D01*
X0053824Y0109462D01*
X0052630Y0109957D01*
X0051338Y0109957D01*
X0050144Y0109462D01*
X0049231Y0108549D01*
X0048736Y0107355D01*
X0048736Y0106063D01*
X0049231Y0104869D01*
X0050144Y0103955D01*
X0051197Y0103519D01*
X0051197Y0101734D01*
X0050606Y0101143D01*
X0050606Y0094951D01*
X0051644Y0093913D01*
X0054761Y0093913D01*
X0054639Y0093863D01*
X0053806Y0093030D01*
X0053356Y0091943D01*
X0053356Y0090766D01*
X0053806Y0089678D01*
X0054639Y0088846D01*
X0054722Y0088811D01*
X0054600Y0088689D01*
X0054390Y0088327D01*
X0054282Y0087922D01*
X0054282Y0084661D01*
X0054282Y0081401D01*
X0054390Y0080996D01*
X0054600Y0080634D01*
X0054896Y0080337D01*
X0055259Y0080128D01*
X0055333Y0080108D01*
X0055121Y0079596D01*
X0055010Y0079040D01*
X0055010Y0078756D01*
X0057890Y0078756D01*
X0061476Y0078756D01*
X0061476Y0078756D01*
X0060769Y0078756D01*
X0057890Y0078756D01*
X0057890Y0078756D01*
X0056365Y0080281D01*
X0056365Y0084661D01*
X0056364Y0084661D02*
X0054282Y0084661D01*
X0056364Y0084661D01*
X0056364Y0084661D01*
X0054282Y0084557D02*
X0054150Y0084557D01*
X0054150Y0084618D02*
X0053580Y0085993D01*
X0052528Y0087045D01*
X0051153Y0087614D01*
X0049665Y0087614D01*
X0048291Y0087045D01*
X0047239Y0085993D01*
X0046669Y0084618D01*
X0046669Y0083130D01*
X0047239Y0081755D01*
X0048291Y0080703D01*
X0049665Y0080134D01*
X0051153Y0080134D01*
X0052528Y0080703D01*
X0053580Y0081755D01*
X0054150Y0083130D01*
X0054150Y0084618D01*
X0054282Y0085737D02*
X0053686Y0085737D01*
X0054282Y0086916D02*
X0052656Y0086916D01*
X0054329Y0088096D02*
X0042783Y0088096D01*
X0042783Y0086916D02*
X0048162Y0086916D01*
X0047133Y0085737D02*
X0042783Y0085737D01*
X0042783Y0084557D02*
X0046669Y0084557D01*
X0046669Y0083378D02*
X0042783Y0083378D01*
X0042783Y0082198D02*
X0047055Y0082198D01*
X0047976Y0081018D02*
X0042783Y0081018D01*
X0042783Y0079839D02*
X0055222Y0079839D01*
X0054346Y0079839D02*
X0057738Y0079839D01*
X0057739Y0079839D02*
X0060191Y0079839D01*
X0060338Y0079839D01*
X0060339Y0079839D02*
X0062791Y0079839D01*
X0062938Y0079839D01*
X0062939Y0079839D02*
X0065391Y0079839D01*
X0065538Y0079839D01*
X0065539Y0079839D02*
X0067991Y0079839D01*
X0068138Y0079839D01*
X0068139Y0079839D02*
X0070591Y0079839D01*
X0070738Y0079839D01*
X0070739Y0079839D02*
X0073191Y0079839D01*
X0073338Y0079839D01*
X0073339Y0079839D02*
X0075791Y0079839D01*
X0075938Y0079839D01*
X0075939Y0079839D02*
X0078391Y0079839D01*
X0078538Y0079839D01*
X0078539Y0079839D02*
X0080991Y0079839D01*
X0081138Y0079839D01*
X0081139Y0079839D02*
X0083591Y0079839D01*
X0083738Y0079839D01*
X0083739Y0079839D02*
X0086191Y0079839D01*
X0086338Y0079839D01*
X0086339Y0079839D02*
X0088791Y0079839D01*
X0088938Y0079839D01*
X0088939Y0079839D02*
X0091247Y0079839D01*
X0091247Y0079685D01*
X0091354Y0079426D01*
X0091354Y0067339D01*
X0088889Y0067339D01*
X0088791Y0067437D01*
X0086339Y0067437D01*
X0086265Y0067363D01*
X0086191Y0067437D01*
X0083739Y0067437D01*
X0083665Y0067363D01*
X0083591Y0067437D01*
X0081139Y0067437D01*
X0081065Y0067363D01*
X0080991Y0067437D01*
X0078539Y0067437D01*
X0078465Y0067363D01*
X0078391Y0067437D01*
X0075939Y0067437D01*
X0075865Y0067363D01*
X0075791Y0067437D01*
X0073339Y0067437D01*
X0073265Y0067363D01*
X0073191Y0067437D01*
X0070739Y0067437D01*
X0070665Y0067363D01*
X0070591Y0067437D01*
X0068139Y0067437D01*
X0068065Y0067363D01*
X0067991Y0067437D01*
X0065539Y0067437D01*
X0065465Y0067363D01*
X0065391Y0067437D01*
X0062939Y0067437D01*
X0062865Y0067363D01*
X0062791Y0067437D01*
X0060339Y0067437D01*
X0060265Y0067363D01*
X0060191Y0067437D01*
X0057739Y0067437D01*
X0057665Y0067363D01*
X0057591Y0067437D01*
X0055139Y0067437D01*
X0055040Y0067339D01*
X0054346Y0067339D01*
X0054346Y0079937D01*
X0057640Y0079937D01*
X0057739Y0079839D01*
X0057890Y0078756D02*
X0057890Y0078756D01*
X0057890Y0075876D01*
X0057890Y0073638D01*
X0060769Y0073638D01*
X0063008Y0073638D01*
X0065887Y0073638D01*
X0068126Y0073638D01*
X0071005Y0073638D01*
X0072673Y0073638D01*
X0072673Y0073638D01*
X0068126Y0073638D01*
X0068126Y0073638D01*
X0068126Y0073638D01*
X0063008Y0073638D01*
X0063008Y0073638D01*
X0063008Y0073638D01*
X0057890Y0073638D01*
X0057890Y0073638D01*
X0057890Y0073638D01*
X0057890Y0078756D01*
X0057890Y0078756D01*
X0055010Y0078756D01*
X0055010Y0078472D01*
X0055121Y0077916D01*
X0055338Y0077392D01*
X0055653Y0076920D01*
X0056054Y0076519D01*
X0056526Y0076204D01*
X0056543Y0076197D01*
X0056526Y0076190D01*
X0056054Y0075874D01*
X0055653Y0075473D01*
X0055338Y0075002D01*
X0055121Y0074478D01*
X0055010Y0073921D01*
X0055010Y0073638D01*
X0057890Y0073638D01*
X0057890Y0068520D01*
X0057890Y0068520D01*
X0060128Y0068520D01*
X0061476Y0068520D01*
X0061476Y0068520D01*
X0057890Y0068520D01*
X0057890Y0068520D01*
X0057890Y0070758D01*
X0057890Y0073638D01*
X0057890Y0073638D01*
X0057890Y0073638D01*
X0055010Y0073638D01*
X0055010Y0073354D01*
X0055121Y0072798D01*
X0055338Y0072274D01*
X0055653Y0071802D01*
X0056054Y0071401D01*
X0056526Y0071086D01*
X0056543Y0071079D01*
X0056526Y0071071D01*
X0056054Y0070756D01*
X0055653Y0070355D01*
X0055338Y0069884D01*
X0055121Y0069360D01*
X0055010Y0068803D01*
X0055010Y0068520D01*
X0057890Y0068520D01*
X0057890Y0068520D01*
X0055010Y0068520D01*
X0055010Y0068236D01*
X0055121Y0067680D01*
X0055221Y0067437D01*
X0055139Y0067437D01*
X0055040Y0067339D01*
X0054943Y0067339D01*
X0054594Y0066990D01*
X0047592Y0064189D01*
X0047069Y0064189D01*
X0046720Y0063840D01*
X0046261Y0063657D01*
X0046055Y0063175D01*
X0045685Y0062805D01*
X0045685Y0062312D01*
X0045491Y0061858D01*
X0045685Y0061372D01*
X0045685Y0058486D01*
X0045882Y0058289D01*
X0045882Y0057943D01*
X0046920Y0056906D01*
X0053112Y0056906D01*
X0053309Y0057102D01*
X0054155Y0057102D01*
X0054943Y0056315D01*
X0058092Y0053165D01*
X0059105Y0053165D01*
X0060094Y0052756D01*
X0061197Y0052756D01*
X0061294Y0052796D01*
X0061023Y0052142D01*
X0061023Y0051039D01*
X0061445Y0050020D01*
X0062225Y0049241D01*
X0063244Y0048819D01*
X0064347Y0048819D01*
X0065366Y0049241D01*
X0066145Y0050020D01*
X0066567Y0051039D01*
X0066567Y0052142D01*
X0066157Y0053131D01*
X0066157Y0057425D01*
X0065791Y0057791D01*
X0067002Y0057791D01*
X0067002Y0029469D01*
X0066940Y0029531D01*
X0065921Y0029953D01*
X0064819Y0029953D01*
X0063800Y0029531D01*
X0063020Y0028751D01*
X0063008Y0028722D01*
X0062996Y0028751D01*
X0062216Y0029531D01*
X0061197Y0029953D01*
X0060094Y0029953D01*
X0059075Y0029531D01*
X0058296Y0028751D01*
X0057874Y0027732D01*
X0057874Y0026630D01*
X0058296Y0025611D01*
X0059075Y0024831D01*
X0060094Y0024409D01*
X0061197Y0024409D01*
X0061709Y0024621D01*
X0061709Y0023756D01*
X0060837Y0023756D01*
X0059799Y0022718D01*
X0060298Y0023217D02*
X0057843Y0023217D01*
X0058330Y0025577D02*
X0047811Y0025577D01*
X0047811Y0024397D02*
X0061709Y0024397D01*
X0064071Y0025882D02*
X0065370Y0027181D01*
X0064071Y0025882D02*
X0064071Y0013717D01*
X0059799Y0009062D02*
X0058343Y0009062D01*
X0058343Y0007882D02*
X0059799Y0007882D01*
X0059799Y0006703D02*
X0058343Y0006703D01*
X0058343Y0005523D02*
X0059799Y0005523D01*
X0060171Y0004343D02*
X0057971Y0004343D01*
X0074071Y0013717D02*
X0074071Y0023992D01*
X0069365Y0028698D01*
X0069365Y0062614D01*
X0071965Y0062614D02*
X0071965Y0030035D01*
X0073244Y0028756D01*
X0090567Y0028756D01*
X0094071Y0025252D01*
X0094071Y0013717D01*
X0098343Y0013780D02*
X0102299Y0013780D01*
X0102299Y0012601D02*
X0098343Y0012601D01*
X0098343Y0011421D02*
X0102299Y0011421D01*
X0102299Y0010242D02*
X0098343Y0010242D01*
X0098343Y0009062D02*
X0102299Y0009062D01*
X0102299Y0007882D02*
X0098343Y0007882D01*
X0098343Y0006703D02*
X0102299Y0006703D01*
X0102299Y0005523D02*
X0098343Y0005523D01*
X0097971Y0004343D02*
X0102299Y0004343D01*
X0102299Y0014960D02*
X0098343Y0014960D01*
X0098343Y0016140D02*
X0102299Y0016140D01*
X0102299Y0017319D02*
X0098343Y0017319D01*
X0098343Y0018499D02*
X0102299Y0018499D01*
X0102299Y0019678D02*
X0098343Y0019678D01*
X0098343Y0020858D02*
X0102299Y0020858D01*
X0102299Y0022038D02*
X0098343Y0022038D01*
X0097843Y0023217D02*
X0103113Y0023217D01*
X0103165Y0024397D02*
X0096433Y0024397D01*
X0096433Y0025577D02*
X0103165Y0025577D01*
X0103165Y0026756D02*
X0099585Y0026756D01*
X0099185Y0026591D02*
X0100560Y0027160D01*
X0101612Y0028212D01*
X0102181Y0029587D01*
X0102181Y0031075D01*
X0101612Y0032449D01*
X0100560Y0033501D01*
X0099185Y0034071D01*
X0097697Y0034071D01*
X0096322Y0033501D01*
X0095270Y0032449D01*
X0094701Y0031075D01*
X0094701Y0029587D01*
X0095270Y0028212D01*
X0096322Y0027160D01*
X0097697Y0026591D01*
X0099185Y0026591D01*
X0097297Y0026756D02*
X0095907Y0026756D01*
X0095547Y0027936D02*
X0094728Y0027936D01*
X0094896Y0029115D02*
X0093548Y0029115D01*
X0094701Y0030295D02*
X0092369Y0030295D01*
X0094866Y0031475D02*
X0079166Y0031475D01*
X0079084Y0032654D02*
X0095475Y0032654D01*
X0095055Y0033070D02*
X0096074Y0033492D01*
X0096854Y0034272D01*
X0097276Y0035291D01*
X0097276Y0036394D01*
X0096854Y0037413D01*
X0096074Y0038193D01*
X0095055Y0038615D01*
X0093953Y0038615D01*
X0092934Y0038193D01*
X0092154Y0037413D01*
X0091732Y0036394D01*
X0091732Y0035291D01*
X0092154Y0034272D01*
X0092934Y0033492D01*
X0093953Y0033070D01*
X0095055Y0033070D01*
X0096415Y0033834D02*
X0097125Y0033834D01*
X0097161Y0035013D02*
X0103165Y0035013D01*
X0103165Y0033834D02*
X0099757Y0033834D01*
X0101407Y0032654D02*
X0103165Y0032654D01*
X0103165Y0031475D02*
X0102015Y0031475D01*
X0102181Y0030295D02*
X0103165Y0030295D01*
X0103165Y0029115D02*
X0101986Y0029115D01*
X0101335Y0027936D02*
X0103165Y0027936D01*
X0103165Y0036193D02*
X0097276Y0036193D01*
X0096871Y0037373D02*
X0103165Y0037373D01*
X0103165Y0038552D02*
X0095206Y0038552D01*
X0093802Y0038552D02*
X0076927Y0038552D01*
X0076927Y0037373D02*
X0092137Y0037373D01*
X0091732Y0036193D02*
X0076927Y0036193D01*
X0076927Y0035013D02*
X0091847Y0035013D01*
X0092592Y0033834D02*
X0078386Y0033834D01*
X0076394Y0031906D02*
X0074565Y0033735D01*
X0074565Y0062614D01*
X0079765Y0062614D02*
X0079765Y0058898D01*
X0077969Y0057102D01*
X0079853Y0055067D02*
X0080209Y0055067D01*
X0081310Y0053887D02*
X0076927Y0053887D01*
X0076927Y0052708D02*
X0103165Y0052708D01*
X0103165Y0053887D02*
X0084076Y0053887D01*
X0085176Y0055067D02*
X0085533Y0055067D01*
X0087417Y0057102D02*
X0084965Y0058768D01*
X0084965Y0062614D01*
X0082365Y0062614D02*
X0082365Y0056643D01*
X0082693Y0056315D01*
X0076927Y0051528D02*
X0103165Y0051528D01*
X0103165Y0050348D02*
X0076927Y0050348D01*
X0076927Y0049169D02*
X0103165Y0049169D01*
X0103165Y0047989D02*
X0076927Y0047989D01*
X0076927Y0046810D02*
X0103165Y0046810D01*
X0103165Y0045630D02*
X0076927Y0045630D01*
X0076927Y0044450D02*
X0103165Y0044450D01*
X0103165Y0043271D02*
X0076927Y0043271D01*
X0076927Y0042091D02*
X0103165Y0042091D01*
X0103165Y0040912D02*
X0076927Y0040912D01*
X0076927Y0039732D02*
X0103165Y0039732D01*
X0103165Y0055067D02*
X0089302Y0055067D01*
X0090063Y0056246D02*
X0103165Y0056246D01*
X0103165Y0057426D02*
X0090189Y0057426D01*
X0090164Y0058606D02*
X0090165Y0058606D01*
X0090164Y0059785D02*
X0090165Y0059785D01*
X0090164Y0060965D02*
X0090165Y0060965D01*
X0090164Y0062145D02*
X0090165Y0062145D01*
X0090165Y0062614D02*
X0090165Y0066954D01*
X0088598Y0068520D01*
X0088598Y0068520D01*
X0085051Y0068520D01*
X0085051Y0068520D01*
X0085719Y0068520D01*
X0088598Y0068520D01*
X0088598Y0071399D01*
X0088598Y0073638D01*
X0088598Y0073638D01*
X0085719Y0073638D01*
X0083480Y0073638D01*
X0083480Y0073638D01*
X0081242Y0073638D01*
X0078362Y0073638D01*
X0078362Y0073638D01*
X0073854Y0073638D01*
X0073854Y0073638D01*
X0075483Y0073638D01*
X0078362Y0073638D01*
X0078362Y0073638D01*
X0083480Y0073638D01*
X0083480Y0073638D01*
X0088598Y0073638D01*
X0088598Y0076517D01*
X0088598Y0078756D01*
X0088598Y0078756D01*
X0085051Y0078756D01*
X0085051Y0078756D01*
X0085719Y0078756D01*
X0088598Y0078756D01*
X0088598Y0078756D01*
X0088598Y0073638D01*
X0088598Y0073638D01*
X0088598Y0073638D01*
X0088599Y0073638D02*
X0091478Y0073638D01*
X0091478Y0073921D01*
X0091367Y0074478D01*
X0091150Y0075002D01*
X0090835Y0075473D01*
X0090434Y0075874D01*
X0089962Y0076190D01*
X0089945Y0076197D01*
X0089962Y0076204D01*
X0090434Y0076519D01*
X0090835Y0076920D01*
X0091150Y0077392D01*
X0091367Y0077916D01*
X0091478Y0078472D01*
X0091478Y0078756D01*
X0091478Y0079040D01*
X0091444Y0079209D01*
X0091742Y0078491D01*
X0091945Y0078288D01*
X0091945Y0078022D01*
X0092392Y0077575D01*
X0091945Y0077128D01*
X0091945Y0072510D01*
X0092983Y0071472D01*
X0093120Y0071472D01*
X0093373Y0070862D01*
X0093103Y0070789D01*
X0092740Y0070580D01*
X0092444Y0070284D01*
X0092234Y0069921D01*
X0092126Y0069516D01*
X0092126Y0067929D01*
X0095882Y0067929D01*
X0095882Y0067535D01*
X0092126Y0067535D01*
X0092126Y0066302D01*
X0091929Y0066642D01*
X0091633Y0066938D01*
X0091271Y0067148D01*
X0091159Y0067177D01*
X0091367Y0067680D01*
X0091478Y0068236D01*
X0091478Y0068520D01*
X0091478Y0068803D01*
X0091367Y0069360D01*
X0091150Y0069884D01*
X0090835Y0070355D01*
X0090434Y0070756D01*
X0089962Y0071071D01*
X0089945Y0071079D01*
X0089962Y0071086D01*
X0090434Y0071401D01*
X0090835Y0071802D01*
X0091150Y0072274D01*
X0091367Y0072798D01*
X0091478Y0073354D01*
X0091478Y0073638D01*
X0088599Y0073638D01*
X0088599Y0073638D01*
X0088598Y0073638D02*
X0088598Y0068520D01*
X0088598Y0068520D01*
X0088599Y0068520D02*
X0091478Y0068520D01*
X0088599Y0068520D01*
X0088599Y0068520D01*
X0088598Y0069222D02*
X0088598Y0069222D01*
X0088598Y0070402D02*
X0088598Y0070402D01*
X0088598Y0071581D02*
X0088598Y0071581D01*
X0088598Y0072761D02*
X0088598Y0072761D01*
X0088598Y0073941D02*
X0088598Y0073941D01*
X0088598Y0075120D02*
X0088598Y0075120D01*
X0088598Y0076300D02*
X0088598Y0076300D01*
X0088598Y0077480D02*
X0088598Y0077480D01*
X0088598Y0078659D02*
X0088598Y0078659D01*
X0088599Y0078756D02*
X0088599Y0078756D01*
X0091478Y0078756D01*
X0088599Y0078756D01*
X0088791Y0079839D02*
X0088865Y0079913D01*
X0088939Y0079839D01*
X0086339Y0079839D02*
X0086265Y0079913D01*
X0086191Y0079839D01*
X0083739Y0079839D02*
X0083665Y0079913D01*
X0083591Y0079839D01*
X0081139Y0079839D02*
X0081065Y0079913D01*
X0080991Y0079839D01*
X0078539Y0079839D02*
X0078465Y0079913D01*
X0078391Y0079839D01*
X0075939Y0079839D02*
X0075865Y0079913D01*
X0075791Y0079839D01*
X0073339Y0079839D02*
X0073265Y0079913D01*
X0073191Y0079839D01*
X0073244Y0078756D02*
X0073244Y0076517D01*
X0073244Y0074228D01*
X0073244Y0078756D01*
X0073244Y0078756D01*
X0073244Y0078659D02*
X0073244Y0078659D01*
X0073244Y0077480D02*
X0073244Y0077480D01*
X0073244Y0076300D02*
X0073244Y0076300D01*
X0073244Y0075120D02*
X0073244Y0075120D01*
X0073244Y0074228D02*
X0073244Y0074228D01*
X0073244Y0073047D02*
X0073244Y0068520D01*
X0073244Y0071399D01*
X0073244Y0073047D01*
X0073244Y0073047D01*
X0073244Y0072761D02*
X0073244Y0072761D01*
X0073244Y0071581D02*
X0073244Y0071581D01*
X0073244Y0070402D02*
X0073244Y0070402D01*
X0073244Y0069222D02*
X0073244Y0069222D01*
X0073244Y0068520D02*
X0073244Y0068520D01*
X0070739Y0079839D02*
X0070665Y0079913D01*
X0070591Y0079839D01*
X0068139Y0079839D02*
X0068065Y0079913D01*
X0067991Y0079839D01*
X0065539Y0079839D02*
X0065465Y0079913D01*
X0065391Y0079839D01*
X0062939Y0079839D02*
X0062865Y0079913D01*
X0062791Y0079839D01*
X0060339Y0079839D02*
X0060265Y0079913D01*
X0060191Y0079839D01*
X0057890Y0078659D02*
X0057890Y0078659D01*
X0057890Y0077480D02*
X0057890Y0077480D01*
X0057890Y0076300D02*
X0057890Y0076300D01*
X0057890Y0075120D02*
X0057890Y0075120D01*
X0057890Y0073941D02*
X0057890Y0073941D01*
X0057890Y0072761D02*
X0057890Y0072761D01*
X0057890Y0071581D02*
X0057890Y0071581D01*
X0057890Y0070402D02*
X0057890Y0070402D01*
X0057890Y0069222D02*
X0057890Y0069222D01*
X0055700Y0070402D02*
X0028120Y0070402D01*
X0028358Y0070500D02*
X0027339Y0070078D01*
X0026236Y0070078D01*
X0025217Y0070500D01*
X0024437Y0071280D01*
X0024015Y0072299D01*
X0024015Y0073402D01*
X0024437Y0074421D01*
X0025217Y0075200D01*
X0026236Y0075622D01*
X0027339Y0075622D01*
X0028358Y0075200D01*
X0029137Y0074421D01*
X0029559Y0073402D01*
X0029559Y0072299D01*
X0029137Y0071280D01*
X0028358Y0070500D01*
X0029262Y0071581D02*
X0055874Y0071581D01*
X0055136Y0072761D02*
X0029559Y0072761D01*
X0029336Y0073941D02*
X0055014Y0073941D01*
X0054346Y0073941D02*
X0091354Y0073941D01*
X0091474Y0073941D02*
X0091945Y0073941D01*
X0091945Y0075120D02*
X0091071Y0075120D01*
X0091354Y0075120D02*
X0054346Y0075120D01*
X0055417Y0075120D02*
X0028438Y0075120D01*
X0025137Y0075120D02*
X0015370Y0075120D01*
X0015370Y0073941D02*
X0024239Y0073941D01*
X0024015Y0072761D02*
X0015370Y0072761D01*
X0015370Y0071581D02*
X0024313Y0071581D01*
X0025455Y0070402D02*
X0015370Y0070402D01*
X0015370Y0069222D02*
X0018567Y0069222D01*
X0018652Y0069307D02*
X0017614Y0068269D01*
X0017614Y0054991D01*
X0018629Y0053976D01*
X0018520Y0053714D01*
X0018520Y0052968D01*
X0018180Y0052968D01*
X0017142Y0051931D01*
X0017142Y0047313D01*
X0018180Y0046276D01*
X0021281Y0046276D01*
X0021856Y0045701D01*
X0021472Y0045701D01*
X0021472Y0042732D01*
X0021079Y0042732D01*
X0021079Y0042339D01*
X0017323Y0042339D01*
X0017323Y0040751D01*
X0017431Y0040347D01*
X0017641Y0039984D01*
X0017937Y0039688D01*
X0018299Y0039478D01*
X0018704Y0039370D01*
X0021079Y0039370D01*
X0021079Y0042338D01*
X0021472Y0042338D01*
X0021472Y0039370D01*
X0022590Y0039370D01*
X0022504Y0039320D01*
X0022208Y0039024D01*
X0021998Y0038661D01*
X0021890Y0038257D01*
X0021890Y0036472D01*
X0028598Y0036472D01*
X0028598Y0035685D01*
X0021890Y0035685D01*
X0021890Y0033901D01*
X0021998Y0033496D01*
X0022208Y0033134D01*
X0022504Y0032837D01*
X0022866Y0032628D01*
X0023271Y0032520D01*
X0028598Y0032520D01*
X0028598Y0035685D01*
X0029386Y0035685D01*
X0029386Y0036472D01*
X0036094Y0036472D01*
X0036094Y0038257D01*
X0035986Y0038661D01*
X0035777Y0039024D01*
X0035481Y0039320D01*
X0035118Y0039529D01*
X0034713Y0039638D01*
X0029386Y0039638D01*
X0029386Y0036473D01*
X0028598Y0036473D01*
X0028598Y0039638D01*
X0028204Y0039638D01*
X0028350Y0039784D01*
X0028772Y0040803D01*
X0028772Y0041906D01*
X0028461Y0042658D01*
X0029145Y0042941D01*
X0029925Y0043721D01*
X0030347Y0044740D01*
X0030347Y0045843D01*
X0029925Y0046862D01*
X0029145Y0047641D01*
X0028126Y0048063D01*
X0027417Y0048063D01*
X0028358Y0048453D01*
X0029137Y0049233D01*
X0029559Y0050252D01*
X0029559Y0051355D01*
X0029137Y0052373D01*
X0028358Y0053153D01*
X0027339Y0053575D01*
X0026236Y0053575D01*
X0025217Y0053153D01*
X0024702Y0052638D01*
X0024674Y0052666D01*
X0024872Y0052864D01*
X0025291Y0053877D01*
X0025291Y0053953D01*
X0026419Y0053953D01*
X0027246Y0054780D01*
X0027587Y0053957D01*
X0028367Y0053178D01*
X0029386Y0052756D01*
X0030488Y0052756D01*
X0031507Y0053178D01*
X0032287Y0053957D01*
X0032709Y0054976D01*
X0032709Y0056079D01*
X0032287Y0057098D01*
X0031507Y0057878D01*
X0030488Y0058300D01*
X0029386Y0058300D01*
X0028367Y0057878D01*
X0027587Y0057098D01*
X0027457Y0056783D01*
X0027457Y0068269D01*
X0026419Y0069307D01*
X0018652Y0069307D01*
X0017614Y0068043D02*
X0015370Y0068043D01*
X0015370Y0066863D02*
X0017614Y0066863D01*
X0017614Y0065683D02*
X0015370Y0065683D01*
X0015370Y0064504D02*
X0017614Y0064504D01*
X0017614Y0063324D02*
X0015370Y0063324D01*
X0015370Y0062145D02*
X0017614Y0062145D01*
X0017614Y0060965D02*
X0015370Y0060965D01*
X0015370Y0059785D02*
X0017614Y0059785D01*
X0017614Y0058606D02*
X0015370Y0058606D01*
X0015370Y0057426D02*
X0017614Y0057426D01*
X0017614Y0056246D02*
X0015370Y0056246D01*
X0015370Y0055067D02*
X0017614Y0055067D01*
X0018592Y0053887D02*
X0015370Y0053887D01*
X0015370Y0052708D02*
X0017919Y0052708D01*
X0017142Y0051528D02*
X0015370Y0051528D01*
X0015370Y0050348D02*
X0017142Y0050348D01*
X0017142Y0049169D02*
X0015370Y0049169D01*
X0015370Y0047989D02*
X0017142Y0047989D01*
X0017646Y0046810D02*
X0015370Y0046810D01*
X0015370Y0045630D02*
X0018440Y0045630D01*
X0018299Y0045592D02*
X0017937Y0045383D01*
X0017641Y0045087D01*
X0017431Y0044724D01*
X0017323Y0044320D01*
X0017323Y0042732D01*
X0021079Y0042732D01*
X0021079Y0045701D01*
X0018704Y0045701D01*
X0018299Y0045592D01*
X0017358Y0044450D02*
X0015370Y0044450D01*
X0015370Y0043271D02*
X0017323Y0043271D01*
X0017323Y0042091D02*
X0015370Y0042091D01*
X0015370Y0040912D02*
X0017323Y0040912D01*
X0017893Y0039732D02*
X0015370Y0039732D01*
X0015370Y0038552D02*
X0021969Y0038552D01*
X0021890Y0037373D02*
X0015370Y0037373D01*
X0015370Y0036193D02*
X0028598Y0036193D01*
X0029386Y0036193D02*
X0040213Y0036193D01*
X0040213Y0035013D02*
X0036094Y0035013D01*
X0036094Y0035685D02*
X0029386Y0035685D01*
X0029386Y0032520D01*
X0034713Y0032520D01*
X0035118Y0032628D01*
X0035481Y0032837D01*
X0035777Y0033134D01*
X0035986Y0033496D01*
X0036094Y0033901D01*
X0036094Y0035685D01*
X0036094Y0037373D02*
X0040213Y0037373D01*
X0040213Y0038552D02*
X0036015Y0038552D01*
X0036077Y0033834D02*
X0040213Y0033834D01*
X0040935Y0032654D02*
X0035163Y0032654D01*
X0029386Y0032654D02*
X0028598Y0032654D01*
X0028598Y0033834D02*
X0029386Y0033834D01*
X0029386Y0035013D02*
X0028598Y0035013D01*
X0028598Y0037373D02*
X0029386Y0037373D01*
X0029386Y0038552D02*
X0028598Y0038552D01*
X0028298Y0039732D02*
X0041163Y0039732D01*
X0043327Y0041367D02*
X0042548Y0042146D01*
X0042126Y0043165D01*
X0042126Y0044268D01*
X0042548Y0045287D01*
X0043327Y0046067D01*
X0044346Y0046489D01*
X0045449Y0046489D01*
X0046468Y0046067D01*
X0047248Y0045287D01*
X0047670Y0044268D01*
X0047670Y0043165D01*
X0047248Y0042146D01*
X0046468Y0041367D01*
X0045449Y0040944D01*
X0044346Y0040944D01*
X0043327Y0041367D01*
X0042603Y0042091D02*
X0028695Y0042091D01*
X0028772Y0040912D02*
X0067002Y0040912D01*
X0067002Y0042091D02*
X0047192Y0042091D01*
X0047670Y0043271D02*
X0067002Y0043271D01*
X0067002Y0044450D02*
X0047594Y0044450D01*
X0046904Y0045630D02*
X0067002Y0045630D01*
X0067002Y0046810D02*
X0029946Y0046810D01*
X0030347Y0045630D02*
X0042891Y0045630D01*
X0042201Y0044450D02*
X0030227Y0044450D01*
X0029474Y0043271D02*
X0042126Y0043271D01*
X0043559Y0048031D02*
X0044662Y0048031D01*
X0045680Y0048453D01*
X0046460Y0049233D01*
X0046865Y0050209D01*
X0047040Y0050108D01*
X0047444Y0050000D01*
X0049819Y0050000D01*
X0049819Y0052968D01*
X0050213Y0052968D01*
X0050213Y0050000D01*
X0052587Y0050000D01*
X0052992Y0050108D01*
X0053355Y0050318D01*
X0053651Y0050614D01*
X0053860Y0050977D01*
X0053968Y0051381D01*
X0053968Y0052968D01*
X0050213Y0052968D01*
X0050213Y0053362D01*
X0053968Y0053362D01*
X0053968Y0054950D01*
X0053860Y0055354D01*
X0053651Y0055717D01*
X0053355Y0056013D01*
X0052992Y0056222D01*
X0052587Y0056331D01*
X0050213Y0056331D01*
X0050213Y0053362D01*
X0049819Y0053362D01*
X0049819Y0052968D01*
X0046063Y0052968D01*
X0046063Y0052771D01*
X0045680Y0053153D01*
X0044662Y0053575D01*
X0043559Y0053575D01*
X0042540Y0053153D01*
X0041760Y0052373D01*
X0041338Y0051355D01*
X0041338Y0050252D01*
X0041760Y0049233D01*
X0042540Y0048453D01*
X0043559Y0048031D01*
X0041824Y0049169D02*
X0029073Y0049169D01*
X0029559Y0050348D02*
X0041338Y0050348D01*
X0041410Y0051528D02*
X0029488Y0051528D01*
X0028803Y0052708D02*
X0042094Y0052708D01*
X0041079Y0054134D02*
X0043847Y0054134D01*
X0044252Y0054242D01*
X0044614Y0054452D01*
X0044911Y0054748D01*
X0045120Y0055110D01*
X0045228Y0055515D01*
X0045228Y0061039D01*
X0041079Y0061039D01*
X0041079Y0062220D01*
X0045228Y0062220D01*
X0045228Y0067745D01*
X0045120Y0068149D01*
X0044911Y0068512D01*
X0044614Y0068808D01*
X0044252Y0069018D01*
X0043847Y0069126D01*
X0041079Y0069126D01*
X0041079Y0062221D01*
X0039898Y0062221D01*
X0039898Y0069126D01*
X0037129Y0069126D01*
X0036725Y0069018D01*
X0036362Y0068808D01*
X0036066Y0068512D01*
X0035856Y0068149D01*
X0035748Y0067745D01*
X0035748Y0062220D01*
X0039898Y0062220D01*
X0039898Y0061039D01*
X0041079Y0061039D01*
X0041079Y0054134D01*
X0041079Y0055067D02*
X0039898Y0055067D01*
X0039898Y0054134D02*
X0039898Y0061039D01*
X0035748Y0061039D01*
X0035748Y0055515D01*
X0035856Y0055110D01*
X0036066Y0054748D01*
X0036362Y0054452D01*
X0036725Y0054242D01*
X0037129Y0054134D01*
X0039898Y0054134D01*
X0039898Y0056246D02*
X0041079Y0056246D01*
X0041079Y0057426D02*
X0039898Y0057426D01*
X0039898Y0058606D02*
X0041079Y0058606D01*
X0041079Y0059785D02*
X0039898Y0059785D01*
X0039898Y0060965D02*
X0041079Y0060965D01*
X0041079Y0062145D02*
X0045613Y0062145D01*
X0045685Y0060965D02*
X0045228Y0060965D01*
X0045228Y0059785D02*
X0045685Y0059785D01*
X0045685Y0058606D02*
X0045228Y0058606D01*
X0045228Y0057426D02*
X0046399Y0057426D01*
X0047040Y0056222D02*
X0046677Y0056013D01*
X0046381Y0055717D01*
X0046171Y0055354D01*
X0046063Y0054950D01*
X0046063Y0053362D01*
X0049819Y0053362D01*
X0049819Y0056331D01*
X0047444Y0056331D01*
X0047040Y0056222D01*
X0047130Y0056246D02*
X0045228Y0056246D01*
X0045095Y0055067D02*
X0046094Y0055067D01*
X0046063Y0053887D02*
X0032217Y0053887D01*
X0032709Y0055067D02*
X0035882Y0055067D01*
X0035748Y0056246D02*
X0032640Y0056246D01*
X0031959Y0057426D02*
X0035748Y0057426D01*
X0035748Y0058606D02*
X0027457Y0058606D01*
X0027457Y0059785D02*
X0035748Y0059785D01*
X0035748Y0060965D02*
X0027457Y0060965D01*
X0027457Y0062145D02*
X0039898Y0062145D01*
X0039898Y0063324D02*
X0041079Y0063324D01*
X0041079Y0064504D02*
X0039898Y0064504D01*
X0039898Y0065683D02*
X0041079Y0065683D01*
X0041079Y0066863D02*
X0039898Y0066863D01*
X0039898Y0068043D02*
X0041079Y0068043D01*
X0045149Y0068043D02*
X0055049Y0068043D01*
X0054346Y0068043D02*
X0091354Y0068043D01*
X0091439Y0068043D02*
X0092126Y0068043D01*
X0092126Y0069222D02*
X0091395Y0069222D01*
X0091354Y0069222D02*
X0054346Y0069222D01*
X0055094Y0069222D02*
X0026504Y0069222D01*
X0027457Y0068043D02*
X0035828Y0068043D01*
X0035748Y0066863D02*
X0027457Y0066863D01*
X0027457Y0065683D02*
X0035748Y0065683D01*
X0035748Y0064504D02*
X0027457Y0064504D01*
X0027457Y0063324D02*
X0035748Y0063324D01*
X0027915Y0057426D02*
X0027457Y0057426D01*
X0027657Y0053887D02*
X0025291Y0053887D01*
X0024772Y0052708D02*
X0024715Y0052708D01*
X0021276Y0049622D02*
X0025606Y0045291D01*
X0027575Y0045291D01*
X0028305Y0047989D02*
X0067002Y0047989D01*
X0067002Y0049169D02*
X0065192Y0049169D01*
X0066281Y0050348D02*
X0067002Y0050348D01*
X0067002Y0051528D02*
X0066567Y0051528D01*
X0066333Y0052708D02*
X0067002Y0052708D01*
X0067002Y0053887D02*
X0066157Y0053887D01*
X0066157Y0055067D02*
X0067002Y0055067D01*
X0067002Y0056246D02*
X0066157Y0056246D01*
X0066156Y0057426D02*
X0067002Y0057426D01*
X0063795Y0056446D02*
X0061565Y0058677D01*
X0059858Y0058677D01*
X0058965Y0059571D01*
X0058965Y0062614D01*
X0055921Y0062270D02*
X0055921Y0058677D01*
X0059071Y0055528D01*
X0060646Y0055528D01*
X0061258Y0052708D02*
X0053968Y0052708D01*
X0053968Y0053887D02*
X0057370Y0053887D01*
X0056191Y0055067D02*
X0053937Y0055067D01*
X0052902Y0056246D02*
X0055011Y0056246D01*
X0055921Y0059465D02*
X0048047Y0059465D01*
X0048047Y0061827D01*
X0055921Y0064976D01*
X0055921Y0059465D01*
X0055921Y0059785D02*
X0048047Y0059785D01*
X0048047Y0060965D02*
X0055921Y0060965D01*
X0055921Y0062145D02*
X0048842Y0062145D01*
X0048379Y0064504D02*
X0045228Y0064504D01*
X0045228Y0065683D02*
X0051328Y0065683D01*
X0051791Y0063324D02*
X0055921Y0063324D01*
X0055921Y0064504D02*
X0054740Y0064504D01*
X0054277Y0066863D02*
X0045228Y0066863D01*
X0045228Y0063324D02*
X0046119Y0063324D01*
X0049819Y0056246D02*
X0050213Y0056246D01*
X0050213Y0055067D02*
X0049819Y0055067D01*
X0049819Y0053887D02*
X0050213Y0053887D01*
X0050213Y0052708D02*
X0049819Y0052708D01*
X0049819Y0051528D02*
X0050213Y0051528D01*
X0050213Y0050348D02*
X0049819Y0050348D01*
X0053385Y0050348D02*
X0061309Y0050348D01*
X0061023Y0051528D02*
X0053968Y0051528D01*
X0046396Y0049169D02*
X0062398Y0049169D01*
X0063795Y0051591D02*
X0063795Y0056446D01*
X0061565Y0058677D02*
X0061565Y0062614D01*
X0054346Y0070402D02*
X0091354Y0070402D01*
X0090789Y0070402D02*
X0092562Y0070402D01*
X0092874Y0071581D02*
X0090614Y0071581D01*
X0091354Y0071581D02*
X0054346Y0071581D01*
X0054346Y0072761D02*
X0091354Y0072761D01*
X0091352Y0072761D02*
X0091945Y0072761D01*
X0091945Y0076300D02*
X0090106Y0076300D01*
X0091354Y0076300D02*
X0054346Y0076300D01*
X0054346Y0077480D02*
X0091354Y0077480D01*
X0091187Y0077480D02*
X0092297Y0077480D01*
X0091672Y0078659D02*
X0091478Y0078659D01*
X0091354Y0078659D02*
X0054346Y0078659D01*
X0055010Y0078659D02*
X0042783Y0078659D01*
X0042783Y0077480D02*
X0055302Y0077480D01*
X0056382Y0076300D02*
X0042280Y0076300D01*
X0042783Y0076804D02*
X0041746Y0075766D01*
X0021278Y0075766D01*
X0020240Y0076804D01*
X0020240Y0100771D01*
X0021278Y0101809D01*
X0027484Y0101809D01*
X0033511Y0120560D01*
X0034981Y0122292D01*
X0037001Y0123329D01*
X0039264Y0123515D01*
X0041426Y0122820D01*
X0043158Y0121350D01*
X0044195Y0119330D01*
X0044381Y0117066D01*
X0039477Y0101809D01*
X0041746Y0101809D01*
X0042783Y0100771D01*
X0042783Y0076804D01*
X0052843Y0081018D02*
X0054384Y0081018D01*
X0054282Y0082198D02*
X0053764Y0082198D01*
X0054150Y0083378D02*
X0054282Y0083378D01*
X0058965Y0084661D02*
X0059071Y0084661D01*
X0059071Y0088598D01*
X0056315Y0091354D01*
X0054209Y0089276D02*
X0042783Y0089276D01*
X0042783Y0090455D02*
X0053484Y0090455D01*
X0053356Y0091635D02*
X0042783Y0091635D01*
X0042783Y0092815D02*
X0053717Y0092815D01*
X0051563Y0093994D02*
X0042783Y0093994D01*
X0042783Y0095174D02*
X0043782Y0095174D01*
X0043809Y0095071D02*
X0044019Y0094708D01*
X0044315Y0094412D01*
X0044677Y0094203D01*
X0045082Y0094094D01*
X0046669Y0094094D01*
X0046669Y0097850D01*
X0047063Y0097850D01*
X0047063Y0094094D01*
X0048650Y0094094D01*
X0049055Y0094203D01*
X0049418Y0094412D01*
X0049714Y0094708D01*
X0049923Y0095071D01*
X0050031Y0095476D01*
X0050031Y0097850D01*
X0047063Y0097850D01*
X0047063Y0098244D01*
X0050031Y0098244D01*
X0050031Y0100619D01*
X0049923Y0101023D01*
X0049714Y0101386D01*
X0049418Y0101682D01*
X0049055Y0101892D01*
X0048650Y0102000D01*
X0047063Y0102000D01*
X0047063Y0098244D01*
X0046669Y0098244D01*
X0046669Y0097850D01*
X0043701Y0097850D01*
X0043701Y0095476D01*
X0043809Y0095071D01*
X0043701Y0096353D02*
X0042783Y0096353D01*
X0042783Y0097533D02*
X0043701Y0097533D01*
X0043701Y0098244D02*
X0046669Y0098244D01*
X0046669Y0102000D01*
X0045082Y0102000D01*
X0044677Y0101892D01*
X0044315Y0101682D01*
X0044019Y0101386D01*
X0043809Y0101023D01*
X0043701Y0100619D01*
X0043701Y0098244D01*
X0043701Y0098713D02*
X0042783Y0098713D01*
X0042783Y0099892D02*
X0043701Y0099892D01*
X0043837Y0101072D02*
X0042483Y0101072D01*
X0039619Y0102251D02*
X0051197Y0102251D01*
X0051197Y0103431D02*
X0039998Y0103431D01*
X0040377Y0104611D02*
X0049489Y0104611D01*
X0048849Y0105790D02*
X0040756Y0105790D01*
X0041135Y0106970D02*
X0048736Y0106970D01*
X0049065Y0108149D02*
X0041515Y0108149D01*
X0041894Y0109329D02*
X0050011Y0109329D01*
X0051124Y0112417D02*
X0053238Y0112417D01*
X0055192Y0113226D01*
X0056687Y0114722D01*
X0057496Y0116675D01*
X0057496Y0118789D01*
X0056687Y0120743D01*
X0055192Y0122238D01*
X0053238Y0123047D01*
X0051124Y0123047D01*
X0049170Y0122238D01*
X0047675Y0120743D01*
X0046866Y0118789D01*
X0046866Y0116675D01*
X0047675Y0114722D01*
X0049170Y0113226D01*
X0051124Y0112417D01*
X0050036Y0112868D02*
X0043031Y0112868D01*
X0043410Y0114048D02*
X0048349Y0114048D01*
X0047466Y0115227D02*
X0043790Y0115227D01*
X0044169Y0116407D02*
X0046977Y0116407D01*
X0046866Y0117586D02*
X0044338Y0117586D01*
X0044242Y0118766D02*
X0046866Y0118766D01*
X0047345Y0119946D02*
X0043879Y0119946D01*
X0043273Y0121125D02*
X0048058Y0121125D01*
X0049332Y0122305D02*
X0042033Y0122305D01*
X0039358Y0123484D02*
X0058333Y0123484D01*
X0058283Y0122305D02*
X0055031Y0122305D01*
X0056305Y0121125D02*
X0058283Y0121125D01*
X0058283Y0119946D02*
X0057017Y0119946D01*
X0057496Y0118766D02*
X0058283Y0118766D01*
X0058283Y0117586D02*
X0057496Y0117586D01*
X0057385Y0116407D02*
X0058283Y0116407D01*
X0058283Y0115227D02*
X0056896Y0115227D01*
X0056013Y0114048D02*
X0058283Y0114048D01*
X0058202Y0112868D02*
X0054326Y0112868D01*
X0053957Y0109329D02*
X0059382Y0109329D01*
X0059775Y0108149D02*
X0054903Y0108149D01*
X0055620Y0106970D02*
X0060168Y0106970D01*
X0060562Y0105790D02*
X0056501Y0105790D01*
X0056709Y0104611D02*
X0060955Y0104611D01*
X0061348Y0103431D02*
X0056709Y0103431D01*
X0056709Y0102251D02*
X0059186Y0102251D01*
X0058284Y0101072D02*
X0057299Y0101072D01*
X0057299Y0099892D02*
X0058268Y0099892D01*
X0058268Y0098713D02*
X0057299Y0098713D01*
X0057299Y0097533D02*
X0058268Y0097533D01*
X0058177Y0096353D02*
X0057299Y0096353D01*
X0059071Y0094110D02*
X0063008Y0093323D01*
X0064402Y0089837D01*
X0064402Y0089386D01*
X0063795Y0089386D01*
X0060646Y0091748D01*
X0059071Y0094110D01*
X0059148Y0093994D02*
X0059651Y0093994D01*
X0059465Y0093717D02*
X0061039Y0091748D01*
X0063008Y0093323D01*
X0063795Y0090961D01*
X0064165Y0090591D01*
X0064165Y0084661D01*
X0066765Y0084661D02*
X0066765Y0093503D01*
X0064976Y0095291D01*
X0064976Y0096866D01*
X0061630Y0098713D02*
X0061236Y0098713D01*
X0061236Y0099892D02*
X0061630Y0099892D01*
X0061630Y0101072D02*
X0061236Y0101072D01*
X0061236Y0102251D02*
X0061630Y0102251D01*
X0063838Y0103431D02*
X0068306Y0103431D01*
X0068520Y0103559D02*
X0066879Y0102575D01*
X0066211Y0102575D01*
X0065209Y0101572D01*
X0064780Y0101315D01*
X0064780Y0101537D01*
X0064314Y0102002D01*
X0060646Y0113008D01*
X0060646Y0122457D01*
X0070882Y0122457D01*
X0068520Y0103559D01*
X0068651Y0104611D02*
X0063445Y0104611D01*
X0063052Y0105790D02*
X0068799Y0105790D01*
X0068946Y0106970D02*
X0062658Y0106970D01*
X0062265Y0108149D02*
X0069093Y0108149D01*
X0069241Y0109329D02*
X0061872Y0109329D01*
X0061479Y0110509D02*
X0069388Y0110509D01*
X0069536Y0111688D02*
X0061086Y0111688D01*
X0060692Y0112868D02*
X0069683Y0112868D01*
X0069831Y0114048D02*
X0060646Y0114048D01*
X0060646Y0115227D02*
X0069978Y0115227D01*
X0070126Y0116407D02*
X0060646Y0116407D01*
X0060646Y0117586D02*
X0070273Y0117586D01*
X0070421Y0118766D02*
X0060646Y0118766D01*
X0060646Y0119946D02*
X0070568Y0119946D01*
X0070715Y0121125D02*
X0060646Y0121125D01*
X0060646Y0122305D02*
X0070863Y0122305D01*
X0072158Y0124664D02*
X0072898Y0124664D01*
X0074031Y0122457D02*
X0071669Y0101984D01*
X0083480Y0117732D01*
X0083480Y0122457D01*
X0074031Y0122457D01*
X0074014Y0122305D02*
X0083480Y0122305D01*
X0083480Y0121125D02*
X0073878Y0121125D01*
X0073742Y0119946D02*
X0083480Y0119946D01*
X0083480Y0118766D02*
X0073606Y0118766D01*
X0073470Y0117586D02*
X0083371Y0117586D01*
X0082486Y0116407D02*
X0073333Y0116407D01*
X0073197Y0115227D02*
X0081601Y0115227D01*
X0080717Y0114048D02*
X0073061Y0114048D01*
X0072925Y0112868D02*
X0079832Y0112868D01*
X0078947Y0111688D02*
X0072789Y0111688D01*
X0072653Y0110509D02*
X0078063Y0110509D01*
X0077178Y0109329D02*
X0072517Y0109329D01*
X0072381Y0108149D02*
X0076293Y0108149D01*
X0075409Y0106970D02*
X0072245Y0106970D01*
X0072108Y0105790D02*
X0074524Y0105790D01*
X0073639Y0104611D02*
X0071972Y0104611D01*
X0071836Y0103431D02*
X0072754Y0103431D01*
X0071870Y0102251D02*
X0071700Y0102251D01*
X0071965Y0101295D02*
X0079740Y0117732D01*
X0083191Y0112868D02*
X0091144Y0112868D01*
X0092914Y0114048D02*
X0084098Y0114048D01*
X0085006Y0115227D02*
X0094683Y0115227D01*
X0096453Y0116407D02*
X0085913Y0116407D01*
X0086821Y0117586D02*
X0098222Y0117586D01*
X0098441Y0117732D02*
X0075705Y0102575D01*
X0075660Y0102575D01*
X0075570Y0102485D01*
X0074943Y0102067D01*
X0075039Y0102270D01*
X0090567Y0122457D01*
X0098441Y0122457D01*
X0098441Y0117732D01*
X0098441Y0118766D02*
X0087728Y0118766D01*
X0088635Y0119946D02*
X0098441Y0119946D01*
X0098441Y0121125D02*
X0089543Y0121125D01*
X0090450Y0122305D02*
X0098441Y0122305D01*
X0100803Y0122305D02*
X0100803Y0122305D01*
X0100803Y0123435D02*
X0100803Y0118948D01*
X0100803Y0118948D01*
X0100803Y0123435D01*
X0100754Y0123484D02*
X0100852Y0123484D01*
X0102032Y0124664D02*
X0099574Y0124664D01*
X0100803Y0121125D02*
X0100803Y0121125D01*
X0100803Y0119946D02*
X0100803Y0119946D01*
X0103165Y0119946D02*
X0111827Y0119946D01*
X0111827Y0121125D02*
X0103165Y0121125D01*
X0103165Y0122305D02*
X0111827Y0122305D01*
X0111827Y0122457D02*
X0111827Y0113008D01*
X0082763Y0102575D01*
X0082746Y0102575D01*
X0082737Y0102565D01*
X0081118Y0101984D01*
X0103165Y0117732D01*
X0103165Y0122457D01*
X0111827Y0122457D01*
X0114189Y0122305D02*
X0114780Y0122305D01*
X0114780Y0123484D02*
X0114140Y0123484D01*
X0114780Y0124664D02*
X0112960Y0124664D01*
X0114780Y0125844D02*
X0011630Y0125844D01*
X0011630Y0126350D02*
X0011630Y0124862D01*
X0011061Y0123488D01*
X0010252Y0122679D01*
X0010252Y0118323D01*
X0011433Y0118323D01*
X0011433Y0122837D01*
X0012045Y0122740D01*
X0012813Y0122490D01*
X0013533Y0122123D01*
X0014187Y0121648D01*
X0014758Y0121077D01*
X0015233Y0120423D01*
X0015600Y0119703D01*
X0015850Y0118934D01*
X0015947Y0118323D01*
X0011433Y0118323D01*
X0011433Y0117142D01*
X0015947Y0117142D01*
X0015850Y0116530D01*
X0015600Y0115762D01*
X0015233Y0115042D01*
X0014758Y0114388D01*
X0014187Y0113816D01*
X0013533Y0113341D01*
X0012813Y0112975D01*
X0012045Y0112725D01*
X0011433Y0112628D01*
X0011433Y0117142D01*
X0010252Y0117142D01*
X0005738Y0117142D01*
X0005835Y0116530D01*
X0006085Y0115762D01*
X0006452Y0115042D01*
X0006927Y0114388D01*
X0007498Y0113816D01*
X0008152Y0113341D01*
X0008872Y0112975D01*
X0009640Y0112725D01*
X0010252Y0112628D01*
X0010252Y0117142D01*
X0010252Y0118323D01*
X0005738Y0118323D01*
X0005835Y0118934D01*
X0006085Y0119703D01*
X0006452Y0120423D01*
X0006927Y0121077D01*
X0007498Y0121648D01*
X0007798Y0121866D01*
X0007146Y0121866D01*
X0005771Y0122436D01*
X0004719Y0123488D01*
X0004150Y0124862D01*
X0004150Y0126350D01*
X0004719Y0127725D01*
X0005771Y0128777D01*
X0007146Y0129346D01*
X0008634Y0129346D01*
X0010008Y0128777D01*
X0011061Y0127725D01*
X0011630Y0126350D01*
X0011351Y0127023D02*
X0114780Y0127023D01*
X0114780Y0128203D02*
X0010583Y0128203D01*
X0011548Y0124664D02*
X0059512Y0124664D01*
X0065961Y0117732D02*
X0064976Y0100803D01*
X0064231Y0102251D02*
X0065888Y0102251D01*
X0068520Y0098441D02*
X0068520Y0095685D01*
X0069365Y0094840D01*
X0069365Y0084661D01*
X0071965Y0084661D02*
X0071965Y0101295D01*
X0074565Y0101336D02*
X0087417Y0115370D01*
X0093520Y0117732D01*
X0096355Y0112868D02*
X0111437Y0112868D01*
X0111827Y0114048D02*
X0098007Y0114048D01*
X0099658Y0115227D02*
X0111827Y0115227D01*
X0111827Y0116407D02*
X0101310Y0116407D01*
X0102961Y0117586D02*
X0111827Y0117586D01*
X0111827Y0118766D02*
X0103165Y0118766D01*
X0107299Y0117732D02*
X0081906Y0101984D01*
X0081512Y0101591D01*
X0081512Y0095882D01*
X0079765Y0092757D01*
X0079765Y0084661D01*
X0082365Y0084661D02*
X0082365Y0090632D01*
X0083480Y0093323D01*
X0085843Y0093717D01*
X0085901Y0093994D02*
X0083163Y0093994D01*
X0083228Y0094110D02*
X0085843Y0094110D01*
X0086173Y0093450D01*
X0083200Y0090477D01*
X0082693Y0090173D01*
X0082127Y0090739D01*
X0082127Y0091846D01*
X0082260Y0092380D01*
X0083228Y0094110D01*
X0082503Y0092815D02*
X0085537Y0092815D01*
X0084357Y0091635D02*
X0082127Y0091635D01*
X0082411Y0090455D02*
X0083163Y0090455D01*
X0084965Y0088902D02*
X0089780Y0093717D01*
X0091354Y0094504D01*
X0094701Y0093994D02*
X0095094Y0093994D01*
X0095094Y0092815D02*
X0094701Y0092815D01*
X0094701Y0092136D02*
X0094701Y0097600D01*
X0093663Y0098638D01*
X0089046Y0098638D01*
X0088220Y0097813D01*
X0088220Y0098244D01*
X0085252Y0098244D01*
X0085252Y0098638D01*
X0088220Y0098638D01*
X0088220Y0101013D01*
X0088112Y0101417D01*
X0087903Y0101780D01*
X0087807Y0101876D01*
X0090944Y0103002D01*
X0090944Y0102220D01*
X0091367Y0101201D01*
X0092146Y0100422D01*
X0093165Y0100000D01*
X0094268Y0100000D01*
X0095252Y0100407D01*
X0095685Y0099363D01*
X0095685Y0098191D01*
X0095094Y0097600D01*
X0095094Y0091742D01*
X0094701Y0092136D01*
X0093323Y0090173D02*
X0096079Y0087417D01*
X0093323Y0090173D02*
X0089583Y0090173D01*
X0087565Y0088155D01*
X0087565Y0084661D01*
X0090165Y0084661D02*
X0094495Y0080331D01*
X0100213Y0079839D02*
X0103165Y0079839D01*
X0103165Y0081018D02*
X0100213Y0081018D01*
X0100213Y0082198D02*
X0103165Y0082198D01*
X0103165Y0083378D02*
X0099474Y0083378D01*
X0099661Y0084557D02*
X0103165Y0084557D01*
X0103165Y0085737D02*
X0100213Y0085737D01*
X0100213Y0086916D02*
X0103165Y0086916D01*
X0103165Y0088096D02*
X0100213Y0088096D01*
X0100213Y0089276D02*
X0103165Y0089276D01*
X0103165Y0090455D02*
X0100835Y0090455D01*
X0101787Y0091635D02*
X0103165Y0091635D01*
X0103165Y0092815D02*
X0101787Y0092815D01*
X0101787Y0093994D02*
X0103165Y0093994D01*
X0103165Y0095174D02*
X0101787Y0095174D01*
X0101787Y0096353D02*
X0103165Y0096353D01*
X0103165Y0097533D02*
X0101787Y0097533D01*
X0101197Y0098713D02*
X0103165Y0098713D01*
X0103165Y0099892D02*
X0101416Y0099892D01*
X0101689Y0101072D02*
X0103165Y0101072D01*
X0103165Y0102251D02*
X0101520Y0102251D01*
X0100800Y0103431D02*
X0103165Y0103431D01*
X0101998Y0106970D02*
X0114780Y0106970D01*
X0114780Y0108149D02*
X0105284Y0108149D01*
X0104865Y0110509D02*
X0093052Y0110509D01*
X0091401Y0109329D02*
X0101579Y0109329D01*
X0098293Y0108149D02*
X0089749Y0108149D01*
X0088098Y0106970D02*
X0095007Y0106970D01*
X0095798Y0104611D02*
X0114780Y0104611D01*
X0114780Y0105790D02*
X0098712Y0105790D01*
X0094704Y0111688D02*
X0108151Y0111688D01*
X0108570Y0109329D02*
X0114780Y0109329D01*
X0114780Y0110509D02*
X0111856Y0110509D01*
X0113848Y0111688D02*
X0114780Y0111688D01*
X0114780Y0112868D02*
X0114373Y0112868D01*
X0114189Y0114048D02*
X0114780Y0114048D01*
X0114780Y0115227D02*
X0114189Y0115227D01*
X0114189Y0116407D02*
X0114780Y0116407D01*
X0114780Y0117586D02*
X0114189Y0117586D01*
X0114189Y0118766D02*
X0114780Y0118766D01*
X0114780Y0119946D02*
X0114189Y0119946D01*
X0114189Y0121125D02*
X0114780Y0121125D01*
X0114780Y0129383D02*
X0003362Y0129383D01*
X0003362Y0130562D02*
X0114780Y0130562D01*
X0091721Y0105790D02*
X0086447Y0105790D01*
X0084795Y0104611D02*
X0088434Y0104611D01*
X0088854Y0102251D02*
X0090944Y0102251D01*
X0091496Y0101072D02*
X0088205Y0101072D01*
X0088220Y0099892D02*
X0095466Y0099892D01*
X0095685Y0098713D02*
X0088220Y0098713D01*
X0085148Y0103431D02*
X0083144Y0103431D01*
X0081862Y0102251D02*
X0081492Y0102251D01*
X0078758Y0104611D02*
X0076839Y0104611D01*
X0076989Y0103431D02*
X0075932Y0103431D01*
X0075220Y0102251D02*
X0075030Y0102251D01*
X0074565Y0101336D02*
X0074565Y0084661D01*
X0077165Y0084661D02*
X0077165Y0095275D01*
X0077969Y0096079D01*
X0077969Y0097654D01*
X0084965Y0088902D02*
X0084965Y0084661D01*
X0094701Y0095174D02*
X0095094Y0095174D01*
X0095094Y0096353D02*
X0094701Y0096353D01*
X0094701Y0097533D02*
X0095094Y0097533D01*
X0085836Y0109329D02*
X0080469Y0109329D01*
X0081376Y0110509D02*
X0087606Y0110509D01*
X0089375Y0111688D02*
X0082284Y0111688D01*
X0084067Y0108149D02*
X0079561Y0108149D01*
X0078654Y0106970D02*
X0082297Y0106970D01*
X0080528Y0105790D02*
X0077747Y0105790D01*
X0085843Y0121125D02*
X0086563Y0121125D01*
X0085843Y0122305D02*
X0087470Y0122305D01*
X0088254Y0123484D02*
X0085793Y0123484D01*
X0084614Y0124664D02*
X0089285Y0124664D01*
X0063211Y0092815D02*
X0059935Y0092815D01*
X0060797Y0091635D02*
X0063683Y0091635D01*
X0064155Y0090455D02*
X0062369Y0090455D01*
X0059824Y0088096D02*
X0059071Y0088096D01*
X0059071Y0088598D02*
X0061433Y0087024D01*
X0061433Y0082299D01*
X0059071Y0082299D01*
X0059071Y0088598D01*
X0059071Y0086916D02*
X0061433Y0086916D01*
X0061433Y0085737D02*
X0059071Y0085737D01*
X0059071Y0084661D02*
X0061565Y0084661D01*
X0061433Y0084557D02*
X0059071Y0084557D01*
X0059071Y0083378D02*
X0061433Y0083378D01*
X0050606Y0095174D02*
X0049951Y0095174D01*
X0050031Y0096353D02*
X0050606Y0096353D01*
X0050606Y0097533D02*
X0050031Y0097533D01*
X0050031Y0098713D02*
X0050606Y0098713D01*
X0050606Y0099892D02*
X0050031Y0099892D01*
X0049895Y0101072D02*
X0050606Y0101072D01*
X0047063Y0101072D02*
X0046669Y0101072D01*
X0046669Y0099892D02*
X0047063Y0099892D01*
X0047063Y0098713D02*
X0046669Y0098713D01*
X0046669Y0097533D02*
X0047063Y0097533D01*
X0047063Y0096353D02*
X0046669Y0096353D01*
X0046669Y0095174D02*
X0047063Y0095174D01*
X0042273Y0110509D02*
X0058989Y0110509D01*
X0058596Y0111688D02*
X0042652Y0111688D01*
X0033314Y0119946D02*
X0029458Y0119946D01*
X0029128Y0120743D02*
X0027633Y0122238D01*
X0025679Y0123047D01*
X0023565Y0123047D01*
X0021611Y0122238D01*
X0020116Y0120743D01*
X0019307Y0118789D01*
X0019307Y0116675D01*
X0020116Y0114722D01*
X0021611Y0113226D01*
X0023565Y0112417D01*
X0025679Y0112417D01*
X0027633Y0113226D01*
X0029128Y0114722D01*
X0029937Y0116675D01*
X0029937Y0118789D01*
X0029128Y0120743D01*
X0028746Y0121125D02*
X0033991Y0121125D01*
X0035006Y0122305D02*
X0027472Y0122305D01*
X0029937Y0118766D02*
X0032934Y0118766D01*
X0032555Y0117586D02*
X0029937Y0117586D01*
X0029826Y0116407D02*
X0032176Y0116407D01*
X0031797Y0115227D02*
X0029337Y0115227D01*
X0028454Y0114048D02*
X0031418Y0114048D01*
X0031039Y0112868D02*
X0026767Y0112868D01*
X0030659Y0111688D02*
X0003362Y0111688D01*
X0003362Y0110509D02*
X0030280Y0110509D01*
X0029901Y0109329D02*
X0003362Y0109329D01*
X0003362Y0108149D02*
X0029522Y0108149D01*
X0029143Y0106970D02*
X0003362Y0106970D01*
X0003362Y0105790D02*
X0028764Y0105790D01*
X0028384Y0104611D02*
X0003362Y0104611D01*
X0003362Y0112868D02*
X0009200Y0112868D01*
X0010252Y0112868D02*
X0011433Y0112868D01*
X0012485Y0112868D02*
X0022477Y0112868D01*
X0020790Y0114048D02*
X0014418Y0114048D01*
X0015328Y0115227D02*
X0019907Y0115227D01*
X0019418Y0116407D02*
X0015810Y0116407D01*
X0015877Y0118766D02*
X0019307Y0118766D01*
X0019307Y0117586D02*
X0011433Y0117586D01*
X0011433Y0116407D02*
X0010252Y0116407D01*
X0010252Y0117586D02*
X0003362Y0117586D01*
X0003362Y0116407D02*
X0005875Y0116407D01*
X0006357Y0115227D02*
X0003362Y0115227D01*
X0003362Y0114048D02*
X0007267Y0114048D01*
X0010252Y0114048D02*
X0011433Y0114048D01*
X0011433Y0115227D02*
X0010252Y0115227D01*
X0010252Y0118766D02*
X0011433Y0118766D01*
X0011433Y0119946D02*
X0010252Y0119946D01*
X0010252Y0121125D02*
X0011433Y0121125D01*
X0011433Y0122305D02*
X0010252Y0122305D01*
X0011057Y0123484D02*
X0038897Y0123484D01*
X0021773Y0122305D02*
X0013177Y0122305D01*
X0014710Y0121125D02*
X0020499Y0121125D01*
X0019786Y0119946D02*
X0015477Y0119946D01*
X0006975Y0121125D02*
X0003362Y0121125D01*
X0003362Y0119946D02*
X0006208Y0119946D01*
X0005808Y0118766D02*
X0003362Y0118766D01*
X0003362Y0122305D02*
X0006087Y0122305D01*
X0004722Y0123484D02*
X0003362Y0123484D01*
X0003362Y0124664D02*
X0004232Y0124664D01*
X0004150Y0125844D02*
X0003362Y0125844D01*
X0003362Y0127023D02*
X0004428Y0127023D01*
X0005197Y0128203D02*
X0003362Y0128203D01*
X0015370Y0103431D02*
X0028005Y0103431D01*
X0027626Y0102251D02*
X0015370Y0102251D01*
X0015370Y0101072D02*
X0020541Y0101072D01*
X0020240Y0099892D02*
X0015370Y0099892D01*
X0015370Y0098713D02*
X0020240Y0098713D01*
X0020240Y0097533D02*
X0015370Y0097533D01*
X0015370Y0096353D02*
X0020240Y0096353D01*
X0020240Y0095174D02*
X0015370Y0095174D01*
X0015370Y0093994D02*
X0020240Y0093994D01*
X0020240Y0092815D02*
X0015370Y0092815D01*
X0015370Y0091635D02*
X0020240Y0091635D01*
X0020240Y0090455D02*
X0015370Y0090455D01*
X0015370Y0089276D02*
X0020240Y0089276D01*
X0020240Y0088096D02*
X0015370Y0088096D01*
X0015370Y0086916D02*
X0020240Y0086916D01*
X0020240Y0085737D02*
X0015370Y0085737D01*
X0015370Y0084557D02*
X0020240Y0084557D01*
X0020240Y0083378D02*
X0015370Y0083378D01*
X0015370Y0082198D02*
X0020240Y0082198D01*
X0020240Y0081018D02*
X0015370Y0081018D01*
X0015370Y0079839D02*
X0020240Y0079839D01*
X0020240Y0078659D02*
X0015370Y0078659D01*
X0015370Y0077480D02*
X0020240Y0077480D01*
X0020744Y0076300D02*
X0015370Y0076300D01*
X0021079Y0045630D02*
X0021472Y0045630D01*
X0021472Y0044450D02*
X0021079Y0044450D01*
X0021079Y0043271D02*
X0021472Y0043271D01*
X0021472Y0042091D02*
X0021079Y0042091D01*
X0021079Y0040912D02*
X0021472Y0040912D01*
X0021472Y0039732D02*
X0021079Y0039732D01*
X0021890Y0035013D02*
X0015370Y0035013D01*
X0015370Y0033834D02*
X0021908Y0033834D01*
X0022821Y0032654D02*
X0015370Y0032654D01*
X0015370Y0031475D02*
X0043114Y0031475D01*
X0041935Y0030295D02*
X0015370Y0030295D01*
X0015370Y0029115D02*
X0040840Y0029115D01*
X0040351Y0027936D02*
X0015370Y0027936D01*
X0015370Y0026756D02*
X0040331Y0026756D01*
X0040331Y0025577D02*
X0015370Y0025577D01*
X0015370Y0024397D02*
X0040331Y0024397D01*
X0040298Y0023217D02*
X0037587Y0023217D01*
X0037547Y0023257D02*
X0037185Y0023466D01*
X0036780Y0023575D01*
X0034661Y0023575D01*
X0034661Y0014307D01*
X0033480Y0014307D01*
X0033480Y0013126D01*
X0029980Y0013126D01*
X0029980Y0005239D01*
X0030089Y0004835D01*
X0030298Y0004472D01*
X0030594Y0004176D01*
X0030957Y0003967D01*
X0031361Y0003858D01*
X0033480Y0003858D01*
X0033480Y0013126D01*
X0034661Y0013126D01*
X0034661Y0003858D01*
X0036780Y0003858D01*
X0037185Y0003967D01*
X0037547Y0004176D01*
X0037844Y0004472D01*
X0038053Y0004835D01*
X0038161Y0005239D01*
X0038161Y0013126D01*
X0034661Y0013126D01*
X0034661Y0014307D01*
X0038161Y0014307D01*
X0038161Y0022194D01*
X0038053Y0022598D01*
X0037844Y0022961D01*
X0037547Y0023257D01*
X0038161Y0022038D02*
X0039799Y0022038D01*
X0039799Y0020858D02*
X0038161Y0020858D01*
X0038161Y0019678D02*
X0039799Y0019678D01*
X0039799Y0018499D02*
X0038161Y0018499D01*
X0038161Y0017319D02*
X0039799Y0017319D01*
X0039799Y0016140D02*
X0038161Y0016140D01*
X0038161Y0014960D02*
X0039799Y0014960D01*
X0039799Y0013780D02*
X0034661Y0013780D01*
X0034661Y0012601D02*
X0033480Y0012601D01*
X0033480Y0013780D02*
X0024661Y0013780D01*
X0024661Y0014307D02*
X0028161Y0014307D01*
X0028161Y0022194D01*
X0028053Y0022598D01*
X0027844Y0022961D01*
X0027547Y0023257D01*
X0027185Y0023466D01*
X0026780Y0023575D01*
X0024661Y0023575D01*
X0024661Y0014307D01*
X0023480Y0014307D01*
X0023480Y0013126D01*
X0019980Y0013126D01*
X0019980Y0005239D01*
X0020089Y0004835D01*
X0020298Y0004472D01*
X0020594Y0004176D01*
X0020957Y0003967D01*
X0021361Y0003858D01*
X0023480Y0003858D01*
X0023480Y0013126D01*
X0024661Y0013126D01*
X0024661Y0003858D01*
X0026780Y0003858D01*
X0027185Y0003967D01*
X0027547Y0004176D01*
X0027844Y0004472D01*
X0028053Y0004835D01*
X0028161Y0005239D01*
X0028161Y0013126D01*
X0024661Y0013126D01*
X0024661Y0014307D01*
X0024661Y0014960D02*
X0023480Y0014960D01*
X0023480Y0014307D02*
X0023480Y0023575D01*
X0021361Y0023575D01*
X0020957Y0023466D01*
X0020594Y0023257D01*
X0020298Y0022961D01*
X0020089Y0022598D01*
X0019980Y0022194D01*
X0019980Y0014307D01*
X0023480Y0014307D01*
X0023480Y0013780D02*
X0015843Y0013780D01*
X0015843Y0012601D02*
X0019980Y0012601D01*
X0019980Y0011421D02*
X0015843Y0011421D01*
X0015843Y0010242D02*
X0019980Y0010242D01*
X0019980Y0009062D02*
X0015843Y0009062D01*
X0015843Y0007882D02*
X0019980Y0007882D01*
X0019980Y0006703D02*
X0015843Y0006703D01*
X0015843Y0005523D02*
X0019980Y0005523D01*
X0020427Y0004343D02*
X0015843Y0004343D01*
X0023480Y0004343D02*
X0024661Y0004343D01*
X0024661Y0005523D02*
X0023480Y0005523D01*
X0023480Y0006703D02*
X0024661Y0006703D01*
X0024661Y0007882D02*
X0023480Y0007882D01*
X0023480Y0009062D02*
X0024661Y0009062D01*
X0024661Y0010242D02*
X0023480Y0010242D01*
X0023480Y0011421D02*
X0024661Y0011421D01*
X0024661Y0012601D02*
X0023480Y0012601D01*
X0023480Y0016140D02*
X0024661Y0016140D01*
X0024661Y0017319D02*
X0023480Y0017319D01*
X0023480Y0018499D02*
X0024661Y0018499D01*
X0024661Y0019678D02*
X0023480Y0019678D01*
X0023480Y0020858D02*
X0024661Y0020858D01*
X0024661Y0022038D02*
X0023480Y0022038D01*
X0023480Y0023217D02*
X0024661Y0023217D01*
X0027587Y0023217D02*
X0030555Y0023217D01*
X0030594Y0023257D02*
X0030298Y0022961D01*
X0030089Y0022598D01*
X0029980Y0022194D01*
X0029980Y0014307D01*
X0033480Y0014307D01*
X0033480Y0023575D01*
X0031361Y0023575D01*
X0030957Y0023466D01*
X0030594Y0023257D01*
X0029980Y0022038D02*
X0028161Y0022038D01*
X0028161Y0020858D02*
X0029980Y0020858D01*
X0029980Y0019678D02*
X0028161Y0019678D01*
X0028161Y0018499D02*
X0029980Y0018499D01*
X0029980Y0017319D02*
X0028161Y0017319D01*
X0028161Y0016140D02*
X0029980Y0016140D01*
X0029980Y0014960D02*
X0028161Y0014960D01*
X0028161Y0012601D02*
X0029980Y0012601D01*
X0029980Y0011421D02*
X0028161Y0011421D01*
X0028161Y0010242D02*
X0029980Y0010242D01*
X0029980Y0009062D02*
X0028161Y0009062D01*
X0028161Y0007882D02*
X0029980Y0007882D01*
X0029980Y0006703D02*
X0028161Y0006703D01*
X0028161Y0005523D02*
X0029980Y0005523D01*
X0030427Y0004343D02*
X0027715Y0004343D01*
X0033480Y0004343D02*
X0034661Y0004343D01*
X0034661Y0005523D02*
X0033480Y0005523D01*
X0033480Y0006703D02*
X0034661Y0006703D01*
X0034661Y0007882D02*
X0033480Y0007882D01*
X0033480Y0009062D02*
X0034661Y0009062D01*
X0034661Y0010242D02*
X0033480Y0010242D01*
X0033480Y0011421D02*
X0034661Y0011421D01*
X0038161Y0011421D02*
X0039799Y0011421D01*
X0039799Y0010242D02*
X0038161Y0010242D01*
X0038161Y0009062D02*
X0039799Y0009062D01*
X0039799Y0007882D02*
X0038161Y0007882D01*
X0038161Y0006703D02*
X0039799Y0006703D01*
X0039799Y0005523D02*
X0038161Y0005523D01*
X0037715Y0004343D02*
X0040171Y0004343D01*
X0039799Y0012601D02*
X0038161Y0012601D01*
X0034661Y0014960D02*
X0033480Y0014960D01*
X0033480Y0016140D02*
X0034661Y0016140D01*
X0034661Y0017319D02*
X0033480Y0017319D01*
X0033480Y0018499D02*
X0034661Y0018499D01*
X0034661Y0019678D02*
X0033480Y0019678D01*
X0033480Y0020858D02*
X0034661Y0020858D01*
X0034661Y0022038D02*
X0033480Y0022038D01*
X0033480Y0023217D02*
X0034661Y0023217D01*
X0047843Y0023217D02*
X0050298Y0023217D01*
X0048975Y0026756D02*
X0057874Y0026756D01*
X0057958Y0027936D02*
X0050154Y0027936D01*
X0050943Y0029115D02*
X0058660Y0029115D01*
X0062632Y0029115D02*
X0063384Y0029115D01*
X0067002Y0030295D02*
X0051236Y0030295D01*
X0051236Y0031475D02*
X0067002Y0031475D01*
X0067002Y0032654D02*
X0054057Y0032654D01*
X0054780Y0033834D02*
X0067002Y0033834D01*
X0067002Y0035013D02*
X0054780Y0035013D01*
X0054780Y0036193D02*
X0067002Y0036193D01*
X0067002Y0037373D02*
X0054780Y0037373D01*
X0054780Y0038552D02*
X0067002Y0038552D01*
X0067002Y0039732D02*
X0053829Y0039732D01*
X0079150Y0018520D02*
X0084268Y0018520D01*
X0084071Y0018323D01*
X0084071Y0013717D01*
X0091941Y0058606D02*
X0092507Y0058606D01*
X0096501Y0058606D02*
X0103165Y0058606D01*
X0103165Y0059785D02*
X0097707Y0059785D01*
X0098195Y0060965D02*
X0103165Y0060965D01*
X0103165Y0062145D02*
X0098244Y0062145D01*
X0097932Y0063324D02*
X0103165Y0063324D01*
X0103165Y0064504D02*
X0097116Y0064504D01*
X0099961Y0065683D02*
X0103165Y0065683D01*
X0103165Y0066863D02*
X0100031Y0066863D01*
X0100031Y0068043D02*
X0103165Y0068043D01*
X0103165Y0069222D02*
X0100031Y0069222D01*
X0099596Y0070402D02*
X0103165Y0070402D01*
X0103165Y0071581D02*
X0099284Y0071581D01*
X0100213Y0072761D02*
X0103165Y0072761D01*
X0103165Y0073941D02*
X0100213Y0073941D01*
X0100213Y0075120D02*
X0103165Y0075120D01*
X0103165Y0076300D02*
X0100213Y0076300D01*
X0099861Y0077480D02*
X0103165Y0077480D01*
X0103165Y0078659D02*
X0100213Y0078659D01*
X0092126Y0066863D02*
X0091708Y0066863D01*
X0020555Y0023217D02*
X0015370Y0023217D01*
X0015843Y0022038D02*
X0019980Y0022038D01*
X0019980Y0020858D02*
X0015843Y0020858D01*
X0015843Y0019678D02*
X0019980Y0019678D01*
X0019980Y0018499D02*
X0015843Y0018499D01*
X0015843Y0017319D02*
X0019980Y0017319D01*
X0019980Y0016140D02*
X0015843Y0016140D01*
X0015843Y0014960D02*
X0019980Y0014960D01*
D26*
X0018520Y0016945D03*
X0017732Y0021669D03*
X0018520Y0011433D03*
X0017732Y0005921D03*
X0028756Y0005134D03*
X0029150Y0009858D03*
X0028756Y0013795D03*
X0029150Y0017732D03*
X0028756Y0021669D03*
X0026000Y0041354D03*
X0027575Y0045291D03*
X0026787Y0050803D03*
X0029937Y0055528D03*
X0044110Y0050803D03*
X0044898Y0043717D03*
X0060646Y0055528D03*
X0063795Y0051591D03*
X0077969Y0057102D03*
X0082693Y0056315D03*
X0087417Y0057102D03*
X0094504Y0035843D03*
X0079150Y0018520D03*
X0079150Y0013795D03*
X0065370Y0027181D03*
X0060646Y0027181D03*
X0049622Y0016945D03*
X0048835Y0013795D03*
X0049622Y0009858D03*
X0048835Y0005921D03*
X0048835Y0020094D03*
X0076394Y0031906D03*
X0026787Y0072850D03*
X0059465Y0093717D03*
X0061039Y0091748D03*
X0063008Y0093323D03*
X0063795Y0090961D03*
X0082693Y0090961D03*
X0083480Y0093323D03*
X0085843Y0093717D03*
X0094504Y0098835D03*
X0093717Y0102772D03*
D27*
X0098441Y0101197D02*
X0098441Y0094504D01*
X0096079Y0074819D02*
X0096079Y0072063D01*
X0053953Y0098047D02*
X0053953Y0104740D01*
X0051984Y0106709D01*
X0022535Y0061630D02*
X0022535Y0054425D01*
X0021276Y0053165D01*
X0021276Y0049622D01*
D28*
X0059465Y0103953D03*
X0051984Y0106709D03*
X0098441Y0101197D03*
D29*
X0096079Y0072063D03*
X0056315Y0091354D03*
X0037811Y0088598D03*
X0037811Y0095685D03*
X0031512Y0095685D03*
X0025213Y0095685D03*
X0025213Y0088598D03*
X0031512Y0088598D03*
X0031512Y0080724D03*
X0025213Y0080724D03*
X0037811Y0080724D03*
D30*
X0031512Y0095685D02*
X0038598Y0117732D01*
D31*
X0094495Y0080331D02*
X0096079Y0080331D01*
D32*
X0077969Y0097654D02*
X0077969Y0098441D01*
X0064976Y0096866D02*
X0064976Y0100803D01*
D33*
X0056365Y0062614D02*
X0055921Y0062270D01*
M02*
