  0
SECTION
  2
HEADER
  9
$ACADVER
  1
AC1015
  9
$ACADMAINTVER
 70
     6
  9
$DWGCODEPAGE
  3
ANSI_1253
  9
$INSBASE
 10
0.0
 20
0.0
 30
0.0
  9
$EXTMIN
 10
1.205933
 20
2.655442
 30
0.0
  9
$EXTMAX
 10
5.751998
 20
6.59245
 30
0.0
  9
$LIMMIN
 10
0.0
 20
0.0
  9
$LIMMAX
 10
0.0
 20
0.0
  9
$ORTHOMODE
 70
     0
  9
$REGENMODE
 70
     1
  9
$FILLMODE
 70
     1
  9
$QTEXTMODE
 70
     0
  9
$MIRRTEXT
 70
     1
  9
$LTSCALE
 40
1.0
  9
$ATTMODE
 70
     1
  9
$TEXTSIZE
 40
0.2
  9
$TRACEWID
 40
0.05
  9
$TEXTSTYLE
  7
Standard
  9
$CLAYER
  8
0
  9
$CELTYPE
  6
Continuous
  9
$CECOLOR
 62
   256
  9
$CELTSCALE
 40
1.0
  9
$DISPSILH
 70
     0
  9
$DIMSCALE
 40
1.0
  9
$DIMASZ
 40
0.18
  9
$DIMEXO
 40
0.0625
  9
$DIMDLI
 40
0.38
  9
$DIMRND
 40
0.0
  9
$DIMDLE
 40
0.0
  9
$DIMEXE
 40
0.18
  9
$DIMTP
 40
0.0
  9
$DIMTM
 40
0.0
  9
$DIMTXT
 40
0.18
  9
$DIMCEN
 40
0.09
  9
$DIMTSZ
 40
0.0
  9
$DIMTOL
 70
     0
  9
$DIMLIM
 70
     0
  9
$DIMTIH
 70
     1
  9
$DIMTOH
 70
     1
  9
$DIMSE1
 70
     0
  9
$DIMSE2
 70
     0
  9
$DIMTAD
 70
     0
  9
$DIMZIN
 70
     0
  9
$DIMBLK
  1

  9
$DIMASO
 70
     1
  9
$DIMSHO
 70
     1
  9
$DIMPOST
  1

  9
$DIMAPOST
  1

  9
$DIMALT
 70
     0
  9
$DIMALTD
 70
     2
  9
$DIMALTF
 40
25.4
  9
$DIMLFAC
 40
1.0
  9
$DIMTOFL
 70
     0
  9
$DIMTVP
 40
0.0
  9
$DIMTIX
 70
     0
  9
$DIMSOXD
 70
     0
  9
$DIMSAH
 70
     0
  9
$DIMBLK1
  1

  9
$DIMBLK2
  1

  9
$DIMSTYLE
  2
Standard
  9
$DIMCLRD
 70
     0
  9
$DIMCLRE
 70
     0
  9
$DIMCLRT
 70
     0
  9
$DIMTFAC
 40
1.0
  9
$DIMGAP
 40
0.09
  9
$DIMJUST
 70
     0
  9
$DIMSD1
 70
     0
  9
$DIMSD2
 70
     0
  9
$DIMTOLJ
 70
     1
  9
$DIMTZIN
 70
     0
  9
$DIMALTZ
 70
     0
  9
$DIMALTTZ
 70
     0
  9
$DIMUPT
 70
     0
  9
$DIMDEC
 70
     4
  9
$DIMTDEC
 70
     4
  9
$DIMALTU
 70
     2
  9
$DIMALTTD
 70
     2
  9
$DIMTXSTY
  7
Standard
  9
$DIMAUNIT
 70
     0
  9
$DIMADEC
 70
     0
  9
$DIMALTRND
 40
0.0
  9
$DIMAZIN
 70
     0
  9
$DIMDSEP
 70
     0
  9
$DIMATFIT
 70
     3
  9
$DIMFRAC
 70
     0
  9
$DIMLDRBLK
  1

  9
$DIMLUNIT
 70
     2
  9
$DIMLWD
 70
     0
  9
$DIMLWE
 70
     0
  9
$DIMTMOVE
 70
     0
  9
$LUNITS
 70
     2
  9
$LUPREC
 70
     4
  9
$SKETCHINC
 40
0.1
  9
$FILLETRAD
 40
0.0
  9
$AUNITS
 70
     0
  9
$AUPREC
 70
     0
  9
$MENU
  1
acad
  9
$ELEVATION
 40
0.0
  9
$PELEVATION
 40
0.0
  9
$THICKNESS
 40
0.0
  9
$LIMCHECK
 70
     0
  9
$CHAMFERA
 40
0.0
  9
$CHAMFERB
 40
0.0
  9
$CHAMFERC
 40
0.0
  9
$CHAMFERD
 40
0.0
  9
$SKPOLY
 70
     0
  9
$TDCREATE
 40
0.000000000
  9
$TDUCREATE
 40
0.000000000
  9
$TDUPDATE
 40
0.000000000
  9
$TDUUPDATE
 40
0.000000000
  9
$TDINDWG
 40
0.0000000000
  9
$TDUSRTIMER
 40
0.0000000000
  9
$USRTIMER
 70
     1
  9
$ANGBASE
 50
0.0
  9
$ANGDIR
 70
     0
  9
$PDMODE
 70
     2
  9
$PDSIZE
 40
-1.0
  9
$PLINEWID
 40
0.0
  9
$SPLFRAME
 70
     0
  9
$SPLINETYPE
 70
     6
  9
$SPLINESEGS
 70
     8
  9
$HANDSEED
  5
A7
  9
$SURFTAB1
 70
     6
  9
$SURFTAB2
 70
     6
  9
$SURFTYPE
 70
     6
  9
$SURFU
 70
     6
  9
$SURFV
 70
     6
  9
$UCSBASE
  2

  9
$UCSNAME
  2

  9
$UCSORG
 10
0.0
 20
0.0
 30
0.0
  9
$UCSXDIR
 10
1.0
 20
0.0
 30
0.0
  9
$UCSYDIR
 10
0.0
 20
1.0
 30
0.0
  9
$UCSORTHOREF
  2

  9
$UCSORTHOVIEW
 70
     0
  9
$UCSORGTOP
 10
0.0
 20
0.0
 30
0.0
  9
$UCSORGBOTTOM
 10
0.0
 20
0.0
 30
0.0
  9
$UCSORGLEFT
 10
0.0
 20
0.0
 30
0.0
  9
$UCSORGRIGHT
 10
0.0
 20
0.0
 30
0.0
  9
$UCSORGFRONT
 10
0.0
 20
0.0
 30
0.0
  9
$UCSORGBACK
 10
0.0
 20
0.0
 30
0.0
  9
$PUCSBASE
  2

  9
$PUCSNAME
  2

  9
$PUCSORG
 10
0.0
 20
0.0
 30
0.0
  9
$PUCSXDIR
 10
1.0
 20
0.0
 30
0.0
  9
$PUCSYDIR
 10
0.0
 20
1.0
 30
0.0
  9
$PUCSORTHOREF
  2

  9
$PUCSORTHOVIEW
 70
     0
  9
$PUCSORGTOP
 10
0.0
 20
0.0
 30
0.0
  9
$PUCSORGBOTTOM
 10
0.0
 20
0.0
 30
0.0
  9
$PUCSORGLEFT
 10
0.0
 20
0.0
 30
0.0
  9
$PUCSORGRIGHT
 10
0.0
 20
0.0
 30
0.0
  9
$PUCSORGFRONT
 10
0.0
 20
0.0
 30
0.0
  9
$PUCSORGBACK
 10
0.0
 20
0.0
 30
0.0
  9
$USERI1
 70
     0
  9
$USERI2
 70
     0
  9
$USERI3
 70
     0
  9
$USERI4
 70
     0
  9
$USERI5
 70
     0
  9
$USERR1
 40
0.0
  9
$USERR2
 40
0.0
  9
$USERR3
 40
0.0
  9
$USERR4
 40
0.0
  9
$USERR5
 40
0.0
  9
$WORLDVIEW
 70
     1
  9
$SHADEDGE
 70
     3
  9
$SHADEDIF
 70
    70
  9
$TILEMODE
 70
     1
  9
$MAXACTVP
 70
    16
  9
$PINSBASE
 10
0.0
 20
0.0
 30
0.0
  9
$PLIMCHECK
 70
     0
  9
$PEXTMIN
 10
1.000000E+20
 20
1.000000E+20
 30
1.000000E+20
  9
$PEXTMAX
 10
-1.000000E+20
 20
-1.000000E+20
 30
-1.000000E+20
  9
$PLIMMIN
 10
0.0
 20
0.0
  9
$PLIMMAX
 10
12.0
 20
9.0
  9
$UNITMODE
 70
     0
  9
$VISRETAIN
 70
     0
  9
$PLINEGEN
 70
     1
  9
$PSLTSCALE
 70
     0
  9
$TREEDEPTH
 70
  3020
  9
$CMLSTYLE
  2
Standard
  9
$CMLJUST
 70
     0
  9
$CMLSCALE
 40
1.0
  9
$PROXYGRAPHICS
 70
     0
  9
$MEASUREMENT
 70
     0
  9
$CELWEIGHT
370
     0
  9
$ENDCAPS
280
     0
  9
$JOINSTYLE
280
     0
  9
$LWDISPLAY
290
     1
  9
$INSUNITS
 70
     0
  9
$HYPERLINKBASE
  1

  9
$STYLESHEET
  1

  9
$XEDIT
290
     1
  9
$CEPSNTYPE
380
     0
  9
$PSTYLEMODE
290
     1
  9
$FINGERPRINTGUID
  2

  9
$VERSIONGUID
  2

  9
$EXTNAMES
290
     1
  9
$PSVPSCALE
 40
0.0
  0
ENDSEC
  0
SECTION
  2
CLASSES
  0
CLASS
  1
LWPOLYLINE
  2
AcDbPolyline
  3
AutoCAD 2000
 90
        0
280
     0
281
     1
  0
CLASS
  1
IMAGE
  2
AcDbRasterImage
  3
ISM
 90
      127
280
     0
281
     1
  0
CLASS
  1
OLE2FRAME
  2
AcDbOle2Frame
  3
AutoCAD 2000
 90
        0
280
     0
281
     1
  0
CLASS
  1
HATCH
  2
AcDbHatch
  3
AutoCAD 2000
 90
        0
280
     0
281
     1
  0
CLASS
  1
DICTIONARYVAR
  2
AcDbDictionaryVar
  3
AutoCAD 2000
 90
        0
280
     0
281
     0
  0
CLASS
  1
RASTERVARIABLES
  2
AcDbRasterVariables
  3
ISM
 90
        0
280
     0
281
     0
  0
CLASS
  1
IMAGEDEF
  2
AcDbRasterImageDef
  3
ISM
 90
        0
280
     0
281
     0
  0
CLASS
  1
IMAGEDEF_REACTOR
  2
AcDbRasterImageDefReactor
  3
ISM
 90
        1
280
     0
281
     0
  0
CLASS
  1
IDBUFFER
  2
AcDbIdBuffer
  3
AutoCAD 2000
 90
        0
280
     0
281
     0
  0
CLASS
  1
SPATIAL_FILTER
  2
AcDbSpatialFilter
  3
AutoCAD 2000
 90
        0
280
     0
281
     0
  0
CLASS
  1
XRECORD
  2
AcDbXrecord
  3
AutoCAD 2000
 90
        0
280
     0
281
     0
  0
CLASS
  1
SORTENTSTABLE
  2
AcDbSortentsTable
  3
AutoCAD 2000
 90
        0
280
     0
281
     0
  0
CLASS
  1
LAYER_INDEX
  2
AcDbLayerIndex
  3
AutoCAD 2000
 90
        0
280
     0
281
     0
  0
CLASS
  1
SPATIAL_INDEX
  2
AcDbSpatialIndex
  3
AutoCAD 2000
 90
        0
280
     0
281
     0
  0
CLASS
  1
OBJECT_PTR
  2
CAseDLPNTableRecord
  3
"ASE-LPNTableRecord"
 90
        1
280
     0
281
     0
  0
CLASS
  1
LAYOUT
  2
AcDbLayout
  3
AutoCAD 2000
 90
        0
280
     0
281
     0
  0
CLASS
  1
PLOTSETTINGS
  2
AcDbPlotSettings
  3
AutoCAD 2000
 90
        0
280
     0
281
     0
  0
CLASS
  1
ACDBDICTIONARYWDFLT
  2
AcDbDictionaryWithDefault
  3
AutoCAD 2000
 90
        0
280
     0
281
     0
  0
CLASS
  1
ACDBPLACEHOLDER
  2
AcDbPlaceHolder
  3
AutoCAD 2000
 90
        0
280
     0
281
     0
  0
CLASS
  1
VBA_PROJECT
  2
AcDbVbaProject
  3
acadvba
 90
        0
280
     0
281
     0
  0
CLASS
  1
WIPEOUT
  2
AcDbWipeout
  3
WipeOut|AutoCAD Express Tool|expresstools@autodesk.com
 90
      127
280
     0
281
     1
  0
CLASS
  1
WIPEOUTVARIABLES
  2
AcDbWipeoutVariables
  3
WipeOut|AutoCAD Express Tool|expresstools@autodesk.com
 90
        0
280
     0
281
     0
  0
CLASS
  1
RTEXT
  2
RText
  3
RText|AutoCAD Express Tool|expresstools@autodesk.com
 90
        0
280
     0
281
     1
  0
CLASS
  1
ARCALIGNEDTEXT
  2
AcDbArcAlignedText
  3
ATEXT|AutoCAD Express Tool|expresstools@autodesk.com
 90
        0
280
     0
281
     1
  0
ENDSEC
  0
SECTION
  2
TABLES
  0
TABLE
  2
VPORT
  5
7
100
AcDbSymbolTable
 70
     2
  0
VPORT
  5
15
100
AcDbSymbolTableRecord
100
AcDbViewportTableRecord
  2
*ACTIVE
 70
     0
 10
0.0
 20
0.0
 11
1.0
 21
1.0
 12
6.591288
 22
4.579184
 13
0.0
 23
0.0
 14
1.0
 24
1.0
 15
0.0
 25
0.0
 16
0.0
 26
0.0
 36
1.0
 17
0.0
 27
0.0
 37
0.0
 40
9.158369
 41
0.688564
 42
50.0
 43
0.0
 44
0.0
 50
0.0
 51
0.0
 71
     0
 72
   100
 73
     1
 74
     1
 75
     0
 76
     0
 77
     0
 78
     0
281
     0
 65
     0
110
0.0
120
0.0
130
0.0
111
1.0
121
0.0
131
0.0
112
0.0
122
1.0
132
0.0
345
0
346
0
 79
     0
146
0.0
  0
VPORT
  5
A6
100
AcDbSymbolTableRecord
100
AcDbViewportTableRecord
  2
MYVPORT
 70
     0
 10
0.0
 20
0.0
 11
1.0
 21
1.0
 12
6.21
 22
9.02
 13
0.0
 23
0.0
 14
1.0
 24
1.0
 15
0.0
 25
0.0
 16
0.0
 26
0.0
 36
1.0
 17
0.0
 27
0.0
 37
0.0
 40
18.04
 41
0.688564
 42
50.0
 43
0.0
 44
0.0
 50
0.0
 51
0.0
 71
     0
 72
   100
 73
     1
 74
     1
 75
     0
 76
     0
 77
     0
 78
     0
281
     0
 65
     0
110
0.0
120
0.0
130
0.0
111
1.0
121
0.0
131
0.0
112
0.0
122
1.0
132
0.0
345
0
346
0
 79
     0
146
0.0
  0
ENDTAB
  0
TABLE
  2
LTYPE
  5
4
100
AcDbSymbolTable
 70
     3
  0
LTYPE
  5
11
100
AcDbSymbolTableRecord
100
AcDbLinetypeTableRecord
  2
ByBlock
 70
    64
  3

 72
    65
 73
     0
 40
0.0
  0
LTYPE
  5
12
100
AcDbSymbolTableRecord
100
AcDbLinetypeTableRecord
  2
ByLayer
 70
    64
  3

 72
    65
 73
     0
 40
0.0
  0
LTYPE
  5
13
100
AcDbSymbolTableRecord
100
AcDbLinetypeTableRecord
  2
Continuous
 70
    64
  3
Solid line
 72
    65
 73
     0
 40
0.0
  0
ENDTAB
  0
TABLE
  2
LAYER
  5
2
100
AcDbSymbolTable
 70
     2
  0
LAYER
  5
14
100
AcDbSymbolTableRecord
100
AcDbLayerTableRecord
  2
0
 70
     0
 62
     7
  6
Continuous
290
     1
370
     0
390
1D
  0
LAYER
  5
24
100
AcDbSymbolTableRecord
100
AcDbLayerTableRecord
  2
VISIBLE
 70
     0
 62
     7
  6
Continuous
290
     1
370
     0
390
1D
  0
ENDTAB
  0
TABLE
  2
STYLE
  5
3
100
AcDbSymbolTable
 70
     2
  0
STYLE
  5
17
100
AcDbSymbolTableRecord
100
AcDbTextStyleTableRecord
  2
Standard
 70
     0
 40
0.0
 41
1.0
 50
0.0
 71
     0
 42
0.0
  3
txt
  4

  0
STYLE
  5
2C
100
AcDbSymbolTableRecord
100
AcDbTextStyleTableRecord
  2
Vcadd_Arial Narrow
 70
     0
 40
0.0
 41
1.0
 50
0.0
 71
     0
 42
0.0
  3
Arial Narrow
  4

  0
ENDTAB
  0
TABLE
  2
VIEW
  5
5
100
AcDbSymbolTable
 70
     0
  0
ENDTAB
  0
TABLE
  2
UCS
  5
6
100
AcDbSymbolTable
 70
     1
  0
UCS
  5
A5
100
AcDbSymbolTableRecord
100
AcDbUCSTableRecord
  2
MYUCS
 70
     0
 10
0.0
 20
0.0
 30
0.0
 11
0.0
 21
1.0
 31
0.0
 12
0.0
 22
0.0
 32
1.0
 79
     0
146
0.0
  0
ENDTAB
  0
TABLE
  2
APPID
  5
8
100
AcDbSymbolTable
 70
     1
  0
APPID
  5
16
100
AcDbSymbolTableRecord
100
AcDbRegAppTableRecord
  2
ACAD
 70
     0
  0
ENDTAB
  0
TABLE
  2
DIMSTYLE
  5
9
100
AcDbSymbolTable
 70
     2
100
AcDbDimStyleTable
 71
     0
  0
DIMSTYLE
105
18
100
AcDbSymbolTableRecord
100
AcDbDimStyleTableRecord
  2
Standard
 70
     0
  3

  4

 40
1.0
 41
0.18
 42
0.0625
 43
0.38
 44
0.18
 45
0.0
 46
0.0
 47
0.0
 48
0.0
 71
     0
 72
     0
 73
     1
 74
     1
 75
     0
 76
     0
 77
     0
 78
     0
 79
     0
140
0.18
141
0.09
142
0.0
143
25.4
144
1.0
145
0.0
146
1.0
147
0.09
148
0.0
170
     0
171
     2
172
     0
173
     0
174
     0
175
     0
176
     0
177
     0
178
     0
179
     0
271
     4
272
     4
273
     2
274
     2
275
     0
276
     0
277
     2
278
    46
279
     0
280
     0
281
     0
282
     0
283
     1
284
     0
285
     0
286
     0
288
     0
289
     3
340
17
341
0
342
0
343
0
344
0
371
    -2
372
    -2
  0
DIMSTYLE
105
2D
100
AcDbSymbolTableRecord
100
AcDbDimStyleTableRecord
  2
VCADD_DIMSTYLE
 70
     0
  3

  4

 40
1.0
 41
0.06
 42
0.0625
 43
0.0
 44
0.18
 45
0.0
 46
0.0
 47
0.0
 48
0.0
 71
     0
 72
     0
 73
     0
 74
     1
 75
     0
 76
     0
 77
     0
 78
     3
 79
     0
140
0.045617
141
0.0
142
0.0
143
25.4
144
1.0
145
0.0
146
1.0
147
0.1
148
0.0
170
     0
171
     3
172
     0
173
     0
174
     1
175
     0
176
    12
177
    12
178
    12
179
     3
271
     3
272
     4
273
     2
274
     2
275
     0
276
     0
277
     2
278
    46
279
     0
280
     0
281
     0
282
     0
283
     1
284
     0
285
     0
286
     0
288
     0
289
     3
340
2C
341
0
342
0
343
0
344
0
371
    -2
372
    -2
  0
ENDTAB
  0
TABLE
  2
BLOCK_RECORD
  5
1
100
AcDbSymbolTable
 70
     1
  0
BLOCK_RECORD
  5
A
100
AcDbSymbolTableRecord
100
AcDbBlockTableRecord
  2
*MODEL_SPACE
340
20
  0
BLOCK_RECORD
  5
B
100
AcDbSymbolTableRecord
100
AcDbBlockTableRecord
  2
*PAPER_SPACE
340
21
  0
BLOCK_RECORD
  5
25
100
AcDbSymbolTableRecord
100
AcDbBlockTableRecord
  2
_CLOSED
340
0
  0
ENDTAB
  0
ENDSEC
  0
SECTION
  2
BLOCKS
  0
BLOCK
  5
D
100
AcDbEntity
  8
0
390
0
100
AcDbBlockBegin
  2
*MODEL_SPACE
 70
     0
 10
0.0
 20
0.0
 30
0.0
  3
*MODEL_SPACE
  1

  0
ENDBLK
  5
E
100
AcDbEntity
  8
0
390
0
100
AcDbBlockEnd
  0
BLOCK
  5
F
100
AcDbEntity
 67
     1
  8
0
390
0
100
AcDbBlockBegin
  2
*PAPER_SPACE
 70
     0
 10
0.0
 20
0.0
 30
0.0
  3
*PAPER_SPACE
  1

  0
ENDBLK
  5
10
100
AcDbEntity
 67
     1
  8
0
390
0
100
AcDbBlockEnd
  0
BLOCK
  5
26
100
AcDbEntity
  8
0
390
0
100
AcDbBlockBegin
  2
_CLOSED
 70
     0
 10
0.0
 20
0.0
 30
0.0
  3
_CLOSED
  1

  0
LINE
  5
27
100
AcDbEntity
  8
0
370
    -2
390
0
  6
ByBlock
 62
     0
100
AcDbLine
 10
-1.0
 20
0.166667
 30
0.0
 11
0.0
 21
0.0
 31
0.0
  0
LINE
  5
28
100
AcDbEntity
  8
0
370
    -2
390
0
  6
ByBlock
 62
     0
100
AcDbLine
 10
0.0
 20
0.0
 30
0.0
 11
-1.0
 21
-0.166667
 31
0.0
  0
LINE
  5
29
100
AcDbEntity
  8
0
370
    -2
390
0
  6
ByBlock
 62
     0
100
AcDbLine
 10
-1.0
 20
0.166667
 30
0.0
 11
-1.0
 21
-0.166667
 31
0.0
  0
LINE
  5
2A
100
AcDbEntity
  8
0
370
    -2
390
0
  6
ByBlock
 62
     0
100
AcDbLine
 10
0.0
 20
0.0
 30
0.0
 11
-1.0
 21
0.0
 31
0.0
  0
ENDBLK
  5
2B
100
AcDbEntity
  8
0
390
0
100
AcDbBlockEnd
  0
ENDSEC
  0
SECTION
  2
ENTITIES
  0
VIEWPORT
  5
2E
100
AcDbEntity
 67
     1
  8
0
390
0
  6
Continuous
 62
     0
100
AcDbViewport
 10
4.5
 20
3.259162
 30
0.0
 40
12.857143
 41
9.311892
 68
     1
 69
     1
 12
762.9316
 22
546.5183
 13
1169.457242
 23
377.488
 14
0.5
 24
0.5
 15
12.0
 25
12.0
 16
0.0
 26
0.0
 36
1.0
 17
0.0
 27
0.0
 37
0.0
 42
50.0
 43
-55.0
 44
-55.0
 45
1084.5
 50
0.0
 51
0.0
 72
   500
 90
        0
340
0
  1

281
     0
 71
     1
 74
     0
110
0.0
120
0.0
130
0.0
111
1.0
121
0.0
131
0.0
112
0.0
122
1.0
132
0.0
345
0
346
0
 79
     0
146
0.0
  0
LINE
  5
2F
100
AcDbEntity
  8
VISIBLE
370
     0
390
0
100
AcDbLine
 10
1.601366
 20
4.912871
 30
0.0
 11
1.739162
 21
5.15154
 31
0.0
  0
LINE
  5
30
100
AcDbEntity
  8
VISIBLE
370
     0
390
0
100
AcDbLine
 10
3.912476
 20
5.351115
 30
0.0
 11
3.774681
 21
5.589784
 31
0.0
  0
LINE
  5
31
100
AcDbEntity
  8
VISIBLE
370
     0
390
0
100
AcDbLine
 10
2.761009
 20
4.661589
 30
0.0
 11
2.717702
 21
4.586579
 31
0.0
  0
LINE
  5
32
100
AcDbEntity
  8
VISIBLE
370
     0
390
0
100
AcDbLine
 10
3.827238
 20
5.301903
 30
0.0
 11
3.912476
 21
5.351115
 31
0.0
  0
LINE
  5
33
100
AcDbEntity
  8
VISIBLE
370
     0
390
0
100
AcDbLine
 10
2.703012
 20
4.994205
 30
0.0
 11
2.014283
 21
5.391843
 31
0.0
  0
LINE
  5
34
100
AcDbEntity
  8
VISIBLE
370
     0
390
0
100
AcDbLine
 10
3.626713
 20
6.454654
 30
0.0
 11
3.77446
 21
6.198749
 31
0.0
  0
LINE
  5
35
100
AcDbEntity
  8
VISIBLE
370
     0
390
0
100
AcDbLine
 10
5.13828
 20
3.836544
 30
0.0
 11
4.990533
 21
3.580639
 31
0.0
  0
LINE
  5
36
100
AcDbEntity
  8
VISIBLE
370
     0
390
0
100
AcDbLine
 10
3.331219
 20
4.36804
 30
0.0
 11
3.183472
 21
4.623946
 31
0.0
  0
LINE
  5
37
100
AcDbEntity
  8
VISIBLE
370
     0
390
0
100
AcDbLine
 10
2.649309
 20
4.48615
 30
0.0
 11
2.944803
 21
4.48615
 31
0.0
  0
LINE
  5
38
100
AcDbEntity
  8
VISIBLE
370
     0
390
0
100
AcDbLine
 10
2.632464
 20
4.635792
 30
0.0
 11
2.494668
 21
4.397123
 31
0.0
  0
CIRCLE
  5
39
100
AcDbEntity
  8
VISIBLE
370
     0
390
0
100
AcDbCircle
 10
2.573454
 20
6.192338
 30
0.0
 40
0.068898
  0
LINE
  5
3A
100
AcDbEntity
  8
VISIBLE
370
     0
390
0
100
AcDbLine
 10
4.615482
 20
6.59245
 30
0.0
 11
5.751999
 21
4.623946
 31
0.0
  0
LINE
  5
3B
100
AcDbEntity
  8
VISIBLE
370
     0
390
0
100
AcDbLine
 10
3.331219
 20
5.942843
 30
0.0
 11
3.183472
 21
6.198749
 31
0.0
  0
LINE
  5
3C
100
AcDbEntity
  8
VISIBLE
370
     0
390
0
100
AcDbLine
 10
4.013129
 20
3.974339
 30
0.0
 11
3.865382
 21
4.230245
 31
0.0
  0
LINE
  5
3D
100
AcDbEntity
  8
VISIBLE
370
     0
390
0
100
AcDbLine
 10
3.130694
 20
5.301903
 30
0.0
 11
3.087387
 21
5.226893
 31
0.0
  0
LINE
  5
3E
100
AcDbEntity
  8
VISIBLE
370
     0
390
0
100
AcDbLine
 10
4.849085
 20
5.791853
 30
0.0
 11
4.86877
 21
5.757758
 31
0.0
  0
LINE
  5
3F
100
AcDbEntity
  8
VISIBLE
370
     0
390
0
100
AcDbLine
 10
5.21877
 20
5.15154
 30
0.0
 11
5.238455
 21
5.117444
 31
0.0
  0
CIRCLE
  5
40
100
AcDbEntity
  8
VISIBLE
370
     0
390
0
100
AcDbCircle
 10
4.924416
 20
5.653503
 30
0.0
 40
0.062992
  0
LINE
  5
41
100
AcDbEntity
  8
VISIBLE
370
     0
390
0
100
AcDbLine
 10
4.86877
 20
5.757758
 30
0.0
 11
3.975468
 21
5.24201
 31
0.0
  0
ARC
  5
42
100
AcDbEntity
  8
VISIBLE
370
     0
390
0
100
AcDbCircle
 10
3.876968
 20
5.648839
 30
0.0
 40
0.11811
100
AcDbArc
 50
120.0
 51
210.0
  0
LINE
  5
43
100
AcDbEntity
  8
VISIBLE
370
     0
390
0
100
AcDbLine
 10
2.717702
 20
4.586579
 30
0.0
 11
2.632464
 21
4.635792
 31
0.0
  0
CIRCLE
  5
44
100
AcDbEntity
  8
VISIBLE
370
     0
390
0
100
AcDbCircle
 10
1.667942
 20
4.623946
 30
0.0
 40
0.068898
  0
LINE
  5
45
100
AcDbEntity
  8
VISIBLE
370
     0
390
0
100
AcDbLine
 10
1.205933
 20
4.623946
 30
0.0
 11
2.34245
 21
6.59245
 31
0.0
  0
LINE
  5
46
100
AcDbEntity
  8
VISIBLE
370
     0
390
0
100
AcDbLine
 10
3.77446
 20
4.623946
 30
0.0
 11
3.626713
 21
4.36804
 31
0.0
  0
LINE
  5
47
100
AcDbEntity
  8
VISIBLE
370
     0
390
0
100
AcDbLine
 10
3.626713
 20
5.667253
 30
0.0
 11
3.77446
 21
5.411347
 31
0.0
  0
LINE
  5
48
100
AcDbEntity
  8
VISIBLE
370
     0
390
0
100
AcDbLine
 10
4.667983
 20
6.105532
 30
0.0
 11
4.805778
 21
5.866863
 31
0.0
  0
CIRCLE
  5
49
100
AcDbEntity
  8
VISIBLE
370
     0
390
0
100
AcDbCircle
 10
5.28999
 20
4.623946
 30
0.0
 40
0.068898
  0
LINE
  5
4A
100
AcDbEntity
  8
VISIBLE
370
     0
390
0
100
AcDbLine
 10
5.260702
 20
5.275763
 30
0.0
 11
5.304009
 21
5.200752
 31
0.0
  0
ARC
  5
4B
100
AcDbEntity
  8
VISIBLE
370
     0
390
0
100
AcDbCircle
 10
1.703653
 20
4.853816
 30
0.0
 40
0.11811
100
AcDbArc
 50
150.0
 51
240.0
  0
LINE
  5
4C
100
AcDbEntity
  8
VISIBLE
370
     0
390
0
100
AcDbLine
 10
3.331219
 20
6.454654
 30
0.0
 11
3.626713
 21
6.454654
 31
0.0
  0
LINE
  5
4D
100
AcDbEntity
  8
VISIBLE
370
     0
390
0
100
AcDbLine
 10
4.615482
 20
2.655442
 30
0.0
 11
2.34245
 21
2.655442
 31
0.0
  0
LINE
  5
4E
100
AcDbEntity
  8
VISIBLE
370
     0
390
0
100
AcDbLine
 10
2.152154
 20
5.866863
 30
0.0
 11
2.171839
 21
5.900959
 31
0.0
  0
LINE
  5
4F
100
AcDbEntity
  8
VISIBLE
370
     0
390
0
100
AcDbLine
 10
4.196923
 20
4.661589
 30
0.0
 11
4.282161
 21
4.710802
 31
0.0
  0
LINE
  5
50
100
AcDbEntity
  8
VISIBLE
370
     0
390
0
100
AcDbLine
 10
2.34245
 20
6.59245
 30
0.0
 11
4.615482
 21
6.59245
 31
0.0
  0
CIRCLE
  5
51
100
AcDbEntity
  8
VISIBLE
370
     0
390
0
100
AcDbCircle
 10
2.751101
 20
4.849152
 30
0.0
 40
0.062992
  0
LINE
  5
52
100
AcDbEntity
  8
VISIBLE
370
     0
390
0
100
AcDbLine
 10
3.870545
 20
5.226893
 30
0.0
 11
3.827238
 21
5.301903
 31
0.0
  0
LINE
  5
53
100
AcDbEntity
  8
VISIBLE
370
     0
390
0
100
AcDbLine
 10
4.547291
 20
3.836544
 30
0.0
 11
4.695038
 21
4.09245
 31
0.0
  0
LINE
  5
54
100
AcDbEntity
  8
VISIBLE
370
     0
390
0
100
AcDbLine
 10
2.410641
 20
3.836544
 30
0.0
 11
2.262894
 21
3.580639
 31
0.0
  0
LINE
  5
55
100
AcDbEntity
  8
VISIBLE
370
     0
390
0
100
AcDbLine
 10
2.501562
 20
4.230245
 30
0.0
 11
2.649309
 21
4.48615
 31
0.0
  0
ARC
  5
56
100
AcDbEntity
  8
VISIBLE
370
     0
390
0
100
AcDbCircle
 10
4.565696
 20
6.046477
 30
0.0
 40
0.11811
100
AcDbArc
 50
30.0
 51
120.0
  0
LINE
  5
57
100
AcDbEntity
  8
VISIBLE
370
     0
390
0
100
AcDbLine
 10
3.183472
 20
4.623946
 30
0.0
 11
3.331219
 21
4.879851
 31
0.0
  0
LINE
  5
58
100
AcDbEntity
  8
VISIBLE
370
     0
390
0
100
AcDbLine
 10
1.971051
 20
5.553185
 30
0.0
 11
2.108847
 21
5.791853
 31
0.0
  0
ARC
  5
59
100
AcDbEntity
  8
VISIBLE
370
     0
390
0
100
AcDbCircle
 10
4.246653
 20
5.008525
 30
0.0
 40
0.11811
100
AcDbArc
 50
120.0
 51
210.0
  0
LINE
  5
5A
100
AcDbEntity
  8
VISIBLE
370
     0
390
0
100
AcDbLine
 10
4.695038
 20
4.09245
 30
0.0
 11
4.990533
 21
4.09245
 31
0.0
  0
LINE
  5
5B
100
AcDbEntity
  8
VISIBLE
370
     0
390
0
100
AcDbLine
 10
3.865382
 20
4.230245
 30
0.0
 11
4.013129
 21
4.48615
 31
0.0
  0
LINE
  5
5C
100
AcDbEntity
  8
VISIBLE
370
     0
390
0
100
AcDbLine
 10
4.891017
 20
5.916076
 30
0.0
 11
4.934324
 21
5.841066
 31
0.0
  0
LINE
  5
5D
100
AcDbEntity
  8
VISIBLE
370
     0
390
0
100
AcDbLine
 10
3.77446
 20
6.198749
 30
0.0
 11
3.626713
 21
5.942843
 31
0.0
  0
LINE
  5
5E
100
AcDbEntity
  8
VISIBLE
370
     0
390
0
100
AcDbLine
 10
1.782469
 20
5.22655
 30
0.0
 11
1.802154
 21
5.260645
 31
0.0
  0
LINE
  5
5F
100
AcDbEntity
  8
VISIBLE
370
     0
390
0
100
AcDbLine
 10
3.002149
 20
5.276105
 30
0.0
 11
2.864353
 21
5.037437
 31
0.0
  0
CIRCLE
  5
60
100
AcDbEntity
  8
VISIBLE
370
     0
390
0
100
AcDbCircle
 10
2.573454
 20
3.055553
 30
0.0
 40
0.068898
  0
LINE
  5
61
100
AcDbEntity
  8
VISIBLE
370
     0
390
0
100
AcDbLine
 10
4.325468
 20
4.635792
 30
0.0
 11
4.24023
 21
4.586579
 31
0.0
  0
LINE
  5
62
100
AcDbEntity
  8
VISIBLE
370
     0
390
0
100
AcDbLine
 10
4.934324
 20
5.841066
 30
0.0
 11
4.849085
 21
5.791853
 31
0.0
  0
LINE
  5
63
100
AcDbEntity
  8
VISIBLE
370
     0
390
0
100
AcDbLine
 10
2.262894
 20
3.580639
 30
0.0
 11
1.967399
 21
3.580639
 31
0.0
  0
LINE
  5
64
100
AcDbEntity
  8
VISIBLE
370
     0
390
0
100
AcDbLine
 10
3.331219
 20
4.879851
 30
0.0
 11
3.626713
 21
4.879851
 31
0.0
  0
LINE
  5
65
100
AcDbEntity
  8
VISIBLE
370
     0
390
0
100
AcDbLine
 10
5.751999
 20
4.623946
 30
0.0
 11
4.615482
 21
2.655442
 31
0.0
  0
LINE
  5
66
100
AcDbEntity
  8
VISIBLE
370
     0
390
0
100
AcDbLine
 10
2.171839
 20
5.900959
 30
0.0
 11
3.065141
 21
5.385211
 31
0.0
  0
LINE
  5
67
100
AcDbEntity
  8
VISIBLE
370
     0
390
0
100
AcDbLine
 10
3.183472
 20
6.198749
 30
0.0
 11
3.331219
 21
6.454654
 31
0.0
  0
CIRCLE
  5
68
100
AcDbEntity
  8
VISIBLE
370
     0
390
0
100
AcDbCircle
 10
4.037933
 20
5.141692
 30
0.0
 40
0.062992
  0
LINE
  5
69
100
AcDbEntity
  8
VISIBLE
370
     0
390
0
100
AcDbLine
 10
2.695456
 20
4.744897
 30
0.0
 11
2.675771
 21
4.710802
 31
0.0
  0
LINE
  5
6A
100
AcDbEntity
  8
VISIBLE
370
     0
390
0
100
AcDbLine
 10
2.675771
 20
4.710802
 30
0.0
 11
2.761009
 21
4.661589
 31
0.0
  0
LINE
  5
6B
100
AcDbEntity
  8
VISIBLE
370
     0
390
0
100
AcDbLine
 10
3.626713
 20
4.36804
 30
0.0
 11
3.331219
 21
4.36804
 31
0.0
  0
LINE
  5
6C
100
AcDbEntity
  8
VISIBLE
370
     0
390
0
100
AcDbLine
 10
1.967399
 20
4.09245
 30
0.0
 11
2.262894
 21
4.09245
 31
0.0
  0
ARC
  5
6D
100
AcDbEntity
  8
VISIBLE
370
     0
390
0
100
AcDbCircle
 10
4.935381
 20
5.406163
 30
0.0
 40
0.11811
100
AcDbArc
 50
30.0
 51
120.0
  0
ARC
  5
6E
100
AcDbEntity
  8
VISIBLE
370
     0
390
0
100
AcDbCircle
 10
2.073338
 20
5.49413
 30
0.0
 40
0.11811
100
AcDbArc
 50
150.0
 51
240.0
  0
LINE
  5
6F
100
AcDbEntity
  8
VISIBLE
370
     0
390
0
100
AcDbLine
 10
5.037668
 20
5.465218
 30
0.0
 11
5.175463
 21
5.22655
 31
0.0
  0
LINE
  5
70
100
AcDbEntity
  8
VISIBLE
370
     0
390
0
100
AcDbLine
 10
4.805778
 20
5.866863
 30
0.0
 11
4.891017
 21
5.916076
 31
0.0
  0
LINE
  5
71
100
AcDbEntity
  8
VISIBLE
370
     0
390
0
100
AcDbLine
 10
3.626713
 20
5.942843
 30
0.0
 11
3.331219
 21
5.942843
 31
0.0
  0
LINE
  5
72
100
AcDbEntity
  8
VISIBLE
370
     0
390
0
100
AcDbLine
 10
4.695038
 20
3.580639
 30
0.0
 11
4.547291
 21
3.836544
 31
0.0
  0
ARC
  5
73
100
AcDbEntity
  8
VISIBLE
370
     0
390
0
100
AcDbCircle
 10
2.392382
 20
4.456179
 30
0.0
 40
0.11811
100
AcDbArc
 50
240.0
 51
330.0
  0
ARC
  5
74
100
AcDbEntity
  8
VISIBLE
370
     0
390
0
100
AcDbCircle
 10
2.762067
 20
5.096492
 30
0.0
 40
0.11811
100
AcDbArc
 50
240.0
 51
330.0
  0
LINE
  5
75
100
AcDbEntity
  8
VISIBLE
370
     0
390
0
100
AcDbLine
 10
5.238455
 20
5.117444
 30
0.0
 11
4.345153
 21
4.601696
 31
0.0
  0
LINE
  5
76
100
AcDbEntity
  8
VISIBLE
370
     0
390
0
100
AcDbLine
 10
4.308623
 20
3.974339
 30
0.0
 11
4.013129
 21
3.974339
 31
0.0
  0
LINE
  5
77
100
AcDbEntity
  8
VISIBLE
370
     0
390
0
100
AcDbLine
 10
2.108847
 20
5.791853
 30
0.0
 11
2.023608
 21
5.841066
 31
0.0
  0
CIRCLE
  5
78
100
AcDbEntity
  8
VISIBLE
370
     0
390
0
100
AcDbCircle
 10
3.120786
 20
5.489466
 30
0.0
 40
0.062992
  0
LINE
  5
79
100
AcDbEntity
  8
VISIBLE
370
     0
390
0
100
AcDbLine
 10
3.817912
 20
5.751125
 30
0.0
 11
4.506641
 21
6.148763
 31
0.0
  0
LINE
  5
7A
100
AcDbEntity
  8
VISIBLE
370
     0
390
0
100
AcDbLine
 10
3.045456
 20
5.351115
 30
0.0
 11
3.130694
 21
5.301903
 31
0.0
  0
CIRCLE
  5
7B
100
AcDbEntity
  8
VISIBLE
370
     0
390
0
100
AcDbCircle
 10
1.864619
 20
5.360963
 30
0.0
 40
0.062992
  0
LINE
  5
7C
100
AcDbEntity
  8
VISIBLE
370
     0
390
0
100
AcDbLine
 10
5.304009
 20
5.200752
 30
0.0
 11
5.21877
 21
5.15154
 31
0.0
  0
LINE
  5
7D
100
AcDbEntity
  8
VISIBLE
370
     0
390
0
100
AcDbLine
 10
4.308623
 20
4.48615
 30
0.0
 11
4.45637
 21
4.230245
 31
0.0
  0
LINE
  5
7E
100
AcDbEntity
  8
VISIBLE
370
     0
390
0
100
AcDbLine
 10
3.626713
 20
4.879851
 30
0.0
 11
3.77446
 21
4.623946
 31
0.0
  0
LINE
  5
7F
100
AcDbEntity
  8
VISIBLE
370
     0
390
0
100
AcDbLine
 10
5.175463
 20
5.22655
 30
0.0
 11
5.260702
 21
5.275763
 31
0.0
  0
LINE
  5
80
100
AcDbEntity
  8
VISIBLE
370
     0
390
0
100
AcDbLine
 10
3.626713
 20
5.155442
 30
0.0
 11
3.331219
 21
5.155442
 31
0.0
  0
LINE
  5
81
100
AcDbEntity
  8
VISIBLE
370
     0
390
0
100
AcDbLine
 10
1.69723
 20
5.275763
 30
0.0
 11
1.782469
 21
5.22655
 31
0.0
  0
LINE
  5
82
100
AcDbEntity
  8
VISIBLE
370
     0
390
0
100
AcDbLine
 10
2.066915
 20
5.916076
 30
0.0
 11
2.152154
 21
5.866863
 31
0.0
  0
LINE
  5
83
100
AcDbEntity
  8
VISIBLE
370
     0
390
0
100
AcDbLine
 10
3.77446
 20
5.411347
 30
0.0
 11
3.626713
 21
5.155442
 31
0.0
  0
LINE
  5
84
100
AcDbEntity
  8
VISIBLE
370
     0
390
0
100
AcDbLine
 10
4.345153
 20
4.601696
 30
0.0
 11
4.325468
 21
4.635792
 31
0.0
  0
LINE
  5
85
100
AcDbEntity
  8
VISIBLE
370
     0
390
0
100
AcDbLine
 10
2.34245
 20
2.655442
 30
0.0
 11
1.205933
 21
4.623946
 31
0.0
  0
LINE
  5
86
100
AcDbEntity
  8
VISIBLE
370
     0
390
0
100
AcDbLine
 10
2.023608
 20
5.841066
 30
0.0
 11
2.066915
 21
5.916076
 31
0.0
  0
LINE
  5
87
100
AcDbEntity
  8
VISIBLE
370
     0
390
0
100
AcDbLine
 10
4.24023
 20
4.586579
 30
0.0
 11
4.196923
 21
4.661589
 31
0.0
  0
LINE
  5
88
100
AcDbEntity
  8
VISIBLE
370
     0
390
0
100
AcDbLine
 10
2.944803
 20
4.48615
 30
0.0
 11
3.09255
 21
4.230245
 31
0.0
  0
LINE
  5
89
100
AcDbEntity
  8
VISIBLE
370
     0
390
0
100
AcDbLine
 10
4.013129
 20
4.48615
 30
0.0
 11
4.308623
 21
4.48615
 31
0.0
  0
LINE
  5
8A
100
AcDbEntity
  8
VISIBLE
370
     0
390
0
100
AcDbLine
 10
4.990533
 20
4.09245
 30
0.0
 11
5.13828
 21
3.836544
 31
0.0
  0
LINE
  5
8B
100
AcDbEntity
  8
VISIBLE
370
     0
390
0
100
AcDbLine
 10
3.331219
 20
5.667253
 30
0.0
 11
3.626713
 21
5.667253
 31
0.0
  0
LINE
  5
8C
100
AcDbEntity
  8
VISIBLE
370
     0
390
0
100
AcDbLine
 10
4.45637
 20
4.230245
 30
0.0
 11
4.308623
 21
3.974339
 31
0.0
  0
LINE
  5
8D
100
AcDbEntity
  8
VISIBLE
370
     0
390
0
100
AcDbLine
 10
1.739162
 20
5.15154
 30
0.0
 11
1.653923
 21
5.200752
 31
0.0
  0
CIRCLE
  5
8E
100
AcDbEntity
  8
VISIBLE
370
     0
390
0
100
AcDbCircle
 10
4.407618
 20
4.501378
 30
0.0
 40
0.062992
  0
LINE
  5
8F
100
AcDbEntity
  8
VISIBLE
370
     0
390
0
100
AcDbLine
 10
2.333327
 20
4.353892
 30
0.0
 11
1.644598
 21
4.75153
 31
0.0
  0
LINE
  5
90
100
AcDbEntity
  8
VISIBLE
370
     0
390
0
100
AcDbLine
 10
1.653923
 20
5.200752
 30
0.0
 11
1.69723
 21
5.275763
 31
0.0
  0
LINE
  5
91
100
AcDbEntity
  8
VISIBLE
370
     0
390
0
100
AcDbLine
 10
3.09255
 20
4.230245
 30
0.0
 11
2.944803
 21
3.974339
 31
0.0
  0
LINE
  5
92
100
AcDbEntity
  8
VISIBLE
370
     0
390
0
100
AcDbLine
 10
3.331219
 20
5.155442
 30
0.0
 11
3.183472
 21
5.411347
 31
0.0
  0
LINE
  5
93
100
AcDbEntity
  8
VISIBLE
370
     0
390
0
100
AcDbLine
 10
3.183472
 20
5.411347
 30
0.0
 11
3.331219
 21
5.667253
 31
0.0
  0
LINE
  5
94
100
AcDbEntity
  8
VISIBLE
370
     0
390
0
100
AcDbLine
 10
1.802154
 20
5.260645
 30
0.0
 11
2.695456
 21
4.744897
 31
0.0
  0
CIRCLE
  5
95
100
AcDbEntity
  8
VISIBLE
370
     0
390
0
100
AcDbCircle
 10
2.234304
 20
6.001277
 30
0.0
 40
0.062992
  0
LINE
  5
96
100
AcDbEntity
  8
VISIBLE
370
     0
390
0
100
AcDbLine
 10
2.649309
 20
3.974339
 30
0.0
 11
2.501562
 21
4.230245
 31
0.0
  0
LINE
  5
97
100
AcDbEntity
  8
VISIBLE
370
     0
390
0
100
AcDbLine
 10
4.282161
 20
4.710802
 30
0.0
 11
4.144366
 21
4.94947
 31
0.0
  0
CIRCLE
  5
98
100
AcDbEntity
  8
VISIBLE
370
     0
390
0
100
AcDbCircle
 10
4.384478
 20
3.055553
 30
0.0
 40
0.068898
  0
CIRCLE
  5
99
100
AcDbEntity
  8
VISIBLE
370
     0
390
0
100
AcDbCircle
 10
5.294101
 20
5.013189
 30
0.0
 40
0.062992
  0
LINE
  5
9A
100
AcDbEntity
  8
VISIBLE
370
     0
390
0
100
AcDbLine
 10
4.187597
 20
5.110812
 30
0.0
 11
4.876326
 21
5.50845
 31
0.0
  0
CIRCLE
  5
9B
100
AcDbEntity
  8
VISIBLE
370
     0
390
0
100
AcDbCircle
 10
4.384478
 20
6.192338
 30
0.0
 40
0.068898
  0
LINE
  5
9C
100
AcDbEntity
  8
VISIBLE
370
     0
390
0
100
AcDbLine
 10
3.975468
 20
5.24201
 30
0.0
 11
3.955783
 21
5.276105
 31
0.0
  0
LINE
  5
9D
100
AcDbEntity
  8
VISIBLE
370
     0
390
0
100
AcDbLine
 10
3.065141
 20
5.385211
 30
0.0
 11
3.045456
 21
5.351115
 31
0.0
  0
LINE
  5
9E
100
AcDbEntity
  8
VISIBLE
370
     0
390
0
100
AcDbLine
 10
3.955783
 20
5.276105
 30
0.0
 11
3.870545
 21
5.226893
 31
0.0
  0
LINE
  5
9F
100
AcDbEntity
  8
VISIBLE
370
     0
390
0
100
AcDbLine
 10
1.819652
 20
3.836544
 30
0.0
 11
1.967399
 21
4.09245
 31
0.0
  0
LINE
  5
A0
100
AcDbEntity
  8
VISIBLE
370
     0
390
0
100
AcDbLine
 10
3.087387
 20
5.226893
 30
0.0
 11
3.002149
 21
5.276105
 31
0.0
  0
LINE
  5
A1
100
AcDbEntity
  8
VISIBLE
370
     0
390
0
100
AcDbLine
 10
2.944803
 20
3.974339
 30
0.0
 11
2.649309
 21
3.974339
 31
0.0
  0
LINE
  5
A2
100
AcDbEntity
  8
VISIBLE
370
     0
390
0
100
AcDbLine
 10
4.990533
 20
3.580639
 30
0.0
 11
4.695038
 21
3.580639
 31
0.0
  0
LINE
  5
A3
100
AcDbEntity
  8
VISIBLE
370
     0
390
0
100
AcDbLine
 10
1.967399
 20
3.580639
 30
0.0
 11
1.819652
 21
3.836544
 31
0.0
  0
LINE
  5
A4
100
AcDbEntity
  8
VISIBLE
370
     0
390
0
100
AcDbLine
 10
2.262894
 20
4.09245
 30
0.0
 11
2.410641
 21
3.836544
 31
0.0
  0
ENDSEC
  0
SECTION
  2
OBJECTS
  0
DICTIONARY
  5
19
100
AcDbDictionary
280
     0
281
     1
  3
ACAD_GROUP
350
1A
  3
ACAD_MLINESTYLE
350
1B
  3
ACAD_LAYOUT
350
1E
  3
ACAD_PLOTSETTINGS
350
22
  3
ACAD_PLOTSTYLENAME
350
1F
  3
ACAD_WIPEOUT_VARS
350
23
  0
DICTIONARY
  5
1A
102
{ACAD_REACTORS
330
19
102
}
100
AcDbDictionary
280
     0
281
     1
  0
DICTIONARY
  5
1B
102
{ACAD_REACTORS
330
19
102
}
100
AcDbDictionary
280
     0
281
     1
  3
Standard
350
1C
  0
MLINESTYLE
  5
1C
102
{ACAD_REACTORS
330
1B
102
}
100
AcDbMlineStyle
  2
Standard
 70
     0
  3

 62
     0
 51
90.0
 52
90.0
 71
     2
 49
0.5
 62
   256
  6
ByLayer
 49
-0.5
 62
   256
  6
ByLayer
  0
ACDBDICTIONARYWDFLT
  5
1F
102
{ACAD_REACTORS
330
19
102
}
100
AcDbDictionary
281
     1
  3
Normal
350
1D
100
AcDbDictionaryWithDefault
340
1D
  0
ACDBPLACEHOLDER
  5
1D
102
{ACAD_REACTORS
330
1F
102
}
  0
LAYOUT
  5
20
102
{ACAD_REACTORS
330
1E
102
}
100
AcDbPlotSettings
  1

  2

  4

  6

 40
0.0
 41
0.0
 42
0.0
 43
0.0
 44
0.0
 45
0.0
 46
0.0
 47
0.0
 48
0.0
 49
0.0
140
0.0
141
0.0
142
1.0
143
1.0
 70
  1024
 72
     0
 73
     0
 74
     0
  7

 75
     0
147
1.0
148
0.0
149
0.0
100
AcDbLayout
  1
Model
 70
     0
 71
     0
 10
0.0
 20
0.0
 11
0.0
 21
0.0
 12
0.0
 22
0.0
 32
0.0
 14
0.0
 24
0.0
 34
0.0
 15
0.0
 25
0.0
 35
0.0
146
0.0
 13
0.0
 23
0.0
 33
0.0
 16
0.0
 26
0.0
 36
0.0
 17
0.0
 27
0.0
 37
0.0
 76
     0
330
A
331
0
345
0
346
0
  0
LAYOUT
  5
21
102
{ACAD_REACTORS
330
1E
102
}
100
AcDbPlotSettings
  1

  2

  4

  6

 40
0.0
 41
0.0
 42
0.0
 43
0.0
 44
0.0
 45
0.0
 46
0.0
 47
0.0
 48
0.0
 49
0.0
140
0.0
141
0.0
142
1.0
143
1.0
 70
     0
 72
     0
 73
     0
 74
     0
  7

 75
     0
147
1.0
148
0.0
149
0.0
100
AcDbLayout
  1
Layout1
 70
     0
 71
     0
 10
0.0
 20
0.0
 11
0.0
 21
0.0
 12
0.0
 22
0.0
 32
0.0
 14
0.0
 24
0.0
 34
0.0
 15
0.0
 25
0.0
 35
0.0
146
0.0
 13
0.0
 23
0.0
 33
0.0
 16
0.0
 26
0.0
 36
0.0
 17
0.0
 27
0.0
 37
0.0
 76
     0
330
B
331
0
345
0
346
0
  0
DICTIONARY
  5
1E
102
{ACAD_REACTORS
330
19
102
}
100
AcDbDictionary
280
     0
281
     1
  3
Layout1
350
21
  3
Model
350
20
  0
DICTIONARY
  5
22
102
{ACAD_REACTORS
330
19
102
}
100
AcDbDictionary
280
     0
281
     1
  0
WIPEOUTVARIABLES
  5
23
100
AcDbWipeoutVariables
 70
     1
  0
ENDSEC
  0
EOF
