G75*
%MOIN*%
%OFA0B0*%
%FSLAX24Y24*%
%IPPOS*%
%LPD*%
%AMOC8*
5,1,8,0,0,1.08239X$1,22.5*
%
%ADD10C,0.0118*%
%ADD11C,0.0000*%
D10*
X000159Y000159D02*
X014057Y000159D01*
X014057Y004883D01*
X000159Y004883D01*
X000159Y000159D01*
D11*
X000770Y001734D02*
X000772Y001785D01*
X000778Y001836D01*
X000788Y001886D01*
X000801Y001936D01*
X000819Y001984D01*
X000839Y002031D01*
X000864Y002076D01*
X000892Y002119D01*
X000923Y002160D01*
X000957Y002198D01*
X000994Y002233D01*
X001033Y002266D01*
X001075Y002296D01*
X001119Y002322D01*
X001165Y002344D01*
X001213Y002364D01*
X001262Y002379D01*
X001312Y002391D01*
X001362Y002399D01*
X001413Y002403D01*
X001465Y002403D01*
X001516Y002399D01*
X001566Y002391D01*
X001616Y002379D01*
X001665Y002364D01*
X001713Y002344D01*
X001759Y002322D01*
X001803Y002296D01*
X001845Y002266D01*
X001884Y002233D01*
X001921Y002198D01*
X001955Y002160D01*
X001986Y002119D01*
X002014Y002076D01*
X002039Y002031D01*
X002059Y001984D01*
X002077Y001936D01*
X002090Y001886D01*
X002100Y001836D01*
X002106Y001785D01*
X002108Y001734D01*
X002106Y001683D01*
X002100Y001632D01*
X002090Y001582D01*
X002077Y001532D01*
X002059Y001484D01*
X002039Y001437D01*
X002014Y001392D01*
X001986Y001349D01*
X001955Y001308D01*
X001921Y001270D01*
X001884Y001235D01*
X001845Y001202D01*
X001803Y001172D01*
X001759Y001146D01*
X001713Y001124D01*
X001665Y001104D01*
X001616Y001089D01*
X001566Y001077D01*
X001516Y001069D01*
X001465Y001065D01*
X001413Y001065D01*
X001362Y001069D01*
X001312Y001077D01*
X001262Y001089D01*
X001213Y001104D01*
X001165Y001124D01*
X001119Y001146D01*
X001075Y001172D01*
X001033Y001202D01*
X000994Y001235D01*
X000957Y001270D01*
X000923Y001308D01*
X000892Y001349D01*
X000864Y001392D01*
X000839Y001437D01*
X000819Y001484D01*
X000801Y001532D01*
X000788Y001582D01*
X000778Y001632D01*
X000772Y001683D01*
X000770Y001734D01*
X008250Y001734D02*
X008252Y001785D01*
X008258Y001836D01*
X008268Y001886D01*
X008281Y001936D01*
X008299Y001984D01*
X008319Y002031D01*
X008344Y002076D01*
X008372Y002119D01*
X008403Y002160D01*
X008437Y002198D01*
X008474Y002233D01*
X008513Y002266D01*
X008555Y002296D01*
X008599Y002322D01*
X008645Y002344D01*
X008693Y002364D01*
X008742Y002379D01*
X008792Y002391D01*
X008842Y002399D01*
X008893Y002403D01*
X008945Y002403D01*
X008996Y002399D01*
X009046Y002391D01*
X009096Y002379D01*
X009145Y002364D01*
X009193Y002344D01*
X009239Y002322D01*
X009283Y002296D01*
X009325Y002266D01*
X009364Y002233D01*
X009401Y002198D01*
X009435Y002160D01*
X009466Y002119D01*
X009494Y002076D01*
X009519Y002031D01*
X009539Y001984D01*
X009557Y001936D01*
X009570Y001886D01*
X009580Y001836D01*
X009586Y001785D01*
X009588Y001734D01*
X009586Y001683D01*
X009580Y001632D01*
X009570Y001582D01*
X009557Y001532D01*
X009539Y001484D01*
X009519Y001437D01*
X009494Y001392D01*
X009466Y001349D01*
X009435Y001308D01*
X009401Y001270D01*
X009364Y001235D01*
X009325Y001202D01*
X009283Y001172D01*
X009239Y001146D01*
X009193Y001124D01*
X009145Y001104D01*
X009096Y001089D01*
X009046Y001077D01*
X008996Y001069D01*
X008945Y001065D01*
X008893Y001065D01*
X008842Y001069D01*
X008792Y001077D01*
X008742Y001089D01*
X008693Y001104D01*
X008645Y001124D01*
X008599Y001146D01*
X008555Y001172D01*
X008513Y001202D01*
X008474Y001235D01*
X008437Y001270D01*
X008403Y001308D01*
X008372Y001349D01*
X008344Y001392D01*
X008319Y001437D01*
X008299Y001484D01*
X008281Y001532D01*
X008268Y001582D01*
X008258Y001632D01*
X008252Y001683D01*
X008250Y001734D01*
M02*
