G75*
%MOIN*%
%OFA0B0*%
%FSLAX24Y24*%
%IPPOS*%
%LPD*%
%AMOC8*
5,1,8,0,0,1.08239X$1,22.5*
%
%ADD10C,0.0118*%
%ADD11C,0.0060*%
%ADD12C,0.0000*%
%ADD13R,0.0072X0.0004*%
%ADD14R,0.0080X0.0004*%
%ADD15R,0.0152X0.0004*%
%ADD16R,0.0144X0.0004*%
%ADD17R,0.0194X0.0004*%
%ADD18R,0.0190X0.0004*%
%ADD19R,0.0224X0.0004*%
%ADD20R,0.0220X0.0004*%
%ADD21R,0.0236X0.0004*%
%ADD22R,0.0220X0.0004*%
%ADD23R,0.0251X0.0004*%
%ADD24R,0.0247X0.0004*%
%ADD25R,0.0243X0.0004*%
%ADD26R,0.0274X0.0004*%
%ADD27R,0.0266X0.0004*%
%ADD28R,0.0293X0.0004*%
%ADD29R,0.0285X0.0004*%
%ADD30R,0.0236X0.0004*%
%ADD31R,0.0308X0.0004*%
%ADD32R,0.0300X0.0004*%
%ADD33R,0.0319X0.0004*%
%ADD34R,0.0334X0.0004*%
%ADD35R,0.0224X0.0004*%
%ADD36R,0.0331X0.0004*%
%ADD37R,0.0346X0.0004*%
%ADD38R,0.0357X0.0004*%
%ADD39R,0.0369X0.0004*%
%ADD40R,0.0380X0.0004*%
%ADD41R,0.0376X0.0004*%
%ADD42R,0.0239X0.0004*%
%ADD43R,0.0388X0.0004*%
%ADD44R,0.0388X0.0004*%
%ADD45R,0.0395X0.0004*%
%ADD46R,0.0403X0.0004*%
%ADD47R,0.0410X0.0004*%
%ADD48R,0.0414X0.0004*%
%ADD49R,0.0422X0.0004*%
%ADD50R,0.0426X0.0004*%
%ADD51R,0.0433X0.0004*%
%ADD52R,0.0437X0.0004*%
%ADD53R,0.0445X0.0004*%
%ADD54R,0.0448X0.0004*%
%ADD55R,0.0232X0.0004*%
%ADD56R,0.0456X0.0004*%
%ADD57R,0.0460X0.0004*%
%ADD58R,0.0464X0.0004*%
%ADD59R,0.0467X0.0004*%
%ADD60R,0.0471X0.0004*%
%ADD61R,0.0475X0.0004*%
%ADD62R,0.0479X0.0004*%
%ADD63R,0.0483X0.0004*%
%ADD64R,0.0486X0.0004*%
%ADD65R,0.0490X0.0004*%
%ADD66R,0.0494X0.0004*%
%ADD67R,0.0498X0.0004*%
%ADD68R,0.0505X0.0004*%
%ADD69R,0.0502X0.0004*%
%ADD70R,0.0232X0.0004*%
%ADD71R,0.0509X0.0004*%
%ADD72R,0.0217X0.0004*%
%ADD73R,0.0513X0.0004*%
%ADD74R,0.0213X0.0004*%
%ADD75R,0.0517X0.0004*%
%ADD76R,0.0209X0.0004*%
%ADD77R,0.0247X0.0004*%
%ADD78R,0.0205X0.0004*%
%ADD79R,0.0228X0.0004*%
%ADD80R,0.0201X0.0004*%
%ADD81R,0.0213X0.0004*%
%ADD82R,0.0209X0.0004*%
%ADD83R,0.0255X0.0004*%
%ADD84R,0.0201X0.0004*%
%ADD85R,0.0471X0.0004*%
%ADD86R,0.0559X0.0004*%
%ADD87R,0.0452X0.0004*%
%ADD88R,0.0441X0.0004*%
%ADD89R,0.0399X0.0004*%
%ADD90R,0.0418X0.0004*%
%ADD91R,0.0483X0.0004*%
%ADD92R,0.0555X0.0004*%
%ADD93R,0.0494X0.0004*%
%ADD94R,0.0414X0.0004*%
%ADD95R,0.0555X0.0004*%
%ADD96R,0.0524X0.0004*%
%ADD97R,0.0407X0.0004*%
%ADD98R,0.0528X0.0004*%
%ADD99R,0.0532X0.0004*%
%ADD100R,0.0536X0.0004*%
%ADD101R,0.0543X0.0004*%
%ADD102R,0.0551X0.0004*%
%ADD103R,0.0547X0.0004*%
%ADD104R,0.0429X0.0004*%
%ADD105R,0.0562X0.0004*%
%ADD106R,0.0566X0.0004*%
%ADD107R,0.0437X0.0004*%
%ADD108R,0.0517X0.0004*%
%ADD109R,0.0570X0.0004*%
%ADD110R,0.0574X0.0004*%
%ADD111R,0.0262X0.0004*%
%ADD112R,0.0578X0.0004*%
%ADD113R,0.0581X0.0004*%
%ADD114R,0.0581X0.0004*%
%ADD115R,0.0585X0.0004*%
%ADD116R,0.0315X0.0004*%
%ADD117R,0.0198X0.0004*%
%ADD118R,0.0589X0.0004*%
%ADD119R,0.0015X0.0004*%
%ADD120R,0.0593X0.0004*%
%ADD121R,0.0597X0.0004*%
%ADD122R,0.0600X0.0004*%
%ADD123R,0.0600X0.0004*%
%ADD124R,0.0604X0.0004*%
%ADD125R,0.0277X0.0004*%
%ADD126R,0.0258X0.0004*%
%ADD127R,0.0509X0.0004*%
%ADD128R,0.0486X0.0004*%
%ADD129R,0.0505X0.0004*%
%ADD130R,0.0498X0.0004*%
%ADD131R,0.0186X0.0004*%
%ADD132R,0.0182X0.0004*%
%ADD133R,0.0179X0.0004*%
%ADD134R,0.0175X0.0004*%
%ADD135R,0.0171X0.0004*%
%ADD136R,0.0167X0.0004*%
%ADD137R,0.0163X0.0004*%
%ADD138R,0.0084X0.0004*%
%ADD139R,0.0061X0.0004*%
%ADD140R,0.0160X0.0004*%
%ADD141R,0.0065X0.0004*%
%ADD142R,0.0426X0.0004*%
%ADD143R,0.0076X0.0004*%
%ADD144R,0.0384X0.0004*%
%ADD145R,0.0068X0.0004*%
%ADD146R,0.0148X0.0004*%
%ADD147R,0.0372X0.0004*%
%ADD148R,0.0410X0.0004*%
%ADD149R,0.0365X0.0004*%
%ADD150R,0.0080X0.0004*%
%ADD151R,0.0353X0.0004*%
%ADD152R,0.0068X0.0004*%
%ADD153R,0.0137X0.0004*%
%ADD154R,0.0338X0.0004*%
%ADD155R,0.0133X0.0004*%
%ADD156R,0.0376X0.0004*%
%ADD157R,0.0129X0.0004*%
%ADD158R,0.0125X0.0004*%
%ADD159R,0.0118X0.0004*%
%ADD160R,0.0342X0.0004*%
%ADD161R,0.0114X0.0004*%
%ADD162R,0.0331X0.0004*%
%ADD163R,0.0106X0.0004*%
%ADD164R,0.0099X0.0004*%
%ADD165R,0.0087X0.0004*%
%ADD166R,0.0281X0.0004*%
%ADD167R,0.0258X0.0004*%
%ADD168R,0.0053X0.0004*%
%ADD169R,0.0152X0.0004*%
%ADD170R,0.0091X0.0004*%
%ADD171R,0.0095X0.0004*%
%ADD172R,0.0091X0.0004*%
%ADD173R,0.0103X0.0004*%
%ADD174R,0.0532X0.0004*%
%ADD175R,0.0110X0.0004*%
%ADD176R,0.0589X0.0004*%
%ADD177R,0.0057X0.0004*%
%ADD178R,0.0566X0.0004*%
%ADD179R,0.0540X0.0004*%
%ADD180R,0.0057X0.0004*%
%ADD181R,0.0521X0.0004*%
%ADD182R,0.0129X0.0004*%
%ADD183R,0.0122X0.0004*%
%ADD184R,0.0391X0.0004*%
%ADD185R,0.0114X0.0004*%
%ADD186R,0.0005X0.0003*%
%ADD187R,0.0008X0.0003*%
%ADD188R,0.0013X0.0003*%
%ADD189R,0.0020X0.0003*%
%ADD190R,0.0025X0.0003*%
%ADD191R,0.0032X0.0003*%
%ADD192R,0.0030X0.0003*%
%ADD193R,0.0037X0.0003*%
%ADD194R,0.0045X0.0003*%
%ADD195R,0.0043X0.0003*%
%ADD196R,0.0050X0.0003*%
%ADD197R,0.0055X0.0003*%
%ADD198R,0.0063X0.0003*%
%ADD199R,0.0067X0.0003*%
%ADD200R,0.0075X0.0003*%
%ADD201R,0.0080X0.0003*%
%ADD202R,0.0088X0.0003*%
%ADD203R,0.0090X0.0003*%
%ADD204R,0.0092X0.0003*%
%ADD205R,0.0098X0.0003*%
%ADD206R,0.0103X0.0003*%
%ADD207R,0.0105X0.0003*%
%ADD208R,0.0107X0.0003*%
%ADD209R,0.0110X0.0003*%
%ADD210R,0.0115X0.0003*%
%ADD211R,0.0010X0.0003*%
%ADD212R,0.0118X0.0003*%
%ADD213R,0.0120X0.0003*%
%ADD214R,0.0018X0.0003*%
%ADD215R,0.0123X0.0003*%
%ADD216R,0.0130X0.0003*%
%ADD217R,0.0022X0.0003*%
%ADD218R,0.0135X0.0003*%
%ADD219R,0.0143X0.0003*%
%ADD220R,0.0035X0.0003*%
%ADD221R,0.0145X0.0003*%
%ADD222R,0.0040X0.0003*%
%ADD223R,0.0147X0.0003*%
%ADD224R,0.0155X0.0003*%
%ADD225R,0.0047X0.0003*%
%ADD226R,0.0163X0.0003*%
%ADD227R,0.0053X0.0003*%
%ADD228R,0.0160X0.0003*%
%ADD229R,0.0227X0.0003*%
%ADD230R,0.0230X0.0003*%
%ADD231R,0.0235X0.0003*%
%ADD232R,0.0238X0.0003*%
%ADD233R,0.0243X0.0003*%
%ADD234R,0.0240X0.0003*%
%ADD235R,0.0245X0.0003*%
%ADD236R,0.0248X0.0003*%
%ADD237R,0.0253X0.0003*%
%ADD238R,0.0255X0.0003*%
%ADD239R,0.0250X0.0003*%
%ADD240R,0.0233X0.0003*%
%ADD241R,0.0257X0.0003*%
%ADD242R,0.0260X0.0003*%
%ADD243R,0.0262X0.0003*%
%ADD244R,0.0265X0.0003*%
%ADD245R,0.0267X0.0003*%
%ADD246R,0.0270X0.0003*%
%ADD247R,0.0273X0.0003*%
%ADD248R,0.0275X0.0003*%
%ADD249R,0.0278X0.0003*%
%ADD250R,0.0290X0.0003*%
%ADD251R,0.0302X0.0003*%
%ADD252R,0.0313X0.0003*%
%ADD253R,0.0310X0.0003*%
%ADD254R,0.0323X0.0003*%
%ADD255R,0.0325X0.0003*%
%ADD256R,0.0335X0.0003*%
%ADD257R,0.0348X0.0003*%
%ADD258R,0.0345X0.0003*%
%ADD259R,0.0343X0.0003*%
%ADD260R,0.0340X0.0003*%
%ADD261R,0.0338X0.0003*%
%ADD262R,0.0333X0.0003*%
%ADD263R,0.0350X0.0003*%
%ADD264R,0.0330X0.0003*%
%ADD265R,0.0318X0.0003*%
%ADD266R,0.0305X0.0003*%
%ADD267R,0.0295X0.0003*%
%ADD268R,0.0285X0.0003*%
%ADD269R,0.0283X0.0003*%
%ADD270R,0.0280X0.0003*%
%ADD271R,0.0288X0.0003*%
%ADD272R,0.0293X0.0003*%
%ADD273R,0.0308X0.0003*%
%ADD274R,0.0645X0.0003*%
%ADD275R,0.0643X0.0003*%
%ADD276R,0.0640X0.0003*%
%ADD277R,0.0635X0.0003*%
%ADD278R,0.0633X0.0003*%
%ADD279R,0.0630X0.0003*%
%ADD280R,0.0625X0.0003*%
%ADD281R,0.0620X0.0003*%
%ADD282R,0.0617X0.0003*%
%ADD283R,0.0615X0.0003*%
%ADD284R,0.0610X0.0003*%
%ADD285R,0.0648X0.0003*%
%ADD286R,0.0653X0.0003*%
%ADD287R,0.0655X0.0003*%
%ADD288R,0.0660X0.0003*%
%ADD289R,0.0663X0.0003*%
%ADD290R,0.0665X0.0003*%
%ADD291R,0.0670X0.0003*%
%ADD292R,0.0673X0.0003*%
%ADD293R,0.0675X0.0003*%
%ADD294R,0.0680X0.0003*%
%ADD295R,0.0683X0.0003*%
%ADD296R,0.0685X0.0003*%
%ADD297R,0.0690X0.0003*%
%ADD298R,0.0693X0.0003*%
%ADD299R,0.0695X0.0003*%
%ADD300R,0.0700X0.0003*%
%ADD301R,0.0705X0.0003*%
%ADD302R,0.0710X0.0003*%
%ADD303R,0.0715X0.0003*%
%ADD304R,0.0720X0.0003*%
%ADD305R,0.0725X0.0003*%
%ADD306R,0.0727X0.0003*%
%ADD307R,0.0730X0.0003*%
%ADD308R,0.0735X0.0003*%
%ADD309R,0.0737X0.0003*%
%ADD310R,0.0740X0.0003*%
%ADD311R,0.0745X0.0003*%
%ADD312R,0.0747X0.0003*%
%ADD313R,0.0175X0.0003*%
%ADD314R,0.0168X0.0003*%
%ADD315R,0.0320X0.0003*%
%ADD316R,0.0150X0.0003*%
%ADD317R,0.0138X0.0003*%
%ADD318R,0.0133X0.0003*%
%ADD319R,0.0125X0.0003*%
%ADD320R,0.0113X0.0003*%
%ADD321R,0.0220X0.0003*%
%ADD322R,0.0210X0.0003*%
%ADD323R,0.0100X0.0003*%
%ADD324R,0.0200X0.0003*%
%ADD325R,0.0095X0.0003*%
%ADD326R,0.0185X0.0003*%
%ADD327R,0.0180X0.0003*%
%ADD328R,0.0083X0.0003*%
%ADD329R,0.0170X0.0003*%
%ADD330R,0.0070X0.0003*%
%ADD331R,0.0057X0.0003*%
%ADD332R,0.0165X0.0003*%
%ADD333R,0.0027X0.0003*%
%ADD334R,0.0015X0.0003*%
%ADD335R,0.0158X0.0003*%
%ADD336R,0.0153X0.0003*%
%ADD337R,0.0140X0.0003*%
%ADD338R,0.3990X0.0010*%
%ADD339R,0.4010X0.0010*%
%ADD340R,0.4030X0.0010*%
%ADD341R,0.1910X0.0010*%
%ADD342R,0.0170X0.0010*%
%ADD343R,0.0670X0.0010*%
%ADD344R,0.0060X0.0010*%
%ADD345R,0.0120X0.0010*%
%ADD346R,0.0780X0.0010*%
%ADD347R,0.0640X0.0010*%
%ADD348R,0.0040X0.0010*%
%ADD349R,0.0110X0.0010*%
%ADD350R,0.0770X0.0010*%
%ADD351R,0.0100X0.0010*%
%ADD352R,0.0630X0.0010*%
%ADD353R,0.0020X0.0010*%
%ADD354R,0.0610X0.0010*%
%ADD355R,0.1120X0.0010*%
%ADD356R,0.0090X0.0010*%
%ADD357R,0.0620X0.0010*%
%ADD358R,0.0560X0.0010*%
%ADD359R,0.1070X0.0010*%
%ADD360R,0.0530X0.0010*%
%ADD361R,0.1030X0.0010*%
%ADD362R,0.0070X0.0010*%
%ADD363R,0.0080X0.0010*%
%ADD364R,0.0790X0.0010*%
%ADD365R,0.0500X0.0010*%
%ADD366R,0.1010X0.0010*%
%ADD367R,0.0030X0.0010*%
%ADD368R,0.0470X0.0010*%
%ADD369R,0.0980X0.0010*%
%ADD370R,0.0600X0.0010*%
%ADD371R,0.0450X0.0010*%
%ADD372R,0.0960X0.0010*%
%ADD373R,0.0800X0.0010*%
%ADD374R,0.0430X0.0010*%
%ADD375R,0.0940X0.0010*%
%ADD376R,0.0700X0.0010*%
%ADD377R,0.0410X0.0010*%
%ADD378R,0.0920X0.0010*%
%ADD379R,0.0660X0.0010*%
%ADD380R,0.0810X0.0010*%
%ADD381R,0.0390X0.0010*%
%ADD382R,0.0900X0.0010*%
%ADD383R,0.0050X0.0010*%
%ADD384R,0.0380X0.0010*%
%ADD385R,0.0880X0.0010*%
%ADD386R,0.0360X0.0010*%
%ADD387R,0.0870X0.0010*%
%ADD388R,0.0590X0.0010*%
%ADD389R,0.0820X0.0010*%
%ADD390R,0.0350X0.0010*%
%ADD391R,0.0860X0.0010*%
%ADD392R,0.0580X0.0010*%
%ADD393R,0.0130X0.0010*%
%ADD394R,0.0010X0.0010*%
%ADD395R,0.0330X0.0010*%
%ADD396R,0.0840X0.0010*%
%ADD397R,0.0570X0.0010*%
%ADD398R,0.0320X0.0010*%
%ADD399R,0.0240X0.0010*%
%ADD400R,0.0830X0.0010*%
%ADD401R,0.0310X0.0010*%
%ADD402R,0.0300X0.0010*%
%ADD403R,0.0370X0.0010*%
%ADD404R,0.0550X0.0010*%
%ADD405R,0.0290X0.0010*%
%ADD406R,0.0420X0.0010*%
%ADD407R,0.0280X0.0010*%
%ADD408R,0.0460X0.0010*%
%ADD409R,0.0270X0.0010*%
%ADD410R,0.0850X0.0010*%
%ADD411R,0.0260X0.0010*%
%ADD412R,0.0250X0.0010*%
%ADD413R,0.1750X0.0010*%
%ADD414R,0.1060X0.0010*%
%ADD415R,0.0230X0.0010*%
%ADD416R,0.2870X0.0010*%
%ADD417R,0.0200X0.0010*%
%ADD418R,0.2860X0.0010*%
%ADD419R,0.0220X0.0010*%
%ADD420R,0.0180X0.0010*%
%ADD421R,0.2850X0.0010*%
%ADD422R,0.0160X0.0010*%
%ADD423R,0.2840X0.0010*%
%ADD424R,0.0210X0.0010*%
%ADD425R,0.0150X0.0010*%
%ADD426R,0.0140X0.0010*%
%ADD427R,0.2830X0.0010*%
%ADD428R,0.0190X0.0010*%
%ADD429R,0.2820X0.0010*%
%ADD430R,0.2810X0.0010*%
%ADD431R,0.0490X0.0010*%
%ADD432R,0.0340X0.0010*%
%ADD433R,0.3970X0.0010*%
%ADD434R,0.3950X0.0010*%
%ADD435R,0.3890X0.0010*%
D10*
X000159Y000159D02*
X014057Y000159D01*
X014057Y004883D01*
X000159Y004883D01*
X000159Y000159D01*
D11*
X002833Y003070D02*
X002777Y003126D01*
X002777Y003404D01*
X002944Y003404D01*
X003000Y003348D01*
X003000Y003237D01*
X002944Y003181D01*
X002777Y003181D01*
X002833Y003070D02*
X002888Y003070D01*
X003302Y003181D02*
X003302Y003404D01*
X003302Y003293D02*
X003190Y003404D01*
X003135Y003404D01*
X003442Y003348D02*
X003497Y003404D01*
X003609Y003404D01*
X003664Y003348D01*
X003664Y003237D01*
X003609Y003181D01*
X003497Y003181D01*
X003442Y003237D01*
X003442Y003348D01*
X003790Y003237D02*
X003790Y003181D01*
X003845Y003181D01*
X003845Y003237D01*
X003790Y003237D01*
X003981Y003181D02*
X004148Y003293D01*
X003981Y003404D01*
X004148Y003515D02*
X004148Y003181D01*
X004287Y003181D02*
X004454Y003181D01*
X004510Y003237D01*
X004510Y003348D01*
X004454Y003404D01*
X004287Y003404D01*
X004696Y003404D02*
X004696Y003181D01*
X004752Y003181D02*
X004640Y003181D01*
X004892Y003237D02*
X004947Y003181D01*
X005114Y003181D01*
X004892Y003237D02*
X004892Y003348D01*
X004947Y003404D01*
X005114Y003404D01*
X005114Y003070D01*
X005310Y003181D02*
X005421Y003181D01*
X005477Y003237D01*
X005477Y003348D01*
X005421Y003404D01*
X005310Y003404D01*
X005254Y003348D01*
X005254Y003293D01*
X005477Y003293D01*
X005612Y003404D02*
X005668Y003404D01*
X005779Y003293D01*
X005779Y003404D02*
X005779Y003181D01*
X005909Y003181D02*
X006021Y003181D01*
X005965Y003181D02*
X005965Y003404D01*
X006021Y003404D01*
X006151Y003348D02*
X006262Y003348D01*
X006207Y003460D02*
X006151Y003515D01*
X006207Y003460D02*
X006207Y003181D01*
X006388Y003181D02*
X006388Y003237D01*
X006444Y003237D01*
X006444Y003181D01*
X006388Y003181D01*
X006583Y003181D02*
X006750Y003181D01*
X006806Y003237D01*
X006750Y003293D01*
X006583Y003293D01*
X006583Y003348D02*
X006583Y003181D01*
X006936Y003181D02*
X006992Y003237D01*
X006992Y003460D01*
X007048Y003404D02*
X006936Y003404D01*
X006750Y003404D02*
X006639Y003404D01*
X006583Y003348D01*
X007178Y003181D02*
X007289Y003181D01*
X007234Y003181D02*
X007234Y003515D01*
X007289Y003515D01*
X007429Y003348D02*
X007485Y003404D01*
X007596Y003404D01*
X007652Y003348D01*
X007652Y003237D01*
X007596Y003181D01*
X007485Y003181D01*
X007429Y003293D02*
X007652Y003293D01*
X007429Y003293D02*
X007429Y003348D01*
X007792Y003404D02*
X007959Y003404D01*
X008014Y003348D01*
X008014Y003237D01*
X007959Y003181D01*
X007792Y003181D01*
X007792Y003515D01*
X008154Y003515D02*
X008377Y003181D01*
X008739Y003181D02*
X008517Y003515D01*
X008865Y003404D02*
X008865Y003348D01*
X008921Y003348D01*
X008921Y003404D01*
X008865Y003404D01*
X009061Y003348D02*
X009061Y003237D01*
X009116Y003181D01*
X009283Y003181D01*
X009414Y003181D02*
X009469Y003237D01*
X009469Y003460D01*
X009414Y003404D02*
X009525Y003404D01*
X009655Y003404D02*
X009767Y003404D01*
X009711Y003460D02*
X009711Y003237D01*
X009655Y003181D01*
X009906Y003181D02*
X009906Y003348D01*
X009962Y003404D01*
X010073Y003404D01*
X010129Y003348D01*
X010129Y003515D02*
X010129Y003181D01*
X009283Y003070D02*
X009283Y003404D01*
X009116Y003404D01*
X009061Y003348D01*
X008921Y003237D02*
X008921Y003181D01*
X008865Y003181D01*
X008865Y003237D01*
X008921Y003237D01*
X005965Y003515D02*
X005965Y003571D01*
X004752Y003404D02*
X004696Y003404D01*
X004696Y003515D02*
X004696Y003571D01*
X012315Y003492D02*
X012649Y003492D01*
X012649Y003603D02*
X012649Y003380D01*
X012593Y003240D02*
X012482Y003240D01*
X012426Y003185D01*
X012426Y003018D01*
X012315Y003018D02*
X012649Y003018D01*
X012649Y003185D01*
X012593Y003240D01*
X012593Y002878D02*
X012371Y002878D01*
X012315Y002822D01*
X012315Y002711D01*
X012371Y002655D01*
X012593Y002655D01*
X012649Y002711D01*
X012649Y002822D01*
X012593Y002878D01*
X012649Y002515D02*
X012649Y002293D01*
X012315Y002293D01*
X012315Y002515D01*
X012482Y002404D02*
X012482Y002293D01*
X012482Y001805D02*
X012482Y001749D01*
X012538Y001749D01*
X012538Y001805D01*
X012482Y001805D01*
X012371Y001805D02*
X012315Y001805D01*
X012315Y001749D01*
X012371Y001749D01*
X012371Y001805D01*
X012315Y001609D02*
X012649Y001609D01*
X012649Y001387D02*
X012315Y001609D01*
X012315Y001387D02*
X012649Y001387D01*
X012649Y001247D02*
X012315Y001024D01*
X012482Y000884D02*
X012426Y000828D01*
X012426Y000661D01*
X012315Y000661D02*
X012649Y000661D01*
X012649Y000828D01*
X012593Y000884D01*
X012482Y000884D01*
X012371Y003743D02*
X012315Y003799D01*
X012315Y003910D01*
X012371Y003966D01*
X012593Y003966D01*
X012649Y003910D01*
X012649Y003799D01*
X012593Y003743D01*
X012371Y003743D01*
X012371Y004105D02*
X012593Y004328D01*
X012371Y004328D01*
X012315Y004272D01*
X012315Y004161D01*
X012371Y004105D01*
X012593Y004105D01*
X012649Y004161D01*
X012649Y004272D01*
X012593Y004328D01*
X012538Y004468D02*
X012649Y004579D01*
X012315Y004579D01*
X012315Y004468D02*
X012315Y004691D01*
D12*
X008250Y001734D02*
X008252Y001785D01*
X008258Y001836D01*
X008268Y001886D01*
X008281Y001936D01*
X008299Y001984D01*
X008319Y002031D01*
X008344Y002076D01*
X008372Y002119D01*
X008403Y002160D01*
X008437Y002198D01*
X008474Y002233D01*
X008513Y002266D01*
X008555Y002296D01*
X008599Y002322D01*
X008645Y002344D01*
X008693Y002364D01*
X008742Y002379D01*
X008792Y002391D01*
X008842Y002399D01*
X008893Y002403D01*
X008945Y002403D01*
X008996Y002399D01*
X009046Y002391D01*
X009096Y002379D01*
X009145Y002364D01*
X009193Y002344D01*
X009239Y002322D01*
X009283Y002296D01*
X009325Y002266D01*
X009364Y002233D01*
X009401Y002198D01*
X009435Y002160D01*
X009466Y002119D01*
X009494Y002076D01*
X009519Y002031D01*
X009539Y001984D01*
X009557Y001936D01*
X009570Y001886D01*
X009580Y001836D01*
X009586Y001785D01*
X009588Y001734D01*
X009586Y001683D01*
X009580Y001632D01*
X009570Y001582D01*
X009557Y001532D01*
X009539Y001484D01*
X009519Y001437D01*
X009494Y001392D01*
X009466Y001349D01*
X009435Y001308D01*
X009401Y001270D01*
X009364Y001235D01*
X009325Y001202D01*
X009283Y001172D01*
X009239Y001146D01*
X009193Y001124D01*
X009145Y001104D01*
X009096Y001089D01*
X009046Y001077D01*
X008996Y001069D01*
X008945Y001065D01*
X008893Y001065D01*
X008842Y001069D01*
X008792Y001077D01*
X008742Y001089D01*
X008693Y001104D01*
X008645Y001124D01*
X008599Y001146D01*
X008555Y001172D01*
X008513Y001202D01*
X008474Y001235D01*
X008437Y001270D01*
X008403Y001308D01*
X008372Y001349D01*
X008344Y001392D01*
X008319Y001437D01*
X008299Y001484D01*
X008281Y001532D01*
X008268Y001582D01*
X008258Y001632D01*
X008252Y001683D01*
X008250Y001734D01*
X000770Y001734D02*
X000772Y001785D01*
X000778Y001836D01*
X000788Y001886D01*
X000801Y001936D01*
X000819Y001984D01*
X000839Y002031D01*
X000864Y002076D01*
X000892Y002119D01*
X000923Y002160D01*
X000957Y002198D01*
X000994Y002233D01*
X001033Y002266D01*
X001075Y002296D01*
X001119Y002322D01*
X001165Y002344D01*
X001213Y002364D01*
X001262Y002379D01*
X001312Y002391D01*
X001362Y002399D01*
X001413Y002403D01*
X001465Y002403D01*
X001516Y002399D01*
X001566Y002391D01*
X001616Y002379D01*
X001665Y002364D01*
X001713Y002344D01*
X001759Y002322D01*
X001803Y002296D01*
X001845Y002266D01*
X001884Y002233D01*
X001921Y002198D01*
X001955Y002160D01*
X001986Y002119D01*
X002014Y002076D01*
X002039Y002031D01*
X002059Y001984D01*
X002077Y001936D01*
X002090Y001886D01*
X002100Y001836D01*
X002106Y001785D01*
X002108Y001734D01*
X002106Y001683D01*
X002100Y001632D01*
X002090Y001582D01*
X002077Y001532D01*
X002059Y001484D01*
X002039Y001437D01*
X002014Y001392D01*
X001986Y001349D01*
X001955Y001308D01*
X001921Y001270D01*
X001884Y001235D01*
X001845Y001202D01*
X001803Y001172D01*
X001759Y001146D01*
X001713Y001124D01*
X001665Y001104D01*
X001616Y001089D01*
X001566Y001077D01*
X001516Y001069D01*
X001465Y001065D01*
X001413Y001065D01*
X001362Y001069D01*
X001312Y001077D01*
X001262Y001089D01*
X001213Y001104D01*
X001165Y001124D01*
X001119Y001146D01*
X001075Y001172D01*
X001033Y001202D01*
X000994Y001235D01*
X000957Y001270D01*
X000923Y001308D01*
X000892Y001349D01*
X000864Y001392D01*
X000839Y001437D01*
X000819Y001484D01*
X000801Y001532D01*
X000788Y001582D01*
X000778Y001632D01*
X000772Y001683D01*
X000770Y001734D01*
D13*
X004943Y004262D03*
X004943Y004266D03*
X004943Y004269D03*
X004939Y004277D03*
X004939Y004281D03*
X004939Y004285D03*
X004936Y004292D03*
X004936Y004296D03*
X004936Y004300D03*
X004932Y004307D03*
X004932Y004311D03*
X004932Y004315D03*
X004932Y004319D03*
X004928Y004323D03*
X004928Y004326D03*
X004928Y004330D03*
X004928Y004334D03*
X004924Y004338D03*
X004924Y004342D03*
X004924Y004345D03*
X004924Y004349D03*
X004920Y004353D03*
X004920Y004357D03*
X004920Y004361D03*
X004920Y004364D03*
X004917Y004368D03*
X004917Y004372D03*
X004917Y004376D03*
X004917Y004380D03*
X004913Y004383D03*
X004913Y004387D03*
X004913Y004391D03*
X004913Y004395D03*
X004909Y004399D03*
X004909Y004402D03*
X004909Y004406D03*
X004909Y004410D03*
X004905Y004418D03*
X004905Y004421D03*
X004905Y004425D03*
X004901Y004433D03*
X004901Y004437D03*
X004901Y004440D03*
X004898Y004448D03*
X004898Y004452D03*
X004898Y004456D03*
X004894Y004463D03*
X004894Y004467D03*
X004894Y004471D03*
X004890Y004478D03*
X004890Y004482D03*
X004890Y004486D03*
X005122Y004490D03*
X005126Y004478D03*
X005126Y004475D03*
X005129Y004463D03*
X005129Y004459D03*
X005133Y004448D03*
X005133Y004444D03*
X005137Y004433D03*
X005137Y004429D03*
X005141Y004418D03*
X005141Y004414D03*
X005145Y004402D03*
X005145Y004399D03*
X005145Y004395D03*
X005148Y004387D03*
X005148Y004383D03*
X005148Y004380D03*
X005152Y004372D03*
X005152Y004368D03*
X005152Y004364D03*
X005156Y004357D03*
X005156Y004353D03*
X005156Y004349D03*
X005160Y004342D03*
X005160Y004338D03*
X005160Y004334D03*
X005164Y004326D03*
X005164Y004323D03*
X005164Y004319D03*
X005167Y004311D03*
X005167Y004307D03*
X005167Y004304D03*
X005171Y004296D03*
X005171Y004292D03*
X005171Y004288D03*
X005175Y004281D03*
X005175Y004277D03*
X005175Y004273D03*
X005179Y004266D03*
X005179Y004262D03*
X005053Y004292D03*
X005053Y004296D03*
X008166Y003612D03*
D14*
X006551Y003612D03*
X005338Y004266D03*
X005338Y004269D03*
X005338Y004273D03*
X005331Y004296D03*
X005331Y004300D03*
X005331Y004304D03*
X005327Y004311D03*
X005327Y004315D03*
X005327Y004319D03*
X005319Y004342D03*
X005319Y004345D03*
X005319Y004349D03*
X005316Y004357D03*
X005316Y004361D03*
X005316Y004364D03*
X005308Y004391D03*
X005308Y004395D03*
X005304Y004406D03*
X005304Y004410D03*
X005297Y004437D03*
X005297Y004440D03*
X005285Y004482D03*
X005285Y004486D03*
X005278Y004513D03*
X005278Y004516D03*
D15*
X007966Y004323D03*
X008369Y004273D03*
X008156Y003616D03*
D16*
X006545Y003616D03*
X008361Y004285D03*
X008365Y004281D03*
D17*
X008405Y004216D03*
X008150Y003620D03*
D18*
X006541Y003620D03*
X008399Y004224D03*
X008403Y004220D03*
X007970Y004319D03*
D19*
X007972Y004315D03*
X008656Y004030D03*
X008656Y004026D03*
X008656Y004022D03*
X008660Y004015D03*
X008660Y004011D03*
X008667Y003984D03*
X008667Y003981D03*
X008671Y003969D03*
X008671Y003965D03*
X008679Y003939D03*
X008679Y003935D03*
X008682Y003924D03*
X008682Y003920D03*
X008686Y003908D03*
X008686Y003905D03*
X008690Y003893D03*
X008690Y003889D03*
X008694Y003878D03*
X008694Y003874D03*
X008698Y003863D03*
X008698Y003859D03*
X008701Y003848D03*
X008701Y003844D03*
X008709Y003817D03*
X008709Y003813D03*
X008713Y003802D03*
X008713Y003798D03*
X008720Y003772D03*
X008720Y003768D03*
X008724Y003756D03*
X008724Y003753D03*
X008732Y003726D03*
X008732Y003722D03*
X008736Y003711D03*
X008736Y003707D03*
X008739Y003696D03*
X008739Y003692D03*
X008743Y003680D03*
X008743Y003677D03*
X008751Y003650D03*
X008751Y003646D03*
X008755Y003635D03*
X008755Y003631D03*
X009059Y003692D03*
X009059Y003696D03*
X009062Y003680D03*
X009062Y003677D03*
X009066Y003665D03*
X009066Y003661D03*
X009070Y003650D03*
X009070Y003646D03*
X009074Y003635D03*
X009074Y003631D03*
X009051Y003722D03*
X009051Y003726D03*
X009047Y003737D03*
X009047Y003741D03*
X009040Y003768D03*
X009040Y003772D03*
X009036Y003783D03*
X009036Y003787D03*
X009028Y003813D03*
X009028Y003817D03*
X009024Y003829D03*
X009024Y003832D03*
X009021Y003844D03*
X009021Y003848D03*
X009017Y003859D03*
X009017Y003863D03*
X009009Y003889D03*
X009009Y003893D03*
X009005Y003905D03*
X009005Y003908D03*
X008998Y003935D03*
X008998Y003939D03*
X008994Y003950D03*
X008994Y003954D03*
X008986Y003981D03*
X008986Y003984D03*
X008983Y003996D03*
X008983Y004000D03*
X008979Y004011D03*
X008979Y004015D03*
X008975Y004026D03*
X008975Y004030D03*
X008971Y004041D03*
X008971Y004045D03*
X008967Y004057D03*
X008967Y004060D03*
X008964Y004072D03*
X008964Y004076D03*
X008956Y004102D03*
X008956Y004106D03*
X008952Y004117D03*
X008952Y004121D03*
X008945Y004148D03*
X008945Y004152D03*
X008941Y004163D03*
X008941Y004167D03*
X008933Y004193D03*
X008933Y004197D03*
X008929Y004209D03*
X008929Y004212D03*
X008926Y004224D03*
X008926Y004228D03*
X008922Y004239D03*
X008922Y004243D03*
X008914Y004269D03*
X008914Y004273D03*
X008910Y004285D03*
X008910Y004288D03*
X008891Y004364D03*
X008891Y004368D03*
X008888Y004380D03*
X008888Y004383D03*
X008884Y004395D03*
X008884Y004399D03*
X008880Y004410D03*
X008880Y004414D03*
X008876Y004425D03*
X008876Y004429D03*
X008872Y004440D03*
X008872Y004444D03*
X008869Y004456D03*
X008869Y004459D03*
X008861Y004490D03*
X008857Y004505D03*
X008850Y004535D03*
X008245Y003931D03*
X008245Y003927D03*
X008249Y003916D03*
X008249Y003912D03*
X008261Y003756D03*
X008257Y003753D03*
X007976Y003753D03*
X008150Y003623D03*
X007010Y003631D03*
X007010Y003635D03*
X007003Y003661D03*
X007003Y003665D03*
X006999Y003677D03*
X006999Y003680D03*
X006991Y003707D03*
X006991Y003711D03*
X006988Y003722D03*
X006988Y003726D03*
X006984Y003737D03*
X006984Y003741D03*
X006980Y003753D03*
X006980Y003756D03*
X006976Y003768D03*
X006976Y003772D03*
X006972Y003783D03*
X006972Y003787D03*
X006969Y003798D03*
X006969Y003802D03*
X006961Y003829D03*
X006961Y003832D03*
X006957Y003844D03*
X006957Y003848D03*
X006950Y003874D03*
X006950Y003878D03*
X006946Y003889D03*
X006946Y003893D03*
X006938Y003920D03*
X006938Y003924D03*
X006934Y003935D03*
X006934Y003939D03*
X006931Y003950D03*
X006931Y003954D03*
X006927Y003965D03*
X006927Y003969D03*
X006919Y003996D03*
X006919Y004000D03*
X006915Y004011D03*
X006915Y004015D03*
X006908Y004041D03*
X006908Y004045D03*
X006904Y004057D03*
X006904Y004060D03*
X006896Y004087D03*
X006896Y004091D03*
X006893Y004102D03*
X006893Y004106D03*
X006889Y004117D03*
X006889Y004121D03*
X006885Y004133D03*
X006885Y004136D03*
X006881Y004148D03*
X006881Y004152D03*
X006877Y004163D03*
X006877Y004167D03*
X006874Y004178D03*
X006874Y004182D03*
X006866Y004209D03*
X006866Y004212D03*
X006862Y004224D03*
X006862Y004228D03*
X006855Y004254D03*
X006855Y004258D03*
X006851Y004269D03*
X006851Y004273D03*
X006843Y004300D03*
X006843Y004304D03*
X006554Y004163D03*
X006551Y004167D03*
X006547Y004171D03*
X006604Y004045D03*
X006608Y004034D03*
X006611Y004022D03*
X006611Y004019D03*
X006619Y004000D03*
X006619Y003996D03*
X006619Y003992D03*
X006623Y003984D03*
X006623Y003981D03*
X006623Y003977D03*
X006630Y003958D03*
X006630Y003954D03*
X006630Y003950D03*
X006630Y003946D03*
X006634Y003939D03*
X006634Y003935D03*
X006634Y003931D03*
X006642Y003905D03*
X006642Y003901D03*
X006642Y003897D03*
X006646Y003882D03*
X006646Y003878D03*
X006649Y003787D03*
X006649Y003783D03*
X006649Y003779D03*
X006072Y003635D03*
X006072Y003631D03*
X006064Y003661D03*
X006064Y003665D03*
X006060Y003677D03*
X006060Y003680D03*
X006053Y003707D03*
X006053Y003711D03*
X006049Y003722D03*
X006049Y003726D03*
X006041Y003753D03*
X006041Y003756D03*
X006038Y003768D03*
X006038Y003772D03*
X006034Y003783D03*
X006034Y003787D03*
X006030Y003798D03*
X006030Y003802D03*
X006026Y003810D03*
X005958Y004091D03*
X005958Y004095D03*
X005954Y004106D03*
X005954Y004110D03*
X005946Y004136D03*
X005946Y004140D03*
X005943Y004152D03*
X005943Y004155D03*
X005939Y004167D03*
X005939Y004171D03*
X005935Y004182D03*
X005935Y004186D03*
X005931Y004197D03*
X005931Y004201D03*
X005927Y004212D03*
X005927Y004216D03*
X005924Y004228D03*
X005924Y004231D03*
X005916Y004258D03*
X005916Y004262D03*
X005912Y004273D03*
X005912Y004277D03*
X005905Y004304D03*
X005905Y004307D03*
X005901Y004319D03*
X005901Y004323D03*
X005893Y004349D03*
X005893Y004353D03*
X005889Y004364D03*
X005889Y004368D03*
X005886Y004380D03*
X005886Y004383D03*
X005882Y004395D03*
X005882Y004399D03*
X005874Y004429D03*
X005870Y004444D03*
X005863Y004475D03*
X005859Y004490D03*
X005851Y004520D03*
X005848Y004535D03*
X005642Y004190D03*
X005646Y004186D03*
X005650Y004182D03*
X005658Y004171D03*
X005661Y004167D03*
X005669Y004159D03*
X005673Y004155D03*
X005696Y004129D03*
D20*
X005694Y004133D03*
X005690Y004136D03*
X005686Y004140D03*
X005682Y004144D03*
X005679Y004148D03*
X005701Y004121D03*
X005705Y004117D03*
X005709Y004114D03*
X005713Y004110D03*
X005937Y004174D03*
X005937Y004178D03*
X005933Y004190D03*
X005933Y004193D03*
X005926Y004220D03*
X005926Y004224D03*
X005922Y004235D03*
X005922Y004239D03*
X005918Y004250D03*
X005918Y004254D03*
X005914Y004266D03*
X005914Y004269D03*
X005910Y004281D03*
X005910Y004285D03*
X005907Y004296D03*
X005907Y004300D03*
X005903Y004311D03*
X005903Y004315D03*
X005899Y004326D03*
X005899Y004330D03*
X005895Y004342D03*
X005895Y004345D03*
X005891Y004357D03*
X005891Y004361D03*
X005884Y004387D03*
X005884Y004391D03*
X005880Y004402D03*
X005880Y004406D03*
X005880Y004410D03*
X005876Y004418D03*
X005876Y004421D03*
X005876Y004425D03*
X005872Y004433D03*
X005872Y004437D03*
X005872Y004440D03*
X005869Y004448D03*
X005869Y004452D03*
X005869Y004456D03*
X005865Y004463D03*
X005865Y004467D03*
X005865Y004471D03*
X005861Y004478D03*
X005861Y004482D03*
X005861Y004486D03*
X005857Y004494D03*
X005857Y004497D03*
X005857Y004501D03*
X005853Y004509D03*
X005853Y004513D03*
X005853Y004516D03*
X005850Y004524D03*
X005850Y004528D03*
X005850Y004532D03*
X006245Y004186D03*
X005952Y004117D03*
X005952Y004114D03*
X005956Y004102D03*
X005956Y004098D03*
X005960Y004087D03*
X005948Y004129D03*
X005948Y004133D03*
X005945Y004144D03*
X005945Y004148D03*
X006556Y004159D03*
X006560Y004155D03*
X006560Y004152D03*
X006564Y004148D03*
X006568Y004140D03*
X006572Y004133D03*
X006575Y004125D03*
X006579Y004117D03*
X006579Y004114D03*
X006583Y004106D03*
X006587Y004098D03*
X006587Y004095D03*
X006591Y004087D03*
X006591Y004083D03*
X006598Y004068D03*
X006598Y004064D03*
X006598Y004060D03*
X006602Y004057D03*
X006602Y004053D03*
X006602Y004049D03*
X006610Y004030D03*
X006610Y004026D03*
X006613Y004015D03*
X006621Y003988D03*
X006632Y003943D03*
X006636Y003927D03*
X006640Y003908D03*
X006644Y003893D03*
X006644Y003889D03*
X006644Y003886D03*
X006651Y003851D03*
X006651Y003848D03*
X006651Y003844D03*
X006651Y003840D03*
X006651Y003836D03*
X006651Y003832D03*
X006651Y003829D03*
X006651Y003825D03*
X006651Y003821D03*
X006651Y003817D03*
X006651Y003813D03*
X006651Y003810D03*
X006651Y003806D03*
X006651Y003802D03*
X006651Y003798D03*
X006651Y003794D03*
X006651Y003791D03*
X006347Y003772D03*
X006344Y003775D03*
X006055Y003703D03*
X006055Y003699D03*
X006059Y003688D03*
X006059Y003684D03*
X006062Y003673D03*
X006062Y003669D03*
X006066Y003658D03*
X006066Y003654D03*
X006070Y003642D03*
X006070Y003639D03*
X006074Y003627D03*
X006051Y003715D03*
X006051Y003718D03*
X006047Y003730D03*
X006047Y003734D03*
X006043Y003745D03*
X006043Y003749D03*
X006040Y003760D03*
X006040Y003764D03*
X006032Y003791D03*
X006032Y003794D03*
X006028Y003806D03*
X006537Y003623D03*
X006982Y003745D03*
X006982Y003749D03*
X006978Y003760D03*
X006978Y003764D03*
X006971Y003791D03*
X006971Y003794D03*
X006967Y003806D03*
X006967Y003810D03*
X006963Y003821D03*
X006963Y003825D03*
X006959Y003836D03*
X006959Y003840D03*
X006955Y003851D03*
X006955Y003855D03*
X006952Y003867D03*
X006952Y003870D03*
X006948Y003882D03*
X006948Y003886D03*
X006944Y003897D03*
X006944Y003901D03*
X006940Y003912D03*
X006940Y003916D03*
X006936Y003927D03*
X006936Y003931D03*
X006929Y003958D03*
X006929Y003962D03*
X006925Y003973D03*
X006925Y003977D03*
X006921Y003988D03*
X006921Y003992D03*
X006917Y004003D03*
X006917Y004007D03*
X006914Y004019D03*
X006914Y004022D03*
X006910Y004034D03*
X006910Y004038D03*
X006906Y004049D03*
X006906Y004053D03*
X006902Y004064D03*
X006902Y004068D03*
X006898Y004079D03*
X006898Y004083D03*
X006895Y004095D03*
X006895Y004098D03*
X006887Y004125D03*
X006887Y004129D03*
X006883Y004140D03*
X006883Y004144D03*
X006876Y004171D03*
X006876Y004174D03*
X006872Y004186D03*
X006872Y004190D03*
X006868Y004201D03*
X006868Y004205D03*
X006864Y004216D03*
X006864Y004220D03*
X006860Y004231D03*
X006860Y004235D03*
X006857Y004247D03*
X006857Y004250D03*
X006853Y004262D03*
X006853Y004266D03*
X006849Y004277D03*
X006849Y004281D03*
X006845Y004292D03*
X006845Y004296D03*
X006841Y004307D03*
X008152Y004178D03*
X008156Y004174D03*
X008658Y004019D03*
X008662Y004007D03*
X008662Y004003D03*
X008665Y003992D03*
X008665Y003988D03*
X008669Y003977D03*
X008669Y003973D03*
X008673Y003962D03*
X008673Y003958D03*
X008677Y003946D03*
X008677Y003943D03*
X008681Y003931D03*
X008681Y003927D03*
X008688Y003901D03*
X008688Y003897D03*
X008692Y003886D03*
X008692Y003882D03*
X008700Y003855D03*
X008700Y003851D03*
X008703Y003840D03*
X008703Y003836D03*
X008707Y003825D03*
X008707Y003821D03*
X008711Y003810D03*
X008711Y003806D03*
X008715Y003794D03*
X008715Y003791D03*
X008719Y003779D03*
X008719Y003775D03*
X008722Y003764D03*
X008722Y003760D03*
X008726Y003749D03*
X008726Y003745D03*
X008730Y003734D03*
X008730Y003730D03*
X008734Y003718D03*
X008734Y003715D03*
X008741Y003688D03*
X008741Y003684D03*
X008745Y003673D03*
X008745Y003669D03*
X008749Y003658D03*
X008749Y003654D03*
X008753Y003642D03*
X008753Y003639D03*
X008757Y003627D03*
X009057Y003699D03*
X009057Y003703D03*
X009053Y003715D03*
X009053Y003718D03*
X009049Y003730D03*
X009049Y003734D03*
X009045Y003745D03*
X009045Y003749D03*
X009042Y003760D03*
X009042Y003764D03*
X009038Y003775D03*
X009038Y003779D03*
X009034Y003791D03*
X009034Y003794D03*
X009030Y003806D03*
X009030Y003810D03*
X009026Y003821D03*
X009026Y003825D03*
X009019Y003851D03*
X009019Y003855D03*
X009015Y003867D03*
X009015Y003870D03*
X009011Y003882D03*
X009011Y003886D03*
X009007Y003897D03*
X009007Y003901D03*
X009004Y003912D03*
X009004Y003916D03*
X009000Y003927D03*
X009000Y003931D03*
X008996Y003943D03*
X008996Y003946D03*
X008992Y003958D03*
X008992Y003962D03*
X008988Y003973D03*
X008988Y003977D03*
X008985Y003988D03*
X008985Y003992D03*
X008977Y004019D03*
X008977Y004022D03*
X008973Y004034D03*
X008973Y004038D03*
X008966Y004064D03*
X008966Y004068D03*
X008962Y004079D03*
X008962Y004083D03*
X008958Y004095D03*
X008958Y004098D03*
X008954Y004110D03*
X008954Y004114D03*
X008950Y004125D03*
X008950Y004129D03*
X008947Y004140D03*
X008947Y004144D03*
X008943Y004155D03*
X008943Y004159D03*
X008939Y004171D03*
X008939Y004174D03*
X008935Y004186D03*
X008935Y004190D03*
X008931Y004201D03*
X008931Y004205D03*
X008924Y004231D03*
X008924Y004235D03*
X008920Y004247D03*
X008920Y004250D03*
X008916Y004262D03*
X008916Y004266D03*
X008912Y004277D03*
X008912Y004281D03*
X008909Y004292D03*
X008909Y004296D03*
X008905Y004307D03*
X008890Y004372D03*
X008890Y004376D03*
X008882Y004402D03*
X008882Y004406D03*
X008878Y004418D03*
X008878Y004421D03*
X008871Y004448D03*
X008871Y004452D03*
X008867Y004463D03*
X008867Y004467D03*
X008863Y004478D03*
X008863Y004482D03*
X008863Y004486D03*
X008859Y004494D03*
X008859Y004497D03*
X008859Y004501D03*
X008855Y004509D03*
X008855Y004513D03*
X008855Y004516D03*
X008852Y004524D03*
X008852Y004528D03*
X008852Y004532D03*
X008247Y003924D03*
X008247Y003920D03*
X008251Y003908D03*
X008251Y003905D03*
X008251Y003901D03*
X008255Y003893D03*
X008255Y003889D03*
X008255Y003886D03*
X008255Y003882D03*
X008259Y003874D03*
X008259Y003870D03*
X008259Y003867D03*
X009061Y003688D03*
X009061Y003684D03*
X009068Y003658D03*
X009068Y003654D03*
X009072Y003642D03*
X009072Y003639D03*
X007012Y003627D03*
X007009Y003639D03*
X007009Y003642D03*
X007005Y003654D03*
X007005Y003658D03*
X007001Y003669D03*
X007001Y003673D03*
X006997Y003684D03*
X006997Y003688D03*
X006993Y003699D03*
X006993Y003703D03*
X006990Y003715D03*
X006990Y003718D03*
D21*
X007609Y003886D03*
X007609Y003889D03*
X007609Y003893D03*
X007609Y003897D03*
X007605Y003901D03*
X007605Y003905D03*
X007605Y003908D03*
X007605Y003912D03*
X007598Y003935D03*
X007598Y003939D03*
X007598Y003943D03*
X007590Y003965D03*
X007590Y003969D03*
X007590Y003973D03*
X007617Y003867D03*
X007617Y003863D03*
X007617Y003859D03*
X007617Y003855D03*
X007620Y003851D03*
X007620Y003848D03*
X007620Y003844D03*
X007620Y003840D03*
X007628Y003821D03*
X007628Y003817D03*
X007628Y003813D03*
X007628Y003810D03*
X007632Y003802D03*
X007632Y003798D03*
X007632Y003794D03*
X007639Y003772D03*
X007639Y003768D03*
X007639Y003764D03*
X007643Y003756D03*
X007643Y003753D03*
X007643Y003749D03*
X007647Y003741D03*
X007647Y003737D03*
X007647Y003734D03*
X007651Y003726D03*
X007651Y003722D03*
X007651Y003718D03*
X007658Y003696D03*
X007658Y003692D03*
X007658Y003688D03*
X007658Y003684D03*
X007662Y003680D03*
X007662Y003677D03*
X007662Y003673D03*
X007662Y003669D03*
X007670Y003650D03*
X007670Y003646D03*
X007670Y003642D03*
X007670Y003639D03*
X007674Y003635D03*
X007674Y003631D03*
X007674Y003627D03*
X007985Y003749D03*
X008251Y003749D03*
X008643Y004060D03*
X009490Y004281D03*
X009490Y004285D03*
X009490Y004288D03*
X009486Y004296D03*
X009486Y004300D03*
X009486Y004304D03*
X009479Y004326D03*
X009479Y004330D03*
X009479Y004334D03*
X009479Y004338D03*
X009475Y004342D03*
X009475Y004345D03*
X009498Y004258D03*
X009498Y004254D03*
X009498Y004250D03*
X009505Y004228D03*
X009505Y004224D03*
X009505Y004220D03*
X009509Y004212D03*
X009509Y004209D03*
X009509Y004205D03*
X009562Y004000D03*
X009562Y003996D03*
X009562Y003992D03*
X009570Y003969D03*
X009570Y003965D03*
X009570Y003962D03*
X009574Y003954D03*
X009574Y003950D03*
X009574Y003946D03*
X009581Y003924D03*
X009581Y003920D03*
X009581Y003916D03*
X009585Y003908D03*
X009585Y003905D03*
X009585Y003901D03*
X009593Y003878D03*
X009593Y003874D03*
X009593Y003870D03*
X009600Y003848D03*
X009600Y003844D03*
X009600Y003840D03*
X009600Y003836D03*
X009604Y003832D03*
X009604Y003829D03*
X009604Y003825D03*
X009604Y003821D03*
X009612Y003802D03*
X009612Y003798D03*
X009612Y003794D03*
X009612Y003791D03*
X009615Y003787D03*
X009615Y003783D03*
X009615Y003779D03*
X009615Y003775D03*
X009623Y003756D03*
X009623Y003753D03*
X009623Y003749D03*
X009623Y003745D03*
X009627Y003741D03*
X009627Y003737D03*
X009627Y003734D03*
X009627Y003730D03*
X009634Y003711D03*
X009634Y003707D03*
X009634Y003703D03*
X009634Y003699D03*
X009638Y003696D03*
X009638Y003692D03*
X009638Y003688D03*
X009638Y003684D03*
X009642Y003680D03*
X009642Y003677D03*
X009642Y003673D03*
X009642Y003669D03*
X009646Y003665D03*
X009646Y003661D03*
X009646Y003658D03*
X009646Y003654D03*
X009653Y003635D03*
X009653Y003631D03*
X009653Y003627D03*
X007544Y004152D03*
X007537Y004178D03*
X007537Y004182D03*
X007533Y004193D03*
X007533Y004197D03*
X007533Y004201D03*
X007525Y004224D03*
X007525Y004228D03*
X007525Y004231D03*
X007522Y004239D03*
X007522Y004243D03*
X007522Y004247D03*
X007514Y004269D03*
X007514Y004273D03*
X007514Y004277D03*
X007510Y004285D03*
X007510Y004288D03*
X007510Y004292D03*
X007503Y004315D03*
X007503Y004319D03*
X007503Y004323D03*
X007495Y004345D03*
X007495Y004349D03*
X007495Y004353D03*
X007491Y004361D03*
X006534Y004186D03*
X006344Y004326D03*
X005584Y004258D03*
X005580Y004262D03*
X005572Y004269D03*
X005568Y004273D03*
X005557Y004288D03*
X005553Y004292D03*
X005549Y004296D03*
X005747Y003859D03*
X005747Y003855D03*
X005743Y003851D03*
X005743Y003848D03*
X005743Y003844D03*
X005743Y003840D03*
X005739Y003836D03*
X005739Y003832D03*
X005739Y003829D03*
X005739Y003825D03*
X005732Y003806D03*
X005732Y003802D03*
X005732Y003798D03*
X005728Y003787D03*
X005720Y003756D03*
X006017Y003825D03*
X006017Y003829D03*
D22*
X006036Y003779D03*
X006036Y003775D03*
X006648Y003855D03*
X006648Y003859D03*
X006648Y003863D03*
X006648Y003867D03*
X006648Y003870D03*
X006648Y003874D03*
X006933Y003943D03*
X006933Y003946D03*
X006606Y004038D03*
X006606Y004041D03*
X006594Y004072D03*
X006594Y004076D03*
X006594Y004079D03*
X006879Y004155D03*
X006879Y004159D03*
X006891Y004114D03*
X006891Y004110D03*
X006974Y003779D03*
X006974Y003775D03*
X006986Y003734D03*
X006986Y003730D03*
X008209Y004064D03*
X008684Y003916D03*
X008684Y003912D03*
X008696Y003870D03*
X008696Y003867D03*
X009023Y003840D03*
X009023Y003836D03*
X008981Y004003D03*
X008981Y004007D03*
X008969Y004049D03*
X008969Y004053D03*
X008928Y004216D03*
X008928Y004220D03*
X008886Y004387D03*
X008886Y004391D03*
X008874Y004433D03*
X008874Y004437D03*
X008263Y003760D03*
X008738Y003703D03*
X008738Y003699D03*
X009064Y003673D03*
X009064Y003669D03*
X009076Y003627D03*
X005941Y004159D03*
X005941Y004163D03*
X005929Y004205D03*
X005929Y004209D03*
X005698Y004125D03*
X005888Y004372D03*
X005888Y004376D03*
D23*
X007138Y004342D03*
X007138Y004338D03*
X007161Y004197D03*
X007164Y004190D03*
X007168Y004186D03*
X006005Y003848D03*
X006002Y003855D03*
X008149Y003627D03*
X008627Y004083D03*
D24*
X008629Y004079D03*
X007972Y004311D03*
X007162Y004193D03*
X007159Y004201D03*
X007136Y004330D03*
X007136Y004334D03*
X006007Y003844D03*
X006535Y003627D03*
D25*
X006009Y003840D03*
X005709Y003715D03*
X005705Y003699D03*
X005701Y003688D03*
X005701Y003684D03*
X005701Y003680D03*
X005698Y003673D03*
X005698Y003669D03*
X005698Y003665D03*
X005694Y003658D03*
X005694Y003654D03*
X005694Y003650D03*
X005690Y003646D03*
X005690Y003642D03*
X005690Y003639D03*
X005690Y003635D03*
X005686Y003631D03*
X005686Y003627D03*
X006256Y004193D03*
X007130Y004307D03*
X007130Y004311D03*
X007145Y004231D03*
X007149Y004224D03*
X007149Y004220D03*
X007153Y004216D03*
X007153Y004212D03*
X007157Y004205D03*
X008635Y004072D03*
D26*
X008612Y004098D03*
X008149Y003631D03*
X007187Y004163D03*
X007145Y004357D03*
D27*
X007142Y004353D03*
X007180Y004171D03*
X007183Y004167D03*
X007974Y004307D03*
X008616Y004095D03*
X006534Y003631D03*
D28*
X007204Y004152D03*
X008147Y003635D03*
D29*
X008606Y004102D03*
X007976Y004304D03*
X007197Y004155D03*
X007151Y004361D03*
X006532Y003635D03*
D30*
X006644Y003768D03*
X006359Y003764D03*
X005736Y003813D03*
X005736Y003817D03*
X005736Y003821D03*
X005724Y003772D03*
X005576Y004266D03*
X007499Y004330D03*
X007499Y004334D03*
X007499Y004338D03*
X007506Y004307D03*
X007506Y004304D03*
X007506Y004300D03*
X007518Y004262D03*
X007518Y004258D03*
X007518Y004254D03*
X007529Y004216D03*
X007529Y004212D03*
X007529Y004209D03*
X007541Y004167D03*
X007541Y004163D03*
X007541Y004159D03*
X007594Y003958D03*
X007594Y003954D03*
X007594Y003950D03*
X007601Y003927D03*
X007601Y003924D03*
X007601Y003920D03*
X007613Y003882D03*
X007613Y003878D03*
X007613Y003874D03*
X007613Y003870D03*
X007624Y003836D03*
X007624Y003832D03*
X007624Y003829D03*
X007624Y003825D03*
X007636Y003787D03*
X007636Y003783D03*
X007636Y003779D03*
X007655Y003711D03*
X007655Y003707D03*
X007655Y003703D03*
X007666Y003665D03*
X007666Y003661D03*
X007666Y003658D03*
X007666Y003654D03*
X008639Y004064D03*
X008141Y004186D03*
X009482Y004311D03*
X009482Y004315D03*
X009482Y004319D03*
X009482Y004323D03*
X009494Y004273D03*
X009494Y004269D03*
X009494Y004266D03*
X009501Y004243D03*
X009501Y004239D03*
X009501Y004235D03*
X009513Y004197D03*
X009513Y004193D03*
X009513Y004190D03*
X009566Y003984D03*
X009566Y003981D03*
X009566Y003977D03*
X009577Y003939D03*
X009577Y003935D03*
X009577Y003931D03*
X009589Y003893D03*
X009589Y003889D03*
X009589Y003886D03*
X009596Y003863D03*
X009596Y003859D03*
X009596Y003855D03*
X009608Y003817D03*
X009608Y003813D03*
X009608Y003810D03*
X009608Y003806D03*
X009619Y003772D03*
X009619Y003768D03*
X009619Y003764D03*
X009619Y003760D03*
X009631Y003726D03*
X009631Y003722D03*
X009631Y003718D03*
X009631Y003715D03*
X009650Y003650D03*
X009650Y003646D03*
X009650Y003642D03*
X009650Y003639D03*
D31*
X008147Y003639D03*
D32*
X008599Y004106D03*
X007976Y004300D03*
X006349Y004315D03*
X006532Y003639D03*
D33*
X006530Y003642D03*
X008145Y003642D03*
X007978Y004296D03*
D34*
X008145Y003646D03*
D35*
X008717Y003783D03*
X008717Y003787D03*
X008705Y003829D03*
X008705Y003832D03*
X008728Y003741D03*
X008728Y003737D03*
X008747Y003665D03*
X008747Y003661D03*
X009043Y003753D03*
X009043Y003756D03*
X009032Y003798D03*
X009032Y003802D03*
X009013Y003874D03*
X009013Y003878D03*
X009002Y003920D03*
X009002Y003924D03*
X008990Y003965D03*
X008990Y003969D03*
X008675Y003954D03*
X008675Y003950D03*
X008663Y003996D03*
X008663Y004000D03*
X008652Y004034D03*
X008652Y004038D03*
X008948Y004133D03*
X008948Y004136D03*
X008937Y004178D03*
X008937Y004182D03*
X008960Y004091D03*
X008960Y004087D03*
X008918Y004254D03*
X008918Y004258D03*
X008907Y004300D03*
X008907Y004304D03*
X008865Y004471D03*
X008865Y004475D03*
X008853Y004520D03*
X008253Y003897D03*
X009055Y003711D03*
X009055Y003707D03*
X007007Y003650D03*
X007007Y003646D03*
X006995Y003692D03*
X006995Y003696D03*
X006965Y003813D03*
X006965Y003817D03*
X006953Y003859D03*
X006953Y003863D03*
X006942Y003905D03*
X006942Y003908D03*
X006923Y003981D03*
X006923Y003984D03*
X006912Y004026D03*
X006912Y004030D03*
X006900Y004072D03*
X006900Y004076D03*
X006615Y004011D03*
X006615Y004007D03*
X006615Y004003D03*
X006627Y003973D03*
X006627Y003969D03*
X006627Y003965D03*
X006627Y003962D03*
X006638Y003924D03*
X006638Y003920D03*
X006638Y003916D03*
X006638Y003912D03*
X006045Y003741D03*
X006045Y003737D03*
X006057Y003696D03*
X006057Y003692D03*
X006068Y003650D03*
X006068Y003646D03*
X005950Y004121D03*
X005950Y004125D03*
X005677Y004152D03*
X005665Y004163D03*
X005920Y004243D03*
X005920Y004247D03*
X005908Y004288D03*
X005908Y004292D03*
X005897Y004334D03*
X005897Y004338D03*
X005878Y004414D03*
X005867Y004459D03*
X005855Y004505D03*
X006847Y004288D03*
X006847Y004285D03*
X006858Y004243D03*
X006858Y004239D03*
X006870Y004197D03*
X006870Y004193D03*
D36*
X007979Y004292D03*
X006528Y003646D03*
D37*
X006528Y003650D03*
X008143Y003650D03*
X008572Y004114D03*
D38*
X008141Y003654D03*
X006526Y003654D03*
X006355Y004300D03*
D39*
X006357Y004296D03*
X007520Y003977D03*
X008143Y003658D03*
X006524Y003658D03*
D40*
X008141Y003661D03*
D41*
X006524Y003661D03*
D42*
X006015Y003832D03*
X006011Y003836D03*
X005734Y003810D03*
X005730Y003794D03*
X005730Y003791D03*
X005726Y003783D03*
X005726Y003779D03*
X005726Y003775D03*
X005722Y003768D03*
X005722Y003764D03*
X005722Y003760D03*
X005718Y003753D03*
X005718Y003749D03*
X005718Y003745D03*
X005715Y003741D03*
X005715Y003737D03*
X005715Y003734D03*
X005715Y003730D03*
X005711Y003726D03*
X005711Y003722D03*
X005711Y003718D03*
X005707Y003711D03*
X005707Y003707D03*
X005707Y003703D03*
X005703Y003696D03*
X005703Y003692D03*
X005699Y003677D03*
X005696Y003661D03*
X006528Y004190D03*
X007132Y004281D03*
X007132Y004285D03*
X007132Y004288D03*
X007132Y004292D03*
X007132Y004296D03*
X007132Y004300D03*
X007132Y004304D03*
X007136Y004277D03*
X007136Y004273D03*
X007136Y004269D03*
X007136Y004266D03*
X007136Y004262D03*
X007140Y004258D03*
X007140Y004254D03*
X007140Y004250D03*
X007140Y004247D03*
X007143Y004243D03*
X007143Y004239D03*
X007143Y004235D03*
X007147Y004228D03*
X007504Y004311D03*
X007508Y004296D03*
X007512Y004281D03*
X007516Y004266D03*
X007520Y004250D03*
X007523Y004235D03*
X007527Y004220D03*
X007531Y004205D03*
X007535Y004190D03*
X007535Y004186D03*
X007539Y004174D03*
X007539Y004171D03*
X007542Y004155D03*
X007501Y004326D03*
X007497Y004342D03*
X007493Y004357D03*
X008637Y004068D03*
X009492Y004277D03*
X009496Y004262D03*
X009499Y004247D03*
X009503Y004231D03*
X009507Y004216D03*
X009511Y004201D03*
X009515Y004186D03*
X009488Y004292D03*
X009484Y004307D03*
X009564Y003988D03*
X009568Y003973D03*
X009572Y003958D03*
X009575Y003943D03*
X009579Y003927D03*
X009583Y003912D03*
X009587Y003897D03*
X009591Y003882D03*
X009594Y003867D03*
X009598Y003851D03*
X005566Y004277D03*
X005563Y004281D03*
X005559Y004285D03*
X005547Y004300D03*
X005544Y004304D03*
X005540Y004307D03*
D43*
X006359Y004288D03*
X007985Y004269D03*
X008141Y003665D03*
D44*
X006522Y003665D03*
D45*
X006522Y003669D03*
X006363Y004285D03*
X007985Y004266D03*
X008137Y003669D03*
D46*
X008137Y003673D03*
X006522Y003673D03*
X006363Y004281D03*
D47*
X005876Y004038D03*
X005880Y004034D03*
X005880Y004026D03*
X005880Y004022D03*
X007989Y004258D03*
X008517Y004205D03*
X008517Y004201D03*
X008521Y004186D03*
X008525Y004171D03*
X008529Y004155D03*
X008532Y004140D03*
X008536Y004125D03*
X008137Y003677D03*
D48*
X008538Y004117D03*
X008538Y004121D03*
X008527Y004159D03*
X008527Y004163D03*
X008527Y004167D03*
X008515Y004209D03*
X008515Y004212D03*
X006520Y003677D03*
D49*
X006520Y003680D03*
X005882Y004003D03*
X005870Y004049D03*
X005867Y004053D03*
X008135Y003680D03*
D50*
X008133Y003684D03*
X007989Y004250D03*
X006518Y003684D03*
X005880Y003992D03*
X005880Y003996D03*
X005880Y004000D03*
X005865Y004057D03*
D51*
X005861Y004064D03*
X005857Y004068D03*
X005880Y003988D03*
X005880Y003984D03*
X005880Y003981D03*
X005880Y003977D03*
X006518Y003688D03*
X006366Y004266D03*
X008133Y003688D03*
D52*
X008131Y003692D03*
X007485Y003988D03*
X007991Y004243D03*
X007349Y004528D03*
X006368Y004262D03*
X006516Y003692D03*
D53*
X007478Y003992D03*
X007995Y004235D03*
X008131Y003696D03*
D54*
X008130Y003699D03*
X006515Y003696D03*
X005880Y003950D03*
X005880Y003954D03*
X005880Y003958D03*
D55*
X006019Y003821D03*
X006022Y003817D03*
X006353Y003768D03*
X006539Y004182D03*
X005620Y004216D03*
X005616Y004220D03*
X005612Y004224D03*
X005608Y004228D03*
X005604Y004231D03*
X005604Y004235D03*
X005601Y004239D03*
X005597Y004243D03*
X005593Y004247D03*
X005589Y004250D03*
X005585Y004254D03*
X007592Y003962D03*
X007596Y003946D03*
X007599Y003931D03*
X007603Y003916D03*
X007630Y003806D03*
X007634Y003791D03*
X007637Y003775D03*
X007641Y003760D03*
X007649Y003730D03*
X007653Y003715D03*
X007656Y003699D03*
X008644Y004053D03*
X008644Y004057D03*
D56*
X007997Y004228D03*
X008130Y003703D03*
X006515Y003703D03*
X006515Y003699D03*
X005880Y003935D03*
X005880Y003939D03*
X006374Y004250D03*
D57*
X005878Y003931D03*
X005878Y003927D03*
X007470Y003996D03*
X008128Y003707D03*
D58*
X007997Y004224D03*
X007339Y004520D03*
X006374Y004247D03*
X005880Y003924D03*
X006515Y003707D03*
D59*
X006513Y003711D03*
X005878Y003912D03*
X005878Y003916D03*
X005878Y003920D03*
X006376Y004239D03*
X006376Y004243D03*
X007998Y004220D03*
X008128Y003711D03*
D60*
X008126Y003715D03*
X008000Y004216D03*
X007335Y004516D03*
X006511Y003715D03*
D61*
X005878Y003897D03*
X005878Y003901D03*
X005878Y003905D03*
X006376Y004235D03*
X008002Y004212D03*
X008124Y003718D03*
D62*
X008126Y003722D03*
X007461Y004003D03*
X008000Y004209D03*
X006511Y003718D03*
X005880Y003893D03*
X006378Y004231D03*
D63*
X005878Y003889D03*
X005878Y003886D03*
X005878Y003882D03*
X006509Y003722D03*
X008002Y004205D03*
X008124Y003726D03*
D64*
X008122Y003730D03*
X006507Y003726D03*
X006382Y004224D03*
D65*
X006383Y004220D03*
X005878Y003878D03*
X005878Y003874D03*
X005878Y003870D03*
X005878Y003867D03*
X006509Y003730D03*
X008006Y004193D03*
X008006Y004197D03*
X007330Y004509D03*
X008120Y003734D03*
D66*
X008122Y003737D03*
X008008Y004190D03*
X006507Y003734D03*
D67*
X006505Y003737D03*
X005878Y003863D03*
X007326Y004505D03*
X008120Y003741D03*
D68*
X006505Y003741D03*
X006505Y003745D03*
D69*
X007446Y004015D03*
X008118Y003745D03*
X006385Y004209D03*
D70*
X007645Y003745D03*
D71*
X007442Y004019D03*
X007438Y004022D03*
X006503Y003753D03*
X006503Y003749D03*
X007320Y004497D03*
D72*
X007865Y004182D03*
X008158Y004171D03*
X008162Y004167D03*
X008166Y004163D03*
X008196Y004102D03*
X008200Y004095D03*
X008200Y004091D03*
X008204Y004083D03*
X008204Y004079D03*
X008207Y004076D03*
X008207Y004072D03*
X008207Y004068D03*
X008211Y004060D03*
X008257Y003878D03*
X008261Y003863D03*
X008261Y003859D03*
X008261Y003855D03*
X008261Y003851D03*
X008264Y003844D03*
X008264Y003840D03*
X008264Y003836D03*
X008264Y003764D03*
X007968Y003756D03*
X006589Y004091D03*
X006585Y004102D03*
X006581Y004110D03*
X006577Y004121D03*
X006573Y004129D03*
X006570Y004136D03*
X006566Y004144D03*
X006243Y004182D03*
X005734Y004087D03*
X005730Y004091D03*
X005726Y004095D03*
X005722Y004098D03*
X005718Y004102D03*
X005715Y004106D03*
X006338Y003779D03*
D73*
X006501Y003756D03*
X009378Y004174D03*
X009378Y004178D03*
X009382Y004163D03*
X009382Y004159D03*
X009385Y004148D03*
X009385Y004144D03*
X009389Y004133D03*
X009389Y004129D03*
X009393Y004117D03*
X009393Y004114D03*
X009397Y004102D03*
X009397Y004098D03*
X009401Y004087D03*
X009401Y004083D03*
X009404Y004072D03*
X009404Y004068D03*
X009408Y004057D03*
X009408Y004053D03*
X009412Y004041D03*
X009412Y004038D03*
X009416Y004026D03*
X009416Y004022D03*
X009420Y004011D03*
X009420Y004007D03*
D74*
X008612Y004216D03*
X008612Y004220D03*
X008612Y004224D03*
X008612Y004228D03*
X008608Y004231D03*
X008608Y004235D03*
X008608Y004239D03*
X008608Y004243D03*
X008605Y004247D03*
X008605Y004250D03*
X008605Y004254D03*
X008605Y004258D03*
X008601Y004262D03*
X008601Y004266D03*
X008601Y004269D03*
X008601Y004273D03*
X008597Y004277D03*
X008597Y004281D03*
X008597Y004285D03*
X008597Y004288D03*
X008593Y004292D03*
X008593Y004296D03*
X008593Y004300D03*
X008593Y004304D03*
X008589Y004307D03*
X008179Y004140D03*
X008175Y004148D03*
X008171Y004152D03*
X008171Y004155D03*
X008168Y004159D03*
X008187Y004129D03*
X008187Y004125D03*
X008190Y004121D03*
X008190Y004117D03*
X008190Y004114D03*
X008198Y004098D03*
X008202Y004087D03*
X007864Y004178D03*
X008263Y003848D03*
X008266Y003832D03*
X008266Y003829D03*
X008266Y003825D03*
X008266Y003821D03*
X008266Y003817D03*
X008266Y003783D03*
X008266Y003779D03*
X008266Y003775D03*
X008266Y003772D03*
X008266Y003768D03*
X007966Y003760D03*
X006332Y003787D03*
D75*
X006499Y003760D03*
X007434Y004026D03*
X007320Y004494D03*
X009376Y004182D03*
X009380Y004171D03*
X009380Y004167D03*
X009384Y004155D03*
X009384Y004152D03*
X009387Y004140D03*
X009387Y004136D03*
X009391Y004125D03*
X009391Y004121D03*
X009395Y004110D03*
X009395Y004106D03*
X009399Y004095D03*
X009399Y004091D03*
X009406Y004064D03*
X009406Y004060D03*
X009410Y004049D03*
X009410Y004045D03*
X009414Y004034D03*
X009414Y004030D03*
X009418Y004019D03*
X009418Y004015D03*
X009422Y004003D03*
D76*
X008177Y004144D03*
X007862Y004174D03*
X007922Y003848D03*
X007960Y003764D03*
X006330Y003791D03*
X006239Y004167D03*
X006239Y004171D03*
X005278Y004520D03*
X005278Y004524D03*
X005278Y004528D03*
X005274Y004532D03*
X005274Y004535D03*
X005274Y004539D03*
X005274Y004543D03*
X005266Y004562D03*
X005266Y004566D03*
X005266Y004570D03*
X005266Y004573D03*
X005262Y004577D03*
X005262Y004581D03*
X005262Y004585D03*
X005262Y004589D03*
D77*
X007132Y004326D03*
X007132Y004323D03*
X007132Y004319D03*
X007132Y004315D03*
X007155Y004209D03*
X006003Y003851D03*
X006638Y003764D03*
X008633Y004076D03*
D78*
X007921Y003859D03*
X007921Y003855D03*
X007921Y003851D03*
X007924Y003844D03*
X007924Y003840D03*
X007924Y003836D03*
X007928Y003832D03*
X007928Y003829D03*
X007928Y003825D03*
X007932Y003817D03*
X007936Y003806D03*
X007940Y003798D03*
X007943Y003791D03*
X007947Y003783D03*
X007951Y003775D03*
X007955Y003772D03*
X007959Y003768D03*
X007867Y004072D03*
X007860Y004171D03*
X006325Y003798D03*
X006321Y003806D03*
X006317Y003813D03*
X006313Y003821D03*
X006306Y003840D03*
X006302Y003851D03*
X006294Y003878D03*
X006290Y003893D03*
X006287Y003908D03*
X006249Y004068D03*
X006249Y004072D03*
X006245Y004083D03*
X006245Y004087D03*
X006245Y004091D03*
X006241Y004102D03*
X006241Y004106D03*
X006241Y004110D03*
X006241Y004114D03*
X006237Y004129D03*
X006237Y004133D03*
X006237Y004136D03*
X006237Y004140D03*
X006237Y004144D03*
X006237Y004148D03*
X006237Y004152D03*
X006237Y004155D03*
X006237Y004159D03*
X006237Y004163D03*
D79*
X006249Y004190D03*
X006541Y004178D03*
X006545Y004174D03*
X006024Y003813D03*
X006648Y003775D03*
X006648Y003772D03*
X005656Y004174D03*
X005652Y004178D03*
X005641Y004193D03*
X005637Y004197D03*
X005633Y004201D03*
X005629Y004205D03*
X005625Y004209D03*
X005622Y004212D03*
X007871Y004186D03*
X008149Y004182D03*
X008646Y004049D03*
X008650Y004045D03*
X008650Y004041D03*
D80*
X007945Y003787D03*
X007941Y003794D03*
X007938Y003802D03*
X007934Y003810D03*
X007934Y003813D03*
X007930Y003821D03*
X007949Y003779D03*
X007869Y004060D03*
X007869Y004064D03*
X007869Y004068D03*
X007865Y004076D03*
X007865Y004079D03*
X007865Y004083D03*
X007865Y004087D03*
X007858Y004121D03*
X007858Y004125D03*
X007858Y004159D03*
X007858Y004163D03*
X007858Y004167D03*
X006323Y003802D03*
X006319Y003810D03*
X006315Y003817D03*
X006311Y003825D03*
X006311Y003829D03*
X006307Y003832D03*
X006307Y003836D03*
X006304Y003844D03*
X006304Y003848D03*
X006300Y003855D03*
X006300Y003859D03*
X006300Y003863D03*
X006296Y003867D03*
X006296Y003870D03*
X006296Y003874D03*
X006292Y003882D03*
X006292Y003886D03*
X006292Y003889D03*
X006285Y003912D03*
X006285Y003916D03*
X006250Y004060D03*
X006250Y004064D03*
X006243Y004095D03*
X006243Y004098D03*
X006239Y004117D03*
X006239Y004121D03*
X006239Y004125D03*
D81*
X006241Y004174D03*
X006241Y004178D03*
X006336Y003783D03*
X008183Y004133D03*
X008183Y004136D03*
X008194Y004110D03*
X008194Y004106D03*
D82*
X007919Y003863D03*
X008268Y003813D03*
X008268Y003810D03*
X008268Y003806D03*
X008268Y003802D03*
X008268Y003798D03*
X008268Y003794D03*
X008268Y003791D03*
X008268Y003787D03*
X006326Y003794D03*
X005270Y004547D03*
X005270Y004551D03*
X005270Y004554D03*
X005270Y004558D03*
D83*
X006520Y004193D03*
X007140Y004345D03*
X007170Y004182D03*
X007174Y004178D03*
X006000Y003859D03*
X008625Y004087D03*
D84*
X007862Y004091D03*
X007862Y004095D03*
X007862Y004098D03*
X007862Y004102D03*
X007862Y004106D03*
X006342Y004330D03*
X006247Y004079D03*
X006247Y004076D03*
X006288Y003905D03*
X006288Y003901D03*
X006288Y003897D03*
D85*
X005880Y003908D03*
X007465Y004000D03*
D86*
X007406Y004064D03*
X008052Y004034D03*
X008055Y004022D03*
X008055Y004019D03*
X008055Y004015D03*
X008059Y004007D03*
X008059Y004003D03*
X008059Y004000D03*
X008063Y003996D03*
X008063Y003992D03*
X008063Y003988D03*
X008063Y003984D03*
X008067Y003981D03*
X008067Y003977D03*
X008067Y003973D03*
X008067Y003969D03*
X008071Y003965D03*
X008071Y003962D03*
X008071Y003958D03*
X008071Y003954D03*
X008074Y003950D03*
X008074Y003946D03*
X008074Y003943D03*
X008074Y003939D03*
X008078Y003935D03*
D87*
X007995Y004231D03*
X007345Y004524D03*
X006372Y004254D03*
X005878Y003946D03*
X005878Y003943D03*
D88*
X005880Y003962D03*
X005880Y003965D03*
X005880Y003969D03*
X005880Y003973D03*
X005853Y004076D03*
X005853Y004079D03*
X005850Y004083D03*
X006370Y004258D03*
X007993Y004239D03*
D89*
X007504Y003981D03*
D90*
X007495Y003984D03*
X007989Y004254D03*
X007358Y004532D03*
X006366Y004273D03*
X005872Y004045D03*
X005880Y004015D03*
X005880Y004011D03*
X005880Y004007D03*
D91*
X006380Y004228D03*
X007330Y004513D03*
X007455Y004007D03*
D92*
X008046Y004053D03*
X008046Y004057D03*
X008057Y004011D03*
X007309Y004452D03*
X007309Y004456D03*
D93*
X007449Y004011D03*
D94*
X008519Y004190D03*
X008519Y004193D03*
X008519Y004197D03*
X008523Y004182D03*
X008523Y004178D03*
X008523Y004174D03*
X008530Y004152D03*
X008530Y004148D03*
X008530Y004144D03*
X008534Y004136D03*
X008534Y004133D03*
X008534Y004129D03*
X005882Y004019D03*
X005874Y004041D03*
D95*
X007408Y004060D03*
X008050Y004045D03*
X008050Y004041D03*
X008050Y004038D03*
X008054Y004030D03*
X008054Y004026D03*
D96*
X007430Y004030D03*
X007316Y004486D03*
D97*
X007987Y004262D03*
X005882Y004030D03*
D98*
X007314Y004482D03*
X007428Y004034D03*
D99*
X007423Y004038D03*
X009292Y004482D03*
X009304Y004437D03*
X009311Y004402D03*
X009323Y004357D03*
X009281Y004528D03*
D100*
X009279Y004532D03*
X009279Y004535D03*
X009283Y004524D03*
X009283Y004520D03*
X009283Y004516D03*
X009287Y004509D03*
X009287Y004505D03*
X009287Y004501D03*
X009290Y004494D03*
X009290Y004490D03*
X009290Y004486D03*
X009294Y004478D03*
X009294Y004475D03*
X009294Y004471D03*
X009298Y004463D03*
X009298Y004459D03*
X009298Y004456D03*
X009302Y004448D03*
X009302Y004444D03*
X009302Y004440D03*
X009306Y004433D03*
X009306Y004429D03*
X009306Y004425D03*
X009309Y004414D03*
X009309Y004410D03*
X009309Y004406D03*
X009313Y004399D03*
X009313Y004395D03*
X009313Y004391D03*
X009317Y004383D03*
X009317Y004380D03*
X009317Y004376D03*
X009321Y004368D03*
X009321Y004364D03*
X009321Y004361D03*
X009325Y004353D03*
X009325Y004349D03*
X007421Y004041D03*
X007314Y004478D03*
D101*
X007311Y004467D03*
X007417Y004045D03*
D102*
X007409Y004057D03*
X008048Y004049D03*
X007311Y004459D03*
X007311Y004463D03*
D103*
X007411Y004053D03*
X007415Y004049D03*
D104*
X007991Y004247D03*
X005863Y004060D03*
D105*
X007309Y004444D03*
X007309Y004448D03*
X007400Y004068D03*
D106*
X007398Y004072D03*
D107*
X005855Y004072D03*
D108*
X009403Y004076D03*
X009403Y004079D03*
D109*
X007396Y004076D03*
X007392Y004083D03*
X007309Y004433D03*
D110*
X007307Y004429D03*
X007307Y004425D03*
X007307Y004421D03*
X007390Y004087D03*
X007394Y004079D03*
D111*
X008622Y004091D03*
D112*
X007389Y004091D03*
D113*
X007387Y004095D03*
D114*
X007383Y004098D03*
X007307Y004406D03*
X007307Y004410D03*
X007307Y004414D03*
X007307Y004418D03*
D115*
X007309Y004402D03*
X007381Y004106D03*
X007381Y004102D03*
D116*
X006349Y004311D03*
X008587Y004110D03*
D117*
X007860Y004110D03*
X007860Y004114D03*
X007860Y004117D03*
X007856Y004129D03*
X007856Y004133D03*
X007856Y004136D03*
X007856Y004140D03*
X007856Y004144D03*
X007856Y004148D03*
X007856Y004152D03*
X007856Y004155D03*
D118*
X007379Y004110D03*
X007375Y004114D03*
D119*
X008339Y004114D03*
D120*
X007373Y004117D03*
X007373Y004121D03*
X007309Y004376D03*
X007309Y004380D03*
X007309Y004383D03*
X007309Y004387D03*
D121*
X007311Y004372D03*
X007311Y004368D03*
X007311Y004364D03*
X007368Y004133D03*
X007368Y004129D03*
X007371Y004125D03*
D122*
X007366Y004136D03*
X007366Y004140D03*
D123*
X007362Y004144D03*
D124*
X007360Y004148D03*
D125*
X007193Y004159D03*
D126*
X007176Y004174D03*
X007142Y004349D03*
D127*
X006389Y004197D03*
D128*
X008004Y004201D03*
D129*
X007322Y004501D03*
X006387Y004205D03*
X006387Y004201D03*
D130*
X006383Y004212D03*
X006383Y004216D03*
D131*
X008397Y004228D03*
D132*
X008396Y004231D03*
D133*
X008394Y004235D03*
X008390Y004239D03*
X008390Y004243D03*
D134*
X008388Y004247D03*
D135*
X008386Y004250D03*
X008382Y004254D03*
D136*
X008380Y004258D03*
D137*
X008378Y004262D03*
D138*
X006328Y004338D03*
X005340Y004262D03*
X005337Y004277D03*
X005333Y004292D03*
X005329Y004307D03*
X005325Y004323D03*
X005321Y004338D03*
X005318Y004353D03*
X005314Y004368D03*
X005314Y004372D03*
X005310Y004383D03*
X005310Y004387D03*
X005306Y004399D03*
X005306Y004402D03*
X005302Y004414D03*
X005302Y004418D03*
X005299Y004429D03*
X005299Y004433D03*
X005295Y004444D03*
X005295Y004448D03*
X005291Y004459D03*
X005291Y004463D03*
X005287Y004475D03*
X005287Y004478D03*
X005283Y004490D03*
X005283Y004494D03*
X005280Y004505D03*
X005280Y004509D03*
X005048Y004323D03*
X005048Y004319D03*
D139*
X005063Y004262D03*
D140*
X008373Y004269D03*
X008377Y004266D03*
D141*
X005061Y004266D03*
X005061Y004269D03*
X005057Y004277D03*
X005057Y004281D03*
D142*
X006366Y004269D03*
D143*
X005177Y004269D03*
X005173Y004285D03*
X005169Y004300D03*
X005166Y004315D03*
X005162Y004330D03*
X005158Y004345D03*
X005154Y004361D03*
X005150Y004376D03*
X005147Y004391D03*
X005143Y004406D03*
X005143Y004410D03*
X005139Y004421D03*
X005139Y004425D03*
X005135Y004437D03*
X005135Y004440D03*
X005131Y004452D03*
X005131Y004456D03*
X005128Y004467D03*
X005128Y004471D03*
X005124Y004482D03*
X005124Y004486D03*
X004903Y004429D03*
X004900Y004444D03*
X004896Y004459D03*
X004892Y004475D03*
X004907Y004414D03*
X004934Y004304D03*
X004938Y004288D03*
X004941Y004273D03*
X005052Y004300D03*
X005052Y004304D03*
X008320Y004323D03*
D144*
X007983Y004273D03*
D145*
X005059Y004273D03*
D146*
X008367Y004277D03*
D147*
X007981Y004277D03*
D148*
X006363Y004277D03*
D149*
X007981Y004281D03*
D150*
X007960Y004326D03*
X005335Y004288D03*
X005335Y004285D03*
X005335Y004281D03*
X005323Y004326D03*
X005323Y004330D03*
X005323Y004334D03*
X005312Y004376D03*
X005312Y004380D03*
X005300Y004421D03*
X005300Y004425D03*
X005293Y004452D03*
X005293Y004456D03*
X005289Y004467D03*
X005289Y004471D03*
X005281Y004497D03*
X005281Y004501D03*
X005050Y004315D03*
X005050Y004311D03*
X005050Y004307D03*
D151*
X007979Y004285D03*
D152*
X005055Y004285D03*
X005055Y004288D03*
D153*
X008358Y004288D03*
D154*
X007979Y004288D03*
D155*
X008356Y004292D03*
X005091Y004494D03*
X005091Y004497D03*
X005091Y004501D03*
X004917Y004494D03*
X004917Y004490D03*
X004913Y004505D03*
D156*
X006357Y004292D03*
D157*
X004915Y004497D03*
X004915Y004501D03*
X004907Y004520D03*
X008354Y004296D03*
D158*
X008348Y004300D03*
X005088Y004520D03*
X005088Y004524D03*
X005088Y004528D03*
X005088Y004532D03*
X005084Y004535D03*
X005084Y004539D03*
X005084Y004543D03*
X005084Y004547D03*
X004909Y004516D03*
X004905Y004524D03*
X004905Y004528D03*
X004901Y004535D03*
X004901Y004539D03*
D159*
X004894Y004558D03*
X004894Y004562D03*
X004890Y004566D03*
X004890Y004570D03*
X004890Y004573D03*
X004886Y004581D03*
X005080Y004577D03*
X005080Y004573D03*
X005080Y004570D03*
X005080Y004566D03*
X008344Y004304D03*
D160*
X006355Y004304D03*
D161*
X005078Y004581D03*
X005078Y004585D03*
X005078Y004589D03*
X004888Y004577D03*
X005029Y004395D03*
X008342Y004307D03*
D162*
X006353Y004307D03*
D163*
X005033Y004376D03*
X005033Y004380D03*
X005033Y004383D03*
X008339Y004311D03*
D164*
X008331Y004315D03*
X005036Y004361D03*
X005036Y004364D03*
D165*
X005046Y004330D03*
X005046Y004326D03*
X008325Y004319D03*
D166*
X006347Y004319D03*
D167*
X006347Y004323D03*
D168*
X005059Y004399D03*
X005059Y004402D03*
X005059Y004406D03*
X005059Y004410D03*
X005055Y004414D03*
X005055Y004418D03*
X005055Y004421D03*
X005055Y004425D03*
X005055Y004429D03*
X005055Y004433D03*
X005055Y004437D03*
X005055Y004440D03*
X005055Y004444D03*
X005055Y004448D03*
X005055Y004452D03*
X005055Y004456D03*
X005055Y004459D03*
X005055Y004463D03*
X005055Y004467D03*
X005055Y004471D03*
X005052Y004478D03*
X005052Y004482D03*
X005052Y004486D03*
X005052Y004490D03*
X004976Y004452D03*
X004976Y004448D03*
X004979Y004440D03*
X004979Y004437D03*
X004983Y004433D03*
X004983Y004429D03*
X004987Y004425D03*
X004987Y004421D03*
X004991Y004418D03*
X004991Y004414D03*
X004995Y004406D03*
X004995Y004402D03*
X004998Y004399D03*
X004972Y004456D03*
X004972Y004459D03*
X004968Y004463D03*
X004968Y004467D03*
X004964Y004475D03*
X004960Y004482D03*
X004960Y004486D03*
X008308Y004326D03*
D169*
X006336Y004334D03*
D170*
X005044Y004334D03*
X005044Y004338D03*
D171*
X005042Y004342D03*
X005038Y004353D03*
X005038Y004357D03*
D172*
X005040Y004349D03*
X005040Y004345D03*
D173*
X005034Y004368D03*
X005034Y004372D03*
D174*
X009285Y004513D03*
X009289Y004497D03*
X009296Y004467D03*
X009300Y004452D03*
X009308Y004421D03*
X009308Y004418D03*
X009315Y004387D03*
X009319Y004372D03*
D175*
X005031Y004387D03*
X005031Y004391D03*
D176*
X007307Y004391D03*
X007307Y004395D03*
X007307Y004399D03*
D177*
X004993Y004410D03*
X004977Y004444D03*
X004966Y004471D03*
X004962Y004478D03*
D178*
X007307Y004440D03*
X007307Y004437D03*
D179*
X007313Y004471D03*
X007313Y004475D03*
D180*
X005053Y004475D03*
D181*
X007318Y004490D03*
D182*
X005090Y004505D03*
X005090Y004509D03*
X005090Y004513D03*
X005090Y004516D03*
X004911Y004513D03*
X004911Y004509D03*
D183*
X004903Y004532D03*
X004900Y004543D03*
X004900Y004547D03*
X004896Y004551D03*
X004896Y004554D03*
X005082Y004554D03*
X005082Y004551D03*
X005082Y004558D03*
X005082Y004562D03*
D184*
X007371Y004535D03*
D185*
X004884Y004585D03*
X004884Y004589D03*
D186*
X005050Y001447D03*
X005330Y001447D03*
X005475Y001405D03*
D187*
X004904Y001405D03*
X004904Y002150D03*
X005476Y002150D03*
D188*
X005331Y001450D03*
X005476Y001407D03*
X004904Y001407D03*
D189*
X004905Y001410D03*
X005475Y001410D03*
X005475Y002145D03*
X004905Y002145D03*
D190*
X004905Y001412D03*
X005475Y001412D03*
D191*
X005474Y001415D03*
X005474Y002140D03*
X004906Y002140D03*
D192*
X005042Y001457D03*
X004905Y001415D03*
X005337Y001457D03*
D193*
X005474Y001417D03*
X004906Y001417D03*
D194*
X005342Y001465D03*
X005472Y001420D03*
X005472Y002135D03*
X004907Y002135D03*
D195*
X004906Y001420D03*
X005341Y001462D03*
D196*
X005472Y001422D03*
X005035Y001467D03*
X004907Y001422D03*
D197*
X004907Y001425D03*
X005472Y001425D03*
D198*
X005471Y001427D03*
X004909Y001427D03*
X004909Y002127D03*
X005471Y002127D03*
D199*
X005471Y001430D03*
X004909Y001430D03*
D200*
X004910Y001432D03*
X005470Y001432D03*
X005470Y002122D03*
X004910Y002122D03*
D201*
X004910Y001435D03*
X005470Y001435D03*
D202*
X005469Y001437D03*
X004911Y001437D03*
X004911Y002117D03*
X005469Y002117D03*
D203*
X005467Y001440D03*
D204*
X004911Y001440D03*
D205*
X004911Y001442D03*
X005466Y001442D03*
D206*
X005466Y001445D03*
D207*
X004912Y001445D03*
D208*
X005466Y001447D03*
X005466Y002110D03*
X004914Y002110D03*
D209*
X004912Y001447D03*
D210*
X005465Y001450D03*
D211*
X005047Y001450D03*
D212*
X004914Y001450D03*
X004914Y002105D03*
D213*
X005465Y002105D03*
X005465Y001452D03*
D214*
X005334Y001452D03*
X005046Y001452D03*
D215*
X004914Y001452D03*
X005189Y002245D03*
D216*
X005190Y002240D03*
X005190Y002237D03*
X005190Y002235D03*
X005190Y002232D03*
X005190Y002230D03*
X005465Y001455D03*
X004915Y001455D03*
D217*
X005044Y001455D03*
X005336Y001455D03*
D218*
X005465Y001457D03*
X004915Y001457D03*
X005190Y002215D03*
X005190Y002217D03*
X005190Y002220D03*
X005190Y002222D03*
X005190Y002225D03*
D219*
X005189Y002200D03*
X004916Y002095D03*
X004916Y001460D03*
X005464Y001460D03*
D220*
X005340Y001460D03*
X005040Y001460D03*
D221*
X005462Y001462D03*
X005462Y002095D03*
X005190Y002187D03*
X005190Y002190D03*
X005190Y002192D03*
X005190Y002195D03*
X005190Y002197D03*
D222*
X005472Y002137D03*
X004907Y002137D03*
X005037Y001462D03*
D223*
X004916Y001462D03*
X005189Y002185D03*
D224*
X005190Y002170D03*
X005190Y002167D03*
X005190Y002165D03*
X005462Y002090D03*
X004917Y002090D03*
X004917Y001465D03*
X005462Y001465D03*
D225*
X005036Y001465D03*
D226*
X005461Y001467D03*
X005461Y002087D03*
X005189Y002147D03*
X004919Y002087D03*
D227*
X004909Y002132D03*
X005471Y002132D03*
X005344Y001467D03*
D228*
X004917Y001467D03*
X005190Y002150D03*
X005190Y002152D03*
X005190Y002155D03*
D229*
X005431Y001470D03*
X004949Y001470D03*
D230*
X004947Y001472D03*
X004995Y001587D03*
X004997Y001590D03*
X004997Y001592D03*
X004997Y001595D03*
X005382Y001592D03*
X005382Y001590D03*
X005385Y001587D03*
X005387Y001582D03*
X005432Y001472D03*
D231*
X005432Y001475D03*
X005397Y001562D03*
X005395Y001567D03*
X005392Y001572D03*
X005390Y001577D03*
X005382Y001600D03*
X004997Y001600D03*
X004990Y001577D03*
X004987Y001572D03*
X004985Y001570D03*
X004985Y001567D03*
X004982Y001565D03*
X004947Y001475D03*
X005190Y002105D03*
D232*
X004999Y001605D03*
X004999Y001602D03*
X004981Y001562D03*
X004979Y001557D03*
X004946Y001477D03*
X005381Y001602D03*
X005396Y001565D03*
X005399Y001560D03*
X005434Y001477D03*
D233*
X005434Y001480D03*
X005411Y001537D03*
X005409Y001542D03*
X005406Y001547D03*
X005381Y001607D03*
X005381Y001610D03*
X004999Y001610D03*
X004971Y001542D03*
X004969Y001540D03*
X004966Y001535D03*
X004969Y001867D03*
D234*
X004997Y001607D03*
X004980Y001560D03*
X004977Y001555D03*
X004975Y001552D03*
X004975Y001550D03*
X004972Y001547D03*
X004972Y001545D03*
X004945Y001480D03*
X005382Y001605D03*
X005400Y001557D03*
X005402Y001555D03*
X005402Y001552D03*
X005405Y001550D03*
X005407Y001545D03*
D235*
X005410Y001540D03*
X005412Y001535D03*
X005415Y001532D03*
X005415Y001530D03*
X005435Y001482D03*
X004997Y001612D03*
X004967Y001537D03*
X004965Y001532D03*
X004962Y001527D03*
X004945Y001482D03*
X004970Y001685D03*
X004967Y001687D03*
X004967Y001690D03*
X004967Y001865D03*
X004970Y001870D03*
X004972Y001872D03*
X004975Y001875D03*
X005407Y001870D03*
X005410Y001867D03*
X005412Y001865D03*
X005412Y001690D03*
D236*
X005411Y001687D03*
X005409Y001685D03*
X005416Y001692D03*
X005381Y001615D03*
X005381Y001612D03*
X005416Y001527D03*
X005419Y001525D03*
X005421Y001520D03*
X005436Y001485D03*
X004999Y001615D03*
X004999Y001617D03*
X004971Y001682D03*
X004964Y001692D03*
X004964Y001530D03*
X004961Y001525D03*
X004959Y001522D03*
X004959Y001520D03*
X004956Y001517D03*
X004944Y001485D03*
X004976Y001877D03*
X005404Y001875D03*
X005406Y001872D03*
X005189Y002102D03*
D237*
X004981Y001882D03*
X004979Y001880D03*
X005399Y001882D03*
X005401Y001880D03*
X005421Y001695D03*
X005404Y001677D03*
X005381Y001622D03*
X005381Y001620D03*
X004999Y001620D03*
X004999Y001622D03*
X004976Y001677D03*
X004974Y001680D03*
X004959Y001695D03*
X004951Y001507D03*
X004949Y001502D03*
X004944Y001490D03*
X004944Y001487D03*
X005429Y001505D03*
X005429Y001507D03*
X005431Y001502D03*
X005436Y001490D03*
X005436Y001487D03*
D238*
X005437Y001492D03*
X005435Y001495D03*
X005435Y001497D03*
X005432Y001500D03*
X004997Y001625D03*
X004980Y001672D03*
X004977Y001675D03*
X005400Y001672D03*
X005402Y001675D03*
X005397Y001885D03*
X004982Y001885D03*
X004950Y001505D03*
X004947Y001500D03*
X004945Y001497D03*
X004945Y001495D03*
X004945Y001492D03*
D239*
X004952Y001510D03*
X004955Y001512D03*
X004955Y001515D03*
X005382Y001617D03*
X005405Y001680D03*
X005407Y001682D03*
X005420Y001522D03*
X005422Y001517D03*
X005425Y001515D03*
X005425Y001512D03*
X005427Y001510D03*
X005417Y001862D03*
X005402Y001877D03*
X004962Y001862D03*
D240*
X004999Y001597D03*
X004994Y001585D03*
X004994Y001582D03*
X004991Y001580D03*
X004989Y001575D03*
X005381Y001595D03*
X005381Y001597D03*
X005386Y001585D03*
X005389Y001580D03*
X005391Y001575D03*
X005394Y001570D03*
D241*
X005381Y001625D03*
X005381Y001627D03*
X005381Y001630D03*
X005399Y001670D03*
X004999Y001627D03*
X004981Y001670D03*
X004986Y001887D03*
X005394Y001887D03*
D242*
X005425Y001860D03*
X005395Y001667D03*
X004997Y001630D03*
X004985Y001667D03*
X004955Y001860D03*
X004987Y001890D03*
X005190Y002100D03*
D243*
X005389Y001892D03*
X005391Y001890D03*
X005429Y001697D03*
X005394Y001665D03*
X005381Y001635D03*
X005381Y001632D03*
X004999Y001632D03*
X004999Y001635D03*
X004986Y001665D03*
D244*
X004987Y001662D03*
X004950Y001697D03*
X005380Y001637D03*
X005392Y001662D03*
X004992Y001895D03*
X004990Y001892D03*
D245*
X005386Y001895D03*
X005389Y001660D03*
X005381Y001642D03*
X005381Y001640D03*
X004999Y001640D03*
X004999Y001637D03*
X004991Y001660D03*
D246*
X004992Y001657D03*
X004997Y001642D03*
X005387Y001657D03*
X005432Y001857D03*
X005382Y001897D03*
X004995Y001897D03*
X004947Y001857D03*
X005190Y002097D03*
D247*
X004999Y001900D03*
X004999Y001645D03*
X005381Y001645D03*
X005381Y001647D03*
X005384Y001655D03*
D248*
X005382Y001652D03*
X005382Y001650D03*
X004997Y001650D03*
X004997Y001652D03*
X004995Y001655D03*
X004997Y001647D03*
X005380Y001900D03*
D249*
X005436Y001700D03*
X004941Y001700D03*
D250*
X004935Y001702D03*
X005445Y001702D03*
D251*
X005454Y001705D03*
X004926Y001705D03*
D252*
X005459Y001707D03*
D253*
X004920Y001707D03*
D254*
X005466Y001710D03*
D255*
X004912Y001710D03*
D256*
X004905Y001712D03*
X004890Y001750D03*
X004890Y001752D03*
X004890Y001755D03*
X004890Y001757D03*
X004890Y001760D03*
X004890Y001762D03*
X004890Y001765D03*
X004890Y001767D03*
X004890Y001790D03*
X004890Y001792D03*
X004890Y001795D03*
X004890Y001797D03*
X004890Y001800D03*
X004890Y001802D03*
X004890Y001805D03*
X005475Y001712D03*
X005490Y001755D03*
X005490Y001757D03*
X005490Y001760D03*
X005490Y001762D03*
X005490Y001765D03*
X005490Y001767D03*
X005490Y001770D03*
X005490Y001772D03*
X005490Y001775D03*
X005490Y001777D03*
X005490Y001780D03*
X005490Y001782D03*
X005490Y001785D03*
X005490Y001787D03*
X005490Y001790D03*
X005490Y001792D03*
X005490Y001795D03*
X005490Y001797D03*
X005490Y001800D03*
D257*
X005484Y001835D03*
X005484Y001837D03*
X005484Y001720D03*
X005484Y001717D03*
X005481Y001715D03*
X004899Y001715D03*
X004896Y001717D03*
X004896Y001720D03*
X004896Y001835D03*
X004896Y001837D03*
X004899Y001840D03*
D258*
X004895Y001832D03*
X004895Y001830D03*
X004895Y001725D03*
X004895Y001722D03*
X005485Y001722D03*
X005485Y001725D03*
X005485Y001827D03*
X005485Y001830D03*
X005485Y001832D03*
X005190Y002082D03*
D259*
X005479Y001842D03*
X005486Y001825D03*
X005486Y001822D03*
X005486Y001820D03*
X005486Y001735D03*
X005486Y001732D03*
X005486Y001730D03*
X005486Y001727D03*
X004894Y001727D03*
X004894Y001730D03*
X004894Y001732D03*
X004894Y001822D03*
X004894Y001825D03*
X004894Y001827D03*
X004901Y001842D03*
D260*
X004892Y001820D03*
X004892Y001817D03*
X004892Y001815D03*
X004892Y001740D03*
X004892Y001737D03*
X004892Y001735D03*
X005487Y001737D03*
X005487Y001740D03*
X005487Y001742D03*
X005487Y001812D03*
X005487Y001815D03*
X005487Y001817D03*
D261*
X005489Y001810D03*
X005489Y001807D03*
X005489Y001805D03*
X005489Y001802D03*
X005489Y001752D03*
X005489Y001750D03*
X005489Y001747D03*
X005489Y001745D03*
X004891Y001745D03*
X004891Y001747D03*
X004891Y001742D03*
X004891Y001807D03*
X004891Y001810D03*
X004891Y001812D03*
D262*
X004889Y001787D03*
X004889Y001785D03*
X004889Y001782D03*
X004889Y001780D03*
X004889Y001777D03*
X004889Y001775D03*
X004889Y001772D03*
X004889Y001770D03*
D263*
X005482Y001840D03*
D264*
X005470Y001845D03*
X004910Y001845D03*
X005190Y002085D03*
D265*
X005461Y001847D03*
X004916Y001847D03*
D266*
X004925Y001850D03*
X005455Y001850D03*
X005190Y002090D03*
D267*
X005190Y002092D03*
X005367Y001907D03*
X005447Y001852D03*
X004932Y001852D03*
D268*
X005372Y001905D03*
X005440Y001855D03*
D269*
X004939Y001855D03*
X005189Y002095D03*
D270*
X005002Y001902D03*
X005377Y001902D03*
D271*
X005006Y001905D03*
D272*
X005011Y001907D03*
D273*
X005019Y001910D03*
X005359Y001910D03*
D274*
X005190Y001912D03*
X005190Y001987D03*
D275*
X005189Y001915D03*
D276*
X005190Y001917D03*
X005190Y001920D03*
X005190Y001982D03*
X005190Y001985D03*
D277*
X005190Y001980D03*
X005190Y001925D03*
X005190Y001922D03*
D278*
X005191Y001927D03*
D279*
X005190Y001930D03*
X005190Y001932D03*
X005190Y001975D03*
X005190Y001977D03*
D280*
X005190Y001972D03*
X005190Y001937D03*
X005190Y001935D03*
D281*
X005190Y001940D03*
X005190Y001942D03*
X005190Y001970D03*
D282*
X005189Y001967D03*
X005189Y001945D03*
D283*
X005190Y001947D03*
X005190Y001950D03*
X005190Y001965D03*
D284*
X005190Y001962D03*
X005190Y001960D03*
X005190Y001957D03*
X005190Y001955D03*
X005190Y001952D03*
D285*
X005189Y001990D03*
D286*
X005189Y001992D03*
D287*
X005190Y001995D03*
D288*
X005190Y001997D03*
D289*
X005189Y002000D03*
D290*
X005190Y002002D03*
D291*
X005190Y002005D03*
D292*
X005189Y002007D03*
D293*
X005190Y002010D03*
D294*
X005190Y002012D03*
D295*
X005189Y002015D03*
D296*
X005190Y002017D03*
D297*
X005190Y002020D03*
D298*
X005189Y002022D03*
D299*
X005190Y002025D03*
D300*
X005190Y002027D03*
D301*
X005190Y002030D03*
X005190Y002032D03*
D302*
X005190Y002035D03*
D303*
X005190Y002037D03*
X005190Y002040D03*
D304*
X005190Y002042D03*
X005190Y002080D03*
D305*
X005190Y002077D03*
X005190Y002045D03*
D306*
X005189Y002047D03*
D307*
X005190Y002050D03*
X005190Y002075D03*
D308*
X005190Y002072D03*
X005190Y002052D03*
D309*
X005189Y002055D03*
D310*
X005190Y002057D03*
X005190Y002070D03*
D311*
X005190Y002067D03*
X005190Y002062D03*
X005190Y002060D03*
D312*
X005191Y002065D03*
D313*
X005190Y002120D03*
X005460Y002082D03*
X004920Y002082D03*
D314*
X004919Y002085D03*
X005189Y002132D03*
X005189Y002135D03*
X005461Y002085D03*
D315*
X005190Y002087D03*
D316*
X005190Y002175D03*
X005190Y002177D03*
X005190Y002180D03*
X005190Y002182D03*
X005462Y002092D03*
X004917Y002092D03*
D317*
X004916Y002097D03*
X005464Y002097D03*
D318*
X005464Y002100D03*
X005191Y002227D03*
X004916Y002100D03*
D319*
X004915Y002102D03*
X005190Y002242D03*
X005465Y002102D03*
D320*
X005466Y002107D03*
X004914Y002107D03*
D321*
X005190Y002107D03*
D322*
X005190Y002110D03*
D323*
X005467Y002112D03*
X004912Y002112D03*
D324*
X005190Y002112D03*
D325*
X005467Y002115D03*
X004912Y002115D03*
D326*
X005190Y002115D03*
D327*
X005190Y002117D03*
D328*
X005469Y002120D03*
X004911Y002120D03*
D329*
X005190Y002122D03*
X005190Y002125D03*
X005190Y002127D03*
X005190Y002130D03*
D330*
X005470Y002125D03*
X004910Y002125D03*
D331*
X004909Y002130D03*
X005471Y002130D03*
D332*
X005190Y002137D03*
X005190Y002140D03*
X005190Y002142D03*
X005190Y002145D03*
D333*
X005474Y002142D03*
X004906Y002142D03*
D334*
X004905Y002147D03*
X005475Y002147D03*
D335*
X005189Y002157D03*
X005189Y002160D03*
X005189Y002162D03*
D336*
X005189Y002172D03*
D337*
X005190Y002202D03*
X005190Y002205D03*
X005190Y002207D03*
X005190Y002210D03*
X005190Y002212D03*
D338*
X002326Y003309D03*
D339*
X002326Y003319D03*
D340*
X002326Y003329D03*
X002326Y003339D03*
X002326Y003349D03*
X002326Y003359D03*
X002326Y003369D03*
X002326Y003379D03*
D341*
X003386Y003389D03*
X003386Y003399D03*
X003386Y003409D03*
D342*
X003406Y003649D03*
X003386Y003659D03*
X002236Y003389D03*
X001336Y003539D03*
X003386Y004459D03*
X003886Y004459D03*
X002076Y004529D03*
D343*
X001776Y003389D03*
D344*
X001401Y003439D03*
X001331Y003389D03*
X001281Y003549D03*
X001401Y003549D03*
X001401Y003559D03*
X002131Y003589D03*
X002351Y003569D03*
X003391Y003979D03*
X003691Y003979D03*
X002561Y004139D03*
X002561Y004149D03*
X002561Y004159D03*
X002561Y004169D03*
X002571Y004209D03*
X002571Y004219D03*
X002561Y004259D03*
X002561Y004269D03*
X002561Y004279D03*
X002561Y004289D03*
X002551Y004319D03*
X002211Y004369D03*
X002211Y004449D03*
X001881Y004339D03*
X001881Y004329D03*
X001871Y004299D03*
X001861Y004269D03*
X001861Y004259D03*
X001861Y004249D03*
X001861Y004239D03*
X001861Y004229D03*
X001861Y004219D03*
X001861Y004209D03*
X001861Y004199D03*
X001861Y004189D03*
X001861Y004179D03*
X001861Y004169D03*
X001861Y004159D03*
X001861Y004149D03*
X001871Y004119D03*
X001881Y004089D03*
X001611Y004149D03*
X001611Y004159D03*
X001611Y004169D03*
X001611Y004179D03*
X001611Y004189D03*
X001611Y004199D03*
X001611Y004209D03*
X001611Y004219D03*
X001611Y004229D03*
X001611Y004239D03*
X001611Y004249D03*
X001611Y004259D03*
X001611Y004269D03*
X001601Y004299D03*
X001601Y004309D03*
X001591Y004329D03*
X001601Y004119D03*
X001591Y004089D03*
X000931Y004079D03*
X000921Y004099D03*
X000921Y004109D03*
X000911Y004139D03*
X000911Y004149D03*
X000911Y004159D03*
X000911Y004169D03*
X000911Y004179D03*
X000911Y004239D03*
X000911Y004249D03*
X000911Y004259D03*
X000911Y004269D03*
X000911Y004279D03*
X000911Y004289D03*
X000921Y004309D03*
X000921Y004319D03*
X002541Y004079D03*
X002551Y004109D03*
D345*
X002021Y003919D03*
X001451Y003919D03*
X001431Y003909D03*
X001351Y004079D03*
X001441Y004509D03*
X001071Y004509D03*
X002031Y004509D03*
X002401Y004509D03*
X003261Y004349D03*
X003271Y004359D03*
X003281Y004369D03*
X003291Y004379D03*
X003991Y004379D03*
X004021Y004339D03*
X003781Y003909D03*
X003481Y003909D03*
X003261Y003769D03*
X003251Y003779D03*
X003981Y003729D03*
X003991Y003739D03*
X004001Y003749D03*
X002221Y003399D03*
X001281Y003609D03*
X001191Y003389D03*
D346*
X000701Y003389D03*
X000701Y003409D03*
X000701Y003419D03*
X000701Y003429D03*
X002821Y003589D03*
D347*
X001781Y003399D03*
D348*
X002131Y003569D03*
X002231Y003569D03*
X002231Y003559D03*
X002241Y003589D03*
X002251Y003599D03*
X002261Y003609D03*
X001321Y003399D03*
X001291Y003479D03*
X001291Y003489D03*
X001191Y003489D03*
X003391Y003989D03*
X003401Y004129D03*
X003701Y004129D03*
X004301Y004679D03*
X000351Y004679D03*
D349*
X001056Y004499D03*
X001456Y004499D03*
X001476Y004489D03*
X001356Y004329D03*
X001386Y004249D03*
X001156Y004329D03*
X001146Y004319D03*
X001146Y004099D03*
X001156Y004089D03*
X001036Y003939D03*
X001056Y003929D03*
X001066Y003919D03*
X001466Y003929D03*
X002006Y003929D03*
X002216Y003969D03*
X002216Y003979D03*
X002216Y003989D03*
X002216Y003999D03*
X002216Y004009D03*
X002216Y004019D03*
X002216Y004029D03*
X002216Y004039D03*
X002216Y004049D03*
X002216Y004059D03*
X002216Y004069D03*
X002216Y004079D03*
X002216Y004089D03*
X002216Y004099D03*
X002216Y004109D03*
X002216Y004119D03*
X002216Y004129D03*
X002216Y004139D03*
X002216Y004149D03*
X002406Y003919D03*
X003236Y003799D03*
X003246Y003789D03*
X003266Y003759D03*
X003276Y003749D03*
X004006Y003759D03*
X004016Y003769D03*
X004026Y003779D03*
X004036Y003789D03*
X004036Y003799D03*
X004046Y003809D03*
X003856Y004149D03*
X004066Y004269D03*
X004056Y004289D03*
X004046Y004309D03*
X004036Y004319D03*
X004026Y004329D03*
X004016Y004349D03*
X004006Y004359D03*
X003996Y004369D03*
X003556Y004149D03*
X003246Y004329D03*
X003256Y004339D03*
X003226Y004299D03*
X003216Y004279D03*
X002416Y004499D03*
X002016Y004499D03*
X001996Y004489D03*
X001196Y003399D03*
D350*
X000696Y003399D03*
X002816Y003599D03*
X002816Y003609D03*
D351*
X003221Y003819D03*
X003221Y003829D03*
X003211Y003839D03*
X003211Y003849D03*
X003201Y003859D03*
X003201Y003869D03*
X003191Y003889D03*
X003181Y003919D03*
X003231Y003809D03*
X003561Y003969D03*
X003861Y003969D03*
X003871Y003979D03*
X004101Y003939D03*
X004091Y003899D03*
X004081Y003879D03*
X004081Y003869D03*
X004071Y003859D03*
X004071Y003849D03*
X004061Y003839D03*
X004061Y003829D03*
X004051Y003819D03*
X003631Y003539D03*
X002431Y003939D03*
X002421Y003929D03*
X001991Y003939D03*
X001981Y003949D03*
X001491Y003949D03*
X001481Y003939D03*
X001261Y004009D03*
X001361Y004089D03*
X001371Y004099D03*
X001131Y004119D03*
X001121Y004139D03*
X001111Y004209D03*
X001131Y004299D03*
X001361Y004319D03*
X001371Y004309D03*
X001491Y004479D03*
X001041Y004489D03*
X001031Y004479D03*
X001981Y004479D03*
X002211Y004419D03*
X002211Y004409D03*
X002211Y004399D03*
X002431Y004489D03*
X002441Y004479D03*
X002451Y004469D03*
X003191Y004229D03*
X003201Y004249D03*
X003211Y004269D03*
X003221Y004289D03*
X003231Y004309D03*
X003241Y004319D03*
X003181Y004189D03*
X003401Y004149D03*
X003481Y004209D03*
X003561Y004139D03*
X003701Y004149D03*
X003781Y004209D03*
X004051Y004299D03*
X004061Y004279D03*
X004071Y004259D03*
X004081Y004239D03*
X004091Y004209D03*
X004101Y004179D03*
X002211Y003409D03*
X001281Y003599D03*
X001191Y003409D03*
D352*
X001776Y003499D03*
X001786Y003409D03*
D353*
X002131Y003549D03*
X001311Y003419D03*
X001311Y003409D03*
X001301Y003429D03*
X001301Y003439D03*
X001291Y003459D03*
X001191Y003519D03*
X003401Y003999D03*
X003481Y003899D03*
X003711Y004119D03*
X004321Y004649D03*
X000331Y004649D03*
D354*
X001776Y003509D03*
X001796Y003469D03*
X001796Y003449D03*
X001796Y003439D03*
X001796Y003429D03*
X004036Y003419D03*
D355*
X002991Y003419D03*
D356*
X002226Y003509D03*
X002226Y003519D03*
X002206Y003489D03*
X002206Y003429D03*
X002206Y003419D03*
X002126Y003609D03*
X001306Y003519D03*
X001276Y003589D03*
X001196Y003429D03*
X001196Y003419D03*
X001026Y003949D03*
X001016Y003959D03*
X001006Y003969D03*
X000996Y003979D03*
X000976Y003999D03*
X001136Y004109D03*
X001126Y004129D03*
X001116Y004149D03*
X001116Y004159D03*
X001116Y004169D03*
X001116Y004179D03*
X001116Y004189D03*
X001116Y004199D03*
X001116Y004219D03*
X001116Y004229D03*
X001116Y004239D03*
X001116Y004249D03*
X001116Y004259D03*
X001116Y004269D03*
X001126Y004279D03*
X001126Y004289D03*
X001136Y004309D03*
X001376Y004299D03*
X001376Y004289D03*
X001386Y004269D03*
X001386Y004239D03*
X001386Y004139D03*
X001386Y004129D03*
X001376Y004119D03*
X001376Y004109D03*
X001516Y003969D03*
X001506Y003959D03*
X001946Y003979D03*
X001956Y003969D03*
X001966Y003959D03*
X002446Y003949D03*
X002456Y003959D03*
X002466Y003969D03*
X002476Y003979D03*
X002486Y003989D03*
X003166Y003989D03*
X003166Y003999D03*
X003166Y004009D03*
X003166Y004019D03*
X003166Y004029D03*
X003166Y004039D03*
X003166Y004069D03*
X003166Y004079D03*
X003166Y004089D03*
X003166Y004099D03*
X003166Y004109D03*
X003166Y004119D03*
X003166Y004129D03*
X003166Y004139D03*
X003176Y004159D03*
X003176Y004169D03*
X003176Y004179D03*
X003186Y004199D03*
X003186Y004209D03*
X003186Y004219D03*
X003196Y004239D03*
X003206Y004259D03*
X003576Y004129D03*
X003576Y004119D03*
X003586Y004089D03*
X003586Y004079D03*
X003586Y004069D03*
X003586Y004059D03*
X003586Y004049D03*
X003586Y004039D03*
X003586Y004029D03*
X003586Y004019D03*
X003576Y003999D03*
X003576Y003989D03*
X003566Y003979D03*
X003696Y003969D03*
X003876Y003989D03*
X003876Y003999D03*
X003886Y004009D03*
X003886Y004019D03*
X003886Y004029D03*
X003886Y004039D03*
X003886Y004079D03*
X003886Y004089D03*
X003886Y004099D03*
X003886Y004109D03*
X003876Y004119D03*
X003876Y004129D03*
X003866Y004139D03*
X004086Y004219D03*
X004086Y004229D03*
X004076Y004249D03*
X004096Y004199D03*
X004096Y004189D03*
X004106Y004169D03*
X004106Y004159D03*
X004106Y004149D03*
X004106Y004139D03*
X004116Y004099D03*
X004116Y004089D03*
X004116Y004079D03*
X004116Y004069D03*
X004116Y004059D03*
X004116Y004049D03*
X004116Y004039D03*
X004116Y004029D03*
X004116Y004019D03*
X004116Y004009D03*
X004106Y003969D03*
X004106Y003959D03*
X004106Y003949D03*
X004096Y003929D03*
X004096Y003919D03*
X004096Y003909D03*
X004086Y003889D03*
X003196Y003879D03*
X003186Y003899D03*
X003186Y003909D03*
X003176Y003929D03*
X003176Y003939D03*
X003176Y003949D03*
X003166Y003979D03*
X002216Y004389D03*
X002216Y004429D03*
X001976Y004469D03*
X001966Y004459D03*
X001956Y004449D03*
X001936Y004429D03*
X001536Y004429D03*
X001516Y004449D03*
X001506Y004459D03*
X001496Y004469D03*
X001016Y004469D03*
X001006Y004459D03*
X000996Y004449D03*
X002466Y004459D03*
D357*
X001791Y003419D03*
D358*
X001771Y003559D03*
X001761Y003579D03*
X001751Y003599D03*
X001741Y003609D03*
X004061Y003429D03*
X003641Y004499D03*
D359*
X002966Y003429D03*
D360*
X003636Y003609D03*
X004076Y003439D03*
X003636Y004509D03*
D361*
X002946Y003439D03*
D362*
X002346Y003439D03*
X002226Y003529D03*
X002226Y003539D03*
X002346Y003539D03*
X002346Y003549D03*
X002346Y003559D03*
X001296Y003509D03*
X001276Y003559D03*
X001556Y004019D03*
X001566Y004039D03*
X001576Y004049D03*
X001576Y004059D03*
X001586Y004069D03*
X001586Y004079D03*
X001596Y004099D03*
X001596Y004109D03*
X001606Y004129D03*
X001606Y004139D03*
X001606Y004279D03*
X001606Y004289D03*
X001596Y004319D03*
X001586Y004339D03*
X001586Y004349D03*
X001576Y004369D03*
X001566Y004379D03*
X001566Y004389D03*
X001556Y004399D03*
X001266Y004409D03*
X000966Y004409D03*
X000956Y004389D03*
X000946Y004379D03*
X000936Y004359D03*
X000936Y004349D03*
X000926Y004339D03*
X000926Y004329D03*
X000916Y004299D03*
X000906Y004229D03*
X000906Y004219D03*
X000906Y004209D03*
X000906Y004199D03*
X000906Y004189D03*
X000916Y004129D03*
X000916Y004119D03*
X000926Y004089D03*
X000936Y004069D03*
X000936Y004059D03*
X000946Y004049D03*
X000946Y004039D03*
X000956Y004029D03*
X001386Y004229D03*
X001866Y004279D03*
X001866Y004289D03*
X001876Y004309D03*
X001876Y004319D03*
X001886Y004349D03*
X001896Y004369D03*
X001906Y004389D03*
X001916Y004399D03*
X002516Y004389D03*
X002526Y004379D03*
X002526Y004369D03*
X002536Y004359D03*
X002536Y004349D03*
X002546Y004339D03*
X002546Y004329D03*
X002556Y004309D03*
X002556Y004299D03*
X002566Y004249D03*
X002566Y004239D03*
X002566Y004229D03*
X002566Y004199D03*
X002566Y004189D03*
X002566Y004179D03*
X002556Y004129D03*
X002556Y004119D03*
X002546Y004099D03*
X002546Y004089D03*
X002536Y004069D03*
X002536Y004059D03*
X002526Y004049D03*
X002516Y004029D03*
X001916Y004019D03*
X001906Y004039D03*
X001896Y004049D03*
X001896Y004059D03*
X001886Y004069D03*
X001886Y004079D03*
X001876Y004099D03*
X001876Y004109D03*
X001866Y004129D03*
X001866Y004139D03*
X003396Y004139D03*
X003696Y004139D03*
D363*
X003581Y004109D03*
X003581Y004099D03*
X003581Y004009D03*
X003391Y003969D03*
X003171Y003969D03*
X003171Y003959D03*
X003161Y004049D03*
X003161Y004059D03*
X003171Y004149D03*
X002521Y004039D03*
X002511Y004019D03*
X002501Y004009D03*
X002491Y003999D03*
X002211Y003829D03*
X002131Y003599D03*
X002211Y003499D03*
X002201Y003479D03*
X002201Y003469D03*
X002201Y003459D03*
X002201Y003449D03*
X002201Y003439D03*
X002341Y003449D03*
X002341Y003459D03*
X002341Y003469D03*
X002341Y003479D03*
X001411Y003469D03*
X001401Y003459D03*
X001401Y003449D03*
X001281Y003569D03*
X001281Y003579D03*
X001261Y003829D03*
X001521Y003979D03*
X001531Y003989D03*
X001541Y003999D03*
X001551Y004009D03*
X001561Y004029D03*
X001911Y004029D03*
X001921Y004009D03*
X001931Y003999D03*
X001941Y003989D03*
X001381Y004279D03*
X001581Y004359D03*
X001551Y004409D03*
X001541Y004419D03*
X001531Y004439D03*
X001891Y004359D03*
X001901Y004379D03*
X001921Y004409D03*
X001931Y004419D03*
X001941Y004439D03*
X002211Y004439D03*
X002211Y004379D03*
X002471Y004449D03*
X002481Y004439D03*
X002491Y004429D03*
X002501Y004419D03*
X002501Y004409D03*
X002511Y004399D03*
X003891Y004069D03*
X003891Y004059D03*
X003891Y004049D03*
X004111Y003999D03*
X004111Y003989D03*
X004111Y003979D03*
X004111Y004109D03*
X004111Y004119D03*
X004111Y004129D03*
X000981Y003989D03*
X000971Y004009D03*
X000961Y004019D03*
X000941Y004369D03*
X000961Y004399D03*
X000971Y004419D03*
X000981Y004429D03*
X000991Y004439D03*
D364*
X000706Y003459D03*
X000706Y003449D03*
X000706Y003439D03*
D365*
X003641Y003599D03*
X004091Y003449D03*
D366*
X002936Y003449D03*
D367*
X002236Y003579D03*
X002126Y003559D03*
X001296Y003469D03*
X001296Y003449D03*
X001196Y003499D03*
X001196Y003509D03*
X000326Y003729D03*
X000326Y003739D03*
X000326Y003749D03*
X000326Y003759D03*
X000326Y003769D03*
X000326Y003779D03*
X000326Y003789D03*
X000326Y003799D03*
X000326Y003809D03*
X000326Y003819D03*
X000326Y003829D03*
X000326Y003839D03*
X000326Y003849D03*
X000326Y003859D03*
X000326Y003869D03*
X000326Y003879D03*
X000326Y003889D03*
X000326Y003899D03*
X000326Y003909D03*
X000326Y003919D03*
X000326Y003929D03*
X000326Y003939D03*
X000326Y003949D03*
X000326Y003959D03*
X000326Y003969D03*
X000326Y003979D03*
X000326Y003989D03*
X000326Y003999D03*
X000326Y004009D03*
X000326Y004019D03*
X000326Y004029D03*
X000326Y004039D03*
X000326Y004049D03*
X000326Y004059D03*
X000326Y004069D03*
X000326Y004079D03*
X000326Y004089D03*
X000326Y004099D03*
X000326Y004109D03*
X000326Y004119D03*
X000326Y004129D03*
X000326Y004139D03*
X000326Y004149D03*
X000326Y004159D03*
X000326Y004169D03*
X000326Y004179D03*
X000326Y004189D03*
X000326Y004199D03*
X000326Y004209D03*
X000326Y004219D03*
X000326Y004229D03*
X000326Y004239D03*
X000326Y004249D03*
X000326Y004259D03*
X000326Y004269D03*
X000326Y004279D03*
X000326Y004289D03*
X000326Y004299D03*
X000326Y004309D03*
X000326Y004319D03*
X000326Y004329D03*
X000326Y004339D03*
X000326Y004349D03*
X000326Y004359D03*
X000326Y004369D03*
X000326Y004379D03*
X000326Y004389D03*
X000326Y004399D03*
X000326Y004409D03*
X000326Y004419D03*
X000326Y004429D03*
X000326Y004439D03*
X000326Y004449D03*
X000326Y004459D03*
X000326Y004469D03*
X000326Y004479D03*
X000326Y004489D03*
X000326Y004499D03*
X000326Y004509D03*
X000326Y004519D03*
X000326Y004529D03*
X000326Y004539D03*
X000326Y004549D03*
X000326Y004559D03*
X000326Y004569D03*
X000326Y004579D03*
X000326Y004589D03*
X000326Y004599D03*
X000326Y004609D03*
X000326Y004619D03*
X000326Y004629D03*
X000326Y004639D03*
X000336Y004659D03*
X000336Y004669D03*
X001386Y004209D03*
X003696Y003989D03*
X003786Y003899D03*
X004326Y003899D03*
X004326Y003909D03*
X004326Y003919D03*
X004326Y003929D03*
X004326Y003939D03*
X004326Y003949D03*
X004326Y003959D03*
X004326Y003969D03*
X004326Y003979D03*
X004326Y003989D03*
X004326Y003999D03*
X004326Y004009D03*
X004326Y004019D03*
X004326Y004029D03*
X004326Y004039D03*
X004326Y004049D03*
X004326Y004059D03*
X004326Y004069D03*
X004326Y004079D03*
X004326Y004089D03*
X004326Y004099D03*
X004326Y004109D03*
X004326Y004119D03*
X004326Y004129D03*
X004326Y004139D03*
X004326Y004149D03*
X004326Y004159D03*
X004326Y004169D03*
X004326Y004179D03*
X004326Y004189D03*
X004326Y004199D03*
X004326Y004209D03*
X004326Y004219D03*
X004326Y004229D03*
X004326Y004239D03*
X004326Y004249D03*
X004326Y004259D03*
X004326Y004269D03*
X004326Y004279D03*
X004326Y004289D03*
X004326Y004299D03*
X004326Y004309D03*
X004326Y004319D03*
X004326Y004329D03*
X004326Y004339D03*
X004326Y004349D03*
X004326Y004359D03*
X004326Y004369D03*
X004326Y004379D03*
X004326Y004389D03*
X004326Y004399D03*
X004326Y004409D03*
X004326Y004419D03*
X004326Y004429D03*
X004326Y004439D03*
X004326Y004449D03*
X004326Y004459D03*
X004326Y004469D03*
X004326Y004479D03*
X004326Y004489D03*
X004326Y004499D03*
X004326Y004509D03*
X004326Y004519D03*
X004326Y004529D03*
X004326Y004539D03*
X004326Y004549D03*
X004326Y004559D03*
X004326Y004569D03*
X004326Y004579D03*
X004326Y004589D03*
X004326Y004599D03*
X004326Y004609D03*
X004326Y004619D03*
X004326Y004629D03*
X004326Y004639D03*
X004316Y004659D03*
X004316Y004669D03*
X004326Y003889D03*
X004326Y003879D03*
X004326Y003869D03*
X004326Y003859D03*
X004326Y003849D03*
X004326Y003839D03*
X004326Y003829D03*
X004326Y003819D03*
X004326Y003809D03*
X004326Y003799D03*
X004326Y003789D03*
X004326Y003779D03*
X004326Y003769D03*
X004326Y003759D03*
X004326Y003749D03*
X004326Y003739D03*
X004326Y003729D03*
D368*
X004106Y003459D03*
D369*
X002921Y003459D03*
D370*
X001801Y003459D03*
D371*
X004116Y003469D03*
X003636Y004529D03*
D372*
X002911Y003469D03*
D373*
X002831Y003579D03*
X000711Y003479D03*
X000711Y003469D03*
D374*
X004126Y003479D03*
D375*
X002901Y003479D03*
D376*
X001751Y003479D03*
D377*
X004136Y003489D03*
X003636Y004539D03*
X002216Y004539D03*
X001256Y004539D03*
D378*
X002891Y003489D03*
D379*
X001761Y003489D03*
D380*
X000716Y003489D03*
X000716Y003499D03*
X000716Y003509D03*
X002836Y003569D03*
D381*
X002216Y003879D03*
X001256Y003879D03*
X004146Y003499D03*
D382*
X002881Y003499D03*
D383*
X002356Y003529D03*
X002226Y003549D03*
X002126Y003579D03*
X001406Y003569D03*
X001296Y003499D03*
X001386Y004219D03*
D384*
X004151Y003509D03*
D385*
X002871Y003509D03*
D386*
X004161Y003519D03*
X003641Y004549D03*
D387*
X002866Y003519D03*
D388*
X001776Y003519D03*
D389*
X000721Y003519D03*
X000721Y003529D03*
X000721Y003539D03*
X002841Y003559D03*
D390*
X002216Y003869D03*
X001256Y003869D03*
X004166Y003529D03*
D391*
X002861Y003529D03*
D392*
X001781Y003529D03*
D393*
X001316Y003529D03*
X001086Y003909D03*
X001166Y004079D03*
X001386Y004259D03*
X001096Y004519D03*
X002376Y004519D03*
X003296Y004389D03*
X003306Y004399D03*
X003316Y004409D03*
X003946Y004419D03*
X003956Y004409D03*
X003966Y004399D03*
X003976Y004389D03*
X002386Y003909D03*
X002036Y003909D03*
X003286Y003739D03*
X003296Y003729D03*
X003306Y003719D03*
X003316Y003709D03*
X003326Y003699D03*
X003946Y003699D03*
X003956Y003709D03*
X003966Y003719D03*
D394*
X003706Y003999D03*
X003406Y004119D03*
X002216Y004359D03*
X001386Y004199D03*
X001196Y003539D03*
X001196Y003529D03*
D395*
X004176Y003539D03*
D396*
X002851Y003539D03*
X000731Y003569D03*
X000731Y003579D03*
X000731Y003589D03*
D397*
X001776Y003549D03*
X001776Y003539D03*
X003636Y003619D03*
D398*
X003641Y003559D03*
X004181Y003549D03*
X002211Y003859D03*
X001261Y003859D03*
D399*
X003461Y003629D03*
X003641Y003549D03*
X004221Y003629D03*
X003481Y003959D03*
X003481Y004159D03*
X003781Y004159D03*
D400*
X002846Y003549D03*
X000726Y003549D03*
X000726Y003559D03*
D401*
X004186Y003559D03*
D402*
X004191Y003569D03*
X002211Y004569D03*
X001261Y004569D03*
D403*
X001256Y004549D03*
X002216Y004549D03*
X003636Y003569D03*
D404*
X001766Y003569D03*
X001756Y003589D03*
D405*
X001256Y004069D03*
X001256Y004339D03*
X003636Y004559D03*
X004196Y003579D03*
D406*
X003641Y003579D03*
X001261Y003889D03*
D407*
X001251Y004349D03*
X004201Y003589D03*
D408*
X003641Y003589D03*
D409*
X004206Y003599D03*
X003796Y004489D03*
X003476Y004489D03*
X001256Y004359D03*
X001256Y004059D03*
D410*
X000736Y003609D03*
X000736Y003599D03*
D411*
X001261Y003849D03*
X002211Y003849D03*
X004211Y003609D03*
D412*
X004216Y003619D03*
X003786Y003959D03*
X001256Y004049D03*
X001256Y004369D03*
D413*
X002316Y003619D03*
D414*
X000841Y003619D03*
D415*
X001256Y004039D03*
X001256Y004579D03*
X002216Y004579D03*
X003476Y004169D03*
X003476Y003949D03*
X003786Y003949D03*
X004226Y003639D03*
X003816Y003629D03*
D416*
X001746Y003629D03*
D417*
X002211Y003839D03*
X002321Y003889D03*
X002211Y004159D03*
X002211Y004169D03*
X002211Y004179D03*
X002211Y004189D03*
X002211Y004199D03*
X002211Y004209D03*
X002211Y004219D03*
X002211Y004229D03*
X002211Y004239D03*
X002211Y004249D03*
X002211Y004259D03*
X002211Y004269D03*
X002211Y004279D03*
X002211Y004289D03*
X002211Y004299D03*
X002211Y004309D03*
X001261Y004029D03*
X001261Y003839D03*
X003431Y003639D03*
X003851Y003639D03*
X004241Y003679D03*
X004241Y003689D03*
X003781Y004179D03*
X003481Y004179D03*
X003841Y004479D03*
X003641Y004569D03*
D418*
X001741Y003639D03*
D419*
X003481Y003939D03*
X003781Y004169D03*
X004231Y003659D03*
X004231Y003649D03*
D420*
X004251Y003709D03*
X004251Y003719D03*
X003871Y003649D03*
X003481Y003929D03*
X003481Y004189D03*
X003781Y004189D03*
X003411Y004469D03*
D421*
X001736Y003649D03*
D422*
X001261Y004019D03*
X001121Y004529D03*
X001261Y004589D03*
X001401Y004529D03*
X002211Y004589D03*
X002351Y004529D03*
X003371Y004449D03*
X003901Y004449D03*
X003781Y003919D03*
X003481Y003919D03*
X003371Y003669D03*
X003891Y003659D03*
D423*
X001731Y003659D03*
X001731Y003669D03*
D424*
X002106Y003889D03*
X001256Y004379D03*
X003436Y004479D03*
X003786Y003939D03*
X004236Y003669D03*
D425*
X003936Y003689D03*
X003906Y003669D03*
X003356Y003679D03*
X002366Y003899D03*
X003476Y004199D03*
X003356Y004439D03*
X003916Y004439D03*
X001106Y003899D03*
D426*
X001411Y003899D03*
X002061Y003899D03*
X003341Y003689D03*
X003921Y003679D03*
X003781Y004199D03*
X003931Y004429D03*
X003341Y004429D03*
X003331Y004419D03*
X002051Y004519D03*
X001421Y004519D03*
X001261Y004399D03*
D427*
X001726Y003689D03*
X001726Y003679D03*
D428*
X002216Y004319D03*
X001256Y004389D03*
X003786Y003929D03*
X004246Y003699D03*
X003866Y004469D03*
D429*
X001721Y003699D03*
D430*
X001716Y003709D03*
X001716Y003719D03*
D431*
X003636Y004519D03*
D432*
X002211Y004559D03*
X001261Y004559D03*
D433*
X002326Y004689D03*
D434*
X002326Y004699D03*
D435*
X002326Y004709D03*
M02*
