G75*
%MOIN*%
%OFA0B0*%
%FSLAX24Y24*%
%IPPOS*%
%LPD*%
%AMOC8*
5,1,8,0,0,1.08239X$1,22.5*
%
%ADD10C,0.0118*%
%ADD11C,0.0080*%
%ADD12C,0.0030*%
%ADD13C,0.0060*%
%ADD14C,0.0040*%
%ADD15C,0.0000*%
%ADD16C,0.0050*%
D10*
X000159Y000159D02*
X014057Y000159D01*
X014057Y004883D01*
X000159Y004883D01*
X000159Y000159D01*
D11*
X004234Y003198D02*
X004785Y003198D01*
X005061Y003356D02*
X005297Y003592D01*
X005061Y003828D01*
X005061Y003356D01*
X005297Y003317D02*
X005297Y003592D01*
X005297Y003868D01*
X005572Y003986D02*
X006124Y003986D01*
X006124Y003198D01*
X005572Y003198D01*
X004234Y003198D02*
X004234Y003986D01*
X004785Y003986D01*
X010864Y004171D02*
X011848Y004171D01*
X011848Y003698D01*
X010864Y004171D02*
X010864Y004486D01*
X012242Y004486D01*
X013817Y003698D02*
X013817Y001336D01*
X011848Y001336D02*
X011848Y000864D01*
X010864Y000864D01*
X010864Y000549D01*
X012242Y000549D01*
D12*
X010834Y000631D02*
X010592Y000631D01*
X010713Y000631D02*
X010713Y000995D01*
X010592Y000873D01*
X010472Y000995D02*
X010351Y000995D01*
X010411Y000995D02*
X010411Y000691D01*
X010351Y000631D01*
X010290Y000631D01*
X010229Y000691D01*
X002162Y003166D02*
X001919Y003166D01*
X002041Y003166D02*
X002041Y003530D01*
X001919Y003409D01*
X001800Y003470D02*
X001739Y003530D01*
X001618Y003530D01*
X001557Y003470D01*
X001557Y003227D01*
X001618Y003166D01*
X001739Y003166D01*
X001800Y003227D01*
X001800Y003470D01*
X001437Y003530D02*
X001194Y003530D01*
X001316Y003530D02*
X001316Y003166D01*
X001075Y003348D02*
X001014Y003288D01*
X000832Y003288D01*
X000712Y003227D02*
X000712Y003470D01*
X000651Y003530D01*
X000530Y003530D01*
X000469Y003470D01*
X000469Y003227D01*
X000530Y003166D01*
X000651Y003166D01*
X000712Y003227D01*
X000832Y003166D02*
X000832Y003530D01*
X001014Y003530D01*
X001075Y003470D01*
X001075Y003348D01*
X001280Y004188D02*
X001280Y004552D01*
X001462Y004552D01*
X001522Y004491D01*
X001522Y004370D01*
X001462Y004309D01*
X001280Y004309D01*
X001401Y004309D02*
X001522Y004188D01*
X001642Y004188D02*
X001885Y004188D01*
X001763Y004188D02*
X001763Y004552D01*
X001642Y004431D01*
X003894Y004317D02*
X004076Y004317D01*
X004136Y004378D01*
X004136Y004499D01*
X004076Y004560D01*
X003894Y004560D01*
X003894Y004196D01*
X004015Y004317D02*
X004136Y004196D01*
X004256Y004257D02*
X004317Y004196D01*
X004438Y004196D01*
X004499Y004257D01*
X004499Y004317D01*
X004438Y004378D01*
X004378Y004378D01*
X004438Y004378D02*
X004499Y004439D01*
X004499Y004499D01*
X004438Y004560D01*
X004317Y004560D01*
X004256Y004499D01*
X004844Y004521D02*
X004844Y004157D01*
X005086Y004157D01*
X005206Y004157D02*
X005449Y004157D01*
X005569Y004157D02*
X005751Y004157D01*
X005811Y004218D01*
X005811Y004460D01*
X005751Y004521D01*
X005569Y004521D01*
X005569Y004157D01*
X005931Y004157D02*
X006174Y004157D01*
X006053Y004157D02*
X006053Y004521D01*
X005931Y004400D01*
X005449Y004521D02*
X005206Y004521D01*
X005206Y004157D01*
X005206Y004339D02*
X005328Y004339D01*
X007354Y004279D02*
X007354Y004643D01*
X007536Y004643D01*
X007597Y004582D01*
X007597Y004461D01*
X007536Y004400D01*
X007354Y004400D01*
X007476Y004400D02*
X007597Y004279D01*
X007717Y004279D02*
X007960Y004521D01*
X007960Y004582D01*
X007899Y004643D01*
X007778Y004643D01*
X007717Y004582D01*
X007717Y004279D02*
X007960Y004279D01*
D13*
X007167Y004057D02*
X007167Y003820D01*
X006694Y003820D02*
X006694Y004057D01*
X003781Y004057D02*
X003781Y003820D01*
X003309Y003820D02*
X003309Y004057D01*
X002679Y004057D02*
X002679Y003820D01*
X002206Y003820D02*
X002206Y004057D01*
X012915Y003771D02*
X012915Y003271D01*
X013165Y003021D01*
X012915Y002771D01*
X012915Y002271D01*
X013165Y002021D01*
X012915Y001771D01*
X012915Y001271D01*
X013165Y001021D01*
X013665Y001021D01*
X013915Y001271D01*
X013915Y001771D01*
X013665Y002021D01*
X013915Y002271D01*
X013915Y002771D01*
X013665Y003021D01*
X013915Y003271D01*
X013915Y003771D01*
X013665Y004021D01*
X013165Y004021D01*
X012915Y003771D01*
D14*
X010275Y004063D02*
X009968Y004063D01*
X009815Y004063D02*
X009661Y004216D01*
X009585Y004063D02*
X009508Y004140D01*
X009508Y004447D01*
X009585Y004523D01*
X009738Y004523D01*
X009815Y004447D01*
X009815Y004140D01*
X009738Y004063D01*
X009585Y004063D01*
X010122Y004063D02*
X010122Y004523D01*
X009968Y004370D01*
D15*
X008250Y001734D02*
X008252Y001785D01*
X008258Y001836D01*
X008268Y001886D01*
X008281Y001936D01*
X008299Y001984D01*
X008319Y002031D01*
X008344Y002076D01*
X008372Y002119D01*
X008403Y002160D01*
X008437Y002198D01*
X008474Y002233D01*
X008513Y002266D01*
X008555Y002296D01*
X008599Y002322D01*
X008645Y002344D01*
X008693Y002364D01*
X008742Y002379D01*
X008792Y002391D01*
X008842Y002399D01*
X008893Y002403D01*
X008945Y002403D01*
X008996Y002399D01*
X009046Y002391D01*
X009096Y002379D01*
X009145Y002364D01*
X009193Y002344D01*
X009239Y002322D01*
X009283Y002296D01*
X009325Y002266D01*
X009364Y002233D01*
X009401Y002198D01*
X009435Y002160D01*
X009466Y002119D01*
X009494Y002076D01*
X009519Y002031D01*
X009539Y001984D01*
X009557Y001936D01*
X009570Y001886D01*
X009580Y001836D01*
X009586Y001785D01*
X009588Y001734D01*
X009586Y001683D01*
X009580Y001632D01*
X009570Y001582D01*
X009557Y001532D01*
X009539Y001484D01*
X009519Y001437D01*
X009494Y001392D01*
X009466Y001349D01*
X009435Y001308D01*
X009401Y001270D01*
X009364Y001235D01*
X009325Y001202D01*
X009283Y001172D01*
X009239Y001146D01*
X009193Y001124D01*
X009145Y001104D01*
X009096Y001089D01*
X009046Y001077D01*
X008996Y001069D01*
X008945Y001065D01*
X008893Y001065D01*
X008842Y001069D01*
X008792Y001077D01*
X008742Y001089D01*
X008693Y001104D01*
X008645Y001124D01*
X008599Y001146D01*
X008555Y001172D01*
X008513Y001202D01*
X008474Y001235D01*
X008437Y001270D01*
X008403Y001308D01*
X008372Y001349D01*
X008344Y001392D01*
X008319Y001437D01*
X008299Y001484D01*
X008281Y001532D01*
X008268Y001582D01*
X008258Y001632D01*
X008252Y001683D01*
X008250Y001734D01*
X000770Y001734D02*
X000772Y001785D01*
X000778Y001836D01*
X000788Y001886D01*
X000801Y001936D01*
X000819Y001984D01*
X000839Y002031D01*
X000864Y002076D01*
X000892Y002119D01*
X000923Y002160D01*
X000957Y002198D01*
X000994Y002233D01*
X001033Y002266D01*
X001075Y002296D01*
X001119Y002322D01*
X001165Y002344D01*
X001213Y002364D01*
X001262Y002379D01*
X001312Y002391D01*
X001362Y002399D01*
X001413Y002403D01*
X001465Y002403D01*
X001516Y002399D01*
X001566Y002391D01*
X001616Y002379D01*
X001665Y002364D01*
X001713Y002344D01*
X001759Y002322D01*
X001803Y002296D01*
X001845Y002266D01*
X001884Y002233D01*
X001921Y002198D01*
X001955Y002160D01*
X001986Y002119D01*
X002014Y002076D01*
X002039Y002031D01*
X002059Y001984D01*
X002077Y001936D01*
X002090Y001886D01*
X002100Y001836D01*
X002106Y001785D01*
X002108Y001734D01*
X002106Y001683D01*
X002100Y001632D01*
X002090Y001582D01*
X002077Y001532D01*
X002059Y001484D01*
X002039Y001437D01*
X002014Y001392D01*
X001986Y001349D01*
X001955Y001308D01*
X001921Y001270D01*
X001884Y001235D01*
X001845Y001202D01*
X001803Y001172D01*
X001759Y001146D01*
X001713Y001124D01*
X001665Y001104D01*
X001616Y001089D01*
X001566Y001077D01*
X001516Y001069D01*
X001465Y001065D01*
X001413Y001065D01*
X001362Y001069D01*
X001312Y001077D01*
X001262Y001089D01*
X001213Y001104D01*
X001165Y001124D01*
X001119Y001146D01*
X001075Y001172D01*
X001033Y001202D01*
X000994Y001235D01*
X000957Y001270D01*
X000923Y001308D01*
X000892Y001349D01*
X000864Y001392D01*
X000839Y001437D01*
X000819Y001484D01*
X000801Y001532D01*
X000788Y001582D01*
X000778Y001632D01*
X000772Y001683D01*
X000770Y001734D01*
D16*
X000376Y002757D02*
X000378Y002785D01*
X000383Y002813D01*
X000391Y002841D01*
X000403Y002867D01*
X000418Y002891D01*
X000435Y002913D01*
X000456Y002934D01*
X000478Y002951D01*
X000502Y002966D01*
X000528Y002978D01*
X000556Y002986D01*
X000584Y002991D01*
X000612Y002993D01*
X000612Y002994D02*
X009746Y002994D01*
X009746Y002993D02*
X009774Y002991D01*
X009802Y002986D01*
X009830Y002978D01*
X009856Y002966D01*
X009880Y002951D01*
X009902Y002934D01*
X009923Y002913D01*
X009940Y002891D01*
X009955Y002867D01*
X009967Y002841D01*
X009975Y002813D01*
X009980Y002785D01*
X009982Y002757D01*
X009982Y000710D01*
X009980Y000682D01*
X009975Y000654D01*
X009967Y000626D01*
X009955Y000600D01*
X009940Y000576D01*
X009923Y000554D01*
X009902Y000533D01*
X009880Y000516D01*
X009856Y000501D01*
X009830Y000489D01*
X009802Y000481D01*
X009774Y000476D01*
X009746Y000474D01*
X000612Y000474D01*
X000584Y000476D01*
X000556Y000481D01*
X000528Y000489D01*
X000502Y000501D01*
X000478Y000516D01*
X000456Y000533D01*
X000435Y000554D01*
X000418Y000576D01*
X000403Y000600D01*
X000391Y000626D01*
X000383Y000654D01*
X000378Y000682D01*
X000376Y000710D01*
X000376Y002757D01*
X002836Y002974D02*
X002836Y000494D01*
X004569Y000494D02*
X004569Y002974D01*
X005789Y002974D02*
X005789Y000494D01*
X007521Y000494D02*
X007521Y002974D01*
M02*
