G75*
%MOIN*%
%OFA0B0*%
%FSLAX24Y24*%
%IPPOS*%
%LPD*%
%AMOC8*
5,1,8,0,0,1.08239X$1,22.5*
%
%ADD10C,0.0000*%
%ADD11R,0.0600X0.0600*%
%ADD12OC8,0.0600*%
%ADD13C,0.0600*%
%ADD14R,0.0700X0.0700*%
%ADD15C,0.0700*%
%ADD16C,0.0768*%
%ADD17C,0.0100*%
%ADD18C,0.0356*%
%ADD19C,0.0240*%
%ADD20C,0.0160*%
%ADD21C,0.0118*%
%ADD22C,0.0197*%
%ADD23C,0.0060*%
%ADD24C,0.0413*%
D10*
X001331Y000150D02*
X017079Y000150D01*
X017118Y000152D01*
X017156Y000158D01*
X017193Y000167D01*
X017230Y000180D01*
X017265Y000197D01*
X017298Y000216D01*
X017329Y000239D01*
X017358Y000265D01*
X017384Y000294D01*
X017407Y000325D01*
X017426Y000358D01*
X017443Y000393D01*
X017456Y000430D01*
X017465Y000467D01*
X017471Y000505D01*
X017473Y000544D01*
X017473Y007630D01*
X017475Y007669D01*
X017481Y007707D01*
X017490Y007744D01*
X017503Y007781D01*
X017520Y007816D01*
X017539Y007849D01*
X017562Y007880D01*
X017588Y007909D01*
X017617Y007935D01*
X017648Y007958D01*
X017681Y007977D01*
X017716Y007994D01*
X017753Y008007D01*
X017790Y008016D01*
X017828Y008022D01*
X017867Y008024D01*
X017906Y008022D01*
X017944Y008016D01*
X017981Y008007D01*
X018018Y007994D01*
X018053Y007977D01*
X018086Y007958D01*
X018117Y007935D01*
X018146Y007909D01*
X018172Y007880D01*
X018195Y007849D01*
X018214Y007816D01*
X018231Y007781D01*
X018244Y007744D01*
X018253Y007707D01*
X018259Y007669D01*
X018261Y007630D01*
X018260Y007630D02*
X018260Y000544D01*
X018262Y000505D01*
X018268Y000467D01*
X018277Y000430D01*
X018290Y000393D01*
X018307Y000358D01*
X018326Y000325D01*
X018349Y000294D01*
X018375Y000265D01*
X018404Y000239D01*
X018435Y000216D01*
X018468Y000197D01*
X018503Y000180D01*
X018540Y000167D01*
X018577Y000158D01*
X018615Y000152D01*
X018654Y000150D01*
X024559Y000150D01*
X024625Y000152D01*
X024691Y000157D01*
X024757Y000167D01*
X024822Y000180D01*
X024886Y000196D01*
X024949Y000216D01*
X025011Y000240D01*
X025071Y000267D01*
X025130Y000297D01*
X025187Y000331D01*
X025242Y000368D01*
X025295Y000408D01*
X025346Y000450D01*
X025394Y000496D01*
X025440Y000544D01*
X025482Y000595D01*
X025522Y000648D01*
X025559Y000703D01*
X025593Y000760D01*
X025623Y000819D01*
X025650Y000879D01*
X025674Y000941D01*
X025694Y001004D01*
X025710Y001068D01*
X025723Y001133D01*
X025733Y001199D01*
X025738Y001265D01*
X025740Y001331D01*
X025741Y001331D02*
X025741Y021016D01*
X025740Y021016D02*
X025738Y021082D01*
X025733Y021148D01*
X025723Y021214D01*
X025710Y021279D01*
X025694Y021343D01*
X025674Y021406D01*
X025650Y021468D01*
X025623Y021528D01*
X025593Y021587D01*
X025559Y021644D01*
X025522Y021699D01*
X025482Y021752D01*
X025440Y021803D01*
X025394Y021851D01*
X025346Y021897D01*
X025295Y021939D01*
X025242Y021979D01*
X025187Y022016D01*
X025130Y022050D01*
X025071Y022080D01*
X025011Y022107D01*
X024949Y022131D01*
X024886Y022151D01*
X024822Y022167D01*
X024757Y022180D01*
X024691Y022190D01*
X024625Y022195D01*
X024559Y022197D01*
X001331Y022197D01*
X001265Y022195D01*
X001199Y022190D01*
X001133Y022180D01*
X001068Y022167D01*
X001004Y022151D01*
X000941Y022131D01*
X000879Y022107D01*
X000819Y022080D01*
X000760Y022050D01*
X000703Y022016D01*
X000648Y021979D01*
X000595Y021939D01*
X000544Y021897D01*
X000496Y021851D01*
X000450Y021803D01*
X000408Y021752D01*
X000368Y021699D01*
X000331Y021644D01*
X000297Y021587D01*
X000267Y021528D01*
X000240Y021468D01*
X000216Y021406D01*
X000196Y021343D01*
X000180Y021279D01*
X000167Y021214D01*
X000157Y021148D01*
X000152Y021082D01*
X000150Y021016D01*
X000150Y001331D01*
X000152Y001265D01*
X000157Y001199D01*
X000167Y001133D01*
X000180Y001068D01*
X000196Y001004D01*
X000216Y000941D01*
X000240Y000879D01*
X000267Y000819D01*
X000297Y000760D01*
X000331Y000703D01*
X000368Y000648D01*
X000408Y000595D01*
X000450Y000544D01*
X000496Y000496D01*
X000544Y000450D01*
X000595Y000408D01*
X000648Y000368D01*
X000703Y000331D01*
X000760Y000297D01*
X000819Y000267D01*
X000879Y000240D01*
X000941Y000216D01*
X001004Y000196D01*
X001068Y000180D01*
X001133Y000167D01*
X001199Y000157D01*
X001265Y000152D01*
X001331Y000150D01*
X000977Y001528D02*
X000979Y001575D01*
X000985Y001621D01*
X000995Y001667D01*
X001008Y001712D01*
X001026Y001755D01*
X001047Y001797D01*
X001071Y001837D01*
X001099Y001874D01*
X001130Y001909D01*
X001164Y001942D01*
X001200Y001971D01*
X001239Y001997D01*
X001280Y002020D01*
X001323Y002039D01*
X001367Y002055D01*
X001412Y002067D01*
X001458Y002075D01*
X001505Y002079D01*
X001551Y002079D01*
X001598Y002075D01*
X001644Y002067D01*
X001689Y002055D01*
X001733Y002039D01*
X001776Y002020D01*
X001817Y001997D01*
X001856Y001971D01*
X001892Y001942D01*
X001926Y001909D01*
X001957Y001874D01*
X001985Y001837D01*
X002009Y001797D01*
X002030Y001755D01*
X002048Y001712D01*
X002061Y001667D01*
X002071Y001621D01*
X002077Y001575D01*
X002079Y001528D01*
X002077Y001481D01*
X002071Y001435D01*
X002061Y001389D01*
X002048Y001344D01*
X002030Y001301D01*
X002009Y001259D01*
X001985Y001219D01*
X001957Y001182D01*
X001926Y001147D01*
X001892Y001114D01*
X001856Y001085D01*
X001817Y001059D01*
X001776Y001036D01*
X001733Y001017D01*
X001689Y001001D01*
X001644Y000989D01*
X001598Y000981D01*
X001551Y000977D01*
X001505Y000977D01*
X001458Y000981D01*
X001412Y000989D01*
X001367Y001001D01*
X001323Y001017D01*
X001280Y001036D01*
X001239Y001059D01*
X001200Y001085D01*
X001164Y001114D01*
X001130Y001147D01*
X001099Y001182D01*
X001071Y001219D01*
X001047Y001259D01*
X001026Y001301D01*
X001008Y001344D01*
X000995Y001389D01*
X000985Y001435D01*
X000979Y001481D01*
X000977Y001528D01*
X023812Y001528D02*
X023814Y001575D01*
X023820Y001621D01*
X023830Y001667D01*
X023843Y001712D01*
X023861Y001755D01*
X023882Y001797D01*
X023906Y001837D01*
X023934Y001874D01*
X023965Y001909D01*
X023999Y001942D01*
X024035Y001971D01*
X024074Y001997D01*
X024115Y002020D01*
X024158Y002039D01*
X024202Y002055D01*
X024247Y002067D01*
X024293Y002075D01*
X024340Y002079D01*
X024386Y002079D01*
X024433Y002075D01*
X024479Y002067D01*
X024524Y002055D01*
X024568Y002039D01*
X024611Y002020D01*
X024652Y001997D01*
X024691Y001971D01*
X024727Y001942D01*
X024761Y001909D01*
X024792Y001874D01*
X024820Y001837D01*
X024844Y001797D01*
X024865Y001755D01*
X024883Y001712D01*
X024896Y001667D01*
X024906Y001621D01*
X024912Y001575D01*
X024914Y001528D01*
X024912Y001481D01*
X024906Y001435D01*
X024896Y001389D01*
X024883Y001344D01*
X024865Y001301D01*
X024844Y001259D01*
X024820Y001219D01*
X024792Y001182D01*
X024761Y001147D01*
X024727Y001114D01*
X024691Y001085D01*
X024652Y001059D01*
X024611Y001036D01*
X024568Y001017D01*
X024524Y001001D01*
X024479Y000989D01*
X024433Y000981D01*
X024386Y000977D01*
X024340Y000977D01*
X024293Y000981D01*
X024247Y000989D01*
X024202Y001001D01*
X024158Y001017D01*
X024115Y001036D01*
X024074Y001059D01*
X024035Y001085D01*
X023999Y001114D01*
X023965Y001147D01*
X023934Y001182D01*
X023906Y001219D01*
X023882Y001259D01*
X023861Y001301D01*
X023843Y001344D01*
X023830Y001389D01*
X023820Y001435D01*
X023814Y001481D01*
X023812Y001528D01*
X023812Y020819D02*
X023814Y020866D01*
X023820Y020912D01*
X023830Y020958D01*
X023843Y021003D01*
X023861Y021046D01*
X023882Y021088D01*
X023906Y021128D01*
X023934Y021165D01*
X023965Y021200D01*
X023999Y021233D01*
X024035Y021262D01*
X024074Y021288D01*
X024115Y021311D01*
X024158Y021330D01*
X024202Y021346D01*
X024247Y021358D01*
X024293Y021366D01*
X024340Y021370D01*
X024386Y021370D01*
X024433Y021366D01*
X024479Y021358D01*
X024524Y021346D01*
X024568Y021330D01*
X024611Y021311D01*
X024652Y021288D01*
X024691Y021262D01*
X024727Y021233D01*
X024761Y021200D01*
X024792Y021165D01*
X024820Y021128D01*
X024844Y021088D01*
X024865Y021046D01*
X024883Y021003D01*
X024896Y020958D01*
X024906Y020912D01*
X024912Y020866D01*
X024914Y020819D01*
X024912Y020772D01*
X024906Y020726D01*
X024896Y020680D01*
X024883Y020635D01*
X024865Y020592D01*
X024844Y020550D01*
X024820Y020510D01*
X024792Y020473D01*
X024761Y020438D01*
X024727Y020405D01*
X024691Y020376D01*
X024652Y020350D01*
X024611Y020327D01*
X024568Y020308D01*
X024524Y020292D01*
X024479Y020280D01*
X024433Y020272D01*
X024386Y020268D01*
X024340Y020268D01*
X024293Y020272D01*
X024247Y020280D01*
X024202Y020292D01*
X024158Y020308D01*
X024115Y020327D01*
X024074Y020350D01*
X024035Y020376D01*
X023999Y020405D01*
X023965Y020438D01*
X023934Y020473D01*
X023906Y020510D01*
X023882Y020550D01*
X023861Y020592D01*
X023843Y020635D01*
X023830Y020680D01*
X023820Y020726D01*
X023814Y020772D01*
X023812Y020819D01*
X000977Y020819D02*
X000979Y020866D01*
X000985Y020912D01*
X000995Y020958D01*
X001008Y021003D01*
X001026Y021046D01*
X001047Y021088D01*
X001071Y021128D01*
X001099Y021165D01*
X001130Y021200D01*
X001164Y021233D01*
X001200Y021262D01*
X001239Y021288D01*
X001280Y021311D01*
X001323Y021330D01*
X001367Y021346D01*
X001412Y021358D01*
X001458Y021366D01*
X001505Y021370D01*
X001551Y021370D01*
X001598Y021366D01*
X001644Y021358D01*
X001689Y021346D01*
X001733Y021330D01*
X001776Y021311D01*
X001817Y021288D01*
X001856Y021262D01*
X001892Y021233D01*
X001926Y021200D01*
X001957Y021165D01*
X001985Y021128D01*
X002009Y021088D01*
X002030Y021046D01*
X002048Y021003D01*
X002061Y020958D01*
X002071Y020912D01*
X002077Y020866D01*
X002079Y020819D01*
X002077Y020772D01*
X002071Y020726D01*
X002061Y020680D01*
X002048Y020635D01*
X002030Y020592D01*
X002009Y020550D01*
X001985Y020510D01*
X001957Y020473D01*
X001926Y020438D01*
X001892Y020405D01*
X001856Y020376D01*
X001817Y020350D01*
X001776Y020327D01*
X001733Y020308D01*
X001689Y020292D01*
X001644Y020280D01*
X001598Y020272D01*
X001551Y020268D01*
X001505Y020268D01*
X001458Y020272D01*
X001412Y020280D01*
X001367Y020292D01*
X001323Y020308D01*
X001280Y020327D01*
X001239Y020350D01*
X001200Y020376D01*
X001164Y020405D01*
X001130Y020438D01*
X001099Y020473D01*
X001071Y020510D01*
X001047Y020550D01*
X001026Y020592D01*
X001008Y020635D01*
X000995Y020680D01*
X000985Y020726D01*
X000979Y020772D01*
X000977Y020819D01*
D11*
X003445Y020319D03*
X001213Y018579D03*
X013394Y016837D03*
X024638Y015579D03*
X024678Y010122D03*
D12*
X022445Y020319D03*
X021445Y020319D03*
X020445Y020319D03*
X019445Y020319D03*
X018445Y020319D03*
X017445Y020319D03*
X016445Y020319D03*
X015445Y020319D03*
X014445Y020319D03*
X013445Y020319D03*
X012445Y020319D03*
X011445Y020319D03*
X010445Y020319D03*
X009445Y020319D03*
X008445Y020319D03*
X007445Y020319D03*
X006445Y020319D03*
X005445Y020319D03*
X004445Y020319D03*
X004445Y021319D03*
X003445Y021319D03*
X005445Y021319D03*
X006445Y021319D03*
X007445Y021319D03*
X008445Y021319D03*
X009445Y021319D03*
X010445Y021319D03*
X011445Y021319D03*
X012445Y021319D03*
X013445Y021319D03*
X014445Y021319D03*
X015445Y021319D03*
X016445Y021319D03*
X017445Y021319D03*
X018445Y021319D03*
X019445Y021319D03*
X020445Y021319D03*
X021445Y021319D03*
X022445Y021319D03*
D13*
X024638Y018579D03*
X024638Y017579D03*
X024638Y016579D03*
X024678Y011122D03*
X012394Y016837D03*
X001213Y016579D03*
X001213Y017579D03*
X001213Y015579D03*
D14*
X003693Y013733D03*
D15*
X004693Y013733D03*
X005693Y013733D03*
X006693Y013733D03*
X007693Y013733D03*
X008693Y013733D03*
X009693Y013733D03*
X010693Y013733D03*
X011693Y013733D03*
X012693Y013733D03*
X013693Y013733D03*
X014693Y013733D03*
X015693Y013733D03*
X016693Y013733D03*
X017693Y013733D03*
X018693Y013733D03*
X019693Y013733D03*
X020693Y013733D03*
X010800Y009481D03*
X008241Y009481D03*
D16*
X003481Y009500D03*
X001532Y009737D03*
X003481Y003792D03*
X001532Y003556D03*
D17*
X001582Y003598D02*
X002982Y003598D01*
X002986Y003587D02*
X003024Y003512D01*
X003074Y003444D01*
X003133Y003385D01*
X003201Y003335D01*
X003276Y003297D01*
X003356Y003271D01*
X003431Y003259D01*
X003431Y003742D01*
X002948Y003742D01*
X002960Y003667D01*
X002986Y003587D01*
X003033Y003499D02*
X002063Y003499D01*
X002064Y003506D02*
X001582Y003506D01*
X001582Y003606D01*
X001482Y003606D01*
X001482Y004088D01*
X001407Y004076D01*
X001327Y004050D01*
X001252Y004012D01*
X001184Y003963D01*
X001125Y003903D01*
X001075Y003835D01*
X001037Y003760D01*
X001011Y003681D01*
X000999Y003606D01*
X001482Y003606D01*
X001482Y003506D01*
X000999Y003506D01*
X001011Y003430D01*
X001037Y003351D01*
X001075Y003276D01*
X001125Y003208D01*
X001184Y003148D01*
X001252Y003099D01*
X001327Y003061D01*
X001407Y003035D01*
X001482Y003023D01*
X001482Y003506D01*
X001582Y003506D01*
X001582Y003023D01*
X001657Y003035D01*
X001737Y003061D01*
X001812Y003099D01*
X001880Y003148D01*
X001939Y003208D01*
X001988Y003276D01*
X002027Y003351D01*
X002053Y003430D01*
X002064Y003506D01*
X002064Y003606D02*
X002053Y003681D01*
X002027Y003760D01*
X001988Y003835D01*
X001939Y003903D01*
X001880Y003963D01*
X001812Y004012D01*
X001737Y004050D01*
X001657Y004076D01*
X001582Y004088D01*
X001582Y003606D01*
X002064Y003606D01*
X002048Y003696D02*
X002955Y003696D01*
X002948Y003842D02*
X003431Y003842D01*
X003431Y004324D01*
X003356Y004312D01*
X003276Y004286D01*
X003201Y004248D01*
X003133Y004199D01*
X003074Y004140D01*
X003024Y004072D01*
X002986Y003997D01*
X002960Y003917D01*
X002948Y003842D01*
X002956Y003893D02*
X001947Y003893D01*
X002009Y003795D02*
X003431Y003795D01*
X003431Y003842D02*
X003431Y003742D01*
X003531Y003742D01*
X003531Y003842D01*
X003431Y003842D01*
X003431Y003893D02*
X003531Y003893D01*
X003531Y003842D02*
X003531Y004324D01*
X003606Y004312D01*
X003686Y004286D01*
X003761Y004248D01*
X003828Y004199D01*
X003888Y004140D01*
X003937Y004072D01*
X003975Y003997D01*
X004001Y003917D01*
X004013Y003842D01*
X003531Y003842D01*
X003531Y003795D02*
X013899Y003795D01*
X013899Y003893D02*
X004005Y003893D01*
X003977Y003992D02*
X006171Y003992D01*
X006204Y003958D02*
X006310Y003914D01*
X006425Y003914D01*
X006531Y003958D01*
X006612Y004039D01*
X006643Y004114D01*
X006703Y004114D01*
X006809Y004158D01*
X006890Y004239D01*
X006934Y004345D01*
X006934Y004459D01*
X006890Y004565D01*
X006809Y004646D01*
X006703Y004690D01*
X006629Y004690D01*
X006629Y006185D01*
X006804Y006360D01*
X006809Y006362D01*
X006890Y006443D01*
X006934Y006549D01*
X006934Y006664D01*
X006890Y006770D01*
X006809Y006851D01*
X006703Y006895D01*
X006649Y006895D01*
X006612Y006984D01*
X006531Y007065D01*
X006425Y007109D01*
X006310Y007109D01*
X006204Y007065D01*
X006123Y006984D01*
X006079Y006878D01*
X006079Y006764D01*
X006123Y006658D01*
X006172Y006609D01*
X006172Y006531D01*
X006112Y006471D01*
X006112Y004339D01*
X006079Y004259D01*
X006079Y004145D01*
X006123Y004039D01*
X006204Y003958D01*
X006102Y004090D02*
X003924Y004090D01*
X003839Y004189D02*
X006079Y004189D01*
X006091Y004287D02*
X005426Y004287D01*
X005454Y004299D02*
X005535Y004380D01*
X005579Y004486D01*
X005579Y004600D01*
X005535Y004706D01*
X005469Y004772D01*
X005469Y004817D01*
X005369Y004917D01*
X005369Y005128D01*
X005378Y005105D01*
X005459Y005024D01*
X005565Y004980D01*
X005680Y004980D01*
X005786Y005024D01*
X005867Y005105D01*
X005911Y005211D01*
X005911Y005325D01*
X005867Y005431D01*
X005821Y005477D01*
X005821Y005508D01*
X005761Y005567D01*
X005792Y005644D01*
X005792Y005758D01*
X005749Y005864D01*
X005668Y005945D01*
X005562Y005989D01*
X005447Y005989D01*
X005369Y005957D01*
X005369Y007219D01*
X005392Y007229D01*
X005473Y007310D01*
X005517Y007416D01*
X005517Y007530D01*
X005473Y007636D01*
X013878Y007636D01*
X013848Y007606D02*
X013791Y007469D01*
X013791Y007320D01*
X013848Y007182D01*
X013899Y007131D01*
X013899Y001988D01*
X013848Y001937D01*
X013791Y001799D01*
X013791Y001650D01*
X013848Y001512D01*
X013953Y001407D01*
X014091Y001350D01*
X014240Y001350D01*
X014378Y001407D01*
X014483Y001512D01*
X014541Y001650D01*
X014541Y001799D01*
X014483Y001937D01*
X014432Y001988D01*
X014432Y007131D01*
X014483Y007182D01*
X014541Y007320D01*
X014541Y007469D01*
X014483Y007606D01*
X014378Y007712D01*
X014240Y007769D01*
X014091Y007769D01*
X013953Y007712D01*
X013848Y007606D01*
X013819Y007538D02*
X005514Y007538D01*
X005517Y007439D02*
X013791Y007439D01*
X013791Y007341D02*
X005486Y007341D01*
X005405Y007242D02*
X013823Y007242D01*
X013886Y007144D02*
X005369Y007144D01*
X005369Y007045D02*
X006184Y007045D01*
X006108Y006947D02*
X005369Y006947D01*
X005369Y006848D02*
X006079Y006848D01*
X006085Y006750D02*
X005369Y006750D01*
X005369Y006651D02*
X006130Y006651D01*
X006172Y006553D02*
X005369Y006553D01*
X005369Y006454D02*
X006112Y006454D01*
X006112Y006356D02*
X005369Y006356D01*
X005369Y006257D02*
X006112Y006257D01*
X006112Y006159D02*
X005369Y006159D01*
X005369Y006060D02*
X006112Y006060D01*
X006112Y005962D02*
X005629Y005962D01*
X005749Y005863D02*
X006112Y005863D01*
X006112Y005765D02*
X005790Y005765D01*
X005792Y005666D02*
X006112Y005666D01*
X006112Y005568D02*
X005761Y005568D01*
X005829Y005469D02*
X006112Y005469D01*
X006112Y005371D02*
X005892Y005371D01*
X005911Y005272D02*
X006112Y005272D01*
X006112Y005174D02*
X005895Y005174D01*
X005837Y005075D02*
X006112Y005075D01*
X006112Y004977D02*
X005369Y004977D01*
X005369Y005075D02*
X005408Y005075D01*
X005408Y004878D02*
X006112Y004878D01*
X006112Y004780D02*
X005469Y004780D01*
X005545Y004681D02*
X006112Y004681D01*
X006112Y004583D02*
X005579Y004583D01*
X005578Y004484D02*
X006112Y004484D01*
X006112Y004386D02*
X005538Y004386D01*
X005454Y004299D02*
X005348Y004255D01*
X005234Y004255D01*
X005128Y004299D01*
X005057Y004369D01*
X005010Y004350D01*
X004896Y004350D01*
X004790Y004394D01*
X004709Y004475D01*
X004665Y004581D01*
X004665Y004695D01*
X004709Y004801D01*
X004790Y004882D01*
X004838Y004902D01*
X004853Y004917D01*
X004853Y007215D01*
X004794Y007273D01*
X004794Y007578D01*
X004748Y007625D01*
X004704Y007730D01*
X004704Y007845D01*
X004748Y007951D01*
X004829Y008032D01*
X004935Y008076D01*
X005050Y008076D01*
X005156Y008032D01*
X005237Y007951D01*
X005281Y007845D01*
X005281Y007761D01*
X005286Y007761D01*
X005392Y007717D01*
X005473Y007636D01*
X005350Y007735D02*
X014008Y007735D01*
X014323Y007735D02*
X017305Y007735D01*
X017305Y007742D02*
X017305Y000544D01*
X002498Y000544D01*
X002468Y000506D02*
X002749Y000867D01*
X002898Y001299D01*
X002898Y001757D01*
X002749Y002189D01*
X002468Y002550D01*
X002086Y002800D01*
X001643Y002912D01*
X001187Y002874D01*
X000768Y002690D01*
X000432Y002381D01*
X000318Y002170D01*
X000318Y010622D01*
X004638Y010622D01*
X006922Y008339D01*
X016804Y008339D01*
X017343Y007835D01*
X017305Y007742D01*
X017342Y007833D02*
X005281Y007833D01*
X005245Y007932D02*
X017240Y007932D01*
X017135Y008030D02*
X005158Y008030D01*
X004827Y008030D02*
X000318Y008030D01*
X000318Y007932D02*
X004740Y007932D01*
X004704Y007833D02*
X000318Y007833D01*
X000318Y007735D02*
X004704Y007735D01*
X004744Y007636D02*
X000318Y007636D01*
X000318Y007538D02*
X004794Y007538D01*
X004794Y007439D02*
X000318Y007439D01*
X000318Y007341D02*
X004794Y007341D01*
X004825Y007242D02*
X000318Y007242D01*
X000318Y007144D02*
X004853Y007144D01*
X004853Y007045D02*
X000318Y007045D01*
X000318Y006947D02*
X004853Y006947D01*
X004853Y006848D02*
X000318Y006848D01*
X000318Y006750D02*
X004853Y006750D01*
X004853Y006651D02*
X000318Y006651D01*
X000318Y006553D02*
X004853Y006553D01*
X004853Y006454D02*
X000318Y006454D01*
X000318Y006356D02*
X004853Y006356D01*
X004853Y006257D02*
X000318Y006257D01*
X000318Y006159D02*
X004853Y006159D01*
X004853Y006060D02*
X000318Y006060D01*
X000318Y005962D02*
X004853Y005962D01*
X004853Y005863D02*
X000318Y005863D01*
X000318Y005765D02*
X004853Y005765D01*
X004853Y005666D02*
X000318Y005666D01*
X000318Y005568D02*
X004853Y005568D01*
X004853Y005469D02*
X000318Y005469D01*
X000318Y005371D02*
X004853Y005371D01*
X004853Y005272D02*
X000318Y005272D01*
X000318Y005174D02*
X004853Y005174D01*
X004853Y005075D02*
X000318Y005075D01*
X000318Y004977D02*
X004853Y004977D01*
X004786Y004878D02*
X000318Y004878D01*
X000318Y004780D02*
X004700Y004780D01*
X004665Y004681D02*
X000318Y004681D01*
X000318Y004583D02*
X004665Y004583D01*
X004705Y004484D02*
X000318Y004484D01*
X000318Y004386D02*
X004810Y004386D01*
X005156Y004287D02*
X003684Y004287D01*
X003531Y004287D02*
X003431Y004287D01*
X003431Y004189D02*
X003531Y004189D01*
X003531Y004090D02*
X003431Y004090D01*
X003431Y003992D02*
X003531Y003992D01*
X003531Y003742D02*
X004013Y003742D01*
X004001Y003667D01*
X003975Y003587D01*
X003937Y003512D01*
X003888Y003444D01*
X003828Y003385D01*
X003761Y003335D01*
X003686Y003297D01*
X003606Y003271D01*
X003531Y003259D01*
X003531Y003742D01*
X003531Y003696D02*
X003431Y003696D01*
X003431Y003598D02*
X003531Y003598D01*
X003531Y003499D02*
X003431Y003499D01*
X003431Y003401D02*
X003531Y003401D01*
X003531Y003302D02*
X003431Y003302D01*
X003266Y003302D02*
X002002Y003302D01*
X002043Y003401D02*
X003117Y003401D01*
X003695Y003302D02*
X013899Y003302D01*
X013899Y003204D02*
X001935Y003204D01*
X001820Y003105D02*
X013899Y003105D01*
X013899Y003007D02*
X000318Y003007D01*
X000318Y003105D02*
X001244Y003105D01*
X001129Y003204D02*
X000318Y003204D01*
X000318Y003302D02*
X001062Y003302D01*
X001021Y003401D02*
X000318Y003401D01*
X000318Y003499D02*
X001000Y003499D01*
X001016Y003696D02*
X000318Y003696D01*
X000318Y003598D02*
X001482Y003598D01*
X001482Y003696D02*
X001582Y003696D01*
X001582Y003795D02*
X001482Y003795D01*
X001482Y003893D02*
X001582Y003893D01*
X001582Y003992D02*
X001482Y003992D01*
X001224Y003992D02*
X000318Y003992D01*
X000318Y004090D02*
X003038Y004090D01*
X002984Y003992D02*
X001840Y003992D01*
X001582Y003499D02*
X001482Y003499D01*
X001482Y003401D02*
X001582Y003401D01*
X001582Y003302D02*
X001482Y003302D01*
X001482Y003204D02*
X001582Y003204D01*
X001582Y003105D02*
X001482Y003105D01*
X001597Y002908D02*
X000318Y002908D01*
X000318Y002810D02*
X001040Y002810D01*
X000815Y002711D02*
X000318Y002711D01*
X000318Y002613D02*
X000684Y002613D01*
X000577Y002514D02*
X000318Y002514D01*
X000318Y002416D02*
X000470Y002416D01*
X000398Y002317D02*
X000318Y002317D01*
X000318Y002219D02*
X000344Y002219D01*
X001658Y002908D02*
X013899Y002908D01*
X013899Y002810D02*
X002047Y002810D01*
X002221Y002711D02*
X013899Y002711D01*
X013899Y002613D02*
X002372Y002613D01*
X002496Y002514D02*
X013899Y002514D01*
X013899Y002416D02*
X002573Y002416D01*
X002649Y002317D02*
X013899Y002317D01*
X013899Y002219D02*
X002726Y002219D01*
X002773Y002120D02*
X013899Y002120D01*
X013899Y002022D02*
X002807Y002022D01*
X002840Y001923D02*
X013842Y001923D01*
X013801Y001825D02*
X002874Y001825D01*
X002898Y001726D02*
X013791Y001726D01*
X013800Y001628D02*
X002898Y001628D01*
X002898Y001529D02*
X013841Y001529D01*
X013930Y001431D02*
X002898Y001431D01*
X002898Y001332D02*
X017305Y001332D01*
X017305Y001234D02*
X002875Y001234D01*
X002841Y001135D02*
X017305Y001135D01*
X017305Y001037D02*
X002807Y001037D01*
X002774Y000938D02*
X017305Y000938D01*
X017305Y000840D02*
X002728Y000840D01*
X002651Y000741D02*
X017305Y000741D01*
X017305Y000643D02*
X002574Y000643D01*
X002468Y000506D02*
X002180Y000318D01*
X017079Y000318D01*
X017123Y000322D01*
X017204Y000356D01*
X017267Y000418D01*
X017300Y000500D01*
X017305Y000544D01*
X017278Y000446D02*
X002375Y000446D01*
X002225Y000347D02*
X017182Y000347D01*
X018433Y000500D02*
X018466Y000418D01*
X018529Y000356D01*
X018610Y000322D01*
X018610Y000322D01*
X018654Y000318D01*
X023711Y000318D01*
X023603Y000365D01*
X023267Y000675D01*
X023049Y001077D01*
X022974Y001528D01*
X023049Y001979D01*
X023267Y002381D01*
X023603Y002690D01*
X024022Y002874D01*
X024477Y002912D01*
X024920Y002800D01*
X025303Y002550D01*
X025572Y002203D01*
X025572Y020144D01*
X025303Y019798D01*
X024920Y019548D01*
X024477Y019435D01*
X024022Y019473D01*
X023603Y019657D01*
X023267Y019966D01*
X023049Y020368D01*
X022974Y020819D01*
X023049Y021270D01*
X023267Y021672D01*
X023603Y021982D01*
X023711Y022029D01*
X022096Y022029D01*
X022149Y021976D01*
X022338Y021787D01*
X022639Y021787D01*
X022913Y021513D01*
X022913Y021125D01*
X022639Y020851D01*
X022251Y020851D01*
X021977Y021125D01*
X021977Y021506D01*
X021828Y021655D01*
X021771Y021655D01*
X021913Y021513D01*
X021913Y021125D01*
X021639Y020851D01*
X021251Y020851D01*
X020977Y021125D01*
X020977Y021513D01*
X021119Y021655D01*
X020771Y021655D01*
X020913Y021513D01*
X020913Y021165D01*
X021031Y021046D01*
X021165Y020913D01*
X021165Y020701D01*
X021251Y020787D01*
X021639Y020787D01*
X021913Y020513D01*
X021913Y020125D01*
X021639Y019851D01*
X021251Y019851D01*
X021165Y019938D01*
X021165Y019850D01*
X023393Y019850D01*
X023286Y019949D02*
X022711Y019949D01*
X022632Y019869D02*
X022495Y019869D01*
X022495Y020269D01*
X022395Y020269D01*
X022395Y019869D01*
X022259Y019869D01*
X021995Y020133D01*
X021995Y020269D01*
X022395Y020269D01*
X022395Y020369D01*
X021995Y020369D01*
X021995Y020506D01*
X022259Y020769D01*
X022395Y020769D01*
X022395Y020369D01*
X022495Y020369D01*
X022895Y020369D01*
X022895Y020506D01*
X022632Y020769D01*
X022495Y020769D01*
X022495Y020369D01*
X022495Y020269D01*
X022895Y020269D01*
X022895Y020133D01*
X022632Y019869D01*
X022495Y019949D02*
X022395Y019949D01*
X022395Y020047D02*
X022495Y020047D01*
X022495Y020146D02*
X022395Y020146D01*
X022395Y020244D02*
X022495Y020244D01*
X022495Y020343D02*
X023063Y020343D01*
X023037Y020441D02*
X022895Y020441D01*
X022861Y020540D02*
X023021Y020540D01*
X023004Y020638D02*
X022763Y020638D01*
X022664Y020737D02*
X022988Y020737D01*
X022977Y020835D02*
X021165Y020835D01*
X021165Y020737D02*
X021201Y020737D01*
X021169Y020934D02*
X021144Y020934D01*
X021071Y021032D02*
X021046Y021032D01*
X020977Y021131D02*
X020947Y021131D01*
X020977Y021229D02*
X020913Y021229D01*
X020913Y021328D02*
X020977Y021328D01*
X020977Y021426D02*
X020913Y021426D01*
X020902Y021525D02*
X020989Y021525D01*
X021087Y021623D02*
X020804Y021623D01*
X020119Y021655D02*
X019977Y021513D01*
X019977Y021125D01*
X020251Y020851D01*
X020584Y020851D01*
X020710Y020725D01*
X020710Y020716D01*
X020639Y020787D01*
X020251Y020787D01*
X019977Y020513D01*
X019977Y020125D01*
X020251Y019851D01*
X020478Y019851D01*
X020387Y019814D01*
X020290Y019716D01*
X020237Y019589D01*
X020237Y019451D01*
X020290Y019324D01*
X020356Y019258D01*
X020356Y018678D01*
X020489Y018545D01*
X021549Y017485D01*
X021682Y017352D01*
X024226Y017352D01*
X024241Y017314D01*
X024373Y017182D01*
X024545Y017111D01*
X024731Y017111D01*
X024903Y017182D01*
X025035Y017314D01*
X025106Y017486D01*
X025106Y017672D01*
X025035Y017844D01*
X024903Y017976D01*
X024731Y018047D01*
X024545Y018047D01*
X024373Y017976D01*
X024241Y017844D01*
X024226Y017806D01*
X021870Y017806D01*
X020810Y018866D01*
X020810Y019258D01*
X020877Y019324D01*
X020927Y019446D01*
X021222Y019150D01*
X021355Y019017D01*
X021502Y019017D01*
X021568Y018951D01*
X021695Y018898D01*
X021833Y018898D01*
X021960Y018951D01*
X022058Y019048D01*
X022110Y019176D01*
X022110Y019313D01*
X022058Y019441D01*
X021960Y019538D01*
X021833Y019591D01*
X021695Y019591D01*
X021568Y019538D01*
X021523Y019492D01*
X021165Y019850D01*
X021263Y019752D02*
X023500Y019752D01*
X023612Y019653D02*
X021362Y019653D01*
X021460Y019555D02*
X021608Y019555D01*
X021920Y019555D02*
X023836Y019555D01*
X024229Y019456D02*
X022042Y019456D01*
X022092Y019358D02*
X025572Y019358D01*
X025572Y019456D02*
X024559Y019456D01*
X024931Y019555D02*
X025572Y019555D01*
X025572Y019653D02*
X025082Y019653D01*
X025232Y019752D02*
X025572Y019752D01*
X025572Y019850D02*
X025344Y019850D01*
X025420Y019949D02*
X025572Y019949D01*
X025572Y020047D02*
X025497Y020047D01*
X025572Y019259D02*
X022110Y019259D01*
X022104Y019161D02*
X025572Y019161D01*
X025572Y019062D02*
X022063Y019062D01*
X021973Y018964D02*
X024361Y018964D01*
X024373Y018976D02*
X024241Y018844D01*
X024170Y018672D01*
X024170Y018486D01*
X024241Y018314D01*
X024373Y018182D01*
X024545Y018111D01*
X024731Y018111D01*
X024903Y018182D01*
X025035Y018314D01*
X025106Y018486D01*
X025106Y018672D01*
X025035Y018844D01*
X024903Y018976D01*
X024731Y019047D01*
X024545Y019047D01*
X024373Y018976D01*
X024262Y018865D02*
X020811Y018865D01*
X020810Y018964D02*
X021555Y018964D01*
X021310Y019062D02*
X020810Y019062D01*
X020810Y019161D02*
X021212Y019161D01*
X021113Y019259D02*
X020812Y019259D01*
X020890Y019358D02*
X021015Y019358D01*
X020354Y019259D02*
X020128Y019259D01*
X020142Y019294D02*
X020142Y019431D01*
X020089Y019559D01*
X019992Y019656D01*
X019865Y019709D01*
X019727Y019709D01*
X019600Y019656D01*
X019502Y019559D01*
X019449Y019431D01*
X019449Y019294D01*
X019502Y019166D01*
X019569Y019100D01*
X019569Y018599D01*
X021709Y016458D01*
X024182Y016458D01*
X024241Y016314D01*
X024373Y016182D01*
X024545Y016111D01*
X024731Y016111D01*
X024903Y016182D01*
X025035Y016314D01*
X025106Y016486D01*
X025106Y016672D01*
X025035Y016844D01*
X024903Y016976D01*
X024731Y017047D01*
X024545Y017047D01*
X024373Y016976D01*
X024310Y016913D01*
X021898Y016913D01*
X020023Y018787D01*
X020023Y019100D01*
X020089Y019166D01*
X020142Y019294D01*
X020142Y019358D02*
X020276Y019358D01*
X020237Y019456D02*
X020132Y019456D01*
X020091Y019555D02*
X020237Y019555D01*
X020263Y019653D02*
X019995Y019653D01*
X020325Y019752D02*
X018104Y019752D01*
X018172Y019820D02*
X018172Y019930D01*
X018251Y019851D01*
X018639Y019851D01*
X018913Y020125D01*
X018913Y020513D01*
X018639Y020787D01*
X018251Y020787D01*
X018172Y020708D01*
X018172Y020725D01*
X018298Y020851D01*
X018639Y020851D01*
X018913Y021125D01*
X018913Y021513D01*
X018771Y021655D01*
X019145Y021655D01*
X018995Y021506D01*
X018995Y021369D01*
X019395Y021369D01*
X019395Y021269D01*
X019495Y021269D01*
X019495Y020869D01*
X019632Y020869D01*
X019895Y021133D01*
X019895Y021269D01*
X019495Y021269D01*
X019495Y021369D01*
X019895Y021369D01*
X019895Y021506D01*
X019746Y021655D01*
X020119Y021655D01*
X020087Y021623D02*
X019778Y021623D01*
X019876Y021525D02*
X019989Y021525D01*
X019977Y021426D02*
X019895Y021426D01*
X019977Y021328D02*
X019495Y021328D01*
X019495Y021229D02*
X019395Y021229D01*
X019395Y021269D02*
X019395Y020869D01*
X019259Y020869D01*
X018995Y021133D01*
X018995Y021269D01*
X019395Y021269D01*
X019395Y021328D02*
X018913Y021328D01*
X018913Y021426D02*
X018995Y021426D01*
X019014Y021525D02*
X018902Y021525D01*
X018804Y021623D02*
X019113Y021623D01*
X018995Y021229D02*
X018913Y021229D01*
X018913Y021131D02*
X018998Y021131D01*
X019096Y021032D02*
X018820Y021032D01*
X018722Y020934D02*
X019195Y020934D01*
X019251Y020787D02*
X018977Y020513D01*
X018977Y020125D01*
X019251Y019851D01*
X019639Y019851D01*
X019913Y020125D01*
X019913Y020513D01*
X019639Y020787D01*
X019251Y020787D01*
X019201Y020737D02*
X018690Y020737D01*
X018789Y020638D02*
X019102Y020638D01*
X019004Y020540D02*
X018887Y020540D01*
X018913Y020441D02*
X018977Y020441D01*
X018977Y020343D02*
X018913Y020343D01*
X018913Y020244D02*
X018977Y020244D01*
X018977Y020146D02*
X018913Y020146D01*
X018835Y020047D02*
X019056Y020047D01*
X019154Y019949D02*
X018737Y019949D01*
X018172Y019850D02*
X020475Y019850D01*
X020154Y019949D02*
X019737Y019949D01*
X019835Y020047D02*
X020056Y020047D01*
X019977Y020146D02*
X019913Y020146D01*
X019913Y020244D02*
X019977Y020244D01*
X019977Y020343D02*
X019913Y020343D01*
X019913Y020441D02*
X019977Y020441D01*
X020004Y020540D02*
X019887Y020540D01*
X019789Y020638D02*
X020102Y020638D01*
X020201Y020737D02*
X019690Y020737D01*
X019696Y020934D02*
X020169Y020934D01*
X020071Y021032D02*
X019794Y021032D01*
X019893Y021131D02*
X019977Y021131D01*
X019977Y021229D02*
X019895Y021229D01*
X019495Y021131D02*
X019395Y021131D01*
X019395Y021032D02*
X019495Y021032D01*
X019495Y020934D02*
X019395Y020934D01*
X018282Y020835D02*
X020600Y020835D01*
X020690Y020737D02*
X020699Y020737D01*
X021690Y020737D02*
X022226Y020737D01*
X022128Y020638D02*
X021789Y020638D01*
X021887Y020540D02*
X022029Y020540D01*
X021995Y020441D02*
X021913Y020441D01*
X021913Y020343D02*
X022395Y020343D01*
X022395Y020441D02*
X022495Y020441D01*
X022495Y020540D02*
X022395Y020540D01*
X022395Y020638D02*
X022495Y020638D01*
X022495Y020737D02*
X022395Y020737D01*
X022169Y020934D02*
X021722Y020934D01*
X021820Y021032D02*
X022071Y021032D01*
X021977Y021131D02*
X021913Y021131D01*
X021913Y021229D02*
X021977Y021229D01*
X021977Y021328D02*
X021913Y021328D01*
X021913Y021426D02*
X021977Y021426D01*
X021958Y021525D02*
X021902Y021525D01*
X021860Y021623D02*
X021804Y021623D01*
X022108Y022017D02*
X023684Y022017D01*
X023534Y021919D02*
X022207Y021919D01*
X022305Y021820D02*
X023427Y021820D01*
X023320Y021722D02*
X022705Y021722D01*
X022804Y021623D02*
X023240Y021623D01*
X023187Y021525D02*
X022902Y021525D01*
X022913Y021426D02*
X023134Y021426D01*
X023080Y021328D02*
X022913Y021328D01*
X022913Y021229D02*
X023042Y021229D01*
X023026Y021131D02*
X022913Y021131D01*
X022820Y021032D02*
X023010Y021032D01*
X022993Y020934D02*
X022722Y020934D01*
X022895Y020244D02*
X023117Y020244D01*
X023170Y020146D02*
X022895Y020146D01*
X022809Y020047D02*
X023223Y020047D01*
X022180Y019949D02*
X021737Y019949D01*
X021835Y020047D02*
X022081Y020047D01*
X021995Y020146D02*
X021913Y020146D01*
X021913Y020244D02*
X021995Y020244D01*
X020356Y019161D02*
X020083Y019161D01*
X020023Y019062D02*
X020356Y019062D01*
X020356Y018964D02*
X020023Y018964D01*
X020023Y018865D02*
X020356Y018865D01*
X020356Y018767D02*
X020044Y018767D01*
X020142Y018668D02*
X020366Y018668D01*
X020464Y018570D02*
X020241Y018570D01*
X020339Y018471D02*
X020563Y018471D01*
X020661Y018373D02*
X020438Y018373D01*
X020536Y018274D02*
X020760Y018274D01*
X020858Y018176D02*
X020635Y018176D01*
X020733Y018077D02*
X020957Y018077D01*
X021055Y017979D02*
X020832Y017979D01*
X020930Y017880D02*
X021154Y017880D01*
X021252Y017782D02*
X021029Y017782D01*
X021127Y017683D02*
X021351Y017683D01*
X021449Y017585D02*
X021226Y017585D01*
X021324Y017486D02*
X021548Y017486D01*
X021646Y017388D02*
X021423Y017388D01*
X021521Y017289D02*
X024266Y017289D01*
X024365Y017191D02*
X021620Y017191D01*
X021718Y017092D02*
X025572Y017092D01*
X025572Y016994D02*
X024861Y016994D01*
X024984Y016895D02*
X025572Y016895D01*
X025572Y016797D02*
X025055Y016797D01*
X025096Y016698D02*
X025572Y016698D01*
X025572Y016600D02*
X025106Y016600D01*
X025106Y016501D02*
X025572Y016501D01*
X025572Y016403D02*
X025072Y016403D01*
X025025Y016304D02*
X025572Y016304D01*
X025572Y016206D02*
X024927Y016206D01*
X024958Y016029D02*
X024688Y016029D01*
X024688Y015629D01*
X024588Y015629D01*
X024588Y015529D01*
X024188Y015529D01*
X024188Y015259D01*
X024198Y015221D01*
X024218Y015187D01*
X024246Y015159D01*
X024280Y015139D01*
X024318Y015129D01*
X024588Y015129D01*
X024588Y015529D01*
X024688Y015529D01*
X024688Y015129D01*
X024958Y015129D01*
X024996Y015139D01*
X025030Y015159D01*
X025058Y015187D01*
X025078Y015221D01*
X025088Y015259D01*
X025088Y015529D01*
X024688Y015529D01*
X024688Y015629D01*
X025088Y015629D01*
X025088Y015899D01*
X025078Y015937D01*
X025058Y015971D01*
X025030Y015999D01*
X024996Y016019D01*
X024958Y016029D01*
X025014Y016009D02*
X025572Y016009D01*
X025572Y016107D02*
X014590Y016107D01*
X014590Y016009D02*
X024262Y016009D01*
X024246Y015999D02*
X024218Y015971D01*
X024198Y015937D01*
X024188Y015899D01*
X024188Y015629D01*
X024588Y015629D01*
X024588Y016029D01*
X024318Y016029D01*
X024280Y016019D01*
X024246Y015999D01*
X024191Y015910D02*
X014590Y015910D01*
X014590Y015874D02*
X014590Y018127D01*
X015180Y018717D01*
X015180Y019158D01*
X015269Y019069D01*
X015396Y019016D01*
X015534Y019016D01*
X015661Y019069D01*
X015727Y019135D01*
X017488Y019135D01*
X017621Y019269D01*
X018172Y019820D01*
X018006Y019653D02*
X019596Y019653D01*
X019500Y019555D02*
X017907Y019555D01*
X017809Y019456D02*
X019460Y019456D01*
X019449Y019358D02*
X017710Y019358D01*
X017612Y019259D02*
X019464Y019259D01*
X019508Y019161D02*
X017513Y019161D01*
X017300Y019590D02*
X015727Y019590D01*
X015661Y019656D01*
X015534Y019709D01*
X015396Y019709D01*
X015269Y019656D01*
X015180Y019568D01*
X015180Y019948D01*
X015259Y019869D01*
X015395Y019869D01*
X015395Y020269D01*
X015495Y020269D01*
X015495Y019869D01*
X015632Y019869D01*
X015895Y020133D01*
X015895Y020269D01*
X015495Y020269D01*
X015495Y020369D01*
X015395Y020369D01*
X015395Y020769D01*
X015259Y020769D01*
X015180Y020691D01*
X015180Y020922D01*
X015251Y020851D01*
X015639Y020851D01*
X015913Y021125D01*
X015913Y021513D01*
X015771Y021655D01*
X016119Y021655D01*
X015977Y021513D01*
X015977Y021125D01*
X016251Y020851D01*
X016639Y020851D01*
X016913Y021125D01*
X016913Y021513D01*
X016771Y021655D01*
X017145Y021655D01*
X016995Y021506D01*
X016995Y021369D01*
X017395Y021369D01*
X017395Y021269D01*
X017495Y021269D01*
X017495Y020869D01*
X017632Y020869D01*
X017895Y021133D01*
X017895Y021269D01*
X017495Y021269D01*
X017495Y021369D01*
X017895Y021369D01*
X017895Y021506D01*
X017746Y021655D01*
X018119Y021655D01*
X017977Y021513D01*
X017977Y021172D01*
X017851Y021046D01*
X017718Y020913D01*
X017718Y020708D01*
X017639Y020787D01*
X017251Y020787D01*
X016977Y020513D01*
X016977Y020125D01*
X017251Y019851D01*
X017561Y019851D01*
X017300Y019590D01*
X017363Y019653D02*
X015664Y019653D01*
X015266Y019653D02*
X015180Y019653D01*
X015180Y019752D02*
X017462Y019752D01*
X017560Y019850D02*
X015180Y019850D01*
X015395Y019949D02*
X015495Y019949D01*
X015495Y020047D02*
X015395Y020047D01*
X015395Y020146D02*
X015495Y020146D01*
X015495Y020244D02*
X015395Y020244D01*
X015495Y020343D02*
X015977Y020343D01*
X015895Y020369D02*
X015895Y020506D01*
X015632Y020769D01*
X015495Y020769D01*
X015495Y020369D01*
X015895Y020369D01*
X015895Y020441D02*
X015977Y020441D01*
X015977Y020513D02*
X015977Y020125D01*
X016251Y019851D01*
X016639Y019851D01*
X016913Y020125D01*
X016913Y020513D01*
X016639Y020787D01*
X016251Y020787D01*
X015977Y020513D01*
X016004Y020540D02*
X015861Y020540D01*
X015763Y020638D02*
X016102Y020638D01*
X016201Y020737D02*
X015664Y020737D01*
X015495Y020737D02*
X015395Y020737D01*
X015395Y020638D02*
X015495Y020638D01*
X015495Y020540D02*
X015395Y020540D01*
X015395Y020441D02*
X015495Y020441D01*
X015226Y020737D02*
X015180Y020737D01*
X015180Y020835D02*
X017718Y020835D01*
X017718Y020737D02*
X017690Y020737D01*
X017696Y020934D02*
X017738Y020934D01*
X017794Y021032D02*
X017837Y021032D01*
X017893Y021131D02*
X017935Y021131D01*
X017895Y021229D02*
X017977Y021229D01*
X017977Y021328D02*
X017495Y021328D01*
X017495Y021229D02*
X017395Y021229D01*
X017395Y021269D02*
X017395Y020869D01*
X017259Y020869D01*
X016995Y021133D01*
X016995Y021269D01*
X017395Y021269D01*
X017395Y021328D02*
X016913Y021328D01*
X016913Y021426D02*
X016995Y021426D01*
X017014Y021525D02*
X016902Y021525D01*
X016804Y021623D02*
X017113Y021623D01*
X016995Y021229D02*
X016913Y021229D01*
X016913Y021131D02*
X016998Y021131D01*
X017096Y021032D02*
X016820Y021032D01*
X016722Y020934D02*
X017195Y020934D01*
X017201Y020737D02*
X016690Y020737D01*
X016789Y020638D02*
X017102Y020638D01*
X017004Y020540D02*
X016887Y020540D01*
X016913Y020441D02*
X016977Y020441D01*
X016977Y020343D02*
X016913Y020343D01*
X016913Y020244D02*
X016977Y020244D01*
X016977Y020146D02*
X016913Y020146D01*
X016835Y020047D02*
X017056Y020047D01*
X017154Y019949D02*
X016737Y019949D01*
X016154Y019949D02*
X015711Y019949D01*
X015809Y020047D02*
X016056Y020047D01*
X015977Y020146D02*
X015895Y020146D01*
X015895Y020244D02*
X015977Y020244D01*
X016169Y020934D02*
X015722Y020934D01*
X015820Y021032D02*
X016071Y021032D01*
X015977Y021131D02*
X015913Y021131D01*
X015913Y021229D02*
X015977Y021229D01*
X015977Y021328D02*
X015913Y021328D01*
X015913Y021426D02*
X015977Y021426D01*
X015989Y021525D02*
X015902Y021525D01*
X015804Y021623D02*
X016087Y021623D01*
X015054Y022029D02*
X014859Y021834D01*
X014726Y021701D01*
X014726Y021701D01*
X014639Y021787D01*
X014251Y021787D01*
X013977Y021513D01*
X013977Y021125D01*
X014251Y020851D01*
X014639Y020851D01*
X014726Y020938D01*
X014726Y020701D01*
X014639Y020787D01*
X014251Y020787D01*
X013977Y020513D01*
X013977Y020125D01*
X014251Y019851D01*
X014639Y019851D01*
X014726Y019938D01*
X014726Y018906D01*
X014269Y018448D01*
X014135Y018315D01*
X014135Y015686D01*
X014269Y015553D01*
X015466Y014355D01*
X015466Y014199D01*
X015400Y014172D01*
X015254Y014026D01*
X015193Y013879D01*
X015133Y014026D01*
X014987Y014172D01*
X014796Y014251D01*
X014590Y014251D01*
X014400Y014172D01*
X014254Y014026D01*
X014193Y013879D01*
X014133Y014026D01*
X013987Y014172D01*
X013796Y014251D01*
X013590Y014251D01*
X013400Y014172D01*
X013254Y014026D01*
X013193Y013879D01*
X013133Y014026D01*
X012987Y014172D01*
X012796Y014251D01*
X012590Y014251D01*
X012424Y014182D01*
X012424Y014693D01*
X012188Y014929D01*
X012188Y016416D01*
X012301Y016369D01*
X012487Y016369D01*
X012659Y016440D01*
X012718Y016499D01*
X012718Y015575D01*
X012601Y015575D01*
X012474Y015522D01*
X012376Y015425D01*
X012323Y015298D01*
X012323Y015160D01*
X012376Y015033D01*
X012474Y014935D01*
X012601Y014883D01*
X012739Y014883D01*
X012866Y014935D01*
X012963Y015033D01*
X012971Y015051D01*
X013172Y015253D01*
X013172Y016387D01*
X013344Y016387D01*
X013344Y016787D01*
X013444Y016787D01*
X013444Y016387D01*
X013714Y016387D01*
X013752Y016397D01*
X013786Y016417D01*
X013814Y016445D01*
X013834Y016479D01*
X013844Y016517D01*
X013844Y016787D01*
X013444Y016787D01*
X013444Y016887D01*
X013344Y016887D01*
X013344Y017287D01*
X013172Y017287D01*
X013172Y019930D01*
X013251Y019851D01*
X013639Y019851D01*
X013913Y020125D01*
X013913Y020513D01*
X013639Y020787D01*
X013251Y020787D01*
X013172Y020708D01*
X013172Y020725D01*
X013298Y020851D01*
X013639Y020851D01*
X013913Y021125D01*
X013913Y021513D01*
X013639Y021787D01*
X013251Y021787D01*
X012977Y021513D01*
X012977Y021172D01*
X012851Y021046D01*
X012718Y020913D01*
X012718Y020708D01*
X012639Y020787D01*
X012251Y020787D01*
X012188Y020724D01*
X012188Y020874D01*
X012055Y021007D01*
X011913Y021149D01*
X011913Y021513D01*
X011639Y021787D01*
X011251Y021787D01*
X010977Y021513D01*
X010977Y021125D01*
X011251Y020851D01*
X011569Y020851D01*
X011632Y020787D01*
X011251Y020787D01*
X011165Y020701D01*
X011165Y020874D01*
X011031Y021007D01*
X010913Y021125D01*
X010913Y021125D01*
X010913Y021513D01*
X010639Y021787D01*
X010251Y021787D01*
X009977Y021513D01*
X009977Y021125D01*
X010251Y020851D01*
X010545Y020851D01*
X010609Y020787D01*
X010251Y020787D01*
X009977Y020513D01*
X009977Y020125D01*
X010218Y019884D01*
X010218Y015351D01*
X010394Y015175D01*
X010394Y015081D01*
X010447Y014954D01*
X010544Y014856D01*
X010672Y014804D01*
X010809Y014804D01*
X010937Y014856D01*
X011034Y014954D01*
X011087Y015081D01*
X011087Y015219D01*
X011034Y015346D01*
X010937Y015444D01*
X010809Y015496D01*
X010716Y015496D01*
X010672Y015539D01*
X010672Y019884D01*
X010710Y019922D01*
X010710Y016394D01*
X011380Y015725D01*
X011380Y014743D01*
X011313Y014677D01*
X011260Y014550D01*
X011260Y014412D01*
X011313Y014285D01*
X011411Y014187D01*
X011424Y014182D01*
X011400Y014172D01*
X011254Y014026D01*
X011193Y013879D01*
X011133Y014026D01*
X010987Y014172D01*
X010796Y014251D01*
X010590Y014251D01*
X010400Y014172D01*
X010254Y014026D01*
X010193Y013879D01*
X010133Y014026D01*
X009987Y014172D01*
X009796Y014251D01*
X009590Y014251D01*
X009400Y014172D01*
X009254Y014026D01*
X009193Y013879D01*
X009133Y014026D01*
X008987Y014172D01*
X008796Y014251D01*
X008590Y014251D01*
X008409Y014176D01*
X008409Y014417D01*
X008276Y014550D01*
X008133Y014693D01*
X008133Y019969D01*
X008218Y019884D01*
X008218Y014950D01*
X008599Y014569D01*
X008825Y014569D01*
X008891Y014502D01*
X009018Y014449D01*
X009156Y014449D01*
X009283Y014502D01*
X009381Y014600D01*
X009433Y014727D01*
X009433Y014865D01*
X009381Y014992D01*
X009283Y015089D01*
X009156Y015142D01*
X009018Y015142D01*
X008891Y015089D01*
X008825Y015023D01*
X008787Y015023D01*
X008672Y015138D01*
X008672Y019884D01*
X008913Y020125D01*
X008913Y020513D01*
X008639Y020787D01*
X008251Y020787D01*
X008133Y020669D01*
X008133Y020686D01*
X008298Y020851D01*
X008639Y020851D01*
X008913Y021125D01*
X008913Y021513D01*
X008639Y021787D01*
X008251Y021787D01*
X007977Y021513D01*
X007977Y021172D01*
X007812Y021007D01*
X007679Y020874D01*
X007679Y020722D01*
X007632Y020769D01*
X007495Y020769D01*
X007495Y020369D01*
X007395Y020369D01*
X007395Y020269D01*
X007495Y020269D01*
X007495Y019869D01*
X007632Y019869D01*
X007679Y019916D01*
X007679Y014505D01*
X007954Y014229D01*
X007954Y014161D01*
X007885Y014196D01*
X007810Y014220D01*
X007742Y014231D01*
X007742Y013781D01*
X007645Y013781D01*
X007645Y014231D01*
X007576Y014220D01*
X007501Y014196D01*
X007431Y014160D01*
X007368Y014114D01*
X007312Y014058D01*
X007266Y013995D01*
X007230Y013925D01*
X007206Y013850D01*
X007206Y013850D01*
X007133Y014026D01*
X006987Y014172D01*
X006920Y014199D01*
X006920Y014946D01*
X007094Y015119D01*
X007187Y015119D01*
X007315Y015171D01*
X007412Y015269D01*
X007465Y015396D01*
X007465Y015534D01*
X007412Y015661D01*
X007315Y015758D01*
X007187Y015811D01*
X007050Y015811D01*
X006922Y015758D01*
X006825Y015661D01*
X006772Y015534D01*
X006772Y015440D01*
X006466Y015134D01*
X006466Y014199D01*
X006400Y014172D01*
X006254Y014026D01*
X006193Y013879D01*
X006133Y014026D01*
X005987Y014172D01*
X005796Y014251D01*
X005590Y014251D01*
X005400Y014172D01*
X005254Y014026D01*
X005193Y013879D01*
X005133Y014026D01*
X004987Y014172D01*
X004960Y014183D01*
X004960Y014213D01*
X005104Y014357D01*
X005179Y014432D01*
X005220Y014530D01*
X005220Y019883D01*
X005251Y019851D01*
X005639Y019851D01*
X005913Y020125D01*
X005913Y020513D01*
X005639Y020787D01*
X005251Y020787D01*
X005220Y020756D01*
X005220Y020872D01*
X005194Y020934D01*
X005259Y020869D01*
X005395Y020869D01*
X005395Y021269D01*
X004995Y021269D01*
X004995Y021146D01*
X004913Y021228D01*
X004913Y021513D01*
X004639Y021787D01*
X004251Y021787D01*
X003977Y021513D01*
X003977Y021125D01*
X004251Y020851D01*
X004536Y020851D01*
X004600Y020787D01*
X004251Y020787D01*
X003977Y020513D01*
X003977Y020125D01*
X004251Y019851D01*
X004639Y019851D01*
X004687Y019899D01*
X004687Y014693D01*
X004542Y014549D01*
X004467Y014474D01*
X004427Y014376D01*
X004427Y014183D01*
X004400Y014172D01*
X004254Y014026D01*
X004193Y013879D01*
X004193Y014102D01*
X004183Y014141D01*
X004163Y014175D01*
X004135Y014203D01*
X004101Y014222D01*
X004063Y014233D01*
X003742Y014233D01*
X003742Y013781D01*
X003645Y013781D01*
X003645Y013684D01*
X003742Y013684D01*
X003742Y013233D01*
X004063Y013233D01*
X004101Y013243D01*
X004135Y013263D01*
X004163Y013291D01*
X004183Y013325D01*
X004193Y013363D01*
X004193Y013586D01*
X004254Y013439D01*
X004400Y013293D01*
X004590Y013215D01*
X004796Y013215D01*
X004987Y013293D01*
X005133Y013439D01*
X005193Y013586D01*
X005254Y013439D01*
X005400Y013293D01*
X005590Y013215D01*
X005796Y013215D01*
X005987Y013293D01*
X006133Y013439D01*
X006193Y013586D01*
X006254Y013439D01*
X006400Y013293D01*
X006590Y013215D01*
X006796Y013215D01*
X006987Y013293D01*
X007133Y013439D01*
X007206Y013616D01*
X007206Y013616D01*
X007230Y013541D01*
X007266Y013471D01*
X007312Y013407D01*
X007368Y013351D01*
X007431Y013305D01*
X007501Y013269D01*
X007576Y013245D01*
X007645Y013234D01*
X007645Y013684D01*
X007742Y013684D01*
X007742Y013234D01*
X007810Y013245D01*
X007885Y013269D01*
X007954Y013305D01*
X007954Y012567D01*
X007891Y012504D01*
X007798Y012504D01*
X007670Y012451D01*
X007573Y012354D01*
X007520Y012227D01*
X007520Y012089D01*
X007573Y011962D01*
X007670Y011864D01*
X007798Y011812D01*
X007935Y011812D01*
X008063Y011864D01*
X008160Y011962D01*
X008213Y012089D01*
X008213Y012183D01*
X008409Y012379D01*
X008409Y013290D01*
X008497Y013253D01*
X008742Y013009D01*
X008875Y012876D01*
X012055Y012876D01*
X012291Y013112D01*
X012424Y013245D01*
X012424Y013283D01*
X012590Y013215D01*
X012796Y013215D01*
X012987Y013293D01*
X013133Y013439D01*
X013193Y013586D01*
X013254Y013439D01*
X013400Y013293D01*
X013590Y013215D01*
X013796Y013215D01*
X013987Y013293D01*
X014133Y013439D01*
X014193Y013586D01*
X014254Y013439D01*
X014400Y013293D01*
X014590Y013215D01*
X014796Y013215D01*
X014987Y013293D01*
X015133Y013439D01*
X015193Y013586D01*
X015254Y013439D01*
X015400Y013293D01*
X015590Y013215D01*
X015796Y013215D01*
X015987Y013293D01*
X016133Y013439D01*
X016193Y013586D01*
X016254Y013439D01*
X016400Y013293D01*
X016590Y013215D01*
X016796Y013215D01*
X016987Y013293D01*
X017133Y013439D01*
X017193Y013586D01*
X017254Y013439D01*
X017400Y013293D01*
X017590Y013215D01*
X017796Y013215D01*
X017987Y013293D01*
X018133Y013439D01*
X018193Y013586D01*
X018254Y013439D01*
X018400Y013293D01*
X018590Y013215D01*
X018796Y013215D01*
X018987Y013293D01*
X019133Y013439D01*
X019193Y013586D01*
X019254Y013439D01*
X019400Y013293D01*
X019590Y013215D01*
X019796Y013215D01*
X019987Y013293D01*
X020133Y013439D01*
X020193Y013586D01*
X020254Y013439D01*
X020400Y013293D01*
X020590Y013215D01*
X020796Y013215D01*
X020987Y013293D01*
X021133Y013439D01*
X021211Y013630D01*
X021211Y013836D01*
X021133Y014026D01*
X020987Y014172D01*
X020796Y014251D01*
X020590Y014251D01*
X020400Y014172D01*
X020254Y014026D01*
X020193Y013879D01*
X020133Y014026D01*
X019987Y014172D01*
X019796Y014251D01*
X019590Y014251D01*
X019400Y014172D01*
X019254Y014026D01*
X019193Y013879D01*
X019133Y014026D01*
X018987Y014172D01*
X018796Y014251D01*
X018590Y014251D01*
X018400Y014172D01*
X018254Y014026D01*
X018193Y013879D01*
X018133Y014026D01*
X017987Y014172D01*
X017796Y014251D01*
X017590Y014251D01*
X017400Y014172D01*
X017254Y014026D01*
X017193Y013879D01*
X017133Y014026D01*
X016987Y014172D01*
X016796Y014251D01*
X016590Y014251D01*
X016400Y014172D01*
X016254Y014026D01*
X016193Y013879D01*
X016133Y014026D01*
X015987Y014172D01*
X015920Y014199D01*
X015920Y014543D01*
X015787Y014676D01*
X014590Y015874D01*
X014652Y015812D02*
X024188Y015812D01*
X024188Y015713D02*
X014751Y015713D01*
X014849Y015615D02*
X024588Y015615D01*
X024588Y015713D02*
X024688Y015713D01*
X024688Y015615D02*
X025572Y015615D01*
X025572Y015713D02*
X025088Y015713D01*
X025088Y015812D02*
X025572Y015812D01*
X025572Y015910D02*
X025085Y015910D01*
X024688Y015910D02*
X024588Y015910D01*
X024588Y015812D02*
X024688Y015812D01*
X024688Y016009D02*
X024588Y016009D01*
X024350Y016206D02*
X014590Y016206D01*
X014590Y016304D02*
X024251Y016304D01*
X024205Y016403D02*
X014590Y016403D01*
X014590Y016501D02*
X021667Y016501D01*
X021568Y016600D02*
X014590Y016600D01*
X014590Y016698D02*
X021470Y016698D01*
X021371Y016797D02*
X014590Y016797D01*
X014590Y016895D02*
X021273Y016895D01*
X021174Y016994D02*
X014590Y016994D01*
X014590Y017092D02*
X014805Y017092D01*
X014836Y017061D02*
X014963Y017009D01*
X015101Y017009D01*
X015228Y017061D01*
X015325Y017159D01*
X015336Y017185D01*
X018531Y017185D01*
X018576Y017140D01*
X018703Y017087D01*
X018841Y017087D01*
X018968Y017140D01*
X019066Y017237D01*
X019118Y017365D01*
X019118Y017502D01*
X019066Y017630D01*
X018968Y017727D01*
X018841Y017780D01*
X018703Y017780D01*
X018576Y017727D01*
X018531Y017682D01*
X015148Y017682D01*
X015101Y017701D01*
X014963Y017701D01*
X014836Y017648D01*
X014738Y017551D01*
X014686Y017424D01*
X014686Y017286D01*
X014738Y017159D01*
X014836Y017061D01*
X014725Y017191D02*
X014590Y017191D01*
X014590Y017289D02*
X014686Y017289D01*
X014686Y017388D02*
X014590Y017388D01*
X014590Y017486D02*
X014712Y017486D01*
X014772Y017585D02*
X014590Y017585D01*
X014590Y017683D02*
X014920Y017683D01*
X015144Y017683D02*
X018532Y017683D01*
X019012Y017683D02*
X020485Y017683D01*
X020583Y017585D02*
X019084Y017585D01*
X019118Y017486D02*
X020682Y017486D01*
X020780Y017388D02*
X019118Y017388D01*
X019087Y017289D02*
X020879Y017289D01*
X020977Y017191D02*
X019019Y017191D01*
X018852Y017092D02*
X021076Y017092D01*
X021817Y016994D02*
X024415Y016994D01*
X024912Y017191D02*
X025572Y017191D01*
X025572Y017289D02*
X025010Y017289D01*
X025066Y017388D02*
X025572Y017388D01*
X025572Y017486D02*
X025106Y017486D01*
X025106Y017585D02*
X025572Y017585D01*
X025572Y017683D02*
X025102Y017683D01*
X025061Y017782D02*
X025572Y017782D01*
X025572Y017880D02*
X024999Y017880D01*
X024897Y017979D02*
X025572Y017979D01*
X025572Y018077D02*
X021599Y018077D01*
X021501Y018176D02*
X024389Y018176D01*
X024281Y018274D02*
X021402Y018274D01*
X021304Y018373D02*
X024217Y018373D01*
X024176Y018471D02*
X021205Y018471D01*
X021107Y018570D02*
X024170Y018570D01*
X024170Y018668D02*
X021008Y018668D01*
X020910Y018767D02*
X024209Y018767D01*
X024916Y018964D02*
X025572Y018964D01*
X025572Y018865D02*
X025014Y018865D01*
X025067Y018767D02*
X025572Y018767D01*
X025572Y018668D02*
X025106Y018668D01*
X025106Y018570D02*
X025572Y018570D01*
X025572Y018471D02*
X025100Y018471D01*
X025059Y018373D02*
X025572Y018373D01*
X025572Y018274D02*
X024995Y018274D01*
X024887Y018176D02*
X025572Y018176D01*
X024379Y017979D02*
X021698Y017979D01*
X021796Y017880D02*
X024277Y017880D01*
X024188Y015516D02*
X014948Y015516D01*
X015046Y015418D02*
X024188Y015418D01*
X024188Y015319D02*
X015145Y015319D01*
X015243Y015221D02*
X024199Y015221D01*
X024588Y015221D02*
X024688Y015221D01*
X024688Y015319D02*
X024588Y015319D01*
X024588Y015418D02*
X024688Y015418D01*
X024688Y015516D02*
X024588Y015516D01*
X025088Y015516D02*
X025572Y015516D01*
X025572Y015418D02*
X025088Y015418D01*
X025088Y015319D02*
X025572Y015319D01*
X025572Y015221D02*
X025078Y015221D01*
X025572Y015122D02*
X015342Y015122D01*
X015440Y015024D02*
X025572Y015024D01*
X025572Y014925D02*
X015539Y014925D01*
X015637Y014827D02*
X025572Y014827D01*
X025572Y014728D02*
X015736Y014728D01*
X015834Y014630D02*
X025572Y014630D01*
X025572Y014531D02*
X015920Y014531D01*
X015920Y014433D02*
X025572Y014433D01*
X025572Y014334D02*
X015920Y014334D01*
X015920Y014236D02*
X016553Y014236D01*
X016365Y014137D02*
X016022Y014137D01*
X016120Y014039D02*
X016266Y014039D01*
X016218Y013940D02*
X016168Y013940D01*
X016177Y013546D02*
X016210Y013546D01*
X016251Y013448D02*
X016136Y013448D01*
X016042Y013349D02*
X016344Y013349D01*
X016503Y013251D02*
X015883Y013251D01*
X015503Y013251D02*
X014883Y013251D01*
X015042Y013349D02*
X015344Y013349D01*
X015251Y013448D02*
X015136Y013448D01*
X015177Y013546D02*
X015210Y013546D01*
X015218Y013940D02*
X015168Y013940D01*
X015120Y014039D02*
X015266Y014039D01*
X015365Y014137D02*
X015022Y014137D01*
X014833Y014236D02*
X015466Y014236D01*
X015466Y014334D02*
X012424Y014334D01*
X012424Y014236D02*
X012553Y014236D01*
X012424Y014433D02*
X015389Y014433D01*
X015290Y014531D02*
X012424Y014531D01*
X012424Y014630D02*
X015192Y014630D01*
X015093Y014728D02*
X012389Y014728D01*
X012291Y014827D02*
X014995Y014827D01*
X014896Y014925D02*
X012841Y014925D01*
X012954Y015024D02*
X014798Y015024D01*
X014699Y015122D02*
X013042Y015122D01*
X013140Y015221D02*
X014601Y015221D01*
X014502Y015319D02*
X013172Y015319D01*
X013172Y015418D02*
X014404Y015418D01*
X014305Y015516D02*
X013172Y015516D01*
X013172Y015615D02*
X014207Y015615D01*
X014135Y015713D02*
X013172Y015713D01*
X013172Y015812D02*
X014135Y015812D01*
X014135Y015910D02*
X013172Y015910D01*
X013172Y016009D02*
X014135Y016009D01*
X014135Y016107D02*
X013172Y016107D01*
X013172Y016206D02*
X014135Y016206D01*
X014135Y016304D02*
X013172Y016304D01*
X013344Y016403D02*
X013444Y016403D01*
X013444Y016501D02*
X013344Y016501D01*
X013344Y016600D02*
X013444Y016600D01*
X013444Y016698D02*
X013344Y016698D01*
X013444Y016797D02*
X014135Y016797D01*
X014135Y016895D02*
X013844Y016895D01*
X013844Y016887D02*
X013844Y017157D01*
X013834Y017195D01*
X013814Y017229D01*
X013786Y017257D01*
X013752Y017277D01*
X013714Y017287D01*
X013444Y017287D01*
X013444Y016887D01*
X013844Y016887D01*
X013844Y016994D02*
X014135Y016994D01*
X014135Y017092D02*
X013844Y017092D01*
X013835Y017191D02*
X014135Y017191D01*
X014135Y017289D02*
X013172Y017289D01*
X013172Y017388D02*
X014135Y017388D01*
X014135Y017486D02*
X013172Y017486D01*
X013172Y017585D02*
X014135Y017585D01*
X014135Y017683D02*
X013172Y017683D01*
X013172Y017782D02*
X014135Y017782D01*
X014135Y017880D02*
X013172Y017880D01*
X013172Y017979D02*
X014135Y017979D01*
X014135Y018077D02*
X013172Y018077D01*
X013172Y018176D02*
X014135Y018176D01*
X014135Y018274D02*
X013172Y018274D01*
X013172Y018373D02*
X014193Y018373D01*
X014292Y018471D02*
X013172Y018471D01*
X013172Y018570D02*
X014390Y018570D01*
X014489Y018668D02*
X013172Y018668D01*
X013172Y018767D02*
X014587Y018767D01*
X014686Y018865D02*
X013172Y018865D01*
X013172Y018964D02*
X014726Y018964D01*
X014726Y019062D02*
X013172Y019062D01*
X013172Y019161D02*
X014726Y019161D01*
X014726Y019259D02*
X013172Y019259D01*
X013172Y019358D02*
X014726Y019358D01*
X014726Y019456D02*
X013172Y019456D01*
X013172Y019555D02*
X014726Y019555D01*
X014726Y019653D02*
X013172Y019653D01*
X013172Y019752D02*
X014726Y019752D01*
X014726Y019850D02*
X013172Y019850D01*
X013737Y019949D02*
X014154Y019949D01*
X014056Y020047D02*
X013835Y020047D01*
X013913Y020146D02*
X013977Y020146D01*
X013977Y020244D02*
X013913Y020244D01*
X013913Y020343D02*
X013977Y020343D01*
X013977Y020441D02*
X013913Y020441D01*
X013887Y020540D02*
X014004Y020540D01*
X014102Y020638D02*
X013789Y020638D01*
X013690Y020737D02*
X014201Y020737D01*
X014169Y020934D02*
X013722Y020934D01*
X013820Y021032D02*
X014071Y021032D01*
X013977Y021131D02*
X013913Y021131D01*
X013913Y021229D02*
X013977Y021229D01*
X013977Y021328D02*
X013913Y021328D01*
X013913Y021426D02*
X013977Y021426D01*
X013989Y021525D02*
X013902Y021525D01*
X013804Y021623D02*
X014087Y021623D01*
X014186Y021722D02*
X013705Y021722D01*
X013186Y021722D02*
X012679Y021722D01*
X012632Y021769D02*
X012495Y021769D01*
X012495Y021369D01*
X012895Y021369D01*
X012895Y021506D01*
X012632Y021769D01*
X012495Y021722D02*
X012395Y021722D01*
X012395Y021769D02*
X012259Y021769D01*
X011995Y021506D01*
X011995Y021369D01*
X012395Y021369D01*
X012395Y021269D01*
X012495Y021269D01*
X012495Y020869D01*
X012632Y020869D01*
X012895Y021133D01*
X012895Y021269D01*
X012495Y021269D01*
X012495Y021369D01*
X012395Y021369D01*
X012395Y021769D01*
X012395Y021623D02*
X012495Y021623D01*
X012495Y021525D02*
X012395Y021525D01*
X012395Y021426D02*
X012495Y021426D01*
X012495Y021328D02*
X012977Y021328D01*
X012977Y021426D02*
X012895Y021426D01*
X012876Y021525D02*
X012989Y021525D01*
X013087Y021623D02*
X012778Y021623D01*
X012395Y021328D02*
X011913Y021328D01*
X011913Y021426D02*
X011995Y021426D01*
X012014Y021525D02*
X011902Y021525D01*
X011804Y021623D02*
X012113Y021623D01*
X012211Y021722D02*
X011705Y021722D01*
X011186Y021722D02*
X010705Y021722D01*
X010804Y021623D02*
X011087Y021623D01*
X010989Y021525D02*
X010902Y021525D01*
X010913Y021426D02*
X010977Y021426D01*
X010977Y021328D02*
X010913Y021328D01*
X010913Y021229D02*
X010977Y021229D01*
X010977Y021131D02*
X010913Y021131D01*
X011007Y021032D02*
X011071Y021032D01*
X011105Y020934D02*
X011169Y020934D01*
X011165Y020835D02*
X011585Y020835D01*
X011932Y021131D02*
X011998Y021131D01*
X011995Y021133D02*
X012259Y020869D01*
X012395Y020869D01*
X012395Y021269D01*
X011995Y021269D01*
X011995Y021133D01*
X011995Y021229D02*
X011913Y021229D01*
X012030Y021032D02*
X012096Y021032D01*
X012129Y020934D02*
X012195Y020934D01*
X012188Y020835D02*
X012718Y020835D01*
X012718Y020737D02*
X012690Y020737D01*
X012696Y020934D02*
X012738Y020934D01*
X012794Y021032D02*
X012837Y021032D01*
X012893Y021131D02*
X012935Y021131D01*
X012895Y021229D02*
X012977Y021229D01*
X013282Y020835D02*
X014726Y020835D01*
X014726Y020737D02*
X014690Y020737D01*
X014722Y020934D02*
X014726Y020934D01*
X014705Y021722D02*
X014747Y021722D01*
X014845Y021820D02*
X002485Y021820D01*
X002468Y021841D02*
X002180Y022029D01*
X015054Y022029D01*
X015042Y022017D02*
X002199Y022017D01*
X002350Y021919D02*
X014944Y021919D01*
X013201Y020737D02*
X013184Y020737D01*
X012495Y020934D02*
X012395Y020934D01*
X012395Y021032D02*
X012495Y021032D01*
X012495Y021131D02*
X012395Y021131D01*
X012395Y021229D02*
X012495Y021229D01*
X012201Y020737D02*
X012188Y020737D01*
X011734Y019946D02*
X011734Y016013D01*
X011165Y016583D01*
X011165Y019938D01*
X011251Y019851D01*
X011639Y019851D01*
X011734Y019946D01*
X011734Y019850D02*
X011165Y019850D01*
X011165Y019752D02*
X011734Y019752D01*
X011734Y019653D02*
X011165Y019653D01*
X011165Y019555D02*
X011734Y019555D01*
X011734Y019456D02*
X011165Y019456D01*
X011165Y019358D02*
X011734Y019358D01*
X011734Y019259D02*
X011165Y019259D01*
X011165Y019161D02*
X011734Y019161D01*
X011734Y019062D02*
X011165Y019062D01*
X011165Y018964D02*
X011734Y018964D01*
X011734Y018865D02*
X011165Y018865D01*
X011165Y018767D02*
X011734Y018767D01*
X011734Y018668D02*
X011165Y018668D01*
X011165Y018570D02*
X011734Y018570D01*
X011734Y018471D02*
X011165Y018471D01*
X011165Y018373D02*
X011734Y018373D01*
X011734Y018274D02*
X011165Y018274D01*
X011165Y018176D02*
X011734Y018176D01*
X011734Y018077D02*
X011165Y018077D01*
X011165Y017979D02*
X011734Y017979D01*
X011734Y017880D02*
X011165Y017880D01*
X011165Y017782D02*
X011734Y017782D01*
X011734Y017683D02*
X011165Y017683D01*
X011165Y017585D02*
X011734Y017585D01*
X011734Y017486D02*
X011165Y017486D01*
X011165Y017388D02*
X011734Y017388D01*
X011734Y017289D02*
X011165Y017289D01*
X011165Y017191D02*
X011734Y017191D01*
X011734Y017092D02*
X011165Y017092D01*
X011165Y016994D02*
X011734Y016994D01*
X011734Y016895D02*
X011165Y016895D01*
X011165Y016797D02*
X011734Y016797D01*
X011734Y016698D02*
X011165Y016698D01*
X011165Y016600D02*
X011734Y016600D01*
X011734Y016501D02*
X011246Y016501D01*
X011345Y016403D02*
X011734Y016403D01*
X011734Y016304D02*
X011443Y016304D01*
X011542Y016206D02*
X011734Y016206D01*
X011734Y016107D02*
X011640Y016107D01*
X012188Y016107D02*
X012718Y016107D01*
X012718Y016009D02*
X012188Y016009D01*
X012188Y015910D02*
X012718Y015910D01*
X012718Y015812D02*
X012188Y015812D01*
X012188Y015713D02*
X012718Y015713D01*
X012718Y015615D02*
X012188Y015615D01*
X012188Y015516D02*
X012467Y015516D01*
X012373Y015418D02*
X012188Y015418D01*
X012188Y015319D02*
X012332Y015319D01*
X012323Y015221D02*
X012188Y015221D01*
X012188Y015122D02*
X012339Y015122D01*
X012385Y015024D02*
X012188Y015024D01*
X012192Y014925D02*
X012498Y014925D01*
X012833Y014236D02*
X013553Y014236D01*
X013365Y014137D02*
X013022Y014137D01*
X013120Y014039D02*
X013266Y014039D01*
X013218Y013940D02*
X013168Y013940D01*
X013177Y013546D02*
X013210Y013546D01*
X013251Y013448D02*
X013136Y013448D01*
X013042Y013349D02*
X013344Y013349D01*
X013503Y013251D02*
X012883Y013251D01*
X012503Y013251D02*
X012424Y013251D01*
X012332Y013152D02*
X025572Y013152D01*
X025572Y013054D02*
X012233Y013054D01*
X012135Y012955D02*
X025572Y012955D01*
X025572Y012857D02*
X008409Y012857D01*
X008409Y012955D02*
X008795Y012955D01*
X008697Y013054D02*
X008409Y013054D01*
X008409Y013152D02*
X008598Y013152D01*
X008500Y013251D02*
X008409Y013251D01*
X007954Y013251D02*
X007827Y013251D01*
X007742Y013251D02*
X007645Y013251D01*
X007559Y013251D02*
X006883Y013251D01*
X007042Y013349D02*
X007371Y013349D01*
X007282Y013448D02*
X007136Y013448D01*
X007177Y013546D02*
X007228Y013546D01*
X007645Y013546D02*
X007742Y013546D01*
X007742Y013448D02*
X007645Y013448D01*
X007645Y013349D02*
X007742Y013349D01*
X007954Y013152D02*
X000318Y013152D01*
X000318Y013054D02*
X007954Y013054D01*
X007954Y012955D02*
X000318Y012955D01*
X000318Y012857D02*
X007954Y012857D01*
X007954Y012758D02*
X000318Y012758D01*
X000318Y012660D02*
X007954Y012660D01*
X007948Y012561D02*
X000318Y012561D01*
X000318Y012463D02*
X007697Y012463D01*
X007583Y012364D02*
X000318Y012364D01*
X000318Y012266D02*
X007536Y012266D01*
X007520Y012167D02*
X000318Y012167D01*
X000318Y012069D02*
X007529Y012069D01*
X007570Y011970D02*
X000318Y011970D01*
X000318Y011872D02*
X007663Y011872D01*
X008070Y011872D02*
X025572Y011872D01*
X025572Y011970D02*
X008163Y011970D01*
X008204Y012069D02*
X025572Y012069D01*
X025572Y012167D02*
X008213Y012167D01*
X008295Y012266D02*
X025572Y012266D01*
X025572Y012364D02*
X008394Y012364D01*
X008409Y012463D02*
X025572Y012463D01*
X025572Y012561D02*
X008409Y012561D01*
X008409Y012660D02*
X025572Y012660D01*
X025572Y012758D02*
X008409Y012758D01*
X007742Y013645D02*
X007645Y013645D01*
X007645Y013842D02*
X007742Y013842D01*
X007742Y013940D02*
X007645Y013940D01*
X007645Y014039D02*
X007742Y014039D01*
X007742Y014137D02*
X007645Y014137D01*
X007399Y014137D02*
X007022Y014137D01*
X007120Y014039D02*
X007297Y014039D01*
X007238Y013940D02*
X007168Y013940D01*
X006920Y014236D02*
X007948Y014236D01*
X007849Y014334D02*
X006920Y014334D01*
X006920Y014433D02*
X007751Y014433D01*
X007679Y014531D02*
X006920Y014531D01*
X006920Y014630D02*
X007679Y014630D01*
X007679Y014728D02*
X006920Y014728D01*
X006920Y014827D02*
X007679Y014827D01*
X007679Y014925D02*
X006920Y014925D01*
X006998Y015024D02*
X007679Y015024D01*
X007679Y015122D02*
X007195Y015122D01*
X007364Y015221D02*
X007679Y015221D01*
X007679Y015319D02*
X007433Y015319D01*
X007465Y015418D02*
X007679Y015418D01*
X007679Y015516D02*
X007465Y015516D01*
X007431Y015615D02*
X007679Y015615D01*
X007679Y015713D02*
X007360Y015713D01*
X007679Y015812D02*
X005220Y015812D01*
X005220Y015910D02*
X007679Y015910D01*
X007679Y016009D02*
X005220Y016009D01*
X005220Y016107D02*
X007679Y016107D01*
X007679Y016206D02*
X005220Y016206D01*
X005220Y016304D02*
X007679Y016304D01*
X007679Y016403D02*
X005220Y016403D01*
X005220Y016501D02*
X007679Y016501D01*
X007679Y016600D02*
X006379Y016600D01*
X006321Y016575D02*
X006448Y016628D01*
X006546Y016726D01*
X006599Y016853D01*
X006599Y016991D01*
X006546Y017118D01*
X006480Y017184D01*
X006480Y019021D01*
X006546Y019088D01*
X006599Y019215D01*
X006599Y019353D01*
X006546Y019480D01*
X006448Y019577D01*
X006321Y019630D01*
X006183Y019630D01*
X006056Y019577D01*
X005959Y019480D01*
X005906Y019353D01*
X005906Y019215D01*
X005959Y019088D01*
X006025Y019021D01*
X006025Y017184D01*
X005959Y017118D01*
X005906Y016991D01*
X005906Y016853D01*
X005959Y016726D01*
X006056Y016628D01*
X006183Y016575D01*
X006321Y016575D01*
X006125Y016600D02*
X005220Y016600D01*
X005220Y016698D02*
X005986Y016698D01*
X005929Y016797D02*
X005220Y016797D01*
X005220Y016895D02*
X005906Y016895D01*
X005907Y016994D02*
X005220Y016994D01*
X005220Y017092D02*
X005948Y017092D01*
X006025Y017191D02*
X005220Y017191D01*
X005220Y017289D02*
X006025Y017289D01*
X006025Y017388D02*
X005220Y017388D01*
X005220Y017486D02*
X006025Y017486D01*
X006025Y017585D02*
X005220Y017585D01*
X005220Y017683D02*
X006025Y017683D01*
X006025Y017782D02*
X005220Y017782D01*
X005220Y017880D02*
X006025Y017880D01*
X006025Y017979D02*
X005220Y017979D01*
X005220Y018077D02*
X006025Y018077D01*
X006025Y018176D02*
X005220Y018176D01*
X005220Y018274D02*
X006025Y018274D01*
X006025Y018373D02*
X005220Y018373D01*
X005220Y018471D02*
X006025Y018471D01*
X006025Y018570D02*
X005220Y018570D01*
X005220Y018668D02*
X006025Y018668D01*
X006025Y018767D02*
X005220Y018767D01*
X005220Y018865D02*
X006025Y018865D01*
X006025Y018964D02*
X005220Y018964D01*
X005220Y019062D02*
X005985Y019062D01*
X005929Y019161D02*
X005220Y019161D01*
X005220Y019259D02*
X005906Y019259D01*
X005908Y019358D02*
X005220Y019358D01*
X005220Y019456D02*
X005949Y019456D01*
X006033Y019555D02*
X005220Y019555D01*
X005220Y019653D02*
X007679Y019653D01*
X007679Y019555D02*
X006471Y019555D01*
X006556Y019456D02*
X007679Y019456D01*
X007679Y019358D02*
X006597Y019358D01*
X006599Y019259D02*
X007679Y019259D01*
X007679Y019161D02*
X006576Y019161D01*
X006520Y019062D02*
X007679Y019062D01*
X007679Y018964D02*
X006480Y018964D01*
X006480Y018865D02*
X007679Y018865D01*
X007679Y018767D02*
X006480Y018767D01*
X006480Y018668D02*
X007679Y018668D01*
X007679Y018570D02*
X006480Y018570D01*
X006480Y018471D02*
X007679Y018471D01*
X007679Y018373D02*
X006480Y018373D01*
X006480Y018274D02*
X007679Y018274D01*
X007679Y018176D02*
X006480Y018176D01*
X006480Y018077D02*
X007679Y018077D01*
X007679Y017979D02*
X006480Y017979D01*
X006480Y017880D02*
X007679Y017880D01*
X007679Y017782D02*
X006480Y017782D01*
X006480Y017683D02*
X007679Y017683D01*
X007679Y017585D02*
X006480Y017585D01*
X006480Y017486D02*
X007679Y017486D01*
X007679Y017388D02*
X006480Y017388D01*
X006480Y017289D02*
X007679Y017289D01*
X007679Y017191D02*
X006480Y017191D01*
X006557Y017092D02*
X007679Y017092D01*
X007679Y016994D02*
X006597Y016994D01*
X006599Y016895D02*
X007679Y016895D01*
X007679Y016797D02*
X006575Y016797D01*
X006518Y016698D02*
X007679Y016698D01*
X008133Y016698D02*
X008218Y016698D01*
X008218Y016600D02*
X008133Y016600D01*
X008133Y016501D02*
X008218Y016501D01*
X008218Y016403D02*
X008133Y016403D01*
X008133Y016304D02*
X008218Y016304D01*
X008218Y016206D02*
X008133Y016206D01*
X008133Y016107D02*
X008218Y016107D01*
X008218Y016009D02*
X008133Y016009D01*
X008133Y015910D02*
X008218Y015910D01*
X008218Y015812D02*
X008133Y015812D01*
X008133Y015713D02*
X008218Y015713D01*
X008218Y015615D02*
X008133Y015615D01*
X008133Y015516D02*
X008218Y015516D01*
X008218Y015418D02*
X008133Y015418D01*
X008133Y015319D02*
X008218Y015319D01*
X008218Y015221D02*
X008133Y015221D01*
X008133Y015122D02*
X008218Y015122D01*
X008218Y015024D02*
X008133Y015024D01*
X008133Y014925D02*
X008243Y014925D01*
X008341Y014827D02*
X008133Y014827D01*
X008133Y014728D02*
X008440Y014728D01*
X008538Y014630D02*
X008196Y014630D01*
X008295Y014531D02*
X008862Y014531D01*
X009312Y014531D02*
X011260Y014531D01*
X011260Y014433D02*
X008393Y014433D01*
X008409Y014334D02*
X011293Y014334D01*
X011362Y014236D02*
X010833Y014236D01*
X011022Y014137D02*
X011365Y014137D01*
X011266Y014039D02*
X011120Y014039D01*
X011168Y013940D02*
X011218Y013940D01*
X010553Y014236D02*
X009833Y014236D01*
X010022Y014137D02*
X010365Y014137D01*
X010266Y014039D02*
X010120Y014039D01*
X010168Y013940D02*
X010218Y013940D01*
X009553Y014236D02*
X008833Y014236D01*
X009022Y014137D02*
X009365Y014137D01*
X009266Y014039D02*
X009120Y014039D01*
X009168Y013940D02*
X009218Y013940D01*
X008553Y014236D02*
X008409Y014236D01*
X009393Y014630D02*
X011294Y014630D01*
X011364Y014728D02*
X009433Y014728D01*
X009433Y014827D02*
X010617Y014827D01*
X010476Y014925D02*
X009408Y014925D01*
X009349Y015024D02*
X010418Y015024D01*
X010394Y015122D02*
X009204Y015122D01*
X008970Y015122D02*
X008688Y015122D01*
X008672Y015221D02*
X010349Y015221D01*
X010250Y015319D02*
X008672Y015319D01*
X008672Y015418D02*
X010218Y015418D01*
X010218Y015516D02*
X008672Y015516D01*
X008672Y015615D02*
X010218Y015615D01*
X010218Y015713D02*
X008672Y015713D01*
X008672Y015812D02*
X010218Y015812D01*
X010218Y015910D02*
X008672Y015910D01*
X008672Y016009D02*
X010218Y016009D01*
X010218Y016107D02*
X008672Y016107D01*
X008672Y016206D02*
X010218Y016206D01*
X010218Y016304D02*
X008672Y016304D01*
X008672Y016403D02*
X010218Y016403D01*
X010218Y016501D02*
X008672Y016501D01*
X008672Y016600D02*
X010218Y016600D01*
X010218Y016698D02*
X008672Y016698D01*
X008672Y016797D02*
X010218Y016797D01*
X010218Y016895D02*
X008672Y016895D01*
X008672Y016994D02*
X010218Y016994D01*
X010218Y017092D02*
X008672Y017092D01*
X008672Y017191D02*
X008844Y017191D01*
X008803Y017231D02*
X008884Y017150D01*
X008990Y017106D01*
X009105Y017106D01*
X009211Y017150D01*
X009292Y017231D01*
X009336Y017337D01*
X009336Y017357D01*
X009672Y017694D01*
X009672Y019884D01*
X009913Y020125D01*
X009913Y020513D01*
X009639Y020787D01*
X009251Y020787D01*
X008977Y020513D01*
X008977Y020125D01*
X009218Y019884D01*
X009218Y017882D01*
X009018Y017682D01*
X008990Y017682D01*
X008884Y017638D01*
X008803Y017557D01*
X008760Y017451D01*
X008760Y017337D01*
X008803Y017231D01*
X008779Y017289D02*
X008672Y017289D01*
X008672Y017388D02*
X008760Y017388D01*
X008774Y017486D02*
X008672Y017486D01*
X008672Y017585D02*
X008831Y017585D01*
X008672Y017683D02*
X009019Y017683D01*
X009118Y017782D02*
X008672Y017782D01*
X008672Y017880D02*
X009216Y017880D01*
X009218Y017979D02*
X008672Y017979D01*
X008672Y018077D02*
X009218Y018077D01*
X009218Y018176D02*
X008672Y018176D01*
X008672Y018274D02*
X009218Y018274D01*
X009218Y018373D02*
X008672Y018373D01*
X008672Y018471D02*
X009218Y018471D01*
X009218Y018570D02*
X008672Y018570D01*
X008672Y018668D02*
X009218Y018668D01*
X009218Y018767D02*
X008672Y018767D01*
X008672Y018865D02*
X009218Y018865D01*
X009218Y018964D02*
X008672Y018964D01*
X008672Y019062D02*
X009218Y019062D01*
X009218Y019161D02*
X008672Y019161D01*
X008672Y019259D02*
X009218Y019259D01*
X009218Y019358D02*
X008672Y019358D01*
X008672Y019456D02*
X009218Y019456D01*
X009218Y019555D02*
X008672Y019555D01*
X008672Y019653D02*
X009218Y019653D01*
X009218Y019752D02*
X008672Y019752D01*
X008672Y019850D02*
X009218Y019850D01*
X009154Y019949D02*
X008737Y019949D01*
X008835Y020047D02*
X009056Y020047D01*
X008977Y020146D02*
X008913Y020146D01*
X008913Y020244D02*
X008977Y020244D01*
X008977Y020343D02*
X008913Y020343D01*
X008913Y020441D02*
X008977Y020441D01*
X009004Y020540D02*
X008887Y020540D01*
X008789Y020638D02*
X009102Y020638D01*
X009201Y020737D02*
X008690Y020737D01*
X008722Y020934D02*
X009195Y020934D01*
X009259Y020869D02*
X009395Y020869D01*
X009395Y021269D01*
X009495Y021269D01*
X009495Y020869D01*
X009632Y020869D01*
X009895Y021133D01*
X009895Y021269D01*
X009495Y021269D01*
X009495Y021369D01*
X009895Y021369D01*
X009895Y021506D01*
X009632Y021769D01*
X009495Y021769D01*
X009495Y021369D01*
X009395Y021369D01*
X009395Y021269D01*
X008995Y021269D01*
X008995Y021133D01*
X009259Y020869D01*
X009395Y020934D02*
X009495Y020934D01*
X009495Y021032D02*
X009395Y021032D01*
X009395Y021131D02*
X009495Y021131D01*
X009495Y021229D02*
X009395Y021229D01*
X009395Y021328D02*
X008913Y021328D01*
X008995Y021369D02*
X009395Y021369D01*
X009395Y021769D01*
X009259Y021769D01*
X008995Y021506D01*
X008995Y021369D01*
X008995Y021426D02*
X008913Y021426D01*
X008902Y021525D02*
X009014Y021525D01*
X009113Y021623D02*
X008804Y021623D01*
X008705Y021722D02*
X009211Y021722D01*
X009395Y021722D02*
X009495Y021722D01*
X009495Y021623D02*
X009395Y021623D01*
X009395Y021525D02*
X009495Y021525D01*
X009495Y021426D02*
X009395Y021426D01*
X009495Y021328D02*
X009977Y021328D01*
X009977Y021426D02*
X009895Y021426D01*
X009876Y021525D02*
X009989Y021525D01*
X010087Y021623D02*
X009778Y021623D01*
X009679Y021722D02*
X010186Y021722D01*
X009977Y021229D02*
X009895Y021229D01*
X009893Y021131D02*
X009977Y021131D01*
X010071Y021032D02*
X009794Y021032D01*
X009696Y020934D02*
X010169Y020934D01*
X010201Y020737D02*
X009690Y020737D01*
X009789Y020638D02*
X010102Y020638D01*
X010004Y020540D02*
X009887Y020540D01*
X009913Y020441D02*
X009977Y020441D01*
X009977Y020343D02*
X009913Y020343D01*
X009913Y020244D02*
X009977Y020244D01*
X009977Y020146D02*
X009913Y020146D01*
X009835Y020047D02*
X010056Y020047D01*
X010154Y019949D02*
X009737Y019949D01*
X009672Y019850D02*
X010218Y019850D01*
X010218Y019752D02*
X009672Y019752D01*
X009672Y019653D02*
X010218Y019653D01*
X010218Y019555D02*
X009672Y019555D01*
X009672Y019456D02*
X010218Y019456D01*
X010218Y019358D02*
X009672Y019358D01*
X009672Y019259D02*
X010218Y019259D01*
X010218Y019161D02*
X009672Y019161D01*
X009672Y019062D02*
X010218Y019062D01*
X010218Y018964D02*
X009672Y018964D01*
X009672Y018865D02*
X010218Y018865D01*
X010218Y018767D02*
X009672Y018767D01*
X009672Y018668D02*
X010218Y018668D01*
X010218Y018570D02*
X009672Y018570D01*
X009672Y018471D02*
X010218Y018471D01*
X010218Y018373D02*
X009672Y018373D01*
X009672Y018274D02*
X010218Y018274D01*
X010218Y018176D02*
X009672Y018176D01*
X009672Y018077D02*
X010218Y018077D01*
X010218Y017979D02*
X009672Y017979D01*
X009672Y017880D02*
X010218Y017880D01*
X010218Y017782D02*
X009672Y017782D01*
X009662Y017683D02*
X010218Y017683D01*
X010218Y017585D02*
X009563Y017585D01*
X009465Y017486D02*
X010218Y017486D01*
X010218Y017388D02*
X009366Y017388D01*
X009316Y017289D02*
X010218Y017289D01*
X010218Y017191D02*
X009252Y017191D01*
X008218Y017191D02*
X008133Y017191D01*
X008133Y017289D02*
X008218Y017289D01*
X008218Y017388D02*
X008133Y017388D01*
X008133Y017486D02*
X008218Y017486D01*
X008218Y017585D02*
X008133Y017585D01*
X008133Y017683D02*
X008218Y017683D01*
X008218Y017782D02*
X008133Y017782D01*
X008133Y017880D02*
X008218Y017880D01*
X008218Y017979D02*
X008133Y017979D01*
X008133Y018077D02*
X008218Y018077D01*
X008218Y018176D02*
X008133Y018176D01*
X008133Y018274D02*
X008218Y018274D01*
X008218Y018373D02*
X008133Y018373D01*
X008133Y018471D02*
X008218Y018471D01*
X008218Y018570D02*
X008133Y018570D01*
X008133Y018668D02*
X008218Y018668D01*
X008218Y018767D02*
X008133Y018767D01*
X008133Y018865D02*
X008218Y018865D01*
X008218Y018964D02*
X008133Y018964D01*
X008133Y019062D02*
X008218Y019062D01*
X008218Y019161D02*
X008133Y019161D01*
X008133Y019259D02*
X008218Y019259D01*
X008218Y019358D02*
X008133Y019358D01*
X008133Y019456D02*
X008218Y019456D01*
X008218Y019555D02*
X008133Y019555D01*
X008133Y019653D02*
X008218Y019653D01*
X008218Y019752D02*
X008133Y019752D01*
X008133Y019850D02*
X008218Y019850D01*
X008154Y019949D02*
X008133Y019949D01*
X007679Y019850D02*
X005220Y019850D01*
X005220Y019752D02*
X007679Y019752D01*
X007495Y019949D02*
X007395Y019949D01*
X007395Y019869D02*
X007395Y020269D01*
X006995Y020269D01*
X006995Y020133D01*
X007259Y019869D01*
X007395Y019869D01*
X007395Y020047D02*
X007495Y020047D01*
X007495Y020146D02*
X007395Y020146D01*
X007395Y020244D02*
X007495Y020244D01*
X007395Y020343D02*
X006913Y020343D01*
X006995Y020369D02*
X007395Y020369D01*
X007395Y020769D01*
X007259Y020769D01*
X006995Y020506D01*
X006995Y020369D01*
X006995Y020441D02*
X006913Y020441D01*
X006913Y020513D02*
X006639Y020787D01*
X006251Y020787D01*
X005977Y020513D01*
X005977Y020125D01*
X006251Y019851D01*
X006639Y019851D01*
X006913Y020125D01*
X006913Y020513D01*
X006887Y020540D02*
X007029Y020540D01*
X007128Y020638D02*
X006789Y020638D01*
X006690Y020737D02*
X007226Y020737D01*
X007251Y020851D02*
X007639Y020851D01*
X007913Y021125D01*
X007913Y021513D01*
X007639Y021787D01*
X007251Y021787D01*
X006977Y021513D01*
X006977Y021125D01*
X007251Y020851D01*
X007169Y020934D02*
X006722Y020934D01*
X006639Y020851D02*
X006913Y021125D01*
X006913Y021513D01*
X006639Y021787D01*
X006251Y021787D01*
X005977Y021513D01*
X005977Y021125D01*
X006251Y020851D01*
X006639Y020851D01*
X006820Y021032D02*
X007071Y021032D01*
X006977Y021131D02*
X006913Y021131D01*
X006913Y021229D02*
X006977Y021229D01*
X006977Y021328D02*
X006913Y021328D01*
X006913Y021426D02*
X006977Y021426D01*
X006989Y021525D02*
X006902Y021525D01*
X006804Y021623D02*
X007087Y021623D01*
X007186Y021722D02*
X006705Y021722D01*
X006186Y021722D02*
X005679Y021722D01*
X005632Y021769D02*
X005495Y021769D01*
X005495Y021369D01*
X005395Y021369D01*
X005395Y021269D01*
X005495Y021269D01*
X005495Y020869D01*
X005632Y020869D01*
X005895Y021133D01*
X005895Y021269D01*
X005495Y021269D01*
X005495Y021369D01*
X005895Y021369D01*
X005895Y021506D01*
X005632Y021769D01*
X005495Y021722D02*
X005395Y021722D01*
X005395Y021769D02*
X005259Y021769D01*
X004995Y021506D01*
X004995Y021369D01*
X005395Y021369D01*
X005395Y021769D01*
X005395Y021623D02*
X005495Y021623D01*
X005495Y021525D02*
X005395Y021525D01*
X005395Y021426D02*
X005495Y021426D01*
X005495Y021328D02*
X005977Y021328D01*
X005977Y021426D02*
X005895Y021426D01*
X005876Y021525D02*
X005989Y021525D01*
X006087Y021623D02*
X005778Y021623D01*
X005395Y021328D02*
X004913Y021328D01*
X004913Y021426D02*
X004995Y021426D01*
X005014Y021525D02*
X004902Y021525D01*
X004804Y021623D02*
X005113Y021623D01*
X005211Y021722D02*
X004705Y021722D01*
X004186Y021722D02*
X003705Y021722D01*
X003639Y021787D02*
X003251Y021787D01*
X002977Y021513D01*
X002977Y021125D01*
X003251Y020851D01*
X003639Y020851D01*
X003913Y021125D01*
X003913Y021513D01*
X003639Y021787D01*
X003804Y021623D02*
X004087Y021623D01*
X003989Y021525D02*
X003902Y021525D01*
X003913Y021426D02*
X003977Y021426D01*
X003977Y021328D02*
X003913Y021328D01*
X003913Y021229D02*
X003977Y021229D01*
X003977Y021131D02*
X003913Y021131D01*
X003820Y021032D02*
X004071Y021032D01*
X004169Y020934D02*
X003722Y020934D01*
X003815Y020787D02*
X003076Y020787D01*
X002977Y020689D01*
X002977Y019950D01*
X003076Y019851D01*
X003815Y019851D01*
X003913Y019950D01*
X003913Y020689D01*
X003815Y020787D01*
X003866Y020737D02*
X004201Y020737D01*
X004102Y020638D02*
X003913Y020638D01*
X003913Y020540D02*
X004004Y020540D01*
X003977Y020441D02*
X003913Y020441D01*
X003913Y020343D02*
X003977Y020343D01*
X003977Y020244D02*
X003913Y020244D01*
X003913Y020146D02*
X003977Y020146D01*
X003913Y020047D02*
X004056Y020047D01*
X004154Y019949D02*
X003912Y019949D01*
X004687Y019850D02*
X002509Y019850D01*
X002468Y019798D02*
X002749Y020158D01*
X002898Y020591D01*
X002898Y021048D01*
X002749Y021480D01*
X002468Y021841D01*
X002561Y021722D02*
X003186Y021722D01*
X003087Y021623D02*
X002638Y021623D01*
X002715Y021525D02*
X002989Y021525D01*
X002977Y021426D02*
X002768Y021426D01*
X002802Y021328D02*
X002977Y021328D01*
X002977Y021229D02*
X002835Y021229D01*
X002869Y021131D02*
X002977Y021131D01*
X002898Y021032D02*
X003071Y021032D01*
X003169Y020934D02*
X002898Y020934D01*
X002898Y020835D02*
X004553Y020835D01*
X004913Y021229D02*
X004995Y021229D01*
X005194Y020934D02*
X005195Y020934D01*
X005220Y020835D02*
X007679Y020835D01*
X007679Y020737D02*
X007664Y020737D01*
X007495Y020737D02*
X007395Y020737D01*
X007395Y020638D02*
X007495Y020638D01*
X007495Y020540D02*
X007395Y020540D01*
X007395Y020441D02*
X007495Y020441D01*
X006995Y020244D02*
X006913Y020244D01*
X006913Y020146D02*
X006995Y020146D01*
X007081Y020047D02*
X006835Y020047D01*
X006737Y019949D02*
X007180Y019949D01*
X006154Y019949D02*
X005737Y019949D01*
X005835Y020047D02*
X006056Y020047D01*
X005977Y020146D02*
X005913Y020146D01*
X005913Y020244D02*
X005977Y020244D01*
X005977Y020343D02*
X005913Y020343D01*
X005913Y020441D02*
X005977Y020441D01*
X006004Y020540D02*
X005887Y020540D01*
X005789Y020638D02*
X006102Y020638D01*
X006201Y020737D02*
X005690Y020737D01*
X005696Y020934D02*
X006169Y020934D01*
X006071Y021032D02*
X005794Y021032D01*
X005893Y021131D02*
X005977Y021131D01*
X005977Y021229D02*
X005895Y021229D01*
X005495Y021229D02*
X005395Y021229D01*
X005395Y021131D02*
X005495Y021131D01*
X005495Y021032D02*
X005395Y021032D01*
X005395Y020934D02*
X005495Y020934D01*
X004687Y019752D02*
X002398Y019752D01*
X002468Y019798D02*
X002086Y019548D01*
X001643Y019435D01*
X001187Y019473D01*
X000768Y019657D01*
X000432Y019966D01*
X000318Y020177D01*
X000318Y010859D01*
X004796Y010859D01*
X007040Y008615D01*
X016922Y008615D01*
X017489Y008047D01*
X017548Y008107D01*
X017548Y008107D01*
X017755Y008192D01*
X017978Y008192D01*
X018185Y008107D01*
X018185Y008107D01*
X018343Y007949D01*
X018343Y007949D01*
X018428Y007742D01*
X018428Y000544D01*
X023409Y000544D01*
X023302Y000643D02*
X018428Y000643D01*
X018428Y000741D02*
X023231Y000741D01*
X023178Y000840D02*
X018428Y000840D01*
X018428Y000938D02*
X023125Y000938D01*
X023071Y001037D02*
X018428Y001037D01*
X018428Y001135D02*
X023040Y001135D01*
X023023Y001234D02*
X018428Y001234D01*
X018428Y001332D02*
X023007Y001332D01*
X022990Y001431D02*
X018428Y001431D01*
X018428Y001529D02*
X022974Y001529D01*
X022991Y001628D02*
X018428Y001628D01*
X018428Y001726D02*
X023007Y001726D01*
X023024Y001825D02*
X018428Y001825D01*
X018428Y001923D02*
X023040Y001923D01*
X023072Y002022D02*
X018428Y002022D01*
X018428Y002120D02*
X023126Y002120D01*
X023179Y002219D02*
X018428Y002219D01*
X018428Y002317D02*
X023232Y002317D01*
X023304Y002416D02*
X018428Y002416D01*
X018428Y002514D02*
X023411Y002514D01*
X023518Y002613D02*
X018428Y002613D01*
X018428Y002711D02*
X023650Y002711D01*
X023875Y002810D02*
X018428Y002810D01*
X018428Y002908D02*
X024432Y002908D01*
X024492Y002908D02*
X025572Y002908D01*
X025572Y002810D02*
X024881Y002810D01*
X025056Y002711D02*
X025572Y002711D01*
X025572Y002613D02*
X025207Y002613D01*
X025331Y002514D02*
X025572Y002514D01*
X025572Y002416D02*
X025407Y002416D01*
X025484Y002317D02*
X025572Y002317D01*
X025561Y002219D02*
X025572Y002219D01*
X025572Y003007D02*
X018428Y003007D01*
X018428Y003105D02*
X025572Y003105D01*
X025572Y003204D02*
X018428Y003204D01*
X018428Y003302D02*
X025572Y003302D01*
X025572Y003401D02*
X018428Y003401D01*
X018428Y003499D02*
X025572Y003499D01*
X025572Y003598D02*
X018428Y003598D01*
X018428Y003696D02*
X025572Y003696D01*
X025572Y003795D02*
X018428Y003795D01*
X018428Y003893D02*
X025572Y003893D01*
X025572Y003992D02*
X018428Y003992D01*
X018428Y004090D02*
X025572Y004090D01*
X025572Y004189D02*
X018428Y004189D01*
X018428Y004287D02*
X025572Y004287D01*
X025572Y004386D02*
X018428Y004386D01*
X018428Y004484D02*
X025572Y004484D01*
X025572Y004583D02*
X018428Y004583D01*
X018428Y004681D02*
X025572Y004681D01*
X025572Y004780D02*
X018428Y004780D01*
X018428Y004878D02*
X025572Y004878D01*
X025572Y004977D02*
X018428Y004977D01*
X018428Y005075D02*
X025572Y005075D01*
X025572Y005174D02*
X018428Y005174D01*
X018428Y005272D02*
X025572Y005272D01*
X025572Y005371D02*
X018428Y005371D01*
X018428Y005469D02*
X025572Y005469D01*
X025572Y005568D02*
X018428Y005568D01*
X018428Y005666D02*
X025572Y005666D01*
X025572Y005765D02*
X018428Y005765D01*
X018428Y005863D02*
X025572Y005863D01*
X025572Y005962D02*
X018428Y005962D01*
X018428Y006060D02*
X025572Y006060D01*
X025572Y006159D02*
X018428Y006159D01*
X018428Y006257D02*
X025572Y006257D01*
X025572Y006356D02*
X018428Y006356D01*
X018428Y006454D02*
X025572Y006454D01*
X025572Y006553D02*
X018428Y006553D01*
X018428Y006651D02*
X025572Y006651D01*
X025572Y006750D02*
X018428Y006750D01*
X018428Y006848D02*
X025572Y006848D01*
X025572Y006947D02*
X018428Y006947D01*
X018428Y007045D02*
X025572Y007045D01*
X025572Y007144D02*
X018428Y007144D01*
X018428Y007242D02*
X025572Y007242D01*
X025572Y007341D02*
X018428Y007341D01*
X018428Y007439D02*
X025572Y007439D01*
X025572Y007538D02*
X018428Y007538D01*
X018428Y007636D02*
X025572Y007636D01*
X025572Y007735D02*
X018428Y007735D01*
X018391Y007833D02*
X025572Y007833D01*
X025572Y007932D02*
X018350Y007932D01*
X018261Y008030D02*
X025572Y008030D01*
X025572Y008129D02*
X018132Y008129D01*
X017601Y008129D02*
X017408Y008129D01*
X017309Y008227D02*
X025572Y008227D01*
X025572Y008326D02*
X017211Y008326D01*
X017112Y008424D02*
X025572Y008424D01*
X025572Y008523D02*
X017014Y008523D01*
X016818Y008326D02*
X000318Y008326D01*
X000318Y008424D02*
X006837Y008424D01*
X006738Y008523D02*
X000318Y008523D01*
X000318Y008621D02*
X006640Y008621D01*
X006541Y008720D02*
X000318Y008720D01*
X000318Y008818D02*
X006443Y008818D01*
X006344Y008917D02*
X000318Y008917D01*
X000318Y009015D02*
X003257Y009015D01*
X003276Y009006D02*
X003356Y008980D01*
X003431Y008968D01*
X003431Y009450D01*
X003531Y009450D01*
X003531Y009550D01*
X004013Y009550D01*
X004001Y009625D01*
X003975Y009705D01*
X003937Y009780D01*
X003888Y009848D01*
X003828Y009908D01*
X003761Y009957D01*
X003686Y009995D01*
X003606Y010021D01*
X003531Y010033D01*
X003531Y009550D01*
X003431Y009550D01*
X003431Y009450D01*
X002948Y009450D01*
X002960Y009375D01*
X002986Y009295D01*
X003024Y009221D01*
X003074Y009153D01*
X003133Y009093D01*
X003201Y009044D01*
X003276Y009006D01*
X003431Y009015D02*
X003531Y009015D01*
X003531Y008968D02*
X003606Y008980D01*
X003686Y009006D01*
X003761Y009044D01*
X003828Y009093D01*
X003888Y009153D01*
X003937Y009221D01*
X003975Y009295D01*
X004001Y009375D01*
X004013Y009450D01*
X003531Y009450D01*
X003531Y008968D01*
X003531Y009114D02*
X003431Y009114D01*
X003431Y009212D02*
X003531Y009212D01*
X003531Y009311D02*
X003431Y009311D01*
X003431Y009409D02*
X003531Y009409D01*
X003531Y009508D02*
X005753Y009508D01*
X005655Y009606D02*
X004004Y009606D01*
X003976Y009705D02*
X005556Y009705D01*
X005458Y009803D02*
X003921Y009803D01*
X003835Y009902D02*
X005359Y009902D01*
X005261Y010000D02*
X003671Y010000D01*
X003531Y010000D02*
X003431Y010000D01*
X003431Y010033D02*
X003356Y010021D01*
X003276Y009995D01*
X003201Y009957D01*
X003133Y009908D01*
X003074Y009848D01*
X003024Y009780D01*
X002986Y009705D01*
X002960Y009625D01*
X002948Y009550D01*
X003431Y009550D01*
X003431Y010033D01*
X003431Y009902D02*
X003531Y009902D01*
X003531Y009803D02*
X003431Y009803D01*
X003431Y009705D02*
X003531Y009705D01*
X003531Y009606D02*
X003431Y009606D01*
X003431Y009508D02*
X002014Y009508D01*
X002027Y009532D02*
X002053Y009612D01*
X002064Y009687D01*
X001582Y009687D01*
X001582Y009787D01*
X001482Y009787D01*
X001482Y010269D01*
X001407Y010257D01*
X001327Y010231D01*
X001252Y010193D01*
X001184Y010144D01*
X001125Y010084D01*
X001075Y010016D01*
X001037Y009942D01*
X001011Y009862D01*
X000999Y009787D01*
X001482Y009787D01*
X001482Y009687D01*
X000999Y009687D01*
X001011Y009612D01*
X001037Y009532D01*
X001075Y009457D01*
X001125Y009389D01*
X001184Y009329D01*
X001252Y009280D01*
X001327Y009242D01*
X001407Y009216D01*
X001482Y009204D01*
X001482Y009687D01*
X001582Y009687D01*
X001582Y009204D01*
X001657Y009216D01*
X001737Y009242D01*
X001812Y009280D01*
X001880Y009329D01*
X001939Y009389D01*
X001988Y009457D01*
X002027Y009532D01*
X002051Y009606D02*
X002957Y009606D01*
X002986Y009705D02*
X001582Y009705D01*
X001582Y009787D02*
X002064Y009787D01*
X002053Y009862D01*
X002027Y009942D01*
X001988Y010016D01*
X001939Y010084D01*
X001880Y010144D01*
X001812Y010193D01*
X001737Y010231D01*
X001657Y010257D01*
X001582Y010269D01*
X001582Y009787D01*
X001582Y009803D02*
X001482Y009803D01*
X001482Y009705D02*
X000318Y009705D01*
X000318Y009803D02*
X001002Y009803D01*
X001024Y009902D02*
X000318Y009902D01*
X000318Y010000D02*
X001067Y010000D01*
X001139Y010099D02*
X000318Y010099D01*
X000318Y010197D02*
X001260Y010197D01*
X001482Y010197D02*
X001582Y010197D01*
X001582Y010099D02*
X001482Y010099D01*
X001482Y010000D02*
X001582Y010000D01*
X001582Y009902D02*
X001482Y009902D01*
X001804Y010197D02*
X005064Y010197D01*
X005162Y010099D02*
X001925Y010099D01*
X001997Y010000D02*
X003291Y010000D01*
X003127Y009902D02*
X002040Y009902D01*
X002062Y009803D02*
X003041Y009803D01*
X002955Y009409D02*
X001954Y009409D01*
X001854Y009311D02*
X002981Y009311D01*
X003030Y009212D02*
X001632Y009212D01*
X001582Y009212D02*
X001482Y009212D01*
X001431Y009212D02*
X000318Y009212D01*
X000318Y009114D02*
X003113Y009114D01*
X003704Y009015D02*
X006246Y009015D01*
X006147Y009114D02*
X003849Y009114D01*
X003931Y009212D02*
X006049Y009212D01*
X005950Y009311D02*
X003980Y009311D01*
X004007Y009409D02*
X005852Y009409D01*
X006048Y009606D02*
X007732Y009606D01*
X007722Y009584D02*
X007722Y009378D01*
X007801Y009187D01*
X007947Y009041D01*
X008137Y008963D01*
X008344Y008963D01*
X008534Y009041D01*
X008680Y009187D01*
X008759Y009378D01*
X008759Y009584D01*
X008680Y009774D01*
X008534Y009920D01*
X008344Y009999D01*
X008137Y009999D01*
X007947Y009920D01*
X007801Y009774D01*
X007722Y009584D01*
X007722Y009508D02*
X006147Y009508D01*
X006245Y009409D02*
X007722Y009409D01*
X007750Y009311D02*
X006344Y009311D01*
X006442Y009212D02*
X007791Y009212D01*
X007875Y009114D02*
X006541Y009114D01*
X006639Y009015D02*
X008011Y009015D01*
X008470Y009015D02*
X010570Y009015D01*
X010506Y009041D02*
X010697Y008963D01*
X010903Y008963D01*
X011093Y009041D01*
X011239Y009187D01*
X011318Y009378D01*
X011318Y009584D01*
X011239Y009774D01*
X011093Y009920D01*
X010903Y009999D01*
X010697Y009999D01*
X010506Y009920D01*
X010360Y009774D01*
X010281Y009584D01*
X010281Y009378D01*
X010360Y009187D01*
X010506Y009041D01*
X010434Y009114D02*
X008606Y009114D01*
X008690Y009212D02*
X010350Y009212D01*
X010309Y009311D02*
X008731Y009311D01*
X008759Y009409D02*
X010281Y009409D01*
X010281Y009508D02*
X008759Y009508D01*
X008749Y009606D02*
X010291Y009606D01*
X010332Y009705D02*
X008709Y009705D01*
X008651Y009803D02*
X010389Y009803D01*
X010488Y009902D02*
X008552Y009902D01*
X007929Y009902D02*
X005753Y009902D01*
X005654Y010000D02*
X024209Y010000D01*
X024209Y009902D02*
X011112Y009902D01*
X011210Y009803D02*
X024209Y009803D01*
X024209Y009753D02*
X024308Y009654D01*
X025047Y009654D01*
X025146Y009753D01*
X025146Y010492D01*
X025047Y010591D01*
X024308Y010591D01*
X024209Y010492D01*
X024209Y009753D01*
X024258Y009705D02*
X011268Y009705D01*
X011308Y009606D02*
X025572Y009606D01*
X025572Y009508D02*
X011318Y009508D01*
X011318Y009409D02*
X025572Y009409D01*
X025572Y009311D02*
X011290Y009311D01*
X011249Y009212D02*
X025572Y009212D01*
X025572Y009114D02*
X011165Y009114D01*
X011029Y009015D02*
X025572Y009015D01*
X025572Y008917D02*
X006738Y008917D01*
X006836Y008818D02*
X025572Y008818D01*
X025572Y008720D02*
X006935Y008720D01*
X007033Y008621D02*
X025572Y008621D01*
X025572Y009705D02*
X025097Y009705D01*
X025146Y009803D02*
X025572Y009803D01*
X025572Y009902D02*
X025146Y009902D01*
X025146Y010000D02*
X025572Y010000D01*
X025572Y010099D02*
X025146Y010099D01*
X025146Y010197D02*
X025572Y010197D01*
X025572Y010296D02*
X025146Y010296D01*
X025146Y010394D02*
X025572Y010394D01*
X025572Y010493D02*
X025145Y010493D01*
X024913Y010738D02*
X024850Y010705D01*
X024783Y010684D01*
X024728Y010675D01*
X024728Y011072D01*
X024728Y011172D01*
X025125Y011172D01*
X025116Y011228D01*
X025095Y011295D01*
X025062Y011358D01*
X025021Y011416D01*
X024971Y011466D01*
X024913Y011507D01*
X024850Y011539D01*
X024783Y011561D01*
X024728Y011570D01*
X024728Y011172D01*
X024628Y011172D01*
X024628Y011072D01*
X024728Y011072D01*
X025125Y011072D01*
X025116Y011017D01*
X025095Y010950D01*
X025062Y010887D01*
X025021Y010829D01*
X024971Y010779D01*
X024913Y010738D01*
X024980Y010788D02*
X025572Y010788D01*
X025572Y010690D02*
X024801Y010690D01*
X024728Y010690D02*
X024628Y010690D01*
X024628Y010675D02*
X024628Y011072D01*
X024230Y011072D01*
X024239Y011017D01*
X024261Y010950D01*
X024293Y010887D01*
X024334Y010829D01*
X024384Y010779D01*
X024442Y010738D01*
X024505Y010705D01*
X024572Y010684D01*
X024628Y010675D01*
X024554Y010690D02*
X004965Y010690D01*
X004866Y010788D02*
X024376Y010788D01*
X024293Y010887D02*
X000318Y010887D01*
X000318Y010985D02*
X024249Y010985D01*
X024230Y011172D02*
X024628Y011172D01*
X024628Y011570D01*
X024572Y011561D01*
X024505Y011539D01*
X024442Y011507D01*
X024384Y011466D01*
X024334Y011416D01*
X024293Y011358D01*
X024261Y011295D01*
X024239Y011228D01*
X024230Y011172D01*
X024231Y011182D02*
X000318Y011182D01*
X000318Y011084D02*
X024628Y011084D01*
X024628Y011182D02*
X024728Y011182D01*
X024728Y011084D02*
X025572Y011084D01*
X025572Y011182D02*
X025124Y011182D01*
X025099Y011281D02*
X025572Y011281D01*
X025572Y011379D02*
X025047Y011379D01*
X024954Y011478D02*
X025572Y011478D01*
X025572Y011576D02*
X000318Y011576D01*
X000318Y011478D02*
X024401Y011478D01*
X024308Y011379D02*
X000318Y011379D01*
X000318Y011281D02*
X024256Y011281D01*
X024628Y011281D02*
X024728Y011281D01*
X024728Y011379D02*
X024628Y011379D01*
X024628Y011478D02*
X024728Y011478D01*
X024728Y010985D02*
X024628Y010985D01*
X024628Y010887D02*
X024728Y010887D01*
X024728Y010788D02*
X024628Y010788D01*
X025062Y010887D02*
X025572Y010887D01*
X025572Y010985D02*
X025106Y010985D01*
X025572Y010591D02*
X005063Y010591D01*
X005162Y010493D02*
X024210Y010493D01*
X024209Y010394D02*
X005260Y010394D01*
X005359Y010296D02*
X024209Y010296D01*
X024209Y010197D02*
X005457Y010197D01*
X005556Y010099D02*
X024209Y010099D01*
X025572Y011675D02*
X000318Y011675D01*
X000318Y011773D02*
X025572Y011773D01*
X025572Y013251D02*
X020883Y013251D01*
X021042Y013349D02*
X025572Y013349D01*
X025572Y013448D02*
X021136Y013448D01*
X021177Y013546D02*
X025572Y013546D01*
X025572Y013645D02*
X021211Y013645D01*
X021211Y013743D02*
X025572Y013743D01*
X025572Y013842D02*
X021209Y013842D01*
X021168Y013940D02*
X025572Y013940D01*
X025572Y014039D02*
X021120Y014039D01*
X021022Y014137D02*
X025572Y014137D01*
X025572Y014236D02*
X020833Y014236D01*
X020553Y014236D02*
X019833Y014236D01*
X020022Y014137D02*
X020365Y014137D01*
X020266Y014039D02*
X020120Y014039D01*
X020168Y013940D02*
X020218Y013940D01*
X020210Y013546D02*
X020177Y013546D01*
X020136Y013448D02*
X020251Y013448D01*
X020344Y013349D02*
X020042Y013349D01*
X019883Y013251D02*
X020503Y013251D01*
X019503Y013251D02*
X018883Y013251D01*
X019042Y013349D02*
X019344Y013349D01*
X019251Y013448D02*
X019136Y013448D01*
X019177Y013546D02*
X019210Y013546D01*
X019218Y013940D02*
X019168Y013940D01*
X019120Y014039D02*
X019266Y014039D01*
X019365Y014137D02*
X019022Y014137D01*
X018833Y014236D02*
X019553Y014236D01*
X018553Y014236D02*
X017833Y014236D01*
X018022Y014137D02*
X018365Y014137D01*
X018266Y014039D02*
X018120Y014039D01*
X018168Y013940D02*
X018218Y013940D01*
X018210Y013546D02*
X018177Y013546D01*
X018136Y013448D02*
X018251Y013448D01*
X018344Y013349D02*
X018042Y013349D01*
X017883Y013251D02*
X018503Y013251D01*
X017503Y013251D02*
X016883Y013251D01*
X017042Y013349D02*
X017344Y013349D01*
X017251Y013448D02*
X017136Y013448D01*
X017177Y013546D02*
X017210Y013546D01*
X017218Y013940D02*
X017168Y013940D01*
X017120Y014039D02*
X017266Y014039D01*
X017365Y014137D02*
X017022Y014137D01*
X016833Y014236D02*
X017553Y014236D01*
X014553Y014236D02*
X013833Y014236D01*
X014022Y014137D02*
X014365Y014137D01*
X014266Y014039D02*
X014120Y014039D01*
X014168Y013940D02*
X014218Y013940D01*
X014210Y013546D02*
X014177Y013546D01*
X014136Y013448D02*
X014251Y013448D01*
X014344Y013349D02*
X014042Y013349D01*
X013883Y013251D02*
X014503Y013251D01*
X011380Y014827D02*
X010864Y014827D01*
X011005Y014925D02*
X011380Y014925D01*
X011380Y015024D02*
X011063Y015024D01*
X011087Y015122D02*
X011380Y015122D01*
X011380Y015221D02*
X011086Y015221D01*
X011045Y015319D02*
X011380Y015319D01*
X011380Y015418D02*
X010963Y015418D01*
X010696Y015516D02*
X011380Y015516D01*
X011380Y015615D02*
X010672Y015615D01*
X010672Y015713D02*
X011380Y015713D01*
X011293Y015812D02*
X010672Y015812D01*
X010672Y015910D02*
X011195Y015910D01*
X011096Y016009D02*
X010672Y016009D01*
X010672Y016107D02*
X010998Y016107D01*
X010899Y016206D02*
X010672Y016206D01*
X010672Y016304D02*
X010801Y016304D01*
X010710Y016403D02*
X010672Y016403D01*
X010672Y016501D02*
X010710Y016501D01*
X010710Y016600D02*
X010672Y016600D01*
X010672Y016698D02*
X010710Y016698D01*
X010710Y016797D02*
X010672Y016797D01*
X010672Y016895D02*
X010710Y016895D01*
X010710Y016994D02*
X010672Y016994D01*
X010672Y017092D02*
X010710Y017092D01*
X010710Y017191D02*
X010672Y017191D01*
X010672Y017289D02*
X010710Y017289D01*
X010710Y017388D02*
X010672Y017388D01*
X010672Y017486D02*
X010710Y017486D01*
X010710Y017585D02*
X010672Y017585D01*
X010672Y017683D02*
X010710Y017683D01*
X010710Y017782D02*
X010672Y017782D01*
X010672Y017880D02*
X010710Y017880D01*
X010710Y017979D02*
X010672Y017979D01*
X010672Y018077D02*
X010710Y018077D01*
X010710Y018176D02*
X010672Y018176D01*
X010672Y018274D02*
X010710Y018274D01*
X010710Y018373D02*
X010672Y018373D01*
X010672Y018471D02*
X010710Y018471D01*
X010710Y018570D02*
X010672Y018570D01*
X010672Y018668D02*
X010710Y018668D01*
X010710Y018767D02*
X010672Y018767D01*
X010672Y018865D02*
X010710Y018865D01*
X010710Y018964D02*
X010672Y018964D01*
X010672Y019062D02*
X010710Y019062D01*
X010710Y019161D02*
X010672Y019161D01*
X010672Y019259D02*
X010710Y019259D01*
X010710Y019358D02*
X010672Y019358D01*
X010672Y019456D02*
X010710Y019456D01*
X010710Y019555D02*
X010672Y019555D01*
X010672Y019653D02*
X010710Y019653D01*
X010710Y019752D02*
X010672Y019752D01*
X010672Y019850D02*
X010710Y019850D01*
X011165Y020737D02*
X011201Y020737D01*
X010561Y020835D02*
X008282Y020835D01*
X008201Y020737D02*
X008184Y020737D01*
X007738Y020934D02*
X007722Y020934D01*
X007820Y021032D02*
X007837Y021032D01*
X007913Y021131D02*
X007935Y021131D01*
X007913Y021229D02*
X007977Y021229D01*
X007977Y021328D02*
X007913Y021328D01*
X007913Y021426D02*
X007977Y021426D01*
X007989Y021525D02*
X007902Y021525D01*
X007804Y021623D02*
X008087Y021623D01*
X008186Y021722D02*
X007705Y021722D01*
X008913Y021229D02*
X008995Y021229D01*
X008998Y021131D02*
X008913Y021131D01*
X008820Y021032D02*
X009096Y021032D01*
X004687Y019653D02*
X002247Y019653D01*
X002096Y019555D02*
X004687Y019555D01*
X004687Y019456D02*
X001724Y019456D01*
X001394Y019456D02*
X000318Y019456D01*
X000318Y019358D02*
X004687Y019358D01*
X004687Y019259D02*
X000318Y019259D01*
X000318Y019161D02*
X004687Y019161D01*
X004687Y019062D02*
X000318Y019062D01*
X000318Y018964D02*
X000789Y018964D01*
X000793Y018971D02*
X000773Y018937D01*
X000763Y018899D01*
X000763Y018629D01*
X001163Y018629D01*
X001163Y018529D01*
X001263Y018529D01*
X001263Y018129D01*
X001533Y018129D01*
X001571Y018139D01*
X001605Y018159D01*
X001633Y018187D01*
X001653Y018221D01*
X001663Y018259D01*
X001663Y018529D01*
X001263Y018529D01*
X001263Y018629D01*
X001663Y018629D01*
X001663Y018899D01*
X001653Y018937D01*
X001633Y018971D01*
X001605Y018999D01*
X001571Y019019D01*
X001533Y019029D01*
X001263Y019029D01*
X001263Y018629D01*
X001163Y018629D01*
X001163Y019029D01*
X000893Y019029D01*
X000855Y019019D01*
X000821Y018999D01*
X000793Y018971D01*
X000763Y018865D02*
X000318Y018865D01*
X000318Y018767D02*
X000763Y018767D01*
X000763Y018668D02*
X000318Y018668D01*
X000318Y018570D02*
X001163Y018570D01*
X001163Y018529D02*
X000763Y018529D01*
X000763Y018259D01*
X000773Y018221D01*
X000793Y018187D01*
X000821Y018159D01*
X000855Y018139D01*
X000893Y018129D01*
X001163Y018129D01*
X001163Y018529D01*
X001163Y018471D02*
X001263Y018471D01*
X001263Y018373D02*
X001163Y018373D01*
X001163Y018274D02*
X001263Y018274D01*
X001263Y018176D02*
X001163Y018176D01*
X001120Y018047D02*
X000948Y017976D01*
X000816Y017844D01*
X000745Y017672D01*
X000745Y017486D01*
X000816Y017314D01*
X000948Y017182D01*
X001120Y017111D01*
X001306Y017111D01*
X001478Y017182D01*
X001610Y017314D01*
X001681Y017486D01*
X001681Y017672D01*
X001610Y017844D01*
X001478Y017976D01*
X001306Y018047D01*
X001120Y018047D01*
X000954Y017979D02*
X000318Y017979D01*
X000318Y018077D02*
X004687Y018077D01*
X004687Y017979D02*
X001472Y017979D01*
X001574Y017880D02*
X004687Y017880D01*
X004687Y017782D02*
X001636Y017782D01*
X001677Y017683D02*
X004687Y017683D01*
X004687Y017585D02*
X001681Y017585D01*
X001681Y017486D02*
X004687Y017486D01*
X004687Y017388D02*
X001640Y017388D01*
X001585Y017289D02*
X004687Y017289D01*
X004687Y017191D02*
X001486Y017191D01*
X001436Y016994D02*
X004687Y016994D01*
X004687Y017092D02*
X000318Y017092D01*
X000318Y016994D02*
X000990Y016994D01*
X000948Y016976D02*
X001120Y017047D01*
X001306Y017047D01*
X001478Y016976D01*
X001610Y016844D01*
X001681Y016672D01*
X001681Y016486D01*
X001610Y016314D01*
X001478Y016182D01*
X001306Y016111D01*
X001120Y016111D01*
X000948Y016182D01*
X000816Y016314D01*
X000745Y016486D01*
X000745Y016672D01*
X000816Y016844D01*
X000948Y016976D01*
X000867Y016895D02*
X000318Y016895D01*
X000318Y016797D02*
X000796Y016797D01*
X000756Y016698D02*
X000318Y016698D01*
X000318Y016600D02*
X000745Y016600D01*
X000745Y016501D02*
X000318Y016501D01*
X000318Y016403D02*
X000779Y016403D01*
X000826Y016304D02*
X000318Y016304D01*
X000318Y016206D02*
X000925Y016206D01*
X001026Y016009D02*
X000318Y016009D01*
X000318Y016107D02*
X004687Y016107D01*
X004687Y016009D02*
X001400Y016009D01*
X001478Y015976D02*
X001306Y016047D01*
X001120Y016047D01*
X000948Y015976D01*
X000816Y015844D01*
X000745Y015672D01*
X000745Y015486D01*
X000816Y015314D01*
X000948Y015182D01*
X001120Y015111D01*
X001306Y015111D01*
X001478Y015182D01*
X001610Y015314D01*
X001681Y015486D01*
X001681Y015672D01*
X001610Y015844D01*
X001478Y015976D01*
X001544Y015910D02*
X004687Y015910D01*
X004687Y015812D02*
X001623Y015812D01*
X001664Y015713D02*
X004687Y015713D01*
X004687Y015615D02*
X001681Y015615D01*
X001681Y015516D02*
X004687Y015516D01*
X004687Y015418D02*
X001653Y015418D01*
X001612Y015319D02*
X004687Y015319D01*
X004687Y015221D02*
X001516Y015221D01*
X001333Y015122D02*
X004687Y015122D01*
X004687Y015024D02*
X000318Y015024D01*
X000318Y015122D02*
X001093Y015122D01*
X000910Y015221D02*
X000318Y015221D01*
X000318Y015319D02*
X000814Y015319D01*
X000773Y015418D02*
X000318Y015418D01*
X000318Y015516D02*
X000745Y015516D01*
X000745Y015615D02*
X000318Y015615D01*
X000318Y015713D02*
X000762Y015713D01*
X000803Y015812D02*
X000318Y015812D01*
X000318Y015910D02*
X000882Y015910D01*
X001501Y016206D02*
X004687Y016206D01*
X004687Y016304D02*
X001600Y016304D01*
X001647Y016403D02*
X004687Y016403D01*
X004687Y016501D02*
X001681Y016501D01*
X001681Y016600D02*
X004687Y016600D01*
X004687Y016698D02*
X001670Y016698D01*
X001630Y016797D02*
X004687Y016797D01*
X004687Y016895D02*
X001559Y016895D01*
X000940Y017191D02*
X000318Y017191D01*
X000318Y017289D02*
X000841Y017289D01*
X000786Y017388D02*
X000318Y017388D01*
X000318Y017486D02*
X000745Y017486D01*
X000745Y017585D02*
X000318Y017585D01*
X000318Y017683D02*
X000749Y017683D01*
X000790Y017782D02*
X000318Y017782D01*
X000318Y017880D02*
X000852Y017880D01*
X000804Y018176D02*
X000318Y018176D01*
X000318Y018274D02*
X000763Y018274D01*
X000763Y018373D02*
X000318Y018373D01*
X000318Y018471D02*
X000763Y018471D01*
X001163Y018668D02*
X001263Y018668D01*
X001263Y018570D02*
X004687Y018570D01*
X004687Y018668D02*
X001663Y018668D01*
X001663Y018767D02*
X004687Y018767D01*
X004687Y018865D02*
X001663Y018865D01*
X001637Y018964D02*
X004687Y018964D01*
X004687Y018471D02*
X001663Y018471D01*
X001663Y018373D02*
X004687Y018373D01*
X004687Y018274D02*
X001663Y018274D01*
X001622Y018176D02*
X004687Y018176D01*
X002978Y019949D02*
X002586Y019949D01*
X002663Y020047D02*
X002977Y020047D01*
X002977Y020146D02*
X002739Y020146D01*
X002779Y020244D02*
X002977Y020244D01*
X002977Y020343D02*
X002812Y020343D01*
X002846Y020441D02*
X002977Y020441D01*
X002977Y020540D02*
X002880Y020540D01*
X002898Y020638D02*
X002977Y020638D01*
X003025Y020737D02*
X002898Y020737D01*
X001002Y019555D02*
X000318Y019555D01*
X000318Y019653D02*
X000777Y019653D01*
X000666Y019752D02*
X000318Y019752D01*
X000318Y019850D02*
X000559Y019850D01*
X000452Y019949D02*
X000318Y019949D01*
X000318Y020047D02*
X000389Y020047D01*
X000335Y020146D02*
X000318Y020146D01*
X001163Y018964D02*
X001263Y018964D01*
X001263Y018865D02*
X001163Y018865D01*
X001163Y018767D02*
X001263Y018767D01*
X005220Y015713D02*
X006877Y015713D01*
X006806Y015615D02*
X005220Y015615D01*
X005220Y015516D02*
X006772Y015516D01*
X006750Y015418D02*
X005220Y015418D01*
X005220Y015319D02*
X006651Y015319D01*
X006553Y015221D02*
X005220Y015221D01*
X005220Y015122D02*
X006466Y015122D01*
X006466Y015024D02*
X005220Y015024D01*
X005220Y014925D02*
X006466Y014925D01*
X006466Y014827D02*
X005220Y014827D01*
X005220Y014728D02*
X006466Y014728D01*
X006466Y014630D02*
X005220Y014630D01*
X005220Y014531D02*
X006466Y014531D01*
X006466Y014433D02*
X005179Y014433D01*
X005104Y014357D02*
X005104Y014357D01*
X005081Y014334D02*
X006466Y014334D01*
X006466Y014236D02*
X005833Y014236D01*
X006022Y014137D02*
X006365Y014137D01*
X006266Y014039D02*
X006120Y014039D01*
X006168Y013940D02*
X006218Y013940D01*
X006210Y013546D02*
X006177Y013546D01*
X006136Y013448D02*
X006251Y013448D01*
X006344Y013349D02*
X006042Y013349D01*
X005883Y013251D02*
X006503Y013251D01*
X005503Y013251D02*
X004883Y013251D01*
X005042Y013349D02*
X005344Y013349D01*
X005251Y013448D02*
X005136Y013448D01*
X005177Y013546D02*
X005210Y013546D01*
X005218Y013940D02*
X005168Y013940D01*
X005120Y014039D02*
X005266Y014039D01*
X005365Y014137D02*
X005022Y014137D01*
X004983Y014236D02*
X005553Y014236D01*
X004687Y014728D02*
X000318Y014728D01*
X000318Y014630D02*
X004623Y014630D01*
X004542Y014549D02*
X004542Y014549D01*
X004524Y014531D02*
X000318Y014531D01*
X000318Y014433D02*
X004450Y014433D01*
X004427Y014334D02*
X000318Y014334D01*
X000318Y014236D02*
X004427Y014236D01*
X004365Y014137D02*
X004184Y014137D01*
X004193Y014039D02*
X004266Y014039D01*
X004218Y013940D02*
X004193Y013940D01*
X004193Y013546D02*
X004210Y013546D01*
X004193Y013448D02*
X004251Y013448D01*
X004190Y013349D02*
X004344Y013349D01*
X004503Y013251D02*
X004114Y013251D01*
X003742Y013251D02*
X003645Y013251D01*
X003645Y013233D02*
X003645Y013684D01*
X003193Y013684D01*
X003193Y013363D01*
X003204Y013325D01*
X003223Y013291D01*
X003251Y013263D01*
X003285Y013243D01*
X003324Y013233D01*
X003645Y013233D01*
X003645Y013349D02*
X003742Y013349D01*
X003742Y013448D02*
X003645Y013448D01*
X003645Y013546D02*
X003742Y013546D01*
X003742Y013645D02*
X003645Y013645D01*
X003645Y013743D02*
X000318Y013743D01*
X000318Y013645D02*
X003193Y013645D01*
X003193Y013546D02*
X000318Y013546D01*
X000318Y013448D02*
X003193Y013448D01*
X003197Y013349D02*
X000318Y013349D01*
X000318Y013251D02*
X003272Y013251D01*
X003193Y013781D02*
X003645Y013781D01*
X003645Y014233D01*
X003324Y014233D01*
X003285Y014222D01*
X003251Y014203D01*
X003223Y014175D01*
X003204Y014141D01*
X003193Y014102D01*
X003193Y013781D01*
X003193Y013842D02*
X000318Y013842D01*
X000318Y013940D02*
X003193Y013940D01*
X003193Y014039D02*
X000318Y014039D01*
X000318Y014137D02*
X003203Y014137D01*
X003645Y014137D02*
X003742Y014137D01*
X003742Y014039D02*
X003645Y014039D01*
X003645Y013940D02*
X003742Y013940D01*
X003742Y013842D02*
X003645Y013842D01*
X004687Y014827D02*
X000318Y014827D01*
X000318Y014925D02*
X004687Y014925D01*
X008133Y016797D02*
X008218Y016797D01*
X008218Y016895D02*
X008133Y016895D01*
X008133Y016994D02*
X008218Y016994D01*
X008218Y017092D02*
X008133Y017092D01*
X008787Y015024D02*
X008825Y015024D01*
X012188Y016206D02*
X012718Y016206D01*
X012718Y016304D02*
X012188Y016304D01*
X012188Y016403D02*
X012220Y016403D01*
X012568Y016403D02*
X012718Y016403D01*
X013344Y016895D02*
X013444Y016895D01*
X013444Y016994D02*
X013344Y016994D01*
X013344Y017092D02*
X013444Y017092D01*
X013444Y017191D02*
X013344Y017191D01*
X013844Y016698D02*
X014135Y016698D01*
X014135Y016600D02*
X013844Y016600D01*
X013840Y016501D02*
X014135Y016501D01*
X014135Y016403D02*
X013761Y016403D01*
X015259Y017092D02*
X018692Y017092D01*
X020091Y018077D02*
X014590Y018077D01*
X014590Y017979D02*
X020189Y017979D01*
X020288Y017880D02*
X014590Y017880D01*
X014590Y017782D02*
X020386Y017782D01*
X019992Y018176D02*
X014639Y018176D01*
X014737Y018274D02*
X019894Y018274D01*
X019795Y018373D02*
X014836Y018373D01*
X014934Y018471D02*
X019697Y018471D01*
X019598Y018570D02*
X015033Y018570D01*
X015131Y018668D02*
X019569Y018668D01*
X019569Y018767D02*
X015180Y018767D01*
X015180Y018865D02*
X019569Y018865D01*
X019569Y018964D02*
X015180Y018964D01*
X015180Y019062D02*
X015286Y019062D01*
X015644Y019062D02*
X019569Y019062D01*
X018201Y020737D02*
X018184Y020737D01*
X017495Y020934D02*
X017395Y020934D01*
X017395Y021032D02*
X017495Y021032D01*
X017495Y021131D02*
X017395Y021131D01*
X017895Y021426D02*
X017977Y021426D01*
X017989Y021525D02*
X017876Y021525D01*
X017778Y021623D02*
X018087Y021623D01*
X004670Y010591D02*
X000318Y010591D01*
X000318Y010493D02*
X004768Y010493D01*
X004867Y010394D02*
X000318Y010394D01*
X000318Y010296D02*
X004965Y010296D01*
X005851Y009803D02*
X007830Y009803D01*
X007772Y009705D02*
X005950Y009705D01*
X006551Y007045D02*
X008212Y007045D01*
X008215Y007048D02*
X008134Y006967D01*
X008090Y006861D01*
X008090Y006746D01*
X008112Y006693D01*
X008018Y006654D01*
X007937Y006573D01*
X007893Y006467D01*
X007893Y006353D01*
X007937Y006247D01*
X008018Y006166D01*
X008081Y006140D01*
X008081Y005381D01*
X008018Y005355D01*
X007937Y005274D01*
X007893Y005168D01*
X007893Y005053D01*
X007937Y004947D01*
X008018Y004866D01*
X008090Y004837D01*
X008090Y004778D01*
X008134Y004672D01*
X008215Y004591D01*
X008321Y004547D01*
X008436Y004547D01*
X008536Y004589D01*
X008567Y004514D01*
X008648Y004433D01*
X008754Y004389D01*
X008869Y004389D01*
X008878Y004393D01*
X008878Y004384D01*
X008921Y004278D01*
X009003Y004197D01*
X009108Y004153D01*
X009223Y004153D01*
X009329Y004197D01*
X009410Y004278D01*
X009454Y004384D01*
X009454Y004499D01*
X009410Y004605D01*
X009329Y004686D01*
X009227Y004728D01*
X009227Y005591D01*
X009329Y005633D01*
X009410Y005714D01*
X009454Y005820D01*
X009454Y005935D01*
X009410Y006041D01*
X009329Y006122D01*
X009223Y006166D01*
X009108Y006166D01*
X009021Y006129D01*
X009021Y006173D01*
X008977Y006279D01*
X008896Y006360D01*
X008790Y006404D01*
X008675Y006404D01*
X008597Y006371D01*
X008597Y006615D01*
X008623Y006640D01*
X008666Y006746D01*
X008666Y006861D01*
X008623Y006967D01*
X008542Y007048D01*
X008436Y007092D01*
X008321Y007092D01*
X008215Y007048D01*
X008126Y006947D02*
X006627Y006947D01*
X006812Y006848D02*
X008090Y006848D01*
X008090Y006750D02*
X006899Y006750D01*
X006934Y006651D02*
X008015Y006651D01*
X007929Y006553D02*
X006934Y006553D01*
X006895Y006454D02*
X007893Y006454D01*
X007893Y006356D02*
X006799Y006356D01*
X006701Y006257D02*
X007933Y006257D01*
X008035Y006159D02*
X006629Y006159D01*
X006629Y006060D02*
X008081Y006060D01*
X008081Y005962D02*
X006629Y005962D01*
X006629Y005863D02*
X008081Y005863D01*
X008081Y005765D02*
X006629Y005765D01*
X006629Y005666D02*
X008081Y005666D01*
X008081Y005568D02*
X006629Y005568D01*
X006629Y005469D02*
X008081Y005469D01*
X008056Y005371D02*
X006629Y005371D01*
X006629Y005272D02*
X007936Y005272D01*
X007896Y005174D02*
X006629Y005174D01*
X006629Y005075D02*
X007893Y005075D01*
X007925Y004977D02*
X006629Y004977D01*
X006629Y004878D02*
X008007Y004878D01*
X008090Y004780D02*
X006629Y004780D01*
X006725Y004681D02*
X008130Y004681D01*
X008235Y004583D02*
X006873Y004583D01*
X006924Y004484D02*
X008598Y004484D01*
X008539Y004583D02*
X008522Y004583D01*
X008878Y004386D02*
X006934Y004386D01*
X006910Y004287D02*
X008918Y004287D01*
X009023Y004189D02*
X006840Y004189D01*
X006633Y004090D02*
X013899Y004090D01*
X013899Y003992D02*
X006564Y003992D01*
X004006Y003696D02*
X013899Y003696D01*
X013899Y003598D02*
X003979Y003598D01*
X003928Y003499D02*
X013899Y003499D01*
X013899Y003401D02*
X003844Y003401D01*
X003122Y004189D02*
X000318Y004189D01*
X000318Y004287D02*
X003277Y004287D01*
X001117Y003893D02*
X000318Y003893D01*
X000318Y003795D02*
X001055Y003795D01*
X005369Y005962D02*
X005380Y005962D01*
X008597Y006454D02*
X013899Y006454D01*
X013899Y006356D02*
X008900Y006356D01*
X008986Y006257D02*
X013899Y006257D01*
X013899Y006159D02*
X009240Y006159D01*
X009092Y006159D02*
X009021Y006159D01*
X009391Y006060D02*
X013899Y006060D01*
X013899Y005962D02*
X009443Y005962D01*
X009454Y005863D02*
X013899Y005863D01*
X013899Y005765D02*
X009431Y005765D01*
X009362Y005666D02*
X013899Y005666D01*
X013899Y005568D02*
X009227Y005568D01*
X009227Y005469D02*
X013899Y005469D01*
X013899Y005371D02*
X009227Y005371D01*
X009227Y005272D02*
X013899Y005272D01*
X013899Y005174D02*
X009227Y005174D01*
X009227Y005075D02*
X013899Y005075D01*
X013899Y004977D02*
X009227Y004977D01*
X009227Y004878D02*
X013899Y004878D01*
X013899Y004780D02*
X009227Y004780D01*
X009334Y004681D02*
X013899Y004681D01*
X013899Y004583D02*
X009419Y004583D01*
X009454Y004484D02*
X013899Y004484D01*
X013899Y004386D02*
X009454Y004386D01*
X009414Y004287D02*
X013899Y004287D01*
X013899Y004189D02*
X009308Y004189D01*
X008597Y006553D02*
X013899Y006553D01*
X013899Y006651D02*
X008627Y006651D01*
X008666Y006750D02*
X013899Y006750D01*
X013899Y006848D02*
X008666Y006848D01*
X008631Y006947D02*
X013899Y006947D01*
X013899Y007045D02*
X008544Y007045D01*
X014432Y007045D02*
X017305Y007045D01*
X017305Y006947D02*
X014432Y006947D01*
X014432Y006848D02*
X017305Y006848D01*
X017305Y006750D02*
X014432Y006750D01*
X014432Y006651D02*
X017305Y006651D01*
X017305Y006553D02*
X014432Y006553D01*
X014432Y006454D02*
X017305Y006454D01*
X017305Y006356D02*
X014432Y006356D01*
X014432Y006257D02*
X017305Y006257D01*
X017305Y006159D02*
X014432Y006159D01*
X014432Y006060D02*
X017305Y006060D01*
X017305Y005962D02*
X014432Y005962D01*
X014432Y005863D02*
X017305Y005863D01*
X017305Y005765D02*
X014432Y005765D01*
X014432Y005666D02*
X017305Y005666D01*
X017305Y005568D02*
X014432Y005568D01*
X014432Y005469D02*
X017305Y005469D01*
X017305Y005371D02*
X014432Y005371D01*
X014432Y005272D02*
X017305Y005272D01*
X017305Y005174D02*
X014432Y005174D01*
X014432Y005075D02*
X017305Y005075D01*
X017305Y004977D02*
X014432Y004977D01*
X014432Y004878D02*
X017305Y004878D01*
X017305Y004780D02*
X014432Y004780D01*
X014432Y004681D02*
X017305Y004681D01*
X017305Y004583D02*
X014432Y004583D01*
X014432Y004484D02*
X017305Y004484D01*
X017305Y004386D02*
X014432Y004386D01*
X014432Y004287D02*
X017305Y004287D01*
X017305Y004189D02*
X014432Y004189D01*
X014432Y004090D02*
X017305Y004090D01*
X017305Y003992D02*
X014432Y003992D01*
X014432Y003893D02*
X017305Y003893D01*
X017305Y003795D02*
X014432Y003795D01*
X014432Y003696D02*
X017305Y003696D01*
X017305Y003598D02*
X014432Y003598D01*
X014432Y003499D02*
X017305Y003499D01*
X017305Y003401D02*
X014432Y003401D01*
X014432Y003302D02*
X017305Y003302D01*
X017305Y003204D02*
X014432Y003204D01*
X014432Y003105D02*
X017305Y003105D01*
X017305Y003007D02*
X014432Y003007D01*
X014432Y002908D02*
X017305Y002908D01*
X017305Y002810D02*
X014432Y002810D01*
X014432Y002711D02*
X017305Y002711D01*
X017305Y002613D02*
X014432Y002613D01*
X014432Y002514D02*
X017305Y002514D01*
X017305Y002416D02*
X014432Y002416D01*
X014432Y002317D02*
X017305Y002317D01*
X017305Y002219D02*
X014432Y002219D01*
X014432Y002120D02*
X017305Y002120D01*
X017305Y002022D02*
X014432Y002022D01*
X014489Y001923D02*
X017305Y001923D01*
X017305Y001825D02*
X014530Y001825D01*
X014541Y001726D02*
X017305Y001726D01*
X017305Y001628D02*
X014531Y001628D01*
X014490Y001529D02*
X017305Y001529D01*
X017305Y001431D02*
X014401Y001431D01*
X018428Y000544D02*
X018433Y000500D01*
X018455Y000446D02*
X023516Y000446D01*
X023645Y000347D02*
X018551Y000347D01*
X017305Y007144D02*
X014445Y007144D01*
X014508Y007242D02*
X017305Y007242D01*
X017305Y007341D02*
X014541Y007341D01*
X014541Y007439D02*
X017305Y007439D01*
X017305Y007538D02*
X014512Y007538D01*
X014454Y007636D02*
X017305Y007636D01*
X017029Y008129D02*
X000318Y008129D01*
X000318Y008227D02*
X016923Y008227D01*
X001582Y009311D02*
X001482Y009311D01*
X001482Y009409D02*
X001582Y009409D01*
X001582Y009508D02*
X001482Y009508D01*
X001482Y009606D02*
X001582Y009606D01*
X001210Y009311D02*
X000318Y009311D01*
X000318Y009409D02*
X001110Y009409D01*
X001049Y009508D02*
X000318Y009508D01*
X000318Y009606D02*
X001013Y009606D01*
D18*
X002000Y008851D03*
X002709Y008772D03*
X002237Y007512D03*
X002197Y006134D03*
X002158Y004678D03*
X002709Y003654D03*
X004284Y004284D03*
X004441Y003654D03*
X004126Y002473D03*
X003496Y001843D03*
X003063Y000701D03*
X000819Y004126D03*
X009559Y009166D03*
X010544Y010819D03*
X011882Y009914D03*
X012867Y009008D03*
X013772Y009914D03*
X015150Y010622D03*
X015622Y011174D03*
X016725Y010741D03*
X017197Y009914D03*
X017237Y008890D03*
X017512Y008300D03*
X018733Y007473D03*
X018811Y006725D03*
X019796Y005937D03*
X020504Y005465D03*
X020741Y006095D03*
X021922Y006016D03*
X022709Y006370D03*
X022945Y005583D03*
X021804Y005347D03*
X021843Y003851D03*
X020544Y003693D03*
X019205Y003851D03*
X019323Y002355D03*
X020583Y002197D03*
X021804Y002158D03*
X021843Y000741D03*
X021056Y000741D03*
X020229Y000662D03*
X018772Y000662D03*
X016489Y000859D03*
X015386Y000662D03*
X014284Y000780D03*
X011882Y001370D03*
X010268Y000937D03*
X015504Y002709D03*
X015544Y003693D03*
X015504Y004874D03*
X015465Y006056D03*
X013103Y007197D03*
X015268Y009008D03*
X019008Y009756D03*
X020071Y009796D03*
X019126Y008811D03*
X020622Y008418D03*
X020701Y007945D03*
X022906Y009441D03*
X022040Y009678D03*
X023300Y008103D03*
X019363Y010819D03*
X017670Y012355D03*
X019284Y012670D03*
X021922Y011725D03*
X023024Y012040D03*
X023733Y013339D03*
X025150Y013339D03*
X022867Y015111D03*
X021922Y014717D03*
X018930Y016370D03*
X018103Y016056D03*
X017276Y015859D03*
X017355Y014717D03*
X013930Y016174D03*
X012670Y015229D03*
X011607Y014481D03*
X010741Y015150D03*
X009087Y014796D03*
X007119Y015465D03*
X006252Y016922D03*
X005701Y017906D03*
X007079Y018890D03*
X006252Y019284D03*
X008930Y018890D03*
X009953Y018930D03*
X011449Y018063D03*
X012433Y018496D03*
X012433Y019363D03*
X015032Y017355D03*
X015465Y019363D03*
X018142Y018772D03*
X019796Y019363D03*
X020583Y019520D03*
X021764Y019244D03*
X022709Y019244D03*
X018772Y017433D03*
X007867Y012158D03*
X008024Y011016D03*
X004914Y011528D03*
X002867Y011685D03*
X001292Y012552D03*
X000819Y011292D03*
X002630Y015111D03*
X003418Y015268D03*
X002906Y019087D03*
X019048Y005504D03*
X023536Y004402D03*
X024244Y004008D03*
X024993Y004363D03*
X024953Y003536D03*
X023536Y003536D03*
X022709Y000780D03*
D19*
X013615Y003496D03*
X013260Y002709D03*
X013221Y001843D03*
X012119Y002709D03*
X011370Y001843D03*
X010071Y001449D03*
X012945Y000780D03*
X009166Y004441D03*
X008811Y004678D03*
X008378Y004835D03*
X008181Y005111D03*
X007119Y005780D03*
X008181Y006410D03*
X008378Y006804D03*
X008733Y006116D03*
X009166Y005877D03*
X007276Y006646D03*
X006646Y006607D03*
X006367Y006821D03*
X007355Y007237D03*
X005859Y007670D03*
X005229Y007473D03*
X004993Y007788D03*
X004559Y007237D03*
X003142Y007355D03*
X003103Y007945D03*
X004284Y008733D03*
X006016Y008733D03*
X004520Y010229D03*
X002473Y010307D03*
X000544Y010307D03*
X000583Y009284D03*
X003024Y006685D03*
X003103Y006174D03*
X003063Y005622D03*
X003103Y004993D03*
X004678Y005859D03*
X005504Y005701D03*
X005622Y005268D03*
X005291Y004543D03*
X004953Y004638D03*
X005386Y003615D03*
X006367Y004202D03*
X006646Y004402D03*
X007788Y003536D03*
X010977Y004835D03*
X013457Y006095D03*
X012079Y007197D03*
X014481Y008063D03*
X016882Y007827D03*
X020662Y008851D03*
X020622Y009323D03*
X022119Y009244D03*
X022079Y008536D03*
X021922Y008103D03*
X022788Y007552D03*
X021252Y010465D03*
X010898Y015898D03*
X009717Y016764D03*
X009048Y017394D03*
X009953Y017906D03*
X009008Y018103D03*
X009166Y016134D03*
X006174Y016213D03*
X003142Y002827D03*
D20*
X015032Y017355D02*
X015111Y017355D01*
X015189Y017433D01*
X018772Y017433D01*
D21*
X019796Y018693D02*
X019796Y019363D01*
X020583Y019520D02*
X020583Y018772D01*
X021776Y017579D01*
X024638Y017579D01*
X024532Y016685D02*
X024638Y016579D01*
X024532Y016685D02*
X021804Y016685D01*
X019796Y018693D01*
X020937Y019756D02*
X021449Y019244D01*
X021764Y019244D01*
X020937Y019756D02*
X020937Y020819D01*
X020445Y021311D01*
X020445Y021319D01*
X021922Y021882D02*
X015229Y021882D01*
X014953Y021607D01*
X014953Y018811D01*
X014363Y018221D01*
X014363Y015780D01*
X015693Y014449D01*
X015693Y013733D01*
X012945Y015347D02*
X012827Y015229D01*
X012670Y015229D01*
X012945Y015347D02*
X012945Y020819D01*
X013445Y021319D01*
X011961Y020780D02*
X011961Y014835D01*
X012197Y014599D01*
X012197Y013339D01*
X011961Y013103D01*
X008969Y013103D01*
X008693Y013378D01*
X008693Y013733D01*
X008181Y014323D02*
X008181Y012473D01*
X007867Y012158D01*
X006693Y013733D02*
X006693Y015040D01*
X007119Y015465D01*
X007906Y014599D02*
X008181Y014323D01*
X007906Y014599D02*
X007906Y020780D01*
X008445Y021319D01*
X008445Y020319D02*
X008445Y015044D01*
X008693Y014796D01*
X009087Y014796D01*
X010445Y015445D02*
X010741Y015150D01*
X010445Y015445D02*
X010445Y020319D01*
X010937Y020780D02*
X010937Y016489D01*
X011607Y015819D01*
X011607Y014481D01*
X009052Y017394D02*
X009445Y017788D01*
X009445Y020319D01*
X010445Y021272D02*
X010937Y020780D01*
X010445Y021272D02*
X010445Y021319D01*
X011445Y021319D02*
X011445Y021296D01*
X011961Y020780D01*
X012433Y019363D02*
X012433Y018496D01*
X015465Y019363D02*
X017394Y019363D01*
X017945Y019914D01*
X017945Y020819D01*
X018445Y021319D01*
X021922Y021882D02*
X022445Y021359D01*
X022445Y021319D01*
X009052Y017394D02*
X009048Y017394D01*
X006252Y016922D02*
X006252Y019284D01*
D22*
X004953Y020819D02*
X004945Y020819D01*
X004445Y021319D01*
X004953Y020819D02*
X004953Y014583D01*
X004693Y014323D01*
X004693Y013733D01*
X014166Y007394D02*
X014166Y001725D01*
D23*
X009166Y004441D02*
X009029Y004578D01*
X009029Y005741D01*
X009166Y005877D01*
X008909Y005939D02*
X008733Y006116D01*
X008909Y005939D02*
X008909Y004775D01*
X008811Y004678D01*
X008399Y004874D02*
X008399Y006783D01*
X008378Y006804D01*
X008181Y006410D02*
X008279Y006312D01*
X008279Y005268D01*
X008181Y005111D01*
X008399Y004874D02*
X008378Y004835D01*
X006646Y004402D02*
X006534Y004402D01*
X006430Y004506D01*
X006430Y006267D01*
X006646Y006482D01*
X006646Y006607D01*
X006370Y006449D02*
X006370Y006818D01*
X006367Y006821D01*
X006370Y006824D01*
X006370Y006449D02*
X006310Y006389D01*
X006310Y004416D01*
X006367Y004360D01*
X006367Y004202D01*
X005291Y004543D02*
X005271Y004563D01*
X005271Y004735D01*
X005171Y004835D01*
X005171Y007415D01*
X005229Y007473D01*
X005051Y007297D02*
X004993Y007355D01*
X004993Y007788D01*
X005051Y007297D02*
X005051Y004835D01*
X004953Y004738D01*
X004953Y004638D01*
X005622Y005268D02*
X005622Y005426D01*
X005504Y005544D01*
X005504Y005701D01*
D24*
X014166Y007394D03*
X014166Y001725D03*
M02*
