G75*
%MOIN*%
%OFA0B0*%
%FSLAX24Y24*%
%IPPOS*%
%LPD*%
%AMOC8*
5,1,8,0,0,1.08239X$1,22.5*
%
%ADD10C,0.0000*%
%ADD11C,0.0020*%
D10*
X001439Y000736D02*
X017187Y000736D01*
X017226Y000738D01*
X017264Y000744D01*
X017301Y000753D01*
X017338Y000766D01*
X017373Y000783D01*
X017406Y000802D01*
X017437Y000825D01*
X017466Y000851D01*
X017492Y000880D01*
X017515Y000911D01*
X017534Y000944D01*
X017551Y000979D01*
X017564Y001016D01*
X017573Y001053D01*
X017579Y001091D01*
X017581Y001130D01*
X017580Y001130D02*
X017580Y008217D01*
X017582Y008256D01*
X017588Y008294D01*
X017597Y008331D01*
X017610Y008368D01*
X017627Y008403D01*
X017646Y008436D01*
X017669Y008467D01*
X017695Y008496D01*
X017724Y008522D01*
X017755Y008545D01*
X017788Y008564D01*
X017823Y008581D01*
X017860Y008594D01*
X017897Y008603D01*
X017935Y008609D01*
X017974Y008611D01*
X018013Y008609D01*
X018051Y008603D01*
X018088Y008594D01*
X018125Y008581D01*
X018160Y008564D01*
X018193Y008545D01*
X018224Y008522D01*
X018253Y008496D01*
X018279Y008467D01*
X018302Y008436D01*
X018321Y008403D01*
X018338Y008368D01*
X018351Y008331D01*
X018360Y008294D01*
X018366Y008256D01*
X018368Y008217D01*
X018368Y001130D01*
X018367Y001130D02*
X018369Y001091D01*
X018375Y001053D01*
X018384Y001016D01*
X018397Y000979D01*
X018414Y000944D01*
X018433Y000911D01*
X018456Y000880D01*
X018482Y000851D01*
X018511Y000825D01*
X018542Y000802D01*
X018575Y000783D01*
X018610Y000766D01*
X018647Y000753D01*
X018684Y000744D01*
X018722Y000738D01*
X018761Y000736D01*
X024667Y000736D01*
X024733Y000738D01*
X024799Y000743D01*
X024865Y000753D01*
X024930Y000766D01*
X024994Y000782D01*
X025057Y000802D01*
X025119Y000826D01*
X025179Y000853D01*
X025238Y000883D01*
X025295Y000917D01*
X025350Y000954D01*
X025403Y000994D01*
X025454Y001036D01*
X025502Y001082D01*
X025548Y001130D01*
X025590Y001181D01*
X025630Y001234D01*
X025667Y001289D01*
X025701Y001346D01*
X025731Y001405D01*
X025758Y001465D01*
X025782Y001527D01*
X025802Y001590D01*
X025818Y001654D01*
X025831Y001719D01*
X025841Y001785D01*
X025846Y001851D01*
X025848Y001917D01*
X025848Y021602D01*
X025846Y021668D01*
X025841Y021734D01*
X025831Y021800D01*
X025818Y021865D01*
X025802Y021929D01*
X025782Y021992D01*
X025758Y022054D01*
X025731Y022114D01*
X025701Y022173D01*
X025667Y022230D01*
X025630Y022285D01*
X025590Y022338D01*
X025548Y022389D01*
X025502Y022437D01*
X025454Y022483D01*
X025403Y022525D01*
X025350Y022565D01*
X025295Y022602D01*
X025238Y022636D01*
X025179Y022666D01*
X025119Y022693D01*
X025057Y022717D01*
X024994Y022737D01*
X024930Y022753D01*
X024865Y022766D01*
X024799Y022776D01*
X024733Y022781D01*
X024667Y022783D01*
X001439Y022783D01*
X001373Y022781D01*
X001307Y022776D01*
X001241Y022766D01*
X001176Y022753D01*
X001112Y022737D01*
X001049Y022717D01*
X000987Y022693D01*
X000927Y022666D01*
X000868Y022636D01*
X000811Y022602D01*
X000756Y022565D01*
X000703Y022525D01*
X000652Y022483D01*
X000604Y022437D01*
X000558Y022389D01*
X000516Y022338D01*
X000476Y022285D01*
X000439Y022230D01*
X000405Y022173D01*
X000375Y022114D01*
X000348Y022054D01*
X000324Y021992D01*
X000304Y021929D01*
X000288Y021865D01*
X000275Y021800D01*
X000265Y021734D01*
X000260Y021668D01*
X000258Y021602D01*
X000257Y021602D02*
X000100Y015500D01*
X000108Y015459D01*
X000120Y015419D01*
X000136Y015381D01*
X000155Y015343D01*
X000177Y015308D01*
X000202Y015275D01*
X000230Y015243D01*
X000261Y015215D01*
X000294Y015189D01*
X000329Y015166D01*
X000366Y015147D01*
X000404Y015130D01*
X000444Y015118D01*
X000484Y015108D01*
X000526Y015102D01*
X000568Y015100D01*
X000609Y015101D01*
X000651Y015107D01*
X000651Y015106D02*
X001832Y015106D01*
X001832Y015107D02*
X001871Y015105D01*
X001909Y015099D01*
X001946Y015090D01*
X001983Y015077D01*
X002018Y015060D01*
X002051Y015041D01*
X002082Y015018D01*
X002111Y014992D01*
X002137Y014963D01*
X002160Y014932D01*
X002179Y014899D01*
X002196Y014864D01*
X002209Y014827D01*
X002218Y014790D01*
X002224Y014752D01*
X002226Y014713D01*
X002226Y008807D01*
X002224Y008768D01*
X002218Y008730D01*
X002209Y008693D01*
X002196Y008656D01*
X002179Y008621D01*
X002160Y008588D01*
X002137Y008557D01*
X002111Y008528D01*
X002082Y008502D01*
X002051Y008479D01*
X002018Y008460D01*
X001983Y008443D01*
X001946Y008430D01*
X001909Y008421D01*
X001871Y008415D01*
X001832Y008413D01*
X000651Y008413D01*
X000651Y008414D02*
X000612Y008412D01*
X000574Y008406D01*
X000537Y008397D01*
X000500Y008384D01*
X000465Y008367D01*
X000432Y008348D01*
X000401Y008325D01*
X000372Y008299D01*
X000346Y008270D01*
X000323Y008239D01*
X000304Y008206D01*
X000287Y008171D01*
X000274Y008134D01*
X000265Y008097D01*
X000259Y008059D01*
X000257Y008020D01*
X000257Y001917D01*
X000258Y001917D02*
X000260Y001851D01*
X000265Y001785D01*
X000275Y001719D01*
X000288Y001654D01*
X000304Y001590D01*
X000324Y001527D01*
X000348Y001465D01*
X000375Y001405D01*
X000405Y001346D01*
X000439Y001289D01*
X000476Y001234D01*
X000516Y001181D01*
X000558Y001130D01*
X000604Y001082D01*
X000652Y001036D01*
X000703Y000994D01*
X000756Y000954D01*
X000811Y000917D01*
X000868Y000883D01*
X000927Y000853D01*
X000987Y000826D01*
X001049Y000802D01*
X001112Y000782D01*
X001176Y000766D01*
X001241Y000753D01*
X001307Y000743D01*
X001373Y000738D01*
X001439Y000736D01*
X001084Y002114D02*
X001086Y002161D01*
X001092Y002207D01*
X001102Y002253D01*
X001115Y002298D01*
X001133Y002341D01*
X001154Y002383D01*
X001178Y002423D01*
X001206Y002460D01*
X001237Y002495D01*
X001271Y002528D01*
X001307Y002557D01*
X001346Y002583D01*
X001387Y002606D01*
X001430Y002625D01*
X001474Y002641D01*
X001519Y002653D01*
X001565Y002661D01*
X001612Y002665D01*
X001658Y002665D01*
X001705Y002661D01*
X001751Y002653D01*
X001796Y002641D01*
X001840Y002625D01*
X001883Y002606D01*
X001924Y002583D01*
X001963Y002557D01*
X001999Y002528D01*
X002033Y002495D01*
X002064Y002460D01*
X002092Y002423D01*
X002116Y002383D01*
X002137Y002341D01*
X002155Y002298D01*
X002168Y002253D01*
X002178Y002207D01*
X002184Y002161D01*
X002186Y002114D01*
X002184Y002067D01*
X002178Y002021D01*
X002168Y001975D01*
X002155Y001930D01*
X002137Y001887D01*
X002116Y001845D01*
X002092Y001805D01*
X002064Y001768D01*
X002033Y001733D01*
X001999Y001700D01*
X001963Y001671D01*
X001924Y001645D01*
X001883Y001622D01*
X001840Y001603D01*
X001796Y001587D01*
X001751Y001575D01*
X001705Y001567D01*
X001658Y001563D01*
X001612Y001563D01*
X001565Y001567D01*
X001519Y001575D01*
X001474Y001587D01*
X001430Y001603D01*
X001387Y001622D01*
X001346Y001645D01*
X001307Y001671D01*
X001271Y001700D01*
X001237Y001733D01*
X001206Y001768D01*
X001178Y001805D01*
X001154Y001845D01*
X001133Y001887D01*
X001115Y001930D01*
X001102Y001975D01*
X001092Y002021D01*
X001086Y002067D01*
X001084Y002114D01*
X023919Y002114D02*
X023921Y002161D01*
X023927Y002207D01*
X023937Y002253D01*
X023950Y002298D01*
X023968Y002341D01*
X023989Y002383D01*
X024013Y002423D01*
X024041Y002460D01*
X024072Y002495D01*
X024106Y002528D01*
X024142Y002557D01*
X024181Y002583D01*
X024222Y002606D01*
X024265Y002625D01*
X024309Y002641D01*
X024354Y002653D01*
X024400Y002661D01*
X024447Y002665D01*
X024493Y002665D01*
X024540Y002661D01*
X024586Y002653D01*
X024631Y002641D01*
X024675Y002625D01*
X024718Y002606D01*
X024759Y002583D01*
X024798Y002557D01*
X024834Y002528D01*
X024868Y002495D01*
X024899Y002460D01*
X024927Y002423D01*
X024951Y002383D01*
X024972Y002341D01*
X024990Y002298D01*
X025003Y002253D01*
X025013Y002207D01*
X025019Y002161D01*
X025021Y002114D01*
X025019Y002067D01*
X025013Y002021D01*
X025003Y001975D01*
X024990Y001930D01*
X024972Y001887D01*
X024951Y001845D01*
X024927Y001805D01*
X024899Y001768D01*
X024868Y001733D01*
X024834Y001700D01*
X024798Y001671D01*
X024759Y001645D01*
X024718Y001622D01*
X024675Y001603D01*
X024631Y001587D01*
X024586Y001575D01*
X024540Y001567D01*
X024493Y001563D01*
X024447Y001563D01*
X024400Y001567D01*
X024354Y001575D01*
X024309Y001587D01*
X024265Y001603D01*
X024222Y001622D01*
X024181Y001645D01*
X024142Y001671D01*
X024106Y001700D01*
X024072Y001733D01*
X024041Y001768D01*
X024013Y001805D01*
X023989Y001845D01*
X023968Y001887D01*
X023950Y001930D01*
X023937Y001975D01*
X023927Y002021D01*
X023921Y002067D01*
X023919Y002114D01*
X023919Y021406D02*
X023921Y021453D01*
X023927Y021499D01*
X023937Y021545D01*
X023950Y021590D01*
X023968Y021633D01*
X023989Y021675D01*
X024013Y021715D01*
X024041Y021752D01*
X024072Y021787D01*
X024106Y021820D01*
X024142Y021849D01*
X024181Y021875D01*
X024222Y021898D01*
X024265Y021917D01*
X024309Y021933D01*
X024354Y021945D01*
X024400Y021953D01*
X024447Y021957D01*
X024493Y021957D01*
X024540Y021953D01*
X024586Y021945D01*
X024631Y021933D01*
X024675Y021917D01*
X024718Y021898D01*
X024759Y021875D01*
X024798Y021849D01*
X024834Y021820D01*
X024868Y021787D01*
X024899Y021752D01*
X024927Y021715D01*
X024951Y021675D01*
X024972Y021633D01*
X024990Y021590D01*
X025003Y021545D01*
X025013Y021499D01*
X025019Y021453D01*
X025021Y021406D01*
X025019Y021359D01*
X025013Y021313D01*
X025003Y021267D01*
X024990Y021222D01*
X024972Y021179D01*
X024951Y021137D01*
X024927Y021097D01*
X024899Y021060D01*
X024868Y021025D01*
X024834Y020992D01*
X024798Y020963D01*
X024759Y020937D01*
X024718Y020914D01*
X024675Y020895D01*
X024631Y020879D01*
X024586Y020867D01*
X024540Y020859D01*
X024493Y020855D01*
X024447Y020855D01*
X024400Y020859D01*
X024354Y020867D01*
X024309Y020879D01*
X024265Y020895D01*
X024222Y020914D01*
X024181Y020937D01*
X024142Y020963D01*
X024106Y020992D01*
X024072Y021025D01*
X024041Y021060D01*
X024013Y021097D01*
X023989Y021137D01*
X023968Y021179D01*
X023950Y021222D01*
X023937Y021267D01*
X023927Y021313D01*
X023921Y021359D01*
X023919Y021406D01*
X001084Y021406D02*
X001086Y021453D01*
X001092Y021499D01*
X001102Y021545D01*
X001115Y021590D01*
X001133Y021633D01*
X001154Y021675D01*
X001178Y021715D01*
X001206Y021752D01*
X001237Y021787D01*
X001271Y021820D01*
X001307Y021849D01*
X001346Y021875D01*
X001387Y021898D01*
X001430Y021917D01*
X001474Y021933D01*
X001519Y021945D01*
X001565Y021953D01*
X001612Y021957D01*
X001658Y021957D01*
X001705Y021953D01*
X001751Y021945D01*
X001796Y021933D01*
X001840Y021917D01*
X001883Y021898D01*
X001924Y021875D01*
X001963Y021849D01*
X001999Y021820D01*
X002033Y021787D01*
X002064Y021752D01*
X002092Y021715D01*
X002116Y021675D01*
X002137Y021633D01*
X002155Y021590D01*
X002168Y021545D01*
X002178Y021499D01*
X002184Y021453D01*
X002186Y021406D01*
X002184Y021359D01*
X002178Y021313D01*
X002168Y021267D01*
X002155Y021222D01*
X002137Y021179D01*
X002116Y021137D01*
X002092Y021097D01*
X002064Y021060D01*
X002033Y021025D01*
X001999Y020992D01*
X001963Y020963D01*
X001924Y020937D01*
X001883Y020914D01*
X001840Y020895D01*
X001796Y020879D01*
X001751Y020867D01*
X001705Y020859D01*
X001658Y020855D01*
X001612Y020855D01*
X001565Y020859D01*
X001519Y020867D01*
X001474Y020879D01*
X001430Y020895D01*
X001387Y020914D01*
X001346Y020937D01*
X001307Y020963D01*
X001271Y020992D01*
X001237Y021025D01*
X001206Y021060D01*
X001178Y021097D01*
X001154Y021137D01*
X001133Y021179D01*
X001115Y021222D01*
X001102Y021267D01*
X001092Y021313D01*
X001086Y021359D01*
X001084Y021406D01*
D11*
X002114Y019309D02*
X002206Y019309D01*
X002252Y019263D01*
X002340Y019309D02*
X002340Y019034D01*
X002432Y019125D01*
X002524Y019034D01*
X002524Y019309D01*
X002612Y019263D02*
X002658Y019309D01*
X002750Y019309D01*
X002795Y019263D01*
X002795Y019217D01*
X002750Y019171D01*
X002658Y019171D01*
X002612Y019125D01*
X002612Y019080D01*
X002658Y019034D01*
X002750Y019034D01*
X002795Y019080D01*
X002252Y019034D02*
X002068Y019217D01*
X002068Y019263D01*
X002114Y019309D01*
X002068Y019034D02*
X002252Y019034D01*
X002094Y018246D02*
X002094Y017971D01*
X002094Y018062D02*
X001910Y018246D01*
X002048Y018108D02*
X001910Y017971D01*
X002454Y018017D02*
X002454Y018200D01*
X002500Y018246D01*
X002638Y018246D01*
X002638Y017971D01*
X002500Y017971D01*
X002454Y018017D01*
X002726Y017971D02*
X002910Y017971D01*
X002910Y018246D01*
X002726Y018246D01*
X002818Y018108D02*
X002910Y018108D01*
X002998Y017971D02*
X003182Y017971D01*
X003182Y018246D01*
X003260Y017341D02*
X003260Y017065D01*
X003077Y017065D01*
X002989Y017065D02*
X002805Y017065D01*
X002717Y017065D02*
X002579Y017065D01*
X002533Y017111D01*
X002533Y017295D01*
X002579Y017341D01*
X002717Y017341D01*
X002717Y017065D01*
X002897Y017203D02*
X002989Y017203D01*
X002989Y017341D02*
X002989Y017065D01*
X002989Y017341D02*
X002805Y017341D01*
X002173Y017249D02*
X002173Y017065D01*
X002173Y017203D02*
X001989Y017203D01*
X001989Y017249D02*
X001989Y017065D01*
X001989Y017249D02*
X002081Y017341D01*
X002173Y017249D01*
X002261Y016278D02*
X002261Y016002D01*
X002353Y016094D01*
X002445Y016002D01*
X002445Y016278D01*
X002533Y016232D02*
X002579Y016278D01*
X002671Y016278D01*
X002717Y016232D01*
X002717Y016186D01*
X002671Y016140D01*
X002579Y016140D01*
X002533Y016094D01*
X002533Y016048D01*
X002579Y016002D01*
X002671Y016002D01*
X002717Y016048D01*
X002173Y016002D02*
X001989Y016002D01*
X002081Y016002D02*
X002081Y016278D01*
X002173Y016186D01*
X003324Y015377D02*
X003324Y015312D01*
X003421Y015215D01*
X003616Y015410D01*
X003518Y015507D01*
X003454Y015507D01*
X003324Y015377D01*
X003483Y015153D02*
X003678Y015347D01*
X003808Y015218D02*
X003483Y015153D01*
X003613Y015023D02*
X003808Y015218D01*
X003838Y015123D02*
X003903Y015123D01*
X003968Y015058D01*
X003968Y014993D01*
X003838Y014863D01*
X003773Y014863D01*
X003708Y014928D01*
X003708Y014993D01*
X003773Y015058D01*
X003838Y014993D01*
X004308Y015312D02*
X004308Y015377D01*
X004438Y015507D01*
X004503Y015507D01*
X004600Y015410D01*
X004405Y015215D01*
X004308Y015312D01*
X004500Y015185D02*
X004630Y015315D01*
X004695Y015315D01*
X004792Y015218D01*
X004598Y015023D01*
X004500Y015120D01*
X004500Y015185D01*
X004725Y015025D02*
X004855Y015155D01*
X004985Y015025D02*
X004855Y014895D01*
X004725Y014895D01*
X004725Y015025D01*
X005172Y015472D02*
X005367Y015667D01*
X005431Y015602D02*
X005302Y015732D01*
X005239Y015794D02*
X005142Y015892D01*
X005077Y015892D01*
X005012Y015827D01*
X005012Y015762D01*
X005109Y015664D01*
X005044Y015600D02*
X005239Y015794D01*
X005044Y015729D02*
X004915Y015729D01*
X004852Y015792D02*
X004982Y015922D01*
X004982Y016052D01*
X004852Y016052D01*
X004722Y015922D01*
X004692Y016016D02*
X004627Y016016D01*
X004563Y016081D01*
X004563Y016146D01*
X004595Y016179D01*
X004660Y016179D01*
X004725Y016114D01*
X004790Y016114D01*
X004822Y016146D01*
X004822Y016211D01*
X004757Y016276D01*
X004692Y016276D01*
X004662Y016371D02*
X004533Y016501D01*
X004598Y016436D02*
X004403Y016241D01*
X004820Y016019D02*
X004950Y015889D01*
X005299Y015345D02*
X005494Y015540D01*
X005624Y015410D02*
X005299Y015345D01*
X005429Y015215D02*
X005624Y015410D01*
X005654Y015315D02*
X005719Y015315D01*
X005784Y015250D01*
X005784Y015185D01*
X005654Y015055D01*
X005589Y015055D01*
X005524Y015120D01*
X005524Y015185D01*
X005654Y015315D01*
X005846Y015123D02*
X005911Y015123D01*
X005976Y015058D01*
X005976Y014993D01*
X005846Y014863D01*
X005781Y014863D01*
X005716Y014928D01*
X005716Y014993D01*
X006508Y015120D02*
X006573Y015055D01*
X006638Y015055D01*
X006668Y014960D02*
X006798Y014960D01*
X006765Y014993D02*
X006863Y014895D01*
X006798Y014831D02*
X006993Y015025D01*
X006895Y015123D01*
X006830Y015123D01*
X006765Y015058D01*
X006765Y014993D01*
X006735Y015153D02*
X006670Y015153D01*
X006605Y015218D01*
X006541Y015218D01*
X006508Y015185D01*
X006508Y015120D01*
X006735Y015153D02*
X006768Y015185D01*
X006768Y015250D01*
X006703Y015315D01*
X006638Y015315D01*
X007460Y015153D02*
X007655Y015347D01*
X007627Y015431D02*
X008012Y015046D01*
X007977Y015025D02*
X007879Y015123D01*
X007814Y015123D01*
X007749Y015058D01*
X007749Y014993D01*
X007847Y014895D01*
X007782Y014831D02*
X007977Y015025D01*
X007782Y014960D02*
X007652Y014960D01*
X007590Y015023D02*
X007590Y015153D01*
X007460Y015153D01*
X007590Y015023D02*
X007785Y015218D01*
X008636Y014960D02*
X008766Y014831D01*
X008961Y015025D01*
X008831Y015155D01*
X008804Y015239D02*
X008996Y015046D01*
X008864Y014928D02*
X008799Y014993D01*
X009308Y015312D02*
X009373Y015247D01*
X009438Y015247D01*
X009438Y015507D01*
X009308Y015377D01*
X009308Y015312D01*
X009438Y015247D02*
X009568Y015377D01*
X009568Y015442D01*
X009503Y015507D01*
X009438Y015507D01*
X009630Y015315D02*
X009598Y015283D01*
X009598Y015218D01*
X009695Y015120D01*
X009692Y014993D02*
X009822Y015123D01*
X009887Y015123D01*
X009985Y015025D01*
X009790Y014831D01*
X009692Y014928D01*
X009692Y014993D01*
X009598Y015023D02*
X009792Y015218D01*
X009695Y015315D01*
X009630Y015315D01*
X009598Y015218D02*
X009533Y015218D01*
X009500Y015185D01*
X009500Y015120D01*
X009598Y015023D01*
X010260Y015345D02*
X010390Y015215D01*
X010325Y015280D02*
X010519Y015475D01*
X010519Y015345D01*
X010582Y015283D02*
X010582Y015218D01*
X010679Y015120D01*
X010677Y014993D02*
X010807Y015123D01*
X010871Y015123D01*
X010969Y015025D01*
X010774Y014831D01*
X010677Y014928D01*
X010677Y014993D01*
X010582Y015023D02*
X010777Y015218D01*
X010679Y015315D01*
X010614Y015315D01*
X010582Y015283D01*
X010582Y015218D02*
X010517Y015218D01*
X010484Y015185D01*
X010484Y015120D01*
X010582Y015023D01*
X011244Y015345D02*
X011374Y015215D01*
X011374Y015475D01*
X011406Y015507D01*
X011471Y015507D01*
X011536Y015442D01*
X011536Y015377D01*
X011599Y015315D02*
X011566Y015283D01*
X011566Y015218D01*
X011663Y015120D01*
X011661Y014993D02*
X011791Y015123D01*
X011856Y015123D01*
X011953Y015025D01*
X011758Y014831D01*
X011661Y014928D01*
X011661Y014993D01*
X011566Y015023D02*
X011761Y015218D01*
X011663Y015315D01*
X011599Y015315D01*
X011566Y015218D02*
X011501Y015218D01*
X011469Y015185D01*
X011469Y015120D01*
X011566Y015023D01*
X012300Y015312D02*
X012365Y015247D01*
X012430Y015247D01*
X012492Y015185D02*
X012492Y015120D01*
X012590Y015023D01*
X012785Y015218D01*
X012687Y015315D01*
X012622Y015315D01*
X012590Y015283D01*
X012590Y015218D01*
X012687Y015120D01*
X012685Y014993D02*
X012814Y015123D01*
X012879Y015123D01*
X012977Y015025D01*
X012782Y014831D01*
X012685Y014928D01*
X012685Y014993D01*
X012590Y015218D02*
X012525Y015218D01*
X012492Y015185D01*
X012430Y015377D02*
X012397Y015410D01*
X012333Y015410D01*
X012300Y015377D01*
X012300Y015312D01*
X012397Y015410D02*
X012397Y015475D01*
X012430Y015507D01*
X012495Y015507D01*
X012560Y015442D01*
X012560Y015377D01*
X013324Y015312D02*
X013518Y015507D01*
X013518Y015312D01*
X013389Y015442D01*
X013613Y015283D02*
X013613Y015218D01*
X013711Y015120D01*
X013838Y015123D02*
X013903Y015123D01*
X014000Y015025D01*
X013806Y014831D01*
X013708Y014928D01*
X013708Y014993D01*
X013838Y015123D01*
X013808Y015218D02*
X013613Y015023D01*
X013516Y015120D01*
X013516Y015185D01*
X013548Y015218D01*
X013613Y015218D01*
X013613Y015283D02*
X013646Y015315D01*
X013711Y015315D01*
X013808Y015218D01*
X014308Y015312D02*
X014373Y015247D01*
X014438Y015247D01*
X014500Y015185D02*
X014500Y015120D01*
X014598Y015023D01*
X014792Y015218D01*
X014695Y015315D01*
X014630Y015315D01*
X014598Y015283D01*
X014598Y015218D01*
X014695Y015120D01*
X014692Y014993D02*
X014822Y015123D01*
X014887Y015123D01*
X014985Y015025D01*
X014790Y014831D01*
X014692Y014928D01*
X014692Y014993D01*
X014598Y015218D02*
X014533Y015218D01*
X014500Y015185D01*
X014503Y015312D02*
X014470Y015410D01*
X014438Y015442D01*
X014373Y015442D01*
X014308Y015377D01*
X014308Y015312D01*
X014503Y015312D02*
X014600Y015410D01*
X014470Y015540D01*
X015292Y015377D02*
X015292Y015312D01*
X015357Y015247D01*
X015422Y015247D01*
X015487Y015312D01*
X015390Y015410D01*
X015325Y015410D01*
X015292Y015377D01*
X015487Y015442D02*
X015487Y015312D01*
X015517Y015218D02*
X015484Y015185D01*
X015484Y015120D01*
X015582Y015023D01*
X015777Y015218D01*
X015679Y015315D01*
X015614Y015315D01*
X015582Y015283D01*
X015582Y015218D01*
X015679Y015120D01*
X015677Y014993D02*
X015807Y015123D01*
X015871Y015123D01*
X015969Y015025D01*
X015774Y014831D01*
X015677Y014928D01*
X015677Y014993D01*
X015582Y015218D02*
X015517Y015218D01*
X015487Y015442D02*
X015455Y015540D01*
X016446Y015507D02*
X016446Y015247D01*
X016413Y015215D01*
X016508Y015185D02*
X016508Y015120D01*
X016605Y015023D01*
X016800Y015218D01*
X016703Y015315D01*
X016638Y015315D01*
X016605Y015283D01*
X016605Y015218D01*
X016703Y015120D01*
X016700Y014993D02*
X016830Y015123D01*
X016895Y015123D01*
X016993Y015025D01*
X016798Y014831D01*
X016700Y014928D01*
X016700Y014993D01*
X016605Y015218D02*
X016541Y015218D01*
X016508Y015185D01*
X016608Y015410D02*
X016478Y015540D01*
X016446Y015507D01*
X016788Y015824D02*
X016983Y016019D01*
X017015Y015987D02*
X016951Y016052D01*
X016855Y016082D02*
X016725Y015952D01*
X016660Y015952D01*
X016595Y016017D01*
X016595Y016082D01*
X016660Y016147D01*
X016725Y016082D01*
X016855Y016082D02*
X016855Y016147D01*
X016790Y016212D01*
X016725Y016212D01*
X016695Y016307D02*
X016500Y016112D01*
X016598Y016210D02*
X016468Y016339D01*
X016565Y016437D02*
X016370Y016242D01*
X016243Y016369D02*
X016438Y016564D01*
X016503Y016499D02*
X016373Y016629D01*
X016053Y016819D02*
X016053Y016949D01*
X015924Y016949D01*
X015794Y016819D01*
X015731Y016881D02*
X015926Y017076D01*
X015601Y017011D01*
X015796Y017206D01*
X015701Y017236D02*
X015571Y017106D01*
X015507Y017106D01*
X015442Y017171D01*
X015442Y017236D01*
X015571Y017366D01*
X015636Y017366D01*
X015701Y017301D01*
X015701Y017236D01*
X015542Y017461D02*
X015444Y017558D01*
X015379Y017558D01*
X015249Y017428D01*
X015249Y017363D01*
X015347Y017266D01*
X015542Y017461D01*
X015349Y017653D02*
X015219Y017783D01*
X015187Y017620D02*
X015252Y017555D01*
X015349Y017653D02*
X015155Y017458D01*
X015025Y017588D01*
X015664Y017972D02*
X015794Y017842D01*
X015988Y018037D01*
X015859Y018167D01*
X015826Y018005D02*
X015891Y017940D01*
X016018Y017942D02*
X016083Y017942D01*
X016181Y017845D01*
X015986Y017650D01*
X015888Y017748D01*
X015888Y017813D01*
X016018Y017942D01*
X016211Y017750D02*
X016276Y017750D01*
X016340Y017685D01*
X016340Y017620D01*
X016211Y017490D01*
X016146Y017490D01*
X016081Y017555D01*
X016081Y017620D01*
X016211Y017750D01*
X016435Y017590D02*
X016241Y017396D01*
X016338Y017493D02*
X016468Y017363D01*
X016370Y017266D02*
X016565Y017461D01*
X016628Y017398D02*
X016757Y017268D01*
X016693Y017333D02*
X016498Y017138D01*
X016625Y017011D02*
X016755Y017141D01*
X016885Y017141D01*
X016885Y017011D01*
X016755Y016881D01*
X016850Y016851D02*
X016850Y016786D01*
X016915Y016721D01*
X016980Y016721D01*
X017109Y016851D01*
X017109Y016916D01*
X017045Y016981D01*
X016980Y016981D01*
X016852Y016979D02*
X016722Y017108D01*
X017130Y017530D02*
X017065Y017595D01*
X017065Y017660D01*
X017195Y017790D01*
X017260Y017790D01*
X017325Y017725D01*
X017325Y017660D01*
X017195Y017530D01*
X017130Y017530D01*
X017225Y017435D02*
X017420Y017630D01*
X017322Y017532D02*
X017452Y017402D01*
X017355Y017305D02*
X017549Y017500D01*
X017612Y017438D02*
X017742Y017308D01*
X017677Y017373D02*
X017482Y017178D01*
X017609Y017050D02*
X017739Y017180D01*
X017869Y017180D01*
X017869Y017050D01*
X017739Y016921D01*
X017834Y016891D02*
X017834Y016826D01*
X017899Y016761D01*
X017964Y016761D01*
X018094Y016891D01*
X018094Y016956D01*
X018029Y017021D01*
X017964Y017021D01*
X017837Y017018D02*
X017707Y017148D01*
X018114Y017490D02*
X018049Y017555D01*
X018049Y017620D01*
X018179Y017750D01*
X018244Y017750D01*
X018309Y017685D01*
X018309Y017620D01*
X018179Y017490D01*
X018114Y017490D01*
X018209Y017396D02*
X018404Y017590D01*
X018306Y017493D02*
X018436Y017363D01*
X018339Y017266D02*
X018534Y017461D01*
X018596Y017398D02*
X018726Y017268D01*
X018661Y017333D02*
X018466Y017138D01*
X018594Y017011D02*
X018723Y017141D01*
X018853Y017141D01*
X018853Y017011D01*
X018723Y016881D01*
X018818Y016851D02*
X018818Y016786D01*
X018883Y016721D01*
X018948Y016721D01*
X019078Y016851D01*
X019078Y016916D01*
X019013Y016981D01*
X018948Y016981D01*
X018821Y016979D02*
X018691Y017108D01*
X018381Y016669D02*
X018511Y016539D01*
X018573Y016476D02*
X018378Y016281D01*
X018476Y016379D02*
X018606Y016249D01*
X018668Y016187D02*
X018733Y016122D01*
X018668Y016187D02*
X018603Y016122D01*
X018603Y016057D01*
X018668Y015992D01*
X018733Y015992D01*
X018863Y016122D01*
X018863Y016187D01*
X018798Y016252D01*
X018733Y016252D01*
X018703Y016346D02*
X018508Y016152D01*
X018764Y015896D02*
X018829Y015831D01*
X018796Y015864D02*
X018991Y016058D01*
X019023Y016026D02*
X018958Y016091D01*
X019216Y015834D02*
X019021Y015639D01*
X018891Y015769D01*
X019083Y015577D02*
X019278Y015577D01*
X019278Y015512D02*
X019278Y015771D01*
X019408Y015641D02*
X019213Y015447D01*
X019308Y015417D02*
X019308Y015352D01*
X019373Y015287D01*
X019438Y015287D01*
X019568Y015417D01*
X019568Y015482D01*
X019503Y015547D01*
X019438Y015547D01*
X019598Y015322D02*
X019468Y015192D01*
X019565Y015289D02*
X019695Y015160D01*
X019727Y015192D02*
X019727Y015322D01*
X019598Y015322D01*
X019727Y015192D02*
X019598Y015062D01*
X019692Y015032D02*
X019692Y014967D01*
X019790Y014870D01*
X019985Y015065D01*
X019887Y015162D01*
X019822Y015162D01*
X019790Y015130D01*
X019790Y015065D01*
X019887Y014967D01*
X019790Y015065D02*
X019725Y015065D01*
X019692Y015032D01*
X020292Y015312D02*
X020292Y015377D01*
X020292Y015312D02*
X020357Y015247D01*
X020422Y015247D01*
X020552Y015377D01*
X020552Y015442D01*
X020487Y015507D01*
X020422Y015507D01*
X020392Y015602D02*
X020197Y015407D01*
X020262Y015472D02*
X020262Y015732D01*
X020200Y015794D02*
X020005Y015600D01*
X019875Y015729D01*
X019813Y015792D02*
X019748Y015857D01*
X019780Y015824D02*
X019975Y016019D01*
X020008Y015987D02*
X019943Y016052D01*
X019847Y016082D02*
X019717Y015952D01*
X019652Y015952D01*
X019587Y016017D01*
X019587Y016082D01*
X019652Y016147D01*
X019717Y016082D01*
X019847Y016082D02*
X019847Y016147D01*
X019782Y016212D01*
X019717Y016212D01*
X019687Y016307D02*
X019492Y016112D01*
X019590Y016210D02*
X019460Y016339D01*
X019557Y016437D02*
X019363Y016242D01*
X019235Y016369D02*
X019430Y016564D01*
X019495Y016499D02*
X019365Y016629D01*
X018446Y016604D02*
X018251Y016409D01*
X017878Y016147D02*
X017878Y016082D01*
X017749Y015952D01*
X017684Y015952D01*
X017619Y016017D01*
X017619Y016082D01*
X017684Y016147D01*
X017749Y016082D01*
X017749Y016212D02*
X017814Y016212D01*
X017878Y016147D01*
X017974Y016052D02*
X018039Y015987D01*
X018007Y016019D02*
X017812Y015824D01*
X017844Y015792D02*
X017779Y015857D01*
X017907Y015729D02*
X018037Y015600D01*
X018231Y015794D01*
X018294Y015732D02*
X018294Y015472D01*
X018294Y015537D02*
X018099Y015537D01*
X018229Y015407D02*
X018424Y015602D01*
X018454Y015507D02*
X018518Y015507D01*
X018583Y015442D01*
X018583Y015377D01*
X018454Y015247D01*
X018389Y015247D01*
X018324Y015312D01*
X018324Y015377D01*
X018483Y015153D02*
X018613Y015283D01*
X018743Y015283D01*
X018743Y015153D01*
X018613Y015023D01*
X018708Y014993D02*
X018708Y014928D01*
X018806Y014831D01*
X019000Y015025D01*
X018903Y015123D01*
X018838Y015123D01*
X018806Y015090D01*
X018806Y015025D01*
X018903Y014928D01*
X018806Y015025D02*
X018741Y015025D01*
X018708Y014993D01*
X018711Y015120D02*
X018581Y015250D01*
X017977Y015025D02*
X017782Y014831D01*
X017685Y014928D01*
X017685Y014993D01*
X017717Y015025D01*
X017782Y015025D01*
X017879Y014928D01*
X017782Y015025D02*
X017782Y015090D01*
X017814Y015123D01*
X017879Y015123D01*
X017977Y015025D01*
X017720Y015153D02*
X017720Y015283D01*
X017590Y015283D01*
X017460Y015153D01*
X017430Y015247D02*
X017365Y015247D01*
X017300Y015312D01*
X017300Y015377D01*
X017205Y015407D02*
X017400Y015602D01*
X017430Y015507D02*
X017495Y015507D01*
X017560Y015442D01*
X017560Y015377D01*
X017430Y015247D01*
X017557Y015250D02*
X017687Y015120D01*
X017720Y015153D02*
X017590Y015023D01*
X017270Y015472D02*
X017270Y015732D01*
X017208Y015794D02*
X017013Y015600D01*
X016883Y015729D01*
X016821Y015792D02*
X016756Y015857D01*
X017075Y015537D02*
X017270Y015537D01*
X017524Y016112D02*
X017719Y016307D01*
X017621Y016210D02*
X017491Y016339D01*
X017394Y016242D02*
X017589Y016437D01*
X017526Y016499D02*
X017397Y016629D01*
X017462Y016564D02*
X017267Y016369D01*
X016053Y016819D02*
X015924Y016689D01*
X016021Y016786D02*
X015891Y016916D01*
X016778Y017882D02*
X016648Y018012D01*
X016810Y018044D02*
X016875Y017979D01*
X016873Y017852D02*
X017003Y017982D01*
X017068Y017982D01*
X017165Y017884D01*
X016970Y017690D01*
X016873Y017787D01*
X016873Y017852D01*
X016778Y017882D02*
X016973Y018077D01*
X016843Y018207D01*
X016523Y018396D02*
X016523Y018526D01*
X016428Y018557D02*
X016428Y018622D01*
X016363Y018687D01*
X016298Y018687D01*
X016233Y018622D02*
X016298Y018557D01*
X016233Y018622D02*
X016168Y018557D01*
X016168Y018492D01*
X016233Y018427D01*
X016298Y018427D01*
X016428Y018557D01*
X016523Y018396D02*
X016458Y018331D01*
X016328Y018331D01*
X016073Y018587D02*
X016268Y018782D01*
X016170Y018879D01*
X016105Y018879D01*
X016040Y018814D01*
X016040Y018749D01*
X016138Y018652D01*
X016073Y018717D02*
X015943Y018717D01*
X015881Y018779D02*
X015751Y018909D01*
X015688Y018971D02*
X015559Y019101D01*
X015496Y019164D02*
X015691Y019358D01*
X015366Y019293D01*
X015561Y019488D01*
X015499Y019551D02*
X015369Y019551D01*
X015304Y019486D01*
X015304Y019356D01*
X015753Y019296D02*
X015883Y019166D01*
X015688Y018971D01*
X015786Y019069D02*
X015721Y019134D01*
X015946Y019104D02*
X016076Y018974D01*
X015881Y018779D01*
X015978Y018876D02*
X015913Y018941D01*
X015476Y018550D02*
X015378Y018647D01*
X015313Y018647D01*
X015248Y018582D01*
X015248Y018517D01*
X015346Y018420D01*
X015281Y018355D02*
X015476Y018550D01*
X015539Y018487D02*
X015539Y018357D01*
X015474Y018292D01*
X015344Y018292D01*
X015281Y018485D02*
X015151Y018485D01*
X015089Y018547D02*
X014959Y018677D01*
X014896Y018740D02*
X014799Y018837D01*
X014799Y018902D01*
X014929Y019032D01*
X014994Y019032D01*
X015091Y018934D01*
X014896Y018740D01*
X015121Y018710D02*
X015186Y018645D01*
X015284Y018742D02*
X015089Y018547D01*
X015284Y018742D02*
X015154Y018872D01*
X014899Y019127D02*
X014769Y019127D01*
X014704Y019062D01*
X014704Y018932D01*
X016480Y019124D02*
X016480Y019254D01*
X016545Y019319D01*
X016675Y019319D01*
X016738Y019257D02*
X016868Y019127D01*
X016673Y018932D01*
X016543Y019062D01*
X016705Y019094D02*
X016770Y019029D01*
X016768Y018902D02*
X016930Y019064D01*
X017060Y018934D02*
X016897Y018772D01*
X016832Y018772D01*
X016768Y018837D01*
X016768Y018902D01*
X016927Y018677D02*
X017057Y018547D01*
X017252Y018742D01*
X017282Y018647D02*
X017249Y018615D01*
X017249Y018550D01*
X017347Y018453D01*
X017444Y018550D02*
X017249Y018355D01*
X017152Y018453D01*
X017152Y018517D01*
X017185Y018550D01*
X017249Y018550D01*
X017282Y018647D02*
X017347Y018647D01*
X017444Y018550D01*
X017508Y018487D02*
X017508Y018357D01*
X017443Y018292D01*
X017313Y018292D01*
X017632Y017972D02*
X017762Y017842D01*
X017957Y018037D01*
X017827Y018167D01*
X017795Y018005D02*
X017860Y017940D01*
X017987Y017942D02*
X018052Y017942D01*
X018149Y017845D01*
X017954Y017650D01*
X017857Y017748D01*
X017857Y017813D01*
X017987Y017942D01*
X020067Y015537D02*
X020262Y015537D01*
X020549Y015250D02*
X020679Y015120D01*
X020712Y015153D02*
X020712Y015283D01*
X020582Y015283D01*
X020452Y015153D01*
X020582Y015023D02*
X020712Y015153D01*
X020774Y015090D02*
X020774Y015025D01*
X020871Y014928D01*
X020774Y015025D02*
X020709Y015025D01*
X020677Y014993D01*
X020677Y014928D01*
X020774Y014831D01*
X020969Y015025D01*
X020871Y015123D01*
X020807Y015123D01*
X020774Y015090D01*
X023378Y016061D02*
X023378Y016337D01*
X023470Y016245D01*
X023562Y016337D01*
X023562Y016061D01*
X023650Y016107D02*
X023650Y016291D01*
X023696Y016337D01*
X023788Y016337D01*
X023834Y016291D01*
X023834Y016107D01*
X023788Y016061D01*
X023696Y016061D01*
X023650Y016107D01*
X023922Y016107D02*
X023968Y016061D01*
X024060Y016061D01*
X024106Y016107D01*
X024106Y016291D01*
X024060Y016337D01*
X023968Y016337D01*
X023922Y016291D01*
X023913Y017045D02*
X023913Y017321D01*
X023729Y017045D01*
X023729Y017321D01*
X023641Y017275D02*
X023641Y017091D01*
X023595Y017045D01*
X023503Y017045D01*
X023457Y017091D01*
X023457Y017275D02*
X023503Y017321D01*
X023595Y017321D01*
X023641Y017275D01*
X024001Y017321D02*
X024184Y017321D01*
X024184Y017045D01*
X024001Y017045D01*
X024093Y017183D02*
X024184Y017183D01*
X023097Y017183D02*
X022913Y017183D01*
X022913Y017229D02*
X022913Y017045D01*
X023097Y017045D02*
X023097Y017229D01*
X023005Y017321D01*
X022913Y017229D01*
X022959Y018069D02*
X023097Y018069D01*
X023097Y018345D01*
X022959Y018345D01*
X022913Y018299D01*
X022913Y018253D01*
X022959Y018207D01*
X023097Y018207D01*
X022959Y018207D02*
X022913Y018161D01*
X022913Y018115D01*
X022959Y018069D01*
X023457Y018115D02*
X023503Y018069D01*
X023595Y018069D01*
X023641Y018115D01*
X023641Y018299D01*
X023595Y018345D01*
X023503Y018345D01*
X023457Y018299D01*
X023729Y018345D02*
X023729Y018069D01*
X023913Y018345D01*
X023913Y018069D01*
X024001Y018069D02*
X024184Y018069D01*
X024184Y018345D01*
X024001Y018345D01*
X024093Y018207D02*
X024184Y018207D01*
X024145Y019093D02*
X023961Y019093D01*
X023873Y019093D02*
X023873Y019368D01*
X023690Y019093D01*
X023690Y019368D01*
X023601Y019322D02*
X023601Y019139D01*
X023555Y019093D01*
X023464Y019093D01*
X023418Y019139D01*
X023418Y019322D02*
X023464Y019368D01*
X023555Y019368D01*
X023601Y019322D01*
X023961Y019368D02*
X024145Y019368D01*
X024145Y019093D01*
X024145Y019230D02*
X024053Y019230D01*
X023058Y019276D02*
X023012Y019230D01*
X022920Y019230D01*
X022874Y019185D01*
X022874Y019139D01*
X022920Y019093D01*
X023012Y019093D01*
X023058Y019139D01*
X023058Y019276D02*
X023058Y019322D01*
X023012Y019368D01*
X022920Y019368D01*
X022874Y019322D01*
X022786Y019368D02*
X022786Y019093D01*
X022694Y019185D01*
X022602Y019093D01*
X022602Y019368D01*
X023385Y011927D02*
X023523Y011927D01*
X023523Y011652D01*
X023385Y011652D01*
X023339Y011698D01*
X023339Y011881D01*
X023385Y011927D01*
X023611Y011927D02*
X023611Y011652D01*
X023794Y011927D01*
X023794Y011652D01*
X023883Y011698D02*
X023883Y011789D01*
X023975Y011789D01*
X024066Y011698D02*
X024020Y011652D01*
X023929Y011652D01*
X023883Y011698D01*
X023883Y011881D02*
X023929Y011927D01*
X024020Y011927D01*
X024066Y011881D01*
X024066Y011698D01*
X024014Y010858D02*
X024014Y010674D01*
X024106Y010766D02*
X023922Y010766D01*
X023834Y010812D02*
X023742Y010904D01*
X023742Y010628D01*
X023834Y010628D02*
X023650Y010628D01*
X023562Y010628D02*
X023378Y010812D01*
X023378Y010858D01*
X023424Y010904D01*
X023516Y010904D01*
X023562Y010858D01*
X023562Y010628D02*
X023378Y010628D01*
X023290Y010720D02*
X023198Y010628D01*
X023106Y010720D01*
X023106Y010904D01*
X023018Y010904D02*
X022880Y010904D01*
X022835Y010858D01*
X022835Y010674D01*
X022880Y010628D01*
X023018Y010628D01*
X023018Y010904D01*
X023290Y010904D02*
X023290Y010720D01*
X022746Y010674D02*
X022700Y010628D01*
X022609Y010628D01*
X022563Y010674D01*
X022746Y010674D02*
X022746Y010858D01*
X022700Y010904D01*
X022609Y010904D01*
X022563Y010858D01*
X022203Y010904D02*
X022111Y010904D01*
X022157Y010904D02*
X022157Y010628D01*
X022203Y010628D02*
X022111Y010628D01*
X022021Y010628D02*
X022021Y010904D01*
X021838Y010628D01*
X021838Y010904D01*
M02*
