G75*
%MOIN*%
%OFA0B0*%
%FSLAX24Y24*%
%IPPOS*%
%LPD*%
%AMOC8*
5,1,8,0,0,1.08239X$1,22.5*
%
%ADD10C,0.0000*%
%ADD11C,0.0030*%
%ADD12C,0.0020*%
%ADD13C,0.0060*%
%ADD14C,0.0050*%
%ADD15C,0.0040*%
%ADD16C,0.0100*%
%ADD17C,0.0080*%
%ADD18C,0.0079*%
%ADD19R,0.0266X0.0965*%
%ADD20R,0.0095X0.0005*%
%ADD21R,0.0105X0.0005*%
%ADD22R,0.0200X0.0005*%
%ADD23R,0.0190X0.0005*%
%ADD24R,0.0255X0.0005*%
%ADD25R,0.0250X0.0005*%
%ADD26R,0.0295X0.0005*%
%ADD27R,0.0290X0.0005*%
%ADD28R,0.0310X0.0005*%
%ADD29R,0.0330X0.0005*%
%ADD30R,0.0325X0.0005*%
%ADD31R,0.0320X0.0005*%
%ADD32R,0.0360X0.0005*%
%ADD33R,0.0350X0.0005*%
%ADD34R,0.0385X0.0005*%
%ADD35R,0.0375X0.0005*%
%ADD36R,0.0405X0.0005*%
%ADD37R,0.0395X0.0005*%
%ADD38R,0.0420X0.0005*%
%ADD39R,0.0440X0.0005*%
%ADD40R,0.0435X0.0005*%
%ADD41R,0.0455X0.0005*%
%ADD42R,0.0470X0.0005*%
%ADD43R,0.0485X0.0005*%
%ADD44R,0.0500X0.0005*%
%ADD45R,0.0495X0.0005*%
%ADD46R,0.0315X0.0005*%
%ADD47R,0.0510X0.0005*%
%ADD48R,0.0520X0.0005*%
%ADD49R,0.0530X0.0005*%
%ADD50R,0.0540X0.0005*%
%ADD51R,0.0545X0.0005*%
%ADD52R,0.0555X0.0005*%
%ADD53R,0.0560X0.0005*%
%ADD54R,0.0570X0.0005*%
%ADD55R,0.0575X0.0005*%
%ADD56R,0.0585X0.0005*%
%ADD57R,0.0590X0.0005*%
%ADD58R,0.0305X0.0005*%
%ADD59R,0.0600X0.0005*%
%ADD60R,0.0605X0.0005*%
%ADD61R,0.0610X0.0005*%
%ADD62R,0.0615X0.0005*%
%ADD63R,0.0620X0.0005*%
%ADD64R,0.0625X0.0005*%
%ADD65R,0.0630X0.0005*%
%ADD66R,0.0635X0.0005*%
%ADD67R,0.0640X0.0005*%
%ADD68R,0.0645X0.0005*%
%ADD69R,0.0650X0.0005*%
%ADD70R,0.0655X0.0005*%
%ADD71R,0.0665X0.0005*%
%ADD72R,0.0660X0.0005*%
%ADD73R,0.0670X0.0005*%
%ADD74R,0.0285X0.0005*%
%ADD75R,0.0675X0.0005*%
%ADD76R,0.0280X0.0005*%
%ADD77R,0.0680X0.0005*%
%ADD78R,0.0275X0.0005*%
%ADD79R,0.0270X0.0005*%
%ADD80R,0.0300X0.0005*%
%ADD81R,0.0265X0.0005*%
%ADD82R,0.0335X0.0005*%
%ADD83R,0.0735X0.0005*%
%ADD84R,0.0595X0.0005*%
%ADD85R,0.0580X0.0005*%
%ADD86R,0.0525X0.0005*%
%ADD87R,0.0550X0.0005*%
%ADD88R,0.0730X0.0005*%
%ADD89R,0.0690X0.0005*%
%ADD90R,0.0535X0.0005*%
%ADD91R,0.0695X0.0005*%
%ADD92R,0.0700X0.0005*%
%ADD93R,0.0705X0.0005*%
%ADD94R,0.0715X0.0005*%
%ADD95R,0.0725X0.0005*%
%ADD96R,0.0720X0.0005*%
%ADD97R,0.0565X0.0005*%
%ADD98R,0.0740X0.0005*%
%ADD99R,0.0745X0.0005*%
%ADD100R,0.0750X0.0005*%
%ADD101R,0.0755X0.0005*%
%ADD102R,0.0345X0.0005*%
%ADD103R,0.0760X0.0005*%
%ADD104R,0.0765X0.0005*%
%ADD105R,0.0770X0.0005*%
%ADD106R,0.0415X0.0005*%
%ADD107R,0.0260X0.0005*%
%ADD108R,0.0775X0.0005*%
%ADD109R,0.0020X0.0005*%
%ADD110R,0.0780X0.0005*%
%ADD111R,0.0785X0.0005*%
%ADD112R,0.0790X0.0005*%
%ADD113R,0.0795X0.0005*%
%ADD114R,0.0365X0.0005*%
%ADD115R,0.0340X0.0005*%
%ADD116R,0.0245X0.0005*%
%ADD117R,0.0240X0.0005*%
%ADD118R,0.0235X0.0005*%
%ADD119R,0.0230X0.0005*%
%ADD120R,0.0225X0.0005*%
%ADD121R,0.0220X0.0005*%
%ADD122R,0.0215X0.0005*%
%ADD123R,0.0110X0.0005*%
%ADD124R,0.0080X0.0005*%
%ADD125R,0.0210X0.0005*%
%ADD126R,0.0085X0.0005*%
%ADD127R,0.0100X0.0005*%
%ADD128R,0.0505X0.0005*%
%ADD129R,0.0090X0.0005*%
%ADD130R,0.0195X0.0005*%
%ADD131R,0.0490X0.0005*%
%ADD132R,0.0480X0.0005*%
%ADD133R,0.0465X0.0005*%
%ADD134R,0.0180X0.0005*%
%ADD135R,0.0445X0.0005*%
%ADD136R,0.0175X0.0005*%
%ADD137R,0.0170X0.0005*%
%ADD138R,0.0165X0.0005*%
%ADD139R,0.0155X0.0005*%
%ADD140R,0.0450X0.0005*%
%ADD141R,0.0150X0.0005*%
%ADD142R,0.0140X0.0005*%
%ADD143R,0.0130X0.0005*%
%ADD144R,0.0115X0.0005*%
%ADD145R,0.0370X0.0005*%
%ADD146R,0.0070X0.0005*%
%ADD147R,0.0120X0.0005*%
%ADD148R,0.0125X0.0005*%
%ADD149R,0.0135X0.0005*%
%ADD150R,0.0145X0.0005*%
%ADD151R,0.0075X0.0005*%
%ADD152R,0.0710X0.0005*%
%ADD153R,0.0685X0.0005*%
%ADD154R,0.0160X0.0005*%
%ADD155R,0.0515X0.0005*%
%ADD156R,0.0020X0.0010*%
%ADD157R,0.0030X0.0010*%
%ADD158R,0.0050X0.0010*%
%ADD159R,0.0080X0.0010*%
%ADD160R,0.0100X0.0010*%
%ADD161R,0.0130X0.0010*%
%ADD162R,0.0120X0.0010*%
%ADD163R,0.0150X0.0010*%
%ADD164R,0.0180X0.0010*%
%ADD165R,0.0170X0.0010*%
%ADD166R,0.0200X0.0010*%
%ADD167R,0.0220X0.0010*%
%ADD168R,0.0250X0.0010*%
%ADD169R,0.0270X0.0010*%
%ADD170R,0.0300X0.0010*%
%ADD171R,0.0320X0.0010*%
%ADD172R,0.0350X0.0010*%
%ADD173R,0.0360X0.0010*%
%ADD174R,0.0370X0.0010*%
%ADD175R,0.0390X0.0010*%
%ADD176R,0.0410X0.0010*%
%ADD177R,0.0420X0.0010*%
%ADD178R,0.0430X0.0010*%
%ADD179R,0.0440X0.0010*%
%ADD180R,0.0460X0.0010*%
%ADD181R,0.0040X0.0010*%
%ADD182R,0.0470X0.0010*%
%ADD183R,0.0480X0.0010*%
%ADD184R,0.0070X0.0010*%
%ADD185R,0.0490X0.0010*%
%ADD186R,0.0520X0.0010*%
%ADD187R,0.0090X0.0010*%
%ADD188R,0.0540X0.0010*%
%ADD189R,0.0570X0.0010*%
%ADD190R,0.0140X0.0010*%
%ADD191R,0.0580X0.0010*%
%ADD192R,0.0160X0.0010*%
%ADD193R,0.0590X0.0010*%
%ADD194R,0.0620X0.0010*%
%ADD195R,0.0190X0.0010*%
%ADD196R,0.0650X0.0010*%
%ADD197R,0.0210X0.0010*%
%ADD198R,0.0640X0.0010*%
%ADD199R,0.0910X0.0010*%
%ADD200R,0.0920X0.0010*%
%ADD201R,0.0940X0.0010*%
%ADD202R,0.0950X0.0010*%
%ADD203R,0.0970X0.0010*%
%ADD204R,0.0960X0.0010*%
%ADD205R,0.0980X0.0010*%
%ADD206R,0.0990X0.0010*%
%ADD207R,0.1010X0.0010*%
%ADD208R,0.1020X0.0010*%
%ADD209R,0.1000X0.0010*%
%ADD210R,0.0930X0.0010*%
%ADD211R,0.1030X0.0010*%
%ADD212R,0.1040X0.0010*%
%ADD213R,0.1050X0.0010*%
%ADD214R,0.1060X0.0010*%
%ADD215R,0.1070X0.0010*%
%ADD216R,0.1080X0.0010*%
%ADD217R,0.1090X0.0010*%
%ADD218R,0.1100X0.0010*%
%ADD219R,0.1110X0.0010*%
%ADD220R,0.1160X0.0010*%
%ADD221R,0.1210X0.0010*%
%ADD222R,0.1250X0.0010*%
%ADD223R,0.1240X0.0010*%
%ADD224R,0.1290X0.0010*%
%ADD225R,0.1300X0.0010*%
%ADD226R,0.1340X0.0010*%
%ADD227R,0.1390X0.0010*%
%ADD228R,0.1380X0.0010*%
%ADD229R,0.1370X0.0010*%
%ADD230R,0.1360X0.0010*%
%ADD231R,0.1350X0.0010*%
%ADD232R,0.1330X0.0010*%
%ADD233R,0.1400X0.0010*%
%ADD234R,0.1320X0.0010*%
%ADD235R,0.1270X0.0010*%
%ADD236R,0.1220X0.0010*%
%ADD237R,0.1180X0.0010*%
%ADD238R,0.1140X0.0010*%
%ADD239R,0.1130X0.0010*%
%ADD240R,0.1120X0.0010*%
%ADD241R,0.1150X0.0010*%
%ADD242R,0.1170X0.0010*%
%ADD243R,0.1230X0.0010*%
%ADD244R,0.2580X0.0010*%
%ADD245R,0.2570X0.0010*%
%ADD246R,0.2560X0.0010*%
%ADD247R,0.2540X0.0010*%
%ADD248R,0.2530X0.0010*%
%ADD249R,0.2520X0.0010*%
%ADD250R,0.2500X0.0010*%
%ADD251R,0.2480X0.0010*%
%ADD252R,0.2470X0.0010*%
%ADD253R,0.2460X0.0010*%
%ADD254R,0.2440X0.0010*%
%ADD255R,0.2590X0.0010*%
%ADD256R,0.2610X0.0010*%
%ADD257R,0.2620X0.0010*%
%ADD258R,0.2640X0.0010*%
%ADD259R,0.2650X0.0010*%
%ADD260R,0.2660X0.0010*%
%ADD261R,0.2680X0.0010*%
%ADD262R,0.2690X0.0010*%
%ADD263R,0.2700X0.0010*%
%ADD264R,0.2720X0.0010*%
%ADD265R,0.2730X0.0010*%
%ADD266R,0.2740X0.0010*%
%ADD267R,0.2760X0.0010*%
%ADD268R,0.2770X0.0010*%
%ADD269R,0.2780X0.0010*%
%ADD270R,0.2800X0.0010*%
%ADD271R,0.2820X0.0010*%
%ADD272R,0.2840X0.0010*%
%ADD273R,0.2860X0.0010*%
%ADD274R,0.2880X0.0010*%
%ADD275R,0.2900X0.0010*%
%ADD276R,0.2910X0.0010*%
%ADD277R,0.2920X0.0010*%
%ADD278R,0.2940X0.0010*%
%ADD279R,0.2950X0.0010*%
%ADD280R,0.2960X0.0010*%
%ADD281R,0.2980X0.0010*%
%ADD282R,0.2990X0.0010*%
%ADD283R,0.0700X0.0010*%
%ADD284R,0.0670X0.0010*%
%ADD285R,0.1280X0.0010*%
%ADD286R,0.0600X0.0010*%
%ADD287R,0.0550X0.0010*%
%ADD288R,0.0530X0.0010*%
%ADD289R,0.0500X0.0010*%
%ADD290R,0.0450X0.0010*%
%ADD291R,0.0880X0.0010*%
%ADD292R,0.0840X0.0010*%
%ADD293R,0.0400X0.0010*%
%ADD294R,0.0800X0.0010*%
%ADD295R,0.0380X0.0010*%
%ADD296R,0.0740X0.0010*%
%ADD297R,0.0720X0.0010*%
%ADD298R,0.0330X0.0010*%
%ADD299R,0.0680X0.0010*%
%ADD300R,0.0280X0.0010*%
%ADD301R,0.0230X0.0010*%
%ADD302R,0.0660X0.0010*%
%ADD303R,0.0110X0.0010*%
%ADD304R,0.0060X0.0010*%
%ADD305R,0.0630X0.0010*%
%ADD306R,0.0610X0.0010*%
%ADD307R,0.0560X0.0010*%
%ADD308R,0.0020X0.7980*%
%ADD309R,0.0020X0.8020*%
%ADD310R,0.0020X0.8060*%
%ADD311R,0.0020X0.3820*%
%ADD312R,0.0020X0.0340*%
%ADD313R,0.0020X0.1340*%
%ADD314R,0.0020X0.0120*%
%ADD315R,0.0020X0.0240*%
%ADD316R,0.0020X0.1560*%
%ADD317R,0.0020X0.1280*%
%ADD318R,0.0020X0.0080*%
%ADD319R,0.0020X0.0220*%
%ADD320R,0.0020X0.1540*%
%ADD321R,0.0020X0.0200*%
%ADD322R,0.0020X0.1260*%
%ADD323R,0.0020X0.0040*%
%ADD324R,0.0020X0.1220*%
%ADD325R,0.0020X0.2240*%
%ADD326R,0.0020X0.0180*%
%ADD327R,0.0020X0.1240*%
%ADD328R,0.0020X0.1120*%
%ADD329R,0.0020X0.2140*%
%ADD330R,0.0020X0.1060*%
%ADD331R,0.0020X0.2060*%
%ADD332R,0.0020X0.0140*%
%ADD333R,0.0020X0.0160*%
%ADD334R,0.0020X0.1580*%
%ADD335R,0.0020X0.1000*%
%ADD336R,0.0020X0.2020*%
%ADD337R,0.0020X0.0060*%
%ADD338R,0.0020X0.0940*%
%ADD339R,0.0020X0.1960*%
%ADD340R,0.0020X0.1200*%
%ADD341R,0.0020X0.0900*%
%ADD342R,0.0020X0.1920*%
%ADD343R,0.0020X0.1600*%
%ADD344R,0.0020X0.0860*%
%ADD345R,0.0020X0.1880*%
%ADD346R,0.0020X0.1400*%
%ADD347R,0.0020X0.0820*%
%ADD348R,0.0020X0.1840*%
%ADD349R,0.0020X0.1320*%
%ADD350R,0.0020X0.1620*%
%ADD351R,0.0020X0.0780*%
%ADD352R,0.0020X0.1800*%
%ADD353R,0.0020X0.0100*%
%ADD354R,0.0020X0.0760*%
%ADD355R,0.0020X0.1760*%
%ADD356R,0.0020X0.0720*%
%ADD357R,0.0020X0.1740*%
%ADD358R,0.0020X0.1180*%
%ADD359R,0.0020X0.1640*%
%ADD360R,0.0020X0.0700*%
%ADD361R,0.0020X0.1720*%
%ADD362R,0.0020X0.1160*%
%ADD363R,0.0020X0.0260*%
%ADD364R,0.0020X0.0020*%
%ADD365R,0.0020X0.0660*%
%ADD366R,0.0020X0.1680*%
%ADD367R,0.0020X0.1140*%
%ADD368R,0.0020X0.0640*%
%ADD369R,0.0020X0.0480*%
%ADD370R,0.0020X0.1660*%
%ADD371R,0.0020X0.0620*%
%ADD372R,0.0020X0.0600*%
%ADD373R,0.0020X0.0740*%
%ADD374R,0.0020X0.1100*%
%ADD375R,0.0020X0.0580*%
%ADD376R,0.0020X0.0840*%
%ADD377R,0.0020X0.0560*%
%ADD378R,0.0020X0.0920*%
%ADD379R,0.0020X0.0540*%
%ADD380R,0.0020X0.1700*%
%ADD381R,0.0020X0.0520*%
%ADD382R,0.0020X0.0500*%
%ADD383R,0.0020X0.3500*%
%ADD384R,0.0020X0.2120*%
%ADD385R,0.0020X0.0460*%
%ADD386R,0.0020X0.5740*%
%ADD387R,0.0020X0.0400*%
%ADD388R,0.0020X0.5720*%
%ADD389R,0.0020X0.0440*%
%ADD390R,0.0020X0.0360*%
%ADD391R,0.0020X0.5700*%
%ADD392R,0.0020X0.0320*%
%ADD393R,0.0020X0.5680*%
%ADD394R,0.0020X0.0420*%
%ADD395R,0.0020X0.0300*%
%ADD396R,0.0020X0.0280*%
%ADD397R,0.0020X0.5660*%
%ADD398R,0.0020X0.0380*%
%ADD399R,0.0020X0.5640*%
%ADD400R,0.0020X0.5620*%
%ADD401R,0.0020X0.0980*%
%ADD402R,0.0020X0.0680*%
%ADD403R,0.0020X0.7940*%
%ADD404R,0.0020X0.7900*%
%ADD405R,0.0020X0.7780*%
D10*
X001439Y000736D02*
X017187Y000736D01*
X017226Y000738D01*
X017264Y000744D01*
X017301Y000753D01*
X017338Y000766D01*
X017373Y000783D01*
X017406Y000802D01*
X017437Y000825D01*
X017466Y000851D01*
X017492Y000880D01*
X017515Y000911D01*
X017534Y000944D01*
X017551Y000979D01*
X017564Y001016D01*
X017573Y001053D01*
X017579Y001091D01*
X017581Y001130D01*
X017580Y001130D02*
X017580Y008217D01*
X017582Y008256D01*
X017588Y008294D01*
X017597Y008331D01*
X017610Y008368D01*
X017627Y008403D01*
X017646Y008436D01*
X017669Y008467D01*
X017695Y008496D01*
X017724Y008522D01*
X017755Y008545D01*
X017788Y008564D01*
X017823Y008581D01*
X017860Y008594D01*
X017897Y008603D01*
X017935Y008609D01*
X017974Y008611D01*
X018013Y008609D01*
X018051Y008603D01*
X018088Y008594D01*
X018125Y008581D01*
X018160Y008564D01*
X018193Y008545D01*
X018224Y008522D01*
X018253Y008496D01*
X018279Y008467D01*
X018302Y008436D01*
X018321Y008403D01*
X018338Y008368D01*
X018351Y008331D01*
X018360Y008294D01*
X018366Y008256D01*
X018368Y008217D01*
X018368Y001130D01*
X018367Y001130D02*
X018369Y001091D01*
X018375Y001053D01*
X018384Y001016D01*
X018397Y000979D01*
X018414Y000944D01*
X018433Y000911D01*
X018456Y000880D01*
X018482Y000851D01*
X018511Y000825D01*
X018542Y000802D01*
X018575Y000783D01*
X018610Y000766D01*
X018647Y000753D01*
X018684Y000744D01*
X018722Y000738D01*
X018761Y000736D01*
X024667Y000736D01*
X024733Y000738D01*
X024799Y000743D01*
X024865Y000753D01*
X024930Y000766D01*
X024994Y000782D01*
X025057Y000802D01*
X025119Y000826D01*
X025179Y000853D01*
X025238Y000883D01*
X025295Y000917D01*
X025350Y000954D01*
X025403Y000994D01*
X025454Y001036D01*
X025502Y001082D01*
X025548Y001130D01*
X025590Y001181D01*
X025630Y001234D01*
X025667Y001289D01*
X025701Y001346D01*
X025731Y001405D01*
X025758Y001465D01*
X025782Y001527D01*
X025802Y001590D01*
X025818Y001654D01*
X025831Y001719D01*
X025841Y001785D01*
X025846Y001851D01*
X025848Y001917D01*
X025848Y021602D01*
X025846Y021668D01*
X025841Y021734D01*
X025831Y021800D01*
X025818Y021865D01*
X025802Y021929D01*
X025782Y021992D01*
X025758Y022054D01*
X025731Y022114D01*
X025701Y022173D01*
X025667Y022230D01*
X025630Y022285D01*
X025590Y022338D01*
X025548Y022389D01*
X025502Y022437D01*
X025454Y022483D01*
X025403Y022525D01*
X025350Y022565D01*
X025295Y022602D01*
X025238Y022636D01*
X025179Y022666D01*
X025119Y022693D01*
X025057Y022717D01*
X024994Y022737D01*
X024930Y022753D01*
X024865Y022766D01*
X024799Y022776D01*
X024733Y022781D01*
X024667Y022783D01*
X001439Y022783D01*
X001373Y022781D01*
X001307Y022776D01*
X001241Y022766D01*
X001176Y022753D01*
X001112Y022737D01*
X001049Y022717D01*
X000987Y022693D01*
X000927Y022666D01*
X000868Y022636D01*
X000811Y022602D01*
X000756Y022565D01*
X000703Y022525D01*
X000652Y022483D01*
X000604Y022437D01*
X000558Y022389D01*
X000516Y022338D01*
X000476Y022285D01*
X000439Y022230D01*
X000405Y022173D01*
X000375Y022114D01*
X000348Y022054D01*
X000324Y021992D01*
X000304Y021929D01*
X000288Y021865D01*
X000275Y021800D01*
X000265Y021734D01*
X000260Y021668D01*
X000258Y021602D01*
X000257Y021602D02*
X000100Y015500D01*
X000108Y015459D01*
X000120Y015419D01*
X000136Y015381D01*
X000155Y015343D01*
X000177Y015308D01*
X000202Y015275D01*
X000230Y015243D01*
X000261Y015215D01*
X000294Y015189D01*
X000329Y015166D01*
X000366Y015147D01*
X000404Y015130D01*
X000444Y015118D01*
X000484Y015108D01*
X000526Y015102D01*
X000568Y015100D01*
X000609Y015101D01*
X000651Y015107D01*
X000651Y015106D02*
X001832Y015106D01*
X001832Y015107D02*
X001871Y015105D01*
X001909Y015099D01*
X001946Y015090D01*
X001983Y015077D01*
X002018Y015060D01*
X002051Y015041D01*
X002082Y015018D01*
X002111Y014992D01*
X002137Y014963D01*
X002160Y014932D01*
X002179Y014899D01*
X002196Y014864D01*
X002209Y014827D01*
X002218Y014790D01*
X002224Y014752D01*
X002226Y014713D01*
X002226Y008807D01*
X002224Y008768D01*
X002218Y008730D01*
X002209Y008693D01*
X002196Y008656D01*
X002179Y008621D01*
X002160Y008588D01*
X002137Y008557D01*
X002111Y008528D01*
X002082Y008502D01*
X002051Y008479D01*
X002018Y008460D01*
X001983Y008443D01*
X001946Y008430D01*
X001909Y008421D01*
X001871Y008415D01*
X001832Y008413D01*
X000651Y008413D01*
X000651Y008414D02*
X000612Y008412D01*
X000574Y008406D01*
X000537Y008397D01*
X000500Y008384D01*
X000465Y008367D01*
X000432Y008348D01*
X000401Y008325D01*
X000372Y008299D01*
X000346Y008270D01*
X000323Y008239D01*
X000304Y008206D01*
X000287Y008171D01*
X000274Y008134D01*
X000265Y008097D01*
X000259Y008059D01*
X000257Y008020D01*
X000257Y001917D01*
X000258Y001917D02*
X000260Y001851D01*
X000265Y001785D01*
X000275Y001719D01*
X000288Y001654D01*
X000304Y001590D01*
X000324Y001527D01*
X000348Y001465D01*
X000375Y001405D01*
X000405Y001346D01*
X000439Y001289D01*
X000476Y001234D01*
X000516Y001181D01*
X000558Y001130D01*
X000604Y001082D01*
X000652Y001036D01*
X000703Y000994D01*
X000756Y000954D01*
X000811Y000917D01*
X000868Y000883D01*
X000927Y000853D01*
X000987Y000826D01*
X001049Y000802D01*
X001112Y000782D01*
X001176Y000766D01*
X001241Y000753D01*
X001307Y000743D01*
X001373Y000738D01*
X001439Y000736D01*
X001084Y002114D02*
X001086Y002161D01*
X001092Y002207D01*
X001102Y002253D01*
X001115Y002298D01*
X001133Y002341D01*
X001154Y002383D01*
X001178Y002423D01*
X001206Y002460D01*
X001237Y002495D01*
X001271Y002528D01*
X001307Y002557D01*
X001346Y002583D01*
X001387Y002606D01*
X001430Y002625D01*
X001474Y002641D01*
X001519Y002653D01*
X001565Y002661D01*
X001612Y002665D01*
X001658Y002665D01*
X001705Y002661D01*
X001751Y002653D01*
X001796Y002641D01*
X001840Y002625D01*
X001883Y002606D01*
X001924Y002583D01*
X001963Y002557D01*
X001999Y002528D01*
X002033Y002495D01*
X002064Y002460D01*
X002092Y002423D01*
X002116Y002383D01*
X002137Y002341D01*
X002155Y002298D01*
X002168Y002253D01*
X002178Y002207D01*
X002184Y002161D01*
X002186Y002114D01*
X002184Y002067D01*
X002178Y002021D01*
X002168Y001975D01*
X002155Y001930D01*
X002137Y001887D01*
X002116Y001845D01*
X002092Y001805D01*
X002064Y001768D01*
X002033Y001733D01*
X001999Y001700D01*
X001963Y001671D01*
X001924Y001645D01*
X001883Y001622D01*
X001840Y001603D01*
X001796Y001587D01*
X001751Y001575D01*
X001705Y001567D01*
X001658Y001563D01*
X001612Y001563D01*
X001565Y001567D01*
X001519Y001575D01*
X001474Y001587D01*
X001430Y001603D01*
X001387Y001622D01*
X001346Y001645D01*
X001307Y001671D01*
X001271Y001700D01*
X001237Y001733D01*
X001206Y001768D01*
X001178Y001805D01*
X001154Y001845D01*
X001133Y001887D01*
X001115Y001930D01*
X001102Y001975D01*
X001092Y002021D01*
X001086Y002067D01*
X001084Y002114D01*
X023919Y002114D02*
X023921Y002161D01*
X023927Y002207D01*
X023937Y002253D01*
X023950Y002298D01*
X023968Y002341D01*
X023989Y002383D01*
X024013Y002423D01*
X024041Y002460D01*
X024072Y002495D01*
X024106Y002528D01*
X024142Y002557D01*
X024181Y002583D01*
X024222Y002606D01*
X024265Y002625D01*
X024309Y002641D01*
X024354Y002653D01*
X024400Y002661D01*
X024447Y002665D01*
X024493Y002665D01*
X024540Y002661D01*
X024586Y002653D01*
X024631Y002641D01*
X024675Y002625D01*
X024718Y002606D01*
X024759Y002583D01*
X024798Y002557D01*
X024834Y002528D01*
X024868Y002495D01*
X024899Y002460D01*
X024927Y002423D01*
X024951Y002383D01*
X024972Y002341D01*
X024990Y002298D01*
X025003Y002253D01*
X025013Y002207D01*
X025019Y002161D01*
X025021Y002114D01*
X025019Y002067D01*
X025013Y002021D01*
X025003Y001975D01*
X024990Y001930D01*
X024972Y001887D01*
X024951Y001845D01*
X024927Y001805D01*
X024899Y001768D01*
X024868Y001733D01*
X024834Y001700D01*
X024798Y001671D01*
X024759Y001645D01*
X024718Y001622D01*
X024675Y001603D01*
X024631Y001587D01*
X024586Y001575D01*
X024540Y001567D01*
X024493Y001563D01*
X024447Y001563D01*
X024400Y001567D01*
X024354Y001575D01*
X024309Y001587D01*
X024265Y001603D01*
X024222Y001622D01*
X024181Y001645D01*
X024142Y001671D01*
X024106Y001700D01*
X024072Y001733D01*
X024041Y001768D01*
X024013Y001805D01*
X023989Y001845D01*
X023968Y001887D01*
X023950Y001930D01*
X023937Y001975D01*
X023927Y002021D01*
X023921Y002067D01*
X023919Y002114D01*
X023919Y021406D02*
X023921Y021453D01*
X023927Y021499D01*
X023937Y021545D01*
X023950Y021590D01*
X023968Y021633D01*
X023989Y021675D01*
X024013Y021715D01*
X024041Y021752D01*
X024072Y021787D01*
X024106Y021820D01*
X024142Y021849D01*
X024181Y021875D01*
X024222Y021898D01*
X024265Y021917D01*
X024309Y021933D01*
X024354Y021945D01*
X024400Y021953D01*
X024447Y021957D01*
X024493Y021957D01*
X024540Y021953D01*
X024586Y021945D01*
X024631Y021933D01*
X024675Y021917D01*
X024718Y021898D01*
X024759Y021875D01*
X024798Y021849D01*
X024834Y021820D01*
X024868Y021787D01*
X024899Y021752D01*
X024927Y021715D01*
X024951Y021675D01*
X024972Y021633D01*
X024990Y021590D01*
X025003Y021545D01*
X025013Y021499D01*
X025019Y021453D01*
X025021Y021406D01*
X025019Y021359D01*
X025013Y021313D01*
X025003Y021267D01*
X024990Y021222D01*
X024972Y021179D01*
X024951Y021137D01*
X024927Y021097D01*
X024899Y021060D01*
X024868Y021025D01*
X024834Y020992D01*
X024798Y020963D01*
X024759Y020937D01*
X024718Y020914D01*
X024675Y020895D01*
X024631Y020879D01*
X024586Y020867D01*
X024540Y020859D01*
X024493Y020855D01*
X024447Y020855D01*
X024400Y020859D01*
X024354Y020867D01*
X024309Y020879D01*
X024265Y020895D01*
X024222Y020914D01*
X024181Y020937D01*
X024142Y020963D01*
X024106Y020992D01*
X024072Y021025D01*
X024041Y021060D01*
X024013Y021097D01*
X023989Y021137D01*
X023968Y021179D01*
X023950Y021222D01*
X023937Y021267D01*
X023927Y021313D01*
X023921Y021359D01*
X023919Y021406D01*
X001084Y021406D02*
X001086Y021453D01*
X001092Y021499D01*
X001102Y021545D01*
X001115Y021590D01*
X001133Y021633D01*
X001154Y021675D01*
X001178Y021715D01*
X001206Y021752D01*
X001237Y021787D01*
X001271Y021820D01*
X001307Y021849D01*
X001346Y021875D01*
X001387Y021898D01*
X001430Y021917D01*
X001474Y021933D01*
X001519Y021945D01*
X001565Y021953D01*
X001612Y021957D01*
X001658Y021957D01*
X001705Y021953D01*
X001751Y021945D01*
X001796Y021933D01*
X001840Y021917D01*
X001883Y021898D01*
X001924Y021875D01*
X001963Y021849D01*
X001999Y021820D01*
X002033Y021787D01*
X002064Y021752D01*
X002092Y021715D01*
X002116Y021675D01*
X002137Y021633D01*
X002155Y021590D01*
X002168Y021545D01*
X002178Y021499D01*
X002184Y021453D01*
X002186Y021406D01*
X002184Y021359D01*
X002178Y021313D01*
X002168Y021267D01*
X002155Y021222D01*
X002137Y021179D01*
X002116Y021137D01*
X002092Y021097D01*
X002064Y021060D01*
X002033Y021025D01*
X001999Y020992D01*
X001963Y020963D01*
X001924Y020937D01*
X001883Y020914D01*
X001840Y020895D01*
X001796Y020879D01*
X001751Y020867D01*
X001705Y020859D01*
X001658Y020855D01*
X001612Y020855D01*
X001565Y020859D01*
X001519Y020867D01*
X001474Y020879D01*
X001430Y020895D01*
X001387Y020914D01*
X001346Y020937D01*
X001307Y020963D01*
X001271Y020992D01*
X001237Y021025D01*
X001206Y021060D01*
X001178Y021097D01*
X001154Y021137D01*
X001133Y021179D01*
X001115Y021222D01*
X001102Y021267D01*
X001092Y021313D01*
X001086Y021359D01*
X001084Y021406D01*
D11*
X004933Y018021D02*
X005118Y018021D01*
X005180Y017960D01*
X005180Y017836D01*
X005118Y017774D01*
X004933Y017774D01*
X004933Y017651D02*
X004933Y018021D01*
X005057Y017774D02*
X005180Y017651D01*
X005301Y017713D02*
X005363Y017651D01*
X005487Y017651D01*
X005548Y017713D01*
X005548Y017960D01*
X005487Y018021D01*
X005363Y018021D01*
X005301Y017960D01*
X005301Y017898D01*
X005363Y017836D01*
X005548Y017836D01*
X004816Y016854D02*
X004878Y016792D01*
X004878Y016669D01*
X004816Y016607D01*
X004693Y016607D02*
X004631Y016730D01*
X004631Y016792D01*
X004693Y016854D01*
X004816Y016854D01*
X004693Y016607D02*
X004508Y016607D01*
X004508Y016854D01*
X004570Y016485D02*
X004508Y016424D01*
X004508Y016239D01*
X004878Y016239D01*
X004755Y016239D02*
X004755Y016424D01*
X004693Y016485D01*
X004570Y016485D01*
X004755Y016362D02*
X004878Y016485D01*
X004943Y015761D02*
X005125Y015761D01*
X005185Y015700D01*
X005185Y015579D01*
X005125Y015518D01*
X004943Y015518D01*
X004943Y015397D02*
X004943Y015761D01*
X005305Y015761D02*
X005305Y015458D01*
X005366Y015397D01*
X005487Y015397D01*
X005548Y015458D01*
X005548Y015761D01*
X005668Y015700D02*
X005668Y015640D01*
X005728Y015579D01*
X005850Y015579D01*
X005910Y015518D01*
X005910Y015458D01*
X005850Y015397D01*
X005728Y015397D01*
X005668Y015458D01*
X005707Y015288D02*
X005950Y014924D01*
X005950Y015288D01*
X006030Y015397D02*
X006030Y015761D01*
X005910Y015700D02*
X005850Y015761D01*
X005728Y015761D01*
X005668Y015700D01*
X006030Y015579D02*
X006273Y015579D01*
X006393Y015579D02*
X006635Y015579D01*
X006273Y015761D02*
X006273Y015397D01*
X005707Y015288D02*
X005707Y014924D01*
X005587Y014985D02*
X005587Y015228D01*
X005527Y015288D01*
X005405Y015288D01*
X005345Y015228D01*
X005345Y014985D01*
X005405Y014924D01*
X005527Y014924D01*
X005587Y014985D01*
X005225Y015288D02*
X004982Y015288D01*
X004862Y015288D02*
X004620Y015288D01*
X004500Y015288D02*
X004500Y014985D01*
X004439Y014924D01*
X004318Y014924D01*
X004257Y014985D01*
X004257Y015288D01*
X004278Y015397D02*
X004400Y015397D01*
X004460Y015458D01*
X004460Y015700D01*
X004400Y015761D01*
X004278Y015761D01*
X004218Y015700D01*
X004218Y015458D01*
X004278Y015397D01*
X004137Y015228D02*
X004137Y015167D01*
X004077Y015106D01*
X003895Y015106D01*
X004077Y015106D02*
X004137Y015046D01*
X004137Y014985D01*
X004077Y014924D01*
X003895Y014924D01*
X003895Y015288D01*
X004077Y015288D01*
X004137Y015228D01*
X003976Y015397D02*
X003976Y015761D01*
X003855Y015761D02*
X004098Y015761D01*
X004741Y015288D02*
X004741Y014924D01*
X005103Y014924D02*
X005103Y015288D01*
X007987Y015809D02*
X008234Y015809D01*
X008355Y015809D02*
X008479Y015685D01*
X008602Y015809D01*
X008602Y015438D01*
X008724Y015438D02*
X008971Y015438D01*
X008847Y015438D02*
X008847Y015809D01*
X008724Y015685D01*
X008355Y015809D02*
X008355Y015438D01*
X008110Y015438D02*
X008110Y015809D01*
X008183Y017828D02*
X008121Y017890D01*
X008183Y017828D02*
X008306Y017828D01*
X008368Y017890D01*
X008368Y017951D01*
X008306Y018013D01*
X008245Y018013D01*
X008306Y018013D02*
X008368Y018075D01*
X008368Y018137D01*
X008306Y018198D01*
X008183Y018198D01*
X008121Y018137D01*
X008000Y018137D02*
X007938Y018198D01*
X007815Y018198D01*
X007753Y018137D01*
X007753Y017890D01*
X007815Y017828D01*
X007938Y017828D01*
X008000Y017890D01*
X006596Y019324D02*
X006349Y019324D01*
X006596Y019571D01*
X006596Y019633D01*
X006535Y019694D01*
X006411Y019694D01*
X006349Y019633D01*
X006228Y019633D02*
X006166Y019694D01*
X006043Y019694D01*
X005981Y019633D01*
X005981Y019386D01*
X006043Y019324D01*
X006166Y019324D01*
X006228Y019386D01*
X009303Y013612D02*
X009488Y013612D01*
X009550Y013550D01*
X009550Y013427D01*
X009488Y013365D01*
X009303Y013365D01*
X009303Y013242D02*
X009303Y013612D01*
X009427Y013365D02*
X009550Y013242D01*
X009672Y013242D02*
X009918Y013242D01*
X010040Y013242D02*
X010287Y013242D01*
X010163Y013242D02*
X010163Y013612D01*
X010040Y013488D01*
X009795Y013612D02*
X009795Y013242D01*
X009672Y013488D02*
X009795Y013612D01*
X011075Y011801D02*
X011260Y011801D01*
X011322Y011739D01*
X011322Y011616D01*
X011260Y011554D01*
X011075Y011554D01*
X011198Y011554D02*
X011322Y011431D01*
X011443Y011616D02*
X011690Y011616D01*
X011628Y011431D02*
X011628Y011801D01*
X011443Y011616D01*
X011075Y011431D02*
X011075Y011801D01*
X012138Y010974D02*
X012323Y010974D01*
X012385Y010912D01*
X012385Y010789D01*
X012323Y010727D01*
X012138Y010727D01*
X012138Y010604D02*
X012138Y010974D01*
X012261Y010727D02*
X012385Y010604D01*
X012506Y010604D02*
X012753Y010604D01*
X012630Y010604D02*
X012630Y010974D01*
X012506Y010851D01*
X012874Y010912D02*
X012874Y010665D01*
X013121Y010912D01*
X013121Y010665D01*
X013060Y010604D01*
X012936Y010604D01*
X012874Y010665D01*
X012874Y010912D02*
X012936Y010974D01*
X013060Y010974D01*
X013121Y010912D01*
X014160Y011474D02*
X014222Y011412D01*
X014345Y011412D01*
X014407Y011474D01*
X014407Y011720D01*
X014345Y011782D01*
X014222Y011782D01*
X014160Y011720D01*
X014160Y011474D01*
X014284Y011535D02*
X014407Y011412D01*
X014528Y011412D02*
X014775Y011412D01*
X014652Y011412D02*
X014652Y011782D01*
X014528Y011659D01*
X014493Y010531D02*
X014370Y010531D01*
X014308Y010469D01*
X014308Y010222D01*
X014370Y010161D01*
X014493Y010161D01*
X014555Y010222D01*
X014676Y010346D02*
X014923Y010346D01*
X014861Y010531D02*
X014676Y010346D01*
X014555Y010469D02*
X014493Y010531D01*
X014861Y010531D02*
X014861Y010161D01*
X018107Y009901D02*
X018107Y009531D01*
X018354Y009531D01*
X018475Y009531D02*
X018722Y009531D01*
X018599Y009531D02*
X018599Y009901D01*
X018475Y009778D01*
X018721Y009194D02*
X018906Y009194D01*
X018968Y009133D01*
X018968Y008886D01*
X018906Y008824D01*
X018721Y008824D01*
X018721Y009194D01*
X019090Y009071D02*
X019213Y009194D01*
X019213Y008824D01*
X019090Y008824D02*
X019336Y008824D01*
X024122Y005305D02*
X024122Y005059D01*
X024184Y004997D01*
X024308Y004997D01*
X024369Y005059D01*
X024491Y005059D02*
X024491Y004997D01*
X024491Y005059D02*
X024738Y005305D01*
X024738Y005367D01*
X024491Y005367D01*
X024369Y005305D02*
X024308Y005367D01*
X024184Y005367D01*
X024122Y005305D01*
X019797Y001470D02*
X019673Y001408D01*
X019550Y001284D01*
X019735Y001284D01*
X019797Y001223D01*
X019797Y001161D01*
X019735Y001099D01*
X019612Y001099D01*
X019550Y001161D01*
X019550Y001284D01*
X019428Y001161D02*
X019428Y001470D01*
X019182Y001470D02*
X019182Y001161D01*
X019243Y001099D01*
X019367Y001099D01*
X019428Y001161D01*
X013708Y002738D02*
X013708Y003041D01*
X013526Y003041D01*
X013465Y002980D01*
X013465Y002859D01*
X013526Y002798D01*
X013708Y002798D01*
X013708Y002738D02*
X013647Y002677D01*
X013586Y002677D01*
X013345Y003041D02*
X013284Y003041D01*
X013163Y002920D01*
X013163Y003041D02*
X013163Y002798D01*
X013043Y002859D02*
X013043Y002980D01*
X012982Y003041D01*
X012861Y003041D01*
X012800Y002980D01*
X012800Y002859D01*
X012861Y002798D01*
X012982Y002798D01*
X013043Y002859D01*
X012680Y002859D02*
X012680Y002798D01*
X012619Y002798D01*
X012619Y002859D01*
X012680Y002859D01*
X012499Y002798D02*
X012317Y002920D01*
X012499Y003041D01*
X012317Y003162D02*
X012317Y002798D01*
X012197Y002798D02*
X012015Y002798D01*
X011954Y002859D01*
X011954Y002980D01*
X012015Y003041D01*
X012197Y003041D01*
X011773Y003041D02*
X011773Y002798D01*
X011713Y002798D02*
X011834Y002798D01*
X011593Y002859D02*
X011532Y002798D01*
X011350Y002798D01*
X011350Y002677D02*
X011350Y003041D01*
X011532Y003041D01*
X011593Y002980D01*
X011593Y002859D01*
X011713Y003041D02*
X011773Y003041D01*
X011773Y003162D02*
X011773Y003223D01*
X011382Y003350D02*
X011140Y003350D01*
X011261Y003350D02*
X011261Y003714D01*
X011140Y003592D01*
X011020Y003653D02*
X010777Y003410D01*
X010838Y003350D01*
X010959Y003350D01*
X011020Y003410D01*
X011020Y003653D01*
X010959Y003714D01*
X010838Y003714D01*
X010777Y003653D01*
X010777Y003410D01*
X010536Y003350D02*
X010536Y003714D01*
X010415Y003714D02*
X010657Y003714D01*
X010295Y003592D02*
X010295Y003350D01*
X010295Y003532D02*
X010052Y003532D01*
X010052Y003592D02*
X010174Y003714D01*
X010295Y003592D01*
X010052Y003592D02*
X010052Y003350D01*
X009932Y003350D02*
X009932Y003714D01*
X009932Y003532D02*
X009690Y003532D01*
X009690Y003350D02*
X009690Y003714D01*
X009569Y003714D02*
X009448Y003714D01*
X009509Y003714D02*
X009509Y003350D01*
X009569Y003350D02*
X009448Y003350D01*
X009268Y003471D02*
X009086Y003471D01*
X009086Y003350D02*
X009086Y003714D01*
X009268Y003714D01*
X009328Y003653D01*
X009328Y003532D01*
X009268Y003471D01*
X008966Y003532D02*
X008905Y003471D01*
X008723Y003471D01*
X008844Y003471D02*
X008966Y003350D01*
X008966Y003532D02*
X008966Y003653D01*
X008905Y003714D01*
X008723Y003714D01*
X008723Y003350D01*
X008603Y003350D02*
X008360Y003350D01*
X008360Y003714D01*
X008603Y003714D01*
X008482Y003532D02*
X008360Y003532D01*
X007877Y003532D02*
X007817Y003532D01*
X007817Y003592D01*
X007877Y003592D01*
X007877Y003532D01*
X007877Y003410D02*
X007877Y003350D01*
X007817Y003350D01*
X007817Y003410D01*
X007877Y003410D01*
X007697Y003350D02*
X007697Y003714D01*
X007454Y003714D02*
X007697Y003350D01*
X007454Y003350D02*
X007454Y003714D01*
X007334Y003714D02*
X007092Y003350D01*
X006911Y003471D02*
X006729Y003471D01*
X006729Y003350D02*
X006729Y003714D01*
X006911Y003714D01*
X006972Y003653D01*
X006972Y003532D01*
X006911Y003471D01*
X007000Y003102D02*
X007000Y002859D01*
X007061Y002798D01*
X007181Y002798D02*
X007363Y002798D01*
X007424Y002859D01*
X007424Y002980D01*
X007363Y003041D01*
X007181Y003041D01*
X007181Y002677D01*
X006819Y002798D02*
X006759Y002859D01*
X006759Y003102D01*
X006819Y003041D02*
X006698Y003041D01*
X006578Y002980D02*
X006517Y003041D01*
X006396Y003041D01*
X006335Y002980D01*
X006335Y003162D02*
X006335Y002798D01*
X006578Y002798D02*
X006578Y002980D01*
X006940Y003041D02*
X007061Y003041D01*
X007544Y003041D02*
X007544Y002980D01*
X007605Y002980D01*
X007605Y003041D01*
X007544Y003041D01*
X007544Y002859D02*
X007544Y002798D01*
X007605Y002798D01*
X007605Y002859D01*
X007544Y002859D01*
X007725Y002798D02*
X007968Y003162D01*
X008330Y003162D02*
X008088Y002798D01*
X008450Y002859D02*
X008450Y002980D01*
X008511Y003041D01*
X008693Y003041D01*
X008693Y003162D02*
X008693Y002798D01*
X008511Y002798D01*
X008450Y002859D01*
X008813Y002859D02*
X008813Y002980D01*
X008873Y003041D01*
X008995Y003041D01*
X009055Y002980D01*
X009055Y002920D01*
X008813Y002920D01*
X008813Y002859D02*
X008873Y002798D01*
X008995Y002798D01*
X009175Y002798D02*
X009296Y002798D01*
X009236Y002798D02*
X009236Y003162D01*
X009175Y003162D01*
X009417Y003041D02*
X009538Y003041D01*
X009478Y003102D02*
X009478Y002859D01*
X009538Y002798D01*
X009659Y002859D02*
X009719Y002920D01*
X009901Y002920D01*
X009901Y002980D02*
X009901Y002798D01*
X009719Y002798D01*
X009659Y002859D01*
X009719Y003041D02*
X009841Y003041D01*
X009901Y002980D01*
X010021Y002859D02*
X010082Y002859D01*
X010082Y002798D01*
X010021Y002798D01*
X010021Y002859D01*
X010202Y002980D02*
X010324Y002980D01*
X010444Y003041D02*
X010505Y003041D01*
X010505Y002798D01*
X010565Y002798D02*
X010444Y002798D01*
X010263Y002798D02*
X010263Y003102D01*
X010324Y003162D01*
X010505Y003162D02*
X010505Y003223D01*
X010686Y003041D02*
X010686Y002798D01*
X010686Y002920D02*
X010807Y003041D01*
X010868Y003041D01*
X010988Y002980D02*
X011048Y003041D01*
X011170Y003041D01*
X011230Y002980D01*
X011230Y002920D01*
X010988Y002920D01*
X010988Y002980D02*
X010988Y002859D01*
X011048Y002798D01*
X011170Y002798D01*
X011110Y004176D02*
X010989Y004176D01*
X010928Y004237D01*
X010808Y004237D02*
X010748Y004176D01*
X010626Y004176D01*
X010566Y004237D01*
X010566Y004480D01*
X010626Y004540D01*
X010748Y004540D01*
X010808Y004480D01*
X010928Y004480D02*
X010928Y004419D01*
X010989Y004358D01*
X011110Y004358D01*
X011171Y004298D01*
X011171Y004237D01*
X011110Y004176D01*
X011291Y004176D02*
X011412Y004176D01*
X011351Y004176D02*
X011351Y004540D01*
X011291Y004540D02*
X011412Y004540D01*
X011171Y004480D02*
X011110Y004540D01*
X010989Y004540D01*
X010928Y004480D01*
X009388Y005358D02*
X009267Y005358D01*
X009327Y005358D02*
X009327Y005722D01*
X009267Y005722D02*
X009388Y005722D01*
X009147Y005661D02*
X009147Y005540D01*
X009086Y005479D01*
X008904Y005479D01*
X008784Y005479D02*
X008784Y005418D01*
X008724Y005358D01*
X008602Y005358D01*
X008542Y005418D01*
X008422Y005358D02*
X008422Y005600D01*
X008301Y005722D01*
X008179Y005600D01*
X008179Y005358D01*
X008059Y005358D02*
X007938Y005479D01*
X007999Y005479D02*
X007817Y005479D01*
X007817Y005358D02*
X007817Y005722D01*
X007999Y005722D01*
X008059Y005661D01*
X008059Y005540D01*
X007999Y005479D01*
X008179Y005540D02*
X008422Y005540D01*
X008542Y005600D02*
X008602Y005540D01*
X008724Y005540D01*
X008784Y005479D01*
X008904Y005358D02*
X008904Y005722D01*
X009086Y005722D01*
X009147Y005661D01*
X008784Y005661D02*
X008724Y005722D01*
X008602Y005722D01*
X008542Y005661D01*
X008542Y005600D01*
X007697Y005210D02*
X007697Y004846D01*
X007454Y004846D02*
X007454Y005210D01*
X007576Y005088D01*
X007697Y005210D01*
X007334Y005088D02*
X007334Y004846D01*
X007334Y005028D02*
X007092Y005028D01*
X007092Y005088D02*
X007092Y004846D01*
X006972Y004906D02*
X006911Y004846D01*
X006790Y004846D01*
X006729Y004906D01*
X006729Y005149D01*
X006790Y005210D01*
X006911Y005210D01*
X006972Y005149D01*
X007092Y005088D02*
X007213Y005210D01*
X007334Y005088D01*
X007274Y005358D02*
X007334Y005418D01*
X007334Y005661D01*
X007274Y005722D01*
X007152Y005722D01*
X007092Y005661D01*
X007092Y005418D01*
X007152Y005358D01*
X007274Y005358D01*
X006851Y005358D02*
X006851Y005722D01*
X006972Y005722D02*
X006729Y005722D01*
X005493Y011265D02*
X005370Y011265D01*
X005308Y011327D01*
X005186Y011327D02*
X005125Y011265D01*
X005001Y011265D01*
X004940Y011327D01*
X004940Y011574D01*
X005001Y011636D01*
X005125Y011636D01*
X005186Y011574D01*
X005186Y011327D01*
X005186Y011265D02*
X005063Y011389D01*
X005308Y011574D02*
X005370Y011636D01*
X005493Y011636D01*
X005555Y011574D01*
X005555Y011512D01*
X005493Y011451D01*
X005555Y011389D01*
X005555Y011327D01*
X005493Y011265D01*
X005493Y011451D02*
X005431Y011451D01*
X005391Y012572D02*
X005144Y012572D01*
X005023Y012572D02*
X004899Y012696D01*
X004961Y012696D02*
X004776Y012696D01*
X004776Y012572D02*
X004776Y012943D01*
X004961Y012943D01*
X005023Y012881D01*
X005023Y012757D01*
X004961Y012696D01*
X005144Y012819D02*
X005267Y012943D01*
X005267Y012572D01*
X005512Y012572D02*
X005759Y012819D01*
X005759Y012881D01*
X005697Y012943D01*
X005574Y012943D01*
X005512Y012881D01*
X005512Y012572D02*
X005759Y012572D01*
X015402Y015592D02*
X015464Y015530D01*
X015588Y015530D01*
X015649Y015592D01*
X015649Y015900D01*
X015771Y015839D02*
X015832Y015900D01*
X015956Y015900D01*
X016018Y015839D01*
X016018Y015777D01*
X015956Y015715D01*
X016018Y015653D01*
X016018Y015592D01*
X015956Y015530D01*
X015832Y015530D01*
X015771Y015592D01*
X015894Y015715D02*
X015956Y015715D01*
X015402Y015592D02*
X015402Y015900D01*
X018051Y015856D02*
X018051Y015979D01*
X018113Y016041D01*
X018175Y016041D01*
X018236Y015979D01*
X018298Y016041D01*
X018360Y016041D01*
X018421Y015979D01*
X018421Y015856D01*
X018360Y015794D01*
X018421Y015673D02*
X018421Y015426D01*
X018421Y015304D02*
X018298Y015181D01*
X018298Y015243D02*
X018298Y015058D01*
X018421Y015058D02*
X018051Y015058D01*
X018051Y015243D01*
X018113Y015304D01*
X018236Y015304D01*
X018298Y015243D01*
X018175Y015426D02*
X018051Y015549D01*
X018421Y015549D01*
X018113Y015794D02*
X018051Y015856D01*
X018236Y015918D02*
X018236Y015979D01*
X019114Y015940D02*
X019299Y015755D01*
X019299Y016002D01*
X019484Y015940D02*
X019114Y015940D01*
X019484Y015633D02*
X019484Y015386D01*
X019484Y015265D02*
X019361Y015142D01*
X019361Y015203D02*
X019361Y015018D01*
X019484Y015018D02*
X019114Y015018D01*
X019114Y015203D01*
X019176Y015265D01*
X019299Y015265D01*
X019361Y015203D01*
X019238Y015386D02*
X019114Y015510D01*
X019484Y015510D01*
X020138Y015510D02*
X020508Y015510D01*
X020508Y015633D02*
X020508Y015386D01*
X020508Y015265D02*
X020385Y015142D01*
X020385Y015203D02*
X020385Y015018D01*
X020508Y015018D02*
X020138Y015018D01*
X020138Y015203D01*
X020199Y015265D01*
X020323Y015265D01*
X020385Y015203D01*
X020261Y015386D02*
X020138Y015510D01*
X020138Y015755D02*
X020323Y015755D01*
X020261Y015878D01*
X020261Y015940D01*
X020323Y016002D01*
X020446Y016002D01*
X020508Y015940D01*
X020508Y015816D01*
X020446Y015755D01*
X020138Y015755D02*
X020138Y016002D01*
X019892Y016463D02*
X019769Y016463D01*
X019707Y016525D01*
X019586Y016525D02*
X019524Y016463D01*
X019401Y016463D01*
X019339Y016525D01*
X019339Y016772D01*
X019401Y016834D01*
X019524Y016834D01*
X019586Y016772D01*
X019707Y016834D02*
X019707Y016649D01*
X019831Y016710D01*
X019892Y016710D01*
X019954Y016649D01*
X019954Y016525D01*
X019892Y016463D01*
X019954Y016834D02*
X019707Y016834D01*
X019692Y017152D02*
X019692Y017214D01*
X019939Y017461D01*
X019939Y017523D01*
X019692Y017523D01*
X019571Y017461D02*
X019571Y017337D01*
X019509Y017276D01*
X019324Y017276D01*
X019447Y017276D02*
X019571Y017152D01*
X019324Y017152D02*
X019324Y017523D01*
X019509Y017523D01*
X019571Y017461D01*
X019571Y017861D02*
X019447Y017984D01*
X019509Y017984D02*
X019324Y017984D01*
X019324Y017861D02*
X019324Y018231D01*
X019509Y018231D01*
X019571Y018169D01*
X019571Y018046D01*
X019509Y017984D01*
X019692Y017923D02*
X019754Y017861D01*
X019878Y017861D01*
X019939Y017923D01*
X019939Y017984D01*
X019878Y018046D01*
X019692Y018046D01*
X019692Y017923D01*
X019692Y018046D02*
X019816Y018169D01*
X019939Y018231D01*
X019853Y018629D02*
X019915Y018690D01*
X019915Y018752D01*
X019853Y018814D01*
X019668Y018814D01*
X019668Y018690D01*
X019730Y018629D01*
X019853Y018629D01*
X019668Y018814D02*
X019791Y018937D01*
X019915Y018999D01*
X019547Y018937D02*
X019485Y018999D01*
X019361Y018999D01*
X019300Y018937D01*
X019300Y018690D01*
X019361Y018629D01*
X019485Y018629D01*
X019547Y018690D01*
X019532Y019357D02*
X019408Y019480D01*
X019470Y019480D02*
X019285Y019480D01*
X019285Y019357D02*
X019285Y019727D01*
X019470Y019727D01*
X019532Y019666D01*
X019532Y019542D01*
X019470Y019480D01*
X019653Y019480D02*
X019715Y019542D01*
X019838Y019542D01*
X019900Y019480D01*
X019900Y019419D01*
X019838Y019357D01*
X019715Y019357D01*
X019653Y019419D01*
X019653Y019480D01*
X019715Y019542D02*
X019653Y019604D01*
X019653Y019666D01*
X019715Y019727D01*
X019838Y019727D01*
X019900Y019666D01*
X019900Y019604D01*
X019838Y019542D01*
X022595Y015052D02*
X022838Y015052D01*
X022717Y015052D02*
X022717Y014688D01*
X022674Y014580D02*
X022674Y014216D01*
X022917Y014216D01*
X023037Y014216D02*
X023037Y014580D01*
X023279Y014216D01*
X023279Y014580D01*
X023399Y014519D02*
X023399Y014276D01*
X023460Y014216D01*
X023581Y014216D01*
X023642Y014276D01*
X023762Y014276D02*
X023822Y014216D01*
X023944Y014216D01*
X024004Y014276D01*
X024004Y014519D01*
X023944Y014580D01*
X023822Y014580D01*
X023762Y014519D01*
X023762Y014276D01*
X023642Y014519D02*
X023581Y014580D01*
X023460Y014580D01*
X023399Y014519D01*
X023201Y014749D02*
X023201Y014992D01*
X023140Y015052D01*
X023018Y015052D01*
X022958Y014992D01*
X022958Y014749D01*
X023018Y014688D01*
X023140Y014688D01*
X023201Y014749D01*
X022917Y014580D02*
X022674Y014580D01*
X022674Y014398D02*
X022795Y014398D01*
X023683Y014688D02*
X023683Y015052D01*
X023865Y015052D01*
X023926Y014992D01*
X023926Y014870D01*
X023865Y014810D01*
X023683Y014810D01*
X023804Y014810D02*
X023926Y014688D01*
X024045Y014749D02*
X024106Y014688D01*
X024227Y014688D01*
X024288Y014749D01*
X024288Y014992D01*
X024227Y015052D01*
X024106Y015052D01*
X024045Y014992D01*
X024045Y014749D01*
X024124Y014580D02*
X024306Y014580D01*
X024367Y014519D01*
X024367Y014276D01*
X024306Y014216D01*
X024124Y014216D01*
X024124Y014580D01*
X024487Y014580D02*
X024487Y014216D01*
X024729Y014216D01*
X024849Y014216D02*
X024849Y014580D01*
X025031Y014580D01*
X025092Y014519D01*
X025092Y014398D01*
X025031Y014337D01*
X024849Y014337D01*
X024970Y014337D02*
X025092Y014216D01*
X024608Y014398D02*
X024487Y014398D01*
X024487Y014580D02*
X024729Y014580D01*
X024770Y014688D02*
X024770Y014931D01*
X024892Y015052D01*
X025013Y014931D01*
X025013Y014688D01*
X025133Y014688D02*
X025133Y015052D01*
X025315Y015052D01*
X025376Y014992D01*
X025376Y014870D01*
X025315Y014810D01*
X025133Y014810D01*
X025254Y014810D02*
X025376Y014688D01*
X025617Y014688D02*
X025617Y014870D01*
X025738Y014992D01*
X025738Y015052D01*
X025617Y014870D02*
X025495Y014992D01*
X025495Y015052D01*
X025013Y014870D02*
X024770Y014870D01*
X024651Y015052D02*
X024408Y015052D01*
X024529Y015052D02*
X024529Y014688D01*
X024582Y013438D02*
X024764Y013438D01*
X024824Y013377D01*
X024824Y013256D01*
X024764Y013195D01*
X024582Y013195D01*
X024582Y013074D02*
X024582Y013438D01*
X024462Y013438D02*
X024462Y013074D01*
X024341Y013195D01*
X024219Y013074D01*
X024219Y013438D01*
X024099Y013377D02*
X024099Y013256D01*
X024039Y013195D01*
X023857Y013195D01*
X023857Y013074D02*
X023857Y013438D01*
X024039Y013438D01*
X024099Y013377D01*
X024703Y013195D02*
X024824Y013074D01*
X025307Y013074D02*
X025428Y013074D01*
X025367Y013074D02*
X025367Y013438D01*
X025307Y013438D02*
X025428Y013438D01*
X025548Y013438D02*
X025791Y013074D01*
X025791Y013438D01*
X025548Y013438D02*
X025548Y013074D01*
X023374Y013195D02*
X023374Y013438D01*
X023132Y013438D02*
X023132Y013195D01*
X023253Y013074D01*
X023374Y013195D01*
X023012Y013074D02*
X022769Y013074D01*
X023012Y013317D01*
X023012Y013377D01*
X022951Y013438D01*
X022830Y013438D01*
X022769Y013377D01*
X022528Y013438D02*
X022528Y013074D01*
X022407Y013074D02*
X022649Y013074D01*
X022407Y013317D02*
X022528Y013438D01*
X022287Y013256D02*
X022044Y013256D01*
X022165Y013377D02*
X022165Y013135D01*
D12*
X021540Y012025D02*
X021356Y012025D01*
X021311Y011979D01*
X021311Y011841D01*
X021586Y011841D01*
X021586Y011979D01*
X021540Y012025D01*
X021586Y011753D02*
X021311Y011753D01*
X021311Y011569D02*
X021586Y011753D01*
X021586Y011569D02*
X021311Y011569D01*
X021356Y011481D02*
X021311Y011435D01*
X021311Y011343D01*
X021356Y011297D01*
X021540Y011297D01*
X021586Y011343D01*
X021586Y011435D01*
X021540Y011481D01*
X021448Y011481D01*
X021448Y011389D01*
X021426Y010799D02*
X021426Y010615D01*
X021334Y010707D02*
X021518Y010707D01*
X001901Y007773D02*
X001626Y007773D01*
X001718Y007682D01*
X001626Y007590D01*
X001901Y007590D01*
X001809Y007502D02*
X001901Y007410D01*
X001809Y007318D01*
X001626Y007318D01*
X001626Y007230D02*
X001901Y007230D01*
X001901Y007092D01*
X001855Y007046D01*
X001764Y007046D01*
X001718Y007092D01*
X001718Y007230D01*
X001718Y007138D02*
X001626Y007046D01*
X001626Y006958D02*
X001901Y006958D01*
X001626Y006774D01*
X001901Y006774D01*
X001901Y006686D02*
X001901Y006594D01*
X001901Y006640D02*
X001626Y006640D01*
X001626Y006686D02*
X001626Y006594D01*
X001626Y006505D02*
X001901Y006505D01*
X001626Y006321D01*
X001901Y006321D01*
X001855Y006233D02*
X001672Y006233D01*
X001626Y006187D01*
X001626Y006095D01*
X001672Y006049D01*
X001764Y006049D01*
X001764Y006141D01*
X001855Y006233D02*
X001901Y006187D01*
X001901Y006095D01*
X001855Y006049D01*
X001809Y005961D02*
X001764Y005961D01*
X001764Y005915D01*
X001809Y005915D01*
X001809Y005961D01*
X001672Y005961D02*
X001626Y005961D01*
X001626Y005915D01*
X001672Y005915D01*
X001672Y005961D01*
X001458Y005958D02*
X001458Y006142D01*
X001458Y006050D02*
X001183Y006050D01*
X001015Y006050D02*
X001015Y006142D01*
X001015Y006096D02*
X000740Y006096D01*
X000740Y006142D02*
X000740Y006050D01*
X000740Y006230D02*
X001015Y006230D01*
X000924Y006322D01*
X001015Y006414D01*
X000740Y006414D01*
X000786Y006502D02*
X000970Y006502D01*
X001015Y006548D01*
X001015Y006686D01*
X000740Y006686D01*
X000740Y006548D01*
X000786Y006502D01*
X000740Y006774D02*
X001015Y006774D01*
X000878Y006774D02*
X000878Y006958D01*
X001015Y006958D02*
X000740Y006958D01*
X000740Y007318D02*
X001015Y007318D01*
X001183Y007364D02*
X001229Y007318D01*
X001412Y007318D01*
X001458Y007364D01*
X001458Y007456D01*
X001412Y007502D01*
X001229Y007502D01*
X001183Y007456D01*
X001183Y007364D01*
X001183Y007230D02*
X001458Y007230D01*
X001183Y007046D01*
X001458Y007046D01*
X001458Y006958D02*
X001183Y006774D01*
X001458Y006774D01*
X001458Y006686D02*
X001183Y006686D01*
X001183Y006502D01*
X001229Y006414D02*
X001183Y006368D01*
X001183Y006276D01*
X001229Y006230D01*
X001412Y006230D02*
X001458Y006276D01*
X001458Y006368D01*
X001412Y006414D01*
X001229Y006414D01*
X001321Y006594D02*
X001321Y006686D01*
X001458Y006686D02*
X001458Y006502D01*
X001458Y006958D02*
X001183Y006958D01*
X001015Y007502D02*
X000740Y007318D01*
X000740Y007502D02*
X001015Y007502D01*
X000924Y007590D02*
X000740Y007590D01*
X000878Y007590D02*
X000878Y007773D01*
X000924Y007773D02*
X001015Y007682D01*
X000924Y007590D01*
X000924Y007773D02*
X000740Y007773D01*
X001183Y007728D02*
X001183Y007636D01*
X001229Y007590D01*
X001183Y007728D02*
X001229Y007773D01*
X001412Y007773D01*
X001458Y007728D01*
X001458Y007636D01*
X001412Y007590D01*
X001626Y007502D02*
X001809Y007502D01*
X001764Y007502D02*
X001764Y007318D01*
X001458Y005598D02*
X001458Y005415D01*
X001458Y005327D02*
X001183Y005327D01*
X001321Y005327D02*
X001321Y005143D01*
X001458Y005143D02*
X001183Y005143D01*
X001183Y005055D02*
X001183Y004963D01*
X001183Y005009D02*
X001458Y005009D01*
X001458Y005055D02*
X001458Y004963D01*
X001412Y004873D02*
X001367Y004873D01*
X001321Y004827D01*
X001321Y004736D01*
X001275Y004690D01*
X001229Y004690D01*
X001183Y004736D01*
X001183Y004827D01*
X001229Y004873D01*
X001412Y004873D02*
X001458Y004827D01*
X001458Y004736D01*
X001412Y004690D01*
X001626Y004737D02*
X001901Y004737D01*
X001626Y004554D01*
X001901Y004554D01*
X001855Y004466D02*
X001672Y004466D01*
X001626Y004420D01*
X001626Y004328D01*
X001672Y004282D01*
X001855Y004282D01*
X001901Y004328D01*
X001901Y004420D01*
X001855Y004466D01*
X001901Y004194D02*
X001901Y004010D01*
X001901Y004102D02*
X001626Y004102D01*
X001458Y004146D02*
X001458Y004330D01*
X001458Y004238D02*
X001183Y004238D01*
X001229Y004058D02*
X001183Y004012D01*
X001183Y003920D01*
X001229Y003874D01*
X001412Y003874D01*
X001458Y003920D01*
X001458Y004012D01*
X001412Y004058D01*
X001229Y004058D01*
X001061Y004058D02*
X000878Y004058D01*
X000786Y004058D02*
X000740Y004058D01*
X000740Y004146D02*
X000740Y004330D01*
X001015Y004330D01*
X001015Y004146D01*
X000878Y004238D02*
X000878Y004330D01*
X000970Y004418D02*
X001015Y004464D01*
X001015Y004556D01*
X000970Y004601D01*
X000786Y004601D01*
X000740Y004556D01*
X000740Y004464D01*
X000786Y004418D01*
X000740Y004690D02*
X000832Y004782D01*
X000832Y004736D02*
X000832Y004873D01*
X000740Y004873D02*
X001015Y004873D01*
X001015Y004736D01*
X000970Y004690D01*
X000878Y004690D01*
X000832Y004736D01*
X000786Y004962D02*
X001015Y004962D01*
X001015Y005145D02*
X000786Y005145D01*
X000740Y005099D01*
X000740Y005007D01*
X000786Y004962D01*
X000786Y005233D02*
X000970Y005233D01*
X001015Y005279D01*
X001015Y005371D01*
X000970Y005417D01*
X000786Y005417D01*
X000740Y005371D01*
X000740Y005279D01*
X000786Y005233D01*
X000786Y005505D02*
X000740Y005551D01*
X000740Y005643D01*
X000786Y005689D01*
X000878Y005643D02*
X000878Y005551D01*
X000832Y005505D01*
X000786Y005505D01*
X000878Y005643D02*
X000924Y005689D01*
X000970Y005689D01*
X001015Y005643D01*
X001015Y005551D01*
X000970Y005505D01*
X001183Y005507D02*
X001458Y005507D01*
X001626Y005553D02*
X001626Y005415D01*
X001672Y005369D01*
X001855Y005369D01*
X001901Y005415D01*
X001901Y005553D01*
X001626Y005553D01*
X001672Y005281D02*
X001626Y005235D01*
X001626Y005143D01*
X001672Y005098D01*
X001855Y005098D01*
X001901Y005143D01*
X001901Y005235D01*
X001855Y005281D01*
X001672Y005281D01*
D13*
X006744Y006049D02*
X006866Y005928D01*
X006987Y005928D01*
X007108Y006049D01*
X007108Y006656D01*
X006987Y006656D02*
X007230Y006656D01*
X007469Y006534D02*
X007591Y006656D01*
X007833Y006656D01*
X007955Y006534D01*
X007955Y006413D01*
X007833Y006292D01*
X007955Y006170D01*
X007955Y006049D01*
X007833Y005928D01*
X007591Y005928D01*
X007469Y006049D01*
X007712Y006292D02*
X007833Y006292D01*
X010176Y004864D02*
X010297Y004743D01*
X010419Y004743D01*
X010540Y004864D01*
X010540Y005471D01*
X010419Y005471D02*
X010661Y005471D01*
X010901Y005107D02*
X011386Y005107D01*
X011265Y005471D02*
X010901Y005107D01*
X011265Y004743D02*
X011265Y005471D01*
X012541Y011209D02*
X012777Y011209D01*
X012777Y011681D02*
X012541Y011681D01*
X012352Y011987D02*
X012967Y011987D01*
X011635Y012469D02*
X011635Y012705D01*
X011163Y012705D02*
X011163Y012469D01*
X012352Y013107D02*
X012967Y013107D01*
X013031Y013827D02*
X012531Y013827D01*
X012281Y014077D01*
X012031Y013827D01*
X011531Y013827D01*
X011281Y014077D01*
X011031Y013827D01*
X010531Y013827D01*
X010281Y014077D01*
X010031Y013827D01*
X009531Y013827D01*
X009281Y014077D01*
X009031Y013827D01*
X008531Y013827D01*
X008281Y014077D01*
X008031Y013827D01*
X007531Y013827D01*
X007281Y014077D01*
X007031Y013827D01*
X006531Y013827D01*
X006281Y014077D01*
X006031Y013827D01*
X005531Y013827D01*
X005281Y014077D01*
X005031Y013827D01*
X004531Y013827D01*
X004281Y014077D01*
X004031Y013827D01*
X003531Y013827D01*
X003281Y014077D01*
X003281Y014577D01*
X003531Y014827D01*
X004031Y014827D01*
X004281Y014577D01*
X004531Y014827D01*
X005031Y014827D01*
X005281Y014577D01*
X005531Y014827D01*
X006031Y014827D01*
X006281Y014577D01*
X006531Y014827D01*
X007031Y014827D01*
X007281Y014577D01*
X007531Y014827D01*
X008031Y014827D01*
X008281Y014577D01*
X008531Y014827D01*
X009031Y014827D01*
X009281Y014577D01*
X009531Y014827D01*
X010031Y014827D01*
X010281Y014577D01*
X010531Y014827D01*
X011031Y014827D01*
X011281Y014577D01*
X011531Y014827D01*
X012031Y014827D01*
X012281Y014577D01*
X012531Y014827D01*
X013031Y014827D01*
X013281Y014577D01*
X013531Y014827D01*
X014031Y014827D01*
X014281Y014577D01*
X014531Y014827D01*
X015031Y014827D01*
X015281Y014577D01*
X015531Y014827D01*
X016031Y014827D01*
X016281Y014577D01*
X016531Y014827D01*
X017031Y014827D01*
X017281Y014577D01*
X017531Y014827D01*
X018031Y014827D01*
X018281Y014577D01*
X018531Y014827D01*
X019031Y014827D01*
X019281Y014577D01*
X019531Y014827D01*
X020031Y014827D01*
X020281Y014577D01*
X020531Y014827D01*
X021031Y014827D01*
X021281Y014577D01*
X021281Y014077D01*
X021031Y013827D01*
X020531Y013827D01*
X020281Y014077D01*
X020031Y013827D01*
X019531Y013827D01*
X019281Y014077D01*
X019031Y013827D01*
X018531Y013827D01*
X018281Y014077D01*
X018031Y013827D01*
X017531Y013827D01*
X017281Y014077D01*
X017031Y013827D01*
X016531Y013827D01*
X016281Y014077D01*
X016031Y013827D01*
X015531Y013827D01*
X015281Y014077D01*
X015031Y013827D01*
X014531Y013827D01*
X014281Y014077D01*
X014031Y013827D01*
X013531Y013827D01*
X013281Y014077D01*
X013031Y013827D01*
X009706Y013059D02*
X009470Y013059D01*
X009470Y012587D02*
X009706Y012587D01*
X006635Y012508D02*
X006399Y012508D01*
X006399Y012980D02*
X006635Y012980D01*
X003636Y014483D02*
X003150Y014483D01*
X003393Y014483D02*
X003393Y015211D01*
X003150Y014968D01*
X002911Y015211D02*
X002668Y015211D01*
X002789Y015211D02*
X002789Y014604D01*
X002668Y014483D01*
X002547Y014483D01*
X002425Y014604D01*
X001570Y015665D02*
X001070Y015665D01*
X000820Y015915D01*
X000820Y016415D01*
X001070Y016665D01*
X000820Y016915D01*
X000820Y017415D01*
X001070Y017665D01*
X000820Y017915D01*
X000820Y018415D01*
X001070Y018665D01*
X000820Y018915D01*
X000820Y019415D01*
X001070Y019665D01*
X001570Y019665D01*
X001820Y019415D01*
X001820Y018915D01*
X001570Y018665D01*
X001820Y018415D01*
X001820Y017915D01*
X001570Y017665D01*
X001820Y017415D01*
X001820Y016915D01*
X001570Y016665D01*
X001820Y016415D01*
X001820Y015915D01*
X001570Y015665D01*
X005336Y016248D02*
X005572Y016248D01*
X005572Y016720D02*
X005336Y016720D01*
X005336Y017035D02*
X005572Y017035D01*
X005572Y017508D02*
X005336Y017508D01*
X005303Y020406D02*
X005053Y020656D01*
X004803Y020406D01*
X004303Y020406D01*
X004053Y020656D01*
X003803Y020406D01*
X003303Y020406D01*
X003053Y020656D01*
X003053Y022156D01*
X003303Y022406D01*
X003803Y022406D01*
X004053Y022156D01*
X004303Y022406D01*
X004803Y022406D01*
X005053Y022156D01*
X005303Y022406D01*
X005803Y022406D01*
X006053Y022156D01*
X006303Y022406D01*
X006803Y022406D01*
X007053Y022156D01*
X007303Y022406D01*
X007803Y022406D01*
X008053Y022156D01*
X008303Y022406D01*
X008803Y022406D01*
X009053Y022156D01*
X009303Y022406D01*
X009803Y022406D01*
X010053Y022156D01*
X010303Y022406D01*
X010803Y022406D01*
X011053Y022156D01*
X011303Y022406D01*
X011803Y022406D01*
X012053Y022156D01*
X012303Y022406D01*
X012803Y022406D01*
X013053Y022156D01*
X013303Y022406D01*
X013803Y022406D01*
X014053Y022156D01*
X014303Y022406D01*
X014803Y022406D01*
X015053Y022156D01*
X015303Y022406D01*
X015803Y022406D01*
X016053Y022156D01*
X016303Y022406D01*
X016803Y022406D01*
X017053Y022156D01*
X017303Y022406D01*
X017803Y022406D01*
X018053Y022156D01*
X018303Y022406D01*
X018803Y022406D01*
X019053Y022156D01*
X019303Y022406D01*
X019803Y022406D01*
X020053Y022156D01*
X020303Y022406D01*
X020803Y022406D01*
X021053Y022156D01*
X021303Y022406D01*
X021803Y022406D01*
X022053Y022156D01*
X022303Y022406D01*
X022803Y022406D01*
X023053Y022156D01*
X023053Y020656D01*
X022803Y020406D01*
X022303Y020406D01*
X022053Y020656D01*
X021803Y020406D01*
X021303Y020406D01*
X021053Y020656D01*
X020803Y020406D01*
X020303Y020406D01*
X020053Y020656D01*
X019803Y020406D01*
X019303Y020406D01*
X019053Y020656D01*
X018803Y020406D01*
X018303Y020406D01*
X018053Y020656D01*
X017803Y020406D01*
X017303Y020406D01*
X017053Y020656D01*
X016803Y020406D01*
X016303Y020406D01*
X016053Y020656D01*
X015803Y020406D01*
X015303Y020406D01*
X015053Y020656D01*
X014803Y020406D01*
X014303Y020406D01*
X014053Y020656D01*
X013803Y020406D01*
X013303Y020406D01*
X013053Y020656D01*
X012803Y020406D01*
X012303Y020406D01*
X012053Y020656D01*
X011803Y020406D01*
X011303Y020406D01*
X011053Y020656D01*
X010803Y020406D01*
X010303Y020406D01*
X010053Y020656D01*
X009803Y020406D01*
X009303Y020406D01*
X009053Y020656D01*
X008803Y020406D01*
X008303Y020406D01*
X008053Y020656D01*
X007803Y020406D01*
X007303Y020406D01*
X007053Y020656D01*
X006803Y020406D01*
X006303Y020406D01*
X006053Y020656D01*
X005803Y020406D01*
X005303Y020406D01*
X011875Y018368D02*
X011875Y018141D01*
X011931Y018084D01*
X012045Y018084D01*
X012101Y018141D01*
X012243Y018084D02*
X012243Y018424D01*
X012470Y018424D01*
X012611Y018368D02*
X012611Y018141D01*
X012668Y018084D01*
X012781Y018084D01*
X012838Y018141D01*
X012838Y018254D01*
X012725Y018254D01*
X012838Y018368D02*
X012781Y018424D01*
X012668Y018424D01*
X012611Y018368D01*
X012356Y018254D02*
X012243Y018254D01*
X012101Y018368D02*
X012045Y018424D01*
X011931Y018424D01*
X011875Y018368D01*
X012252Y017923D02*
X012752Y017923D01*
X013002Y017673D01*
X013252Y017923D01*
X013752Y017923D01*
X014002Y017673D01*
X014002Y017173D01*
X013752Y016923D01*
X013252Y016923D01*
X013002Y017173D01*
X012752Y016923D01*
X012252Y016923D01*
X012002Y017173D01*
X012002Y017673D01*
X012252Y017923D01*
X014800Y018862D02*
X014800Y016852D01*
X016660Y016852D02*
X016660Y018862D01*
X020612Y019083D02*
X020848Y019083D01*
X020848Y019358D02*
X020612Y019358D01*
X020612Y019831D02*
X020848Y019831D01*
X020848Y018610D02*
X020612Y018610D01*
X020612Y018295D02*
X020848Y018295D01*
X020848Y017823D02*
X020612Y017823D01*
X020612Y017508D02*
X020848Y017508D01*
X020848Y017035D02*
X020612Y017035D01*
X020612Y016839D02*
X020848Y016839D01*
X020848Y016366D02*
X020612Y016366D01*
X020572Y015657D02*
X020572Y015421D01*
X020021Y015461D02*
X020021Y015697D01*
X019549Y015697D02*
X019549Y015461D01*
X019037Y015421D02*
X019037Y015657D01*
X018565Y015657D02*
X018565Y015421D01*
X021045Y015421D02*
X021045Y015657D01*
X021644Y014975D02*
X021887Y014975D01*
X021766Y014975D02*
X021766Y014368D01*
X021644Y014247D01*
X021523Y014247D01*
X021402Y014368D01*
X022127Y014247D02*
X022612Y014732D01*
X022612Y014853D01*
X022491Y014975D01*
X022248Y014975D01*
X022127Y014853D01*
X022127Y014247D02*
X022612Y014247D01*
X022140Y013400D02*
X021897Y013278D01*
X021654Y013036D01*
X022018Y013036D01*
X022140Y012914D01*
X022140Y012793D01*
X022018Y012672D01*
X021776Y012672D01*
X021654Y012793D01*
X021654Y013036D01*
X021293Y012793D02*
X021293Y013400D01*
X021172Y013400D02*
X021415Y013400D01*
X021293Y012793D02*
X021172Y012672D01*
X021051Y012672D01*
X020929Y012793D01*
X024285Y011959D02*
X024285Y011459D01*
X024535Y011209D01*
X024285Y010959D01*
X024285Y010459D01*
X024535Y010209D01*
X025035Y010209D01*
X025285Y010459D01*
X025285Y010959D01*
X025035Y011209D01*
X025285Y011459D01*
X025285Y011959D01*
X025035Y012209D01*
X024535Y012209D01*
X024285Y011959D01*
X024496Y015665D02*
X024246Y015915D01*
X024246Y016415D01*
X024496Y016665D01*
X024246Y016915D01*
X024246Y017415D01*
X024496Y017665D01*
X024246Y017915D01*
X024246Y018415D01*
X024496Y018665D01*
X024246Y018915D01*
X024246Y019415D01*
X024496Y019665D01*
X024996Y019665D01*
X025246Y019415D01*
X025246Y018915D01*
X024996Y018665D01*
X025246Y018415D01*
X025246Y017915D01*
X024996Y017665D01*
X025246Y017415D01*
X025246Y016915D01*
X024996Y016665D01*
X025246Y016415D01*
X025246Y015915D01*
X024996Y015665D01*
X024496Y015665D01*
D14*
X014572Y009201D02*
X014179Y009201D01*
X014179Y009004D01*
X012407Y009004D01*
X012383Y009004D02*
X012383Y008453D01*
X014179Y009004D02*
X014179Y001130D01*
X014179Y000933D01*
X014572Y000933D01*
X014572Y009201D01*
X018761Y005736D02*
X018761Y005264D01*
X018761Y005736D02*
X019509Y005736D01*
X020179Y005736D01*
X020848Y005736D01*
X021517Y005736D01*
X022187Y005736D01*
X022935Y005736D01*
X022935Y005264D01*
X014179Y001130D02*
X012407Y001130D01*
X012383Y001130D02*
X012383Y001681D01*
X006128Y003571D02*
X006128Y004201D01*
X005242Y003157D02*
X004297Y003157D01*
X003273Y003157D02*
X002407Y003157D01*
X002380Y003157D02*
X002380Y009339D01*
X002407Y009339D02*
X003273Y009339D01*
X004297Y009339D02*
X005242Y009339D01*
X006128Y008768D02*
X006128Y008138D01*
X003678Y019781D02*
X003378Y019781D01*
X003528Y019781D02*
X003528Y020231D01*
X003378Y020081D01*
D15*
X012326Y013577D02*
X012386Y013637D01*
X012506Y013637D01*
X012566Y013577D01*
X012566Y013337D01*
X012506Y013277D01*
X012386Y013277D01*
X012326Y013337D01*
X012326Y013577D01*
X012446Y013397D02*
X012566Y013277D01*
X012694Y013277D02*
X012934Y013517D01*
X012934Y013577D01*
X012874Y013637D01*
X012754Y013637D01*
X012694Y013577D01*
X012694Y013277D02*
X012934Y013277D01*
X015120Y011976D02*
X015789Y012646D01*
X016025Y012646D01*
X016773Y012646D02*
X017009Y012646D01*
X017679Y011976D01*
X017679Y010087D01*
X016773Y010087D01*
X016025Y010087D02*
X015120Y010087D01*
X015120Y011976D01*
X016773Y012527D02*
X016837Y012505D01*
X016900Y012478D01*
X016962Y012448D01*
X017021Y012415D01*
X017079Y012379D01*
X017135Y012339D01*
X017188Y012296D01*
X017239Y012251D01*
X017287Y012203D01*
X017332Y012152D01*
X017375Y012098D01*
X017414Y012042D01*
X017451Y011985D01*
X017484Y011925D01*
X017513Y011863D01*
X017539Y011800D01*
X017562Y011736D01*
X017581Y011670D01*
X017596Y011603D01*
X017607Y011536D01*
X017615Y011468D01*
X017619Y011400D01*
X017619Y011332D01*
X017615Y011264D01*
X017607Y011196D01*
X017596Y011129D01*
X017581Y011062D01*
X017562Y010996D01*
X017539Y010932D01*
X017513Y010869D01*
X017484Y010807D01*
X017451Y010747D01*
X017414Y010690D01*
X017375Y010634D01*
X017332Y010580D01*
X017287Y010529D01*
X017239Y010481D01*
X017188Y010436D01*
X017135Y010393D01*
X017079Y010353D01*
X017021Y010317D01*
X016962Y010284D01*
X016900Y010254D01*
X016837Y010227D01*
X016773Y010205D01*
X016025Y010205D02*
X015961Y010227D01*
X015898Y010254D01*
X015836Y010284D01*
X015777Y010317D01*
X015719Y010353D01*
X015663Y010393D01*
X015610Y010436D01*
X015559Y010481D01*
X015511Y010529D01*
X015466Y010580D01*
X015423Y010634D01*
X015384Y010690D01*
X015347Y010747D01*
X015314Y010807D01*
X015285Y010869D01*
X015259Y010932D01*
X015236Y010996D01*
X015217Y011062D01*
X015202Y011129D01*
X015191Y011196D01*
X015183Y011264D01*
X015179Y011332D01*
X015179Y011400D01*
X015183Y011468D01*
X015191Y011536D01*
X015202Y011603D01*
X015217Y011670D01*
X015236Y011736D01*
X015259Y011800D01*
X015285Y011863D01*
X015314Y011925D01*
X015347Y011985D01*
X015384Y012042D01*
X015423Y012098D01*
X015466Y012152D01*
X015511Y012203D01*
X015559Y012251D01*
X015610Y012296D01*
X015663Y012339D01*
X015719Y012379D01*
X015777Y012415D01*
X015836Y012448D01*
X015898Y012478D01*
X015961Y012505D01*
X016025Y012527D01*
X013560Y015471D02*
X013440Y015471D01*
X013380Y015531D01*
X013251Y015471D02*
X013131Y015591D01*
X013191Y015591D02*
X013011Y015591D01*
X013011Y015471D02*
X013011Y015831D01*
X013191Y015831D01*
X013251Y015771D01*
X013251Y015651D01*
X013191Y015591D01*
X013380Y015771D02*
X013440Y015831D01*
X013560Y015831D01*
X013620Y015771D01*
X013620Y015711D01*
X013560Y015651D01*
X013620Y015591D01*
X013620Y015531D01*
X013560Y015471D01*
X013560Y015651D02*
X013500Y015651D01*
X018496Y017420D02*
X018496Y017781D01*
X018676Y017781D01*
X018736Y017721D01*
X018736Y017601D01*
X018676Y017541D01*
X018496Y017541D01*
X018616Y017541D02*
X018736Y017420D01*
X018864Y017420D02*
X019105Y017420D01*
X018984Y017420D02*
X018984Y017781D01*
X018864Y017661D01*
X018864Y018460D02*
X019105Y018700D01*
X019105Y018760D01*
X019045Y018820D01*
X018924Y018820D01*
X018864Y018760D01*
X018736Y018760D02*
X018736Y018640D01*
X018676Y018580D01*
X018496Y018580D01*
X018496Y018460D02*
X018496Y018820D01*
X018676Y018820D01*
X018736Y018760D01*
X018616Y018580D02*
X018736Y018460D01*
X018864Y018460D02*
X019105Y018460D01*
X014142Y019736D02*
X013902Y019736D01*
X014022Y019736D02*
X014022Y020096D01*
X013902Y019976D01*
X013774Y020036D02*
X013714Y020096D01*
X013593Y020096D01*
X013533Y020036D01*
X013533Y019796D01*
X013593Y019736D01*
X013714Y019736D01*
X013774Y019796D01*
X023939Y008512D02*
X024175Y008512D01*
X023939Y008512D02*
X023269Y007843D01*
X023269Y005953D01*
X024175Y005953D01*
X024923Y005953D02*
X025828Y005953D01*
X025828Y007843D01*
X025159Y008512D01*
X024923Y008512D01*
X024923Y008393D02*
X024987Y008371D01*
X025050Y008344D01*
X025112Y008314D01*
X025171Y008281D01*
X025229Y008245D01*
X025285Y008205D01*
X025338Y008162D01*
X025389Y008117D01*
X025437Y008069D01*
X025482Y008018D01*
X025525Y007964D01*
X025564Y007908D01*
X025601Y007851D01*
X025634Y007791D01*
X025663Y007729D01*
X025689Y007666D01*
X025712Y007602D01*
X025731Y007536D01*
X025746Y007469D01*
X025757Y007402D01*
X025765Y007334D01*
X025769Y007266D01*
X025769Y007198D01*
X025765Y007130D01*
X025757Y007062D01*
X025746Y006995D01*
X025731Y006928D01*
X025712Y006862D01*
X025689Y006798D01*
X025663Y006735D01*
X025634Y006673D01*
X025601Y006613D01*
X025564Y006556D01*
X025525Y006500D01*
X025482Y006446D01*
X025437Y006395D01*
X025389Y006347D01*
X025338Y006302D01*
X025285Y006259D01*
X025229Y006219D01*
X025171Y006183D01*
X025112Y006150D01*
X025050Y006120D01*
X024987Y006093D01*
X024923Y006071D01*
X024175Y006071D02*
X024111Y006093D01*
X024048Y006120D01*
X023986Y006150D01*
X023927Y006183D01*
X023869Y006219D01*
X023813Y006259D01*
X023760Y006302D01*
X023709Y006347D01*
X023661Y006395D01*
X023616Y006446D01*
X023573Y006500D01*
X023534Y006556D01*
X023497Y006613D01*
X023464Y006673D01*
X023435Y006735D01*
X023409Y006798D01*
X023386Y006862D01*
X023367Y006928D01*
X023352Y006995D01*
X023341Y007062D01*
X023333Y007130D01*
X023329Y007198D01*
X023329Y007266D01*
X023333Y007334D01*
X023341Y007402D01*
X023352Y007469D01*
X023367Y007536D01*
X023386Y007602D01*
X023409Y007666D01*
X023435Y007729D01*
X023464Y007791D01*
X023497Y007851D01*
X023534Y007908D01*
X023573Y007964D01*
X023616Y008018D01*
X023661Y008069D01*
X023709Y008117D01*
X023760Y008162D01*
X023813Y008205D01*
X023869Y008245D01*
X023927Y008281D01*
X023986Y008314D01*
X024048Y008344D01*
X024111Y008371D01*
X024175Y008393D01*
X010646Y007189D02*
X010406Y007189D01*
X010526Y007189D02*
X010526Y007550D01*
X010406Y007429D01*
X010278Y007490D02*
X010278Y007249D01*
X010218Y007189D01*
X010097Y007189D01*
X010037Y007249D01*
X010037Y007490D01*
X010097Y007550D01*
X010218Y007550D01*
X010278Y007490D01*
X009909Y007490D02*
X009669Y007249D01*
X009669Y007189D01*
X009909Y007189D01*
X009909Y007490D02*
X009909Y007550D01*
X009669Y007550D01*
X009541Y007550D02*
X009301Y007550D01*
X009301Y007189D01*
X009541Y007189D01*
X009421Y007369D02*
X009301Y007369D01*
X009175Y007189D02*
X009055Y007189D01*
X009115Y007189D02*
X009115Y007550D01*
X009055Y007550D02*
X009175Y007550D01*
X008927Y007490D02*
X008927Y007369D01*
X008867Y007309D01*
X008687Y007309D01*
X008687Y007189D02*
X008687Y007550D01*
X008867Y007550D01*
X008927Y007490D01*
D16*
X007797Y015205D02*
X007561Y015205D01*
X007797Y015205D02*
X007797Y016051D01*
X006891Y015205D02*
X006655Y015205D01*
X006655Y016051D01*
D17*
X003852Y015618D02*
X003852Y015303D01*
X002474Y015303D01*
X002868Y015618D02*
X002868Y016091D01*
X002868Y015618D02*
X003852Y015618D01*
X003810Y013717D02*
X003574Y013717D01*
X003456Y013599D01*
X003456Y013127D01*
X003574Y013009D01*
X003810Y013009D01*
X003928Y013127D01*
X004181Y013009D02*
X004535Y013009D01*
X004653Y013127D01*
X004653Y013599D01*
X004535Y013717D01*
X004181Y013717D01*
X004181Y013009D01*
X003928Y013599D02*
X003810Y013717D01*
X003203Y013009D02*
X002731Y013009D01*
X002731Y013717D01*
X004906Y013481D02*
X005142Y013717D01*
X005142Y013009D01*
X004906Y013009D02*
X005378Y013009D01*
X006006Y011366D02*
X006006Y011051D01*
X006242Y011051D01*
X006872Y011051D02*
X007108Y011051D01*
X007108Y011366D01*
X007305Y010067D02*
X007307Y010163D01*
X007313Y010259D01*
X007323Y010354D01*
X007337Y010449D01*
X007354Y010544D01*
X007376Y010637D01*
X007402Y010730D01*
X007431Y010821D01*
X007464Y010911D01*
X007501Y011000D01*
X007541Y011087D01*
X007585Y011173D01*
X007632Y011256D01*
X007683Y011338D01*
X007737Y011417D01*
X007795Y011494D01*
X007855Y011568D01*
X007919Y011640D01*
X007985Y011710D01*
X008055Y011776D01*
X008127Y011840D01*
X008201Y011900D01*
X008278Y011958D01*
X008357Y012012D01*
X008439Y012063D01*
X008522Y012110D01*
X008608Y012154D01*
X008695Y012194D01*
X008784Y012231D01*
X008874Y012264D01*
X008965Y012293D01*
X009058Y012319D01*
X009151Y012341D01*
X009246Y012358D01*
X009341Y012372D01*
X009436Y012382D01*
X009532Y012388D01*
X009628Y012390D01*
X009724Y012388D01*
X009820Y012382D01*
X009915Y012372D01*
X010010Y012358D01*
X010105Y012341D01*
X010198Y012319D01*
X010291Y012293D01*
X010382Y012264D01*
X010472Y012231D01*
X010561Y012194D01*
X010648Y012154D01*
X010734Y012110D01*
X010817Y012063D01*
X010899Y012012D01*
X010978Y011958D01*
X011055Y011900D01*
X011129Y011840D01*
X011201Y011776D01*
X011271Y011710D01*
X011337Y011640D01*
X011401Y011568D01*
X011461Y011494D01*
X011519Y011417D01*
X011573Y011338D01*
X011624Y011256D01*
X011671Y011173D01*
X011715Y011087D01*
X011755Y011000D01*
X011792Y010911D01*
X011825Y010821D01*
X011854Y010730D01*
X011880Y010637D01*
X011902Y010544D01*
X011919Y010449D01*
X011933Y010354D01*
X011943Y010259D01*
X011949Y010163D01*
X011951Y010067D01*
X011949Y009971D01*
X011943Y009875D01*
X011933Y009780D01*
X011919Y009685D01*
X011902Y009590D01*
X011880Y009497D01*
X011854Y009404D01*
X011825Y009313D01*
X011792Y009223D01*
X011755Y009134D01*
X011715Y009047D01*
X011671Y008961D01*
X011624Y008878D01*
X011573Y008796D01*
X011519Y008717D01*
X011461Y008640D01*
X011401Y008566D01*
X011337Y008494D01*
X011271Y008424D01*
X011201Y008358D01*
X011129Y008294D01*
X011055Y008234D01*
X010978Y008176D01*
X010899Y008122D01*
X010817Y008071D01*
X010734Y008024D01*
X010648Y007980D01*
X010561Y007940D01*
X010472Y007903D01*
X010382Y007870D01*
X010291Y007841D01*
X010198Y007815D01*
X010105Y007793D01*
X010010Y007776D01*
X009915Y007762D01*
X009820Y007752D01*
X009724Y007746D01*
X009628Y007744D01*
X009532Y007746D01*
X009436Y007752D01*
X009341Y007762D01*
X009246Y007776D01*
X009151Y007793D01*
X009058Y007815D01*
X008965Y007841D01*
X008874Y007870D01*
X008784Y007903D01*
X008695Y007940D01*
X008608Y007980D01*
X008522Y008024D01*
X008439Y008071D01*
X008357Y008122D01*
X008278Y008176D01*
X008201Y008234D01*
X008127Y008294D01*
X008055Y008358D01*
X007985Y008424D01*
X007919Y008494D01*
X007855Y008566D01*
X007795Y008640D01*
X007737Y008717D01*
X007683Y008796D01*
X007632Y008878D01*
X007585Y008961D01*
X007541Y009047D01*
X007501Y009134D01*
X007464Y009223D01*
X007431Y009313D01*
X007402Y009404D01*
X007376Y009497D01*
X007354Y009590D01*
X007337Y009685D01*
X007323Y009780D01*
X007313Y009875D01*
X007307Y009971D01*
X007305Y010067D01*
X013722Y012508D02*
X013722Y012823D01*
X013958Y012823D01*
X014588Y012823D02*
X014824Y012823D01*
X014824Y012508D01*
X018171Y012783D02*
X018171Y012075D01*
X018171Y012783D02*
X020848Y012783D01*
X020848Y012094D01*
X019510Y010215D02*
X019442Y010217D01*
X019375Y010223D01*
X019308Y010232D01*
X019242Y010245D01*
X019177Y010261D01*
X019113Y010282D01*
X019050Y010305D01*
X018988Y010332D01*
X018928Y010363D01*
X018869Y010396D01*
X018813Y010433D01*
X018759Y010473D01*
X018707Y010515D01*
X018657Y010561D01*
X018610Y010609D01*
X018565Y010660D01*
X018524Y010713D01*
X018485Y010768D01*
X018450Y010825D01*
X018417Y010884D01*
X018171Y010815D02*
X018171Y010106D01*
X020435Y010106D01*
X020435Y010520D01*
X020848Y010520D01*
X020848Y010815D01*
X021177Y009949D02*
X020366Y009949D01*
X020366Y008925D02*
X021177Y008925D01*
X022411Y009634D02*
X023789Y009634D01*
X023395Y009949D02*
X022411Y009949D01*
X022411Y009634D01*
X023395Y009949D02*
X023395Y010421D01*
X025364Y010421D02*
X025364Y011996D01*
X023789Y012783D02*
X022411Y012783D01*
X022411Y012469D01*
X023395Y012469D01*
X023395Y011996D01*
X018722Y011445D02*
X018724Y011501D01*
X018730Y011556D01*
X018740Y011610D01*
X018753Y011664D01*
X018771Y011717D01*
X018792Y011768D01*
X018816Y011818D01*
X018844Y011866D01*
X018876Y011912D01*
X018910Y011956D01*
X018948Y011997D01*
X018988Y012035D01*
X019031Y012070D01*
X019076Y012102D01*
X019124Y012131D01*
X019173Y012157D01*
X019224Y012179D01*
X019276Y012197D01*
X019330Y012211D01*
X019385Y012222D01*
X019440Y012229D01*
X019495Y012232D01*
X019551Y012231D01*
X019606Y012226D01*
X019661Y012217D01*
X019715Y012205D01*
X019768Y012188D01*
X019820Y012168D01*
X019870Y012144D01*
X019918Y012117D01*
X019965Y012087D01*
X020009Y012053D01*
X020051Y012016D01*
X020089Y011976D01*
X020126Y011934D01*
X020159Y011889D01*
X020188Y011843D01*
X020215Y011794D01*
X020237Y011743D01*
X020257Y011691D01*
X020272Y011637D01*
X020284Y011583D01*
X020292Y011528D01*
X020296Y011473D01*
X020296Y011417D01*
X020292Y011362D01*
X020284Y011307D01*
X020272Y011253D01*
X020257Y011199D01*
X020237Y011147D01*
X020215Y011096D01*
X020188Y011047D01*
X020159Y011001D01*
X020126Y010956D01*
X020089Y010914D01*
X020051Y010874D01*
X020009Y010837D01*
X019965Y010803D01*
X019918Y010773D01*
X019870Y010746D01*
X019820Y010722D01*
X019768Y010702D01*
X019715Y010685D01*
X019661Y010673D01*
X019606Y010664D01*
X019551Y010659D01*
X019495Y010658D01*
X019440Y010661D01*
X019385Y010668D01*
X019330Y010679D01*
X019276Y010693D01*
X019224Y010711D01*
X019173Y010733D01*
X019124Y010759D01*
X019076Y010788D01*
X019031Y010820D01*
X018988Y010855D01*
X018948Y010893D01*
X018910Y010934D01*
X018876Y010978D01*
X018844Y011024D01*
X018816Y011072D01*
X018792Y011122D01*
X018771Y011173D01*
X018753Y011226D01*
X018740Y011280D01*
X018730Y011334D01*
X018724Y011389D01*
X018722Y011445D01*
X018398Y011976D02*
X018429Y012038D01*
X018464Y012098D01*
X018503Y012155D01*
X018544Y012211D01*
X018589Y012264D01*
X018637Y012314D01*
X018687Y012362D01*
X018740Y012406D01*
X018795Y012448D01*
X018853Y012486D01*
X018912Y012522D01*
X018974Y012553D01*
X019037Y012582D01*
X019102Y012606D01*
X019168Y012627D01*
X019235Y012645D01*
X019303Y012658D01*
X019371Y012667D01*
X019440Y012673D01*
X019510Y012675D01*
X020602Y010884D02*
X020569Y010825D01*
X020534Y010768D01*
X020495Y010713D01*
X020454Y010660D01*
X020409Y010609D01*
X020362Y010561D01*
X020312Y010515D01*
X020260Y010473D01*
X020206Y010433D01*
X020150Y010396D01*
X020091Y010363D01*
X020031Y010332D01*
X019969Y010305D01*
X019906Y010282D01*
X019842Y010261D01*
X019777Y010245D01*
X019711Y010232D01*
X019644Y010223D01*
X019577Y010217D01*
X019509Y010215D01*
X020602Y012006D02*
X020569Y012065D01*
X020534Y012122D01*
X020495Y012177D01*
X020454Y012230D01*
X020409Y012281D01*
X020362Y012329D01*
X020312Y012375D01*
X020260Y012417D01*
X020206Y012457D01*
X020150Y012494D01*
X020091Y012527D01*
X020031Y012558D01*
X019969Y012585D01*
X019906Y012608D01*
X019842Y012629D01*
X019777Y012645D01*
X019711Y012658D01*
X019644Y012667D01*
X019577Y012673D01*
X019509Y012675D01*
X022214Y015303D02*
X023592Y015303D01*
X023198Y015618D02*
X022214Y015618D01*
X022214Y015303D01*
X023198Y015618D02*
X023198Y016091D01*
X025167Y016091D02*
X025167Y019240D01*
X023592Y020028D02*
X022214Y020028D01*
X022214Y019713D01*
X023198Y019713D01*
X023198Y019240D01*
X014963Y017172D02*
X014965Y017187D01*
X014971Y017200D01*
X014980Y017212D01*
X014991Y017221D01*
X015005Y017227D01*
X015020Y017229D01*
X015035Y017227D01*
X015048Y017221D01*
X015060Y017212D01*
X015069Y017201D01*
X015075Y017187D01*
X015077Y017172D01*
X015075Y017157D01*
X015069Y017144D01*
X015060Y017132D01*
X015049Y017123D01*
X015035Y017117D01*
X015020Y017115D01*
X015005Y017117D01*
X014992Y017123D01*
X014980Y017132D01*
X014971Y017143D01*
X014965Y017157D01*
X014963Y017172D01*
X003852Y019713D02*
X003852Y020028D01*
X002474Y020028D01*
X002868Y019713D02*
X003852Y019713D01*
X002868Y019713D02*
X002868Y019240D01*
X000899Y019240D02*
X000899Y016091D01*
D18*
X012462Y013000D03*
D19*
X021056Y009437D03*
D20*
X011049Y002325D03*
X011049Y002320D03*
X011049Y002315D03*
X011044Y002305D03*
X011044Y002300D03*
X011044Y002295D03*
X011039Y002285D03*
X011039Y002280D03*
X011039Y002275D03*
X011034Y002265D03*
X011034Y002260D03*
X011034Y002255D03*
X011029Y002245D03*
X011029Y002240D03*
X011029Y002235D03*
X011024Y002225D03*
X011024Y002220D03*
X011024Y002215D03*
X011024Y002210D03*
X011019Y002205D03*
X011019Y002200D03*
X011019Y002195D03*
X011019Y002190D03*
X011014Y002185D03*
X011014Y002180D03*
X011014Y002175D03*
X011014Y002170D03*
X011009Y002165D03*
X011009Y002160D03*
X011009Y002155D03*
X011009Y002150D03*
X011004Y002145D03*
X011004Y002140D03*
X011004Y002135D03*
X011004Y002130D03*
X010999Y002125D03*
X010999Y002120D03*
X010999Y002115D03*
X010999Y002110D03*
X010994Y002105D03*
X010994Y002100D03*
X010994Y002095D03*
X010994Y002090D03*
X010989Y002080D03*
X010989Y002075D03*
X010989Y002070D03*
X010984Y002060D03*
X010984Y002055D03*
X010984Y002050D03*
X010979Y002040D03*
X010979Y002035D03*
X010979Y002030D03*
X010834Y002070D03*
X010834Y002075D03*
X010689Y002105D03*
X010689Y002110D03*
X010689Y002115D03*
X010694Y002125D03*
X010694Y002130D03*
X010694Y002135D03*
X010699Y002145D03*
X010699Y002150D03*
X010699Y002155D03*
X010704Y002165D03*
X010704Y002170D03*
X010704Y002175D03*
X010709Y002185D03*
X010709Y002190D03*
X010709Y002195D03*
X010714Y002205D03*
X010714Y002210D03*
X010714Y002215D03*
X010719Y002230D03*
X010719Y002235D03*
X010724Y002250D03*
X010724Y002255D03*
X010729Y002270D03*
X010729Y002275D03*
X010734Y002290D03*
X010734Y002295D03*
X010739Y002310D03*
X010739Y002315D03*
X010744Y002330D03*
X010684Y002095D03*
X010684Y002090D03*
X010684Y002085D03*
X010679Y002075D03*
X010679Y002070D03*
X010679Y002065D03*
X010674Y002055D03*
X010674Y002050D03*
X010674Y002045D03*
X010669Y002035D03*
X010669Y002030D03*
X006739Y001175D03*
D21*
X007009Y002115D03*
X008864Y001175D03*
X010459Y002035D03*
X010459Y002040D03*
X010459Y002045D03*
X010464Y002055D03*
X010464Y002060D03*
X010464Y002065D03*
X010469Y002075D03*
X010469Y002080D03*
X010469Y002085D03*
X010474Y002095D03*
X010474Y002100D03*
X010474Y002105D03*
X010479Y002115D03*
X010479Y002120D03*
X010479Y002125D03*
X010484Y002135D03*
X010484Y002140D03*
X010484Y002145D03*
X010489Y002155D03*
X010489Y002160D03*
X010489Y002165D03*
X010494Y002180D03*
X010494Y002185D03*
X010499Y002200D03*
X010499Y002205D03*
X010504Y002220D03*
X010504Y002225D03*
X010509Y002240D03*
X010509Y002245D03*
X010514Y002260D03*
X010514Y002265D03*
X010519Y002280D03*
X010519Y002285D03*
X010524Y002300D03*
X010524Y002305D03*
X010529Y002320D03*
X010529Y002325D03*
X010534Y002340D03*
X010534Y002345D03*
X010539Y002360D03*
X010539Y002365D03*
X010839Y002100D03*
X010839Y002095D03*
X010839Y002090D03*
D22*
X009146Y002125D03*
X007001Y002110D03*
X006471Y002045D03*
X006751Y001180D03*
D23*
X006476Y002055D03*
X006481Y002060D03*
X008871Y001180D03*
D24*
X006759Y001185D03*
X006424Y001970D03*
D25*
X006426Y001975D03*
X006431Y001980D03*
X006996Y002105D03*
X008876Y001185D03*
D26*
X008734Y001395D03*
X008734Y001400D03*
X008734Y001405D03*
X008739Y001525D03*
X008739Y001530D03*
X008744Y001550D03*
X008744Y001555D03*
X008744Y001560D03*
X008749Y001570D03*
X008749Y001575D03*
X008749Y001580D03*
X008749Y001585D03*
X008754Y001595D03*
X008754Y001600D03*
X008754Y001605D03*
X008759Y001615D03*
X008759Y001620D03*
X008759Y001625D03*
X008759Y001630D03*
X008764Y001635D03*
X008764Y001640D03*
X008764Y001645D03*
X008764Y001650D03*
X008769Y001655D03*
X008769Y001660D03*
X008769Y001665D03*
X008774Y001675D03*
X008774Y001680D03*
X008774Y001685D03*
X008779Y001690D03*
X008779Y001695D03*
X008779Y001700D03*
X008784Y001710D03*
X008784Y001715D03*
X008789Y001730D03*
X008794Y001745D03*
X008859Y001900D03*
X008864Y001905D03*
X008869Y001910D03*
X008464Y002020D03*
X008464Y002025D03*
X008469Y002040D03*
X008469Y002045D03*
X008474Y002060D03*
X008474Y002065D03*
X008479Y002080D03*
X008479Y002085D03*
X008459Y002005D03*
X008459Y002000D03*
X008454Y001985D03*
X008454Y001980D03*
X008449Y001965D03*
X008449Y001960D03*
X008444Y001945D03*
X008444Y001940D03*
X008439Y001925D03*
X008439Y001920D03*
X008434Y001905D03*
X008434Y001900D03*
X008429Y001885D03*
X008429Y001880D03*
X008424Y001865D03*
X008424Y001860D03*
X008419Y001845D03*
X008419Y001840D03*
X008414Y001825D03*
X008414Y001820D03*
X008409Y001805D03*
X008409Y001800D03*
X008404Y001785D03*
X008404Y001780D03*
X008399Y001765D03*
X008399Y001760D03*
X008394Y001745D03*
X008394Y001740D03*
X008389Y001725D03*
X008389Y001720D03*
X008384Y001705D03*
X008384Y001700D03*
X008379Y001685D03*
X008379Y001680D03*
X008374Y001665D03*
X008374Y001660D03*
X008369Y001645D03*
X008369Y001640D03*
X008364Y001625D03*
X008364Y001620D03*
X008359Y001605D03*
X008359Y001600D03*
X008354Y001585D03*
X008354Y001580D03*
X008349Y001565D03*
X008349Y001560D03*
X008344Y001545D03*
X008344Y001540D03*
X008339Y001525D03*
X008339Y001520D03*
X008334Y001505D03*
X008334Y001500D03*
X008329Y001485D03*
X008329Y001480D03*
X008324Y001465D03*
X008324Y001460D03*
X008319Y001445D03*
X008319Y001440D03*
X008314Y001425D03*
X008314Y001420D03*
X008309Y001405D03*
X008309Y001400D03*
X008304Y001385D03*
X008304Y001380D03*
X008299Y001365D03*
X008299Y001360D03*
X008294Y001345D03*
X008294Y001340D03*
X008289Y001325D03*
X008289Y001320D03*
X008284Y001305D03*
X008284Y001300D03*
X008279Y001285D03*
X008279Y001280D03*
X008274Y001265D03*
X008274Y001260D03*
X008269Y001245D03*
X008269Y001240D03*
X008264Y001225D03*
X008264Y001220D03*
X008259Y001205D03*
X008259Y001200D03*
X009494Y001200D03*
X009494Y001205D03*
X009499Y001220D03*
X009499Y001225D03*
X009504Y001240D03*
X009504Y001245D03*
X009509Y001260D03*
X009509Y001265D03*
X009514Y001280D03*
X009514Y001285D03*
X009519Y001300D03*
X009519Y001305D03*
X009524Y001320D03*
X009524Y001325D03*
X009529Y001340D03*
X009529Y001345D03*
X009534Y001360D03*
X009534Y001365D03*
X009539Y001380D03*
X009539Y001385D03*
X009544Y001400D03*
X009544Y001405D03*
X009549Y001420D03*
X009549Y001425D03*
X009554Y001435D03*
X009644Y001805D03*
X009644Y001810D03*
X009649Y001825D03*
X009649Y001830D03*
X009654Y001845D03*
X009654Y001850D03*
X009659Y001865D03*
X009659Y001870D03*
X009664Y001885D03*
X009664Y001890D03*
X009669Y001905D03*
X009669Y001910D03*
X009674Y001925D03*
X009674Y001930D03*
X009679Y001945D03*
X009679Y001950D03*
X009684Y001965D03*
X009684Y001970D03*
X009689Y001985D03*
X009689Y001990D03*
X009694Y002005D03*
X009694Y002010D03*
X009699Y002025D03*
X009699Y002030D03*
X009704Y002045D03*
X009704Y002050D03*
X009709Y002065D03*
X009709Y002070D03*
X009714Y002085D03*
X009714Y002090D03*
X009719Y002105D03*
X009719Y002110D03*
X009724Y002125D03*
X009724Y002130D03*
X009729Y002145D03*
X009729Y002150D03*
X009734Y002165D03*
X009734Y002170D03*
X009739Y002185D03*
X009739Y002190D03*
X009744Y002205D03*
X009744Y002210D03*
X009749Y002230D03*
X009754Y002250D03*
X009759Y002270D03*
X009764Y002290D03*
X009769Y002310D03*
X009774Y002330D03*
X009779Y002350D03*
X009784Y002370D03*
X009789Y002390D03*
X010059Y001935D03*
X010054Y001930D03*
X010049Y001925D03*
X010039Y001910D03*
X010034Y001905D03*
X010029Y001900D03*
X010024Y001895D03*
X010019Y001890D03*
X010014Y001885D03*
X009989Y001855D03*
X006994Y002100D03*
X006634Y001595D03*
X006634Y001590D03*
X006629Y001575D03*
X006629Y001570D03*
X006624Y001550D03*
X006614Y001365D03*
X006619Y001360D03*
X006759Y001190D03*
X006989Y001360D03*
X006064Y001600D03*
X006064Y001605D03*
X006069Y001620D03*
X006069Y001625D03*
X006074Y001640D03*
X006074Y001645D03*
X006079Y001660D03*
X006079Y001665D03*
X006084Y001680D03*
X006084Y001685D03*
X006089Y001700D03*
X006089Y001705D03*
X006094Y001715D03*
X006094Y001720D03*
X006094Y001725D03*
X006099Y001730D03*
X006099Y001735D03*
X006059Y001585D03*
X006059Y001580D03*
X006054Y001565D03*
X006054Y001560D03*
X006049Y001545D03*
X006049Y001540D03*
X006044Y001525D03*
X006044Y001520D03*
X006039Y001505D03*
X006039Y001500D03*
X006034Y001485D03*
X006034Y001480D03*
X006029Y001465D03*
X006029Y001460D03*
X006024Y001445D03*
X006024Y001440D03*
X006019Y001425D03*
X006019Y001420D03*
X006014Y001405D03*
X006014Y001400D03*
X006009Y001385D03*
X006009Y001380D03*
X006004Y001365D03*
X006004Y001360D03*
X005999Y001345D03*
X005999Y001340D03*
X005994Y001325D03*
X005994Y001320D03*
X005989Y001305D03*
X005989Y001300D03*
X005984Y001285D03*
X005984Y001280D03*
X005979Y001265D03*
X005979Y001260D03*
X005974Y001245D03*
X005974Y001240D03*
X005969Y001225D03*
X005969Y001220D03*
X005964Y001205D03*
X005964Y001200D03*
X005569Y001300D03*
X005569Y001305D03*
X005574Y001320D03*
X005574Y001325D03*
X005579Y001340D03*
X005579Y001345D03*
X005584Y001360D03*
X005584Y001365D03*
X005589Y001380D03*
X005589Y001385D03*
X005594Y001400D03*
X005594Y001405D03*
X005599Y001420D03*
X005599Y001425D03*
X005604Y001440D03*
X005604Y001445D03*
X005609Y001460D03*
X005609Y001465D03*
X005614Y001480D03*
X005614Y001485D03*
X005619Y001500D03*
X005619Y001505D03*
X005624Y001520D03*
X005624Y001525D03*
X005629Y001540D03*
X005629Y001545D03*
X005634Y001560D03*
X005634Y001565D03*
X005639Y001580D03*
X005639Y001585D03*
X005644Y001600D03*
X005644Y001605D03*
X005649Y001620D03*
X005649Y001625D03*
X005654Y001640D03*
X005654Y001645D03*
X005659Y001660D03*
X005659Y001665D03*
X005664Y001680D03*
X005664Y001685D03*
X005669Y001700D03*
X005669Y001705D03*
X005674Y001720D03*
X005674Y001725D03*
X005679Y001740D03*
X005679Y001745D03*
X005684Y001760D03*
X005684Y001765D03*
X005689Y001780D03*
X005689Y001785D03*
X005694Y001800D03*
X005694Y001805D03*
X005699Y001820D03*
X005699Y001825D03*
X005704Y001840D03*
X005704Y001845D03*
X005709Y001860D03*
X005709Y001865D03*
X005714Y001880D03*
X005714Y001885D03*
X005719Y001900D03*
X005719Y001905D03*
X005724Y001920D03*
X005724Y001925D03*
X005729Y001940D03*
X005729Y001945D03*
X005734Y001960D03*
X005734Y001965D03*
X005739Y001980D03*
X005739Y001985D03*
X005744Y002000D03*
X005744Y002005D03*
X005749Y002020D03*
X005749Y002025D03*
X005754Y002040D03*
X005754Y002045D03*
X005759Y002060D03*
X005759Y002065D03*
X005764Y002080D03*
X005764Y002085D03*
X005784Y002165D03*
X005784Y002170D03*
X005789Y002185D03*
X005789Y002190D03*
X005794Y002205D03*
X005794Y002210D03*
X005799Y002225D03*
X005799Y002230D03*
X005804Y002245D03*
X005804Y002250D03*
X005809Y002265D03*
X005809Y002270D03*
X005814Y002285D03*
X005814Y002290D03*
X005819Y002305D03*
X005819Y002310D03*
X005824Y002330D03*
X005829Y002350D03*
X005834Y002370D03*
X005839Y002390D03*
X005564Y001285D03*
X005564Y001280D03*
X005559Y001265D03*
X005559Y001260D03*
X005554Y001245D03*
X005554Y001240D03*
X005549Y001225D03*
X005549Y001220D03*
X005544Y001205D03*
X005544Y001200D03*
D27*
X005541Y001195D03*
X005546Y001210D03*
X005546Y001215D03*
X005551Y001230D03*
X005551Y001235D03*
X005556Y001250D03*
X005556Y001255D03*
X005561Y001270D03*
X005561Y001275D03*
X005566Y001290D03*
X005566Y001295D03*
X005571Y001310D03*
X005571Y001315D03*
X005576Y001330D03*
X005576Y001335D03*
X005581Y001350D03*
X005581Y001355D03*
X005586Y001370D03*
X005586Y001375D03*
X005591Y001390D03*
X005591Y001395D03*
X005596Y001410D03*
X005596Y001415D03*
X005601Y001430D03*
X005601Y001435D03*
X005606Y001450D03*
X005606Y001455D03*
X005611Y001470D03*
X005611Y001475D03*
X005616Y001490D03*
X005616Y001495D03*
X005621Y001510D03*
X005621Y001515D03*
X005626Y001530D03*
X005626Y001535D03*
X005631Y001550D03*
X005631Y001555D03*
X005636Y001570D03*
X005636Y001575D03*
X005641Y001590D03*
X005641Y001595D03*
X005646Y001610D03*
X005646Y001615D03*
X005651Y001630D03*
X005651Y001635D03*
X005656Y001650D03*
X005656Y001655D03*
X005661Y001670D03*
X005661Y001675D03*
X005666Y001690D03*
X005666Y001695D03*
X005671Y001710D03*
X005671Y001715D03*
X005676Y001730D03*
X005676Y001735D03*
X005681Y001750D03*
X005681Y001755D03*
X005686Y001770D03*
X005686Y001775D03*
X005691Y001790D03*
X005691Y001795D03*
X005696Y001810D03*
X005696Y001815D03*
X005701Y001830D03*
X005701Y001835D03*
X005706Y001850D03*
X005706Y001855D03*
X005711Y001870D03*
X005711Y001875D03*
X005716Y001890D03*
X005716Y001895D03*
X005721Y001910D03*
X005721Y001915D03*
X005726Y001930D03*
X005726Y001935D03*
X005731Y001950D03*
X005731Y001955D03*
X005736Y001970D03*
X005736Y001975D03*
X005741Y001990D03*
X005741Y001995D03*
X005746Y002010D03*
X005746Y002015D03*
X005751Y002030D03*
X005751Y002035D03*
X005756Y002050D03*
X005756Y002055D03*
X005761Y002070D03*
X005761Y002075D03*
X005766Y002090D03*
X005786Y002175D03*
X005786Y002180D03*
X005791Y002195D03*
X005791Y002200D03*
X005796Y002215D03*
X005796Y002220D03*
X005801Y002235D03*
X005801Y002240D03*
X005806Y002255D03*
X005806Y002260D03*
X005811Y002275D03*
X005811Y002280D03*
X005816Y002295D03*
X005816Y002300D03*
X005821Y002315D03*
X005821Y002320D03*
X005821Y002325D03*
X005826Y002335D03*
X005826Y002340D03*
X005826Y002345D03*
X005831Y002355D03*
X005831Y002360D03*
X005831Y002365D03*
X005836Y002375D03*
X005836Y002380D03*
X005836Y002385D03*
X006751Y001915D03*
X006756Y001920D03*
X006681Y001770D03*
X006631Y001585D03*
X006631Y001580D03*
X006626Y001565D03*
X006626Y001560D03*
X006626Y001555D03*
X006621Y001545D03*
X006621Y001540D03*
X006621Y001535D03*
X006621Y001530D03*
X006616Y001520D03*
X006616Y001515D03*
X006616Y001510D03*
X006611Y001370D03*
X006041Y001510D03*
X006041Y001515D03*
X006046Y001530D03*
X006046Y001535D03*
X006051Y001550D03*
X006051Y001555D03*
X006056Y001570D03*
X006056Y001575D03*
X006061Y001590D03*
X006061Y001595D03*
X006066Y001610D03*
X006066Y001615D03*
X006071Y001630D03*
X006071Y001635D03*
X006076Y001650D03*
X006076Y001655D03*
X006081Y001670D03*
X006081Y001675D03*
X006086Y001690D03*
X006086Y001695D03*
X006091Y001710D03*
X006036Y001495D03*
X006036Y001490D03*
X006031Y001475D03*
X006031Y001470D03*
X006026Y001455D03*
X006026Y001450D03*
X006021Y001435D03*
X006021Y001430D03*
X006016Y001415D03*
X006016Y001410D03*
X006011Y001395D03*
X006011Y001390D03*
X006006Y001375D03*
X006006Y001370D03*
X006001Y001355D03*
X006001Y001350D03*
X005996Y001335D03*
X005996Y001330D03*
X005991Y001315D03*
X005991Y001310D03*
X005986Y001295D03*
X005986Y001290D03*
X005981Y001275D03*
X005981Y001270D03*
X005976Y001255D03*
X005976Y001250D03*
X005971Y001235D03*
X005971Y001230D03*
X005966Y001215D03*
X005966Y001210D03*
X005961Y001195D03*
X008256Y001195D03*
X008261Y001210D03*
X008261Y001215D03*
X008266Y001230D03*
X008266Y001235D03*
X008271Y001250D03*
X008271Y001255D03*
X008276Y001270D03*
X008276Y001275D03*
X008281Y001290D03*
X008281Y001295D03*
X008286Y001310D03*
X008286Y001315D03*
X008291Y001330D03*
X008291Y001335D03*
X008296Y001350D03*
X008296Y001355D03*
X008301Y001370D03*
X008301Y001375D03*
X008306Y001390D03*
X008306Y001395D03*
X008311Y001410D03*
X008311Y001415D03*
X008316Y001430D03*
X008316Y001435D03*
X008321Y001450D03*
X008321Y001455D03*
X008326Y001470D03*
X008326Y001475D03*
X008331Y001490D03*
X008331Y001495D03*
X008336Y001510D03*
X008336Y001515D03*
X008341Y001530D03*
X008341Y001535D03*
X008346Y001550D03*
X008346Y001555D03*
X008351Y001570D03*
X008351Y001575D03*
X008356Y001590D03*
X008356Y001595D03*
X008361Y001610D03*
X008361Y001615D03*
X008366Y001630D03*
X008366Y001635D03*
X008371Y001650D03*
X008371Y001655D03*
X008376Y001670D03*
X008376Y001675D03*
X008381Y001690D03*
X008381Y001695D03*
X008386Y001710D03*
X008386Y001715D03*
X008391Y001730D03*
X008391Y001735D03*
X008396Y001750D03*
X008396Y001755D03*
X008401Y001770D03*
X008401Y001775D03*
X008406Y001790D03*
X008406Y001795D03*
X008411Y001810D03*
X008411Y001815D03*
X008416Y001830D03*
X008416Y001835D03*
X008421Y001850D03*
X008421Y001855D03*
X008426Y001870D03*
X008426Y001875D03*
X008431Y001890D03*
X008431Y001895D03*
X008436Y001910D03*
X008436Y001915D03*
X008441Y001930D03*
X008441Y001935D03*
X008446Y001950D03*
X008446Y001955D03*
X008451Y001970D03*
X008451Y001975D03*
X008456Y001990D03*
X008456Y001995D03*
X008461Y002010D03*
X008461Y002015D03*
X008466Y002030D03*
X008466Y002035D03*
X008471Y002050D03*
X008471Y002055D03*
X008476Y002070D03*
X008476Y002075D03*
X008481Y002090D03*
X008851Y001890D03*
X008851Y001885D03*
X008846Y001880D03*
X008841Y001870D03*
X008836Y001860D03*
X008831Y001850D03*
X008826Y001840D03*
X008826Y001835D03*
X008821Y001825D03*
X008816Y001815D03*
X008816Y001810D03*
X008811Y001800D03*
X008811Y001795D03*
X008806Y001790D03*
X008806Y001785D03*
X008806Y001780D03*
X008801Y001775D03*
X008801Y001770D03*
X008801Y001765D03*
X008796Y001760D03*
X008796Y001755D03*
X008796Y001750D03*
X008791Y001740D03*
X008791Y001735D03*
X008786Y001725D03*
X008786Y001720D03*
X008781Y001705D03*
X008771Y001670D03*
X008756Y001610D03*
X008751Y001590D03*
X008746Y001565D03*
X008741Y001545D03*
X008741Y001540D03*
X008741Y001535D03*
X008736Y001520D03*
X008736Y001515D03*
X008736Y001510D03*
X008736Y001505D03*
X008736Y001500D03*
X008736Y001495D03*
X008731Y001490D03*
X008731Y001485D03*
X008731Y001480D03*
X008731Y001475D03*
X008731Y001470D03*
X008731Y001465D03*
X008731Y001460D03*
X008731Y001455D03*
X008731Y001450D03*
X008731Y001445D03*
X008731Y001440D03*
X008731Y001435D03*
X008731Y001430D03*
X008731Y001425D03*
X008731Y001420D03*
X008731Y001415D03*
X008731Y001410D03*
X008881Y001190D03*
X009131Y001385D03*
X009136Y001390D03*
X009516Y001295D03*
X009516Y001290D03*
X009511Y001275D03*
X009511Y001270D03*
X009506Y001255D03*
X009506Y001250D03*
X009501Y001235D03*
X009501Y001230D03*
X009496Y001215D03*
X009496Y001210D03*
X009491Y001195D03*
X009521Y001310D03*
X009521Y001315D03*
X009526Y001330D03*
X009526Y001335D03*
X009531Y001350D03*
X009531Y001355D03*
X009536Y001370D03*
X009536Y001375D03*
X009541Y001390D03*
X009541Y001395D03*
X009546Y001410D03*
X009546Y001415D03*
X009551Y001430D03*
X009641Y001800D03*
X009646Y001815D03*
X009646Y001820D03*
X009651Y001835D03*
X009651Y001840D03*
X009656Y001855D03*
X009656Y001860D03*
X009661Y001875D03*
X009661Y001880D03*
X009666Y001895D03*
X009666Y001900D03*
X009671Y001915D03*
X009671Y001920D03*
X009676Y001935D03*
X009676Y001940D03*
X009681Y001955D03*
X009681Y001960D03*
X009686Y001975D03*
X009686Y001980D03*
X009691Y001995D03*
X009691Y002000D03*
X009696Y002015D03*
X009696Y002020D03*
X009701Y002035D03*
X009701Y002040D03*
X009706Y002055D03*
X009706Y002060D03*
X009711Y002075D03*
X009711Y002080D03*
X009716Y002095D03*
X009716Y002100D03*
X009721Y002115D03*
X009721Y002120D03*
X009726Y002135D03*
X009726Y002140D03*
X009731Y002155D03*
X009731Y002160D03*
X009736Y002175D03*
X009736Y002180D03*
X009741Y002195D03*
X009741Y002200D03*
X009746Y002215D03*
X009746Y002220D03*
X009746Y002225D03*
X009751Y002235D03*
X009751Y002240D03*
X009751Y002245D03*
X009756Y002255D03*
X009756Y002260D03*
X009756Y002265D03*
X009761Y002275D03*
X009761Y002280D03*
X009761Y002285D03*
X009766Y002295D03*
X009766Y002300D03*
X009766Y002305D03*
X009771Y002315D03*
X009771Y002320D03*
X009771Y002325D03*
X009776Y002335D03*
X009776Y002340D03*
X009776Y002345D03*
X009781Y002355D03*
X009781Y002360D03*
X009781Y002365D03*
X009786Y002375D03*
X009786Y002380D03*
X009786Y002385D03*
X010011Y001880D03*
X010006Y001875D03*
X010001Y001870D03*
X009996Y001865D03*
X009991Y001860D03*
X009986Y001850D03*
X009981Y001845D03*
X009976Y001840D03*
X009971Y001835D03*
X009966Y001830D03*
X009266Y001930D03*
X008856Y001895D03*
D28*
X008886Y001930D03*
X009136Y002115D03*
X009566Y001460D03*
X009566Y001455D03*
X009921Y001495D03*
X009921Y001500D03*
X009926Y001490D03*
X009926Y001485D03*
X009926Y001480D03*
X009926Y001475D03*
X009931Y001470D03*
X009931Y001465D03*
X009931Y001460D03*
X009931Y001455D03*
X009936Y001450D03*
X009936Y001445D03*
X009936Y001440D03*
X009941Y001430D03*
X009941Y001425D03*
X009941Y001420D03*
X009946Y001405D03*
X009951Y001385D03*
X009956Y001365D03*
X009116Y001375D03*
X008741Y001380D03*
X007496Y001640D03*
X007496Y001645D03*
X007496Y001650D03*
X007491Y001630D03*
X007491Y001625D03*
X007491Y001620D03*
X007486Y001610D03*
X007486Y001605D03*
X007486Y001600D03*
X007481Y001590D03*
X007481Y001585D03*
X007481Y001580D03*
X007476Y001570D03*
X007476Y001565D03*
X007476Y001560D03*
X007476Y001555D03*
X007471Y001550D03*
X007471Y001545D03*
X007471Y001540D03*
X007471Y001535D03*
X007466Y001530D03*
X007466Y001525D03*
X007466Y001520D03*
X007466Y001515D03*
X007461Y001510D03*
X007461Y001505D03*
X007461Y001500D03*
X007461Y001495D03*
X007456Y001490D03*
X007456Y001485D03*
X007456Y001480D03*
X007456Y001475D03*
X007451Y001470D03*
X007451Y001465D03*
X007451Y001460D03*
X007451Y001455D03*
X007446Y001450D03*
X007446Y001445D03*
X007446Y001440D03*
X007446Y001435D03*
X007441Y001425D03*
X007441Y001420D03*
X007441Y001415D03*
X007436Y001405D03*
X007436Y001400D03*
X007436Y001395D03*
X007431Y001385D03*
X007431Y001380D03*
X007431Y001375D03*
X007426Y001365D03*
X007426Y001360D03*
X007426Y001355D03*
X007421Y001345D03*
X007421Y001340D03*
X007421Y001335D03*
X007416Y001325D03*
X007416Y001320D03*
X007416Y001315D03*
X007411Y001305D03*
X007411Y001300D03*
X007411Y001295D03*
X007406Y001285D03*
X007406Y001280D03*
X007406Y001275D03*
X007406Y001270D03*
X007401Y001265D03*
X007401Y001260D03*
X007401Y001255D03*
X007401Y001250D03*
X007396Y001245D03*
X007396Y001240D03*
X007396Y001235D03*
X007396Y001230D03*
X007391Y001225D03*
X007391Y001220D03*
X007391Y001215D03*
X007391Y001210D03*
X007386Y001205D03*
X007386Y001200D03*
X007386Y001195D03*
X006976Y001355D03*
X006626Y001355D03*
X006116Y001770D03*
X006111Y001765D03*
X006771Y001930D03*
X007556Y001885D03*
X007561Y001895D03*
X007561Y001900D03*
X007561Y001905D03*
X007566Y001920D03*
X007566Y001925D03*
X007571Y001940D03*
X007571Y001945D03*
X007571Y001950D03*
X007576Y001960D03*
X007576Y001965D03*
X007576Y001970D03*
X007581Y001980D03*
X007581Y001985D03*
X007581Y001990D03*
X007586Y002000D03*
X007586Y002005D03*
X007586Y002010D03*
X007591Y002020D03*
X007591Y002025D03*
X007591Y002030D03*
X007596Y002040D03*
X007596Y002045D03*
X007596Y002050D03*
X007601Y002060D03*
X007601Y002065D03*
X007601Y002070D03*
X007606Y002080D03*
X007606Y002085D03*
X007606Y002090D03*
X007611Y002100D03*
X007611Y002105D03*
X007611Y002110D03*
X007616Y002120D03*
X007616Y002125D03*
X007616Y002130D03*
X007621Y002140D03*
X007621Y002145D03*
X007621Y002150D03*
X007626Y002160D03*
X010136Y002025D03*
X010141Y002030D03*
X010146Y002035D03*
X010151Y002040D03*
X010156Y002045D03*
X010171Y002065D03*
X010176Y002070D03*
X010181Y002075D03*
X005016Y002135D03*
X005016Y002140D03*
X005011Y002130D03*
X005011Y002125D03*
X005011Y002120D03*
X005011Y002115D03*
X005006Y002110D03*
X005006Y002105D03*
X005006Y002100D03*
X005006Y002095D03*
X005001Y002085D03*
X005001Y002080D03*
X005001Y002075D03*
X004996Y002065D03*
X004996Y002060D03*
X004996Y002055D03*
X004991Y002045D03*
X004991Y002040D03*
X004991Y002035D03*
X004986Y002025D03*
X004986Y002020D03*
X004986Y002015D03*
X004981Y002005D03*
X004981Y002000D03*
X004981Y001995D03*
X004976Y001985D03*
X004976Y001980D03*
X004976Y001975D03*
X004971Y001965D03*
X004971Y001960D03*
X004971Y001955D03*
X004966Y001945D03*
X004966Y001940D03*
X004966Y001935D03*
X004901Y001685D03*
X004901Y001680D03*
X004901Y001675D03*
X004896Y001665D03*
X004896Y001660D03*
X004896Y001655D03*
X004891Y001645D03*
X004891Y001640D03*
X004891Y001635D03*
X004886Y001625D03*
X004886Y001620D03*
X004886Y001615D03*
X004881Y001605D03*
X004881Y001600D03*
X004881Y001595D03*
X004876Y001585D03*
X004876Y001580D03*
X004876Y001575D03*
X004871Y001565D03*
X004871Y001560D03*
X004871Y001555D03*
X004866Y001545D03*
X004866Y001540D03*
X004866Y001535D03*
X004861Y001525D03*
X004861Y001520D03*
X004861Y001515D03*
X004856Y001505D03*
X004856Y001500D03*
X004856Y001495D03*
X004851Y001485D03*
X004851Y001480D03*
X004851Y001475D03*
X004851Y001470D03*
X004846Y001465D03*
X004846Y001460D03*
X004846Y001455D03*
X004846Y001450D03*
X004841Y001445D03*
X004841Y001440D03*
X004841Y001435D03*
X004841Y001430D03*
X004836Y001425D03*
X004836Y001420D03*
X004836Y001415D03*
X004836Y001410D03*
X004831Y001405D03*
X004831Y001400D03*
X004831Y001395D03*
X004831Y001390D03*
X004826Y001385D03*
X004826Y001380D03*
X004826Y001375D03*
X004826Y001370D03*
X004821Y001365D03*
X004821Y001360D03*
X004821Y001355D03*
X004821Y001350D03*
X004816Y001345D03*
X004816Y001340D03*
X004816Y001335D03*
X004816Y001330D03*
X004811Y001325D03*
X004811Y001320D03*
X004811Y001315D03*
X004811Y001310D03*
X004806Y001305D03*
X004806Y001300D03*
X004806Y001295D03*
X004806Y001290D03*
X004801Y001285D03*
X004801Y001280D03*
X004801Y001275D03*
X004801Y001270D03*
X004796Y001265D03*
X004796Y001260D03*
X004796Y001255D03*
X004796Y001250D03*
X004791Y001245D03*
X004791Y001240D03*
X004791Y001235D03*
X004791Y001230D03*
X004786Y001225D03*
X004786Y001220D03*
X004786Y001215D03*
X004786Y001210D03*
X004781Y001205D03*
X004781Y001200D03*
X004781Y001195D03*
D29*
X006131Y001795D03*
X006761Y001195D03*
X008051Y001930D03*
X008056Y001935D03*
X008061Y001945D03*
X008091Y002130D03*
X008091Y002135D03*
X009581Y001485D03*
X009586Y001495D03*
D30*
X009584Y001490D03*
X009579Y001480D03*
X008884Y001195D03*
X008749Y001375D03*
X008059Y001940D03*
X008064Y001950D03*
X008069Y001960D03*
X008099Y002100D03*
X008099Y002105D03*
X008099Y002110D03*
X008099Y002115D03*
X008094Y002120D03*
X008094Y002125D03*
X006994Y002095D03*
X006129Y001790D03*
X006124Y001785D03*
D31*
X006121Y001780D03*
X008066Y001955D03*
X008071Y001965D03*
X008071Y001970D03*
X008076Y001975D03*
X008076Y001980D03*
X008081Y001990D03*
X008101Y002090D03*
X008101Y002095D03*
X009251Y001940D03*
X009576Y001475D03*
X009971Y001310D03*
X009976Y001290D03*
X009981Y001275D03*
X009981Y001270D03*
X009981Y001265D03*
X009986Y001255D03*
X009986Y001250D03*
X009986Y001245D03*
X009991Y001235D03*
X009991Y001230D03*
X009991Y001225D03*
X009996Y001220D03*
X009996Y001215D03*
X009996Y001210D03*
X009996Y001205D03*
X010001Y001200D03*
X010001Y001195D03*
D32*
X008081Y002155D03*
X008026Y001900D03*
X006761Y001200D03*
X006151Y001815D03*
D33*
X006146Y001810D03*
X006991Y002090D03*
X008031Y001905D03*
X008036Y001910D03*
X008086Y002150D03*
X008886Y001200D03*
D34*
X008004Y001885D03*
X006764Y001205D03*
D35*
X006159Y001820D03*
X006989Y002085D03*
X008014Y001890D03*
X008074Y002160D03*
X008889Y001205D03*
D36*
X006764Y001210D03*
D37*
X006169Y001825D03*
X006989Y002080D03*
X008889Y001210D03*
X009129Y002100D03*
D38*
X008891Y001215D03*
X006986Y002075D03*
X006766Y001215D03*
D39*
X006766Y001220D03*
D40*
X006984Y002070D03*
X008894Y001220D03*
X009124Y002090D03*
D41*
X008894Y001225D03*
X006769Y001225D03*
X006204Y001835D03*
D42*
X006771Y001230D03*
X008896Y001230D03*
X009121Y002080D03*
D43*
X009119Y002075D03*
X008899Y001235D03*
X007589Y001655D03*
X006769Y001235D03*
D44*
X006771Y001240D03*
D45*
X008899Y001240D03*
X009119Y002070D03*
D46*
X008894Y001935D03*
X008099Y002055D03*
X008099Y002060D03*
X008099Y002065D03*
X008099Y002070D03*
X008099Y002075D03*
X008099Y002080D03*
X008099Y002085D03*
X008094Y002050D03*
X008094Y002045D03*
X008094Y002040D03*
X008094Y002035D03*
X008094Y002030D03*
X008089Y002025D03*
X008089Y002020D03*
X008089Y002015D03*
X008089Y002010D03*
X008084Y002005D03*
X008084Y002000D03*
X008084Y001995D03*
X008079Y001985D03*
X007609Y002095D03*
X007614Y002115D03*
X007619Y002135D03*
X007624Y002155D03*
X007604Y002075D03*
X007599Y002055D03*
X007594Y002035D03*
X007589Y002015D03*
X007584Y001995D03*
X007579Y001975D03*
X007574Y001955D03*
X007569Y001935D03*
X007569Y001930D03*
X007564Y001915D03*
X007564Y001910D03*
X007559Y001890D03*
X006119Y001775D03*
X004994Y002050D03*
X004999Y002070D03*
X005004Y002090D03*
X004989Y002030D03*
X004984Y002010D03*
X004979Y001990D03*
X004974Y001970D03*
X004969Y001950D03*
X004964Y001930D03*
X004899Y001670D03*
X004894Y001650D03*
X004889Y001630D03*
X004884Y001610D03*
X004879Y001590D03*
X004874Y001570D03*
X004869Y001550D03*
X004864Y001530D03*
X004859Y001510D03*
X004854Y001490D03*
X009569Y001465D03*
X009574Y001470D03*
X009939Y001435D03*
X009944Y001415D03*
X009944Y001410D03*
X009949Y001400D03*
X009949Y001395D03*
X009949Y001390D03*
X009954Y001380D03*
X009954Y001375D03*
X009954Y001370D03*
X009959Y001360D03*
X009959Y001355D03*
X009959Y001350D03*
X009964Y001345D03*
X009964Y001340D03*
X009964Y001335D03*
X009964Y001330D03*
X009969Y001325D03*
X009969Y001320D03*
X009969Y001315D03*
X009974Y001305D03*
X009974Y001300D03*
X009974Y001295D03*
X009979Y001285D03*
X009979Y001280D03*
X009984Y001260D03*
X009989Y001240D03*
X010159Y002050D03*
X010164Y002055D03*
X010169Y002060D03*
X010184Y002080D03*
X010189Y002085D03*
X010194Y002090D03*
D47*
X009116Y002065D03*
X008901Y001245D03*
X006976Y002040D03*
X006771Y001245D03*
D48*
X006776Y001250D03*
X006976Y002035D03*
X008901Y001250D03*
X009111Y002060D03*
D49*
X009111Y002055D03*
X008901Y001255D03*
X006776Y001255D03*
D50*
X006776Y001260D03*
X006971Y002025D03*
X006276Y001955D03*
X006276Y001950D03*
X006271Y001930D03*
X006266Y001910D03*
X006261Y001890D03*
X006256Y001870D03*
X006251Y001850D03*
X009111Y002050D03*
X009746Y001730D03*
X009751Y001735D03*
X009746Y001720D03*
X009746Y001715D03*
D51*
X009744Y001710D03*
X009754Y001740D03*
X008904Y001260D03*
X006269Y001915D03*
X006269Y001920D03*
X006269Y001925D03*
X006274Y001935D03*
X006274Y001940D03*
X006274Y001945D03*
X006279Y001960D03*
X006279Y001965D03*
X006264Y001905D03*
X006264Y001900D03*
X006264Y001895D03*
X006259Y001885D03*
X006259Y001880D03*
X006259Y001875D03*
X006254Y001865D03*
X006254Y001860D03*
X006254Y001855D03*
X006249Y001845D03*
X006249Y001840D03*
D52*
X006779Y001265D03*
X008904Y001265D03*
X009744Y001690D03*
X009759Y001750D03*
X009764Y001755D03*
D53*
X009766Y001760D03*
X009746Y001685D03*
X009746Y001680D03*
X009746Y001675D03*
X009106Y002040D03*
X008906Y001270D03*
X006971Y002015D03*
X006781Y001270D03*
D54*
X006781Y001275D03*
X008906Y001275D03*
X009106Y002035D03*
X009771Y001770D03*
X009776Y001775D03*
X009746Y001670D03*
X009746Y001665D03*
X009746Y001660D03*
X009746Y001655D03*
D55*
X009779Y001780D03*
X009104Y002030D03*
X008909Y001280D03*
X007634Y001670D03*
X006969Y002005D03*
X006784Y001280D03*
X007814Y002380D03*
D56*
X007644Y001675D03*
X006964Y001995D03*
X006784Y001285D03*
D57*
X006786Y001290D03*
X008911Y001285D03*
X009746Y001620D03*
X009746Y001625D03*
X009746Y001630D03*
D58*
X009564Y001450D03*
X009559Y001445D03*
X009124Y001380D03*
X008879Y001925D03*
X010089Y001970D03*
X010094Y001975D03*
X010099Y001980D03*
X010104Y001985D03*
X010109Y001990D03*
X010109Y001995D03*
X010114Y002000D03*
X010119Y002005D03*
X010124Y002010D03*
X010129Y002015D03*
X010134Y002020D03*
X007494Y001635D03*
X007489Y001615D03*
X007484Y001595D03*
X007479Y001575D03*
X007444Y001430D03*
X007439Y001410D03*
X007434Y001390D03*
X007429Y001370D03*
X007424Y001350D03*
X007419Y001330D03*
X007414Y001310D03*
X007409Y001290D03*
X006109Y001755D03*
X006109Y001760D03*
D59*
X006786Y001295D03*
X006961Y001985D03*
X008911Y001295D03*
X008911Y001290D03*
X009096Y002015D03*
X009746Y001605D03*
X009746Y001600D03*
D60*
X009749Y001595D03*
X009749Y001590D03*
X007654Y001680D03*
X006789Y001300D03*
D61*
X006961Y001980D03*
X007826Y002370D03*
X009096Y002010D03*
X009746Y001585D03*
X008911Y001300D03*
D62*
X008914Y001305D03*
X009094Y002000D03*
X009094Y002005D03*
X009749Y001580D03*
X009749Y001575D03*
X009749Y001570D03*
X006959Y001975D03*
X006789Y001305D03*
D63*
X006791Y001310D03*
X007661Y001685D03*
X006956Y001970D03*
X007831Y002365D03*
X008916Y001310D03*
X009746Y001565D03*
D64*
X009749Y001560D03*
X009749Y001555D03*
X009749Y001550D03*
X009094Y001995D03*
X006954Y001965D03*
X006794Y001315D03*
D65*
X006791Y001320D03*
X007666Y001690D03*
X006956Y001960D03*
X008916Y001315D03*
X009091Y001990D03*
X009746Y001545D03*
D66*
X009749Y001540D03*
X009749Y001535D03*
X009749Y001530D03*
X009089Y001985D03*
X008919Y001320D03*
X007674Y001695D03*
X006954Y001955D03*
X006794Y001325D03*
X007839Y002360D03*
D67*
X006951Y001950D03*
X006796Y001330D03*
X008921Y001325D03*
X009086Y001980D03*
D68*
X009084Y001975D03*
X009749Y001525D03*
X009749Y001520D03*
X009749Y001515D03*
X009749Y001510D03*
X008919Y001330D03*
X007839Y002355D03*
X006949Y001945D03*
X006949Y001940D03*
X006799Y001335D03*
D69*
X006796Y001340D03*
X007681Y001700D03*
X006946Y001935D03*
X008921Y001335D03*
D70*
X008924Y001340D03*
X009084Y001965D03*
X009084Y001970D03*
X009749Y001505D03*
X007844Y002350D03*
X006799Y001345D03*
D71*
X007849Y002345D03*
X009079Y001955D03*
X009079Y001950D03*
X008924Y001350D03*
X008924Y001345D03*
D72*
X009081Y001960D03*
X007686Y001705D03*
X006801Y001350D03*
D73*
X007691Y001710D03*
X007696Y001715D03*
X007851Y002340D03*
X009076Y001945D03*
X008926Y001360D03*
X008926Y001355D03*
D74*
X009144Y001395D03*
X008814Y001805D03*
X008819Y001820D03*
X008824Y001830D03*
X008829Y001845D03*
X008834Y001855D03*
X008839Y001865D03*
X008844Y001875D03*
X009269Y001925D03*
X009939Y001800D03*
X009944Y001805D03*
X009949Y001810D03*
X009954Y001815D03*
X009959Y001820D03*
X009964Y001825D03*
X007134Y001925D03*
X006749Y001910D03*
X006744Y001905D03*
X006739Y001900D03*
X006699Y001820D03*
X006694Y001810D03*
X006694Y001805D03*
X006689Y001795D03*
X006689Y001790D03*
X006684Y001785D03*
X006684Y001780D03*
X006684Y001775D03*
X006679Y001765D03*
X006619Y001525D03*
X006614Y001505D03*
X006614Y001500D03*
X006614Y001495D03*
X006614Y001490D03*
X006609Y001480D03*
X006609Y001475D03*
X006609Y001470D03*
X006609Y001375D03*
X006999Y001365D03*
D75*
X008929Y001365D03*
X005144Y001915D03*
X005144Y001920D03*
X005139Y001900D03*
X005139Y001895D03*
X005134Y001880D03*
X005134Y001875D03*
X005129Y001860D03*
X005129Y001855D03*
X005124Y001840D03*
X005124Y001835D03*
X005119Y001820D03*
X005119Y001815D03*
X005114Y001800D03*
X005114Y001795D03*
X005109Y001780D03*
X005109Y001775D03*
X005104Y001760D03*
X005104Y001755D03*
X005099Y001740D03*
X005099Y001735D03*
X005094Y001720D03*
X005094Y001715D03*
X005089Y001700D03*
X005089Y001695D03*
D76*
X006151Y001970D03*
X006151Y001975D03*
X006151Y001980D03*
X006151Y001985D03*
X006156Y001990D03*
X006156Y001995D03*
X006156Y002000D03*
X006156Y002005D03*
X006161Y002010D03*
X006161Y002015D03*
X006161Y002020D03*
X006161Y002025D03*
X006166Y002030D03*
X006166Y002035D03*
X006166Y002040D03*
X006166Y002045D03*
X006171Y002050D03*
X006171Y002055D03*
X006171Y002060D03*
X006171Y002065D03*
X006176Y002070D03*
X006176Y002075D03*
X006176Y002080D03*
X006176Y002085D03*
X006181Y002090D03*
X006706Y001845D03*
X006706Y001840D03*
X006706Y001835D03*
X006701Y001830D03*
X006701Y001825D03*
X006696Y001815D03*
X006691Y001800D03*
X006711Y001850D03*
X006711Y001855D03*
X006716Y001860D03*
X006716Y001865D03*
X006721Y001870D03*
X006726Y001880D03*
X006731Y001885D03*
X006731Y001890D03*
X006736Y001895D03*
X007136Y001920D03*
X006611Y001485D03*
X006606Y001465D03*
X006606Y001460D03*
X006606Y001455D03*
X006606Y001450D03*
X006606Y001445D03*
X006606Y001400D03*
X006606Y001395D03*
X006606Y001390D03*
X006606Y001385D03*
X006606Y001380D03*
X007001Y001370D03*
X009146Y001400D03*
X009151Y001405D03*
X009271Y001915D03*
X009271Y001920D03*
D77*
X008931Y001370D03*
X007701Y001720D03*
X007851Y002335D03*
X005146Y001925D03*
X005141Y001910D03*
X005141Y001905D03*
X005136Y001890D03*
X005136Y001885D03*
X005131Y001870D03*
X005131Y001865D03*
X005126Y001850D03*
X005126Y001845D03*
X005121Y001830D03*
X005121Y001825D03*
X005116Y001810D03*
X005116Y001805D03*
X005111Y001790D03*
X005111Y001785D03*
X005106Y001770D03*
X005106Y001765D03*
X005101Y001750D03*
X005101Y001745D03*
X005096Y001730D03*
X005096Y001725D03*
X005091Y001710D03*
X005091Y001705D03*
X005086Y001690D03*
D78*
X006604Y001440D03*
X006604Y001435D03*
X006604Y001430D03*
X006604Y001425D03*
X006604Y001420D03*
X006604Y001415D03*
X006604Y001410D03*
X006604Y001405D03*
X007009Y001375D03*
X007059Y001485D03*
X007064Y001505D03*
X007139Y001915D03*
X006724Y001875D03*
X009154Y001410D03*
X009159Y001415D03*
X009274Y001905D03*
X009274Y001910D03*
X010539Y002370D03*
X010539Y002375D03*
X010539Y002380D03*
X010544Y002385D03*
X010544Y002390D03*
X010544Y002395D03*
X010544Y002400D03*
X010549Y002405D03*
X010549Y002410D03*
X010549Y002415D03*
X010549Y002420D03*
X010554Y002425D03*
X010554Y002430D03*
X010554Y002435D03*
X010554Y002440D03*
X010559Y002445D03*
X010559Y002450D03*
X010559Y002455D03*
X010559Y002460D03*
D79*
X009276Y001900D03*
X009276Y001895D03*
X009276Y001890D03*
X009276Y001885D03*
X009276Y001880D03*
X009276Y001875D03*
X009276Y001870D03*
X009276Y001865D03*
X009276Y001860D03*
X009276Y001855D03*
X009271Y001835D03*
X009271Y001830D03*
X009271Y001825D03*
X009271Y001820D03*
X009266Y001805D03*
X009266Y001800D03*
X009266Y001795D03*
X009261Y001780D03*
X009261Y001775D03*
X009211Y001565D03*
X009206Y001545D03*
X009201Y001525D03*
X009191Y001490D03*
X009186Y001475D03*
X009176Y001450D03*
X009171Y001440D03*
X009166Y001430D03*
X009161Y001420D03*
X007131Y001780D03*
X007141Y001910D03*
X007061Y001500D03*
X007061Y001495D03*
X007061Y001490D03*
X007056Y001480D03*
X007056Y001475D03*
X007056Y001470D03*
X007051Y001465D03*
X007051Y001460D03*
X007051Y001455D03*
X007046Y001445D03*
X007041Y001430D03*
X007036Y001420D03*
X007031Y001410D03*
X007026Y001400D03*
X007021Y001390D03*
X007016Y001385D03*
X007011Y001380D03*
D80*
X007126Y001930D03*
X006761Y001925D03*
X006106Y001750D03*
X006101Y001745D03*
X006101Y001740D03*
X008736Y001390D03*
X008736Y001385D03*
X008871Y001915D03*
X008876Y001920D03*
X009261Y001935D03*
X009556Y001440D03*
X010041Y001915D03*
X010046Y001920D03*
X010061Y001940D03*
X010066Y001945D03*
X010071Y001950D03*
X010076Y001955D03*
X010081Y001960D03*
X010086Y001965D03*
D81*
X009274Y001850D03*
X009274Y001845D03*
X009274Y001840D03*
X009269Y001815D03*
X009269Y001810D03*
X009264Y001790D03*
X009264Y001785D03*
X009259Y001770D03*
X009259Y001765D03*
X009214Y001575D03*
X009214Y001570D03*
X009209Y001560D03*
X009209Y001555D03*
X009209Y001550D03*
X009204Y001540D03*
X009204Y001535D03*
X009204Y001530D03*
X009199Y001520D03*
X009199Y001515D03*
X009199Y001510D03*
X009194Y001505D03*
X009194Y001500D03*
X009194Y001495D03*
X009189Y001485D03*
X009189Y001480D03*
X009184Y001470D03*
X009184Y001465D03*
X009179Y001460D03*
X009179Y001455D03*
X009174Y001445D03*
X009169Y001435D03*
X009164Y001425D03*
X009139Y002120D03*
X007144Y001905D03*
X007144Y001900D03*
X007144Y001895D03*
X007144Y001850D03*
X007144Y001845D03*
X007139Y001825D03*
X007139Y001820D03*
X007139Y001815D03*
X007139Y001810D03*
X007139Y001805D03*
X007134Y001800D03*
X007134Y001795D03*
X007134Y001790D03*
X007134Y001785D03*
X007129Y001775D03*
X007129Y001770D03*
X007129Y001765D03*
X007049Y001450D03*
X007044Y001440D03*
X007044Y001435D03*
X007039Y001425D03*
X007034Y001415D03*
X007029Y001405D03*
X007024Y001395D03*
D82*
X006134Y001800D03*
X008044Y001920D03*
X008049Y001925D03*
X008089Y002140D03*
X008904Y001940D03*
X009589Y001500D03*
D83*
X007739Y001770D03*
X006889Y001730D03*
X006884Y001715D03*
X006884Y001710D03*
X006884Y001705D03*
X006879Y001695D03*
X006879Y001690D03*
X006879Y001685D03*
X006874Y001680D03*
X006874Y001675D03*
X006874Y001670D03*
X006874Y001665D03*
X006869Y001660D03*
X006869Y001655D03*
X006869Y001650D03*
X006869Y001645D03*
X006864Y001640D03*
X006864Y001635D03*
X006864Y001630D03*
X006864Y001625D03*
X006859Y001620D03*
X006859Y001615D03*
X006859Y001610D03*
X006859Y001605D03*
X006854Y001600D03*
D84*
X006964Y001990D03*
X007819Y002375D03*
X009099Y002020D03*
X009749Y001615D03*
X009749Y001610D03*
D85*
X009746Y001635D03*
X009746Y001640D03*
X009746Y001645D03*
X009746Y001650D03*
X009781Y001785D03*
X009781Y001790D03*
X009786Y001795D03*
X009101Y002025D03*
X006966Y002000D03*
D86*
X007609Y001660D03*
D87*
X007621Y001665D03*
X006971Y002020D03*
X007801Y002385D03*
X009106Y002045D03*
X009756Y001745D03*
X009746Y001705D03*
X009746Y001700D03*
X009746Y001695D03*
D88*
X007866Y002280D03*
X007866Y002285D03*
X007736Y001765D03*
X006896Y001760D03*
X006896Y001755D03*
X006891Y001745D03*
X006891Y001740D03*
X006891Y001735D03*
X006886Y001725D03*
X006886Y001720D03*
X006881Y001700D03*
D89*
X007706Y001725D03*
X007856Y002325D03*
D90*
X006974Y002030D03*
X009744Y001725D03*
D91*
X007859Y002320D03*
X007709Y001730D03*
D92*
X007716Y001735D03*
X005261Y002340D03*
X005256Y002320D03*
X005251Y002300D03*
X005246Y002280D03*
X005241Y002260D03*
X005236Y002240D03*
X005236Y002235D03*
X005231Y002215D03*
X005226Y002195D03*
X005221Y002175D03*
X005216Y002155D03*
X005266Y002360D03*
X005271Y002380D03*
D93*
X005269Y002375D03*
X005269Y002370D03*
X005269Y002365D03*
X005264Y002355D03*
X005264Y002350D03*
X005264Y002345D03*
X005259Y002335D03*
X005259Y002330D03*
X005259Y002325D03*
X005254Y002315D03*
X005254Y002310D03*
X005254Y002305D03*
X005249Y002295D03*
X005249Y002290D03*
X005249Y002285D03*
X005244Y002275D03*
X005244Y002270D03*
X005244Y002265D03*
X005239Y002255D03*
X005239Y002250D03*
X005239Y002245D03*
X005234Y002230D03*
X005234Y002225D03*
X005234Y002220D03*
X005229Y002210D03*
X005229Y002205D03*
X005229Y002200D03*
X005224Y002190D03*
X005224Y002185D03*
X005224Y002180D03*
X005219Y002170D03*
X005219Y002165D03*
X005219Y002160D03*
X005214Y002150D03*
X005214Y002145D03*
X005274Y002385D03*
X005274Y002390D03*
X007719Y001740D03*
X007859Y002315D03*
D94*
X007864Y002300D03*
X007724Y001745D03*
D95*
X007734Y001760D03*
X007864Y002290D03*
X007864Y002295D03*
X006894Y001750D03*
D96*
X007726Y001750D03*
X007731Y001755D03*
D97*
X006969Y002010D03*
X009769Y001765D03*
D98*
X007866Y002270D03*
X007866Y002275D03*
X007746Y001775D03*
D99*
X007749Y001780D03*
X007869Y002260D03*
X007869Y002265D03*
D100*
X007866Y002255D03*
X007756Y001795D03*
X007751Y001785D03*
D101*
X007754Y001790D03*
X007759Y001800D03*
X007869Y002240D03*
X007869Y002245D03*
X007869Y002250D03*
D102*
X006139Y001805D03*
D103*
X007761Y001805D03*
D104*
X007764Y001810D03*
X007769Y001815D03*
X007869Y002220D03*
X007869Y002225D03*
X007869Y002230D03*
X007869Y002235D03*
D105*
X007866Y002215D03*
X007771Y001825D03*
X007771Y001820D03*
D106*
X009129Y002095D03*
X006184Y001830D03*
D107*
X007141Y001830D03*
X007141Y001835D03*
X007141Y001840D03*
X007146Y001855D03*
X007146Y001860D03*
X007146Y001865D03*
X007146Y001870D03*
X007146Y001875D03*
X007146Y001880D03*
X007146Y001885D03*
X007146Y001890D03*
D108*
X007774Y001830D03*
X007779Y001835D03*
X007869Y002200D03*
X007869Y002205D03*
X007869Y002210D03*
D109*
X006511Y001835D03*
D110*
X007781Y001840D03*
X007781Y001845D03*
X007866Y002180D03*
X007866Y002185D03*
X007866Y002190D03*
X007866Y002195D03*
D111*
X007864Y002175D03*
X007864Y002170D03*
X007864Y002165D03*
X007789Y001860D03*
X007789Y001855D03*
X007784Y001850D03*
D112*
X007791Y001865D03*
X007791Y001870D03*
X007796Y001875D03*
D113*
X007799Y001880D03*
D114*
X008019Y001895D03*
D115*
X008041Y001915D03*
X008086Y002145D03*
X009131Y002110D03*
D116*
X006434Y001985D03*
D117*
X006436Y001990D03*
D118*
X006439Y001995D03*
X006444Y002000D03*
X006444Y002005D03*
D119*
X006446Y002010D03*
D120*
X006449Y002015D03*
X006454Y002020D03*
D121*
X006456Y002025D03*
D122*
X006459Y002030D03*
D123*
X009156Y002130D03*
X010456Y002030D03*
X010461Y002050D03*
X010466Y002070D03*
X010471Y002090D03*
X010476Y002110D03*
X010481Y002130D03*
X010486Y002150D03*
X010491Y002170D03*
X010491Y002175D03*
X010496Y002190D03*
X010496Y002195D03*
X010501Y002210D03*
X010501Y002215D03*
X010506Y002230D03*
X010506Y002235D03*
X010511Y002250D03*
X010511Y002255D03*
X010516Y002270D03*
X010516Y002275D03*
X010521Y002290D03*
X010521Y002295D03*
X010526Y002310D03*
X010526Y002315D03*
X010531Y002330D03*
X010531Y002335D03*
X010536Y002350D03*
X010536Y002355D03*
X010841Y002110D03*
X010841Y002105D03*
D124*
X010821Y002030D03*
D125*
X006466Y002040D03*
X006461Y002035D03*
D126*
X010824Y002035D03*
X010824Y002040D03*
X010829Y002050D03*
X010829Y002055D03*
D127*
X010836Y002080D03*
X010836Y002085D03*
X010691Y002120D03*
X010686Y002100D03*
X010681Y002080D03*
X010676Y002060D03*
X010671Y002040D03*
X010696Y002140D03*
X010701Y002160D03*
X010706Y002180D03*
X010711Y002200D03*
X010716Y002220D03*
X010716Y002225D03*
X010721Y002240D03*
X010721Y002245D03*
X010726Y002260D03*
X010726Y002265D03*
X010731Y002280D03*
X010731Y002285D03*
X010736Y002300D03*
X010736Y002305D03*
X010741Y002320D03*
X010741Y002325D03*
X011031Y002250D03*
X011026Y002230D03*
X011036Y002270D03*
X011041Y002290D03*
X011046Y002310D03*
X010991Y002085D03*
X010986Y002065D03*
X010981Y002045D03*
X006536Y002110D03*
D128*
X006979Y002045D03*
D129*
X010826Y002045D03*
X010831Y002060D03*
X010831Y002065D03*
D130*
X006474Y002050D03*
D131*
X006981Y002050D03*
D132*
X006981Y002055D03*
D133*
X006984Y002060D03*
D134*
X006486Y002065D03*
D135*
X006984Y002065D03*
D136*
X006489Y002070D03*
X010784Y002335D03*
X010784Y002340D03*
X010784Y002345D03*
X011014Y002335D03*
X011014Y002330D03*
X011019Y002350D03*
D137*
X011021Y002355D03*
X011021Y002360D03*
X011026Y002370D03*
X011016Y002345D03*
X011016Y002340D03*
X010786Y002350D03*
X010786Y002355D03*
X010786Y002360D03*
X010786Y002365D03*
X006491Y002075D03*
D138*
X006499Y002080D03*
X010789Y002370D03*
X010789Y002375D03*
X010789Y002380D03*
X010789Y002385D03*
X010794Y002390D03*
X010794Y002395D03*
X010794Y002400D03*
X010794Y002405D03*
X011024Y002365D03*
X011029Y002375D03*
X011029Y002380D03*
X011034Y002390D03*
X011034Y002395D03*
D139*
X011044Y002420D03*
X011044Y002425D03*
X011049Y002430D03*
X011049Y002435D03*
X011049Y002440D03*
X011054Y002450D03*
X010799Y002445D03*
X010799Y002440D03*
X010799Y002435D03*
X010799Y002430D03*
X006504Y002085D03*
D140*
X009121Y002085D03*
D141*
X010801Y002450D03*
X010801Y002455D03*
X010801Y002460D03*
X011051Y002445D03*
X011056Y002455D03*
X011056Y002460D03*
X010866Y002205D03*
X006506Y002090D03*
D142*
X006511Y002095D03*
X010861Y002180D03*
X010861Y002185D03*
X010861Y002190D03*
D143*
X010856Y002165D03*
X010856Y002160D03*
X006521Y002100D03*
D144*
X006529Y002105D03*
X010844Y002115D03*
X010844Y002120D03*
D145*
X009131Y002105D03*
D146*
X010826Y002210D03*
X010826Y002215D03*
X010826Y002220D03*
X010826Y002225D03*
X010831Y002230D03*
X010831Y002235D03*
X010831Y002240D03*
X010831Y002245D03*
X010831Y002250D03*
X010831Y002255D03*
X010831Y002260D03*
X010831Y002265D03*
X010831Y002270D03*
X010831Y002275D03*
X010831Y002280D03*
X010831Y002285D03*
X010831Y002290D03*
X010831Y002295D03*
X010831Y002300D03*
X010831Y002305D03*
X010836Y002315D03*
X010836Y002320D03*
X010836Y002325D03*
X010836Y002330D03*
X010936Y002280D03*
X010936Y002275D03*
X010931Y002265D03*
X010931Y002260D03*
X010926Y002255D03*
X010926Y002250D03*
X010921Y002245D03*
X010921Y002240D03*
X010916Y002235D03*
X010916Y002230D03*
X010911Y002220D03*
X010911Y002215D03*
X010906Y002210D03*
X010941Y002285D03*
X010941Y002290D03*
X010946Y002295D03*
X010946Y002300D03*
X010951Y002310D03*
X010956Y002320D03*
X010956Y002325D03*
X006551Y002115D03*
D147*
X010846Y002125D03*
X010846Y002130D03*
X010851Y002140D03*
X010851Y002145D03*
D148*
X010854Y002150D03*
X010854Y002155D03*
X010849Y002135D03*
D149*
X010859Y002170D03*
X010859Y002175D03*
D150*
X010864Y002195D03*
X010864Y002200D03*
D151*
X010914Y002225D03*
X010934Y002270D03*
X010949Y002305D03*
X010954Y002315D03*
X010834Y002310D03*
D152*
X007861Y002310D03*
X007861Y002305D03*
D153*
X007854Y002330D03*
D154*
X010796Y002410D03*
X010796Y002415D03*
X010796Y002420D03*
X010796Y002425D03*
X011031Y002385D03*
X011036Y002400D03*
X011036Y002405D03*
X011041Y002410D03*
X011041Y002415D03*
D155*
X007784Y002390D03*
D156*
X008679Y015840D03*
X009259Y016010D03*
X010379Y016010D03*
D157*
X010964Y015840D03*
X010964Y018820D03*
X008674Y018820D03*
D158*
X009254Y016020D03*
X008674Y015850D03*
X010964Y015850D03*
D159*
X010959Y015860D03*
X008679Y015860D03*
X008679Y018800D03*
X010959Y018800D03*
D160*
X010959Y015870D03*
X008679Y015870D03*
D161*
X008684Y015880D03*
X008684Y018780D03*
X010954Y018780D03*
D162*
X010409Y016050D03*
X010959Y015880D03*
X009229Y016050D03*
D163*
X008684Y015890D03*
X010954Y015890D03*
D164*
X009209Y016080D03*
X008689Y015900D03*
X008689Y018760D03*
X010949Y018760D03*
D165*
X009214Y016070D03*
X010954Y015900D03*
D166*
X010949Y015910D03*
X010439Y016090D03*
X008689Y015910D03*
D167*
X008689Y015920D03*
X010949Y015920D03*
D168*
X010944Y015930D03*
X008694Y015930D03*
X008694Y018730D03*
X010944Y018730D03*
D169*
X010944Y015940D03*
X008694Y015940D03*
D170*
X008699Y015950D03*
X010939Y015950D03*
X010939Y018710D03*
X008699Y018710D03*
D171*
X008699Y015960D03*
X010939Y015960D03*
D172*
X010934Y015970D03*
X008704Y015970D03*
X008704Y018690D03*
X010934Y018690D03*
D173*
X008709Y015980D03*
D174*
X010934Y015980D03*
D175*
X010934Y015990D03*
X008714Y015990D03*
D176*
X008714Y016000D03*
D177*
X010929Y016000D03*
D178*
X008714Y016010D03*
X008714Y018660D03*
X010924Y018660D03*
D179*
X010929Y016010D03*
D180*
X008719Y016020D03*
D181*
X010389Y016020D03*
D182*
X010924Y016020D03*
X010924Y018640D03*
D183*
X008719Y018640D03*
X008719Y016030D03*
D184*
X009244Y016030D03*
X010394Y016030D03*
D185*
X010924Y016030D03*
X009824Y019200D03*
D186*
X009819Y019180D03*
X009819Y019170D03*
X009819Y019160D03*
X009819Y019150D03*
X009819Y019140D03*
X008719Y016040D03*
X010919Y016040D03*
D187*
X010404Y016040D03*
X009234Y016040D03*
D188*
X008719Y016050D03*
X010919Y016050D03*
X009819Y019080D03*
X009819Y019090D03*
X009819Y019100D03*
X009819Y019110D03*
X009819Y019120D03*
D189*
X009824Y019020D03*
X010914Y018600D03*
X010914Y016060D03*
X008724Y016060D03*
D190*
X009219Y016060D03*
X010419Y016060D03*
D191*
X008729Y016070D03*
X008729Y018600D03*
X009819Y018970D03*
X009819Y018980D03*
X009819Y018990D03*
X009819Y019000D03*
X009819Y019010D03*
D192*
X010949Y018770D03*
X008689Y018770D03*
X010429Y016070D03*
D193*
X010914Y016070D03*
X009824Y018960D03*
D194*
X009819Y018900D03*
X009819Y018890D03*
X009819Y018880D03*
X008729Y018580D03*
X010909Y018580D03*
X010909Y016080D03*
X008729Y016080D03*
D195*
X010434Y016080D03*
D196*
X008734Y016090D03*
X008734Y018570D03*
X009824Y018810D03*
X010904Y018570D03*
D197*
X010944Y018750D03*
X008694Y018750D03*
X009204Y016090D03*
D198*
X010909Y016090D03*
X009819Y018820D03*
X009819Y018830D03*
X009819Y018840D03*
D199*
X008854Y016100D03*
X010784Y016100D03*
D200*
X010789Y016110D03*
X010599Y016570D03*
X010589Y016580D03*
X010589Y016590D03*
X010589Y016600D03*
X009049Y016590D03*
X009049Y016580D03*
X009039Y016570D03*
X009029Y016550D03*
X008849Y016110D03*
D201*
X008849Y016120D03*
X008989Y016470D03*
X008999Y016490D03*
X009009Y016510D03*
X009019Y016530D03*
X009049Y016620D03*
X010589Y016620D03*
X010619Y016530D03*
X010629Y016510D03*
X010639Y016500D03*
X010639Y016490D03*
X010649Y016480D03*
X010789Y016120D03*
X009819Y018640D03*
D202*
X010584Y016640D03*
X010584Y016630D03*
X010654Y016470D03*
X010664Y016450D03*
X010794Y016130D03*
X009054Y016630D03*
X008994Y016480D03*
X008984Y016460D03*
X008844Y016130D03*
D203*
X008844Y016140D03*
X008934Y016370D03*
X008944Y016390D03*
X008954Y016410D03*
X009054Y016650D03*
X009054Y016660D03*
X010584Y016660D03*
X010694Y016390D03*
X010704Y016380D03*
X010714Y016360D03*
X010704Y017690D03*
D204*
X010589Y016650D03*
X010659Y016460D03*
X010669Y016440D03*
X010679Y016430D03*
X010679Y016420D03*
X010689Y016410D03*
X010689Y016400D03*
X010799Y016140D03*
X009049Y016640D03*
X008979Y016450D03*
X008969Y016440D03*
X008969Y016430D03*
X008959Y016420D03*
X008949Y016400D03*
D205*
X008939Y016380D03*
X008929Y016360D03*
X008919Y016350D03*
X008919Y016340D03*
X008839Y016150D03*
X008929Y016980D03*
X008929Y017680D03*
X008939Y017690D03*
X008949Y017700D03*
X010589Y016670D03*
X010699Y016960D03*
X010709Y016970D03*
X010709Y016980D03*
X010709Y016370D03*
X010719Y016350D03*
X010729Y016330D03*
X010799Y016150D03*
X010709Y017680D03*
X010699Y017700D03*
X010689Y017710D03*
X010679Y017720D03*
D206*
X010674Y017730D03*
X010724Y016990D03*
X010694Y016950D03*
X010584Y016690D03*
X010584Y016680D03*
X010724Y016340D03*
X010734Y016320D03*
X010744Y016310D03*
X010744Y016300D03*
X010754Y016290D03*
X010804Y016160D03*
X009054Y016670D03*
X009054Y016680D03*
X008944Y016960D03*
X008934Y016970D03*
X008914Y016990D03*
X008914Y016330D03*
X008904Y016320D03*
X008894Y016300D03*
X008834Y016160D03*
X008954Y017710D03*
X008964Y017720D03*
X009824Y018630D03*
D207*
X010654Y017750D03*
X010664Y017740D03*
X010744Y017000D03*
X010684Y016940D03*
X010674Y016930D03*
X010584Y016710D03*
X010584Y016700D03*
X010774Y016250D03*
X010784Y016230D03*
X010804Y016180D03*
X010804Y016170D03*
X009054Y016700D03*
X009054Y016710D03*
X008964Y016930D03*
X008894Y017000D03*
X008974Y017740D03*
X008984Y017750D03*
X008864Y016250D03*
X008864Y016240D03*
X008854Y016230D03*
X008834Y016180D03*
X008834Y016170D03*
D208*
X008829Y016190D03*
X008839Y016200D03*
X008839Y016210D03*
X008849Y016220D03*
X008979Y016910D03*
X008969Y016920D03*
X008989Y017760D03*
X010649Y017760D03*
X010669Y016920D03*
X010659Y016910D03*
X010589Y016720D03*
X010779Y016240D03*
X010789Y016220D03*
X010799Y016210D03*
X010799Y016200D03*
X010799Y016190D03*
D209*
X010769Y016260D03*
X010759Y016270D03*
X010759Y016280D03*
X009049Y016690D03*
X008959Y016940D03*
X008949Y016950D03*
X008899Y016310D03*
X008889Y016290D03*
X008879Y016280D03*
X008879Y016270D03*
X008869Y016260D03*
X008909Y017670D03*
X008969Y017730D03*
X010729Y017670D03*
D210*
X010584Y016610D03*
X010604Y016560D03*
X010604Y016550D03*
X010614Y016540D03*
X010624Y016520D03*
X009054Y016600D03*
X009054Y016610D03*
X009034Y016560D03*
X009024Y016540D03*
X009014Y016520D03*
X009004Y016500D03*
D211*
X009054Y016720D03*
X009054Y016730D03*
X009054Y016740D03*
X008984Y016900D03*
X009004Y017770D03*
X010634Y017770D03*
X010654Y016900D03*
X010584Y016730D03*
D212*
X010589Y016740D03*
X010639Y016890D03*
X010759Y017660D03*
X010629Y017780D03*
X009819Y018620D03*
X008879Y017660D03*
X008999Y016890D03*
D213*
X009004Y016880D03*
X009054Y016760D03*
X009054Y016750D03*
X008864Y017010D03*
X009014Y017780D03*
X009024Y017790D03*
X010634Y016880D03*
X010584Y016760D03*
X010584Y016750D03*
D214*
X010629Y016870D03*
X010779Y017010D03*
X010619Y017790D03*
X010609Y017800D03*
X009059Y016770D03*
X009009Y016870D03*
D215*
X009024Y016860D03*
X009054Y016790D03*
X009054Y016780D03*
X009034Y017800D03*
X010614Y016860D03*
X010584Y016780D03*
X010584Y016770D03*
D216*
X010589Y016790D03*
X010609Y016850D03*
X010789Y017650D03*
X010599Y017810D03*
X009819Y018610D03*
X009049Y017810D03*
X008849Y017650D03*
X009029Y016850D03*
D217*
X009044Y016840D03*
X009054Y016810D03*
X009054Y016800D03*
X010584Y016800D03*
X010584Y017820D03*
D218*
X010599Y016840D03*
X010589Y016830D03*
X010589Y016820D03*
X010589Y016810D03*
X009049Y016820D03*
X009049Y016830D03*
X009059Y017820D03*
D219*
X008834Y017020D03*
X010814Y017020D03*
D220*
X010839Y017030D03*
X008799Y017030D03*
D221*
X008764Y017040D03*
X010874Y017040D03*
D222*
X008744Y017050D03*
D223*
X010899Y017050D03*
D224*
X008714Y017060D03*
D225*
X010929Y017060D03*
D226*
X010959Y017070D03*
X011019Y017220D03*
X011019Y017230D03*
X011019Y017240D03*
X011019Y017250D03*
X011019Y017260D03*
X011019Y017270D03*
X011019Y017280D03*
X011019Y017290D03*
X011019Y017380D03*
X011019Y017390D03*
X011019Y017400D03*
X011019Y017410D03*
X011019Y017420D03*
X011019Y017430D03*
X011019Y017440D03*
X008679Y017070D03*
X008619Y017240D03*
X008619Y017250D03*
X008619Y017260D03*
X008619Y017270D03*
X008619Y017280D03*
X008619Y017290D03*
X008619Y017300D03*
X008619Y017310D03*
X008619Y017320D03*
X008619Y017330D03*
X008619Y017340D03*
X008619Y017350D03*
X008619Y017360D03*
X008619Y017370D03*
X008619Y017380D03*
X008619Y017390D03*
X008619Y017400D03*
X008619Y017410D03*
X008619Y017420D03*
D227*
X008644Y017560D03*
X008644Y017570D03*
X008644Y017100D03*
X008644Y017090D03*
X008654Y017080D03*
X010984Y017080D03*
X010994Y017090D03*
X010994Y017100D03*
X010994Y017560D03*
X010994Y017570D03*
X010984Y017580D03*
D228*
X010999Y017550D03*
X010999Y017540D03*
X010999Y017120D03*
X010999Y017110D03*
X009819Y018550D03*
X008639Y017550D03*
X008639Y017540D03*
X008639Y017530D03*
X008639Y017120D03*
X008639Y017110D03*
D229*
X008634Y017130D03*
X008634Y017140D03*
X008634Y017150D03*
X008634Y017160D03*
X008634Y017500D03*
X008634Y017510D03*
X008634Y017520D03*
X008664Y017590D03*
X010974Y017590D03*
X011004Y017530D03*
X011004Y017520D03*
X011004Y017510D03*
X011004Y017150D03*
X011004Y017140D03*
X011004Y017130D03*
D230*
X011009Y017160D03*
X011009Y017170D03*
X011009Y017180D03*
X011009Y017480D03*
X011009Y017490D03*
X011009Y017500D03*
X008629Y017490D03*
X008629Y017480D03*
X008629Y017470D03*
X008629Y017190D03*
X008629Y017180D03*
X008629Y017170D03*
D231*
X008624Y017200D03*
X008624Y017210D03*
X008624Y017220D03*
X008624Y017230D03*
X008624Y017430D03*
X008624Y017440D03*
X008624Y017450D03*
X008624Y017460D03*
X011014Y017460D03*
X011014Y017450D03*
X011014Y017470D03*
X011014Y017210D03*
X011014Y017200D03*
X011014Y017190D03*
D232*
X011024Y017300D03*
X011024Y017310D03*
X011024Y017320D03*
X011024Y017330D03*
X011024Y017340D03*
X011024Y017350D03*
X011024Y017360D03*
X011024Y017370D03*
D233*
X008649Y017580D03*
D234*
X008699Y017600D03*
X009819Y018560D03*
X010939Y017600D03*
D235*
X010914Y017610D03*
X008734Y017610D03*
D236*
X008759Y017620D03*
X009819Y018580D03*
X010879Y017620D03*
D237*
X010849Y017630D03*
X009819Y018590D03*
X009109Y017850D03*
X008789Y017630D03*
D238*
X008819Y017640D03*
X009089Y017840D03*
D239*
X009824Y018600D03*
X010824Y017640D03*
D240*
X010569Y017830D03*
X009069Y017830D03*
D241*
X010554Y017840D03*
D242*
X010534Y017850D03*
D243*
X010504Y017860D03*
X009144Y017860D03*
D244*
X009819Y017870D03*
X009819Y018170D03*
D245*
X009824Y017880D03*
D246*
X009819Y017890D03*
X009819Y017900D03*
X009819Y018150D03*
X009819Y018160D03*
D247*
X009819Y018140D03*
X009819Y017920D03*
X009819Y017910D03*
D248*
X009814Y017930D03*
D249*
X009819Y017940D03*
X009819Y017950D03*
X009819Y018120D03*
X009819Y018130D03*
D250*
X009819Y018110D03*
X009819Y017970D03*
X009819Y017960D03*
D251*
X009819Y017980D03*
X009819Y017990D03*
X009819Y018100D03*
D252*
X009824Y018090D03*
X009824Y018000D03*
D253*
X009819Y018010D03*
X009819Y018020D03*
X009819Y018080D03*
D254*
X009819Y018070D03*
X009819Y018060D03*
X009819Y018050D03*
X009819Y018040D03*
X009819Y018030D03*
D255*
X009824Y018180D03*
D256*
X009824Y018190D03*
D257*
X009819Y018200D03*
D258*
X009819Y018210D03*
D259*
X009824Y018220D03*
D260*
X009819Y018230D03*
D261*
X009819Y018240D03*
D262*
X009824Y018250D03*
D263*
X009819Y018260D03*
D264*
X009819Y018270D03*
D265*
X009824Y018280D03*
D266*
X009819Y018290D03*
D267*
X009819Y018300D03*
D268*
X009824Y018310D03*
D269*
X009819Y018320D03*
D270*
X009819Y018330D03*
D271*
X009819Y018340D03*
X009819Y018350D03*
D272*
X009819Y018360D03*
D273*
X009819Y018370D03*
X009819Y018380D03*
D274*
X009819Y018390D03*
X009819Y018540D03*
D275*
X009819Y018530D03*
X009819Y018400D03*
D276*
X009824Y018410D03*
D277*
X009819Y018420D03*
X009819Y018520D03*
D278*
X009819Y018510D03*
X009819Y018430D03*
D279*
X009824Y018440D03*
D280*
X009819Y018450D03*
X009819Y018500D03*
D281*
X009819Y018490D03*
X009819Y018470D03*
X009819Y018460D03*
D282*
X009814Y018480D03*
D283*
X009819Y018700D03*
X008739Y018550D03*
X010899Y018550D03*
D284*
X010904Y018560D03*
X009824Y018750D03*
X009824Y018760D03*
X008734Y018560D03*
D285*
X009819Y018570D03*
D286*
X009819Y018920D03*
X009819Y018930D03*
X009819Y018940D03*
X009819Y018950D03*
X008729Y018590D03*
X010909Y018590D03*
D287*
X010914Y018610D03*
X008724Y018610D03*
D288*
X008724Y018620D03*
X009814Y019130D03*
X010914Y018620D03*
D289*
X010919Y018630D03*
X009819Y019190D03*
X008719Y018630D03*
D290*
X008714Y018650D03*
X010924Y018650D03*
D291*
X009819Y018650D03*
D292*
X009819Y018660D03*
D293*
X010929Y018670D03*
X008709Y018670D03*
D294*
X009819Y018670D03*
D295*
X010929Y018680D03*
X008709Y018680D03*
D296*
X009819Y018680D03*
D297*
X009819Y018690D03*
D298*
X010934Y018700D03*
X008704Y018700D03*
D299*
X009819Y018710D03*
X009819Y018720D03*
X009819Y018730D03*
X009819Y018740D03*
D300*
X010939Y018720D03*
X008699Y018720D03*
D301*
X008694Y018740D03*
X010944Y018740D03*
D302*
X009819Y018770D03*
X009819Y018780D03*
X009819Y018790D03*
X009819Y018800D03*
D303*
X010954Y018790D03*
X008684Y018790D03*
D304*
X008679Y018810D03*
X010959Y018810D03*
D305*
X009824Y018850D03*
X009824Y018860D03*
X009824Y018870D03*
D306*
X009824Y018910D03*
D307*
X009819Y019030D03*
X009819Y019040D03*
X009819Y019050D03*
X009819Y019060D03*
X009819Y019070D03*
D308*
X017383Y004953D03*
D309*
X017363Y004953D03*
D310*
X017343Y004953D03*
X017323Y004953D03*
X017303Y004953D03*
X017283Y004953D03*
X017263Y004953D03*
X017243Y004953D03*
D311*
X017223Y002833D03*
X017203Y002833D03*
X017183Y002833D03*
D312*
X016703Y002793D03*
X016683Y002833D03*
X015083Y002833D03*
X015083Y001833D03*
X017223Y005133D03*
X014943Y005453D03*
X016923Y006933D03*
D313*
X017223Y006053D03*
D314*
X017123Y006803D03*
X017223Y006943D03*
X016903Y007043D03*
X016903Y006803D03*
X016883Y006803D03*
X015823Y006423D03*
X015763Y006403D03*
X015703Y006383D03*
X015683Y006383D03*
X015663Y006383D03*
X015643Y006383D03*
X015623Y006383D03*
X015603Y006383D03*
X015583Y006383D03*
X015563Y006383D03*
X015543Y006383D03*
X015523Y006383D03*
X015503Y006383D03*
X015483Y006383D03*
X015463Y006383D03*
X015403Y006403D03*
X015383Y006403D03*
X015343Y006423D03*
X015463Y005883D03*
X015483Y005883D03*
X015503Y005883D03*
X015523Y005883D03*
X015543Y005883D03*
X015563Y005883D03*
X015583Y005883D03*
X015603Y005883D03*
X015623Y005883D03*
X015643Y005883D03*
X015663Y005883D03*
X015683Y005883D03*
X015703Y005883D03*
X015763Y005863D03*
X015823Y005843D03*
X015403Y005863D03*
X015343Y005843D03*
X015323Y005843D03*
X015263Y005183D03*
X015103Y005183D03*
X015363Y004503D03*
X015423Y004483D03*
X015443Y004483D03*
X015463Y004483D03*
X015483Y004483D03*
X015563Y004463D03*
X015583Y004463D03*
X015663Y004483D03*
X015683Y004483D03*
X015703Y004483D03*
X015723Y004483D03*
X015783Y004503D03*
X015843Y004523D03*
X016863Y004903D03*
X016823Y005343D03*
X015843Y007743D03*
X015803Y007763D03*
X015783Y007763D03*
X015723Y007783D03*
X015703Y007783D03*
X015683Y007783D03*
X015663Y007783D03*
X015643Y007783D03*
X015523Y007783D03*
X015503Y007783D03*
X015483Y007783D03*
X015463Y007783D03*
X015443Y007783D03*
X015423Y007783D03*
X015383Y007763D03*
X015363Y007763D03*
X016043Y002823D03*
X016043Y002223D03*
D315*
X016183Y002043D03*
X016543Y001643D03*
X016523Y001623D03*
X016503Y001603D03*
X015323Y001563D03*
X015243Y001623D03*
X016183Y002643D03*
X016463Y003083D03*
X016443Y003103D03*
X015303Y003083D03*
X015283Y003063D03*
X015263Y003043D03*
X015243Y003023D03*
X014983Y004803D03*
X014983Y005543D03*
X016163Y005563D03*
X017203Y005163D03*
X016163Y006703D03*
X016183Y006743D03*
X015843Y006903D03*
X014983Y006723D03*
X014983Y007463D03*
X016783Y007043D03*
X017223Y007223D03*
D316*
X017223Y008203D03*
X017183Y008203D03*
X017163Y008203D03*
X017143Y008203D03*
X016823Y003963D03*
D317*
X017203Y006043D03*
D318*
X016863Y005343D03*
X016863Y005143D03*
X016883Y005143D03*
X016823Y005123D03*
X016803Y005103D03*
X016783Y005083D03*
X017203Y006963D03*
X017043Y007023D03*
X017023Y007023D03*
X017023Y007223D03*
X014643Y008903D03*
X015743Y002803D03*
X016023Y002823D03*
X015743Y002203D03*
X014643Y001003D03*
D319*
X015283Y001593D03*
X015263Y001613D03*
X015303Y001573D03*
X015343Y001553D03*
X015363Y001533D03*
X015383Y001513D03*
X015423Y001493D03*
X015463Y001473D03*
X015703Y001893D03*
X015703Y002493D03*
X015323Y003093D03*
X015343Y003113D03*
X015403Y003153D03*
X015443Y003173D03*
X016403Y003133D03*
X016423Y003113D03*
X016483Y003073D03*
X016503Y003053D03*
X016483Y001593D03*
X016463Y001573D03*
X016443Y001553D03*
X016423Y001533D03*
X016403Y001533D03*
X016383Y001513D03*
X016163Y004793D03*
X016063Y005173D03*
X016043Y005173D03*
X016023Y005173D03*
X016003Y005173D03*
X015983Y005173D03*
X015963Y005173D03*
X015943Y005173D03*
X015923Y005173D03*
X015903Y005173D03*
X015883Y005173D03*
X015863Y005173D03*
X015843Y005173D03*
X015823Y005173D03*
X015803Y005173D03*
X015783Y005173D03*
X015763Y005173D03*
X015743Y005173D03*
X015723Y005173D03*
X015703Y005173D03*
X016143Y005593D03*
X015023Y005613D03*
X015003Y005573D03*
X015003Y004773D03*
X015023Y006653D03*
X015003Y006693D03*
X015343Y006893D03*
X015503Y006833D03*
X015343Y007293D03*
X015363Y007313D03*
X015003Y007493D03*
X015803Y007313D03*
X015823Y007293D03*
X016143Y007493D03*
X016163Y007473D03*
X016123Y007533D03*
X016143Y006673D03*
X017203Y007213D03*
D320*
X017203Y008213D03*
X016803Y003973D03*
X016783Y003973D03*
D321*
X016223Y003223D03*
X016263Y003203D03*
X016283Y003203D03*
X016303Y003183D03*
X016323Y003183D03*
X016343Y003163D03*
X016363Y003163D03*
X016383Y003143D03*
X016163Y003243D03*
X015623Y003243D03*
X015543Y003223D03*
X015503Y003203D03*
X015463Y003183D03*
X015423Y003163D03*
X015383Y003143D03*
X015363Y003123D03*
X015703Y002803D03*
X015583Y002643D03*
X015723Y002483D03*
X015703Y002203D03*
X015583Y002043D03*
X016043Y001863D03*
X016063Y001883D03*
X016283Y001463D03*
X016303Y001463D03*
X016323Y001483D03*
X016343Y001483D03*
X016363Y001503D03*
X016263Y001443D03*
X016243Y001443D03*
X016203Y001423D03*
X016123Y001403D03*
X015643Y001403D03*
X015583Y001423D03*
X015523Y001443D03*
X015483Y001463D03*
X015443Y001483D03*
X015403Y001503D03*
X016063Y002483D03*
X016923Y002343D03*
X016123Y004743D03*
X016143Y004763D03*
X015203Y005183D03*
X015183Y005183D03*
X015163Y005183D03*
X015023Y004743D03*
X015043Y004723D03*
X015063Y004703D03*
X015043Y005643D03*
X016103Y005643D03*
X016123Y005623D03*
X016103Y006623D03*
X016123Y006643D03*
X015803Y006863D03*
X015823Y006883D03*
X015983Y007083D03*
X015763Y007343D03*
X015723Y007363D03*
X015583Y007383D03*
X015403Y007343D03*
X015043Y007543D03*
X015023Y007523D03*
X015363Y006883D03*
X015383Y006863D03*
X015043Y006623D03*
X016803Y007043D03*
X017183Y007223D03*
X017183Y005183D03*
D322*
X017183Y006033D03*
X017003Y006053D03*
D323*
X016903Y005343D03*
X017163Y006983D03*
X017183Y006983D03*
X017143Y007003D03*
X017123Y007003D03*
X017083Y007023D03*
X016963Y007223D03*
X014703Y008943D03*
X016003Y002803D03*
X016203Y002643D03*
X015763Y002183D03*
X014703Y000963D03*
D324*
X017163Y001533D03*
X017143Y006013D03*
X017123Y006013D03*
X017103Y006013D03*
X017063Y006013D03*
X016983Y006053D03*
D325*
X017163Y003623D03*
D326*
X016243Y003213D03*
X016203Y003233D03*
X016183Y003233D03*
X016143Y003253D03*
X016123Y003253D03*
X016103Y003253D03*
X016043Y003273D03*
X016023Y003273D03*
X016003Y003273D03*
X015983Y003273D03*
X015963Y003273D03*
X015943Y003273D03*
X015923Y003273D03*
X015863Y003273D03*
X015843Y003273D03*
X015823Y003273D03*
X015803Y003273D03*
X015783Y003273D03*
X015763Y003273D03*
X015743Y003273D03*
X015723Y003273D03*
X015683Y003253D03*
X015663Y003253D03*
X015643Y003253D03*
X015603Y003233D03*
X015583Y003233D03*
X015563Y003233D03*
X015523Y003213D03*
X015483Y003193D03*
X015743Y002453D03*
X015763Y002453D03*
X015823Y002433D03*
X015843Y002433D03*
X015863Y002433D03*
X015883Y002433D03*
X015903Y002433D03*
X015923Y002433D03*
X015943Y002433D03*
X015963Y002433D03*
X016003Y002453D03*
X016023Y002453D03*
X016043Y002473D03*
X016063Y002213D03*
X016023Y001853D03*
X016003Y001853D03*
X015983Y001833D03*
X015963Y001833D03*
X015943Y001833D03*
X015923Y001833D03*
X015843Y001833D03*
X015823Y001833D03*
X015803Y001833D03*
X015783Y001833D03*
X015763Y001853D03*
X015743Y001853D03*
X015723Y001873D03*
X015563Y001433D03*
X015543Y001433D03*
X015503Y001453D03*
X015603Y001413D03*
X015623Y001413D03*
X015663Y001393D03*
X015683Y001393D03*
X015703Y001393D03*
X015723Y001393D03*
X015803Y001373D03*
X015823Y001373D03*
X015843Y001373D03*
X015863Y001373D03*
X015883Y001373D03*
X015903Y001373D03*
X015923Y001373D03*
X015943Y001373D03*
X015963Y001373D03*
X015983Y001373D03*
X016063Y001393D03*
X016083Y001393D03*
X016103Y001393D03*
X016143Y001413D03*
X016163Y001413D03*
X016183Y001413D03*
X016223Y001433D03*
X016023Y004633D03*
X016043Y004653D03*
X016063Y004673D03*
X016083Y004693D03*
X016103Y004713D03*
X015223Y005173D03*
X015143Y005173D03*
X015063Y005653D03*
X015083Y005673D03*
X015103Y005693D03*
X015143Y005733D03*
X016043Y005713D03*
X016063Y005693D03*
X016083Y005673D03*
X016783Y005353D03*
X016963Y005153D03*
X016983Y005153D03*
X017023Y005193D03*
X017143Y005193D03*
X017163Y005193D03*
X016063Y006573D03*
X016083Y006593D03*
X015783Y006853D03*
X015763Y006853D03*
X015743Y006833D03*
X015723Y006833D03*
X015523Y006833D03*
X015463Y006833D03*
X015423Y006853D03*
X015403Y006853D03*
X015103Y006573D03*
X015083Y006593D03*
X015063Y006613D03*
X015143Y006533D03*
X015383Y007333D03*
X015423Y007353D03*
X015443Y007353D03*
X015463Y007373D03*
X015483Y007373D03*
X015503Y007373D03*
X015523Y007373D03*
X015543Y007373D03*
X015563Y007373D03*
X015603Y007373D03*
X015623Y007373D03*
X015643Y007373D03*
X015663Y007373D03*
X015683Y007373D03*
X015703Y007373D03*
X015743Y007353D03*
X015783Y007333D03*
X016103Y007553D03*
X016083Y007573D03*
X016063Y007593D03*
X016043Y007613D03*
X016003Y007653D03*
X015103Y007613D03*
X015083Y007593D03*
X015063Y007573D03*
X016823Y007053D03*
X016963Y006993D03*
X017143Y007213D03*
X017163Y007213D03*
X015083Y004673D03*
D327*
X017163Y006023D03*
D328*
X016883Y006063D03*
X016843Y006083D03*
X016803Y006103D03*
X016783Y006123D03*
X015003Y002323D03*
X017143Y001483D03*
D329*
X017143Y003673D03*
D330*
X016783Y002333D03*
X017123Y001453D03*
X014983Y002333D03*
D331*
X017123Y003713D03*
D332*
X015943Y004573D03*
X015903Y004553D03*
X015883Y004533D03*
X015863Y004533D03*
X015823Y004513D03*
X015803Y004513D03*
X015763Y004493D03*
X015743Y004493D03*
X015643Y004473D03*
X015623Y004473D03*
X015603Y004473D03*
X015543Y004473D03*
X015523Y004473D03*
X015503Y004473D03*
X015403Y004493D03*
X015383Y004493D03*
X015343Y004513D03*
X015323Y004513D03*
X015303Y004533D03*
X015283Y004533D03*
X015263Y004553D03*
X015243Y004553D03*
X015223Y004573D03*
X016883Y004913D03*
X016903Y004913D03*
X016923Y004913D03*
X017123Y004913D03*
X016943Y005153D03*
X016923Y005153D03*
X015963Y005773D03*
X015923Y005793D03*
X015903Y005813D03*
X015883Y005813D03*
X015863Y005833D03*
X015843Y005833D03*
X015803Y005853D03*
X015783Y005853D03*
X015743Y005873D03*
X015723Y005873D03*
X015443Y005873D03*
X015423Y005873D03*
X015383Y005853D03*
X015363Y005853D03*
X015303Y005833D03*
X015263Y005813D03*
X015223Y005793D03*
X015203Y005773D03*
X015423Y006393D03*
X015443Y006393D03*
X015363Y006413D03*
X015323Y006433D03*
X015303Y006433D03*
X015263Y006453D03*
X015243Y006473D03*
X015223Y006473D03*
X015203Y006493D03*
X015543Y006833D03*
X015183Y007073D03*
X015843Y006433D03*
X015863Y006433D03*
X015883Y006453D03*
X015903Y006453D03*
X015923Y006473D03*
X015963Y006493D03*
X015803Y006413D03*
X015783Y006413D03*
X015743Y006393D03*
X015723Y006393D03*
X016883Y007053D03*
X016983Y007013D03*
X015943Y007693D03*
X015923Y007713D03*
X015903Y007713D03*
X015883Y007733D03*
X015863Y007733D03*
X015823Y007753D03*
X015763Y007773D03*
X015743Y007773D03*
X015623Y007793D03*
X015603Y007793D03*
X015583Y007793D03*
X015563Y007793D03*
X015543Y007793D03*
X015403Y007773D03*
X015343Y007753D03*
X015323Y007753D03*
X015303Y007733D03*
X015283Y007733D03*
X015243Y007713D03*
X015223Y007693D03*
X015183Y007673D03*
X015723Y002813D03*
X015723Y002213D03*
D333*
X015783Y002443D03*
X015803Y002443D03*
X015983Y002443D03*
X016063Y002823D03*
X016063Y003263D03*
X016083Y003263D03*
X015903Y003283D03*
X015883Y003283D03*
X015703Y003263D03*
X015923Y004563D03*
X015963Y004583D03*
X015983Y004603D03*
X016003Y004623D03*
X016343Y005183D03*
X016803Y005343D03*
X017003Y005183D03*
X017043Y005203D03*
X017063Y005203D03*
X017083Y005203D03*
X017103Y005203D03*
X017123Y005203D03*
X017103Y004923D03*
X017083Y004923D03*
X017063Y004923D03*
X017043Y004923D03*
X016023Y005723D03*
X016003Y005743D03*
X015983Y005763D03*
X015943Y005783D03*
X015283Y005823D03*
X015243Y005803D03*
X015183Y005763D03*
X015163Y005743D03*
X015123Y005723D03*
X015123Y005183D03*
X015243Y005183D03*
X015103Y004663D03*
X015123Y004643D03*
X015143Y004623D03*
X015163Y004603D03*
X015183Y004603D03*
X015203Y004583D03*
X015283Y006443D03*
X015183Y006503D03*
X015163Y006523D03*
X015123Y006543D03*
X015443Y006843D03*
X015943Y006483D03*
X015983Y006503D03*
X016003Y006523D03*
X016023Y006543D03*
X016043Y006563D03*
X016343Y007083D03*
X016843Y007043D03*
X016863Y007043D03*
X017083Y006803D03*
X017103Y006803D03*
X017063Y006783D03*
X016023Y007643D03*
X015983Y007663D03*
X015963Y007683D03*
X015263Y007723D03*
X015203Y007683D03*
X015163Y007663D03*
X015143Y007643D03*
X015123Y007623D03*
X015863Y001823D03*
X015883Y001823D03*
X015903Y001823D03*
X016003Y001383D03*
X016023Y001383D03*
X016043Y001383D03*
X015783Y001383D03*
X015763Y001383D03*
X015743Y001383D03*
D334*
X017083Y008193D03*
X017103Y008193D03*
X017123Y008193D03*
D335*
X016803Y002323D03*
X017103Y001423D03*
D336*
X017103Y003733D03*
D337*
X016843Y005133D03*
X016883Y005353D03*
X015583Y006833D03*
X016983Y007213D03*
X017003Y007213D03*
X017063Y007013D03*
X017103Y007013D03*
X014683Y008933D03*
X014663Y008933D03*
X014723Y008953D03*
X014743Y008953D03*
X014763Y008953D03*
X014783Y008953D03*
X014803Y008953D03*
X014823Y008953D03*
X014843Y008953D03*
X014863Y008953D03*
X014883Y008953D03*
X014903Y008953D03*
X014923Y008953D03*
X014943Y008953D03*
X014963Y008953D03*
X014983Y008953D03*
X015003Y008953D03*
X015023Y008953D03*
X015043Y008953D03*
X015063Y008953D03*
X015083Y008953D03*
X015103Y008953D03*
X015123Y008953D03*
X015143Y008953D03*
X015163Y008953D03*
X015183Y008953D03*
X015203Y008953D03*
X015223Y008953D03*
X015243Y008953D03*
X015263Y008953D03*
X015283Y008953D03*
X015303Y008953D03*
X015323Y008953D03*
X015343Y008953D03*
X015363Y008953D03*
X015383Y008953D03*
X015403Y008953D03*
X015423Y008953D03*
X015443Y008953D03*
X015463Y008953D03*
X015483Y008953D03*
X015503Y008953D03*
X015523Y008953D03*
X015543Y008953D03*
X015563Y008953D03*
X015583Y008953D03*
X015603Y008953D03*
X015623Y008953D03*
X015643Y008953D03*
X015663Y008953D03*
X015683Y008953D03*
X015703Y008953D03*
X015723Y008953D03*
X015743Y008953D03*
X015763Y008953D03*
X015783Y008953D03*
X015803Y008953D03*
X015823Y008953D03*
X015843Y008953D03*
X015863Y008953D03*
X015883Y008953D03*
X015903Y008953D03*
X015923Y008953D03*
X015943Y008953D03*
X015963Y008953D03*
X015983Y008953D03*
X016003Y008953D03*
X016023Y008953D03*
X016043Y008953D03*
X016063Y008953D03*
X016083Y008953D03*
X016103Y008953D03*
X016123Y008953D03*
X016143Y008953D03*
X016163Y008953D03*
X016183Y008953D03*
X016203Y008953D03*
X016223Y008953D03*
X016243Y008953D03*
X016263Y008953D03*
X016283Y008953D03*
X016303Y008953D03*
X016323Y008953D03*
X016343Y008953D03*
X016363Y008953D03*
X016383Y008953D03*
X016403Y008953D03*
X016423Y008953D03*
X016443Y008953D03*
X016463Y008953D03*
X016483Y008953D03*
X016503Y008953D03*
X016523Y008953D03*
X016543Y008953D03*
X016023Y002213D03*
X016203Y002033D03*
X016203Y000953D03*
X016183Y000953D03*
X016163Y000953D03*
X016143Y000953D03*
X016123Y000953D03*
X016103Y000953D03*
X016083Y000953D03*
X016063Y000953D03*
X016043Y000953D03*
X016023Y000953D03*
X016003Y000953D03*
X015983Y000953D03*
X015963Y000953D03*
X015943Y000953D03*
X015923Y000953D03*
X015903Y000953D03*
X015883Y000953D03*
X015863Y000953D03*
X015843Y000953D03*
X015823Y000953D03*
X015803Y000953D03*
X015783Y000953D03*
X015763Y000953D03*
X015743Y000953D03*
X015723Y000953D03*
X015703Y000953D03*
X015683Y000953D03*
X015663Y000953D03*
X015643Y000953D03*
X015623Y000953D03*
X015603Y000953D03*
X015583Y000953D03*
X015563Y000953D03*
X015543Y000953D03*
X015523Y000953D03*
X015503Y000953D03*
X015483Y000953D03*
X015463Y000953D03*
X015443Y000953D03*
X015423Y000953D03*
X015403Y000953D03*
X015383Y000953D03*
X015363Y000953D03*
X015343Y000953D03*
X015323Y000953D03*
X015303Y000953D03*
X015283Y000953D03*
X015263Y000953D03*
X015243Y000953D03*
X015223Y000953D03*
X015203Y000953D03*
X015183Y000953D03*
X015163Y000953D03*
X015143Y000953D03*
X015123Y000953D03*
X015103Y000953D03*
X015083Y000953D03*
X015063Y000953D03*
X015043Y000953D03*
X015023Y000953D03*
X015003Y000953D03*
X014983Y000953D03*
X014963Y000953D03*
X014943Y000953D03*
X014923Y000953D03*
X014903Y000953D03*
X014883Y000953D03*
X014863Y000953D03*
X014843Y000953D03*
X014823Y000953D03*
X014803Y000953D03*
X014783Y000953D03*
X014763Y000953D03*
X014743Y000953D03*
X014723Y000953D03*
X014683Y000973D03*
X014663Y000973D03*
X016223Y000953D03*
X016243Y000953D03*
X016263Y000953D03*
X016283Y000953D03*
X016303Y000953D03*
X016323Y000953D03*
X016343Y000953D03*
X016363Y000953D03*
X016383Y000953D03*
X016403Y000953D03*
X016423Y000953D03*
X016443Y000953D03*
X016463Y000953D03*
X016483Y000953D03*
X016503Y000953D03*
X016523Y000953D03*
X016543Y000953D03*
D338*
X017083Y001393D03*
D339*
X017083Y003763D03*
D340*
X017083Y006003D03*
D341*
X014943Y002333D03*
X017063Y001373D03*
D342*
X017063Y003783D03*
D343*
X016843Y003943D03*
X017043Y008183D03*
X017063Y008183D03*
D344*
X017043Y001353D03*
D345*
X017043Y003803D03*
D346*
X017043Y006103D03*
D347*
X014923Y005173D03*
X014923Y007093D03*
X014923Y002333D03*
X017023Y001333D03*
D348*
X017023Y003823D03*
D349*
X017023Y006083D03*
D350*
X017023Y008173D03*
X017003Y008173D03*
X016983Y008173D03*
X016863Y003933D03*
D351*
X016243Y005173D03*
X016243Y007093D03*
X017003Y001313D03*
D352*
X017003Y003843D03*
D353*
X016943Y004893D03*
X016903Y005153D03*
X016843Y005353D03*
X016863Y006793D03*
X017003Y007013D03*
X015563Y006833D03*
D354*
X016983Y001303D03*
D355*
X016983Y003863D03*
D356*
X014903Y002323D03*
X016963Y001283D03*
D357*
X016963Y003873D03*
D358*
X016963Y006053D03*
D359*
X016963Y008163D03*
X016943Y008163D03*
X016923Y008163D03*
X016883Y003923D03*
D360*
X016263Y005173D03*
X016263Y007093D03*
X016943Y001273D03*
D361*
X016943Y003883D03*
D362*
X016943Y006043D03*
D363*
X016183Y005533D03*
X016183Y004833D03*
X014963Y004853D03*
X015223Y003013D03*
X015203Y002993D03*
X015183Y002973D03*
X016523Y003033D03*
X016543Y003013D03*
X016563Y002993D03*
X016583Y002973D03*
X016603Y002953D03*
X016603Y001713D03*
X016583Y001693D03*
X016563Y001673D03*
X015223Y001653D03*
X015203Y001673D03*
X015183Y001693D03*
X015163Y001713D03*
X015483Y006833D03*
X015843Y007273D03*
X016183Y007433D03*
X016943Y006973D03*
X014963Y007413D03*
D364*
X015603Y006833D03*
X016923Y007213D03*
X016943Y007213D03*
X015283Y005173D03*
X015763Y002793D03*
X016003Y002193D03*
D365*
X016923Y001253D03*
D366*
X016923Y003903D03*
X016863Y008143D03*
X016843Y008143D03*
X016823Y008143D03*
D367*
X016903Y006053D03*
X016923Y006053D03*
X016763Y002333D03*
D368*
X016883Y002323D03*
X016903Y001243D03*
X016283Y005183D03*
X016283Y007083D03*
D369*
X016743Y002683D03*
X016903Y002323D03*
X016083Y002643D03*
X015683Y002643D03*
X015683Y002043D03*
X016743Y001163D03*
D370*
X016903Y003913D03*
X016903Y008153D03*
X016883Y008153D03*
D371*
X016883Y001233D03*
D372*
X016863Y001223D03*
X014863Y005183D03*
X014863Y007083D03*
D373*
X014903Y007093D03*
X014903Y005173D03*
X016863Y002333D03*
D374*
X016863Y006073D03*
X016823Y006093D03*
D375*
X015863Y007093D03*
X015323Y007093D03*
X014883Y002333D03*
X016843Y001213D03*
D376*
X016843Y002323D03*
X016223Y007083D03*
D377*
X015303Y007103D03*
X016823Y001203D03*
D378*
X016823Y002323D03*
D379*
X016803Y001193D03*
X015023Y002013D03*
X015023Y002653D03*
X015283Y007093D03*
X015883Y007093D03*
D380*
X016783Y008133D03*
X016803Y008133D03*
D381*
X016303Y007083D03*
X016303Y005183D03*
X016783Y001183D03*
D382*
X016763Y001173D03*
X016083Y002033D03*
X015903Y007093D03*
X015263Y007093D03*
D383*
X016763Y004973D03*
D384*
X016763Y007923D03*
D385*
X015923Y007093D03*
X014843Y007093D03*
X014843Y005173D03*
X015663Y002653D03*
X016103Y002653D03*
X016103Y002033D03*
X016743Y001973D03*
X016723Y001153D03*
D386*
X016743Y006113D03*
D387*
X016323Y005183D03*
X016223Y004963D03*
X015683Y005183D03*
X015663Y005183D03*
X015643Y005183D03*
X015623Y005183D03*
X015603Y005183D03*
X015583Y005183D03*
X015563Y005183D03*
X015543Y005183D03*
X015523Y005183D03*
X015503Y005183D03*
X015483Y005183D03*
X015463Y005183D03*
X015443Y005183D03*
X015423Y005183D03*
X015403Y005183D03*
X015383Y005183D03*
X015943Y007083D03*
X016323Y007083D03*
X016723Y002743D03*
X016723Y001903D03*
X015643Y002043D03*
X015043Y001923D03*
X014863Y002323D03*
X015643Y002643D03*
X016623Y001123D03*
X016643Y001123D03*
D388*
X016723Y006123D03*
D389*
X016123Y002643D03*
X015663Y002043D03*
X016683Y001143D03*
X016703Y001143D03*
D390*
X016583Y001103D03*
X016563Y001103D03*
X016703Y001863D03*
X016143Y002643D03*
X015623Y002643D03*
X015063Y002783D03*
X015623Y002043D03*
D391*
X016703Y006133D03*
D392*
X015963Y007083D03*
X014943Y006803D03*
X014823Y007083D03*
X014943Y007363D03*
X014823Y005183D03*
X014943Y004903D03*
X015103Y002863D03*
X016163Y002643D03*
X016663Y002863D03*
X016163Y002043D03*
X016683Y001823D03*
X015103Y001803D03*
D393*
X016663Y006143D03*
X016683Y006143D03*
D394*
X016223Y005393D03*
X015243Y007093D03*
X015043Y002733D03*
X016123Y002033D03*
X016663Y001133D03*
D395*
X016623Y001733D03*
X016663Y001793D03*
X015603Y002653D03*
X015123Y002893D03*
X015123Y001773D03*
X016643Y002893D03*
X016203Y004873D03*
X016203Y007393D03*
D396*
X016203Y006783D03*
X015203Y007083D03*
X014963Y006763D03*
X014963Y005503D03*
X016203Y005483D03*
X016623Y002923D03*
X015603Y002043D03*
X015143Y001743D03*
X015143Y002923D03*
X015163Y002943D03*
X016643Y001763D03*
D397*
X016643Y006153D03*
X016623Y006153D03*
D398*
X015363Y005173D03*
X015223Y007093D03*
X016143Y002033D03*
X016603Y001113D03*
X015063Y001873D03*
D399*
X016603Y006163D03*
D400*
X016583Y006173D03*
X016563Y006173D03*
D401*
X014963Y002333D03*
D402*
X014883Y005183D03*
X014883Y007083D03*
D403*
X014623Y004953D03*
D404*
X014603Y004953D03*
D405*
X014583Y004953D03*
M02*
