%
M48
M72
T01C0.0120
T02C0.0236
T03C0.0276
T04C0.0354
T05C0.0394
T06C0.0400
T07C0.0512
T08C0.1102
%
T01
X13221Y1843
X13260Y2709
X13615Y3496
X12119Y2709
X11370Y1843
X10071Y1449
X12945Y780
X9166Y4441
X8811Y4678
X8378Y4835
X8181Y5111
X7119Y5780
X8181Y6410
X8378Y6804
X8733Y6116
X9166Y5877
X7276Y6646
X6646Y6607
X6367Y6821
X7355Y7237
X5859Y7670
X5229Y7473
X4993Y7788
X4559Y7237
X3142Y7355
X3103Y7945
X4284Y8733
X6016Y8733
X4520Y10229
X2473Y10307
X544Y10307
X583Y9284
X3024Y6685
X3103Y6174
X3063Y5622
X3103Y4993
X4678Y5859
X5504Y5701
X5622Y5268
X5291Y4543
X4953Y4638
X5386Y3615
X6367Y4202
X6646Y4402
X7788Y3536
X10977Y4835
X13457Y6095
X12079Y7197
X14481Y8063
X16882Y7827
X20662Y8851
X20622Y9323
X22119Y9244
X22079Y8536
X21922Y8103
X22788Y7552
X21252Y10465
X10898Y15898
X9717Y16764
X9048Y17394
X9953Y17906
X9008Y18103
X9166Y16134
X6174Y16213
X3142Y2827
T02
X16489Y859
X15386Y662
X14284Y780
X11882Y1370
X10268Y937
X15504Y2709
X15544Y3693
X15504Y4874
X15465Y6056
X18733Y7473
X18811Y6725
X19796Y5937
X20504Y5465
X20741Y6095
X21922Y6016
X22709Y6370
X22945Y5583
X21804Y5347
X21843Y3851
X20544Y3693
X19205Y3851
X19323Y2355
X20583Y2197
X21804Y2158
X21843Y741
X21056Y741
X20229Y662
X18772Y662
X22709Y780
X23536Y3536
X24244Y4008
X23536Y4402
X24993Y4363
X24953Y3536
X19048Y5504
X20701Y7945
X20622Y8418
X19126Y8811
X19008Y9756
X20071Y9796
X19363Y10819
X17670Y12355
X19284Y12670
X16725Y10741
X15622Y11174
X15150Y10622
X13772Y9914
X12867Y9008
X11882Y9914
X10544Y10819
X9559Y9166
X8024Y11016
X7867Y12158
X4914Y11528
X2867Y11685
X1292Y12552
X819Y11292
X2000Y8851
X2709Y8772
X2237Y7512
X2197Y6134
X2158Y4678
X2709Y3654
X4284Y4284
X4441Y3654
X4126Y2473
X3496Y1843
X3063Y701
X819Y4126
X13103Y7197
X15268Y9008
X17237Y8890
X17512Y8300
X17197Y9914
X22040Y9678
X22906Y9441
X23300Y8103
X21922Y11725
X23024Y12040
X23733Y13339
X25150Y13339
X22867Y15111
X21922Y14717
X18930Y16370
X18103Y16056
X17276Y15859
X17355Y14717
X13930Y16174
X12670Y15229
X11607Y14481
X10741Y15150
X9087Y14796
X7119Y15465
X6252Y16922
X5701Y17906
X7079Y18890
X6252Y19284
X8930Y18890
X9953Y18930
X11449Y18063
X12433Y18496
X12433Y19363
X15032Y17355
X15465Y19363
X18142Y18772
X19796Y19363
X20583Y19520
X21764Y19244
X22709Y19244
X18772Y17433
X3418Y15268
X2630Y15111
X2906Y19087
T03
X14166Y1725
X14166Y7394
T04
X8241Y9481
X10800Y9481
T05
X3693Y13733
X4693Y13733
X5693Y13733
X6693Y13733
X7693Y13733
X8693Y13733
X9693Y13733
X10693Y13733
X11693Y13733
X12693Y13733
X13693Y13733
X14693Y13733
X15693Y13733
X16693Y13733
X17693Y13733
X18693Y13733
X19693Y13733
X20693Y13733
T06
X24678Y10122
X24678Y11122
X24638Y15579
X24638Y16579
X24638Y17579
X24638Y18579
X22445Y20319
X21445Y20319
X20445Y20319
X19445Y20319
X18445Y20319
X17445Y20319
X16445Y20319
X15445Y20319
X14445Y20319
X13445Y20319
X12445Y20319
X11445Y20319
X10445Y20319
X9445Y20319
X8445Y20319
X7445Y20319
X6445Y20319
X5445Y20319
X4445Y20319
X3445Y20319
X3445Y21319
X4445Y21319
X5445Y21319
X6445Y21319
X7445Y21319
X8445Y21319
X9445Y21319
X10445Y21319
X11445Y21319
X12445Y21319
X13445Y21319
X14445Y21319
X15445Y21319
X16445Y21319
X17445Y21319
X18445Y21319
X19445Y21319
X20445Y21319
X21445Y21319
X22445Y21319
X13394Y16837
X12394Y16837
X1213Y18579
X1213Y17579
X1213Y16579
X1213Y15579
T07
X1532Y3556
X3481Y3792
X3481Y9500
X1532Y9737
T08
X24363Y1528
X1528Y1528
X1528Y20819
X24363Y20819
M30
