%
M48
M72
T01C0.0120
T02C0.0236
T03C0.0354
T04C0.0394
T05C0.0400
T06C0.0512
T07C0.1102
%
T01
X12935Y2390
X12895Y3492
X11557Y3531
X11242Y3295
X11084Y3650
X10730Y3256
X10100Y2626
X9588Y2508
X8919Y2508
X8368Y2626
X7817Y3256
X7069Y3886
X6832Y4122
X6281Y3965
X5454Y4555
X5454Y5146
X5454Y5736
X5454Y6327
X5454Y6839
X5454Y7547
X5572Y8256
X6360Y8256
X6832Y8571
X7462Y8728
X8289Y8728
X9234Y8689
X9116Y7902
X9470Y7547
X9982Y6957
X10376Y6839
X10769Y6957
X11399Y6799
X10927Y6012
X11163Y5657
X11517Y5933
X10297Y5972
X9470Y6209
X8958Y5854
X8486Y5618
X8092Y6051
X7462Y6091
X6911Y6091
X6832Y5461
X6793Y4870
X7856Y5185
X8643Y4437
X8919Y4870
X9470Y4673
X9982Y4988
X10297Y4437
X10651Y4988
X11006Y4673
X11517Y4673
X12895Y4634
X12974Y5854
X12935Y7665
X11832Y8295
X11242Y8728
X10257Y8728
X10376Y7941
X11320Y7587
X8801Y6209
X8210Y6839
X7541Y6839
X6754Y6839
X6990Y7587
X7344Y7902
X7817Y7665
X8328Y7941
X8683Y7587
X9431Y5618
X7817Y4240
X9155Y3846
X8958Y3295
X9509Y3256
X9824Y3846
X11439Y2508
X20769Y9437
X20730Y9909
X22226Y9831
X22187Y9122
X22029Y8689
X22895Y8138
X21360Y11051
X11006Y16484
X9824Y17350
X9273Y16720
X9155Y17980
X9116Y18689
X10061Y18492
X6281Y16799
T02
X17620Y8886
X17344Y9476
X17305Y10500
X16832Y11327
X15730Y11760
X15257Y11209
X13880Y10500
X12974Y9594
X13525Y8728
X14352Y8335
X13880Y7665
X13525Y7114
X14234Y6563
X13683Y5854
X13801Y4555
X13446Y3925
X13801Y2862
X11675Y1406
X10612Y1524
X13210Y1287
X18840Y8059
X18919Y7311
X19903Y6524
X20612Y6051
X20848Y6681
X22029Y6602
X22817Y6957
X23053Y6169
X21911Y5933
X21950Y4437
X20651Y4280
X19313Y4437
X19431Y2941
X20691Y2783
X21911Y2744
X21950Y1327
X22817Y1366
X21163Y1327
X20336Y1248
X18880Y1248
X3171Y1287
X4076Y1327
X4234Y2272
X2817Y4240
X3131Y5303
X4391Y5500
X4549Y4240
X2659Y6839
X4116Y7035
X4431Y8098
X2856Y8098
X2817Y9358
X4116Y10736
X5454Y10382
X4037Y12114
X2974Y12272
X2738Y15697
X3525Y15854
X6360Y17508
X5809Y18492
X7187Y19476
X6360Y19870
X9037Y19476
X10061Y19516
X11557Y18650
X12541Y19083
X12541Y19949
X15139Y17941
X14037Y16760
X12777Y15815
X11714Y15067
X10848Y15736
X9194Y15382
X7226Y16051
X7974Y12744
X8131Y11602
X9667Y9752
X10651Y11406
X11990Y10500
X15376Y9594
X19116Y10343
X20179Y10382
X19470Y11406
X17777Y12941
X19391Y13256
X22029Y12311
X23131Y12626
X23840Y13925
X25257Y13925
X22974Y15697
X22029Y15303
X19037Y16957
X18210Y16642
X17383Y16445
X17462Y15303
X18880Y18020
X18250Y19358
X19903Y19949
X20691Y20106
X21872Y19831
X22817Y19831
X15572Y19949
X3013Y19673
X19234Y9398
X20730Y9004
X20809Y8531
X22147Y10264
X23565Y9988
X23604Y9004
X19155Y6091
X23643Y4988
X24352Y4594
X25100Y4949
X25061Y4122
X23643Y4122
T03
X10907Y10067
X8348Y10067
T04
X17801Y14319
X18801Y14319
X19801Y14319
X20801Y14319
X16801Y14319
X15801Y14319
X14801Y14319
X13801Y14319
X12801Y14319
X11801Y14319
X10801Y14319
X9801Y14319
X8801Y14319
X7801Y14319
X6801Y14319
X5801Y14319
X4801Y14319
X3801Y14319
T05
X1320Y16165
X1320Y17165
X1320Y18165
X1320Y19165
X3553Y20906
X4553Y20906
X5553Y20906
X6553Y20906
X7553Y20906
X8553Y20906
X9553Y20906
X10553Y20906
X11553Y20906
X12553Y20906
X13553Y20906
X13553Y21906
X12553Y21906
X11553Y21906
X10553Y21906
X9553Y21906
X8553Y21906
X7553Y21906
X6553Y21906
X5553Y21906
X4553Y21906
X3553Y21906
X12502Y17423
X13502Y17423
X14553Y20906
X15553Y20906
X16553Y20906
X17553Y20906
X18553Y20906
X19553Y20906
X20553Y20906
X21553Y20906
X22553Y20906
X22553Y21906
X21553Y21906
X20553Y21906
X19553Y21906
X18553Y21906
X17553Y21906
X16553Y21906
X15553Y21906
X14553Y21906
X24746Y19165
X24746Y18165
X24746Y17165
X24746Y16165
X24785Y11709
X24785Y10709
T06
X5714Y9102
X3765Y9339
X5714Y3394
X3765Y3157
T07
X24470Y2114
X1635Y2114
X1635Y21406
X24470Y21406
M30
