G75*
%MOIN*%
%OFA0B0*%
%FSLAX24Y24*%
%IPPOS*%
%LPD*%
%AMOC8*
5,1,8,0,0,1.08239X$1,22.5*
%
%ADD10C,0.0000*%
%ADD11R,0.0512X0.0630*%
%ADD12R,0.0630X0.0512*%
%ADD13R,0.0591X0.0630*%
%ADD14R,0.0472X0.0472*%
%ADD15R,0.0315X0.0472*%
%ADD16R,0.1811X0.0394*%
%ADD17R,0.1339X0.0630*%
%ADD18R,0.0315X0.0354*%
%ADD19R,0.0354X0.0236*%
%ADD20R,0.0472X0.0315*%
%ADD21R,0.0787X0.0236*%
%ADD22R,0.1654X0.0276*%
%ADD23R,0.0748X0.0118*%
%ADD24R,0.0551X0.1181*%
%ADD25R,0.0400X0.1201*%
%ADD26R,0.4197X0.3299*%
%ADD27R,0.0591X0.0866*%
%ADD28R,0.0709X0.0945*%
%ADD29R,0.0240X0.0870*%
D10*
X001331Y000150D02*
X017079Y000150D01*
X017118Y000152D01*
X017156Y000158D01*
X017193Y000167D01*
X017230Y000180D01*
X017265Y000197D01*
X017298Y000216D01*
X017329Y000239D01*
X017358Y000265D01*
X017384Y000294D01*
X017407Y000325D01*
X017426Y000358D01*
X017443Y000393D01*
X017456Y000430D01*
X017465Y000467D01*
X017471Y000505D01*
X017473Y000544D01*
X017473Y007630D01*
X017475Y007669D01*
X017481Y007707D01*
X017490Y007744D01*
X017503Y007781D01*
X017520Y007816D01*
X017539Y007849D01*
X017562Y007880D01*
X017588Y007909D01*
X017617Y007935D01*
X017648Y007958D01*
X017681Y007977D01*
X017716Y007994D01*
X017753Y008007D01*
X017790Y008016D01*
X017828Y008022D01*
X017867Y008024D01*
X017906Y008022D01*
X017944Y008016D01*
X017981Y008007D01*
X018018Y007994D01*
X018053Y007977D01*
X018086Y007958D01*
X018117Y007935D01*
X018146Y007909D01*
X018172Y007880D01*
X018195Y007849D01*
X018214Y007816D01*
X018231Y007781D01*
X018244Y007744D01*
X018253Y007707D01*
X018259Y007669D01*
X018261Y007630D01*
X018260Y007630D02*
X018260Y000544D01*
X018262Y000505D01*
X018268Y000467D01*
X018277Y000430D01*
X018290Y000393D01*
X018307Y000358D01*
X018326Y000325D01*
X018349Y000294D01*
X018375Y000265D01*
X018404Y000239D01*
X018435Y000216D01*
X018468Y000197D01*
X018503Y000180D01*
X018540Y000167D01*
X018577Y000158D01*
X018615Y000152D01*
X018654Y000150D01*
X024559Y000150D01*
X024625Y000152D01*
X024691Y000157D01*
X024757Y000167D01*
X024822Y000180D01*
X024886Y000196D01*
X024949Y000216D01*
X025011Y000240D01*
X025071Y000267D01*
X025130Y000297D01*
X025187Y000331D01*
X025242Y000368D01*
X025295Y000408D01*
X025346Y000450D01*
X025394Y000496D01*
X025440Y000544D01*
X025482Y000595D01*
X025522Y000648D01*
X025559Y000703D01*
X025593Y000760D01*
X025623Y000819D01*
X025650Y000879D01*
X025674Y000941D01*
X025694Y001004D01*
X025710Y001068D01*
X025723Y001133D01*
X025733Y001199D01*
X025738Y001265D01*
X025740Y001331D01*
X025741Y001331D02*
X025741Y021016D01*
X025740Y021016D02*
X025738Y021082D01*
X025733Y021148D01*
X025723Y021214D01*
X025710Y021279D01*
X025694Y021343D01*
X025674Y021406D01*
X025650Y021468D01*
X025623Y021528D01*
X025593Y021587D01*
X025559Y021644D01*
X025522Y021699D01*
X025482Y021752D01*
X025440Y021803D01*
X025394Y021851D01*
X025346Y021897D01*
X025295Y021939D01*
X025242Y021979D01*
X025187Y022016D01*
X025130Y022050D01*
X025071Y022080D01*
X025011Y022107D01*
X024949Y022131D01*
X024886Y022151D01*
X024822Y022167D01*
X024757Y022180D01*
X024691Y022190D01*
X024625Y022195D01*
X024559Y022197D01*
X001331Y022197D01*
X001265Y022195D01*
X001199Y022190D01*
X001133Y022180D01*
X001068Y022167D01*
X001004Y022151D01*
X000941Y022131D01*
X000879Y022107D01*
X000819Y022080D01*
X000760Y022050D01*
X000703Y022016D01*
X000648Y021979D01*
X000595Y021939D01*
X000544Y021897D01*
X000496Y021851D01*
X000450Y021803D01*
X000408Y021752D01*
X000368Y021699D01*
X000331Y021644D01*
X000297Y021587D01*
X000267Y021528D01*
X000240Y021468D01*
X000216Y021406D01*
X000196Y021343D01*
X000180Y021279D01*
X000167Y021214D01*
X000157Y021148D01*
X000152Y021082D01*
X000150Y021016D01*
X000150Y001331D01*
X000152Y001265D01*
X000157Y001199D01*
X000167Y001133D01*
X000180Y001068D01*
X000196Y001004D01*
X000216Y000941D01*
X000240Y000879D01*
X000267Y000819D01*
X000297Y000760D01*
X000331Y000703D01*
X000368Y000648D01*
X000408Y000595D01*
X000450Y000544D01*
X000496Y000496D01*
X000544Y000450D01*
X000595Y000408D01*
X000648Y000368D01*
X000703Y000331D01*
X000760Y000297D01*
X000819Y000267D01*
X000879Y000240D01*
X000941Y000216D01*
X001004Y000196D01*
X001068Y000180D01*
X001133Y000167D01*
X001199Y000157D01*
X001265Y000152D01*
X001331Y000150D01*
X000977Y001528D02*
X000979Y001575D01*
X000985Y001621D01*
X000995Y001667D01*
X001008Y001712D01*
X001026Y001755D01*
X001047Y001797D01*
X001071Y001837D01*
X001099Y001874D01*
X001130Y001909D01*
X001164Y001942D01*
X001200Y001971D01*
X001239Y001997D01*
X001280Y002020D01*
X001323Y002039D01*
X001367Y002055D01*
X001412Y002067D01*
X001458Y002075D01*
X001505Y002079D01*
X001551Y002079D01*
X001598Y002075D01*
X001644Y002067D01*
X001689Y002055D01*
X001733Y002039D01*
X001776Y002020D01*
X001817Y001997D01*
X001856Y001971D01*
X001892Y001942D01*
X001926Y001909D01*
X001957Y001874D01*
X001985Y001837D01*
X002009Y001797D01*
X002030Y001755D01*
X002048Y001712D01*
X002061Y001667D01*
X002071Y001621D01*
X002077Y001575D01*
X002079Y001528D01*
X002077Y001481D01*
X002071Y001435D01*
X002061Y001389D01*
X002048Y001344D01*
X002030Y001301D01*
X002009Y001259D01*
X001985Y001219D01*
X001957Y001182D01*
X001926Y001147D01*
X001892Y001114D01*
X001856Y001085D01*
X001817Y001059D01*
X001776Y001036D01*
X001733Y001017D01*
X001689Y001001D01*
X001644Y000989D01*
X001598Y000981D01*
X001551Y000977D01*
X001505Y000977D01*
X001458Y000981D01*
X001412Y000989D01*
X001367Y001001D01*
X001323Y001017D01*
X001280Y001036D01*
X001239Y001059D01*
X001200Y001085D01*
X001164Y001114D01*
X001130Y001147D01*
X001099Y001182D01*
X001071Y001219D01*
X001047Y001259D01*
X001026Y001301D01*
X001008Y001344D01*
X000995Y001389D01*
X000985Y001435D01*
X000979Y001481D01*
X000977Y001528D01*
X023812Y001528D02*
X023814Y001575D01*
X023820Y001621D01*
X023830Y001667D01*
X023843Y001712D01*
X023861Y001755D01*
X023882Y001797D01*
X023906Y001837D01*
X023934Y001874D01*
X023965Y001909D01*
X023999Y001942D01*
X024035Y001971D01*
X024074Y001997D01*
X024115Y002020D01*
X024158Y002039D01*
X024202Y002055D01*
X024247Y002067D01*
X024293Y002075D01*
X024340Y002079D01*
X024386Y002079D01*
X024433Y002075D01*
X024479Y002067D01*
X024524Y002055D01*
X024568Y002039D01*
X024611Y002020D01*
X024652Y001997D01*
X024691Y001971D01*
X024727Y001942D01*
X024761Y001909D01*
X024792Y001874D01*
X024820Y001837D01*
X024844Y001797D01*
X024865Y001755D01*
X024883Y001712D01*
X024896Y001667D01*
X024906Y001621D01*
X024912Y001575D01*
X024914Y001528D01*
X024912Y001481D01*
X024906Y001435D01*
X024896Y001389D01*
X024883Y001344D01*
X024865Y001301D01*
X024844Y001259D01*
X024820Y001219D01*
X024792Y001182D01*
X024761Y001147D01*
X024727Y001114D01*
X024691Y001085D01*
X024652Y001059D01*
X024611Y001036D01*
X024568Y001017D01*
X024524Y001001D01*
X024479Y000989D01*
X024433Y000981D01*
X024386Y000977D01*
X024340Y000977D01*
X024293Y000981D01*
X024247Y000989D01*
X024202Y001001D01*
X024158Y001017D01*
X024115Y001036D01*
X024074Y001059D01*
X024035Y001085D01*
X023999Y001114D01*
X023965Y001147D01*
X023934Y001182D01*
X023906Y001219D01*
X023882Y001259D01*
X023861Y001301D01*
X023843Y001344D01*
X023830Y001389D01*
X023820Y001435D01*
X023814Y001481D01*
X023812Y001528D01*
X023812Y020819D02*
X023814Y020866D01*
X023820Y020912D01*
X023830Y020958D01*
X023843Y021003D01*
X023861Y021046D01*
X023882Y021088D01*
X023906Y021128D01*
X023934Y021165D01*
X023965Y021200D01*
X023999Y021233D01*
X024035Y021262D01*
X024074Y021288D01*
X024115Y021311D01*
X024158Y021330D01*
X024202Y021346D01*
X024247Y021358D01*
X024293Y021366D01*
X024340Y021370D01*
X024386Y021370D01*
X024433Y021366D01*
X024479Y021358D01*
X024524Y021346D01*
X024568Y021330D01*
X024611Y021311D01*
X024652Y021288D01*
X024691Y021262D01*
X024727Y021233D01*
X024761Y021200D01*
X024792Y021165D01*
X024820Y021128D01*
X024844Y021088D01*
X024865Y021046D01*
X024883Y021003D01*
X024896Y020958D01*
X024906Y020912D01*
X024912Y020866D01*
X024914Y020819D01*
X024912Y020772D01*
X024906Y020726D01*
X024896Y020680D01*
X024883Y020635D01*
X024865Y020592D01*
X024844Y020550D01*
X024820Y020510D01*
X024792Y020473D01*
X024761Y020438D01*
X024727Y020405D01*
X024691Y020376D01*
X024652Y020350D01*
X024611Y020327D01*
X024568Y020308D01*
X024524Y020292D01*
X024479Y020280D01*
X024433Y020272D01*
X024386Y020268D01*
X024340Y020268D01*
X024293Y020272D01*
X024247Y020280D01*
X024202Y020292D01*
X024158Y020308D01*
X024115Y020327D01*
X024074Y020350D01*
X024035Y020376D01*
X023999Y020405D01*
X023965Y020438D01*
X023934Y020473D01*
X023906Y020510D01*
X023882Y020550D01*
X023861Y020592D01*
X023843Y020635D01*
X023830Y020680D01*
X023820Y020726D01*
X023814Y020772D01*
X023812Y020819D01*
X000977Y020819D02*
X000979Y020866D01*
X000985Y020912D01*
X000995Y020958D01*
X001008Y021003D01*
X001026Y021046D01*
X001047Y021088D01*
X001071Y021128D01*
X001099Y021165D01*
X001130Y021200D01*
X001164Y021233D01*
X001200Y021262D01*
X001239Y021288D01*
X001280Y021311D01*
X001323Y021330D01*
X001367Y021346D01*
X001412Y021358D01*
X001458Y021366D01*
X001505Y021370D01*
X001551Y021370D01*
X001598Y021366D01*
X001644Y021358D01*
X001689Y021346D01*
X001733Y021330D01*
X001776Y021311D01*
X001817Y021288D01*
X001856Y021262D01*
X001892Y021233D01*
X001926Y021200D01*
X001957Y021165D01*
X001985Y021128D01*
X002009Y021088D01*
X002030Y021046D01*
X002048Y021003D01*
X002061Y020958D01*
X002071Y020912D01*
X002077Y020866D01*
X002079Y020819D01*
X002077Y020772D01*
X002071Y020726D01*
X002061Y020680D01*
X002048Y020635D01*
X002030Y020592D01*
X002009Y020550D01*
X001985Y020510D01*
X001957Y020473D01*
X001926Y020438D01*
X001892Y020405D01*
X001856Y020376D01*
X001817Y020350D01*
X001776Y020327D01*
X001733Y020308D01*
X001689Y020292D01*
X001644Y020280D01*
X001598Y020272D01*
X001551Y020268D01*
X001505Y020268D01*
X001458Y020272D01*
X001412Y020280D01*
X001367Y020292D01*
X001323Y020308D01*
X001280Y020327D01*
X001239Y020350D01*
X001200Y020376D01*
X001164Y020405D01*
X001130Y020438D01*
X001099Y020473D01*
X001071Y020510D01*
X001047Y020550D01*
X001026Y020592D01*
X001008Y020635D01*
X000995Y020680D01*
X000985Y020726D01*
X000979Y020772D01*
X000977Y020819D01*
D11*
X012534Y015820D03*
X013282Y015820D03*
X017207Y016931D03*
X017955Y016931D03*
X017955Y017891D03*
X017207Y017891D03*
D12*
X013692Y017837D03*
X013692Y018624D03*
X007158Y017788D03*
X007158Y017000D03*
X005347Y018496D03*
X005347Y019284D03*
D13*
X007119Y014717D03*
D14*
X007512Y016026D03*
X006725Y016026D03*
D15*
X005701Y015898D03*
X004993Y015898D03*
X004993Y016685D03*
X005701Y016685D03*
X006056Y012158D03*
X006764Y012158D03*
X009126Y012237D03*
X009835Y012237D03*
X012197Y010859D03*
X012906Y010859D03*
X020268Y016016D03*
X020977Y016016D03*
X020977Y016685D03*
X020268Y016685D03*
X020268Y017473D03*
X020977Y017473D03*
X020977Y018260D03*
X020268Y018260D03*
X020268Y019008D03*
X020977Y019008D03*
D16*
X022422Y018260D03*
X022422Y017473D03*
X022422Y016685D03*
X022422Y015898D03*
X022619Y011016D03*
X022619Y010229D03*
X003430Y015898D03*
X003430Y016685D03*
X003430Y017473D03*
X003430Y018260D03*
D17*
X001382Y019205D03*
X001382Y014953D03*
X024469Y014953D03*
X024666Y011961D03*
X024666Y009284D03*
X024469Y019205D03*
D18*
X014166Y012394D03*
X014540Y011567D03*
X013792Y011567D03*
X006823Y011134D03*
X006075Y011134D03*
X006449Y010307D03*
D19*
X012099Y011587D03*
X012099Y011961D03*
X012099Y012335D03*
X013004Y012335D03*
X013004Y011961D03*
X013004Y011587D03*
D20*
X011292Y011646D03*
X011292Y012355D03*
X018693Y014599D03*
X018693Y015307D03*
X019678Y015347D03*
X019678Y014638D03*
X020701Y014599D03*
X020701Y015307D03*
D21*
X016426Y007237D03*
X016426Y006843D03*
X016426Y006449D03*
X016426Y006056D03*
X016426Y005662D03*
X016426Y005268D03*
X016426Y004874D03*
X016426Y004481D03*
X016426Y004087D03*
X016426Y003693D03*
X016426Y003300D03*
X016426Y002906D03*
X016426Y002512D03*
X016426Y002119D03*
X016426Y001725D03*
D22*
X015638Y001331D03*
X015638Y007630D03*
D23*
X003855Y007532D03*
X003855Y007729D03*
X003855Y007926D03*
X003855Y008122D03*
X003855Y008319D03*
X003855Y007335D03*
X003855Y007138D03*
X003855Y006941D03*
X003855Y006744D03*
X003855Y006548D03*
X003855Y006351D03*
X003855Y006154D03*
X003855Y005957D03*
X003855Y005760D03*
X003855Y005563D03*
X003855Y005367D03*
X003855Y005170D03*
X003855Y004973D03*
X003855Y004776D03*
D24*
X016292Y009835D03*
X016292Y011725D03*
X024441Y007591D03*
X024441Y005701D03*
D25*
X022081Y007012D03*
X021411Y007012D03*
X020741Y007012D03*
X020070Y007012D03*
X019400Y007012D03*
D26*
X020741Y002945D03*
D27*
X020662Y010859D03*
X018142Y010859D03*
D28*
X019865Y008851D03*
X021459Y008851D03*
D29*
X016372Y015946D03*
X015872Y015946D03*
X015372Y015946D03*
X014872Y015946D03*
X014872Y018596D03*
X015372Y018596D03*
X015872Y018596D03*
X016372Y018596D03*
M02*
