G75*
%MOIN*%
%OFA0B0*%
%FSLAX24Y24*%
%IPPOS*%
%LPD*%
%AMOC8*
5,1,8,0,0,1.08239X$1,22.5*
%
%ADD10C,0.0000*%
%ADD11C,0.0030*%
%ADD12C,0.0020*%
%ADD13C,0.0060*%
%ADD14C,0.0050*%
%ADD15C,0.0040*%
%ADD16C,0.0100*%
%ADD17C,0.0080*%
%ADD18C,0.0079*%
%ADD19R,0.0266X0.0965*%
%ADD20R,0.0095X0.0005*%
%ADD21R,0.0105X0.0005*%
%ADD22R,0.0200X0.0005*%
%ADD23R,0.0190X0.0005*%
%ADD24R,0.0255X0.0005*%
%ADD25R,0.0250X0.0005*%
%ADD26R,0.0295X0.0005*%
%ADD27R,0.0290X0.0005*%
%ADD28R,0.0310X0.0005*%
%ADD29R,0.0330X0.0005*%
%ADD30R,0.0325X0.0005*%
%ADD31R,0.0320X0.0005*%
%ADD32R,0.0360X0.0005*%
%ADD33R,0.0350X0.0005*%
%ADD34R,0.0385X0.0005*%
%ADD35R,0.0375X0.0005*%
%ADD36R,0.0405X0.0005*%
%ADD37R,0.0395X0.0005*%
%ADD38R,0.0420X0.0005*%
%ADD39R,0.0440X0.0005*%
%ADD40R,0.0435X0.0005*%
%ADD41R,0.0455X0.0005*%
%ADD42R,0.0470X0.0005*%
%ADD43R,0.0485X0.0005*%
%ADD44R,0.0500X0.0005*%
%ADD45R,0.0495X0.0005*%
%ADD46R,0.0315X0.0005*%
%ADD47R,0.0510X0.0005*%
%ADD48R,0.0520X0.0005*%
%ADD49R,0.0530X0.0005*%
%ADD50R,0.0540X0.0005*%
%ADD51R,0.0545X0.0005*%
%ADD52R,0.0555X0.0005*%
%ADD53R,0.0560X0.0005*%
%ADD54R,0.0570X0.0005*%
%ADD55R,0.0575X0.0005*%
%ADD56R,0.0585X0.0005*%
%ADD57R,0.0590X0.0005*%
%ADD58R,0.0305X0.0005*%
%ADD59R,0.0600X0.0005*%
%ADD60R,0.0605X0.0005*%
%ADD61R,0.0610X0.0005*%
%ADD62R,0.0615X0.0005*%
%ADD63R,0.0620X0.0005*%
%ADD64R,0.0625X0.0005*%
%ADD65R,0.0630X0.0005*%
%ADD66R,0.0635X0.0005*%
%ADD67R,0.0640X0.0005*%
%ADD68R,0.0645X0.0005*%
%ADD69R,0.0650X0.0005*%
%ADD70R,0.0655X0.0005*%
%ADD71R,0.0665X0.0005*%
%ADD72R,0.0660X0.0005*%
%ADD73R,0.0670X0.0005*%
%ADD74R,0.0285X0.0005*%
%ADD75R,0.0675X0.0005*%
%ADD76R,0.0280X0.0005*%
%ADD77R,0.0680X0.0005*%
%ADD78R,0.0275X0.0005*%
%ADD79R,0.0270X0.0005*%
%ADD80R,0.0300X0.0005*%
%ADD81R,0.0265X0.0005*%
%ADD82R,0.0335X0.0005*%
%ADD83R,0.0735X0.0005*%
%ADD84R,0.0595X0.0005*%
%ADD85R,0.0580X0.0005*%
%ADD86R,0.0525X0.0005*%
%ADD87R,0.0550X0.0005*%
%ADD88R,0.0730X0.0005*%
%ADD89R,0.0690X0.0005*%
%ADD90R,0.0535X0.0005*%
%ADD91R,0.0695X0.0005*%
%ADD92R,0.0700X0.0005*%
%ADD93R,0.0705X0.0005*%
%ADD94R,0.0715X0.0005*%
%ADD95R,0.0725X0.0005*%
%ADD96R,0.0720X0.0005*%
%ADD97R,0.0565X0.0005*%
%ADD98R,0.0740X0.0005*%
%ADD99R,0.0745X0.0005*%
%ADD100R,0.0750X0.0005*%
%ADD101R,0.0755X0.0005*%
%ADD102R,0.0345X0.0005*%
%ADD103R,0.0760X0.0005*%
%ADD104R,0.0765X0.0005*%
%ADD105R,0.0770X0.0005*%
%ADD106R,0.0415X0.0005*%
%ADD107R,0.0260X0.0005*%
%ADD108R,0.0775X0.0005*%
%ADD109R,0.0020X0.0005*%
%ADD110R,0.0780X0.0005*%
%ADD111R,0.0785X0.0005*%
%ADD112R,0.0790X0.0005*%
%ADD113R,0.0795X0.0005*%
%ADD114R,0.0365X0.0005*%
%ADD115R,0.0340X0.0005*%
%ADD116R,0.0245X0.0005*%
%ADD117R,0.0240X0.0005*%
%ADD118R,0.0235X0.0005*%
%ADD119R,0.0230X0.0005*%
%ADD120R,0.0225X0.0005*%
%ADD121R,0.0220X0.0005*%
%ADD122R,0.0215X0.0005*%
%ADD123R,0.0110X0.0005*%
%ADD124R,0.0080X0.0005*%
%ADD125R,0.0210X0.0005*%
%ADD126R,0.0085X0.0005*%
%ADD127R,0.0100X0.0005*%
%ADD128R,0.0505X0.0005*%
%ADD129R,0.0090X0.0005*%
%ADD130R,0.0195X0.0005*%
%ADD131R,0.0490X0.0005*%
%ADD132R,0.0480X0.0005*%
%ADD133R,0.0465X0.0005*%
%ADD134R,0.0180X0.0005*%
%ADD135R,0.0445X0.0005*%
%ADD136R,0.0175X0.0005*%
%ADD137R,0.0170X0.0005*%
%ADD138R,0.0165X0.0005*%
%ADD139R,0.0155X0.0005*%
%ADD140R,0.0450X0.0005*%
%ADD141R,0.0150X0.0005*%
%ADD142R,0.0140X0.0005*%
%ADD143R,0.0130X0.0005*%
%ADD144R,0.0115X0.0005*%
%ADD145R,0.0370X0.0005*%
%ADD146R,0.0070X0.0005*%
%ADD147R,0.0120X0.0005*%
%ADD148R,0.0125X0.0005*%
%ADD149R,0.0135X0.0005*%
%ADD150R,0.0145X0.0005*%
%ADD151R,0.0075X0.0005*%
%ADD152R,0.0710X0.0005*%
%ADD153R,0.0685X0.0005*%
%ADD154R,0.0160X0.0005*%
%ADD155R,0.0515X0.0005*%
%ADD156R,0.0020X0.0010*%
%ADD157R,0.0030X0.0010*%
%ADD158R,0.0050X0.0010*%
%ADD159R,0.0080X0.0010*%
%ADD160R,0.0100X0.0010*%
%ADD161R,0.0130X0.0010*%
%ADD162R,0.0120X0.0010*%
%ADD163R,0.0150X0.0010*%
%ADD164R,0.0180X0.0010*%
%ADD165R,0.0170X0.0010*%
%ADD166R,0.0200X0.0010*%
%ADD167R,0.0220X0.0010*%
%ADD168R,0.0250X0.0010*%
%ADD169R,0.0270X0.0010*%
%ADD170R,0.0300X0.0010*%
%ADD171R,0.0320X0.0010*%
%ADD172R,0.0350X0.0010*%
%ADD173R,0.0360X0.0010*%
%ADD174R,0.0370X0.0010*%
%ADD175R,0.0390X0.0010*%
%ADD176R,0.0410X0.0010*%
%ADD177R,0.0420X0.0010*%
%ADD178R,0.0430X0.0010*%
%ADD179R,0.0440X0.0010*%
%ADD180R,0.0460X0.0010*%
%ADD181R,0.0040X0.0010*%
%ADD182R,0.0470X0.0010*%
%ADD183R,0.0480X0.0010*%
%ADD184R,0.0070X0.0010*%
%ADD185R,0.0490X0.0010*%
%ADD186R,0.0520X0.0010*%
%ADD187R,0.0090X0.0010*%
%ADD188R,0.0540X0.0010*%
%ADD189R,0.0570X0.0010*%
%ADD190R,0.0140X0.0010*%
%ADD191R,0.0580X0.0010*%
%ADD192R,0.0160X0.0010*%
%ADD193R,0.0590X0.0010*%
%ADD194R,0.0620X0.0010*%
%ADD195R,0.0190X0.0010*%
%ADD196R,0.0650X0.0010*%
%ADD197R,0.0210X0.0010*%
%ADD198R,0.0640X0.0010*%
%ADD199R,0.0910X0.0010*%
%ADD200R,0.0920X0.0010*%
%ADD201R,0.0940X0.0010*%
%ADD202R,0.0950X0.0010*%
%ADD203R,0.0970X0.0010*%
%ADD204R,0.0960X0.0010*%
%ADD205R,0.0980X0.0010*%
%ADD206R,0.0990X0.0010*%
%ADD207R,0.1010X0.0010*%
%ADD208R,0.1020X0.0010*%
%ADD209R,0.1000X0.0010*%
%ADD210R,0.0930X0.0010*%
%ADD211R,0.1030X0.0010*%
%ADD212R,0.1040X0.0010*%
%ADD213R,0.1050X0.0010*%
%ADD214R,0.1060X0.0010*%
%ADD215R,0.1070X0.0010*%
%ADD216R,0.1080X0.0010*%
%ADD217R,0.1090X0.0010*%
%ADD218R,0.1100X0.0010*%
%ADD219R,0.1110X0.0010*%
%ADD220R,0.1160X0.0010*%
%ADD221R,0.1210X0.0010*%
%ADD222R,0.1250X0.0010*%
%ADD223R,0.1240X0.0010*%
%ADD224R,0.1290X0.0010*%
%ADD225R,0.1300X0.0010*%
%ADD226R,0.1340X0.0010*%
%ADD227R,0.1390X0.0010*%
%ADD228R,0.1380X0.0010*%
%ADD229R,0.1370X0.0010*%
%ADD230R,0.1360X0.0010*%
%ADD231R,0.1350X0.0010*%
%ADD232R,0.1330X0.0010*%
%ADD233R,0.1400X0.0010*%
%ADD234R,0.1320X0.0010*%
%ADD235R,0.1270X0.0010*%
%ADD236R,0.1220X0.0010*%
%ADD237R,0.1180X0.0010*%
%ADD238R,0.1140X0.0010*%
%ADD239R,0.1130X0.0010*%
%ADD240R,0.1120X0.0010*%
%ADD241R,0.1150X0.0010*%
%ADD242R,0.1170X0.0010*%
%ADD243R,0.1230X0.0010*%
%ADD244R,0.2580X0.0010*%
%ADD245R,0.2570X0.0010*%
%ADD246R,0.2560X0.0010*%
%ADD247R,0.2540X0.0010*%
%ADD248R,0.2530X0.0010*%
%ADD249R,0.2520X0.0010*%
%ADD250R,0.2500X0.0010*%
%ADD251R,0.2480X0.0010*%
%ADD252R,0.2470X0.0010*%
%ADD253R,0.2460X0.0010*%
%ADD254R,0.2440X0.0010*%
%ADD255R,0.2590X0.0010*%
%ADD256R,0.2610X0.0010*%
%ADD257R,0.2620X0.0010*%
%ADD258R,0.2640X0.0010*%
%ADD259R,0.2650X0.0010*%
%ADD260R,0.2660X0.0010*%
%ADD261R,0.2680X0.0010*%
%ADD262R,0.2690X0.0010*%
%ADD263R,0.2700X0.0010*%
%ADD264R,0.2720X0.0010*%
%ADD265R,0.2730X0.0010*%
%ADD266R,0.2740X0.0010*%
%ADD267R,0.2760X0.0010*%
%ADD268R,0.2770X0.0010*%
%ADD269R,0.2780X0.0010*%
%ADD270R,0.2800X0.0010*%
%ADD271R,0.2820X0.0010*%
%ADD272R,0.2840X0.0010*%
%ADD273R,0.2860X0.0010*%
%ADD274R,0.2880X0.0010*%
%ADD275R,0.2900X0.0010*%
%ADD276R,0.2910X0.0010*%
%ADD277R,0.2920X0.0010*%
%ADD278R,0.2940X0.0010*%
%ADD279R,0.2950X0.0010*%
%ADD280R,0.2960X0.0010*%
%ADD281R,0.2980X0.0010*%
%ADD282R,0.2990X0.0010*%
%ADD283R,0.0700X0.0010*%
%ADD284R,0.0670X0.0010*%
%ADD285R,0.1280X0.0010*%
%ADD286R,0.0600X0.0010*%
%ADD287R,0.0550X0.0010*%
%ADD288R,0.0530X0.0010*%
%ADD289R,0.0500X0.0010*%
%ADD290R,0.0450X0.0010*%
%ADD291R,0.0880X0.0010*%
%ADD292R,0.0840X0.0010*%
%ADD293R,0.0400X0.0010*%
%ADD294R,0.0800X0.0010*%
%ADD295R,0.0380X0.0010*%
%ADD296R,0.0740X0.0010*%
%ADD297R,0.0720X0.0010*%
%ADD298R,0.0330X0.0010*%
%ADD299R,0.0680X0.0010*%
%ADD300R,0.0280X0.0010*%
%ADD301R,0.0230X0.0010*%
%ADD302R,0.0660X0.0010*%
%ADD303R,0.0110X0.0010*%
%ADD304R,0.0060X0.0010*%
%ADD305R,0.0630X0.0010*%
%ADD306R,0.0610X0.0010*%
%ADD307R,0.0560X0.0010*%
%ADD308R,0.7980X0.0020*%
%ADD309R,0.8020X0.0020*%
%ADD310R,0.8060X0.0020*%
%ADD311R,0.3820X0.0020*%
%ADD312R,0.0340X0.0020*%
%ADD313R,0.1340X0.0020*%
%ADD314R,0.0120X0.0020*%
%ADD315R,0.0240X0.0020*%
%ADD316R,0.1560X0.0020*%
%ADD317R,0.1280X0.0020*%
%ADD318R,0.0080X0.0020*%
%ADD319R,0.0220X0.0020*%
%ADD320R,0.1540X0.0020*%
%ADD321R,0.0200X0.0020*%
%ADD322R,0.1260X0.0020*%
%ADD323R,0.0040X0.0020*%
%ADD324R,0.1220X0.0020*%
%ADD325R,0.2240X0.0020*%
%ADD326R,0.0180X0.0020*%
%ADD327R,0.1240X0.0020*%
%ADD328R,0.1120X0.0020*%
%ADD329R,0.2140X0.0020*%
%ADD330R,0.1060X0.0020*%
%ADD331R,0.2060X0.0020*%
%ADD332R,0.0140X0.0020*%
%ADD333R,0.0160X0.0020*%
%ADD334R,0.1580X0.0020*%
%ADD335R,0.1000X0.0020*%
%ADD336R,0.2020X0.0020*%
%ADD337R,0.0060X0.0020*%
%ADD338R,0.0940X0.0020*%
%ADD339R,0.1960X0.0020*%
%ADD340R,0.1200X0.0020*%
%ADD341R,0.0900X0.0020*%
%ADD342R,0.1920X0.0020*%
%ADD343R,0.1600X0.0020*%
%ADD344R,0.0860X0.0020*%
%ADD345R,0.1880X0.0020*%
%ADD346R,0.1400X0.0020*%
%ADD347R,0.0820X0.0020*%
%ADD348R,0.1840X0.0020*%
%ADD349R,0.1320X0.0020*%
%ADD350R,0.1620X0.0020*%
%ADD351R,0.0780X0.0020*%
%ADD352R,0.1800X0.0020*%
%ADD353R,0.0100X0.0020*%
%ADD354R,0.0760X0.0020*%
%ADD355R,0.1760X0.0020*%
%ADD356R,0.0720X0.0020*%
%ADD357R,0.1740X0.0020*%
%ADD358R,0.1180X0.0020*%
%ADD359R,0.1640X0.0020*%
%ADD360R,0.0700X0.0020*%
%ADD361R,0.1720X0.0020*%
%ADD362R,0.1160X0.0020*%
%ADD363R,0.0260X0.0020*%
%ADD364R,0.0020X0.0020*%
%ADD365R,0.0660X0.0020*%
%ADD366R,0.1680X0.0020*%
%ADD367R,0.1140X0.0020*%
%ADD368R,0.0640X0.0020*%
%ADD369R,0.0480X0.0020*%
%ADD370R,0.1660X0.0020*%
%ADD371R,0.0620X0.0020*%
%ADD372R,0.0600X0.0020*%
%ADD373R,0.0740X0.0020*%
%ADD374R,0.1100X0.0020*%
%ADD375R,0.0580X0.0020*%
%ADD376R,0.0840X0.0020*%
%ADD377R,0.0560X0.0020*%
%ADD378R,0.0920X0.0020*%
%ADD379R,0.0540X0.0020*%
%ADD380R,0.1700X0.0020*%
%ADD381R,0.0520X0.0020*%
%ADD382R,0.0500X0.0020*%
%ADD383R,0.3500X0.0020*%
%ADD384R,0.2120X0.0020*%
%ADD385R,0.0460X0.0020*%
%ADD386R,0.5740X0.0020*%
%ADD387R,0.0400X0.0020*%
%ADD388R,0.5720X0.0020*%
%ADD389R,0.0440X0.0020*%
%ADD390R,0.0360X0.0020*%
%ADD391R,0.5700X0.0020*%
%ADD392R,0.0320X0.0020*%
%ADD393R,0.5680X0.0020*%
%ADD394R,0.0420X0.0020*%
%ADD395R,0.0300X0.0020*%
%ADD396R,0.0280X0.0020*%
%ADD397R,0.5660X0.0020*%
%ADD398R,0.0380X0.0020*%
%ADD399R,0.5640X0.0020*%
%ADD400R,0.5620X0.0020*%
%ADD401R,0.0980X0.0020*%
%ADD402R,0.0680X0.0020*%
%ADD403R,0.7940X0.0020*%
%ADD404R,0.7900X0.0020*%
%ADD405R,0.7780X0.0020*%
D10*
X001331Y000150D02*
X017079Y000150D01*
X017118Y000152D01*
X017156Y000158D01*
X017193Y000167D01*
X017230Y000180D01*
X017265Y000197D01*
X017298Y000216D01*
X017329Y000239D01*
X017358Y000265D01*
X017384Y000294D01*
X017407Y000325D01*
X017426Y000358D01*
X017443Y000393D01*
X017456Y000430D01*
X017465Y000467D01*
X017471Y000505D01*
X017473Y000544D01*
X017473Y007630D01*
X017475Y007669D01*
X017481Y007707D01*
X017490Y007744D01*
X017503Y007781D01*
X017520Y007816D01*
X017539Y007849D01*
X017562Y007880D01*
X017588Y007909D01*
X017617Y007935D01*
X017648Y007958D01*
X017681Y007977D01*
X017716Y007994D01*
X017753Y008007D01*
X017790Y008016D01*
X017828Y008022D01*
X017867Y008024D01*
X017906Y008022D01*
X017944Y008016D01*
X017981Y008007D01*
X018018Y007994D01*
X018053Y007977D01*
X018086Y007958D01*
X018117Y007935D01*
X018146Y007909D01*
X018172Y007880D01*
X018195Y007849D01*
X018214Y007816D01*
X018231Y007781D01*
X018244Y007744D01*
X018253Y007707D01*
X018259Y007669D01*
X018261Y007630D01*
X018260Y007630D02*
X018260Y000544D01*
X018262Y000505D01*
X018268Y000467D01*
X018277Y000430D01*
X018290Y000393D01*
X018307Y000358D01*
X018326Y000325D01*
X018349Y000294D01*
X018375Y000265D01*
X018404Y000239D01*
X018435Y000216D01*
X018468Y000197D01*
X018503Y000180D01*
X018540Y000167D01*
X018577Y000158D01*
X018615Y000152D01*
X018654Y000150D01*
X024559Y000150D01*
X024625Y000152D01*
X024691Y000157D01*
X024757Y000167D01*
X024822Y000180D01*
X024886Y000196D01*
X024949Y000216D01*
X025011Y000240D01*
X025071Y000267D01*
X025130Y000297D01*
X025187Y000331D01*
X025242Y000368D01*
X025295Y000408D01*
X025346Y000450D01*
X025394Y000496D01*
X025440Y000544D01*
X025482Y000595D01*
X025522Y000648D01*
X025559Y000703D01*
X025593Y000760D01*
X025623Y000819D01*
X025650Y000879D01*
X025674Y000941D01*
X025694Y001004D01*
X025710Y001068D01*
X025723Y001133D01*
X025733Y001199D01*
X025738Y001265D01*
X025740Y001331D01*
X025741Y001331D02*
X025741Y021016D01*
X025740Y021016D02*
X025738Y021082D01*
X025733Y021148D01*
X025723Y021214D01*
X025710Y021279D01*
X025694Y021343D01*
X025674Y021406D01*
X025650Y021468D01*
X025623Y021528D01*
X025593Y021587D01*
X025559Y021644D01*
X025522Y021699D01*
X025482Y021752D01*
X025440Y021803D01*
X025394Y021851D01*
X025346Y021897D01*
X025295Y021939D01*
X025242Y021979D01*
X025187Y022016D01*
X025130Y022050D01*
X025071Y022080D01*
X025011Y022107D01*
X024949Y022131D01*
X024886Y022151D01*
X024822Y022167D01*
X024757Y022180D01*
X024691Y022190D01*
X024625Y022195D01*
X024559Y022197D01*
X001331Y022197D01*
X001265Y022195D01*
X001199Y022190D01*
X001133Y022180D01*
X001068Y022167D01*
X001004Y022151D01*
X000941Y022131D01*
X000879Y022107D01*
X000819Y022080D01*
X000760Y022050D01*
X000703Y022016D01*
X000648Y021979D01*
X000595Y021939D01*
X000544Y021897D01*
X000496Y021851D01*
X000450Y021803D01*
X000408Y021752D01*
X000368Y021699D01*
X000331Y021644D01*
X000297Y021587D01*
X000267Y021528D01*
X000240Y021468D01*
X000216Y021406D01*
X000196Y021343D01*
X000180Y021279D01*
X000167Y021214D01*
X000157Y021148D01*
X000152Y021082D01*
X000150Y021016D01*
X000150Y001331D01*
X000152Y001265D01*
X000157Y001199D01*
X000167Y001133D01*
X000180Y001068D01*
X000196Y001004D01*
X000216Y000941D01*
X000240Y000879D01*
X000267Y000819D01*
X000297Y000760D01*
X000331Y000703D01*
X000368Y000648D01*
X000408Y000595D01*
X000450Y000544D01*
X000496Y000496D01*
X000544Y000450D01*
X000595Y000408D01*
X000648Y000368D01*
X000703Y000331D01*
X000760Y000297D01*
X000819Y000267D01*
X000879Y000240D01*
X000941Y000216D01*
X001004Y000196D01*
X001068Y000180D01*
X001133Y000167D01*
X001199Y000157D01*
X001265Y000152D01*
X001331Y000150D01*
X000977Y001528D02*
X000979Y001575D01*
X000985Y001621D01*
X000995Y001667D01*
X001008Y001712D01*
X001026Y001755D01*
X001047Y001797D01*
X001071Y001837D01*
X001099Y001874D01*
X001130Y001909D01*
X001164Y001942D01*
X001200Y001971D01*
X001239Y001997D01*
X001280Y002020D01*
X001323Y002039D01*
X001367Y002055D01*
X001412Y002067D01*
X001458Y002075D01*
X001505Y002079D01*
X001551Y002079D01*
X001598Y002075D01*
X001644Y002067D01*
X001689Y002055D01*
X001733Y002039D01*
X001776Y002020D01*
X001817Y001997D01*
X001856Y001971D01*
X001892Y001942D01*
X001926Y001909D01*
X001957Y001874D01*
X001985Y001837D01*
X002009Y001797D01*
X002030Y001755D01*
X002048Y001712D01*
X002061Y001667D01*
X002071Y001621D01*
X002077Y001575D01*
X002079Y001528D01*
X002077Y001481D01*
X002071Y001435D01*
X002061Y001389D01*
X002048Y001344D01*
X002030Y001301D01*
X002009Y001259D01*
X001985Y001219D01*
X001957Y001182D01*
X001926Y001147D01*
X001892Y001114D01*
X001856Y001085D01*
X001817Y001059D01*
X001776Y001036D01*
X001733Y001017D01*
X001689Y001001D01*
X001644Y000989D01*
X001598Y000981D01*
X001551Y000977D01*
X001505Y000977D01*
X001458Y000981D01*
X001412Y000989D01*
X001367Y001001D01*
X001323Y001017D01*
X001280Y001036D01*
X001239Y001059D01*
X001200Y001085D01*
X001164Y001114D01*
X001130Y001147D01*
X001099Y001182D01*
X001071Y001219D01*
X001047Y001259D01*
X001026Y001301D01*
X001008Y001344D01*
X000995Y001389D01*
X000985Y001435D01*
X000979Y001481D01*
X000977Y001528D01*
X023812Y001528D02*
X023814Y001575D01*
X023820Y001621D01*
X023830Y001667D01*
X023843Y001712D01*
X023861Y001755D01*
X023882Y001797D01*
X023906Y001837D01*
X023934Y001874D01*
X023965Y001909D01*
X023999Y001942D01*
X024035Y001971D01*
X024074Y001997D01*
X024115Y002020D01*
X024158Y002039D01*
X024202Y002055D01*
X024247Y002067D01*
X024293Y002075D01*
X024340Y002079D01*
X024386Y002079D01*
X024433Y002075D01*
X024479Y002067D01*
X024524Y002055D01*
X024568Y002039D01*
X024611Y002020D01*
X024652Y001997D01*
X024691Y001971D01*
X024727Y001942D01*
X024761Y001909D01*
X024792Y001874D01*
X024820Y001837D01*
X024844Y001797D01*
X024865Y001755D01*
X024883Y001712D01*
X024896Y001667D01*
X024906Y001621D01*
X024912Y001575D01*
X024914Y001528D01*
X024912Y001481D01*
X024906Y001435D01*
X024896Y001389D01*
X024883Y001344D01*
X024865Y001301D01*
X024844Y001259D01*
X024820Y001219D01*
X024792Y001182D01*
X024761Y001147D01*
X024727Y001114D01*
X024691Y001085D01*
X024652Y001059D01*
X024611Y001036D01*
X024568Y001017D01*
X024524Y001001D01*
X024479Y000989D01*
X024433Y000981D01*
X024386Y000977D01*
X024340Y000977D01*
X024293Y000981D01*
X024247Y000989D01*
X024202Y001001D01*
X024158Y001017D01*
X024115Y001036D01*
X024074Y001059D01*
X024035Y001085D01*
X023999Y001114D01*
X023965Y001147D01*
X023934Y001182D01*
X023906Y001219D01*
X023882Y001259D01*
X023861Y001301D01*
X023843Y001344D01*
X023830Y001389D01*
X023820Y001435D01*
X023814Y001481D01*
X023812Y001528D01*
X023812Y020819D02*
X023814Y020866D01*
X023820Y020912D01*
X023830Y020958D01*
X023843Y021003D01*
X023861Y021046D01*
X023882Y021088D01*
X023906Y021128D01*
X023934Y021165D01*
X023965Y021200D01*
X023999Y021233D01*
X024035Y021262D01*
X024074Y021288D01*
X024115Y021311D01*
X024158Y021330D01*
X024202Y021346D01*
X024247Y021358D01*
X024293Y021366D01*
X024340Y021370D01*
X024386Y021370D01*
X024433Y021366D01*
X024479Y021358D01*
X024524Y021346D01*
X024568Y021330D01*
X024611Y021311D01*
X024652Y021288D01*
X024691Y021262D01*
X024727Y021233D01*
X024761Y021200D01*
X024792Y021165D01*
X024820Y021128D01*
X024844Y021088D01*
X024865Y021046D01*
X024883Y021003D01*
X024896Y020958D01*
X024906Y020912D01*
X024912Y020866D01*
X024914Y020819D01*
X024912Y020772D01*
X024906Y020726D01*
X024896Y020680D01*
X024883Y020635D01*
X024865Y020592D01*
X024844Y020550D01*
X024820Y020510D01*
X024792Y020473D01*
X024761Y020438D01*
X024727Y020405D01*
X024691Y020376D01*
X024652Y020350D01*
X024611Y020327D01*
X024568Y020308D01*
X024524Y020292D01*
X024479Y020280D01*
X024433Y020272D01*
X024386Y020268D01*
X024340Y020268D01*
X024293Y020272D01*
X024247Y020280D01*
X024202Y020292D01*
X024158Y020308D01*
X024115Y020327D01*
X024074Y020350D01*
X024035Y020376D01*
X023999Y020405D01*
X023965Y020438D01*
X023934Y020473D01*
X023906Y020510D01*
X023882Y020550D01*
X023861Y020592D01*
X023843Y020635D01*
X023830Y020680D01*
X023820Y020726D01*
X023814Y020772D01*
X023812Y020819D01*
X000977Y020819D02*
X000979Y020866D01*
X000985Y020912D01*
X000995Y020958D01*
X001008Y021003D01*
X001026Y021046D01*
X001047Y021088D01*
X001071Y021128D01*
X001099Y021165D01*
X001130Y021200D01*
X001164Y021233D01*
X001200Y021262D01*
X001239Y021288D01*
X001280Y021311D01*
X001323Y021330D01*
X001367Y021346D01*
X001412Y021358D01*
X001458Y021366D01*
X001505Y021370D01*
X001551Y021370D01*
X001598Y021366D01*
X001644Y021358D01*
X001689Y021346D01*
X001733Y021330D01*
X001776Y021311D01*
X001817Y021288D01*
X001856Y021262D01*
X001892Y021233D01*
X001926Y021200D01*
X001957Y021165D01*
X001985Y021128D01*
X002009Y021088D01*
X002030Y021046D01*
X002048Y021003D01*
X002061Y020958D01*
X002071Y020912D01*
X002077Y020866D01*
X002079Y020819D01*
X002077Y020772D01*
X002071Y020726D01*
X002061Y020680D01*
X002048Y020635D01*
X002030Y020592D01*
X002009Y020550D01*
X001985Y020510D01*
X001957Y020473D01*
X001926Y020438D01*
X001892Y020405D01*
X001856Y020376D01*
X001817Y020350D01*
X001776Y020327D01*
X001733Y020308D01*
X001689Y020292D01*
X001644Y020280D01*
X001598Y020272D01*
X001551Y020268D01*
X001505Y020268D01*
X001458Y020272D01*
X001412Y020280D01*
X001367Y020292D01*
X001323Y020308D01*
X001280Y020327D01*
X001239Y020350D01*
X001200Y020376D01*
X001164Y020405D01*
X001130Y020438D01*
X001099Y020473D01*
X001071Y020510D01*
X001047Y020550D01*
X001026Y020592D01*
X001008Y020635D01*
X000995Y020680D01*
X000985Y020726D01*
X000979Y020772D01*
X000977Y020819D01*
D11*
X004826Y017435D02*
X005011Y017435D01*
X005073Y017373D01*
X005073Y017250D01*
X005011Y017188D01*
X004826Y017188D01*
X004949Y017188D02*
X005073Y017065D01*
X005194Y017127D02*
X005256Y017065D01*
X005379Y017065D01*
X005441Y017127D01*
X005441Y017373D01*
X005379Y017435D01*
X005256Y017435D01*
X005194Y017373D01*
X005194Y017312D01*
X005256Y017250D01*
X005441Y017250D01*
X004826Y017065D02*
X004826Y017435D01*
X005935Y018738D02*
X006059Y018738D01*
X006121Y018800D01*
X006242Y018738D02*
X006489Y018985D01*
X006489Y019046D01*
X006427Y019108D01*
X006304Y019108D01*
X006242Y019046D01*
X006121Y019046D02*
X006059Y019108D01*
X005935Y019108D01*
X005874Y019046D01*
X005874Y018800D01*
X005935Y018738D01*
X006242Y018738D02*
X006489Y018738D01*
X007645Y017550D02*
X007645Y017303D01*
X007707Y017242D01*
X007830Y017242D01*
X007892Y017303D01*
X008014Y017303D02*
X008075Y017242D01*
X008199Y017242D01*
X008261Y017303D01*
X008261Y017365D01*
X008199Y017427D01*
X008137Y017427D01*
X008199Y017427D02*
X008261Y017489D01*
X008261Y017550D01*
X008199Y017612D01*
X008075Y017612D01*
X008014Y017550D01*
X007892Y017550D02*
X007830Y017612D01*
X007707Y017612D01*
X007645Y017550D01*
X004771Y016206D02*
X004771Y016082D01*
X004709Y016021D01*
X004585Y016021D02*
X004524Y016144D01*
X004524Y016206D01*
X004585Y016268D01*
X004709Y016268D01*
X004771Y016206D01*
X004585Y016021D02*
X004400Y016021D01*
X004400Y016268D01*
X004462Y015899D02*
X004585Y015899D01*
X004647Y015838D01*
X004647Y015652D01*
X004771Y015652D02*
X004400Y015652D01*
X004400Y015838D01*
X004462Y015899D01*
X004647Y015776D02*
X004771Y015899D01*
X004835Y015175D02*
X005017Y015175D01*
X005078Y015114D01*
X005078Y014993D01*
X005017Y014932D01*
X004835Y014932D01*
X004835Y014811D02*
X004835Y015175D01*
X005198Y015175D02*
X005198Y014871D01*
X005258Y014811D01*
X005380Y014811D01*
X005440Y014871D01*
X005440Y015175D01*
X005560Y015114D02*
X005560Y015053D01*
X005621Y014993D01*
X005742Y014993D01*
X005803Y014932D01*
X005803Y014871D01*
X005742Y014811D01*
X005621Y014811D01*
X005560Y014871D01*
X005600Y014702D02*
X005842Y014338D01*
X005842Y014702D01*
X005923Y014811D02*
X005923Y015175D01*
X005803Y015114D02*
X005742Y015175D01*
X005621Y015175D01*
X005560Y015114D01*
X005923Y014993D02*
X006165Y014993D01*
X006285Y014993D02*
X006528Y014993D01*
X006165Y015175D02*
X006165Y014811D01*
X005600Y014702D02*
X005600Y014338D01*
X005480Y014399D02*
X005480Y014642D01*
X005419Y014702D01*
X005298Y014702D01*
X005237Y014642D01*
X005237Y014399D01*
X005298Y014338D01*
X005419Y014338D01*
X005480Y014399D01*
X005117Y014702D02*
X004875Y014702D01*
X004755Y014702D02*
X004512Y014702D01*
X004392Y014702D02*
X004392Y014399D01*
X004332Y014338D01*
X004210Y014338D01*
X004150Y014399D01*
X004150Y014702D01*
X004171Y014811D02*
X004292Y014811D01*
X004353Y014871D01*
X004353Y015114D01*
X004292Y015175D01*
X004171Y015175D01*
X004110Y015114D01*
X004110Y014871D01*
X004171Y014811D01*
X004030Y014642D02*
X004030Y014581D01*
X003969Y014520D01*
X003787Y014520D01*
X003787Y014338D02*
X003969Y014338D01*
X004030Y014399D01*
X004030Y014460D01*
X003969Y014520D01*
X004030Y014642D02*
X003969Y014702D01*
X003787Y014702D01*
X003787Y014338D01*
X003869Y014811D02*
X003869Y015175D01*
X003748Y015175D02*
X003990Y015175D01*
X004633Y014702D02*
X004633Y014338D01*
X004996Y014338D02*
X004996Y014702D01*
X007880Y015222D02*
X008126Y015222D01*
X008248Y015222D02*
X008371Y015099D01*
X008495Y015222D01*
X008495Y014852D01*
X008616Y014852D02*
X008863Y014852D01*
X008740Y014852D02*
X008740Y015222D01*
X008616Y015099D01*
X008248Y015222D02*
X008248Y014852D01*
X008003Y014852D02*
X008003Y015222D01*
X009196Y013026D02*
X009381Y013026D01*
X009443Y012964D01*
X009443Y012841D01*
X009381Y012779D01*
X009196Y012779D01*
X009319Y012779D02*
X009443Y012655D01*
X009564Y012655D02*
X009811Y012655D01*
X009932Y012655D02*
X010179Y012655D01*
X010056Y012655D02*
X010056Y013026D01*
X009932Y012902D01*
X009687Y013026D02*
X009687Y012655D01*
X009564Y012902D02*
X009687Y013026D01*
X009196Y013026D02*
X009196Y012655D01*
X010967Y011215D02*
X011153Y011215D01*
X011214Y011153D01*
X011214Y011029D01*
X011153Y010968D01*
X010967Y010968D01*
X010967Y010844D02*
X010967Y011215D01*
X011091Y010968D02*
X011214Y010844D01*
X011336Y011029D02*
X011583Y011029D01*
X011521Y010844D02*
X011521Y011215D01*
X011336Y011029D01*
X012030Y010388D02*
X012216Y010388D01*
X012277Y010326D01*
X012277Y010203D01*
X012216Y010141D01*
X012030Y010141D01*
X012030Y010018D02*
X012030Y010388D01*
X012154Y010141D02*
X012277Y010018D01*
X012399Y010018D02*
X012646Y010018D01*
X012522Y010018D02*
X012522Y010388D01*
X012399Y010264D01*
X012767Y010326D02*
X012829Y010388D01*
X012952Y010388D01*
X013014Y010326D01*
X012767Y010079D01*
X012829Y010018D01*
X012952Y010018D01*
X013014Y010079D01*
X013014Y010326D01*
X012767Y010326D02*
X012767Y010079D01*
X014053Y010887D02*
X014053Y011134D01*
X014114Y011196D01*
X014238Y011196D01*
X014299Y011134D01*
X014299Y010887D01*
X014238Y010826D01*
X014114Y010826D01*
X014053Y010887D01*
X014176Y010949D02*
X014299Y010826D01*
X014421Y010826D02*
X014668Y010826D01*
X014544Y010826D02*
X014544Y011196D01*
X014421Y011073D01*
X014386Y009945D02*
X014262Y009945D01*
X014200Y009883D01*
X014200Y009636D01*
X014262Y009574D01*
X014386Y009574D01*
X014447Y009636D01*
X014569Y009760D02*
X014754Y009945D01*
X014754Y009574D01*
X014816Y009760D02*
X014569Y009760D01*
X014447Y009883D02*
X014386Y009945D01*
X011816Y007655D02*
X011695Y007655D01*
X011756Y007655D02*
X011756Y007291D01*
X011816Y007291D02*
X011695Y007291D01*
X011575Y007352D02*
X011575Y007412D01*
X011514Y007473D01*
X011393Y007473D01*
X011332Y007534D01*
X011332Y007594D01*
X011393Y007655D01*
X011514Y007655D01*
X011575Y007594D01*
X011575Y007352D02*
X011514Y007291D01*
X011393Y007291D01*
X011332Y007352D01*
X011213Y007352D02*
X011152Y007291D01*
X011031Y007291D01*
X010970Y007352D01*
X010970Y007594D01*
X011031Y007655D01*
X011152Y007655D01*
X011213Y007594D01*
X007037Y009023D02*
X006915Y009023D01*
X006976Y009023D02*
X006976Y009387D01*
X006915Y009387D02*
X007037Y009387D01*
X006795Y009327D02*
X006795Y009205D01*
X006735Y009145D01*
X006553Y009145D01*
X006433Y009145D02*
X006372Y009205D01*
X006251Y009205D01*
X006190Y009266D01*
X006190Y009327D01*
X006251Y009387D01*
X006372Y009387D01*
X006433Y009327D01*
X006553Y009387D02*
X006553Y009023D01*
X006433Y009084D02*
X006372Y009023D01*
X006251Y009023D01*
X006190Y009084D01*
X006070Y009023D02*
X006070Y009266D01*
X005949Y009387D01*
X005828Y009266D01*
X005828Y009023D01*
X005708Y009023D02*
X005586Y009145D01*
X005647Y009145D02*
X005465Y009145D01*
X005465Y009023D02*
X005465Y009387D01*
X005647Y009387D01*
X005708Y009327D01*
X005708Y009205D01*
X005647Y009145D01*
X005828Y009205D02*
X006070Y009205D01*
X006433Y009145D02*
X006433Y009084D01*
X006735Y009387D02*
X006795Y009327D01*
X006735Y009387D02*
X006553Y009387D01*
X005542Y008875D02*
X005542Y008511D01*
X005299Y008511D02*
X005299Y008875D01*
X005421Y008754D01*
X005542Y008875D01*
X005180Y008754D02*
X005180Y008511D01*
X005180Y008693D02*
X004937Y008693D01*
X004937Y008754D02*
X004937Y008511D01*
X004817Y008572D02*
X004756Y008511D01*
X004635Y008511D01*
X004574Y008572D01*
X004574Y008815D01*
X004635Y008875D01*
X004756Y008875D01*
X004817Y008815D01*
X004937Y008754D02*
X005058Y008875D01*
X005180Y008754D01*
X004922Y009023D02*
X004983Y009084D01*
X004983Y009327D01*
X004922Y009387D01*
X004801Y009387D01*
X004740Y009327D01*
X004740Y009084D01*
X004801Y009023D01*
X004922Y009023D01*
X004499Y009023D02*
X004499Y009387D01*
X004378Y009387D02*
X004620Y009387D01*
X004894Y010679D02*
X004832Y010741D01*
X004832Y010988D01*
X004894Y011049D01*
X005017Y011049D01*
X005079Y010988D01*
X005079Y010741D01*
X005017Y010679D01*
X004894Y010679D01*
X004956Y010803D02*
X005079Y010679D01*
X005200Y010741D02*
X005262Y010679D01*
X005386Y010679D01*
X005447Y010741D01*
X005447Y010803D01*
X005386Y010864D01*
X005324Y010864D01*
X005386Y010864D02*
X005447Y010926D01*
X005447Y010988D01*
X005386Y011049D01*
X005262Y011049D01*
X005200Y010988D01*
X005160Y011986D02*
X005160Y012356D01*
X005036Y012233D01*
X004915Y012295D02*
X004915Y012171D01*
X004853Y012110D01*
X004668Y012110D01*
X004792Y012110D02*
X004915Y011986D01*
X005036Y011986D02*
X005283Y011986D01*
X005405Y011986D02*
X005652Y012233D01*
X005652Y012295D01*
X005590Y012356D01*
X005466Y012356D01*
X005405Y012295D01*
X004915Y012295D02*
X004853Y012356D01*
X004668Y012356D01*
X004668Y011986D01*
X005405Y011986D02*
X005652Y011986D01*
X015295Y015005D02*
X015357Y014944D01*
X015480Y014944D01*
X015542Y015005D01*
X015542Y015314D01*
X015663Y015252D02*
X015725Y015314D01*
X015848Y015314D01*
X015910Y015252D01*
X015910Y015191D01*
X015848Y015129D01*
X015910Y015067D01*
X015910Y015005D01*
X015848Y014944D01*
X015725Y014944D01*
X015663Y015005D01*
X015787Y015129D02*
X015848Y015129D01*
X015295Y015005D02*
X015295Y015314D01*
X017944Y015270D02*
X017944Y015393D01*
X018005Y015455D01*
X018067Y015455D01*
X018129Y015393D01*
X018190Y015455D01*
X018252Y015455D01*
X018314Y015393D01*
X018314Y015270D01*
X018252Y015208D01*
X018314Y015086D02*
X018314Y014840D01*
X018314Y014718D02*
X018190Y014595D01*
X018190Y014656D02*
X018190Y014471D01*
X018314Y014471D02*
X017944Y014471D01*
X017944Y014656D01*
X018005Y014718D01*
X018129Y014718D01*
X018190Y014656D01*
X018067Y014840D02*
X017944Y014963D01*
X018314Y014963D01*
X018005Y015208D02*
X017944Y015270D01*
X018129Y015331D02*
X018129Y015393D01*
X019007Y015354D02*
X019192Y015169D01*
X019192Y015415D01*
X019377Y015354D02*
X019007Y015354D01*
X019377Y015047D02*
X019377Y014800D01*
X019377Y014679D02*
X019253Y014555D01*
X019253Y014617D02*
X019253Y014432D01*
X019377Y014432D02*
X019007Y014432D01*
X019007Y014617D01*
X019068Y014679D01*
X019192Y014679D01*
X019253Y014617D01*
X019130Y014800D02*
X019007Y014924D01*
X019377Y014924D01*
X020030Y014924D02*
X020401Y014924D01*
X020401Y015047D02*
X020401Y014800D01*
X020401Y014679D02*
X020277Y014555D01*
X020277Y014617D02*
X020277Y014432D01*
X020401Y014432D02*
X020030Y014432D01*
X020030Y014617D01*
X020092Y014679D01*
X020215Y014679D01*
X020277Y014617D01*
X020154Y014800D02*
X020030Y014924D01*
X020030Y015169D02*
X020215Y015169D01*
X020154Y015292D01*
X020154Y015354D01*
X020215Y015415D01*
X020339Y015415D01*
X020401Y015354D01*
X020401Y015230D01*
X020339Y015169D01*
X020030Y015169D02*
X020030Y015415D01*
X019785Y015877D02*
X019662Y015877D01*
X019600Y015939D01*
X019478Y015939D02*
X019417Y015877D01*
X019293Y015877D01*
X019232Y015939D01*
X019232Y016186D01*
X019293Y016248D01*
X019417Y016248D01*
X019478Y016186D01*
X019600Y016248D02*
X019600Y016062D01*
X019723Y016124D01*
X019785Y016124D01*
X019847Y016062D01*
X019847Y015939D01*
X019785Y015877D01*
X019847Y016248D02*
X019600Y016248D01*
X019585Y016566D02*
X019585Y016628D01*
X019832Y016875D01*
X019832Y016936D01*
X019585Y016936D01*
X019463Y016875D02*
X019463Y016751D01*
X019402Y016689D01*
X019217Y016689D01*
X019340Y016689D02*
X019463Y016566D01*
X019217Y016566D02*
X019217Y016936D01*
X019402Y016936D01*
X019463Y016875D01*
X019463Y017275D02*
X019340Y017398D01*
X019402Y017398D02*
X019217Y017398D01*
X019217Y017275D02*
X019217Y017645D01*
X019402Y017645D01*
X019463Y017583D01*
X019463Y017460D01*
X019402Y017398D01*
X019585Y017336D02*
X019647Y017275D01*
X019770Y017275D01*
X019832Y017336D01*
X019832Y017398D01*
X019770Y017460D01*
X019585Y017460D01*
X019585Y017336D01*
X019585Y017460D02*
X019708Y017583D01*
X019832Y017645D01*
X019746Y018043D02*
X019807Y018104D01*
X019807Y018166D01*
X019746Y018228D01*
X019560Y018228D01*
X019560Y018104D01*
X019622Y018043D01*
X019746Y018043D01*
X019560Y018228D02*
X019684Y018351D01*
X019807Y018413D01*
X019731Y018771D02*
X019607Y018771D01*
X019546Y018832D01*
X019546Y018894D01*
X019607Y018956D01*
X019731Y018956D01*
X019792Y018894D01*
X019792Y018832D01*
X019731Y018771D01*
X019731Y018956D02*
X019792Y019018D01*
X019792Y019079D01*
X019731Y019141D01*
X019607Y019141D01*
X019546Y019079D01*
X019546Y019018D01*
X019607Y018956D01*
X019424Y018956D02*
X019362Y018894D01*
X019177Y018894D01*
X019177Y018771D02*
X019177Y019141D01*
X019362Y019141D01*
X019424Y019079D01*
X019424Y018956D01*
X019301Y018894D02*
X019424Y018771D01*
X019377Y018413D02*
X019254Y018413D01*
X019192Y018351D01*
X019192Y018104D01*
X019254Y018043D01*
X019377Y018043D01*
X019439Y018104D01*
X019439Y018351D02*
X019377Y018413D01*
X022488Y014466D02*
X022731Y014466D01*
X022609Y014466D02*
X022609Y014102D01*
X022567Y013994D02*
X022567Y013630D01*
X022809Y013630D01*
X022929Y013630D02*
X022929Y013994D01*
X023172Y013630D01*
X023172Y013994D01*
X023292Y013933D02*
X023292Y013690D01*
X023352Y013630D01*
X023474Y013630D01*
X023534Y013690D01*
X023654Y013690D02*
X023715Y013630D01*
X023836Y013630D01*
X023897Y013690D01*
X023897Y013933D01*
X023836Y013994D01*
X023715Y013994D01*
X023654Y013933D01*
X023654Y013690D01*
X023534Y013933D02*
X023474Y013994D01*
X023352Y013994D01*
X023292Y013933D01*
X023093Y014163D02*
X023093Y014405D01*
X023032Y014466D01*
X022911Y014466D01*
X022850Y014405D01*
X022850Y014163D01*
X022911Y014102D01*
X023032Y014102D01*
X023093Y014163D01*
X022809Y013994D02*
X022567Y013994D01*
X022567Y013812D02*
X022688Y013812D01*
X023575Y014102D02*
X023575Y014466D01*
X023757Y014466D01*
X023818Y014405D01*
X023818Y014284D01*
X023757Y014223D01*
X023575Y014223D01*
X023697Y014223D02*
X023818Y014102D01*
X023938Y014163D02*
X023999Y014102D01*
X024120Y014102D01*
X024181Y014163D01*
X024181Y014405D01*
X024120Y014466D01*
X023999Y014466D01*
X023938Y014405D01*
X023938Y014163D01*
X024017Y013994D02*
X024199Y013994D01*
X024259Y013933D01*
X024259Y013690D01*
X024199Y013630D01*
X024017Y013630D01*
X024017Y013994D01*
X024379Y013994D02*
X024379Y013630D01*
X024622Y013630D01*
X024742Y013630D02*
X024742Y013994D01*
X024924Y013994D01*
X024984Y013933D01*
X024984Y013812D01*
X024924Y013751D01*
X024742Y013751D01*
X024863Y013751D02*
X024984Y013630D01*
X024500Y013812D02*
X024379Y013812D01*
X024379Y013994D02*
X024622Y013994D01*
X024663Y014102D02*
X024663Y014345D01*
X024784Y014466D01*
X024906Y014345D01*
X024906Y014102D01*
X025025Y014102D02*
X025025Y014466D01*
X025207Y014466D01*
X025268Y014405D01*
X025268Y014284D01*
X025207Y014223D01*
X025025Y014223D01*
X025147Y014223D02*
X025268Y014102D01*
X025509Y014102D02*
X025509Y014284D01*
X025631Y014405D01*
X025631Y014466D01*
X025509Y014284D02*
X025388Y014405D01*
X025388Y014466D01*
X024906Y014284D02*
X024663Y014284D01*
X024543Y014466D02*
X024300Y014466D01*
X024422Y014466D02*
X024422Y014102D01*
X024474Y012852D02*
X024656Y012852D01*
X024717Y012791D01*
X024717Y012670D01*
X024656Y012609D01*
X024474Y012609D01*
X024474Y012488D02*
X024474Y012852D01*
X024354Y012852D02*
X024354Y012488D01*
X024233Y012609D01*
X024112Y012488D01*
X024112Y012852D01*
X023992Y012791D02*
X023992Y012670D01*
X023931Y012609D01*
X023749Y012609D01*
X023749Y012488D02*
X023749Y012852D01*
X023931Y012852D01*
X023992Y012791D01*
X024596Y012609D02*
X024717Y012488D01*
X025199Y012488D02*
X025321Y012488D01*
X025260Y012488D02*
X025260Y012852D01*
X025199Y012852D02*
X025321Y012852D01*
X025441Y012852D02*
X025684Y012488D01*
X025684Y012852D01*
X025441Y012852D02*
X025441Y012488D01*
X023267Y012609D02*
X023267Y012852D01*
X023024Y012852D02*
X023024Y012609D01*
X023146Y012488D01*
X023267Y012609D01*
X022904Y012488D02*
X022662Y012488D01*
X022904Y012731D01*
X022904Y012791D01*
X022844Y012852D01*
X022722Y012852D01*
X022662Y012791D01*
X022421Y012852D02*
X022299Y012731D01*
X022179Y012670D02*
X021937Y012670D01*
X022058Y012791D02*
X022058Y012549D01*
X022299Y012488D02*
X022542Y012488D01*
X022421Y012488D02*
X022421Y012852D01*
X018491Y009315D02*
X018491Y008945D01*
X018368Y008945D02*
X018615Y008945D01*
X018368Y009191D02*
X018491Y009315D01*
X018247Y008945D02*
X018000Y008945D01*
X018000Y009315D01*
X018614Y008608D02*
X018799Y008608D01*
X018861Y008546D01*
X018861Y008300D01*
X018799Y008238D01*
X018614Y008238D01*
X018614Y008608D01*
X018982Y008485D02*
X019106Y008608D01*
X019106Y008238D01*
X019229Y008238D02*
X018982Y008238D01*
X024015Y004719D02*
X024015Y004472D01*
X024077Y004411D01*
X024200Y004411D01*
X024262Y004472D01*
X024383Y004472D02*
X024383Y004411D01*
X024383Y004472D02*
X024630Y004719D01*
X024630Y004781D01*
X024383Y004781D01*
X024262Y004719D02*
X024200Y004781D01*
X024077Y004781D01*
X024015Y004719D01*
X019689Y000883D02*
X019566Y000822D01*
X019442Y000698D01*
X019628Y000698D01*
X019689Y000636D01*
X019689Y000575D01*
X019628Y000513D01*
X019504Y000513D01*
X019442Y000575D01*
X019442Y000698D01*
X019321Y000575D02*
X019321Y000883D01*
X019074Y000883D02*
X019074Y000575D01*
X019136Y000513D01*
X019259Y000513D01*
X019321Y000575D01*
X011395Y001128D02*
X011335Y001067D01*
X011274Y001067D01*
X011395Y001128D02*
X011395Y001431D01*
X011213Y001431D01*
X011153Y001371D01*
X011153Y001249D01*
X011213Y001189D01*
X011395Y001189D01*
X011033Y001431D02*
X010972Y001431D01*
X010851Y001310D01*
X010851Y001189D02*
X010851Y001431D01*
X010731Y001371D02*
X010670Y001431D01*
X010549Y001431D01*
X010488Y001371D01*
X010488Y001249D01*
X010549Y001189D01*
X010670Y001189D01*
X010731Y001249D01*
X010731Y001371D01*
X010368Y001249D02*
X010368Y001189D01*
X010307Y001189D01*
X010307Y001249D01*
X010368Y001249D01*
X010187Y001189D02*
X010005Y001310D01*
X010187Y001431D01*
X010005Y001553D02*
X010005Y001189D01*
X009885Y001189D02*
X009703Y001189D01*
X009642Y001249D01*
X009642Y001371D01*
X009703Y001431D01*
X009885Y001431D01*
X009461Y001431D02*
X009461Y001189D01*
X009401Y001189D02*
X009522Y001189D01*
X009281Y001249D02*
X009281Y001371D01*
X009220Y001431D01*
X009038Y001431D01*
X009038Y001067D01*
X009038Y001189D02*
X009220Y001189D01*
X009281Y001249D01*
X009401Y001431D02*
X009461Y001431D01*
X009461Y001553D02*
X009461Y001613D01*
X008918Y001371D02*
X008918Y001310D01*
X008676Y001310D01*
X008676Y001249D02*
X008676Y001371D01*
X008736Y001431D01*
X008858Y001431D01*
X008918Y001371D01*
X008858Y001189D02*
X008736Y001189D01*
X008676Y001249D01*
X008555Y001431D02*
X008495Y001431D01*
X008373Y001310D01*
X008373Y001189D02*
X008373Y001431D01*
X008192Y001431D02*
X008192Y001189D01*
X008132Y001189D02*
X008253Y001189D01*
X008192Y001431D02*
X008132Y001431D01*
X008011Y001371D02*
X007890Y001371D01*
X007951Y001492D02*
X008011Y001553D01*
X007951Y001492D02*
X007951Y001189D01*
X007769Y001189D02*
X007709Y001189D01*
X007709Y001249D01*
X007769Y001249D01*
X007769Y001189D01*
X007589Y001189D02*
X007589Y001371D01*
X007528Y001431D01*
X007407Y001431D01*
X007407Y001310D02*
X007346Y001249D01*
X007407Y001189D01*
X007589Y001189D01*
X007589Y001310D02*
X007407Y001310D01*
X007226Y001431D02*
X007105Y001431D01*
X007165Y001492D02*
X007165Y001249D01*
X007226Y001189D01*
X006984Y001189D02*
X006863Y001189D01*
X006924Y001189D02*
X006924Y001553D01*
X006863Y001553D01*
X006682Y001431D02*
X006743Y001371D01*
X006743Y001310D01*
X006500Y001310D01*
X006500Y001249D02*
X006500Y001371D01*
X006561Y001431D01*
X006682Y001431D01*
X006682Y001189D02*
X006561Y001189D01*
X006500Y001249D01*
X006381Y001189D02*
X006381Y001553D01*
X006381Y001431D02*
X006199Y001431D01*
X006138Y001371D01*
X006138Y001249D01*
X006199Y001189D01*
X006381Y001189D01*
X006380Y000923D02*
X006562Y000923D01*
X006622Y000862D01*
X006622Y000741D01*
X006562Y000680D01*
X006380Y000680D01*
X006380Y000559D02*
X006380Y000923D01*
X006260Y000862D02*
X006199Y000923D01*
X006017Y000923D01*
X006017Y000559D01*
X005897Y000559D02*
X005655Y000559D01*
X005655Y000923D01*
X005897Y000923D01*
X005776Y000741D02*
X005655Y000741D01*
X006017Y000680D02*
X006199Y000680D01*
X006260Y000741D01*
X006260Y000862D01*
X006138Y000680D02*
X006260Y000559D01*
X006742Y000559D02*
X006863Y000559D01*
X006803Y000559D02*
X006803Y000923D01*
X006863Y000923D02*
X006742Y000923D01*
X006984Y000923D02*
X006984Y000559D01*
X006984Y000741D02*
X007226Y000741D01*
X007346Y000741D02*
X007589Y000741D01*
X007589Y000801D02*
X007589Y000559D01*
X007830Y000559D02*
X007830Y000923D01*
X007709Y000923D02*
X007951Y000923D01*
X008071Y000862D02*
X008132Y000923D01*
X008253Y000923D01*
X008314Y000862D01*
X008071Y000619D01*
X008132Y000559D01*
X008253Y000559D01*
X008314Y000619D01*
X008314Y000862D01*
X008434Y000801D02*
X008555Y000923D01*
X008555Y000559D01*
X008434Y000559D02*
X008677Y000559D01*
X008071Y000619D02*
X008071Y000862D01*
X007589Y000801D02*
X007468Y000923D01*
X007346Y000801D01*
X007346Y000559D01*
X007226Y000559D02*
X007226Y000923D01*
X008192Y001553D02*
X008192Y001613D01*
X006018Y001553D02*
X005775Y001189D01*
X005413Y001189D02*
X005656Y001553D01*
X005292Y001431D02*
X005292Y001371D01*
X005232Y001371D01*
X005232Y001431D01*
X005292Y001431D01*
X005292Y001249D02*
X005292Y001189D01*
X005232Y001189D01*
X005232Y001249D01*
X005292Y001249D01*
X005112Y001249D02*
X005112Y001371D01*
X005051Y001431D01*
X004869Y001431D01*
X004869Y001067D01*
X004869Y001189D02*
X005051Y001189D01*
X005112Y001249D01*
X004991Y000923D02*
X004991Y000559D01*
X004748Y000923D01*
X004748Y000559D01*
X004386Y000559D02*
X004628Y000923D01*
X004749Y001189D02*
X004688Y001249D01*
X004688Y001492D01*
X004627Y001431D02*
X004749Y001431D01*
X004507Y001431D02*
X004386Y001431D01*
X004446Y001492D02*
X004446Y001249D01*
X004507Y001189D01*
X004266Y001189D02*
X004266Y001371D01*
X004205Y001431D01*
X004084Y001431D01*
X004023Y001371D01*
X004023Y001553D02*
X004023Y001189D01*
X004023Y000923D02*
X004205Y000923D01*
X004266Y000862D01*
X004266Y000741D01*
X004205Y000680D01*
X004023Y000680D01*
X004023Y000559D02*
X004023Y000923D01*
X005111Y000801D02*
X005111Y000741D01*
X005171Y000741D01*
X005171Y000801D01*
X005111Y000801D01*
X005111Y000619D02*
X005111Y000559D01*
X005171Y000559D01*
X005171Y000619D01*
X005111Y000619D01*
D12*
X001147Y004666D02*
X000964Y004666D01*
X000918Y004712D01*
X000918Y004804D01*
X000964Y004849D01*
X001147Y004849D01*
X001193Y004804D01*
X001193Y004712D01*
X001147Y004666D01*
X001361Y004894D02*
X001636Y004894D01*
X001636Y004985D02*
X001636Y004802D01*
X001590Y005074D02*
X001636Y005120D01*
X001636Y005211D01*
X001590Y005257D01*
X001407Y005257D01*
X001361Y005211D01*
X001361Y005120D01*
X001407Y005074D01*
X001590Y005074D01*
X001636Y005345D02*
X001361Y005345D01*
X001636Y005529D01*
X001361Y005529D01*
X001193Y005527D02*
X001193Y005619D01*
X001147Y005665D01*
X001102Y005665D01*
X001056Y005619D01*
X001056Y005527D01*
X001010Y005481D01*
X000964Y005481D01*
X000918Y005527D01*
X000918Y005619D01*
X000964Y005665D01*
X000918Y005755D02*
X000918Y005846D01*
X000918Y005800D02*
X001193Y005800D01*
X001193Y005755D02*
X001193Y005846D01*
X001193Y005935D02*
X000918Y005935D01*
X001056Y005935D02*
X001056Y006118D01*
X001193Y006118D02*
X000918Y006118D01*
X000750Y006163D02*
X000705Y006209D01*
X000521Y006209D01*
X000475Y006163D01*
X000475Y006071D01*
X000521Y006025D01*
X000705Y006025D01*
X000750Y006071D01*
X000750Y006163D01*
X000705Y006297D02*
X000750Y006343D01*
X000750Y006435D01*
X000705Y006481D01*
X000659Y006481D01*
X000613Y006435D01*
X000613Y006343D01*
X000567Y006297D01*
X000521Y006297D01*
X000475Y006343D01*
X000475Y006435D01*
X000521Y006481D01*
X000475Y006842D02*
X000475Y006934D01*
X000475Y006888D02*
X000750Y006888D01*
X000750Y006934D02*
X000750Y006842D01*
X000918Y006842D02*
X001193Y006842D01*
X001193Y006934D02*
X001193Y006750D01*
X001361Y006753D02*
X001407Y006753D01*
X001407Y006707D01*
X001361Y006707D01*
X001361Y006753D01*
X001407Y006841D02*
X001499Y006841D01*
X001499Y006933D01*
X001590Y007025D02*
X001407Y007025D01*
X001361Y006979D01*
X001361Y006887D01*
X001407Y006841D01*
X001499Y006753D02*
X001544Y006753D01*
X001544Y006707D01*
X001499Y006707D01*
X001499Y006753D01*
X001590Y006841D02*
X001636Y006887D01*
X001636Y006979D01*
X001590Y007025D01*
X001636Y007113D02*
X001361Y007113D01*
X001636Y007296D01*
X001361Y007296D01*
X001361Y007386D02*
X001361Y007478D01*
X001361Y007432D02*
X001636Y007432D01*
X001636Y007478D02*
X001636Y007386D01*
X001636Y007566D02*
X001361Y007566D01*
X001636Y007750D01*
X001361Y007750D01*
X001361Y007838D02*
X001453Y007930D01*
X001453Y007884D02*
X001453Y008021D01*
X001361Y008021D02*
X001636Y008021D01*
X001636Y007884D01*
X001590Y007838D01*
X001499Y007838D01*
X001453Y007884D01*
X001499Y008110D02*
X001499Y008293D01*
X001544Y008293D02*
X001636Y008201D01*
X001544Y008110D01*
X001361Y008110D01*
X001193Y008156D02*
X001147Y008110D01*
X000964Y008110D01*
X000918Y008156D01*
X000918Y008247D01*
X000964Y008293D01*
X001147Y008293D01*
X001193Y008247D01*
X001193Y008156D01*
X001193Y008021D02*
X000918Y007838D01*
X001193Y007838D01*
X001193Y007750D02*
X000918Y007750D01*
X000750Y007750D02*
X000475Y007750D01*
X000613Y007750D02*
X000613Y007566D01*
X000750Y007566D02*
X000475Y007566D01*
X000475Y007478D02*
X000475Y007340D01*
X000521Y007294D01*
X000705Y007294D01*
X000750Y007340D01*
X000750Y007478D01*
X000475Y007478D01*
X000475Y007206D02*
X000750Y007206D01*
X000659Y007114D01*
X000750Y007022D01*
X000475Y007022D01*
X000918Y007068D02*
X000918Y007160D01*
X000964Y007206D01*
X001147Y007206D01*
X001193Y007160D01*
X001193Y007068D01*
X001147Y007022D01*
X000964Y007022D02*
X000918Y007068D01*
X000918Y007294D02*
X000918Y007478D01*
X001193Y007478D01*
X001193Y007294D01*
X001056Y007386D02*
X001056Y007478D01*
X001193Y007566D02*
X000918Y007566D01*
X001193Y007750D01*
X001193Y008021D02*
X000918Y008021D01*
X000750Y008110D02*
X000475Y008110D01*
X000750Y008293D01*
X000475Y008293D01*
X000475Y008382D02*
X000659Y008382D01*
X000750Y008473D01*
X000659Y008565D01*
X000475Y008565D01*
X000613Y008565D02*
X000613Y008382D01*
X000918Y008427D02*
X000918Y008519D01*
X000964Y008565D01*
X001147Y008565D01*
X001193Y008519D01*
X001193Y008427D01*
X001147Y008382D01*
X000964Y008382D02*
X000918Y008427D01*
X001361Y008382D02*
X001636Y008382D01*
X001544Y008293D02*
X001361Y008293D01*
X001361Y008382D02*
X001453Y008473D01*
X001361Y008565D01*
X001636Y008565D01*
X001193Y006390D02*
X001193Y006206D01*
X001193Y006298D02*
X000918Y006298D01*
X000750Y005937D02*
X000521Y005937D01*
X000475Y005891D01*
X000475Y005799D01*
X000521Y005753D01*
X000750Y005753D01*
X000750Y005665D02*
X000750Y005527D01*
X000705Y005481D01*
X000613Y005481D01*
X000567Y005527D01*
X000567Y005665D01*
X000567Y005573D02*
X000475Y005481D01*
X000521Y005393D02*
X000475Y005347D01*
X000475Y005255D01*
X000521Y005210D01*
X000475Y005121D02*
X000475Y004938D01*
X000475Y004849D02*
X000521Y004849D01*
X000613Y004849D02*
X000796Y004849D01*
X000750Y004938D02*
X000750Y005121D01*
X000475Y005121D01*
X000613Y005121D02*
X000613Y005029D01*
X000705Y005210D02*
X000750Y005255D01*
X000750Y005347D01*
X000705Y005393D01*
X000521Y005393D01*
X000475Y005665D02*
X000750Y005665D01*
X001147Y005481D02*
X001193Y005527D01*
X001193Y005121D02*
X001193Y004938D01*
X001193Y005029D02*
X000918Y005029D01*
X001407Y005889D02*
X001590Y005889D01*
X001636Y005935D01*
X001636Y006027D01*
X001590Y006073D01*
X001407Y006073D01*
X001361Y006027D01*
X001361Y005935D01*
X001407Y005889D01*
X001407Y006161D02*
X001590Y006161D01*
X001636Y006207D01*
X001636Y006345D01*
X001361Y006345D01*
X001361Y006207D01*
X001407Y006161D01*
X021227Y010121D02*
X021410Y010121D01*
X021319Y010212D02*
X021319Y010029D01*
X021249Y010711D02*
X021433Y010711D01*
X021479Y010757D01*
X021479Y010849D01*
X021433Y010895D01*
X021341Y010895D01*
X021341Y010803D01*
X021249Y010711D02*
X021203Y010757D01*
X021203Y010849D01*
X021249Y010895D01*
X021203Y010983D02*
X021479Y011167D01*
X021203Y011167D01*
X021203Y011255D02*
X021203Y011393D01*
X021249Y011439D01*
X021433Y011439D01*
X021479Y011393D01*
X021479Y011255D01*
X021203Y011255D01*
X021203Y010983D02*
X021479Y010983D01*
D13*
X021668Y012086D02*
X021547Y012207D01*
X021547Y012450D01*
X021911Y012450D01*
X022032Y012328D01*
X022032Y012207D01*
X021911Y012086D01*
X021668Y012086D01*
X021547Y012450D02*
X021789Y012692D01*
X022032Y012814D01*
X021307Y012814D02*
X021064Y012814D01*
X021186Y012814D02*
X021186Y012207D01*
X021064Y012086D01*
X020943Y012086D01*
X020822Y012207D01*
X020924Y013241D02*
X020424Y013241D01*
X020174Y013491D01*
X019924Y013241D01*
X019424Y013241D01*
X019174Y013491D01*
X018924Y013241D01*
X018424Y013241D01*
X018174Y013491D01*
X017924Y013241D01*
X017424Y013241D01*
X017174Y013491D01*
X016924Y013241D01*
X016424Y013241D01*
X016174Y013491D01*
X015924Y013241D01*
X015424Y013241D01*
X015174Y013491D01*
X014924Y013241D01*
X014424Y013241D01*
X014174Y013491D01*
X013924Y013241D01*
X013424Y013241D01*
X013174Y013491D01*
X012924Y013241D01*
X012424Y013241D01*
X012174Y013491D01*
X011924Y013241D01*
X011424Y013241D01*
X011174Y013491D01*
X010924Y013241D01*
X010424Y013241D01*
X010174Y013491D01*
X009924Y013241D01*
X009424Y013241D01*
X009174Y013491D01*
X008924Y013241D01*
X008424Y013241D01*
X008174Y013491D01*
X007924Y013241D01*
X007424Y013241D01*
X007174Y013491D01*
X006924Y013241D01*
X006424Y013241D01*
X006174Y013491D01*
X005924Y013241D01*
X005424Y013241D01*
X005174Y013491D01*
X004924Y013241D01*
X004424Y013241D01*
X004174Y013491D01*
X003924Y013241D01*
X003424Y013241D01*
X003174Y013491D01*
X003174Y013991D01*
X003424Y014241D01*
X003924Y014241D01*
X004174Y013991D01*
X004424Y014241D01*
X004924Y014241D01*
X005174Y013991D01*
X005424Y014241D01*
X005924Y014241D01*
X006174Y013991D01*
X006424Y014241D01*
X006924Y014241D01*
X007174Y013991D01*
X007424Y014241D01*
X007924Y014241D01*
X008174Y013991D01*
X008424Y014241D01*
X008924Y014241D01*
X009174Y013991D01*
X009424Y014241D01*
X009924Y014241D01*
X010174Y013991D01*
X010424Y014241D01*
X010924Y014241D01*
X011174Y013991D01*
X011424Y014241D01*
X011924Y014241D01*
X012174Y013991D01*
X012424Y014241D01*
X012924Y014241D01*
X013174Y013991D01*
X013424Y014241D01*
X013924Y014241D01*
X014174Y013991D01*
X014424Y014241D01*
X014924Y014241D01*
X015174Y013991D01*
X015424Y014241D01*
X015924Y014241D01*
X016174Y013991D01*
X016424Y014241D01*
X016924Y014241D01*
X017174Y013991D01*
X017424Y014241D01*
X017924Y014241D01*
X018174Y013991D01*
X018424Y014241D01*
X018924Y014241D01*
X019174Y013991D01*
X019424Y014241D01*
X019924Y014241D01*
X020174Y013991D01*
X020424Y014241D01*
X020924Y014241D01*
X021174Y013991D01*
X021174Y013491D01*
X020924Y013241D01*
X021416Y013660D02*
X021537Y013660D01*
X021658Y013782D01*
X021658Y014388D01*
X021537Y014388D02*
X021780Y014388D01*
X022019Y014267D02*
X022141Y014388D01*
X022383Y014388D01*
X022505Y014267D01*
X022505Y014146D01*
X022019Y013660D01*
X022505Y013660D01*
X021416Y013660D02*
X021294Y013782D01*
X020937Y014835D02*
X020937Y015071D01*
X020465Y015071D02*
X020465Y014835D01*
X019914Y014874D02*
X019914Y015111D01*
X019441Y015111D02*
X019441Y014874D01*
X018930Y014835D02*
X018930Y015071D01*
X018457Y015071D02*
X018457Y014835D01*
X020504Y015780D02*
X020741Y015780D01*
X020741Y016252D02*
X020504Y016252D01*
X020504Y016449D02*
X020741Y016449D01*
X020741Y016922D02*
X020504Y016922D01*
X020504Y017237D02*
X020741Y017237D01*
X020741Y017709D02*
X020504Y017709D01*
X020504Y018024D02*
X020741Y018024D01*
X020741Y018496D02*
X020504Y018496D01*
X020504Y018772D02*
X020741Y018772D01*
X020741Y019244D02*
X020504Y019244D01*
X020695Y019819D02*
X020195Y019819D01*
X019945Y020069D01*
X019695Y019819D01*
X019195Y019819D01*
X018945Y020069D01*
X018695Y019819D01*
X018195Y019819D01*
X017945Y020069D01*
X017695Y019819D01*
X017195Y019819D01*
X016945Y020069D01*
X016695Y019819D01*
X016195Y019819D01*
X015945Y020069D01*
X015695Y019819D01*
X015195Y019819D01*
X014945Y020069D01*
X014695Y019819D01*
X014195Y019819D01*
X013945Y020069D01*
X013695Y019819D01*
X013195Y019819D01*
X012945Y020069D01*
X012695Y019819D01*
X012195Y019819D01*
X011945Y020069D01*
X011695Y019819D01*
X011195Y019819D01*
X010945Y020069D01*
X010695Y019819D01*
X010195Y019819D01*
X009945Y020069D01*
X009695Y019819D01*
X009195Y019819D01*
X008945Y020069D01*
X008695Y019819D01*
X008195Y019819D01*
X007945Y020069D01*
X007695Y019819D01*
X007195Y019819D01*
X006945Y020069D01*
X006695Y019819D01*
X006195Y019819D01*
X005945Y020069D01*
X005695Y019819D01*
X005195Y019819D01*
X004945Y020069D01*
X004695Y019819D01*
X004195Y019819D01*
X003945Y020069D01*
X003695Y019819D01*
X003195Y019819D01*
X002945Y020069D01*
X002945Y021569D01*
X003195Y021819D01*
X003695Y021819D01*
X003945Y021569D01*
X004195Y021819D01*
X004695Y021819D01*
X004945Y021569D01*
X005195Y021819D01*
X005695Y021819D01*
X005945Y021569D01*
X006195Y021819D01*
X006695Y021819D01*
X006945Y021569D01*
X007195Y021819D01*
X007695Y021819D01*
X007945Y021569D01*
X008195Y021819D01*
X008695Y021819D01*
X008945Y021569D01*
X009195Y021819D01*
X009695Y021819D01*
X009945Y021569D01*
X010195Y021819D01*
X010695Y021819D01*
X010945Y021569D01*
X011195Y021819D01*
X011695Y021819D01*
X011945Y021569D01*
X012195Y021819D01*
X012695Y021819D01*
X012945Y021569D01*
X013195Y021819D01*
X013695Y021819D01*
X013945Y021569D01*
X014195Y021819D01*
X014695Y021819D01*
X014945Y021569D01*
X015195Y021819D01*
X015695Y021819D01*
X015945Y021569D01*
X016195Y021819D01*
X016695Y021819D01*
X016945Y021569D01*
X017195Y021819D01*
X017695Y021819D01*
X017945Y021569D01*
X018195Y021819D01*
X018695Y021819D01*
X018945Y021569D01*
X019195Y021819D01*
X019695Y021819D01*
X019945Y021569D01*
X020195Y021819D01*
X020695Y021819D01*
X020945Y021569D01*
X021195Y021819D01*
X021695Y021819D01*
X021945Y021569D01*
X022195Y021819D01*
X022695Y021819D01*
X022945Y021569D01*
X022945Y020069D01*
X022695Y019819D01*
X022195Y019819D01*
X021945Y020069D01*
X021695Y019819D01*
X021195Y019819D01*
X020945Y020069D01*
X020695Y019819D01*
X024138Y018829D02*
X024138Y018329D01*
X024388Y018079D01*
X024138Y017829D01*
X024138Y017329D01*
X024388Y017079D01*
X024138Y016829D01*
X024138Y016329D01*
X024388Y016079D01*
X024138Y015829D01*
X024138Y015329D01*
X024388Y015079D01*
X024888Y015079D01*
X025138Y015329D01*
X025138Y015829D01*
X024888Y016079D01*
X025138Y016329D01*
X025138Y016829D01*
X024888Y017079D01*
X025138Y017329D01*
X025138Y017829D01*
X024888Y018079D01*
X025138Y018329D01*
X025138Y018829D01*
X024888Y019079D01*
X024388Y019079D01*
X024138Y018829D01*
X016552Y018276D02*
X016552Y016266D01*
X014693Y016266D02*
X014693Y018276D01*
X013644Y017337D02*
X013144Y017337D01*
X012894Y017087D01*
X012644Y017337D01*
X012144Y017337D01*
X011894Y017087D01*
X011894Y016587D01*
X012144Y016337D01*
X012644Y016337D01*
X012894Y016587D01*
X013144Y016337D01*
X013644Y016337D01*
X013894Y016587D01*
X013894Y017087D01*
X013644Y017337D01*
X012731Y017555D02*
X012731Y017668D01*
X012617Y017668D01*
X012504Y017555D02*
X012560Y017498D01*
X012674Y017498D01*
X012731Y017555D01*
X012731Y017782D02*
X012674Y017838D01*
X012560Y017838D01*
X012504Y017782D01*
X012504Y017555D01*
X012249Y017668D02*
X012135Y017668D01*
X012135Y017498D02*
X012135Y017838D01*
X012362Y017838D01*
X011994Y017782D02*
X011937Y017838D01*
X011824Y017838D01*
X011767Y017782D01*
X011767Y017555D01*
X011824Y017498D01*
X011937Y017498D01*
X011994Y017555D01*
X005465Y016922D02*
X005229Y016922D01*
X005229Y016449D02*
X005465Y016449D01*
X005465Y016134D02*
X005229Y016134D01*
X005229Y015662D02*
X005465Y015662D01*
X001993Y013542D02*
X001507Y013542D01*
X001750Y013542D02*
X001750Y014270D01*
X001507Y014028D01*
X001268Y014270D02*
X001025Y014270D01*
X001146Y014270D02*
X001146Y013664D01*
X001025Y013542D01*
X000904Y013542D01*
X000782Y013664D01*
X000963Y015079D02*
X000713Y015329D01*
X000713Y015829D01*
X000963Y016079D01*
X000713Y016329D01*
X000713Y016829D01*
X000963Y017079D01*
X000713Y017329D01*
X000713Y017829D01*
X000963Y018079D01*
X000713Y018329D01*
X000713Y018829D01*
X000963Y019079D01*
X001463Y019079D01*
X001713Y018829D01*
X001713Y018329D01*
X001463Y018079D01*
X001713Y017829D01*
X001713Y017329D01*
X001463Y017079D01*
X001713Y016829D01*
X001713Y016329D01*
X001463Y016079D01*
X001713Y015829D01*
X001713Y015329D01*
X001463Y015079D01*
X000963Y015079D01*
X006292Y012394D02*
X006528Y012394D01*
X006528Y011922D02*
X006292Y011922D01*
X009363Y012000D02*
X009599Y012000D01*
X009599Y012473D02*
X009363Y012473D01*
X011056Y012119D02*
X011056Y011882D01*
X011528Y011882D02*
X011528Y012119D01*
X012244Y012521D02*
X012859Y012521D01*
X012859Y011401D02*
X012244Y011401D01*
X012433Y011095D02*
X012670Y011095D01*
X012670Y010622D02*
X012433Y010622D01*
X005721Y006932D02*
X005721Y006811D01*
X005600Y006690D01*
X005721Y006568D01*
X005721Y006447D01*
X005600Y006326D01*
X005357Y006326D01*
X005236Y006447D01*
X005478Y006690D02*
X005600Y006690D01*
X005721Y006932D02*
X005600Y007054D01*
X005357Y007054D01*
X005236Y006932D01*
X004996Y007054D02*
X004753Y007054D01*
X004875Y007054D02*
X004875Y006447D01*
X004753Y006326D01*
X004632Y006326D01*
X004511Y006447D01*
X017070Y004199D02*
X017191Y004078D01*
X017312Y004078D01*
X017434Y004199D01*
X017434Y004806D01*
X017555Y004806D02*
X017312Y004806D01*
X017795Y004442D02*
X018280Y004442D01*
X018159Y004078D02*
X018159Y004806D01*
X017795Y004442D01*
X024178Y009872D02*
X024428Y009622D01*
X024928Y009622D01*
X025178Y009872D01*
X025178Y010372D01*
X024928Y010622D01*
X025178Y010872D01*
X025178Y011372D01*
X024928Y011622D01*
X024428Y011622D01*
X024178Y011372D01*
X024178Y010872D01*
X024428Y010622D01*
X024178Y010372D01*
X024178Y009872D01*
D14*
X022827Y005150D02*
X022079Y005150D01*
X021410Y005150D01*
X020741Y005150D01*
X020071Y005150D01*
X019402Y005150D01*
X018654Y005150D01*
X018654Y004678D01*
X022827Y004678D02*
X022827Y005150D01*
X016252Y007867D02*
X016252Y008418D01*
X016229Y008418D02*
X014457Y008418D01*
X014457Y000544D01*
X016229Y000544D01*
X016252Y000544D02*
X016252Y001095D01*
X014457Y000544D02*
X014457Y000347D01*
X014063Y000347D01*
X014063Y008615D01*
X014457Y008615D01*
X014457Y008418D01*
X003894Y008536D02*
X003894Y009166D01*
X003008Y009737D02*
X002063Y009737D01*
X001040Y009737D02*
X000174Y009737D01*
X000146Y009737D02*
X000146Y003556D01*
X000174Y003556D02*
X001040Y003556D01*
X002063Y003556D02*
X003008Y003556D01*
X003894Y003969D02*
X003894Y004599D01*
X003571Y019194D02*
X003270Y019194D01*
X003420Y019194D02*
X003420Y019645D01*
X003270Y019495D01*
D15*
X012218Y012991D02*
X012278Y013051D01*
X012399Y013051D01*
X012459Y012991D01*
X012459Y012751D01*
X012399Y012690D01*
X012278Y012690D01*
X012218Y012751D01*
X012218Y012991D01*
X012339Y012811D02*
X012459Y012690D01*
X012587Y012690D02*
X012827Y012931D01*
X012827Y012991D01*
X012767Y013051D01*
X012647Y013051D01*
X012587Y012991D01*
X012587Y012690D02*
X012827Y012690D01*
X015012Y011390D02*
X015681Y012059D01*
X015918Y012059D01*
X016666Y012059D02*
X016902Y012059D01*
X017571Y011390D01*
X017571Y009500D01*
X016666Y009500D01*
X015918Y009500D02*
X015012Y009500D01*
X015012Y011390D01*
X016666Y011941D02*
X016730Y011919D01*
X016793Y011892D01*
X016855Y011862D01*
X016914Y011829D01*
X016972Y011793D01*
X017028Y011753D01*
X017081Y011710D01*
X017132Y011665D01*
X017180Y011617D01*
X017225Y011566D01*
X017268Y011512D01*
X017307Y011456D01*
X017344Y011399D01*
X017377Y011339D01*
X017406Y011277D01*
X017432Y011214D01*
X017455Y011150D01*
X017474Y011084D01*
X017489Y011017D01*
X017500Y010950D01*
X017508Y010882D01*
X017512Y010814D01*
X017512Y010746D01*
X017508Y010678D01*
X017500Y010610D01*
X017489Y010543D01*
X017474Y010476D01*
X017455Y010410D01*
X017432Y010346D01*
X017406Y010283D01*
X017377Y010221D01*
X017344Y010161D01*
X017307Y010104D01*
X017268Y010048D01*
X017225Y009994D01*
X017180Y009943D01*
X017132Y009895D01*
X017081Y009850D01*
X017028Y009807D01*
X016972Y009767D01*
X016914Y009731D01*
X016855Y009698D01*
X016793Y009668D01*
X016730Y009641D01*
X016666Y009619D01*
X015918Y009619D02*
X015854Y009641D01*
X015791Y009668D01*
X015729Y009698D01*
X015670Y009731D01*
X015612Y009767D01*
X015556Y009807D01*
X015503Y009850D01*
X015452Y009895D01*
X015404Y009943D01*
X015359Y009994D01*
X015316Y010048D01*
X015277Y010104D01*
X015240Y010161D01*
X015207Y010221D01*
X015178Y010283D01*
X015152Y010346D01*
X015129Y010410D01*
X015110Y010476D01*
X015095Y010543D01*
X015084Y010610D01*
X015076Y010678D01*
X015072Y010746D01*
X015072Y010814D01*
X015076Y010882D01*
X015084Y010950D01*
X015095Y011017D01*
X015110Y011084D01*
X015129Y011150D01*
X015152Y011214D01*
X015178Y011277D01*
X015207Y011339D01*
X015240Y011399D01*
X015277Y011456D01*
X015316Y011512D01*
X015359Y011566D01*
X015404Y011617D01*
X015452Y011665D01*
X015503Y011710D01*
X015556Y011753D01*
X015612Y011793D01*
X015670Y011829D01*
X015729Y011862D01*
X015791Y011892D01*
X015854Y011919D01*
X015918Y011941D01*
X013844Y009404D02*
X013844Y009044D01*
X013964Y009044D02*
X013723Y009044D01*
X013595Y009104D02*
X013595Y009344D01*
X013535Y009404D01*
X013415Y009404D01*
X013355Y009344D01*
X013355Y009104D01*
X013415Y009044D01*
X013535Y009044D01*
X013595Y009104D01*
X013723Y009284D02*
X013844Y009404D01*
X013227Y009404D02*
X013227Y009344D01*
X012987Y009104D01*
X012987Y009044D01*
X013227Y009044D01*
X013227Y009404D02*
X012987Y009404D01*
X012859Y009404D02*
X012619Y009404D01*
X012619Y009044D01*
X012859Y009044D01*
X012739Y009224D02*
X012619Y009224D01*
X012493Y009044D02*
X012373Y009044D01*
X012433Y009044D02*
X012433Y009404D01*
X012373Y009404D02*
X012493Y009404D01*
X012245Y009344D02*
X012245Y009224D01*
X012185Y009164D01*
X012005Y009164D01*
X012005Y009044D02*
X012005Y009404D01*
X012185Y009404D01*
X012245Y009344D01*
X012904Y014885D02*
X012904Y015245D01*
X013084Y015245D01*
X013144Y015185D01*
X013144Y015065D01*
X013084Y015005D01*
X012904Y015005D01*
X013024Y015005D02*
X013144Y014885D01*
X013272Y014945D02*
X013332Y014885D01*
X013452Y014885D01*
X013512Y014945D01*
X013512Y015005D01*
X013452Y015065D01*
X013392Y015065D01*
X013452Y015065D02*
X013512Y015125D01*
X013512Y015185D01*
X013452Y015245D01*
X013332Y015245D01*
X013272Y015185D01*
X018389Y016834D02*
X018389Y017195D01*
X018569Y017195D01*
X018629Y017135D01*
X018629Y017014D01*
X018569Y016954D01*
X018389Y016954D01*
X018509Y016954D02*
X018629Y016834D01*
X018757Y016834D02*
X018997Y016834D01*
X018877Y016834D02*
X018877Y017195D01*
X018757Y017074D01*
X018757Y017874D02*
X018997Y018114D01*
X018997Y018174D01*
X018937Y018234D01*
X018817Y018234D01*
X018757Y018174D01*
X018629Y018174D02*
X018629Y018054D01*
X018569Y017994D01*
X018389Y017994D01*
X018509Y017994D02*
X018629Y017874D01*
X018757Y017874D02*
X018997Y017874D01*
X018629Y018174D02*
X018569Y018234D01*
X018389Y018234D01*
X018389Y017874D01*
X014034Y019150D02*
X013794Y019150D01*
X013914Y019150D02*
X013914Y019510D01*
X013794Y019390D01*
X013666Y019450D02*
X013606Y019510D01*
X013486Y019510D01*
X013426Y019450D01*
X013426Y019210D01*
X013486Y019150D01*
X013606Y019150D01*
X013666Y019210D01*
X023831Y007926D02*
X024067Y007926D01*
X023831Y007926D02*
X023162Y007256D01*
X023162Y005367D01*
X024067Y005367D01*
X024815Y005367D02*
X025721Y005367D01*
X025721Y007256D01*
X025052Y007926D01*
X024815Y007926D01*
X024815Y007807D02*
X024879Y007785D01*
X024942Y007758D01*
X025004Y007728D01*
X025063Y007695D01*
X025121Y007659D01*
X025177Y007619D01*
X025230Y007576D01*
X025281Y007531D01*
X025329Y007483D01*
X025374Y007432D01*
X025417Y007378D01*
X025456Y007322D01*
X025493Y007265D01*
X025526Y007205D01*
X025555Y007143D01*
X025581Y007080D01*
X025604Y007016D01*
X025623Y006950D01*
X025638Y006883D01*
X025649Y006816D01*
X025657Y006748D01*
X025661Y006680D01*
X025661Y006612D01*
X025657Y006544D01*
X025649Y006476D01*
X025638Y006409D01*
X025623Y006342D01*
X025604Y006276D01*
X025581Y006212D01*
X025555Y006149D01*
X025526Y006087D01*
X025493Y006027D01*
X025456Y005970D01*
X025417Y005914D01*
X025374Y005860D01*
X025329Y005809D01*
X025281Y005761D01*
X025230Y005716D01*
X025177Y005673D01*
X025121Y005633D01*
X025063Y005597D01*
X025004Y005564D01*
X024942Y005534D01*
X024879Y005507D01*
X024815Y005485D01*
X024067Y005485D02*
X024003Y005507D01*
X023940Y005534D01*
X023878Y005564D01*
X023819Y005597D01*
X023761Y005633D01*
X023705Y005673D01*
X023652Y005716D01*
X023601Y005761D01*
X023553Y005809D01*
X023508Y005860D01*
X023465Y005914D01*
X023426Y005970D01*
X023389Y006027D01*
X023356Y006087D01*
X023327Y006149D01*
X023301Y006212D01*
X023278Y006276D01*
X023259Y006342D01*
X023244Y006409D01*
X023233Y006476D01*
X023225Y006544D01*
X023221Y006612D01*
X023221Y006680D01*
X023225Y006748D01*
X023233Y006816D01*
X023244Y006883D01*
X023259Y006950D01*
X023278Y007016D01*
X023301Y007080D01*
X023327Y007143D01*
X023356Y007205D01*
X023389Y007265D01*
X023426Y007322D01*
X023465Y007378D01*
X023508Y007432D01*
X023553Y007483D01*
X023601Y007531D01*
X023652Y007576D01*
X023705Y007619D01*
X023761Y007659D01*
X023819Y007695D01*
X023878Y007728D01*
X023940Y007758D01*
X024003Y007785D01*
X024067Y007807D01*
D16*
X007689Y014619D02*
X007453Y014619D01*
X007689Y014619D02*
X007689Y015465D01*
X006548Y015465D02*
X006548Y014619D01*
X006784Y014619D01*
D17*
X003932Y012855D02*
X003932Y012147D01*
X003696Y012147D02*
X004168Y012147D01*
X003696Y012619D02*
X003932Y012855D01*
X003443Y012737D02*
X003325Y012855D01*
X002971Y012855D01*
X002971Y012147D01*
X003325Y012147D01*
X003443Y012265D01*
X003443Y012737D01*
X002718Y012737D02*
X002600Y012855D01*
X002364Y012855D01*
X002246Y012737D01*
X002246Y012265D01*
X002364Y012147D01*
X002600Y012147D01*
X002718Y012265D01*
X001993Y012147D02*
X001521Y012147D01*
X001521Y012855D01*
X002367Y014717D02*
X003744Y014717D01*
X003744Y015032D01*
X002760Y015032D01*
X002760Y015504D01*
X000792Y015504D02*
X000792Y018654D01*
X002367Y019441D02*
X003744Y019441D01*
X003744Y019126D01*
X002760Y019126D01*
X002760Y018654D01*
X013615Y012237D02*
X013615Y011922D01*
X013615Y012237D02*
X013851Y012237D01*
X014481Y012237D02*
X014717Y012237D01*
X014717Y011922D01*
X018063Y012197D02*
X018063Y011489D01*
X018063Y012197D02*
X020741Y012197D01*
X020741Y011508D01*
X019402Y009629D02*
X019334Y009631D01*
X019267Y009637D01*
X019200Y009646D01*
X019134Y009659D01*
X019069Y009675D01*
X019005Y009696D01*
X018942Y009719D01*
X018880Y009746D01*
X018820Y009777D01*
X018761Y009810D01*
X018705Y009847D01*
X018651Y009887D01*
X018599Y009929D01*
X018549Y009975D01*
X018502Y010023D01*
X018457Y010074D01*
X018416Y010127D01*
X018377Y010182D01*
X018342Y010239D01*
X018309Y010298D01*
X018063Y010229D02*
X018063Y009520D01*
X020327Y009520D01*
X020327Y009933D01*
X020741Y009933D01*
X020741Y010229D01*
X021069Y009363D02*
X020258Y009363D01*
X020258Y008339D02*
X021069Y008339D01*
X022304Y009048D02*
X022304Y009363D01*
X023288Y009363D01*
X023288Y009835D01*
X023681Y009048D02*
X022304Y009048D01*
X025256Y009835D02*
X025256Y011410D01*
X023681Y012197D02*
X022304Y012197D01*
X022304Y011882D01*
X023288Y011882D01*
X023288Y011410D01*
X018615Y010859D02*
X018617Y010915D01*
X018623Y010970D01*
X018633Y011024D01*
X018646Y011078D01*
X018664Y011131D01*
X018685Y011182D01*
X018709Y011232D01*
X018737Y011280D01*
X018769Y011326D01*
X018803Y011370D01*
X018841Y011411D01*
X018881Y011449D01*
X018924Y011484D01*
X018969Y011516D01*
X019017Y011545D01*
X019066Y011571D01*
X019117Y011593D01*
X019169Y011611D01*
X019223Y011625D01*
X019278Y011636D01*
X019333Y011643D01*
X019388Y011646D01*
X019444Y011645D01*
X019499Y011640D01*
X019554Y011631D01*
X019608Y011619D01*
X019661Y011602D01*
X019713Y011582D01*
X019763Y011558D01*
X019811Y011531D01*
X019858Y011501D01*
X019902Y011467D01*
X019944Y011430D01*
X019982Y011390D01*
X020019Y011348D01*
X020052Y011303D01*
X020081Y011257D01*
X020108Y011208D01*
X020130Y011157D01*
X020150Y011105D01*
X020165Y011051D01*
X020177Y010997D01*
X020185Y010942D01*
X020189Y010887D01*
X020189Y010831D01*
X020185Y010776D01*
X020177Y010721D01*
X020165Y010667D01*
X020150Y010613D01*
X020130Y010561D01*
X020108Y010510D01*
X020081Y010461D01*
X020052Y010415D01*
X020019Y010370D01*
X019982Y010328D01*
X019944Y010288D01*
X019902Y010251D01*
X019858Y010217D01*
X019811Y010187D01*
X019763Y010160D01*
X019713Y010136D01*
X019661Y010116D01*
X019608Y010099D01*
X019554Y010087D01*
X019499Y010078D01*
X019444Y010073D01*
X019388Y010072D01*
X019333Y010075D01*
X019278Y010082D01*
X019223Y010093D01*
X019169Y010107D01*
X019117Y010125D01*
X019066Y010147D01*
X019017Y010173D01*
X018969Y010202D01*
X018924Y010234D01*
X018881Y010269D01*
X018841Y010307D01*
X018803Y010348D01*
X018769Y010392D01*
X018737Y010438D01*
X018709Y010486D01*
X018685Y010536D01*
X018664Y010587D01*
X018646Y010640D01*
X018633Y010694D01*
X018623Y010748D01*
X018617Y010803D01*
X018615Y010859D01*
X018290Y011390D02*
X018321Y011452D01*
X018356Y011512D01*
X018395Y011569D01*
X018436Y011625D01*
X018481Y011678D01*
X018529Y011728D01*
X018579Y011776D01*
X018632Y011820D01*
X018687Y011862D01*
X018745Y011900D01*
X018804Y011936D01*
X018866Y011967D01*
X018929Y011996D01*
X018994Y012020D01*
X019060Y012041D01*
X019127Y012059D01*
X019195Y012072D01*
X019263Y012081D01*
X019332Y012087D01*
X019402Y012089D01*
X020495Y010298D02*
X020462Y010239D01*
X020427Y010182D01*
X020388Y010127D01*
X020347Y010074D01*
X020302Y010023D01*
X020255Y009975D01*
X020205Y009929D01*
X020153Y009887D01*
X020099Y009847D01*
X020043Y009810D01*
X019984Y009777D01*
X019924Y009746D01*
X019862Y009719D01*
X019799Y009696D01*
X019735Y009675D01*
X019670Y009659D01*
X019604Y009646D01*
X019537Y009637D01*
X019470Y009631D01*
X019402Y009629D01*
X020495Y011420D02*
X020462Y011479D01*
X020427Y011536D01*
X020388Y011591D01*
X020347Y011644D01*
X020302Y011695D01*
X020255Y011743D01*
X020205Y011789D01*
X020153Y011831D01*
X020099Y011871D01*
X020043Y011908D01*
X019984Y011941D01*
X019924Y011972D01*
X019862Y011999D01*
X019799Y012022D01*
X019735Y012043D01*
X019670Y012059D01*
X019604Y012072D01*
X019537Y012081D01*
X019470Y012087D01*
X019402Y012089D01*
X022107Y014717D02*
X023485Y014717D01*
X023091Y015032D02*
X022107Y015032D01*
X022107Y014717D01*
X023091Y015032D02*
X023091Y015504D01*
X025059Y015504D02*
X025059Y018654D01*
X023485Y019441D02*
X022107Y019441D01*
X022107Y019126D01*
X023091Y019126D01*
X023091Y018654D01*
X014855Y016586D02*
X014857Y016601D01*
X014863Y016614D01*
X014872Y016626D01*
X014883Y016635D01*
X014897Y016641D01*
X014912Y016643D01*
X014927Y016641D01*
X014940Y016635D01*
X014952Y016626D01*
X014961Y016615D01*
X014967Y016601D01*
X014969Y016586D01*
X014967Y016571D01*
X014961Y016558D01*
X014952Y016546D01*
X014941Y016537D01*
X014927Y016531D01*
X014912Y016529D01*
X014897Y016531D01*
X014884Y016537D01*
X014872Y016546D01*
X014863Y016557D01*
X014857Y016571D01*
X014855Y016586D01*
X007000Y010780D02*
X007000Y010465D01*
X006764Y010465D01*
X006134Y010465D02*
X005898Y010465D01*
X005898Y010780D01*
X007197Y009481D02*
X007199Y009577D01*
X007205Y009673D01*
X007215Y009768D01*
X007229Y009863D01*
X007246Y009958D01*
X007268Y010051D01*
X007294Y010144D01*
X007323Y010235D01*
X007356Y010325D01*
X007393Y010414D01*
X007433Y010501D01*
X007477Y010587D01*
X007524Y010670D01*
X007575Y010752D01*
X007629Y010831D01*
X007687Y010908D01*
X007747Y010982D01*
X007811Y011054D01*
X007877Y011124D01*
X007947Y011190D01*
X008019Y011254D01*
X008093Y011314D01*
X008170Y011372D01*
X008249Y011426D01*
X008331Y011477D01*
X008414Y011524D01*
X008500Y011568D01*
X008587Y011608D01*
X008676Y011645D01*
X008766Y011678D01*
X008857Y011707D01*
X008950Y011733D01*
X009043Y011755D01*
X009138Y011772D01*
X009233Y011786D01*
X009328Y011796D01*
X009424Y011802D01*
X009520Y011804D01*
X009616Y011802D01*
X009712Y011796D01*
X009807Y011786D01*
X009902Y011772D01*
X009997Y011755D01*
X010090Y011733D01*
X010183Y011707D01*
X010274Y011678D01*
X010364Y011645D01*
X010453Y011608D01*
X010540Y011568D01*
X010626Y011524D01*
X010709Y011477D01*
X010791Y011426D01*
X010870Y011372D01*
X010947Y011314D01*
X011021Y011254D01*
X011093Y011190D01*
X011163Y011124D01*
X011229Y011054D01*
X011293Y010982D01*
X011353Y010908D01*
X011411Y010831D01*
X011465Y010752D01*
X011516Y010670D01*
X011563Y010587D01*
X011607Y010501D01*
X011647Y010414D01*
X011684Y010325D01*
X011717Y010235D01*
X011746Y010144D01*
X011772Y010051D01*
X011794Y009958D01*
X011811Y009863D01*
X011825Y009768D01*
X011835Y009673D01*
X011841Y009577D01*
X011843Y009481D01*
X011841Y009385D01*
X011835Y009289D01*
X011825Y009194D01*
X011811Y009099D01*
X011794Y009004D01*
X011772Y008911D01*
X011746Y008818D01*
X011717Y008727D01*
X011684Y008637D01*
X011647Y008548D01*
X011607Y008461D01*
X011563Y008375D01*
X011516Y008292D01*
X011465Y008210D01*
X011411Y008131D01*
X011353Y008054D01*
X011293Y007980D01*
X011229Y007908D01*
X011163Y007838D01*
X011093Y007772D01*
X011021Y007708D01*
X010947Y007648D01*
X010870Y007590D01*
X010791Y007536D01*
X010709Y007485D01*
X010626Y007438D01*
X010540Y007394D01*
X010453Y007354D01*
X010364Y007317D01*
X010274Y007284D01*
X010183Y007255D01*
X010090Y007229D01*
X009997Y007207D01*
X009902Y007190D01*
X009807Y007176D01*
X009712Y007166D01*
X009616Y007160D01*
X009520Y007158D01*
X009424Y007160D01*
X009328Y007166D01*
X009233Y007176D01*
X009138Y007190D01*
X009043Y007207D01*
X008950Y007229D01*
X008857Y007255D01*
X008766Y007284D01*
X008676Y007317D01*
X008587Y007354D01*
X008500Y007394D01*
X008414Y007438D01*
X008331Y007485D01*
X008249Y007536D01*
X008170Y007590D01*
X008093Y007648D01*
X008019Y007708D01*
X007947Y007772D01*
X007877Y007838D01*
X007811Y007908D01*
X007747Y007980D01*
X007687Y008054D01*
X007629Y008131D01*
X007575Y008210D01*
X007524Y008292D01*
X007477Y008375D01*
X007433Y008461D01*
X007393Y008548D01*
X007356Y008637D01*
X007323Y008727D01*
X007294Y008818D01*
X007268Y008911D01*
X007246Y009004D01*
X007229Y009099D01*
X007215Y009194D01*
X007205Y009289D01*
X007199Y009385D01*
X007197Y009481D01*
D18*
X012355Y012414D03*
D19*
X020948Y008851D03*
D20*
X011020Y002959D03*
X011020Y002954D03*
X011020Y002949D03*
X011015Y002939D03*
X011015Y002934D03*
X011015Y002929D03*
X011010Y002919D03*
X011010Y002914D03*
X011010Y002909D03*
X011005Y002899D03*
X011005Y002894D03*
X011005Y002889D03*
X011000Y002879D03*
X011000Y002874D03*
X011000Y002869D03*
X010995Y002859D03*
X010995Y002854D03*
X010995Y002849D03*
X010995Y002844D03*
X010990Y002839D03*
X010990Y002834D03*
X010990Y002829D03*
X010990Y002824D03*
X010985Y002819D03*
X010985Y002814D03*
X010985Y002809D03*
X010985Y002804D03*
X010980Y002799D03*
X010980Y002794D03*
X010980Y002789D03*
X010980Y002784D03*
X010975Y002779D03*
X010975Y002774D03*
X010975Y002769D03*
X010975Y002764D03*
X010970Y002759D03*
X010970Y002754D03*
X010970Y002749D03*
X010970Y002744D03*
X010965Y002739D03*
X010965Y002734D03*
X010965Y002729D03*
X010965Y002724D03*
X010960Y002714D03*
X010960Y002709D03*
X010960Y002704D03*
X010955Y002694D03*
X010955Y002689D03*
X010955Y002684D03*
X010950Y002674D03*
X010950Y002669D03*
X010950Y002664D03*
X010805Y002704D03*
X010805Y002709D03*
X010660Y002739D03*
X010660Y002744D03*
X010660Y002749D03*
X010665Y002759D03*
X010665Y002764D03*
X010665Y002769D03*
X010670Y002779D03*
X010670Y002784D03*
X010670Y002789D03*
X010675Y002799D03*
X010675Y002804D03*
X010675Y002809D03*
X010680Y002819D03*
X010680Y002824D03*
X010680Y002829D03*
X010685Y002839D03*
X010685Y002844D03*
X010685Y002849D03*
X010690Y002864D03*
X010690Y002869D03*
X010695Y002884D03*
X010695Y002889D03*
X010700Y002904D03*
X010700Y002909D03*
X010705Y002924D03*
X010705Y002929D03*
X010710Y002944D03*
X010710Y002949D03*
X010715Y002964D03*
X010655Y002729D03*
X010655Y002724D03*
X010655Y002719D03*
X010650Y002709D03*
X010650Y002704D03*
X010650Y002699D03*
X010645Y002689D03*
X010645Y002684D03*
X010645Y002679D03*
X010640Y002669D03*
X010640Y002664D03*
X006710Y001809D03*
D21*
X006980Y002749D03*
X008835Y001809D03*
X010430Y002669D03*
X010430Y002674D03*
X010430Y002679D03*
X010435Y002689D03*
X010435Y002694D03*
X010435Y002699D03*
X010440Y002709D03*
X010440Y002714D03*
X010440Y002719D03*
X010445Y002729D03*
X010445Y002734D03*
X010445Y002739D03*
X010450Y002749D03*
X010450Y002754D03*
X010450Y002759D03*
X010455Y002769D03*
X010455Y002774D03*
X010455Y002779D03*
X010460Y002789D03*
X010460Y002794D03*
X010460Y002799D03*
X010465Y002814D03*
X010465Y002819D03*
X010470Y002834D03*
X010470Y002839D03*
X010475Y002854D03*
X010475Y002859D03*
X010480Y002874D03*
X010480Y002879D03*
X010485Y002894D03*
X010485Y002899D03*
X010490Y002914D03*
X010490Y002919D03*
X010495Y002934D03*
X010495Y002939D03*
X010500Y002954D03*
X010500Y002959D03*
X010505Y002974D03*
X010505Y002979D03*
X010510Y002994D03*
X010510Y002999D03*
X010810Y002734D03*
X010810Y002729D03*
X010810Y002724D03*
D22*
X009118Y002759D03*
X006973Y002744D03*
X006443Y002679D03*
X006723Y001814D03*
D23*
X006448Y002689D03*
X006453Y002694D03*
X008843Y001814D03*
D24*
X006730Y001819D03*
X006395Y002604D03*
D25*
X006398Y002609D03*
X006403Y002614D03*
X006968Y002739D03*
X008848Y001819D03*
D26*
X008705Y002029D03*
X008705Y002034D03*
X008705Y002039D03*
X008710Y002159D03*
X008710Y002164D03*
X008715Y002184D03*
X008715Y002189D03*
X008715Y002194D03*
X008720Y002204D03*
X008720Y002209D03*
X008720Y002214D03*
X008720Y002219D03*
X008725Y002229D03*
X008725Y002234D03*
X008725Y002239D03*
X008730Y002249D03*
X008730Y002254D03*
X008730Y002259D03*
X008730Y002264D03*
X008735Y002269D03*
X008735Y002274D03*
X008735Y002279D03*
X008735Y002284D03*
X008740Y002289D03*
X008740Y002294D03*
X008740Y002299D03*
X008745Y002309D03*
X008745Y002314D03*
X008745Y002319D03*
X008750Y002324D03*
X008750Y002329D03*
X008750Y002334D03*
X008755Y002344D03*
X008755Y002349D03*
X008760Y002364D03*
X008765Y002379D03*
X008830Y002534D03*
X008835Y002539D03*
X008840Y002544D03*
X008435Y002654D03*
X008435Y002659D03*
X008440Y002674D03*
X008440Y002679D03*
X008445Y002694D03*
X008445Y002699D03*
X008450Y002714D03*
X008450Y002719D03*
X008430Y002639D03*
X008430Y002634D03*
X008425Y002619D03*
X008425Y002614D03*
X008420Y002599D03*
X008420Y002594D03*
X008415Y002579D03*
X008415Y002574D03*
X008410Y002559D03*
X008410Y002554D03*
X008405Y002539D03*
X008405Y002534D03*
X008400Y002519D03*
X008400Y002514D03*
X008395Y002499D03*
X008395Y002494D03*
X008390Y002479D03*
X008390Y002474D03*
X008385Y002459D03*
X008385Y002454D03*
X008380Y002439D03*
X008380Y002434D03*
X008375Y002419D03*
X008375Y002414D03*
X008370Y002399D03*
X008370Y002394D03*
X008365Y002379D03*
X008365Y002374D03*
X008360Y002359D03*
X008360Y002354D03*
X008355Y002339D03*
X008355Y002334D03*
X008350Y002319D03*
X008350Y002314D03*
X008345Y002299D03*
X008345Y002294D03*
X008340Y002279D03*
X008340Y002274D03*
X008335Y002259D03*
X008335Y002254D03*
X008330Y002239D03*
X008330Y002234D03*
X008325Y002219D03*
X008325Y002214D03*
X008320Y002199D03*
X008320Y002194D03*
X008315Y002179D03*
X008315Y002174D03*
X008310Y002159D03*
X008310Y002154D03*
X008305Y002139D03*
X008305Y002134D03*
X008300Y002119D03*
X008300Y002114D03*
X008295Y002099D03*
X008295Y002094D03*
X008290Y002079D03*
X008290Y002074D03*
X008285Y002059D03*
X008285Y002054D03*
X008280Y002039D03*
X008280Y002034D03*
X008275Y002019D03*
X008275Y002014D03*
X008270Y001999D03*
X008270Y001994D03*
X008265Y001979D03*
X008265Y001974D03*
X008260Y001959D03*
X008260Y001954D03*
X008255Y001939D03*
X008255Y001934D03*
X008250Y001919D03*
X008250Y001914D03*
X008245Y001899D03*
X008245Y001894D03*
X008240Y001879D03*
X008240Y001874D03*
X008235Y001859D03*
X008235Y001854D03*
X008230Y001839D03*
X008230Y001834D03*
X009465Y001834D03*
X009465Y001839D03*
X009470Y001854D03*
X009470Y001859D03*
X009475Y001874D03*
X009475Y001879D03*
X009480Y001894D03*
X009480Y001899D03*
X009485Y001914D03*
X009485Y001919D03*
X009490Y001934D03*
X009490Y001939D03*
X009495Y001954D03*
X009495Y001959D03*
X009500Y001974D03*
X009500Y001979D03*
X009505Y001994D03*
X009505Y001999D03*
X009510Y002014D03*
X009510Y002019D03*
X009515Y002034D03*
X009515Y002039D03*
X009520Y002054D03*
X009520Y002059D03*
X009525Y002069D03*
X009615Y002439D03*
X009615Y002444D03*
X009620Y002459D03*
X009620Y002464D03*
X009625Y002479D03*
X009625Y002484D03*
X009630Y002499D03*
X009630Y002504D03*
X009635Y002519D03*
X009635Y002524D03*
X009640Y002539D03*
X009640Y002544D03*
X009645Y002559D03*
X009645Y002564D03*
X009650Y002579D03*
X009650Y002584D03*
X009655Y002599D03*
X009655Y002604D03*
X009660Y002619D03*
X009660Y002624D03*
X009665Y002639D03*
X009665Y002644D03*
X009670Y002659D03*
X009670Y002664D03*
X009675Y002679D03*
X009675Y002684D03*
X009680Y002699D03*
X009680Y002704D03*
X009685Y002719D03*
X009685Y002724D03*
X009690Y002739D03*
X009690Y002744D03*
X009695Y002759D03*
X009695Y002764D03*
X009700Y002779D03*
X009700Y002784D03*
X009705Y002799D03*
X009705Y002804D03*
X009710Y002819D03*
X009710Y002824D03*
X009715Y002839D03*
X009715Y002844D03*
X009720Y002864D03*
X009725Y002884D03*
X009730Y002904D03*
X009735Y002924D03*
X009740Y002944D03*
X009745Y002964D03*
X009750Y002984D03*
X009755Y003004D03*
X009760Y003024D03*
X010030Y002569D03*
X010025Y002564D03*
X010020Y002559D03*
X010010Y002544D03*
X010005Y002539D03*
X010000Y002534D03*
X009995Y002529D03*
X009990Y002524D03*
X009985Y002519D03*
X009960Y002489D03*
X006965Y002734D03*
X006605Y002229D03*
X006605Y002224D03*
X006600Y002209D03*
X006600Y002204D03*
X006595Y002184D03*
X006585Y001999D03*
X006590Y001994D03*
X006730Y001824D03*
X006960Y001994D03*
X006035Y002234D03*
X006035Y002239D03*
X006040Y002254D03*
X006040Y002259D03*
X006045Y002274D03*
X006045Y002279D03*
X006050Y002294D03*
X006050Y002299D03*
X006055Y002314D03*
X006055Y002319D03*
X006060Y002334D03*
X006060Y002339D03*
X006065Y002349D03*
X006065Y002354D03*
X006065Y002359D03*
X006070Y002364D03*
X006070Y002369D03*
X006030Y002219D03*
X006030Y002214D03*
X006025Y002199D03*
X006025Y002194D03*
X006020Y002179D03*
X006020Y002174D03*
X006015Y002159D03*
X006015Y002154D03*
X006010Y002139D03*
X006010Y002134D03*
X006005Y002119D03*
X006005Y002114D03*
X006000Y002099D03*
X006000Y002094D03*
X005995Y002079D03*
X005995Y002074D03*
X005990Y002059D03*
X005990Y002054D03*
X005985Y002039D03*
X005985Y002034D03*
X005980Y002019D03*
X005980Y002014D03*
X005975Y001999D03*
X005975Y001994D03*
X005970Y001979D03*
X005970Y001974D03*
X005965Y001959D03*
X005965Y001954D03*
X005960Y001939D03*
X005960Y001934D03*
X005955Y001919D03*
X005955Y001914D03*
X005950Y001899D03*
X005950Y001894D03*
X005945Y001879D03*
X005945Y001874D03*
X005940Y001859D03*
X005940Y001854D03*
X005935Y001839D03*
X005935Y001834D03*
X005540Y001934D03*
X005540Y001939D03*
X005545Y001954D03*
X005545Y001959D03*
X005550Y001974D03*
X005550Y001979D03*
X005555Y001994D03*
X005555Y001999D03*
X005560Y002014D03*
X005560Y002019D03*
X005565Y002034D03*
X005565Y002039D03*
X005570Y002054D03*
X005570Y002059D03*
X005575Y002074D03*
X005575Y002079D03*
X005580Y002094D03*
X005580Y002099D03*
X005585Y002114D03*
X005585Y002119D03*
X005590Y002134D03*
X005590Y002139D03*
X005595Y002154D03*
X005595Y002159D03*
X005600Y002174D03*
X005600Y002179D03*
X005605Y002194D03*
X005605Y002199D03*
X005610Y002214D03*
X005610Y002219D03*
X005615Y002234D03*
X005615Y002239D03*
X005620Y002254D03*
X005620Y002259D03*
X005625Y002274D03*
X005625Y002279D03*
X005630Y002294D03*
X005630Y002299D03*
X005635Y002314D03*
X005635Y002319D03*
X005640Y002334D03*
X005640Y002339D03*
X005645Y002354D03*
X005645Y002359D03*
X005650Y002374D03*
X005650Y002379D03*
X005655Y002394D03*
X005655Y002399D03*
X005660Y002414D03*
X005660Y002419D03*
X005665Y002434D03*
X005665Y002439D03*
X005670Y002454D03*
X005670Y002459D03*
X005675Y002474D03*
X005675Y002479D03*
X005680Y002494D03*
X005680Y002499D03*
X005685Y002514D03*
X005685Y002519D03*
X005690Y002534D03*
X005690Y002539D03*
X005695Y002554D03*
X005695Y002559D03*
X005700Y002574D03*
X005700Y002579D03*
X005705Y002594D03*
X005705Y002599D03*
X005710Y002614D03*
X005710Y002619D03*
X005715Y002634D03*
X005715Y002639D03*
X005720Y002654D03*
X005720Y002659D03*
X005725Y002674D03*
X005725Y002679D03*
X005730Y002694D03*
X005730Y002699D03*
X005735Y002714D03*
X005735Y002719D03*
X005755Y002799D03*
X005755Y002804D03*
X005760Y002819D03*
X005760Y002824D03*
X005765Y002839D03*
X005765Y002844D03*
X005770Y002859D03*
X005770Y002864D03*
X005775Y002879D03*
X005775Y002884D03*
X005780Y002899D03*
X005780Y002904D03*
X005785Y002919D03*
X005785Y002924D03*
X005790Y002939D03*
X005790Y002944D03*
X005795Y002964D03*
X005800Y002984D03*
X005805Y003004D03*
X005810Y003024D03*
X005535Y001919D03*
X005535Y001914D03*
X005530Y001899D03*
X005530Y001894D03*
X005525Y001879D03*
X005525Y001874D03*
X005520Y001859D03*
X005520Y001854D03*
X005515Y001839D03*
X005515Y001834D03*
D27*
X005513Y001829D03*
X005518Y001844D03*
X005518Y001849D03*
X005523Y001864D03*
X005523Y001869D03*
X005528Y001884D03*
X005528Y001889D03*
X005533Y001904D03*
X005533Y001909D03*
X005538Y001924D03*
X005538Y001929D03*
X005543Y001944D03*
X005543Y001949D03*
X005548Y001964D03*
X005548Y001969D03*
X005553Y001984D03*
X005553Y001989D03*
X005558Y002004D03*
X005558Y002009D03*
X005563Y002024D03*
X005563Y002029D03*
X005568Y002044D03*
X005568Y002049D03*
X005573Y002064D03*
X005573Y002069D03*
X005578Y002084D03*
X005578Y002089D03*
X005583Y002104D03*
X005583Y002109D03*
X005588Y002124D03*
X005588Y002129D03*
X005593Y002144D03*
X005593Y002149D03*
X005598Y002164D03*
X005598Y002169D03*
X005603Y002184D03*
X005603Y002189D03*
X005608Y002204D03*
X005608Y002209D03*
X005613Y002224D03*
X005613Y002229D03*
X005618Y002244D03*
X005618Y002249D03*
X005623Y002264D03*
X005623Y002269D03*
X005628Y002284D03*
X005628Y002289D03*
X005633Y002304D03*
X005633Y002309D03*
X005638Y002324D03*
X005638Y002329D03*
X005643Y002344D03*
X005643Y002349D03*
X005648Y002364D03*
X005648Y002369D03*
X005653Y002384D03*
X005653Y002389D03*
X005658Y002404D03*
X005658Y002409D03*
X005663Y002424D03*
X005663Y002429D03*
X005668Y002444D03*
X005668Y002449D03*
X005673Y002464D03*
X005673Y002469D03*
X005678Y002484D03*
X005678Y002489D03*
X005683Y002504D03*
X005683Y002509D03*
X005688Y002524D03*
X005688Y002529D03*
X005693Y002544D03*
X005693Y002549D03*
X005698Y002564D03*
X005698Y002569D03*
X005703Y002584D03*
X005703Y002589D03*
X005708Y002604D03*
X005708Y002609D03*
X005713Y002624D03*
X005713Y002629D03*
X005718Y002644D03*
X005718Y002649D03*
X005723Y002664D03*
X005723Y002669D03*
X005728Y002684D03*
X005728Y002689D03*
X005733Y002704D03*
X005733Y002709D03*
X005738Y002724D03*
X005758Y002809D03*
X005758Y002814D03*
X005763Y002829D03*
X005763Y002834D03*
X005768Y002849D03*
X005768Y002854D03*
X005773Y002869D03*
X005773Y002874D03*
X005778Y002889D03*
X005778Y002894D03*
X005783Y002909D03*
X005783Y002914D03*
X005788Y002929D03*
X005788Y002934D03*
X005793Y002949D03*
X005793Y002954D03*
X005793Y002959D03*
X005798Y002969D03*
X005798Y002974D03*
X005798Y002979D03*
X005803Y002989D03*
X005803Y002994D03*
X005803Y002999D03*
X005808Y003009D03*
X005808Y003014D03*
X005808Y003019D03*
X006723Y002549D03*
X006728Y002554D03*
X006653Y002404D03*
X006603Y002219D03*
X006603Y002214D03*
X006598Y002199D03*
X006598Y002194D03*
X006598Y002189D03*
X006593Y002179D03*
X006593Y002174D03*
X006593Y002169D03*
X006593Y002164D03*
X006588Y002154D03*
X006588Y002149D03*
X006588Y002144D03*
X006583Y002004D03*
X006013Y002144D03*
X006013Y002149D03*
X006018Y002164D03*
X006018Y002169D03*
X006023Y002184D03*
X006023Y002189D03*
X006028Y002204D03*
X006028Y002209D03*
X006033Y002224D03*
X006033Y002229D03*
X006038Y002244D03*
X006038Y002249D03*
X006043Y002264D03*
X006043Y002269D03*
X006048Y002284D03*
X006048Y002289D03*
X006053Y002304D03*
X006053Y002309D03*
X006058Y002324D03*
X006058Y002329D03*
X006063Y002344D03*
X006008Y002129D03*
X006008Y002124D03*
X006003Y002109D03*
X006003Y002104D03*
X005998Y002089D03*
X005998Y002084D03*
X005993Y002069D03*
X005993Y002064D03*
X005988Y002049D03*
X005988Y002044D03*
X005983Y002029D03*
X005983Y002024D03*
X005978Y002009D03*
X005978Y002004D03*
X005973Y001989D03*
X005973Y001984D03*
X005968Y001969D03*
X005968Y001964D03*
X005963Y001949D03*
X005963Y001944D03*
X005958Y001929D03*
X005958Y001924D03*
X005953Y001909D03*
X005953Y001904D03*
X005948Y001889D03*
X005948Y001884D03*
X005943Y001869D03*
X005943Y001864D03*
X005938Y001849D03*
X005938Y001844D03*
X005933Y001829D03*
X008228Y001829D03*
X008233Y001844D03*
X008233Y001849D03*
X008238Y001864D03*
X008238Y001869D03*
X008243Y001884D03*
X008243Y001889D03*
X008248Y001904D03*
X008248Y001909D03*
X008253Y001924D03*
X008253Y001929D03*
X008258Y001944D03*
X008258Y001949D03*
X008263Y001964D03*
X008263Y001969D03*
X008268Y001984D03*
X008268Y001989D03*
X008273Y002004D03*
X008273Y002009D03*
X008278Y002024D03*
X008278Y002029D03*
X008283Y002044D03*
X008283Y002049D03*
X008288Y002064D03*
X008288Y002069D03*
X008293Y002084D03*
X008293Y002089D03*
X008298Y002104D03*
X008298Y002109D03*
X008303Y002124D03*
X008303Y002129D03*
X008308Y002144D03*
X008308Y002149D03*
X008313Y002164D03*
X008313Y002169D03*
X008318Y002184D03*
X008318Y002189D03*
X008323Y002204D03*
X008323Y002209D03*
X008328Y002224D03*
X008328Y002229D03*
X008333Y002244D03*
X008333Y002249D03*
X008338Y002264D03*
X008338Y002269D03*
X008343Y002284D03*
X008343Y002289D03*
X008348Y002304D03*
X008348Y002309D03*
X008353Y002324D03*
X008353Y002329D03*
X008358Y002344D03*
X008358Y002349D03*
X008363Y002364D03*
X008363Y002369D03*
X008368Y002384D03*
X008368Y002389D03*
X008373Y002404D03*
X008373Y002409D03*
X008378Y002424D03*
X008378Y002429D03*
X008383Y002444D03*
X008383Y002449D03*
X008388Y002464D03*
X008388Y002469D03*
X008393Y002484D03*
X008393Y002489D03*
X008398Y002504D03*
X008398Y002509D03*
X008403Y002524D03*
X008403Y002529D03*
X008408Y002544D03*
X008408Y002549D03*
X008413Y002564D03*
X008413Y002569D03*
X008418Y002584D03*
X008418Y002589D03*
X008423Y002604D03*
X008423Y002609D03*
X008428Y002624D03*
X008428Y002629D03*
X008433Y002644D03*
X008433Y002649D03*
X008438Y002664D03*
X008438Y002669D03*
X008443Y002684D03*
X008443Y002689D03*
X008448Y002704D03*
X008448Y002709D03*
X008453Y002724D03*
X008823Y002524D03*
X008823Y002519D03*
X008818Y002514D03*
X008813Y002504D03*
X008808Y002494D03*
X008803Y002484D03*
X008798Y002474D03*
X008798Y002469D03*
X008793Y002459D03*
X008788Y002449D03*
X008788Y002444D03*
X008783Y002434D03*
X008783Y002429D03*
X008778Y002424D03*
X008778Y002419D03*
X008778Y002414D03*
X008773Y002409D03*
X008773Y002404D03*
X008773Y002399D03*
X008768Y002394D03*
X008768Y002389D03*
X008768Y002384D03*
X008763Y002374D03*
X008763Y002369D03*
X008758Y002359D03*
X008758Y002354D03*
X008753Y002339D03*
X008743Y002304D03*
X008728Y002244D03*
X008723Y002224D03*
X008718Y002199D03*
X008713Y002179D03*
X008713Y002174D03*
X008713Y002169D03*
X008708Y002154D03*
X008708Y002149D03*
X008708Y002144D03*
X008708Y002139D03*
X008708Y002134D03*
X008708Y002129D03*
X008703Y002124D03*
X008703Y002119D03*
X008703Y002114D03*
X008703Y002109D03*
X008703Y002104D03*
X008703Y002099D03*
X008703Y002094D03*
X008703Y002089D03*
X008703Y002084D03*
X008703Y002079D03*
X008703Y002074D03*
X008703Y002069D03*
X008703Y002064D03*
X008703Y002059D03*
X008703Y002054D03*
X008703Y002049D03*
X008703Y002044D03*
X008853Y001824D03*
X009103Y002019D03*
X009108Y002024D03*
X009488Y001929D03*
X009488Y001924D03*
X009483Y001909D03*
X009483Y001904D03*
X009478Y001889D03*
X009478Y001884D03*
X009473Y001869D03*
X009473Y001864D03*
X009468Y001849D03*
X009468Y001844D03*
X009463Y001829D03*
X009493Y001944D03*
X009493Y001949D03*
X009498Y001964D03*
X009498Y001969D03*
X009503Y001984D03*
X009503Y001989D03*
X009508Y002004D03*
X009508Y002009D03*
X009513Y002024D03*
X009513Y002029D03*
X009518Y002044D03*
X009518Y002049D03*
X009523Y002064D03*
X009613Y002434D03*
X009618Y002449D03*
X009618Y002454D03*
X009623Y002469D03*
X009623Y002474D03*
X009628Y002489D03*
X009628Y002494D03*
X009633Y002509D03*
X009633Y002514D03*
X009638Y002529D03*
X009638Y002534D03*
X009643Y002549D03*
X009643Y002554D03*
X009648Y002569D03*
X009648Y002574D03*
X009653Y002589D03*
X009653Y002594D03*
X009658Y002609D03*
X009658Y002614D03*
X009663Y002629D03*
X009663Y002634D03*
X009668Y002649D03*
X009668Y002654D03*
X009673Y002669D03*
X009673Y002674D03*
X009678Y002689D03*
X009678Y002694D03*
X009683Y002709D03*
X009683Y002714D03*
X009688Y002729D03*
X009688Y002734D03*
X009693Y002749D03*
X009693Y002754D03*
X009698Y002769D03*
X009698Y002774D03*
X009703Y002789D03*
X009703Y002794D03*
X009708Y002809D03*
X009708Y002814D03*
X009713Y002829D03*
X009713Y002834D03*
X009718Y002849D03*
X009718Y002854D03*
X009718Y002859D03*
X009723Y002869D03*
X009723Y002874D03*
X009723Y002879D03*
X009728Y002889D03*
X009728Y002894D03*
X009728Y002899D03*
X009733Y002909D03*
X009733Y002914D03*
X009733Y002919D03*
X009738Y002929D03*
X009738Y002934D03*
X009738Y002939D03*
X009743Y002949D03*
X009743Y002954D03*
X009743Y002959D03*
X009748Y002969D03*
X009748Y002974D03*
X009748Y002979D03*
X009753Y002989D03*
X009753Y002994D03*
X009753Y002999D03*
X009758Y003009D03*
X009758Y003014D03*
X009758Y003019D03*
X009983Y002514D03*
X009978Y002509D03*
X009973Y002504D03*
X009968Y002499D03*
X009963Y002494D03*
X009958Y002484D03*
X009953Y002479D03*
X009948Y002474D03*
X009943Y002469D03*
X009938Y002464D03*
X009238Y002564D03*
X008828Y002529D03*
D28*
X008858Y002564D03*
X009108Y002749D03*
X009538Y002094D03*
X009538Y002089D03*
X009893Y002129D03*
X009893Y002134D03*
X009898Y002124D03*
X009898Y002119D03*
X009898Y002114D03*
X009898Y002109D03*
X009903Y002104D03*
X009903Y002099D03*
X009903Y002094D03*
X009903Y002089D03*
X009908Y002084D03*
X009908Y002079D03*
X009908Y002074D03*
X009913Y002064D03*
X009913Y002059D03*
X009913Y002054D03*
X009918Y002039D03*
X009923Y002019D03*
X009928Y001999D03*
X009088Y002009D03*
X008713Y002014D03*
X007468Y002274D03*
X007468Y002279D03*
X007468Y002284D03*
X007463Y002264D03*
X007463Y002259D03*
X007463Y002254D03*
X007458Y002244D03*
X007458Y002239D03*
X007458Y002234D03*
X007453Y002224D03*
X007453Y002219D03*
X007453Y002214D03*
X007448Y002204D03*
X007448Y002199D03*
X007448Y002194D03*
X007448Y002189D03*
X007443Y002184D03*
X007443Y002179D03*
X007443Y002174D03*
X007443Y002169D03*
X007438Y002164D03*
X007438Y002159D03*
X007438Y002154D03*
X007438Y002149D03*
X007433Y002144D03*
X007433Y002139D03*
X007433Y002134D03*
X007433Y002129D03*
X007428Y002124D03*
X007428Y002119D03*
X007428Y002114D03*
X007428Y002109D03*
X007423Y002104D03*
X007423Y002099D03*
X007423Y002094D03*
X007423Y002089D03*
X007418Y002084D03*
X007418Y002079D03*
X007418Y002074D03*
X007418Y002069D03*
X007413Y002059D03*
X007413Y002054D03*
X007413Y002049D03*
X007408Y002039D03*
X007408Y002034D03*
X007408Y002029D03*
X007403Y002019D03*
X007403Y002014D03*
X007403Y002009D03*
X007398Y001999D03*
X007398Y001994D03*
X007398Y001989D03*
X007393Y001979D03*
X007393Y001974D03*
X007393Y001969D03*
X007388Y001959D03*
X007388Y001954D03*
X007388Y001949D03*
X007383Y001939D03*
X007383Y001934D03*
X007383Y001929D03*
X007378Y001919D03*
X007378Y001914D03*
X007378Y001909D03*
X007378Y001904D03*
X007373Y001899D03*
X007373Y001894D03*
X007373Y001889D03*
X007373Y001884D03*
X007368Y001879D03*
X007368Y001874D03*
X007368Y001869D03*
X007368Y001864D03*
X007363Y001859D03*
X007363Y001854D03*
X007363Y001849D03*
X007363Y001844D03*
X007358Y001839D03*
X007358Y001834D03*
X007358Y001829D03*
X006948Y001989D03*
X006598Y001989D03*
X006088Y002404D03*
X006083Y002399D03*
X006743Y002564D03*
X007528Y002519D03*
X007533Y002529D03*
X007533Y002534D03*
X007533Y002539D03*
X007538Y002554D03*
X007538Y002559D03*
X007543Y002574D03*
X007543Y002579D03*
X007543Y002584D03*
X007548Y002594D03*
X007548Y002599D03*
X007548Y002604D03*
X007553Y002614D03*
X007553Y002619D03*
X007553Y002624D03*
X007558Y002634D03*
X007558Y002639D03*
X007558Y002644D03*
X007563Y002654D03*
X007563Y002659D03*
X007563Y002664D03*
X007568Y002674D03*
X007568Y002679D03*
X007568Y002684D03*
X007573Y002694D03*
X007573Y002699D03*
X007573Y002704D03*
X007578Y002714D03*
X007578Y002719D03*
X007578Y002724D03*
X007583Y002734D03*
X007583Y002739D03*
X007583Y002744D03*
X007588Y002754D03*
X007588Y002759D03*
X007588Y002764D03*
X007593Y002774D03*
X007593Y002779D03*
X007593Y002784D03*
X007598Y002794D03*
X010108Y002659D03*
X010113Y002664D03*
X010118Y002669D03*
X010123Y002674D03*
X010128Y002679D03*
X010143Y002699D03*
X010148Y002704D03*
X010153Y002709D03*
X004988Y002769D03*
X004988Y002774D03*
X004983Y002764D03*
X004983Y002759D03*
X004983Y002754D03*
X004983Y002749D03*
X004978Y002744D03*
X004978Y002739D03*
X004978Y002734D03*
X004978Y002729D03*
X004973Y002719D03*
X004973Y002714D03*
X004973Y002709D03*
X004968Y002699D03*
X004968Y002694D03*
X004968Y002689D03*
X004963Y002679D03*
X004963Y002674D03*
X004963Y002669D03*
X004958Y002659D03*
X004958Y002654D03*
X004958Y002649D03*
X004953Y002639D03*
X004953Y002634D03*
X004953Y002629D03*
X004948Y002619D03*
X004948Y002614D03*
X004948Y002609D03*
X004943Y002599D03*
X004943Y002594D03*
X004943Y002589D03*
X004938Y002579D03*
X004938Y002574D03*
X004938Y002569D03*
X004873Y002319D03*
X004873Y002314D03*
X004873Y002309D03*
X004868Y002299D03*
X004868Y002294D03*
X004868Y002289D03*
X004863Y002279D03*
X004863Y002274D03*
X004863Y002269D03*
X004858Y002259D03*
X004858Y002254D03*
X004858Y002249D03*
X004853Y002239D03*
X004853Y002234D03*
X004853Y002229D03*
X004848Y002219D03*
X004848Y002214D03*
X004848Y002209D03*
X004843Y002199D03*
X004843Y002194D03*
X004843Y002189D03*
X004838Y002179D03*
X004838Y002174D03*
X004838Y002169D03*
X004833Y002159D03*
X004833Y002154D03*
X004833Y002149D03*
X004828Y002139D03*
X004828Y002134D03*
X004828Y002129D03*
X004823Y002119D03*
X004823Y002114D03*
X004823Y002109D03*
X004823Y002104D03*
X004818Y002099D03*
X004818Y002094D03*
X004818Y002089D03*
X004818Y002084D03*
X004813Y002079D03*
X004813Y002074D03*
X004813Y002069D03*
X004813Y002064D03*
X004808Y002059D03*
X004808Y002054D03*
X004808Y002049D03*
X004808Y002044D03*
X004803Y002039D03*
X004803Y002034D03*
X004803Y002029D03*
X004803Y002024D03*
X004798Y002019D03*
X004798Y002014D03*
X004798Y002009D03*
X004798Y002004D03*
X004793Y001999D03*
X004793Y001994D03*
X004793Y001989D03*
X004793Y001984D03*
X004788Y001979D03*
X004788Y001974D03*
X004788Y001969D03*
X004788Y001964D03*
X004783Y001959D03*
X004783Y001954D03*
X004783Y001949D03*
X004783Y001944D03*
X004778Y001939D03*
X004778Y001934D03*
X004778Y001929D03*
X004778Y001924D03*
X004773Y001919D03*
X004773Y001914D03*
X004773Y001909D03*
X004773Y001904D03*
X004768Y001899D03*
X004768Y001894D03*
X004768Y001889D03*
X004768Y001884D03*
X004763Y001879D03*
X004763Y001874D03*
X004763Y001869D03*
X004763Y001864D03*
X004758Y001859D03*
X004758Y001854D03*
X004758Y001849D03*
X004758Y001844D03*
X004753Y001839D03*
X004753Y001834D03*
X004753Y001829D03*
D29*
X006103Y002429D03*
X006733Y001829D03*
X008023Y002564D03*
X008028Y002569D03*
X008033Y002579D03*
X008063Y002764D03*
X008063Y002769D03*
X009553Y002119D03*
X009558Y002129D03*
D30*
X009555Y002124D03*
X009550Y002114D03*
X008855Y001829D03*
X008720Y002009D03*
X008030Y002574D03*
X008035Y002584D03*
X008040Y002594D03*
X008070Y002734D03*
X008070Y002739D03*
X008070Y002744D03*
X008070Y002749D03*
X008065Y002754D03*
X008065Y002759D03*
X006965Y002729D03*
X006100Y002424D03*
X006095Y002419D03*
D31*
X006093Y002414D03*
X008038Y002589D03*
X008043Y002599D03*
X008043Y002604D03*
X008048Y002609D03*
X008048Y002614D03*
X008053Y002624D03*
X008073Y002724D03*
X008073Y002729D03*
X009223Y002574D03*
X009548Y002109D03*
X009943Y001944D03*
X009948Y001924D03*
X009953Y001909D03*
X009953Y001904D03*
X009953Y001899D03*
X009958Y001889D03*
X009958Y001884D03*
X009958Y001879D03*
X009963Y001869D03*
X009963Y001864D03*
X009963Y001859D03*
X009968Y001854D03*
X009968Y001849D03*
X009968Y001844D03*
X009968Y001839D03*
X009973Y001834D03*
X009973Y001829D03*
D32*
X008053Y002789D03*
X007998Y002534D03*
X006733Y001834D03*
X006123Y002449D03*
D33*
X006118Y002444D03*
X006963Y002724D03*
X008003Y002539D03*
X008008Y002544D03*
X008058Y002784D03*
X008858Y001834D03*
D34*
X007975Y002519D03*
X006735Y001839D03*
D35*
X006130Y002454D03*
X006960Y002719D03*
X007985Y002524D03*
X008045Y002794D03*
X008860Y001839D03*
D36*
X006735Y001844D03*
D37*
X006140Y002459D03*
X006960Y002714D03*
X008860Y001844D03*
X009100Y002734D03*
D38*
X008863Y001849D03*
X006958Y002709D03*
X006738Y001849D03*
D39*
X006738Y001854D03*
D40*
X006955Y002704D03*
X008865Y001854D03*
X009095Y002724D03*
D41*
X008865Y001859D03*
X006740Y001859D03*
X006175Y002469D03*
D42*
X006743Y001864D03*
X008868Y001864D03*
X009093Y002714D03*
D43*
X009090Y002709D03*
X008870Y001869D03*
X007560Y002289D03*
X006740Y001869D03*
D44*
X006743Y001874D03*
D45*
X008870Y001874D03*
X009090Y002704D03*
D46*
X008865Y002569D03*
X008070Y002689D03*
X008070Y002694D03*
X008070Y002699D03*
X008070Y002704D03*
X008070Y002709D03*
X008070Y002714D03*
X008070Y002719D03*
X008065Y002684D03*
X008065Y002679D03*
X008065Y002674D03*
X008065Y002669D03*
X008065Y002664D03*
X008060Y002659D03*
X008060Y002654D03*
X008060Y002649D03*
X008060Y002644D03*
X008055Y002639D03*
X008055Y002634D03*
X008055Y002629D03*
X008050Y002619D03*
X007580Y002729D03*
X007575Y002709D03*
X007570Y002689D03*
X007565Y002669D03*
X007560Y002649D03*
X007555Y002629D03*
X007550Y002609D03*
X007545Y002589D03*
X007540Y002569D03*
X007540Y002564D03*
X007535Y002549D03*
X007535Y002544D03*
X007530Y002524D03*
X007585Y002749D03*
X007590Y002769D03*
X007595Y002789D03*
X006090Y002409D03*
X004965Y002684D03*
X004960Y002664D03*
X004955Y002644D03*
X004950Y002624D03*
X004945Y002604D03*
X004940Y002584D03*
X004935Y002564D03*
X004970Y002704D03*
X004975Y002724D03*
X004870Y002304D03*
X004865Y002284D03*
X004860Y002264D03*
X004855Y002244D03*
X004850Y002224D03*
X004845Y002204D03*
X004840Y002184D03*
X004835Y002164D03*
X004830Y002144D03*
X004825Y002124D03*
X009540Y002099D03*
X009545Y002104D03*
X009910Y002069D03*
X009915Y002049D03*
X009915Y002044D03*
X009920Y002034D03*
X009920Y002029D03*
X009920Y002024D03*
X009925Y002014D03*
X009925Y002009D03*
X009925Y002004D03*
X009930Y001994D03*
X009930Y001989D03*
X009930Y001984D03*
X009935Y001979D03*
X009935Y001974D03*
X009935Y001969D03*
X009935Y001964D03*
X009940Y001959D03*
X009940Y001954D03*
X009940Y001949D03*
X009945Y001939D03*
X009945Y001934D03*
X009945Y001929D03*
X009950Y001919D03*
X009950Y001914D03*
X009955Y001894D03*
X009960Y001874D03*
X010130Y002684D03*
X010135Y002689D03*
X010140Y002694D03*
X010155Y002714D03*
X010160Y002719D03*
X010165Y002724D03*
D47*
X009088Y002699D03*
X008873Y001879D03*
X006948Y002674D03*
X006743Y001879D03*
D48*
X006748Y001884D03*
X006948Y002669D03*
X008873Y001884D03*
X009083Y002694D03*
D49*
X009083Y002689D03*
X008873Y001889D03*
X006748Y001889D03*
D50*
X006748Y001894D03*
X006943Y002659D03*
X006248Y002589D03*
X006248Y002584D03*
X006243Y002564D03*
X006238Y002544D03*
X006233Y002524D03*
X006228Y002504D03*
X006223Y002484D03*
X009083Y002684D03*
X009718Y002364D03*
X009723Y002369D03*
X009718Y002354D03*
X009718Y002349D03*
D51*
X009715Y002344D03*
X009725Y002374D03*
X008875Y001894D03*
X006240Y002549D03*
X006240Y002554D03*
X006240Y002559D03*
X006245Y002569D03*
X006245Y002574D03*
X006245Y002579D03*
X006250Y002594D03*
X006250Y002599D03*
X006235Y002539D03*
X006235Y002534D03*
X006235Y002529D03*
X006230Y002519D03*
X006230Y002514D03*
X006230Y002509D03*
X006225Y002499D03*
X006225Y002494D03*
X006225Y002489D03*
X006220Y002479D03*
X006220Y002474D03*
D52*
X006750Y001899D03*
X008875Y001899D03*
X009715Y002324D03*
X009730Y002384D03*
X009735Y002389D03*
D53*
X009738Y002394D03*
X009718Y002319D03*
X009718Y002314D03*
X009718Y002309D03*
X009078Y002674D03*
X008878Y001904D03*
X006943Y002649D03*
X006753Y001904D03*
D54*
X006753Y001909D03*
X008878Y001909D03*
X009078Y002669D03*
X009743Y002404D03*
X009748Y002409D03*
X009718Y002304D03*
X009718Y002299D03*
X009718Y002294D03*
X009718Y002289D03*
D55*
X009750Y002414D03*
X009075Y002664D03*
X008880Y001914D03*
X007605Y002304D03*
X006940Y002639D03*
X006755Y001914D03*
X007785Y003014D03*
D56*
X007615Y002309D03*
X006935Y002629D03*
X006755Y001919D03*
D57*
X006758Y001924D03*
X008883Y001919D03*
X009718Y002254D03*
X009718Y002259D03*
X009718Y002264D03*
D58*
X009535Y002084D03*
X009530Y002079D03*
X009095Y002014D03*
X008850Y002559D03*
X010060Y002604D03*
X010065Y002609D03*
X010070Y002614D03*
X010075Y002619D03*
X010080Y002624D03*
X010080Y002629D03*
X010085Y002634D03*
X010090Y002639D03*
X010095Y002644D03*
X010100Y002649D03*
X010105Y002654D03*
X007465Y002269D03*
X007460Y002249D03*
X007455Y002229D03*
X007450Y002209D03*
X007415Y002064D03*
X007410Y002044D03*
X007405Y002024D03*
X007400Y002004D03*
X007395Y001984D03*
X007390Y001964D03*
X007385Y001944D03*
X007380Y001924D03*
X006080Y002389D03*
X006080Y002394D03*
D59*
X006758Y001929D03*
X006933Y002619D03*
X008883Y001929D03*
X008883Y001924D03*
X009068Y002649D03*
X009718Y002239D03*
X009718Y002234D03*
D60*
X009720Y002229D03*
X009720Y002224D03*
X007625Y002314D03*
X006760Y001934D03*
D61*
X006933Y002614D03*
X007798Y003004D03*
X009068Y002644D03*
X009718Y002219D03*
X008883Y001934D03*
D62*
X008885Y001939D03*
X009065Y002634D03*
X009065Y002639D03*
X009720Y002214D03*
X009720Y002209D03*
X009720Y002204D03*
X006930Y002609D03*
X006760Y001939D03*
D63*
X006763Y001944D03*
X007633Y002319D03*
X006928Y002604D03*
X007803Y002999D03*
X008888Y001944D03*
X009718Y002199D03*
D64*
X009720Y002194D03*
X009720Y002189D03*
X009720Y002184D03*
X009065Y002629D03*
X006925Y002599D03*
X006765Y001949D03*
D65*
X006763Y001954D03*
X007638Y002324D03*
X006928Y002594D03*
X008888Y001949D03*
X009063Y002624D03*
X009718Y002179D03*
D66*
X009720Y002174D03*
X009720Y002169D03*
X009720Y002164D03*
X009060Y002619D03*
X008890Y001954D03*
X007645Y002329D03*
X006925Y002589D03*
X006765Y001959D03*
X007810Y002994D03*
D67*
X006923Y002584D03*
X006768Y001964D03*
X008893Y001959D03*
X009058Y002614D03*
D68*
X009055Y002609D03*
X009720Y002159D03*
X009720Y002154D03*
X009720Y002149D03*
X009720Y002144D03*
X008890Y001964D03*
X007810Y002989D03*
X006920Y002579D03*
X006920Y002574D03*
X006770Y001969D03*
D69*
X006768Y001974D03*
X007653Y002334D03*
X006918Y002569D03*
X008893Y001969D03*
D70*
X008895Y001974D03*
X009055Y002599D03*
X009055Y002604D03*
X009720Y002139D03*
X007815Y002984D03*
X006770Y001979D03*
D71*
X007820Y002979D03*
X009050Y002589D03*
X009050Y002584D03*
X008895Y001984D03*
X008895Y001979D03*
D72*
X009053Y002594D03*
X007658Y002339D03*
X006773Y001984D03*
D73*
X007663Y002344D03*
X007668Y002349D03*
X007823Y002974D03*
X009048Y002579D03*
X008898Y001994D03*
X008898Y001989D03*
D74*
X009115Y002029D03*
X008785Y002439D03*
X008790Y002454D03*
X008795Y002464D03*
X008800Y002479D03*
X008805Y002489D03*
X008810Y002499D03*
X008815Y002509D03*
X009240Y002559D03*
X009910Y002434D03*
X009915Y002439D03*
X009920Y002444D03*
X009925Y002449D03*
X009930Y002454D03*
X009935Y002459D03*
X007105Y002559D03*
X006720Y002544D03*
X006715Y002539D03*
X006710Y002534D03*
X006670Y002454D03*
X006665Y002444D03*
X006665Y002439D03*
X006660Y002429D03*
X006660Y002424D03*
X006655Y002419D03*
X006655Y002414D03*
X006655Y002409D03*
X006650Y002399D03*
X006590Y002159D03*
X006585Y002139D03*
X006585Y002134D03*
X006585Y002129D03*
X006585Y002124D03*
X006580Y002114D03*
X006580Y002109D03*
X006580Y002104D03*
X006580Y002009D03*
X006970Y001999D03*
D75*
X008900Y001999D03*
X005115Y002549D03*
X005115Y002554D03*
X005110Y002534D03*
X005110Y002529D03*
X005105Y002514D03*
X005105Y002509D03*
X005100Y002494D03*
X005100Y002489D03*
X005095Y002474D03*
X005095Y002469D03*
X005090Y002454D03*
X005090Y002449D03*
X005085Y002434D03*
X005085Y002429D03*
X005080Y002414D03*
X005080Y002409D03*
X005075Y002394D03*
X005075Y002389D03*
X005070Y002374D03*
X005070Y002369D03*
X005065Y002354D03*
X005065Y002349D03*
X005060Y002334D03*
X005060Y002329D03*
D76*
X006123Y002604D03*
X006123Y002609D03*
X006123Y002614D03*
X006123Y002619D03*
X006128Y002624D03*
X006128Y002629D03*
X006128Y002634D03*
X006128Y002639D03*
X006133Y002644D03*
X006133Y002649D03*
X006133Y002654D03*
X006133Y002659D03*
X006138Y002664D03*
X006138Y002669D03*
X006138Y002674D03*
X006138Y002679D03*
X006143Y002684D03*
X006143Y002689D03*
X006143Y002694D03*
X006143Y002699D03*
X006148Y002704D03*
X006148Y002709D03*
X006148Y002714D03*
X006148Y002719D03*
X006153Y002724D03*
X006678Y002479D03*
X006678Y002474D03*
X006678Y002469D03*
X006673Y002464D03*
X006673Y002459D03*
X006668Y002449D03*
X006663Y002434D03*
X006683Y002484D03*
X006683Y002489D03*
X006688Y002494D03*
X006688Y002499D03*
X006693Y002504D03*
X006698Y002514D03*
X006703Y002519D03*
X006703Y002524D03*
X006708Y002529D03*
X007108Y002554D03*
X006583Y002119D03*
X006578Y002099D03*
X006578Y002094D03*
X006578Y002089D03*
X006578Y002084D03*
X006578Y002079D03*
X006578Y002034D03*
X006578Y002029D03*
X006578Y002024D03*
X006578Y002019D03*
X006578Y002014D03*
X006973Y002004D03*
X009118Y002034D03*
X009123Y002039D03*
X009243Y002549D03*
X009243Y002554D03*
D77*
X008903Y002004D03*
X007673Y002354D03*
X007823Y002969D03*
X005118Y002559D03*
X005113Y002544D03*
X005113Y002539D03*
X005108Y002524D03*
X005108Y002519D03*
X005103Y002504D03*
X005103Y002499D03*
X005098Y002484D03*
X005098Y002479D03*
X005093Y002464D03*
X005093Y002459D03*
X005088Y002444D03*
X005088Y002439D03*
X005083Y002424D03*
X005083Y002419D03*
X005078Y002404D03*
X005078Y002399D03*
X005073Y002384D03*
X005073Y002379D03*
X005068Y002364D03*
X005068Y002359D03*
X005063Y002344D03*
X005063Y002339D03*
X005058Y002324D03*
D78*
X006575Y002074D03*
X006575Y002069D03*
X006575Y002064D03*
X006575Y002059D03*
X006575Y002054D03*
X006575Y002049D03*
X006575Y002044D03*
X006575Y002039D03*
X006980Y002009D03*
X007030Y002119D03*
X007035Y002139D03*
X007110Y002549D03*
X006695Y002509D03*
X009125Y002044D03*
X009130Y002049D03*
X009245Y002539D03*
X009245Y002544D03*
X010510Y003004D03*
X010510Y003009D03*
X010510Y003014D03*
X010515Y003019D03*
X010515Y003024D03*
X010515Y003029D03*
X010515Y003034D03*
X010520Y003039D03*
X010520Y003044D03*
X010520Y003049D03*
X010520Y003054D03*
X010525Y003059D03*
X010525Y003064D03*
X010525Y003069D03*
X010525Y003074D03*
X010530Y003079D03*
X010530Y003084D03*
X010530Y003089D03*
X010530Y003094D03*
D79*
X009248Y002534D03*
X009248Y002529D03*
X009248Y002524D03*
X009248Y002519D03*
X009248Y002514D03*
X009248Y002509D03*
X009248Y002504D03*
X009248Y002499D03*
X009248Y002494D03*
X009248Y002489D03*
X009243Y002469D03*
X009243Y002464D03*
X009243Y002459D03*
X009243Y002454D03*
X009238Y002439D03*
X009238Y002434D03*
X009238Y002429D03*
X009233Y002414D03*
X009233Y002409D03*
X009183Y002199D03*
X009178Y002179D03*
X009173Y002159D03*
X009163Y002124D03*
X009158Y002109D03*
X009148Y002084D03*
X009143Y002074D03*
X009138Y002064D03*
X009133Y002054D03*
X007103Y002414D03*
X007113Y002544D03*
X007033Y002134D03*
X007033Y002129D03*
X007033Y002124D03*
X007028Y002114D03*
X007028Y002109D03*
X007028Y002104D03*
X007023Y002099D03*
X007023Y002094D03*
X007023Y002089D03*
X007018Y002079D03*
X007013Y002064D03*
X007008Y002054D03*
X007003Y002044D03*
X006998Y002034D03*
X006993Y002024D03*
X006988Y002019D03*
X006983Y002014D03*
D80*
X007098Y002564D03*
X006733Y002559D03*
X006078Y002384D03*
X006073Y002379D03*
X006073Y002374D03*
X008708Y002024D03*
X008708Y002019D03*
X008843Y002549D03*
X008848Y002554D03*
X009233Y002569D03*
X009528Y002074D03*
X010013Y002549D03*
X010018Y002554D03*
X010033Y002574D03*
X010038Y002579D03*
X010043Y002584D03*
X010048Y002589D03*
X010053Y002594D03*
X010058Y002599D03*
D81*
X009245Y002484D03*
X009245Y002479D03*
X009245Y002474D03*
X009240Y002449D03*
X009240Y002444D03*
X009235Y002424D03*
X009235Y002419D03*
X009230Y002404D03*
X009230Y002399D03*
X009185Y002209D03*
X009185Y002204D03*
X009180Y002194D03*
X009180Y002189D03*
X009180Y002184D03*
X009175Y002174D03*
X009175Y002169D03*
X009175Y002164D03*
X009170Y002154D03*
X009170Y002149D03*
X009170Y002144D03*
X009165Y002139D03*
X009165Y002134D03*
X009165Y002129D03*
X009160Y002119D03*
X009160Y002114D03*
X009155Y002104D03*
X009155Y002099D03*
X009150Y002094D03*
X009150Y002089D03*
X009145Y002079D03*
X009140Y002069D03*
X009135Y002059D03*
X009110Y002754D03*
X007115Y002539D03*
X007115Y002534D03*
X007115Y002529D03*
X007115Y002484D03*
X007115Y002479D03*
X007110Y002459D03*
X007110Y002454D03*
X007110Y002449D03*
X007110Y002444D03*
X007110Y002439D03*
X007105Y002434D03*
X007105Y002429D03*
X007105Y002424D03*
X007105Y002419D03*
X007100Y002409D03*
X007100Y002404D03*
X007100Y002399D03*
X007020Y002084D03*
X007015Y002074D03*
X007015Y002069D03*
X007010Y002059D03*
X007005Y002049D03*
X007000Y002039D03*
X006995Y002029D03*
D82*
X006105Y002434D03*
X008015Y002554D03*
X008020Y002559D03*
X008060Y002774D03*
X008875Y002574D03*
X009560Y002134D03*
D83*
X007710Y002404D03*
X006860Y002364D03*
X006855Y002349D03*
X006855Y002344D03*
X006855Y002339D03*
X006850Y002329D03*
X006850Y002324D03*
X006850Y002319D03*
X006845Y002314D03*
X006845Y002309D03*
X006845Y002304D03*
X006845Y002299D03*
X006840Y002294D03*
X006840Y002289D03*
X006840Y002284D03*
X006840Y002279D03*
X006835Y002274D03*
X006835Y002269D03*
X006835Y002264D03*
X006835Y002259D03*
X006830Y002254D03*
X006830Y002249D03*
X006830Y002244D03*
X006830Y002239D03*
X006825Y002234D03*
D84*
X006935Y002624D03*
X007790Y003009D03*
X009070Y002654D03*
X009720Y002249D03*
X009720Y002244D03*
D85*
X009718Y002269D03*
X009718Y002274D03*
X009718Y002279D03*
X009718Y002284D03*
X009753Y002419D03*
X009753Y002424D03*
X009758Y002429D03*
X009073Y002659D03*
X006938Y002634D03*
D86*
X007580Y002294D03*
D87*
X007593Y002299D03*
X006943Y002654D03*
X007773Y003019D03*
X009078Y002679D03*
X009728Y002379D03*
X009718Y002339D03*
X009718Y002334D03*
X009718Y002329D03*
D88*
X007838Y002914D03*
X007838Y002919D03*
X007708Y002399D03*
X006868Y002394D03*
X006868Y002389D03*
X006863Y002379D03*
X006863Y002374D03*
X006863Y002369D03*
X006858Y002359D03*
X006858Y002354D03*
X006853Y002334D03*
D89*
X007678Y002359D03*
X007828Y002959D03*
D90*
X006945Y002664D03*
X009715Y002359D03*
D91*
X007830Y002954D03*
X007680Y002364D03*
D92*
X007688Y002369D03*
X005233Y002974D03*
X005228Y002954D03*
X005223Y002934D03*
X005218Y002914D03*
X005213Y002894D03*
X005208Y002874D03*
X005208Y002869D03*
X005203Y002849D03*
X005198Y002829D03*
X005193Y002809D03*
X005188Y002789D03*
X005238Y002994D03*
X005243Y003014D03*
D93*
X005240Y003009D03*
X005240Y003004D03*
X005240Y002999D03*
X005235Y002989D03*
X005235Y002984D03*
X005235Y002979D03*
X005230Y002969D03*
X005230Y002964D03*
X005230Y002959D03*
X005225Y002949D03*
X005225Y002944D03*
X005225Y002939D03*
X005220Y002929D03*
X005220Y002924D03*
X005220Y002919D03*
X005215Y002909D03*
X005215Y002904D03*
X005215Y002899D03*
X005210Y002889D03*
X005210Y002884D03*
X005210Y002879D03*
X005205Y002864D03*
X005205Y002859D03*
X005205Y002854D03*
X005200Y002844D03*
X005200Y002839D03*
X005200Y002834D03*
X005195Y002824D03*
X005195Y002819D03*
X005195Y002814D03*
X005190Y002804D03*
X005190Y002799D03*
X005190Y002794D03*
X005185Y002784D03*
X005185Y002779D03*
X005245Y003019D03*
X005245Y003024D03*
X007690Y002374D03*
X007830Y002949D03*
D94*
X007835Y002934D03*
X007695Y002379D03*
D95*
X007705Y002394D03*
X006865Y002384D03*
X007835Y002924D03*
X007835Y002929D03*
D96*
X007703Y002389D03*
X007698Y002384D03*
D97*
X006940Y002644D03*
X009740Y002399D03*
D98*
X007838Y002904D03*
X007838Y002909D03*
X007718Y002409D03*
D99*
X007720Y002414D03*
X007840Y002894D03*
X007840Y002899D03*
D100*
X007838Y002889D03*
X007728Y002429D03*
X007723Y002419D03*
D101*
X007725Y002424D03*
X007730Y002434D03*
X007840Y002874D03*
X007840Y002879D03*
X007840Y002884D03*
D102*
X006110Y002439D03*
D103*
X007733Y002439D03*
D104*
X007735Y002444D03*
X007740Y002449D03*
X007840Y002854D03*
X007840Y002859D03*
X007840Y002864D03*
X007840Y002869D03*
D105*
X007838Y002849D03*
X007743Y002459D03*
X007743Y002454D03*
D106*
X009100Y002729D03*
X006155Y002464D03*
D107*
X007113Y002464D03*
X007113Y002469D03*
X007113Y002474D03*
X007118Y002489D03*
X007118Y002494D03*
X007118Y002499D03*
X007118Y002504D03*
X007118Y002509D03*
X007118Y002514D03*
X007118Y002519D03*
X007118Y002524D03*
D108*
X007745Y002464D03*
X007750Y002469D03*
X007840Y002834D03*
X007840Y002839D03*
X007840Y002844D03*
D109*
X006483Y002469D03*
D110*
X007753Y002474D03*
X007753Y002479D03*
X007838Y002814D03*
X007838Y002819D03*
X007838Y002824D03*
X007838Y002829D03*
D111*
X007835Y002809D03*
X007835Y002804D03*
X007835Y002799D03*
X007760Y002494D03*
X007760Y002489D03*
X007755Y002484D03*
D112*
X007763Y002499D03*
X007763Y002504D03*
X007768Y002509D03*
D113*
X007770Y002514D03*
D114*
X007990Y002529D03*
D115*
X008013Y002549D03*
X008058Y002779D03*
X009103Y002744D03*
D116*
X006405Y002619D03*
D117*
X006408Y002624D03*
D118*
X006410Y002629D03*
X006415Y002634D03*
X006415Y002639D03*
D119*
X006418Y002644D03*
D120*
X006420Y002649D03*
X006425Y002654D03*
D121*
X006428Y002659D03*
D122*
X006430Y002664D03*
D123*
X009128Y002764D03*
X010428Y002664D03*
X010433Y002684D03*
X010438Y002704D03*
X010443Y002724D03*
X010448Y002744D03*
X010453Y002764D03*
X010458Y002784D03*
X010463Y002804D03*
X010463Y002809D03*
X010468Y002824D03*
X010468Y002829D03*
X010473Y002844D03*
X010473Y002849D03*
X010478Y002864D03*
X010478Y002869D03*
X010483Y002884D03*
X010483Y002889D03*
X010488Y002904D03*
X010488Y002909D03*
X010493Y002924D03*
X010493Y002929D03*
X010498Y002944D03*
X010498Y002949D03*
X010503Y002964D03*
X010503Y002969D03*
X010508Y002984D03*
X010508Y002989D03*
X010813Y002744D03*
X010813Y002739D03*
D124*
X010793Y002664D03*
D125*
X006438Y002674D03*
X006433Y002669D03*
D126*
X010795Y002669D03*
X010795Y002674D03*
X010800Y002684D03*
X010800Y002689D03*
D127*
X010808Y002714D03*
X010808Y002719D03*
X010663Y002754D03*
X010658Y002734D03*
X010653Y002714D03*
X010648Y002694D03*
X010643Y002674D03*
X010668Y002774D03*
X010673Y002794D03*
X010678Y002814D03*
X010683Y002834D03*
X010688Y002854D03*
X010688Y002859D03*
X010693Y002874D03*
X010693Y002879D03*
X010698Y002894D03*
X010698Y002899D03*
X010703Y002914D03*
X010703Y002919D03*
X010708Y002934D03*
X010708Y002939D03*
X010713Y002954D03*
X010713Y002959D03*
X011003Y002884D03*
X010998Y002864D03*
X011008Y002904D03*
X011013Y002924D03*
X011018Y002944D03*
X010963Y002719D03*
X010958Y002699D03*
X010953Y002679D03*
X006508Y002744D03*
D128*
X006950Y002679D03*
D129*
X010798Y002679D03*
X010803Y002694D03*
X010803Y002699D03*
D130*
X006445Y002684D03*
D131*
X006953Y002684D03*
D132*
X006953Y002689D03*
D133*
X006955Y002694D03*
D134*
X006458Y002699D03*
D135*
X006955Y002699D03*
D136*
X006460Y002704D03*
X010755Y002969D03*
X010755Y002974D03*
X010755Y002979D03*
X010985Y002969D03*
X010985Y002964D03*
X010990Y002984D03*
D137*
X010988Y002979D03*
X010988Y002974D03*
X010993Y002989D03*
X010993Y002994D03*
X010998Y003004D03*
X010758Y002999D03*
X010758Y002994D03*
X010758Y002989D03*
X010758Y002984D03*
X006463Y002709D03*
D138*
X006470Y002714D03*
X010760Y003004D03*
X010760Y003009D03*
X010760Y003014D03*
X010760Y003019D03*
X010765Y003024D03*
X010765Y003029D03*
X010765Y003034D03*
X010765Y003039D03*
X010995Y002999D03*
X011000Y003009D03*
X011000Y003014D03*
X011005Y003024D03*
X011005Y003029D03*
D139*
X011015Y003054D03*
X011015Y003059D03*
X011020Y003064D03*
X011020Y003069D03*
X011020Y003074D03*
X011025Y003084D03*
X010770Y003079D03*
X010770Y003074D03*
X010770Y003069D03*
X010770Y003064D03*
X006475Y002719D03*
D140*
X009093Y002719D03*
D141*
X010773Y003084D03*
X010773Y003089D03*
X010773Y003094D03*
X011023Y003079D03*
X011028Y003089D03*
X011028Y003094D03*
X010838Y002839D03*
X006478Y002724D03*
D142*
X006483Y002729D03*
X010833Y002814D03*
X010833Y002819D03*
X010833Y002824D03*
D143*
X010828Y002799D03*
X010828Y002794D03*
X006493Y002734D03*
D144*
X006500Y002739D03*
X010815Y002749D03*
X010815Y002754D03*
D145*
X009103Y002739D03*
D146*
X010798Y002844D03*
X010798Y002849D03*
X010798Y002854D03*
X010798Y002859D03*
X010803Y002864D03*
X010803Y002869D03*
X010803Y002874D03*
X010803Y002879D03*
X010803Y002884D03*
X010803Y002889D03*
X010803Y002894D03*
X010803Y002899D03*
X010803Y002904D03*
X010803Y002909D03*
X010803Y002914D03*
X010803Y002919D03*
X010803Y002924D03*
X010803Y002929D03*
X010803Y002934D03*
X010803Y002939D03*
X010808Y002949D03*
X010808Y002954D03*
X010808Y002959D03*
X010808Y002964D03*
X010908Y002914D03*
X010908Y002909D03*
X010903Y002899D03*
X010903Y002894D03*
X010898Y002889D03*
X010898Y002884D03*
X010893Y002879D03*
X010893Y002874D03*
X010888Y002869D03*
X010888Y002864D03*
X010883Y002854D03*
X010883Y002849D03*
X010878Y002844D03*
X010913Y002919D03*
X010913Y002924D03*
X010918Y002929D03*
X010918Y002934D03*
X010923Y002944D03*
X010928Y002954D03*
X010928Y002959D03*
X006523Y002749D03*
D147*
X010818Y002759D03*
X010818Y002764D03*
X010823Y002774D03*
X010823Y002779D03*
D148*
X010825Y002784D03*
X010825Y002789D03*
X010820Y002769D03*
D149*
X010830Y002804D03*
X010830Y002809D03*
D150*
X010835Y002829D03*
X010835Y002834D03*
D151*
X010885Y002859D03*
X010905Y002904D03*
X010920Y002939D03*
X010925Y002949D03*
X010805Y002944D03*
D152*
X007833Y002944D03*
X007833Y002939D03*
D153*
X007825Y002964D03*
D154*
X010768Y003044D03*
X010768Y003049D03*
X010768Y003054D03*
X010768Y003059D03*
X011003Y003019D03*
X011008Y003034D03*
X011008Y003039D03*
X011013Y003044D03*
X011013Y003049D03*
D155*
X007755Y003024D03*
D156*
X008572Y015254D03*
X009152Y015424D03*
X010272Y015424D03*
D157*
X010857Y015254D03*
X010857Y018234D03*
X008567Y018234D03*
D158*
X009147Y015434D03*
X008567Y015264D03*
X010857Y015264D03*
D159*
X010852Y015274D03*
X008572Y015274D03*
X008572Y018214D03*
X010852Y018214D03*
D160*
X010852Y015284D03*
X008572Y015284D03*
D161*
X008577Y015294D03*
X008577Y018194D03*
X010847Y018194D03*
D162*
X010302Y015464D03*
X010852Y015294D03*
X009122Y015464D03*
D163*
X008577Y015304D03*
X010847Y015304D03*
D164*
X009102Y015494D03*
X008582Y015314D03*
X008582Y018174D03*
X010842Y018174D03*
D165*
X009107Y015484D03*
X010847Y015314D03*
D166*
X010842Y015324D03*
X010332Y015504D03*
X008582Y015324D03*
D167*
X008582Y015334D03*
X010842Y015334D03*
D168*
X010837Y015344D03*
X008587Y015344D03*
X008587Y018144D03*
X010837Y018144D03*
D169*
X010837Y015354D03*
X008587Y015354D03*
D170*
X008592Y015364D03*
X010832Y015364D03*
X010832Y018124D03*
X008592Y018124D03*
D171*
X008592Y015374D03*
X010832Y015374D03*
D172*
X010827Y015384D03*
X008597Y015384D03*
X008597Y018104D03*
X010827Y018104D03*
D173*
X008602Y015394D03*
D174*
X010827Y015394D03*
D175*
X010827Y015404D03*
X008607Y015404D03*
D176*
X008607Y015414D03*
D177*
X010822Y015414D03*
D178*
X008607Y015424D03*
X008607Y018074D03*
X010817Y018074D03*
D179*
X010822Y015424D03*
D180*
X008612Y015434D03*
D181*
X010282Y015434D03*
D182*
X010817Y015434D03*
X010817Y018054D03*
D183*
X008612Y018054D03*
X008612Y015444D03*
D184*
X009137Y015444D03*
X010287Y015444D03*
D185*
X010817Y015444D03*
X009717Y018614D03*
D186*
X009712Y018594D03*
X009712Y018584D03*
X009712Y018574D03*
X009712Y018564D03*
X009712Y018554D03*
X010812Y015454D03*
X008612Y015454D03*
D187*
X009127Y015454D03*
X010297Y015454D03*
D188*
X010812Y015464D03*
X008612Y015464D03*
X009712Y018494D03*
X009712Y018504D03*
X009712Y018514D03*
X009712Y018524D03*
X009712Y018534D03*
D189*
X009717Y018434D03*
X010807Y018014D03*
X010807Y015474D03*
X008617Y015474D03*
D190*
X009112Y015474D03*
X010312Y015474D03*
D191*
X008622Y015484D03*
X008622Y018014D03*
X009712Y018384D03*
X009712Y018394D03*
X009712Y018404D03*
X009712Y018414D03*
X009712Y018424D03*
D192*
X010842Y018184D03*
X008582Y018184D03*
X010322Y015484D03*
D193*
X010807Y015484D03*
X009717Y018374D03*
D194*
X009712Y018314D03*
X009712Y018304D03*
X009712Y018294D03*
X010802Y017994D03*
X008622Y017994D03*
X008622Y015494D03*
X010802Y015494D03*
D195*
X010327Y015494D03*
D196*
X008627Y015504D03*
X008627Y017984D03*
X009717Y018224D03*
X010797Y017984D03*
D197*
X010837Y018164D03*
X008587Y018164D03*
X009097Y015504D03*
D198*
X010802Y015504D03*
X009712Y018234D03*
X009712Y018244D03*
X009712Y018254D03*
D199*
X010677Y015514D03*
X008747Y015514D03*
D200*
X008742Y015524D03*
X008922Y015964D03*
X008932Y015984D03*
X008942Y015994D03*
X008942Y016004D03*
X010482Y016004D03*
X010482Y015994D03*
X010492Y015984D03*
X010482Y016014D03*
X010682Y015524D03*
D201*
X010682Y015534D03*
X010542Y015894D03*
X010532Y015904D03*
X010532Y015914D03*
X010522Y015924D03*
X010512Y015944D03*
X010482Y016034D03*
X008942Y016034D03*
X008912Y015944D03*
X008902Y015924D03*
X008892Y015904D03*
X008882Y015884D03*
X008742Y015534D03*
X009712Y018054D03*
D202*
X010477Y016054D03*
X010477Y016044D03*
X010547Y015884D03*
X010557Y015864D03*
X010687Y015544D03*
X008947Y016044D03*
X008887Y015894D03*
X008877Y015874D03*
X008737Y015544D03*
D203*
X008737Y015554D03*
X008827Y015784D03*
X008837Y015804D03*
X008847Y015824D03*
X008947Y016064D03*
X008947Y016074D03*
X010477Y016074D03*
X010587Y015804D03*
X010597Y015794D03*
X010607Y015774D03*
X010597Y017104D03*
D204*
X010482Y016064D03*
X010552Y015874D03*
X010562Y015854D03*
X010572Y015844D03*
X010572Y015834D03*
X010582Y015824D03*
X010582Y015814D03*
X010692Y015554D03*
X008942Y016054D03*
X008872Y015864D03*
X008862Y015854D03*
X008862Y015844D03*
X008852Y015834D03*
X008842Y015814D03*
D205*
X008832Y015794D03*
X008822Y015774D03*
X008812Y015764D03*
X008812Y015754D03*
X008732Y015564D03*
X008822Y016394D03*
X008822Y017094D03*
X008832Y017104D03*
X008842Y017114D03*
X010572Y017134D03*
X010582Y017124D03*
X010592Y017114D03*
X010602Y017094D03*
X010602Y016394D03*
X010602Y016384D03*
X010592Y016374D03*
X010482Y016084D03*
X010602Y015784D03*
X010612Y015764D03*
X010622Y015744D03*
X010692Y015564D03*
D206*
X010697Y015574D03*
X010647Y015704D03*
X010637Y015714D03*
X010637Y015724D03*
X010627Y015734D03*
X010617Y015754D03*
X010477Y016094D03*
X010477Y016104D03*
X010587Y016364D03*
X010617Y016404D03*
X010567Y017144D03*
X009717Y018044D03*
X008857Y017134D03*
X008847Y017124D03*
X008807Y016404D03*
X008827Y016384D03*
X008837Y016374D03*
X008947Y016094D03*
X008947Y016084D03*
X008807Y015744D03*
X008797Y015734D03*
X008787Y015714D03*
X008727Y015574D03*
D207*
X008727Y015584D03*
X008727Y015594D03*
X008747Y015644D03*
X008757Y015654D03*
X008757Y015664D03*
X008947Y016114D03*
X008947Y016124D03*
X008857Y016344D03*
X008787Y016414D03*
X008867Y017154D03*
X008877Y017164D03*
X010547Y017164D03*
X010557Y017154D03*
X010637Y016414D03*
X010577Y016354D03*
X010567Y016344D03*
X010477Y016124D03*
X010477Y016114D03*
X010667Y015664D03*
X010677Y015644D03*
X010697Y015594D03*
X010697Y015584D03*
D208*
X010692Y015604D03*
X010692Y015614D03*
X010692Y015624D03*
X010682Y015634D03*
X010672Y015654D03*
X010482Y016134D03*
X010552Y016324D03*
X010562Y016334D03*
X010542Y017174D03*
X008882Y017174D03*
X008862Y016334D03*
X008872Y016324D03*
X008742Y015634D03*
X008732Y015624D03*
X008732Y015614D03*
X008722Y015604D03*
D209*
X008762Y015674D03*
X008772Y015684D03*
X008772Y015694D03*
X008782Y015704D03*
X008792Y015724D03*
X008942Y016104D03*
X008852Y016354D03*
X008842Y016364D03*
X008802Y017084D03*
X008862Y017144D03*
X010622Y017084D03*
X010652Y015694D03*
X010652Y015684D03*
X010662Y015674D03*
D210*
X010517Y015934D03*
X010507Y015954D03*
X010497Y015964D03*
X010497Y015974D03*
X010477Y016024D03*
X008947Y016024D03*
X008947Y016014D03*
X008927Y015974D03*
X008917Y015954D03*
X008907Y015934D03*
X008897Y015914D03*
D211*
X008947Y016134D03*
X008947Y016144D03*
X008947Y016154D03*
X008877Y016314D03*
X008897Y017184D03*
X010527Y017184D03*
X010547Y016314D03*
X010477Y016144D03*
D212*
X010482Y016154D03*
X010532Y016304D03*
X010652Y017074D03*
X010522Y017194D03*
X009712Y018034D03*
X008772Y017074D03*
X008892Y016304D03*
D213*
X008897Y016294D03*
X008947Y016174D03*
X008947Y016164D03*
X008757Y016424D03*
X008907Y017194D03*
X008917Y017204D03*
X010527Y016294D03*
X010477Y016174D03*
X010477Y016164D03*
D214*
X010522Y016284D03*
X010672Y016424D03*
X010512Y017204D03*
X010502Y017214D03*
X008902Y016284D03*
X008952Y016184D03*
D215*
X008947Y016194D03*
X008947Y016204D03*
X008917Y016274D03*
X008927Y017214D03*
X010507Y016274D03*
X010477Y016194D03*
X010477Y016184D03*
D216*
X010482Y016204D03*
X010502Y016264D03*
X010682Y017064D03*
X010492Y017224D03*
X009712Y018024D03*
X008942Y017224D03*
X008742Y017064D03*
X008922Y016264D03*
D217*
X008937Y016254D03*
X008947Y016224D03*
X008947Y016214D03*
X010477Y016214D03*
X010477Y017234D03*
D218*
X010492Y016254D03*
X010482Y016244D03*
X010482Y016234D03*
X010482Y016224D03*
X008942Y016234D03*
X008942Y016244D03*
X008952Y017234D03*
D219*
X008727Y016434D03*
X010707Y016434D03*
D220*
X010732Y016444D03*
X008692Y016444D03*
D221*
X008657Y016454D03*
X010767Y016454D03*
D222*
X008637Y016464D03*
D223*
X010792Y016464D03*
D224*
X008607Y016474D03*
D225*
X010822Y016474D03*
D226*
X010852Y016484D03*
X010912Y016634D03*
X010912Y016644D03*
X010912Y016654D03*
X010912Y016664D03*
X010912Y016674D03*
X010912Y016684D03*
X010912Y016694D03*
X010912Y016704D03*
X010912Y016794D03*
X010912Y016804D03*
X010912Y016814D03*
X010912Y016824D03*
X010912Y016834D03*
X010912Y016844D03*
X010912Y016854D03*
X008572Y016484D03*
X008512Y016654D03*
X008512Y016664D03*
X008512Y016674D03*
X008512Y016684D03*
X008512Y016694D03*
X008512Y016704D03*
X008512Y016714D03*
X008512Y016724D03*
X008512Y016734D03*
X008512Y016744D03*
X008512Y016754D03*
X008512Y016764D03*
X008512Y016774D03*
X008512Y016784D03*
X008512Y016794D03*
X008512Y016804D03*
X008512Y016814D03*
X008512Y016824D03*
X008512Y016834D03*
D227*
X008537Y016974D03*
X008537Y016984D03*
X008537Y016514D03*
X008537Y016504D03*
X008547Y016494D03*
X010877Y016494D03*
X010887Y016504D03*
X010887Y016514D03*
X010887Y016974D03*
X010887Y016984D03*
X010877Y016994D03*
D228*
X010892Y016964D03*
X010892Y016954D03*
X010892Y016534D03*
X010892Y016524D03*
X009712Y017964D03*
X008532Y016964D03*
X008532Y016954D03*
X008532Y016944D03*
X008532Y016534D03*
X008532Y016524D03*
D229*
X008527Y016544D03*
X008527Y016554D03*
X008527Y016564D03*
X008527Y016574D03*
X008527Y016914D03*
X008527Y016924D03*
X008527Y016934D03*
X008557Y017004D03*
X010867Y017004D03*
X010897Y016944D03*
X010897Y016934D03*
X010897Y016924D03*
X010897Y016564D03*
X010897Y016554D03*
X010897Y016544D03*
D230*
X010902Y016574D03*
X010902Y016584D03*
X010902Y016594D03*
X010902Y016894D03*
X010902Y016904D03*
X010902Y016914D03*
X008522Y016904D03*
X008522Y016894D03*
X008522Y016884D03*
X008522Y016604D03*
X008522Y016594D03*
X008522Y016584D03*
D231*
X008517Y016614D03*
X008517Y016624D03*
X008517Y016634D03*
X008517Y016644D03*
X008517Y016844D03*
X008517Y016854D03*
X008517Y016864D03*
X008517Y016874D03*
X010907Y016874D03*
X010907Y016864D03*
X010907Y016884D03*
X010907Y016624D03*
X010907Y016614D03*
X010907Y016604D03*
D232*
X010917Y016714D03*
X010917Y016724D03*
X010917Y016734D03*
X010917Y016744D03*
X010917Y016754D03*
X010917Y016764D03*
X010917Y016774D03*
X010917Y016784D03*
D233*
X008542Y016994D03*
D234*
X008592Y017014D03*
X009712Y017974D03*
X010832Y017014D03*
D235*
X010807Y017024D03*
X008627Y017024D03*
D236*
X008652Y017034D03*
X009712Y017994D03*
X010772Y017034D03*
D237*
X010742Y017044D03*
X009712Y018004D03*
X009002Y017264D03*
X008682Y017044D03*
D238*
X008712Y017054D03*
X008982Y017254D03*
D239*
X009717Y018014D03*
X010717Y017054D03*
D240*
X010462Y017244D03*
X008962Y017244D03*
D241*
X010447Y017254D03*
D242*
X010427Y017264D03*
D243*
X010397Y017274D03*
X009037Y017274D03*
D244*
X009712Y017284D03*
X009712Y017584D03*
D245*
X009717Y017294D03*
D246*
X009712Y017304D03*
X009712Y017314D03*
X009712Y017564D03*
X009712Y017574D03*
D247*
X009712Y017554D03*
X009712Y017334D03*
X009712Y017324D03*
D248*
X009707Y017344D03*
D249*
X009712Y017354D03*
X009712Y017364D03*
X009712Y017534D03*
X009712Y017544D03*
D250*
X009712Y017524D03*
X009712Y017384D03*
X009712Y017374D03*
D251*
X009712Y017394D03*
X009712Y017404D03*
X009712Y017514D03*
D252*
X009717Y017504D03*
X009717Y017414D03*
D253*
X009712Y017424D03*
X009712Y017434D03*
X009712Y017494D03*
D254*
X009712Y017484D03*
X009712Y017474D03*
X009712Y017464D03*
X009712Y017454D03*
X009712Y017444D03*
D255*
X009717Y017594D03*
D256*
X009717Y017604D03*
D257*
X009712Y017614D03*
D258*
X009712Y017624D03*
D259*
X009717Y017634D03*
D260*
X009712Y017644D03*
D261*
X009712Y017654D03*
D262*
X009717Y017664D03*
D263*
X009712Y017674D03*
D264*
X009712Y017684D03*
D265*
X009717Y017694D03*
D266*
X009712Y017704D03*
D267*
X009712Y017714D03*
D268*
X009717Y017724D03*
D269*
X009712Y017734D03*
D270*
X009712Y017744D03*
D271*
X009712Y017754D03*
X009712Y017764D03*
D272*
X009712Y017774D03*
D273*
X009712Y017784D03*
X009712Y017794D03*
D274*
X009712Y017804D03*
X009712Y017954D03*
D275*
X009712Y017944D03*
X009712Y017814D03*
D276*
X009717Y017824D03*
D277*
X009712Y017834D03*
X009712Y017934D03*
D278*
X009712Y017924D03*
X009712Y017844D03*
D279*
X009717Y017854D03*
D280*
X009712Y017864D03*
X009712Y017914D03*
D281*
X009712Y017904D03*
X009712Y017884D03*
X009712Y017874D03*
D282*
X009707Y017894D03*
D283*
X009712Y018114D03*
X010792Y017964D03*
X008632Y017964D03*
D284*
X008627Y017974D03*
X009717Y018164D03*
X009717Y018174D03*
X010797Y017974D03*
D285*
X009712Y017984D03*
D286*
X009712Y018334D03*
X009712Y018344D03*
X009712Y018354D03*
X009712Y018364D03*
X010802Y018004D03*
X008622Y018004D03*
D287*
X008617Y018024D03*
X010807Y018024D03*
D288*
X010807Y018034D03*
X009707Y018544D03*
X008617Y018034D03*
D289*
X008612Y018044D03*
X009712Y018604D03*
X010812Y018044D03*
D290*
X010817Y018064D03*
X008607Y018064D03*
D291*
X009712Y018064D03*
D292*
X009712Y018074D03*
D293*
X010822Y018084D03*
X008602Y018084D03*
D294*
X009712Y018084D03*
D295*
X010822Y018094D03*
X008602Y018094D03*
D296*
X009712Y018094D03*
D297*
X009712Y018104D03*
D298*
X010827Y018114D03*
X008597Y018114D03*
D299*
X009712Y018124D03*
X009712Y018134D03*
X009712Y018144D03*
X009712Y018154D03*
D300*
X010832Y018134D03*
X008592Y018134D03*
D301*
X008587Y018154D03*
X010837Y018154D03*
D302*
X009712Y018184D03*
X009712Y018194D03*
X009712Y018204D03*
X009712Y018214D03*
D303*
X010847Y018204D03*
X008577Y018204D03*
D304*
X008572Y018224D03*
X010852Y018224D03*
D305*
X009717Y018264D03*
X009717Y018274D03*
X009717Y018284D03*
D306*
X009717Y018324D03*
D307*
X009712Y018444D03*
X009712Y018454D03*
X009712Y018464D03*
X009712Y018474D03*
X009712Y018484D03*
D308*
X009761Y003693D03*
D309*
X009761Y003713D03*
D310*
X009761Y003733D03*
X009761Y003753D03*
X009761Y003773D03*
X009761Y003793D03*
X009761Y003813D03*
X009761Y003833D03*
D311*
X007641Y003853D03*
X007641Y003873D03*
X007641Y003893D03*
D312*
X007601Y004373D03*
X007641Y004393D03*
X007641Y005993D03*
X006641Y005993D03*
X009941Y003853D03*
X011741Y004153D03*
X010261Y006133D03*
D313*
X010861Y003853D03*
D314*
X010151Y004253D03*
X009711Y004213D03*
X009331Y005233D03*
X009311Y005293D03*
X009291Y005353D03*
X009291Y005373D03*
X009291Y005393D03*
X009291Y005413D03*
X009271Y005493D03*
X009271Y005513D03*
X009291Y005593D03*
X009291Y005613D03*
X009291Y005633D03*
X009291Y005653D03*
X009311Y005713D03*
X009991Y005813D03*
X009991Y005973D03*
X010651Y005753D03*
X010651Y005733D03*
X010671Y005673D03*
X010691Y005613D03*
X010691Y005593D03*
X010691Y005573D03*
X010691Y005553D03*
X010691Y005533D03*
X010691Y005513D03*
X010691Y005493D03*
X010691Y005473D03*
X010691Y005453D03*
X010691Y005433D03*
X010691Y005413D03*
X010691Y005393D03*
X010691Y005373D03*
X010671Y005313D03*
X010651Y005253D03*
X011191Y005373D03*
X011191Y005393D03*
X011191Y005413D03*
X011191Y005433D03*
X011191Y005453D03*
X011191Y005473D03*
X011191Y005493D03*
X011191Y005513D03*
X011191Y005533D03*
X011191Y005553D03*
X011191Y005573D03*
X011191Y005593D03*
X011191Y005613D03*
X011211Y005673D03*
X011211Y005693D03*
X011231Y005733D03*
X011211Y005313D03*
X011231Y005253D03*
X011611Y004193D03*
X011611Y004173D03*
X011611Y003953D03*
X011751Y003853D03*
X011851Y004173D03*
X012551Y005233D03*
X012571Y005273D03*
X012571Y005293D03*
X012591Y005353D03*
X012591Y005373D03*
X012591Y005393D03*
X012591Y005413D03*
X012591Y005433D03*
X012591Y005553D03*
X012591Y005573D03*
X012591Y005593D03*
X012591Y005613D03*
X012591Y005633D03*
X012591Y005653D03*
X012571Y005693D03*
X012571Y005713D03*
X007631Y005033D03*
X007031Y005033D03*
D315*
X006851Y004893D03*
X006451Y004533D03*
X006431Y004553D03*
X006411Y004573D03*
X007451Y004893D03*
X007891Y004613D03*
X007911Y004633D03*
X007891Y005773D03*
X007871Y005793D03*
X007851Y005813D03*
X007831Y005833D03*
X006431Y005833D03*
X006371Y005753D03*
X009611Y006093D03*
X010351Y006093D03*
X011531Y006093D03*
X012271Y006093D03*
X011711Y005233D03*
X011551Y004893D03*
X011511Y004913D03*
X011851Y004293D03*
X012031Y003853D03*
X010371Y004913D03*
X009971Y003873D03*
D316*
X008771Y004253D03*
X013011Y003933D03*
X013011Y003913D03*
X013011Y003893D03*
X013011Y003853D03*
D317*
X010851Y003873D03*
D318*
X010151Y004213D03*
X009951Y004213D03*
X009951Y004193D03*
X009931Y004253D03*
X009911Y004273D03*
X009891Y004293D03*
X011771Y003873D03*
X011831Y004033D03*
X011831Y004053D03*
X012031Y004053D03*
X013711Y006433D03*
X007611Y005333D03*
X007631Y005053D03*
X007011Y005333D03*
X005811Y006433D03*
D319*
X006421Y005813D03*
X006401Y005793D03*
X006381Y005773D03*
X006361Y005733D03*
X006341Y005713D03*
X006321Y005693D03*
X006301Y005653D03*
X006281Y005613D03*
X006701Y005373D03*
X007301Y005373D03*
X007901Y005753D03*
X007921Y005733D03*
X007961Y005673D03*
X007981Y005633D03*
X007941Y004673D03*
X007921Y004653D03*
X007881Y004593D03*
X007861Y004573D03*
X006401Y004593D03*
X006381Y004613D03*
X006361Y004633D03*
X006341Y004653D03*
X006341Y004673D03*
X006321Y004693D03*
X009601Y004913D03*
X009981Y005013D03*
X009981Y005033D03*
X009981Y005053D03*
X009981Y005073D03*
X009981Y005093D03*
X009981Y005113D03*
X009981Y005133D03*
X009981Y005153D03*
X009981Y005173D03*
X009981Y005193D03*
X009981Y005213D03*
X009981Y005233D03*
X009981Y005253D03*
X009981Y005273D03*
X009981Y005293D03*
X009981Y005313D03*
X009981Y005333D03*
X009981Y005353D03*
X009981Y005373D03*
X010401Y004933D03*
X011481Y004933D03*
X011641Y005573D03*
X011701Y005733D03*
X012101Y005733D03*
X012121Y005713D03*
X012301Y006073D03*
X011501Y006073D03*
X011461Y006053D03*
X010421Y006053D03*
X010381Y006073D03*
X009581Y006073D03*
X012101Y005253D03*
X012121Y005273D03*
X012301Y004933D03*
X012281Y004913D03*
X012341Y004953D03*
X012021Y003873D03*
D320*
X013021Y003873D03*
X008781Y004273D03*
X008781Y004293D03*
D321*
X008051Y004913D03*
X008031Y004853D03*
X008011Y004813D03*
X008011Y004793D03*
X007991Y004773D03*
X007991Y004753D03*
X007971Y004733D03*
X007971Y004713D03*
X007951Y004693D03*
X007291Y005013D03*
X007291Y005353D03*
X007451Y005493D03*
X007611Y005373D03*
X008011Y005573D03*
X008031Y005533D03*
X008051Y005453D03*
X007991Y005613D03*
X007971Y005653D03*
X007951Y005693D03*
X007931Y005713D03*
X007011Y005373D03*
X006851Y005493D03*
X006671Y005033D03*
X006691Y005013D03*
X006271Y004793D03*
X006271Y004773D03*
X006291Y004753D03*
X006291Y004733D03*
X006311Y004713D03*
X006251Y004813D03*
X006251Y004833D03*
X006231Y004873D03*
X006211Y004953D03*
X006211Y005433D03*
X006231Y005493D03*
X006251Y005553D03*
X006271Y005593D03*
X006291Y005633D03*
X006311Y005673D03*
X007151Y004153D03*
X009551Y004953D03*
X009571Y004933D03*
X010431Y004953D03*
X010451Y004973D03*
X011431Y004973D03*
X011451Y004953D03*
X011691Y005253D03*
X011671Y005273D03*
X011891Y005093D03*
X012151Y005313D03*
X012171Y005353D03*
X012191Y005493D03*
X012151Y005673D03*
X012351Y006033D03*
X012331Y006053D03*
X011691Y005713D03*
X011671Y005693D03*
X011431Y006033D03*
X010451Y006033D03*
X009991Y005913D03*
X009991Y005893D03*
X009991Y005873D03*
X009551Y006053D03*
X009531Y006033D03*
X009511Y006013D03*
X011851Y004273D03*
X012031Y003893D03*
X009991Y003893D03*
D322*
X010841Y003893D03*
X010861Y004073D03*
D323*
X010151Y004173D03*
X011791Y003913D03*
X011791Y003893D03*
X011811Y003933D03*
X011811Y003953D03*
X011831Y003993D03*
X012031Y004113D03*
X013751Y006373D03*
X007611Y005073D03*
X007451Y004873D03*
X006991Y005313D03*
X005771Y006373D03*
D324*
X006341Y003913D03*
X010821Y003933D03*
X010821Y003953D03*
X010821Y003973D03*
X010821Y004013D03*
X010861Y004093D03*
D325*
X008431Y003913D03*
D326*
X008021Y004833D03*
X008041Y004873D03*
X008041Y004893D03*
X008061Y004933D03*
X008061Y004953D03*
X008061Y004973D03*
X008081Y005033D03*
X008081Y005053D03*
X008081Y005073D03*
X008081Y005093D03*
X008081Y005113D03*
X008081Y005133D03*
X008081Y005153D03*
X008081Y005213D03*
X008081Y005233D03*
X008081Y005253D03*
X008081Y005273D03*
X008081Y005293D03*
X008081Y005313D03*
X008081Y005333D03*
X008081Y005353D03*
X008061Y005393D03*
X008061Y005413D03*
X008061Y005433D03*
X008041Y005473D03*
X008041Y005493D03*
X008041Y005513D03*
X008021Y005553D03*
X008001Y005593D03*
X007261Y005333D03*
X007261Y005313D03*
X007241Y005253D03*
X007241Y005233D03*
X007241Y005213D03*
X007241Y005193D03*
X007241Y005173D03*
X007241Y005153D03*
X007241Y005133D03*
X007241Y005113D03*
X007261Y005073D03*
X007261Y005053D03*
X007281Y005033D03*
X007021Y005013D03*
X006661Y005053D03*
X006661Y005073D03*
X006641Y005093D03*
X006641Y005113D03*
X006641Y005133D03*
X006641Y005153D03*
X006641Y005233D03*
X006641Y005253D03*
X006641Y005273D03*
X006641Y005293D03*
X006661Y005313D03*
X006661Y005333D03*
X006681Y005353D03*
X006241Y005513D03*
X006241Y005533D03*
X006261Y005573D03*
X006221Y005473D03*
X006221Y005453D03*
X006201Y005413D03*
X006201Y005393D03*
X006201Y005373D03*
X006201Y005353D03*
X006181Y005273D03*
X006181Y005253D03*
X006181Y005233D03*
X006181Y005213D03*
X006181Y005193D03*
X006181Y005173D03*
X006181Y005153D03*
X006181Y005133D03*
X006181Y005113D03*
X006181Y005093D03*
X006201Y005013D03*
X006201Y004993D03*
X006201Y004973D03*
X006221Y004933D03*
X006221Y004913D03*
X006221Y004893D03*
X006241Y004853D03*
X009441Y005053D03*
X009461Y005033D03*
X009481Y005013D03*
X009501Y004993D03*
X009521Y004973D03*
X010161Y004293D03*
X009961Y004113D03*
X009961Y004093D03*
X010001Y004053D03*
X010001Y003933D03*
X010001Y003913D03*
X010481Y004993D03*
X010501Y005013D03*
X010521Y005033D03*
X011381Y005013D03*
X011401Y004993D03*
X011661Y005293D03*
X011661Y005313D03*
X011641Y005333D03*
X011641Y005353D03*
X011641Y005553D03*
X011641Y005613D03*
X011661Y005653D03*
X011661Y005673D03*
X011381Y005973D03*
X011401Y005993D03*
X011421Y006013D03*
X011341Y005933D03*
X012141Y005693D03*
X012161Y005653D03*
X012161Y005633D03*
X012181Y005613D03*
X012181Y005593D03*
X012181Y005573D03*
X012181Y005553D03*
X012181Y005533D03*
X012181Y005513D03*
X012181Y005473D03*
X012181Y005453D03*
X012181Y005433D03*
X012181Y005413D03*
X012181Y005393D03*
X012181Y005373D03*
X012161Y005333D03*
X012141Y005293D03*
X012421Y005033D03*
X012401Y005013D03*
X012381Y004993D03*
X012361Y004973D03*
X012461Y005073D03*
X011861Y004253D03*
X011801Y004113D03*
X012021Y003933D03*
X012021Y003913D03*
X012421Y005973D03*
X012401Y005993D03*
X012381Y006013D03*
X010541Y005933D03*
X010501Y005973D03*
X010481Y005993D03*
X010461Y006013D03*
X009981Y005933D03*
X009981Y005853D03*
X009481Y005993D03*
D327*
X010831Y003913D03*
D328*
X010871Y004193D03*
X010891Y004233D03*
X010911Y004273D03*
X010931Y004293D03*
X007131Y006073D03*
X006291Y003933D03*
D329*
X008481Y003933D03*
D330*
X007141Y004293D03*
X006261Y003953D03*
X007141Y006093D03*
D331*
X008521Y003953D03*
D332*
X009721Y003953D03*
X009721Y004153D03*
X009721Y004173D03*
X009721Y004193D03*
X009961Y004153D03*
X009961Y004133D03*
X009381Y005133D03*
X009361Y005173D03*
X009341Y005193D03*
X009341Y005213D03*
X009321Y005253D03*
X009321Y005273D03*
X009301Y005313D03*
X009301Y005333D03*
X009281Y005433D03*
X009281Y005453D03*
X009281Y005473D03*
X009281Y005533D03*
X009281Y005553D03*
X009281Y005573D03*
X009301Y005673D03*
X009301Y005693D03*
X009321Y005733D03*
X009321Y005753D03*
X009341Y005773D03*
X009341Y005793D03*
X009361Y005813D03*
X009361Y005833D03*
X009381Y005853D03*
X010581Y005873D03*
X010601Y005853D03*
X010621Y005813D03*
X010641Y005773D03*
X010661Y005713D03*
X010661Y005693D03*
X010681Y005653D03*
X010681Y005633D03*
X011201Y005633D03*
X011201Y005653D03*
X011221Y005713D03*
X011241Y005753D03*
X011241Y005773D03*
X011261Y005813D03*
X011281Y005833D03*
X011281Y005853D03*
X011301Y005873D03*
X011881Y005893D03*
X011641Y005533D03*
X011261Y005193D03*
X011261Y005173D03*
X011281Y005153D03*
X011301Y005113D03*
X011241Y005213D03*
X011241Y005233D03*
X011221Y005273D03*
X011221Y005293D03*
X011201Y005333D03*
X011201Y005353D03*
X010681Y005353D03*
X010681Y005333D03*
X010661Y005293D03*
X010661Y005273D03*
X010641Y005233D03*
X010641Y005213D03*
X010621Y005193D03*
X010621Y005173D03*
X010601Y005153D03*
X010581Y005113D03*
X011861Y004193D03*
X011821Y004093D03*
X012501Y005133D03*
X012521Y005153D03*
X012521Y005173D03*
X012541Y005193D03*
X012541Y005213D03*
X012561Y005253D03*
X012581Y005313D03*
X012581Y005333D03*
X012601Y005453D03*
X012601Y005473D03*
X012601Y005493D03*
X012601Y005513D03*
X012601Y005533D03*
X012581Y005673D03*
X012561Y005733D03*
X012561Y005753D03*
X012541Y005773D03*
X012541Y005793D03*
X012521Y005833D03*
X012501Y005853D03*
X012481Y005893D03*
X007621Y005353D03*
X007021Y005353D03*
D333*
X007251Y005293D03*
X007251Y005273D03*
X007251Y005093D03*
X007631Y005013D03*
X008071Y005013D03*
X008071Y004993D03*
X008091Y005173D03*
X008091Y005193D03*
X008071Y005373D03*
X009371Y005153D03*
X009391Y005113D03*
X009411Y005093D03*
X009431Y005073D03*
X009991Y004733D03*
X010531Y005053D03*
X010551Y005073D03*
X010571Y005093D03*
X010591Y005133D03*
X010631Y005793D03*
X010611Y005833D03*
X010571Y005893D03*
X010551Y005913D03*
X010531Y005953D03*
X009991Y005953D03*
X009991Y005833D03*
X009471Y005973D03*
X009451Y005953D03*
X009431Y005933D03*
X009411Y005913D03*
X009411Y005893D03*
X009391Y005873D03*
X011251Y005793D03*
X011311Y005893D03*
X011331Y005913D03*
X011351Y005953D03*
X011651Y005633D03*
X012431Y005953D03*
X012451Y005933D03*
X012471Y005913D03*
X012491Y005873D03*
X012531Y005813D03*
X012491Y005113D03*
X012471Y005093D03*
X012451Y005053D03*
X011891Y004733D03*
X011371Y005033D03*
X011351Y005053D03*
X011331Y005073D03*
X011311Y005093D03*
X011291Y005133D03*
X011851Y004233D03*
X011851Y004213D03*
X011611Y003993D03*
X011611Y003973D03*
X011591Y004013D03*
X010151Y004273D03*
X009991Y004073D03*
X010011Y004033D03*
X010011Y004013D03*
X010011Y003993D03*
X010011Y003973D03*
X010011Y003953D03*
X009731Y003973D03*
X009731Y003993D03*
X009731Y004013D03*
X009731Y004033D03*
X006631Y005173D03*
X006631Y005193D03*
X006631Y005213D03*
X006191Y005293D03*
X006191Y005313D03*
X006191Y005333D03*
X006191Y005073D03*
X006191Y005053D03*
X006191Y005033D03*
D334*
X013001Y003993D03*
X013001Y003973D03*
X013001Y003953D03*
D335*
X007131Y004273D03*
X006231Y003973D03*
D336*
X008541Y003973D03*
D337*
X009941Y004233D03*
X010161Y004193D03*
X011821Y004013D03*
X011821Y003973D03*
X012021Y004073D03*
X012021Y004093D03*
X013761Y004533D03*
X013761Y004553D03*
X013761Y004573D03*
X013761Y004593D03*
X013761Y004613D03*
X013761Y004633D03*
X013761Y004653D03*
X013761Y004673D03*
X013761Y004693D03*
X013761Y004713D03*
X013761Y004733D03*
X013761Y004753D03*
X013761Y004773D03*
X013761Y004793D03*
X013761Y004813D03*
X013761Y004833D03*
X013761Y004853D03*
X013761Y004873D03*
X013761Y004893D03*
X013761Y004913D03*
X013761Y004933D03*
X013761Y004953D03*
X013761Y004973D03*
X013761Y004993D03*
X013761Y005013D03*
X013761Y005033D03*
X013761Y005053D03*
X013761Y005073D03*
X013761Y005093D03*
X013761Y005113D03*
X013761Y005133D03*
X013761Y005153D03*
X013761Y005173D03*
X013761Y005193D03*
X013761Y005213D03*
X013761Y005233D03*
X013761Y005253D03*
X013761Y005273D03*
X013761Y005293D03*
X013761Y005313D03*
X013761Y005333D03*
X013761Y005353D03*
X013761Y005373D03*
X013761Y005393D03*
X013761Y005413D03*
X013761Y005433D03*
X013761Y005453D03*
X013761Y005473D03*
X013761Y005493D03*
X013761Y005513D03*
X013761Y005533D03*
X013761Y005553D03*
X013761Y005573D03*
X013761Y005593D03*
X013761Y005613D03*
X013761Y005633D03*
X013761Y005653D03*
X013761Y005673D03*
X013761Y005693D03*
X013761Y005713D03*
X013761Y005733D03*
X013761Y005753D03*
X013761Y005773D03*
X013761Y005793D03*
X013761Y005813D03*
X013761Y005833D03*
X013761Y005853D03*
X013761Y005873D03*
X013761Y005893D03*
X013761Y005913D03*
X013761Y005933D03*
X013761Y005953D03*
X013761Y005973D03*
X013761Y005993D03*
X013761Y006013D03*
X013761Y006033D03*
X013761Y006053D03*
X013761Y006073D03*
X013761Y006093D03*
X013761Y006113D03*
X013761Y006133D03*
X013761Y006153D03*
X013761Y006173D03*
X013761Y006193D03*
X013761Y006213D03*
X013761Y006233D03*
X013761Y006253D03*
X013761Y006273D03*
X013761Y006293D03*
X013761Y006313D03*
X013761Y006333D03*
X013761Y006353D03*
X013741Y006393D03*
X013741Y006413D03*
X011641Y005493D03*
X007021Y005053D03*
X006841Y004873D03*
X005761Y004873D03*
X005761Y004853D03*
X005761Y004833D03*
X005761Y004813D03*
X005761Y004793D03*
X005761Y004773D03*
X005761Y004753D03*
X005761Y004733D03*
X005761Y004713D03*
X005761Y004693D03*
X005761Y004673D03*
X005761Y004653D03*
X005761Y004633D03*
X005761Y004613D03*
X005761Y004593D03*
X005761Y004573D03*
X005761Y004553D03*
X005761Y004533D03*
X005761Y004893D03*
X005761Y004913D03*
X005761Y004933D03*
X005761Y004953D03*
X005761Y004973D03*
X005761Y004993D03*
X005761Y005013D03*
X005761Y005033D03*
X005761Y005053D03*
X005761Y005073D03*
X005761Y005093D03*
X005761Y005113D03*
X005761Y005133D03*
X005761Y005153D03*
X005761Y005173D03*
X005761Y005193D03*
X005761Y005213D03*
X005761Y005233D03*
X005761Y005253D03*
X005761Y005273D03*
X005761Y005293D03*
X005761Y005313D03*
X005761Y005333D03*
X005761Y005353D03*
X005761Y005373D03*
X005761Y005393D03*
X005761Y005413D03*
X005761Y005433D03*
X005761Y005453D03*
X005761Y005473D03*
X005761Y005493D03*
X005761Y005513D03*
X005761Y005533D03*
X005761Y005553D03*
X005761Y005573D03*
X005761Y005593D03*
X005761Y005613D03*
X005761Y005633D03*
X005761Y005653D03*
X005761Y005673D03*
X005761Y005693D03*
X005761Y005713D03*
X005761Y005733D03*
X005761Y005753D03*
X005761Y005773D03*
X005761Y005793D03*
X005761Y005813D03*
X005761Y005833D03*
X005761Y005853D03*
X005761Y005873D03*
X005761Y005893D03*
X005761Y005913D03*
X005761Y005933D03*
X005761Y005953D03*
X005761Y005973D03*
X005761Y005993D03*
X005761Y006013D03*
X005761Y006033D03*
X005761Y006053D03*
X005761Y006073D03*
X005761Y006093D03*
X005761Y006113D03*
X005761Y006133D03*
X005761Y006153D03*
X005761Y006173D03*
X005761Y006193D03*
X005761Y006213D03*
X005761Y006233D03*
X005761Y006253D03*
X005761Y006273D03*
X005761Y006293D03*
X005761Y006313D03*
X005761Y006333D03*
X005761Y006353D03*
X005781Y006393D03*
X005781Y006413D03*
D338*
X006201Y003993D03*
D339*
X008571Y003993D03*
D340*
X010811Y003993D03*
D341*
X007141Y006133D03*
X006181Y004013D03*
D342*
X008591Y004013D03*
D343*
X008751Y004233D03*
X012991Y004033D03*
X012991Y004013D03*
D344*
X006161Y004033D03*
D345*
X008611Y004033D03*
D346*
X010911Y004033D03*
D347*
X009981Y006153D03*
X011901Y006153D03*
X007141Y006153D03*
X006141Y004053D03*
D348*
X008631Y004053D03*
D349*
X010891Y004053D03*
D350*
X008741Y004213D03*
X012981Y004093D03*
X012981Y004073D03*
X012981Y004053D03*
D351*
X011901Y004833D03*
X009981Y004833D03*
X006121Y004073D03*
D352*
X008651Y004073D03*
D353*
X009701Y004133D03*
X009961Y004173D03*
X010161Y004233D03*
X011601Y004213D03*
X011821Y004073D03*
X011641Y005513D03*
D354*
X006111Y004093D03*
D355*
X008671Y004093D03*
D356*
X006091Y004113D03*
X007131Y006173D03*
D357*
X008681Y004113D03*
D358*
X010861Y004113D03*
D359*
X008731Y004193D03*
X012971Y004153D03*
X012971Y004133D03*
X012971Y004113D03*
D360*
X011901Y004813D03*
X009981Y004813D03*
X006081Y004133D03*
D361*
X008691Y004133D03*
D362*
X010851Y004133D03*
D363*
X010341Y004893D03*
X009641Y004893D03*
X007841Y004553D03*
X007821Y004533D03*
X007801Y004513D03*
X007781Y004493D03*
X007761Y004473D03*
X006521Y004473D03*
X006501Y004493D03*
X006481Y004513D03*
X006461Y005853D03*
X006481Y005873D03*
X006501Y005893D03*
X006521Y005913D03*
X007781Y005893D03*
X007801Y005873D03*
X007821Y005853D03*
X009661Y006113D03*
X011641Y005593D03*
X012081Y005233D03*
X012241Y004893D03*
X011781Y004133D03*
X012221Y006113D03*
D364*
X011641Y005473D03*
X009981Y005793D03*
X012021Y004153D03*
X012021Y004133D03*
X007601Y005313D03*
X007001Y005073D03*
D365*
X006061Y004153D03*
D366*
X008711Y004153D03*
X012951Y004213D03*
X012951Y004233D03*
X012951Y004253D03*
D367*
X010861Y004173D03*
X010861Y004153D03*
X007141Y004313D03*
D368*
X007131Y004193D03*
X006051Y004173D03*
X009991Y004793D03*
X011891Y004793D03*
D369*
X007491Y004333D03*
X007131Y004173D03*
X007451Y004993D03*
X007451Y005393D03*
X006851Y005393D03*
X005971Y004333D03*
D370*
X008721Y004173D03*
X012961Y004173D03*
X012961Y004193D03*
D371*
X006041Y004193D03*
D372*
X006031Y004213D03*
X009991Y006213D03*
X011891Y006213D03*
D373*
X011901Y006173D03*
X009981Y006173D03*
X007141Y004213D03*
D374*
X010881Y004213D03*
X010901Y004253D03*
D375*
X011901Y005213D03*
X011901Y005753D03*
X007141Y006193D03*
X006021Y004233D03*
D376*
X007131Y004233D03*
X011891Y004853D03*
D377*
X011911Y005773D03*
X006011Y004253D03*
D378*
X007131Y004253D03*
D379*
X006001Y004273D03*
X006821Y006053D03*
X007461Y006053D03*
X011901Y005793D03*
X011901Y005193D03*
D380*
X012941Y004293D03*
X012941Y004273D03*
D381*
X011891Y004773D03*
X009991Y004773D03*
X005991Y004293D03*
D382*
X005981Y004313D03*
X006841Y004993D03*
X011901Y005173D03*
X011901Y005813D03*
D383*
X009781Y004313D03*
D384*
X012731Y004313D03*
D385*
X011901Y005153D03*
X011901Y006233D03*
X009981Y006233D03*
X007461Y005413D03*
X007461Y004973D03*
X006841Y004973D03*
X006781Y004333D03*
X005961Y004353D03*
D386*
X010921Y004333D03*
D387*
X009991Y004753D03*
X009771Y004853D03*
X009991Y005393D03*
X009991Y005413D03*
X009991Y005433D03*
X009991Y005453D03*
X009991Y005473D03*
X009991Y005493D03*
X009991Y005513D03*
X009991Y005533D03*
X009991Y005553D03*
X009991Y005573D03*
X009991Y005593D03*
X009991Y005613D03*
X009991Y005633D03*
X009991Y005653D03*
X009991Y005673D03*
X009991Y005693D03*
X011891Y005133D03*
X011891Y004753D03*
X007551Y004353D03*
X006711Y004353D03*
X005931Y004433D03*
X005931Y004453D03*
X006851Y005433D03*
X007451Y005433D03*
X007131Y006213D03*
X006731Y006033D03*
D388*
X010931Y004353D03*
D389*
X007451Y004953D03*
X006851Y005413D03*
X005951Y004393D03*
X005951Y004373D03*
D390*
X005911Y004493D03*
X005911Y004513D03*
X006671Y004373D03*
X007451Y004933D03*
X007451Y005453D03*
X007591Y006013D03*
X006851Y005453D03*
D391*
X010941Y004373D03*
D392*
X011891Y005113D03*
X012171Y006133D03*
X011891Y006253D03*
X011611Y006133D03*
X009991Y006253D03*
X009711Y006133D03*
X007671Y005973D03*
X006611Y005973D03*
X006851Y004913D03*
X006631Y004393D03*
X007451Y004913D03*
X007671Y004413D03*
D393*
X010951Y004413D03*
X010951Y004393D03*
D394*
X010201Y004853D03*
X011901Y005833D03*
X007541Y006033D03*
X006841Y004953D03*
X005941Y004413D03*
D395*
X006541Y004453D03*
X006601Y004413D03*
X007701Y004433D03*
X007461Y005473D03*
X007701Y005953D03*
X006581Y005953D03*
X009681Y004873D03*
X012201Y004873D03*
D396*
X011591Y004873D03*
X011891Y005873D03*
X011571Y006113D03*
X010311Y006113D03*
X010291Y004873D03*
X007731Y004453D03*
X006571Y004433D03*
X006851Y005473D03*
X006551Y005933D03*
X007731Y005933D03*
X007751Y005913D03*
D397*
X010961Y004453D03*
X010961Y004433D03*
D398*
X009981Y005713D03*
X011901Y005853D03*
X006841Y004933D03*
X005921Y004473D03*
X006681Y006013D03*
D399*
X010971Y004473D03*
D400*
X010981Y004493D03*
X010981Y004513D03*
D401*
X007141Y006113D03*
D402*
X009991Y006193D03*
X011891Y006193D03*
D403*
X009761Y006453D03*
D404*
X009761Y006473D03*
D405*
X009761Y006493D03*
M02*
