G75*
%MOIN*%
%OFA0B0*%
%FSLAX24Y24*%
%IPPOS*%
%LPD*%
%AMOC8*
5,1,8,0,0,1.08239X$1,22.5*
%
%ADD10C,0.0000*%
%ADD11R,0.0600X0.0600*%
%ADD12OC8,0.0600*%
%ADD13R,0.0512X0.0630*%
%ADD14R,0.0630X0.0512*%
%ADD15C,0.0600*%
%ADD16R,0.0591X0.0630*%
%ADD17R,0.0472X0.0472*%
%ADD18R,0.0315X0.0472*%
%ADD19R,0.1811X0.0394*%
%ADD20R,0.1339X0.0630*%
%ADD21R,0.0315X0.0354*%
%ADD22R,0.0354X0.0236*%
%ADD23R,0.0472X0.0315*%
%ADD24R,0.0700X0.0700*%
%ADD25C,0.0700*%
%ADD26R,0.0787X0.0236*%
%ADD27R,0.1654X0.0276*%
%ADD28R,0.0748X0.0118*%
%ADD29C,0.0768*%
%ADD30R,0.0551X0.1181*%
%ADD31R,0.0400X0.1201*%
%ADD32R,0.4197X0.3299*%
%ADD33R,0.0591X0.0866*%
%ADD34R,0.0709X0.0945*%
%ADD35R,0.0240X0.0870*%
%ADD36C,0.0356*%
%ADD37C,0.0240*%
%ADD38C,0.0100*%
%ADD39C,0.0197*%
%ADD40C,0.0118*%
%ADD41C,0.0160*%
%ADD42C,0.0394*%
%ADD43C,0.0060*%
%ADD44C,0.0413*%
%ADD45C,0.0079*%
D10*
X001331Y000150D02*
X017079Y000150D01*
X017118Y000152D01*
X017156Y000158D01*
X017193Y000167D01*
X017230Y000180D01*
X017265Y000197D01*
X017298Y000216D01*
X017329Y000239D01*
X017358Y000265D01*
X017384Y000294D01*
X017407Y000325D01*
X017426Y000358D01*
X017443Y000393D01*
X017456Y000430D01*
X017465Y000467D01*
X017471Y000505D01*
X017473Y000544D01*
X017473Y007630D01*
X017475Y007669D01*
X017481Y007707D01*
X017490Y007744D01*
X017503Y007781D01*
X017520Y007816D01*
X017539Y007849D01*
X017562Y007880D01*
X017588Y007909D01*
X017617Y007935D01*
X017648Y007958D01*
X017681Y007977D01*
X017716Y007994D01*
X017753Y008007D01*
X017790Y008016D01*
X017828Y008022D01*
X017867Y008024D01*
X017906Y008022D01*
X017944Y008016D01*
X017981Y008007D01*
X018018Y007994D01*
X018053Y007977D01*
X018086Y007958D01*
X018117Y007935D01*
X018146Y007909D01*
X018172Y007880D01*
X018195Y007849D01*
X018214Y007816D01*
X018231Y007781D01*
X018244Y007744D01*
X018253Y007707D01*
X018259Y007669D01*
X018261Y007630D01*
X018260Y007630D02*
X018260Y000544D01*
X018262Y000505D01*
X018268Y000467D01*
X018277Y000430D01*
X018290Y000393D01*
X018307Y000358D01*
X018326Y000325D01*
X018349Y000294D01*
X018375Y000265D01*
X018404Y000239D01*
X018435Y000216D01*
X018468Y000197D01*
X018503Y000180D01*
X018540Y000167D01*
X018577Y000158D01*
X018615Y000152D01*
X018654Y000150D01*
X024559Y000150D01*
X024625Y000152D01*
X024691Y000157D01*
X024757Y000167D01*
X024822Y000180D01*
X024886Y000196D01*
X024949Y000216D01*
X025011Y000240D01*
X025071Y000267D01*
X025130Y000297D01*
X025187Y000331D01*
X025242Y000368D01*
X025295Y000408D01*
X025346Y000450D01*
X025394Y000496D01*
X025440Y000544D01*
X025482Y000595D01*
X025522Y000648D01*
X025559Y000703D01*
X025593Y000760D01*
X025623Y000819D01*
X025650Y000879D01*
X025674Y000941D01*
X025694Y001004D01*
X025710Y001068D01*
X025723Y001133D01*
X025733Y001199D01*
X025738Y001265D01*
X025740Y001331D01*
X025741Y001331D02*
X025741Y021016D01*
X025740Y021016D02*
X025738Y021082D01*
X025733Y021148D01*
X025723Y021214D01*
X025710Y021279D01*
X025694Y021343D01*
X025674Y021406D01*
X025650Y021468D01*
X025623Y021528D01*
X025593Y021587D01*
X025559Y021644D01*
X025522Y021699D01*
X025482Y021752D01*
X025440Y021803D01*
X025394Y021851D01*
X025346Y021897D01*
X025295Y021939D01*
X025242Y021979D01*
X025187Y022016D01*
X025130Y022050D01*
X025071Y022080D01*
X025011Y022107D01*
X024949Y022131D01*
X024886Y022151D01*
X024822Y022167D01*
X024757Y022180D01*
X024691Y022190D01*
X024625Y022195D01*
X024559Y022197D01*
X001331Y022197D01*
X001265Y022195D01*
X001199Y022190D01*
X001133Y022180D01*
X001068Y022167D01*
X001004Y022151D01*
X000941Y022131D01*
X000879Y022107D01*
X000819Y022080D01*
X000760Y022050D01*
X000703Y022016D01*
X000648Y021979D01*
X000595Y021939D01*
X000544Y021897D01*
X000496Y021851D01*
X000450Y021803D01*
X000408Y021752D01*
X000368Y021699D01*
X000331Y021644D01*
X000297Y021587D01*
X000267Y021528D01*
X000240Y021468D01*
X000216Y021406D01*
X000196Y021343D01*
X000180Y021279D01*
X000167Y021214D01*
X000157Y021148D01*
X000152Y021082D01*
X000150Y021016D01*
X000150Y001331D01*
X000152Y001265D01*
X000157Y001199D01*
X000167Y001133D01*
X000180Y001068D01*
X000196Y001004D01*
X000216Y000941D01*
X000240Y000879D01*
X000267Y000819D01*
X000297Y000760D01*
X000331Y000703D01*
X000368Y000648D01*
X000408Y000595D01*
X000450Y000544D01*
X000496Y000496D01*
X000544Y000450D01*
X000595Y000408D01*
X000648Y000368D01*
X000703Y000331D01*
X000760Y000297D01*
X000819Y000267D01*
X000879Y000240D01*
X000941Y000216D01*
X001004Y000196D01*
X001068Y000180D01*
X001133Y000167D01*
X001199Y000157D01*
X001265Y000152D01*
X001331Y000150D01*
X000977Y001528D02*
X000979Y001575D01*
X000985Y001621D01*
X000995Y001667D01*
X001008Y001712D01*
X001026Y001755D01*
X001047Y001797D01*
X001071Y001837D01*
X001099Y001874D01*
X001130Y001909D01*
X001164Y001942D01*
X001200Y001971D01*
X001239Y001997D01*
X001280Y002020D01*
X001323Y002039D01*
X001367Y002055D01*
X001412Y002067D01*
X001458Y002075D01*
X001505Y002079D01*
X001551Y002079D01*
X001598Y002075D01*
X001644Y002067D01*
X001689Y002055D01*
X001733Y002039D01*
X001776Y002020D01*
X001817Y001997D01*
X001856Y001971D01*
X001892Y001942D01*
X001926Y001909D01*
X001957Y001874D01*
X001985Y001837D01*
X002009Y001797D01*
X002030Y001755D01*
X002048Y001712D01*
X002061Y001667D01*
X002071Y001621D01*
X002077Y001575D01*
X002079Y001528D01*
X002077Y001481D01*
X002071Y001435D01*
X002061Y001389D01*
X002048Y001344D01*
X002030Y001301D01*
X002009Y001259D01*
X001985Y001219D01*
X001957Y001182D01*
X001926Y001147D01*
X001892Y001114D01*
X001856Y001085D01*
X001817Y001059D01*
X001776Y001036D01*
X001733Y001017D01*
X001689Y001001D01*
X001644Y000989D01*
X001598Y000981D01*
X001551Y000977D01*
X001505Y000977D01*
X001458Y000981D01*
X001412Y000989D01*
X001367Y001001D01*
X001323Y001017D01*
X001280Y001036D01*
X001239Y001059D01*
X001200Y001085D01*
X001164Y001114D01*
X001130Y001147D01*
X001099Y001182D01*
X001071Y001219D01*
X001047Y001259D01*
X001026Y001301D01*
X001008Y001344D01*
X000995Y001389D01*
X000985Y001435D01*
X000979Y001481D01*
X000977Y001528D01*
X023812Y001528D02*
X023814Y001575D01*
X023820Y001621D01*
X023830Y001667D01*
X023843Y001712D01*
X023861Y001755D01*
X023882Y001797D01*
X023906Y001837D01*
X023934Y001874D01*
X023965Y001909D01*
X023999Y001942D01*
X024035Y001971D01*
X024074Y001997D01*
X024115Y002020D01*
X024158Y002039D01*
X024202Y002055D01*
X024247Y002067D01*
X024293Y002075D01*
X024340Y002079D01*
X024386Y002079D01*
X024433Y002075D01*
X024479Y002067D01*
X024524Y002055D01*
X024568Y002039D01*
X024611Y002020D01*
X024652Y001997D01*
X024691Y001971D01*
X024727Y001942D01*
X024761Y001909D01*
X024792Y001874D01*
X024820Y001837D01*
X024844Y001797D01*
X024865Y001755D01*
X024883Y001712D01*
X024896Y001667D01*
X024906Y001621D01*
X024912Y001575D01*
X024914Y001528D01*
X024912Y001481D01*
X024906Y001435D01*
X024896Y001389D01*
X024883Y001344D01*
X024865Y001301D01*
X024844Y001259D01*
X024820Y001219D01*
X024792Y001182D01*
X024761Y001147D01*
X024727Y001114D01*
X024691Y001085D01*
X024652Y001059D01*
X024611Y001036D01*
X024568Y001017D01*
X024524Y001001D01*
X024479Y000989D01*
X024433Y000981D01*
X024386Y000977D01*
X024340Y000977D01*
X024293Y000981D01*
X024247Y000989D01*
X024202Y001001D01*
X024158Y001017D01*
X024115Y001036D01*
X024074Y001059D01*
X024035Y001085D01*
X023999Y001114D01*
X023965Y001147D01*
X023934Y001182D01*
X023906Y001219D01*
X023882Y001259D01*
X023861Y001301D01*
X023843Y001344D01*
X023830Y001389D01*
X023820Y001435D01*
X023814Y001481D01*
X023812Y001528D01*
X023812Y020819D02*
X023814Y020866D01*
X023820Y020912D01*
X023830Y020958D01*
X023843Y021003D01*
X023861Y021046D01*
X023882Y021088D01*
X023906Y021128D01*
X023934Y021165D01*
X023965Y021200D01*
X023999Y021233D01*
X024035Y021262D01*
X024074Y021288D01*
X024115Y021311D01*
X024158Y021330D01*
X024202Y021346D01*
X024247Y021358D01*
X024293Y021366D01*
X024340Y021370D01*
X024386Y021370D01*
X024433Y021366D01*
X024479Y021358D01*
X024524Y021346D01*
X024568Y021330D01*
X024611Y021311D01*
X024652Y021288D01*
X024691Y021262D01*
X024727Y021233D01*
X024761Y021200D01*
X024792Y021165D01*
X024820Y021128D01*
X024844Y021088D01*
X024865Y021046D01*
X024883Y021003D01*
X024896Y020958D01*
X024906Y020912D01*
X024912Y020866D01*
X024914Y020819D01*
X024912Y020772D01*
X024906Y020726D01*
X024896Y020680D01*
X024883Y020635D01*
X024865Y020592D01*
X024844Y020550D01*
X024820Y020510D01*
X024792Y020473D01*
X024761Y020438D01*
X024727Y020405D01*
X024691Y020376D01*
X024652Y020350D01*
X024611Y020327D01*
X024568Y020308D01*
X024524Y020292D01*
X024479Y020280D01*
X024433Y020272D01*
X024386Y020268D01*
X024340Y020268D01*
X024293Y020272D01*
X024247Y020280D01*
X024202Y020292D01*
X024158Y020308D01*
X024115Y020327D01*
X024074Y020350D01*
X024035Y020376D01*
X023999Y020405D01*
X023965Y020438D01*
X023934Y020473D01*
X023906Y020510D01*
X023882Y020550D01*
X023861Y020592D01*
X023843Y020635D01*
X023830Y020680D01*
X023820Y020726D01*
X023814Y020772D01*
X023812Y020819D01*
X000977Y020819D02*
X000979Y020866D01*
X000985Y020912D01*
X000995Y020958D01*
X001008Y021003D01*
X001026Y021046D01*
X001047Y021088D01*
X001071Y021128D01*
X001099Y021165D01*
X001130Y021200D01*
X001164Y021233D01*
X001200Y021262D01*
X001239Y021288D01*
X001280Y021311D01*
X001323Y021330D01*
X001367Y021346D01*
X001412Y021358D01*
X001458Y021366D01*
X001505Y021370D01*
X001551Y021370D01*
X001598Y021366D01*
X001644Y021358D01*
X001689Y021346D01*
X001733Y021330D01*
X001776Y021311D01*
X001817Y021288D01*
X001856Y021262D01*
X001892Y021233D01*
X001926Y021200D01*
X001957Y021165D01*
X001985Y021128D01*
X002009Y021088D01*
X002030Y021046D01*
X002048Y021003D01*
X002061Y020958D01*
X002071Y020912D01*
X002077Y020866D01*
X002079Y020819D01*
X002077Y020772D01*
X002071Y020726D01*
X002061Y020680D01*
X002048Y020635D01*
X002030Y020592D01*
X002009Y020550D01*
X001985Y020510D01*
X001957Y020473D01*
X001926Y020438D01*
X001892Y020405D01*
X001856Y020376D01*
X001817Y020350D01*
X001776Y020327D01*
X001733Y020308D01*
X001689Y020292D01*
X001644Y020280D01*
X001598Y020272D01*
X001551Y020268D01*
X001505Y020268D01*
X001458Y020272D01*
X001412Y020280D01*
X001367Y020292D01*
X001323Y020308D01*
X001280Y020327D01*
X001239Y020350D01*
X001200Y020376D01*
X001164Y020405D01*
X001130Y020438D01*
X001099Y020473D01*
X001071Y020510D01*
X001047Y020550D01*
X001026Y020592D01*
X001008Y020635D01*
X000995Y020680D01*
X000985Y020726D01*
X000979Y020772D01*
X000977Y020819D01*
D11*
X003445Y020319D03*
X001213Y018579D03*
X013394Y016837D03*
X024638Y015579D03*
X024678Y010122D03*
D12*
X022445Y020319D03*
X021445Y020319D03*
X020445Y020319D03*
X019445Y020319D03*
X018445Y020319D03*
X017445Y020319D03*
X016445Y020319D03*
X015445Y020319D03*
X014445Y020319D03*
X013445Y020319D03*
X012445Y020319D03*
X011445Y020319D03*
X010445Y020319D03*
X009445Y020319D03*
X008445Y020319D03*
X007445Y020319D03*
X006445Y020319D03*
X005445Y020319D03*
X004445Y020319D03*
X004445Y021319D03*
X003445Y021319D03*
X005445Y021319D03*
X006445Y021319D03*
X007445Y021319D03*
X008445Y021319D03*
X009445Y021319D03*
X010445Y021319D03*
X011445Y021319D03*
X012445Y021319D03*
X013445Y021319D03*
X014445Y021319D03*
X015445Y021319D03*
X016445Y021319D03*
X017445Y021319D03*
X018445Y021319D03*
X019445Y021319D03*
X020445Y021319D03*
X021445Y021319D03*
X022445Y021319D03*
D13*
X017955Y017891D03*
X017207Y017891D03*
X017207Y016931D03*
X017955Y016931D03*
X013282Y015820D03*
X012534Y015820D03*
D14*
X013692Y017837D03*
X013692Y018624D03*
X007158Y017788D03*
X007158Y017000D03*
X005347Y018496D03*
X005347Y019284D03*
D15*
X001213Y017579D03*
X001213Y016579D03*
X001213Y015579D03*
X012394Y016837D03*
X024638Y016579D03*
X024638Y017579D03*
X024638Y018579D03*
X024678Y011122D03*
D16*
X007119Y014717D03*
D17*
X007512Y016026D03*
X006725Y016026D03*
D18*
X005701Y015898D03*
X004993Y015898D03*
X004993Y016685D03*
X005701Y016685D03*
X006056Y012158D03*
X006764Y012158D03*
X009126Y012237D03*
X009835Y012237D03*
X012197Y010859D03*
X012906Y010859D03*
X020268Y016016D03*
X020977Y016016D03*
X020977Y016685D03*
X020268Y016685D03*
X020268Y017473D03*
X020977Y017473D03*
X020977Y018260D03*
X020268Y018260D03*
X020268Y019008D03*
X020977Y019008D03*
D19*
X022422Y018260D03*
X022422Y017473D03*
X022422Y016685D03*
X022422Y015898D03*
X022619Y011016D03*
X022619Y010229D03*
X003430Y015898D03*
X003430Y016685D03*
X003430Y017473D03*
X003430Y018260D03*
D20*
X001382Y019205D03*
X001382Y014953D03*
X024469Y014953D03*
X024666Y011961D03*
X024666Y009284D03*
X024469Y019205D03*
D21*
X014166Y012394D03*
X014540Y011567D03*
X013792Y011567D03*
X006823Y011134D03*
X006075Y011134D03*
X006449Y010307D03*
D22*
X012099Y011587D03*
X012099Y011961D03*
X012099Y012335D03*
X013004Y012335D03*
X013004Y011961D03*
X013004Y011587D03*
D23*
X011292Y011646D03*
X011292Y012355D03*
X018693Y014599D03*
X018693Y015307D03*
X019678Y015347D03*
X019678Y014638D03*
X020701Y014599D03*
X020701Y015307D03*
D24*
X003693Y013733D03*
D25*
X004693Y013733D03*
X005693Y013733D03*
X006693Y013733D03*
X007693Y013733D03*
X008693Y013733D03*
X009693Y013733D03*
X010693Y013733D03*
X011693Y013733D03*
X012693Y013733D03*
X013693Y013733D03*
X014693Y013733D03*
X015693Y013733D03*
X016693Y013733D03*
X017693Y013733D03*
X018693Y013733D03*
X019693Y013733D03*
X020693Y013733D03*
X010800Y009481D03*
X008241Y009481D03*
D26*
X016426Y007237D03*
X016426Y006843D03*
X016426Y006449D03*
X016426Y006056D03*
X016426Y005662D03*
X016426Y005268D03*
X016426Y004874D03*
X016426Y004481D03*
X016426Y004087D03*
X016426Y003693D03*
X016426Y003300D03*
X016426Y002906D03*
X016426Y002512D03*
X016426Y002119D03*
X016426Y001725D03*
D27*
X015638Y001331D03*
X015638Y007630D03*
D28*
X003855Y007532D03*
X003855Y007729D03*
X003855Y007926D03*
X003855Y008122D03*
X003855Y008319D03*
X003855Y007335D03*
X003855Y007138D03*
X003855Y006941D03*
X003855Y006744D03*
X003855Y006548D03*
X003855Y006351D03*
X003855Y006154D03*
X003855Y005957D03*
X003855Y005760D03*
X003855Y005563D03*
X003855Y005367D03*
X003855Y005170D03*
X003855Y004973D03*
X003855Y004776D03*
D29*
X003481Y003792D03*
X001532Y003556D03*
X003481Y009500D03*
X001532Y009737D03*
D30*
X016292Y009835D03*
X016292Y011725D03*
X024441Y007591D03*
X024441Y005701D03*
D31*
X022081Y007012D03*
X021411Y007012D03*
X020741Y007012D03*
X020070Y007012D03*
X019400Y007012D03*
D32*
X020741Y002945D03*
D33*
X020662Y010859D03*
X018142Y010859D03*
D34*
X019865Y008851D03*
X021459Y008851D03*
D35*
X016372Y015946D03*
X015872Y015946D03*
X015372Y015946D03*
X014872Y015946D03*
X014872Y018596D03*
X015372Y018596D03*
X015872Y018596D03*
X016372Y018596D03*
D36*
X015465Y019363D03*
X018142Y018772D03*
X019796Y019363D03*
X020583Y019520D03*
X021764Y019244D03*
X022709Y019244D03*
X018772Y017433D03*
X018930Y016370D03*
X018103Y016056D03*
X017276Y015859D03*
X017355Y014717D03*
X019284Y012670D03*
X017670Y012355D03*
X015622Y011174D03*
X015150Y010622D03*
X016725Y010741D03*
X017197Y009914D03*
X017237Y008890D03*
X017512Y008300D03*
X018733Y007473D03*
X018811Y006725D03*
X019796Y005937D03*
X020504Y005465D03*
X020741Y006095D03*
X021922Y006016D03*
X022709Y006370D03*
X022945Y005583D03*
X021804Y005347D03*
X021843Y003851D03*
X020544Y003693D03*
X019205Y003851D03*
X019323Y002355D03*
X020583Y002197D03*
X021804Y002158D03*
X021843Y000741D03*
X021056Y000741D03*
X020229Y000662D03*
X018772Y000662D03*
X016489Y000859D03*
X015386Y000662D03*
X014284Y000780D03*
X011882Y001370D03*
X010268Y000937D03*
X015504Y002709D03*
X015544Y003693D03*
X015504Y004874D03*
X015465Y006056D03*
X013103Y007197D03*
X012867Y009008D03*
X013772Y009914D03*
X015268Y009008D03*
X011882Y009914D03*
X010544Y010819D03*
X009559Y009166D03*
X008024Y011016D03*
X007867Y012158D03*
X004914Y011528D03*
X002867Y011685D03*
X001292Y012552D03*
X000819Y011292D03*
X002000Y008851D03*
X002709Y008772D03*
X002237Y007512D03*
X002197Y006134D03*
X002158Y004678D03*
X002709Y003654D03*
X004284Y004284D03*
X004441Y003654D03*
X004126Y002473D03*
X003496Y001843D03*
X003063Y000701D03*
X000819Y004126D03*
X011607Y014481D03*
X010741Y015150D03*
X009087Y014796D03*
X007119Y015465D03*
X006252Y016922D03*
X005701Y017906D03*
X007079Y018890D03*
X006252Y019284D03*
X008930Y018890D03*
X009953Y018930D03*
X011449Y018063D03*
X012433Y018496D03*
X012433Y019363D03*
X015032Y017355D03*
X013930Y016174D03*
X012670Y015229D03*
X019363Y010819D03*
X019008Y009756D03*
X020071Y009796D03*
X019126Y008811D03*
X020622Y008418D03*
X020701Y007945D03*
X022906Y009441D03*
X022040Y009678D03*
X023300Y008103D03*
X019048Y005504D03*
X023536Y004402D03*
X024244Y004008D03*
X024993Y004363D03*
X024953Y003536D03*
X023536Y003536D03*
X022709Y000780D03*
X021922Y011725D03*
X023024Y012040D03*
X023733Y013339D03*
X025150Y013339D03*
X022867Y015111D03*
X021922Y014717D03*
X003418Y015268D03*
X002630Y015111D03*
X002906Y019087D03*
D37*
X006174Y016213D03*
X009166Y016134D03*
X009717Y016764D03*
X009048Y017394D03*
X009953Y017906D03*
X009008Y018103D03*
X010898Y015898D03*
X004520Y010229D03*
X004284Y008733D03*
X003103Y007945D03*
X003142Y007355D03*
X003024Y006685D03*
X003103Y006174D03*
X003063Y005622D03*
X003103Y004993D03*
X004678Y005859D03*
X005504Y005701D03*
X005622Y005268D03*
X005291Y004543D03*
X004953Y004638D03*
X005386Y003615D03*
X006367Y004202D03*
X006646Y004402D03*
X007788Y003536D03*
X009166Y004441D03*
X008811Y004678D03*
X008378Y004835D03*
X008181Y005111D03*
X007119Y005780D03*
X008181Y006410D03*
X008378Y006804D03*
X008733Y006116D03*
X009166Y005877D03*
X007276Y006646D03*
X006646Y006607D03*
X006367Y006821D03*
X007355Y007237D03*
X005859Y007670D03*
X005229Y007473D03*
X004993Y007788D03*
X004559Y007237D03*
X006016Y008733D03*
X002473Y010307D03*
X000544Y010307D03*
X000583Y009284D03*
X003142Y002827D03*
X010071Y001449D03*
X011370Y001843D03*
X012119Y002709D03*
X013260Y002709D03*
X013615Y003496D03*
X013221Y001843D03*
X012945Y000780D03*
X010977Y004835D03*
X013457Y006095D03*
X012079Y007197D03*
X014481Y008063D03*
X016882Y007827D03*
X020662Y008851D03*
X020622Y009323D03*
X022119Y009244D03*
X022079Y008536D03*
X021922Y008103D03*
X022788Y007552D03*
X021252Y010465D03*
D38*
X021125Y010493D02*
X021545Y010493D01*
X021545Y010495D02*
X021545Y009962D01*
X021643Y009864D01*
X023250Y009864D01*
X023250Y008621D01*
X021981Y008621D01*
X021981Y008523D02*
X023290Y008523D01*
X023305Y008487D02*
X023250Y008621D01*
X023250Y008720D02*
X021981Y008720D01*
X021981Y008818D02*
X023250Y008818D01*
X023250Y008917D02*
X021981Y008917D01*
X021981Y009015D02*
X023250Y009015D01*
X023250Y009114D02*
X021981Y009114D01*
X021981Y009212D02*
X023250Y009212D01*
X023250Y009311D02*
X021981Y009311D01*
X021981Y009393D02*
X021883Y009491D01*
X021718Y009491D01*
X021717Y009493D01*
X021709Y009509D01*
X021666Y009544D01*
X021027Y010183D01*
X021027Y010258D01*
X021125Y010356D01*
X021125Y011361D01*
X021027Y011460D01*
X020297Y011460D01*
X020198Y011361D01*
X020198Y010356D01*
X020297Y010258D01*
X020297Y009959D01*
X020352Y009825D01*
X020937Y009241D01*
X020937Y008309D01*
X021035Y008210D01*
X021046Y008210D01*
X021046Y007720D01*
X021033Y007733D01*
X020998Y007752D01*
X020960Y007763D01*
X020791Y007763D01*
X020791Y007062D01*
X020691Y007062D01*
X020691Y007763D01*
X020521Y007763D01*
X020483Y007752D01*
X020448Y007733D01*
X020435Y007720D01*
X020435Y007861D01*
X020380Y007995D01*
X020147Y008228D01*
X020239Y008228D01*
X020277Y008239D01*
X020311Y008258D01*
X020339Y008286D01*
X020359Y008320D01*
X020369Y008359D01*
X020369Y008801D01*
X019915Y008801D01*
X019915Y008901D01*
X020369Y008901D01*
X020369Y009343D01*
X020359Y009381D01*
X020339Y009415D01*
X020311Y009443D01*
X020277Y009463D01*
X020239Y009473D01*
X019915Y009473D01*
X019915Y008901D01*
X019815Y008901D01*
X019815Y009473D01*
X019490Y009473D01*
X019452Y009463D01*
X019418Y009443D01*
X019390Y009415D01*
X019370Y009381D01*
X019360Y009343D01*
X019360Y008901D01*
X019815Y008901D01*
X019815Y008801D01*
X019360Y008801D01*
X019360Y008389D01*
X019238Y008389D01*
X018507Y009120D01*
X018507Y010258D01*
X018606Y010356D01*
X018606Y011361D01*
X018507Y011460D01*
X017777Y011460D01*
X017679Y011361D01*
X017679Y011224D01*
X017585Y011224D01*
X016774Y012034D01*
X016735Y012050D01*
X016735Y012385D01*
X016637Y012483D01*
X015947Y012483D01*
X015848Y012385D01*
X015848Y012034D01*
X015301Y012580D01*
X017467Y012580D01*
X017601Y012636D01*
X017900Y012935D01*
X018003Y013038D01*
X018058Y013172D01*
X018058Y013365D01*
X018133Y013439D01*
X018193Y013586D01*
X018254Y013439D01*
X018400Y013293D01*
X018590Y013215D01*
X018796Y013215D01*
X018987Y013293D01*
X019133Y013439D01*
X019193Y013586D01*
X019254Y013439D01*
X019400Y013293D01*
X019590Y013215D01*
X019796Y013215D01*
X019987Y013293D01*
X020133Y013439D01*
X020193Y013586D01*
X020254Y013439D01*
X020400Y013293D01*
X020590Y013215D01*
X020796Y013215D01*
X020987Y013293D01*
X021133Y013439D01*
X021211Y013630D01*
X021211Y013836D01*
X021133Y014026D01*
X021066Y014093D01*
X021066Y014332D01*
X021106Y014372D01*
X021106Y014826D01*
X021007Y014924D01*
X020869Y014924D01*
X020774Y014964D01*
X020629Y014964D01*
X020534Y014924D01*
X020395Y014924D01*
X020297Y014826D01*
X020297Y014372D01*
X020336Y014332D01*
X020336Y014108D01*
X020254Y014026D01*
X020193Y013879D01*
X020133Y014026D01*
X020043Y014116D01*
X020043Y014372D01*
X020082Y014411D01*
X020082Y014865D01*
X019983Y014964D01*
X019845Y014964D01*
X019750Y015003D01*
X019605Y015003D01*
X019510Y014964D01*
X019372Y014964D01*
X019273Y014865D01*
X019273Y014411D01*
X019313Y014372D01*
X019313Y014085D01*
X019254Y014026D01*
X019193Y013879D01*
X019133Y014026D01*
X019058Y014100D01*
X019058Y014332D01*
X019098Y014372D01*
X019098Y014826D01*
X018999Y014924D01*
X018861Y014924D01*
X018766Y014964D01*
X018621Y014964D01*
X018526Y014924D01*
X018387Y014924D01*
X018289Y014826D01*
X018289Y014372D01*
X018328Y014332D01*
X018328Y014100D01*
X018254Y014026D01*
X018193Y013879D01*
X018133Y014026D01*
X017987Y014172D01*
X017796Y014251D01*
X017590Y014251D01*
X017400Y014172D01*
X017254Y014026D01*
X017193Y013879D01*
X017133Y014026D01*
X016987Y014172D01*
X016920Y014199D01*
X016920Y014291D01*
X016110Y015102D01*
X012992Y015102D01*
X013016Y015160D01*
X013016Y015298D01*
X013000Y015337D01*
X013607Y015337D01*
X013706Y015436D01*
X013706Y015553D01*
X014258Y015553D01*
X014356Y015593D01*
X014589Y015826D01*
X014602Y015859D01*
X014602Y015491D01*
X014613Y015453D01*
X014632Y015419D01*
X014660Y015391D01*
X014695Y015371D01*
X014733Y015361D01*
X014862Y015361D01*
X014862Y015936D01*
X014882Y015936D01*
X014882Y015361D01*
X015012Y015361D01*
X015050Y015371D01*
X015085Y015391D01*
X015112Y015419D01*
X015122Y015436D01*
X015132Y015419D01*
X015160Y015391D01*
X015195Y015371D01*
X015233Y015361D01*
X015362Y015361D01*
X015362Y015936D01*
X015102Y015936D01*
X014882Y015936D01*
X014882Y015956D01*
X015362Y015956D01*
X015362Y015936D01*
X015382Y015936D01*
X015382Y015361D01*
X015512Y015361D01*
X015550Y015371D01*
X015585Y015391D01*
X015612Y015419D01*
X015622Y015436D01*
X015632Y015419D01*
X015660Y015391D01*
X015695Y015371D01*
X015733Y015361D01*
X015862Y015361D01*
X015862Y015936D01*
X015602Y015936D01*
X015382Y015936D01*
X015382Y015956D01*
X015362Y015956D01*
X015362Y016531D01*
X015380Y016538D01*
X015455Y016613D01*
X015691Y016849D01*
X015731Y016947D01*
X015731Y017026D01*
X015978Y016780D01*
X016053Y016705D01*
X016151Y016664D01*
X016783Y016664D01*
X016783Y016546D01*
X016882Y016447D01*
X017533Y016447D01*
X017581Y016496D01*
X017630Y016447D01*
X018281Y016447D01*
X018379Y016546D01*
X018379Y017167D01*
X018549Y017167D01*
X018576Y017140D01*
X018703Y017087D01*
X018841Y017087D01*
X018968Y017140D01*
X019032Y017204D01*
X019038Y017206D01*
X019943Y017206D01*
X019943Y017167D01*
X020030Y017079D01*
X019943Y016991D01*
X019943Y016380D01*
X019986Y016336D01*
X019971Y016310D01*
X019961Y016272D01*
X019961Y016045D01*
X020239Y016045D01*
X020239Y015987D01*
X020297Y015987D01*
X020297Y015630D01*
X020445Y015630D01*
X020483Y015640D01*
X020518Y015660D01*
X020546Y015688D01*
X020565Y015722D01*
X020576Y015760D01*
X020576Y015987D01*
X020297Y015987D01*
X020297Y016045D01*
X020576Y016045D01*
X020576Y016272D01*
X020565Y016310D01*
X020550Y016336D01*
X020594Y016380D01*
X020594Y016458D01*
X020598Y016458D01*
X020651Y016511D01*
X020651Y016380D01*
X020680Y016351D01*
X020651Y016322D01*
X020651Y015710D01*
X020747Y015615D01*
X020730Y015615D01*
X020730Y015336D01*
X021087Y015336D01*
X021087Y015485D01*
X021077Y015523D01*
X021057Y015557D01*
X021030Y015585D01*
X020995Y015605D01*
X020969Y015612D01*
X021204Y015612D01*
X021302Y015710D01*
X021302Y016322D01*
X021274Y016351D01*
X021302Y016380D01*
X021302Y016419D01*
X021348Y016419D01*
X021447Y016320D01*
X023397Y016320D01*
X023485Y016409D01*
X024228Y016346D01*
X024241Y016314D01*
X024373Y016182D01*
X024545Y016111D01*
X024731Y016111D01*
X024903Y016182D01*
X025035Y016314D01*
X025106Y016486D01*
X025106Y016672D01*
X025035Y016844D01*
X024903Y016976D01*
X024731Y017047D01*
X024545Y017047D01*
X024373Y016976D01*
X024274Y016877D01*
X023495Y016943D01*
X023495Y016952D01*
X023397Y017050D01*
X021447Y017050D01*
X021348Y016952D01*
X021302Y016952D01*
X021302Y016991D01*
X021215Y017079D01*
X021302Y017167D01*
X021302Y017206D01*
X021348Y017206D01*
X021447Y017108D01*
X023397Y017108D01*
X023495Y017206D01*
X023495Y017221D01*
X024273Y017283D01*
X024373Y017182D01*
X024545Y017111D01*
X024731Y017111D01*
X024903Y017182D01*
X025035Y017314D01*
X025106Y017486D01*
X025106Y017672D01*
X025035Y017844D01*
X024903Y017976D01*
X024731Y018047D01*
X024545Y018047D01*
X024373Y017976D01*
X024241Y017844D01*
X024229Y017814D01*
X023480Y017755D01*
X023397Y017838D01*
X021447Y017838D01*
X021348Y017739D01*
X021302Y017739D01*
X021302Y017779D01*
X021243Y017838D01*
X021243Y017895D01*
X021302Y017954D01*
X021302Y018566D01*
X021234Y018634D01*
X021302Y018702D01*
X021302Y018742D01*
X021498Y018742D01*
X021498Y018625D01*
X021447Y018625D01*
X021348Y018527D01*
X021348Y017994D01*
X021447Y017895D01*
X023397Y017895D01*
X023495Y017994D01*
X023495Y018015D01*
X024329Y018226D01*
X024373Y018182D01*
X024545Y018111D01*
X024731Y018111D01*
X024903Y018182D01*
X025035Y018314D01*
X025106Y018486D01*
X025106Y018672D01*
X025086Y018722D01*
X025208Y018722D01*
X025306Y018821D01*
X025306Y019590D01*
X025208Y019688D01*
X025135Y019688D01*
X025303Y019798D01*
X025572Y020144D01*
X025572Y002203D01*
X025303Y002550D01*
X024920Y002800D01*
X024477Y002912D01*
X024022Y002874D01*
X023603Y002690D01*
X023267Y002381D01*
X023049Y001979D01*
X022989Y001618D01*
X022989Y002895D01*
X020791Y002895D01*
X020791Y002995D01*
X022989Y002995D01*
X022989Y004615D01*
X022979Y004653D01*
X022959Y004687D01*
X022931Y004715D01*
X022897Y004735D01*
X022859Y004745D01*
X020791Y004745D01*
X020791Y002995D01*
X020691Y002995D01*
X020691Y004745D01*
X018622Y004745D01*
X018584Y004735D01*
X018550Y004715D01*
X018522Y004687D01*
X018502Y004653D01*
X018492Y004615D01*
X018492Y002995D01*
X020691Y002995D01*
X020691Y002895D01*
X020791Y002895D01*
X020791Y001146D01*
X022859Y001146D01*
X022897Y001156D01*
X022931Y001176D01*
X022959Y001204D01*
X022979Y001238D01*
X022989Y001276D01*
X022989Y001438D01*
X023049Y001077D01*
X023267Y000675D01*
X023603Y000365D01*
X023711Y000318D01*
X018654Y000318D01*
X018610Y000322D01*
X018610Y000322D01*
X018529Y000356D01*
X018466Y000418D01*
X018433Y000500D01*
X018428Y000544D01*
X023409Y000544D01*
X023302Y000643D02*
X018428Y000643D01*
X018428Y000741D02*
X023231Y000741D01*
X023178Y000840D02*
X018428Y000840D01*
X018428Y000938D02*
X023125Y000938D01*
X023071Y001037D02*
X018428Y001037D01*
X018428Y001135D02*
X023040Y001135D01*
X023023Y001234D02*
X022976Y001234D01*
X022989Y001332D02*
X023007Y001332D01*
X022989Y001431D02*
X022990Y001431D01*
X022989Y001628D02*
X022991Y001628D01*
X022989Y001726D02*
X023007Y001726D01*
X022989Y001825D02*
X023024Y001825D01*
X023040Y001923D02*
X022989Y001923D01*
X022989Y002022D02*
X023072Y002022D01*
X023126Y002120D02*
X022989Y002120D01*
X022989Y002219D02*
X023179Y002219D01*
X023232Y002317D02*
X022989Y002317D01*
X022989Y002416D02*
X023304Y002416D01*
X023411Y002514D02*
X022989Y002514D01*
X022989Y002613D02*
X023518Y002613D01*
X023650Y002711D02*
X022989Y002711D01*
X022989Y002810D02*
X023875Y002810D01*
X024432Y002908D02*
X020791Y002908D01*
X020791Y002810D02*
X020691Y002810D01*
X020691Y002895D02*
X020691Y001146D01*
X018622Y001146D01*
X018584Y001156D01*
X018550Y001176D01*
X018522Y001204D01*
X018502Y001238D01*
X018492Y001276D01*
X018492Y002895D01*
X020691Y002895D01*
X020691Y002908D02*
X018428Y002908D01*
X018428Y002810D02*
X018492Y002810D01*
X018492Y002711D02*
X018428Y002711D01*
X018428Y002613D02*
X018492Y002613D01*
X018492Y002514D02*
X018428Y002514D01*
X018428Y002416D02*
X018492Y002416D01*
X018492Y002317D02*
X018428Y002317D01*
X018428Y002219D02*
X018492Y002219D01*
X018492Y002120D02*
X018428Y002120D01*
X018428Y002022D02*
X018492Y002022D01*
X018492Y001923D02*
X018428Y001923D01*
X018428Y001825D02*
X018492Y001825D01*
X018492Y001726D02*
X018428Y001726D01*
X018428Y001628D02*
X018492Y001628D01*
X018492Y001529D02*
X018428Y001529D01*
X018428Y001431D02*
X018492Y001431D01*
X018492Y001332D02*
X018428Y001332D01*
X018428Y001234D02*
X018505Y001234D01*
X018428Y000544D02*
X018428Y007742D01*
X018343Y007949D01*
X018185Y008107D01*
X017978Y008192D01*
X017755Y008192D01*
X017548Y008107D01*
X017489Y008047D01*
X016922Y008615D01*
X007040Y008615D01*
X004796Y010859D01*
X000318Y010859D01*
X000318Y020177D01*
X000432Y019966D01*
X000734Y019688D01*
X000643Y019688D01*
X000545Y019590D01*
X000545Y018821D01*
X000643Y018722D01*
X000763Y018722D01*
X000763Y018629D01*
X001163Y018629D01*
X001163Y018529D01*
X001263Y018529D01*
X001263Y018129D01*
X001533Y018129D01*
X001571Y018139D01*
X001605Y018159D01*
X001633Y018187D01*
X001653Y018221D01*
X001663Y018259D01*
X001663Y018529D01*
X001263Y018529D01*
X001263Y018629D01*
X001663Y018629D01*
X001663Y018722D01*
X002121Y018722D01*
X002220Y018821D01*
X002220Y019590D01*
X002192Y019617D01*
X002468Y019798D01*
X002749Y020158D01*
X002898Y020591D01*
X002898Y021048D01*
X002749Y021480D01*
X002468Y021841D01*
X002180Y022029D01*
X023711Y022029D01*
X023603Y021982D01*
X023267Y021672D01*
X023049Y021270D01*
X022974Y020819D01*
X023049Y020368D01*
X023267Y019966D01*
X023603Y019657D01*
X023669Y019628D01*
X023631Y019590D01*
X023631Y018821D01*
X023730Y018722D01*
X024117Y018722D01*
X023465Y018557D01*
X023397Y018625D01*
X022170Y018625D01*
X022031Y018764D01*
X022031Y019021D01*
X022058Y019048D01*
X022110Y019176D01*
X022110Y019313D01*
X022058Y019441D01*
X021960Y019538D01*
X021833Y019591D01*
X021695Y019591D01*
X021568Y019538D01*
X021471Y019441D01*
X021418Y019313D01*
X021418Y019275D01*
X021302Y019275D01*
X021302Y019314D01*
X021204Y019413D01*
X020913Y019413D01*
X020929Y019451D01*
X020929Y019589D01*
X020877Y019716D01*
X020779Y019814D01*
X020654Y019866D01*
X020913Y020125D01*
X020913Y020513D01*
X020639Y020787D01*
X020251Y020787D01*
X020180Y020716D01*
X020180Y020795D01*
X020047Y020928D01*
X019929Y021046D01*
X019809Y021046D01*
X019895Y021133D01*
X019895Y021269D01*
X019495Y021269D01*
X019495Y021369D01*
X019395Y021369D01*
X019395Y021269D01*
X018995Y021269D01*
X018995Y021133D01*
X019082Y021046D01*
X018834Y021046D01*
X018913Y021125D01*
X018913Y021513D01*
X018639Y021787D01*
X018251Y021787D01*
X017977Y021513D01*
X017977Y021125D01*
X018056Y021046D01*
X017812Y021046D01*
X017679Y020913D01*
X017553Y020787D01*
X017251Y020787D01*
X016977Y020513D01*
X016977Y020125D01*
X017251Y019851D01*
X017639Y019851D01*
X017913Y020125D01*
X017913Y020506D01*
X018000Y020592D01*
X018056Y020592D01*
X017977Y020513D01*
X017977Y020125D01*
X018179Y019924D01*
X018179Y019676D01*
X018219Y019578D01*
X018585Y019212D01*
X018660Y019137D01*
X018758Y019096D01*
X019573Y019096D01*
X019600Y019069D01*
X019727Y019016D01*
X019865Y019016D01*
X019943Y019049D01*
X019943Y018702D01*
X020025Y018620D01*
X020019Y018616D01*
X019991Y018589D01*
X019971Y018554D01*
X019961Y018516D01*
X019961Y018289D01*
X020239Y018289D01*
X020239Y018231D01*
X019961Y018231D01*
X019961Y018004D01*
X019971Y017966D01*
X019991Y017932D01*
X020019Y017904D01*
X020053Y017884D01*
X020079Y017877D01*
X020041Y017877D01*
X019943Y017779D01*
X019943Y017739D01*
X018938Y017739D01*
X018841Y017780D01*
X018703Y017780D01*
X018576Y017727D01*
X018549Y017700D01*
X018379Y017700D01*
X018379Y018276D01*
X018281Y018374D01*
X017630Y018374D01*
X017581Y018326D01*
X017533Y018374D01*
X016882Y018374D01*
X016783Y018276D01*
X016783Y018158D01*
X016732Y018158D01*
X016661Y018229D01*
X016661Y019000D01*
X016671Y019011D01*
X016712Y019109D01*
X016712Y019924D01*
X016913Y020125D01*
X016913Y020513D01*
X016639Y020787D01*
X016290Y020787D01*
X016354Y020851D01*
X016639Y020851D01*
X016913Y021125D01*
X016913Y021513D01*
X016639Y021787D01*
X016251Y021787D01*
X015977Y021513D01*
X015977Y021228D01*
X015913Y021164D01*
X015913Y021513D01*
X015639Y021787D01*
X015251Y021787D01*
X014977Y021513D01*
X014977Y021125D01*
X015251Y020851D01*
X015639Y020851D01*
X015684Y020896D01*
X015671Y020864D01*
X015671Y020758D01*
X015689Y020714D01*
X015689Y020712D01*
X015632Y020769D01*
X015495Y020769D01*
X015495Y020369D01*
X015395Y020369D01*
X015395Y020269D01*
X015495Y020269D01*
X015495Y019869D01*
X015632Y019869D01*
X015689Y019927D01*
X015689Y019628D01*
X015661Y019656D01*
X015534Y019709D01*
X015396Y019709D01*
X015269Y019656D01*
X015202Y019590D01*
X012696Y019590D01*
X012630Y019656D01*
X012502Y019709D01*
X012365Y019709D01*
X012237Y019656D01*
X012140Y019559D01*
X012087Y019431D01*
X012087Y019294D01*
X012140Y019166D01*
X012150Y019157D01*
X011953Y019157D01*
X011703Y019407D01*
X011712Y019428D01*
X011712Y019924D01*
X011913Y020125D01*
X011913Y020513D01*
X011639Y020787D01*
X011251Y020787D01*
X010977Y020513D01*
X010977Y020125D01*
X011179Y019924D01*
X011179Y019629D01*
X006324Y019629D01*
X006321Y019630D01*
X006183Y019630D01*
X006181Y019629D01*
X005810Y019629D01*
X005731Y019708D01*
X004962Y019708D01*
X004884Y019629D01*
X003804Y019629D01*
X003712Y019721D01*
X003712Y019851D01*
X003815Y019851D01*
X003913Y019950D01*
X003913Y020689D01*
X003815Y020787D01*
X003076Y020787D01*
X002977Y020689D01*
X002977Y019950D01*
X003076Y019851D01*
X003179Y019851D01*
X003179Y019558D01*
X003219Y019460D01*
X003467Y019212D01*
X003542Y019137D01*
X003640Y019096D01*
X004864Y019096D01*
X004864Y018958D01*
X004946Y018876D01*
X004940Y018872D01*
X004912Y018844D01*
X004892Y018810D01*
X004882Y018772D01*
X004882Y018546D01*
X005297Y018546D01*
X005297Y018446D01*
X005397Y018446D01*
X005397Y018091D01*
X005682Y018091D01*
X005720Y018101D01*
X005754Y018121D01*
X005782Y018148D01*
X005802Y018183D01*
X005812Y018221D01*
X005812Y018446D01*
X005397Y018446D01*
X005397Y018546D01*
X005812Y018546D01*
X005812Y018772D01*
X005802Y018810D01*
X005782Y018844D01*
X005754Y018872D01*
X005748Y018876D01*
X005830Y018958D01*
X005830Y019096D01*
X005955Y019096D01*
X005959Y019088D01*
X006056Y018990D01*
X006183Y018938D01*
X006321Y018938D01*
X006448Y018990D01*
X006546Y019088D01*
X006549Y019096D01*
X011260Y019096D01*
X011617Y018739D01*
X011633Y018724D01*
X006394Y018724D01*
X006261Y018591D01*
X005986Y018315D01*
X005986Y017803D01*
X005883Y017700D01*
X004503Y017700D01*
X004503Y017739D01*
X004405Y017838D01*
X002454Y017838D01*
X002366Y017749D01*
X001623Y017812D01*
X001610Y017844D01*
X001478Y017976D01*
X001306Y018047D01*
X001120Y018047D01*
X000948Y017976D01*
X000816Y017844D01*
X000745Y017672D01*
X000745Y017486D01*
X000816Y017314D01*
X000948Y017182D01*
X001120Y017111D01*
X001306Y017111D01*
X001478Y017182D01*
X001577Y017281D01*
X002356Y017215D01*
X002356Y017206D01*
X002454Y017108D01*
X004405Y017108D01*
X004503Y017206D01*
X004503Y017246D01*
X005153Y017246D01*
X005120Y017213D01*
X005120Y017090D01*
X004765Y017090D01*
X004667Y016991D01*
X004667Y016952D01*
X004503Y016952D01*
X004405Y017050D01*
X002454Y017050D01*
X002356Y016952D01*
X002356Y016943D01*
X001577Y016877D01*
X001478Y016976D01*
X001306Y017047D01*
X001120Y017047D01*
X000948Y016976D01*
X000816Y016844D01*
X000745Y016672D01*
X000745Y016486D01*
X000816Y016314D01*
X000948Y016182D01*
X001120Y016111D01*
X001306Y016111D01*
X001478Y016182D01*
X001610Y016314D01*
X001623Y016346D01*
X002366Y016409D01*
X002454Y016320D01*
X004405Y016320D01*
X004503Y016419D01*
X004667Y016419D01*
X004667Y016380D01*
X004755Y016292D01*
X004667Y016204D01*
X004667Y016165D01*
X004503Y016165D01*
X004405Y016263D01*
X002454Y016263D01*
X002356Y016165D01*
X002356Y016134D01*
X001524Y015930D01*
X001478Y015976D01*
X001306Y016047D01*
X001120Y016047D01*
X000948Y015976D01*
X000816Y015844D01*
X000745Y015672D01*
X000745Y015486D01*
X000766Y015436D01*
X000643Y015436D01*
X000545Y015338D01*
X000545Y014569D01*
X000643Y014470D01*
X002121Y014470D01*
X002220Y014569D01*
X002220Y015338D01*
X002121Y015436D01*
X001749Y015436D01*
X002393Y015594D01*
X002454Y015533D01*
X004405Y015533D01*
X004503Y015631D01*
X004667Y015631D01*
X004667Y015592D01*
X004765Y015494D01*
X005220Y015494D01*
X005318Y015592D01*
X005318Y015942D01*
X005376Y015999D01*
X005376Y015592D01*
X005474Y015494D01*
X005816Y015494D01*
X004566Y014244D01*
X004560Y014238D01*
X004400Y014172D01*
X004254Y014026D01*
X004193Y013879D01*
X004193Y014102D01*
X004183Y014141D01*
X004163Y014175D01*
X004135Y014203D01*
X004101Y014222D01*
X004063Y014233D01*
X003742Y014233D01*
X003742Y013781D01*
X003645Y013781D01*
X003645Y013684D01*
X003742Y013684D01*
X003742Y013233D01*
X004063Y013233D01*
X004101Y013243D01*
X004135Y013263D01*
X004163Y013291D01*
X004183Y013325D01*
X004193Y013363D01*
X004193Y013586D01*
X004254Y013439D01*
X004400Y013293D01*
X004590Y013215D01*
X004695Y013215D01*
X005274Y012636D01*
X005408Y012580D01*
X008839Y012580D01*
X008801Y012542D01*
X008801Y012404D01*
X008761Y012309D01*
X008761Y010734D01*
X008129Y010102D01*
X007014Y010102D01*
X006775Y010341D01*
X006775Y010554D01*
X006676Y010653D01*
X006222Y010653D01*
X006124Y010554D01*
X006124Y010318D01*
X006084Y010223D01*
X006084Y010077D01*
X006140Y009943D01*
X006553Y009530D01*
X006656Y009427D01*
X006790Y009372D01*
X007725Y009372D01*
X007801Y009187D01*
X007947Y009041D01*
X008137Y008963D01*
X008344Y008963D01*
X008534Y009041D01*
X008680Y009187D01*
X008759Y009378D01*
X008759Y009584D01*
X008725Y009665D01*
X009436Y010376D01*
X009470Y010459D01*
X009470Y010392D01*
X009526Y010258D01*
X009628Y010156D01*
X010281Y009502D01*
X010281Y009378D01*
X010360Y009187D01*
X010506Y009041D01*
X010697Y008963D01*
X010903Y008963D01*
X011093Y009041D01*
X011239Y009187D01*
X011318Y009378D01*
X011318Y009584D01*
X011239Y009774D01*
X011093Y009920D01*
X010903Y009999D01*
X010817Y009999D01*
X010200Y010616D01*
X010200Y012580D01*
X010922Y012580D01*
X010916Y012570D01*
X010906Y012532D01*
X010906Y012383D01*
X011263Y012383D01*
X011263Y012326D01*
X010906Y012326D01*
X010906Y012177D01*
X010916Y012139D01*
X010935Y012105D01*
X010963Y012077D01*
X010998Y012057D01*
X011036Y012047D01*
X011263Y012047D01*
X011263Y012326D01*
X011320Y012326D01*
X011320Y012047D01*
X011434Y012047D01*
X011358Y011972D01*
X010986Y011972D01*
X010887Y011873D01*
X010887Y011419D01*
X010986Y011320D01*
X011598Y011320D01*
X011696Y011419D01*
X011696Y011555D01*
X011754Y011613D01*
X011754Y011399D01*
X011852Y011301D01*
X012346Y011301D01*
X012444Y011399D01*
X012444Y011810D01*
X012519Y011735D01*
X012617Y011694D01*
X012659Y011694D01*
X012659Y011399D01*
X012727Y011332D01*
X012680Y011285D01*
X012665Y011249D01*
X012580Y011165D01*
X012580Y010553D01*
X012679Y010454D01*
X013133Y010454D01*
X013231Y010553D01*
X013231Y011085D01*
X013271Y011180D01*
X013271Y011320D01*
X013466Y011320D01*
X013565Y011222D01*
X014019Y011222D01*
X014117Y011321D01*
X014117Y011694D01*
X014173Y011694D01*
X014214Y011654D01*
X014214Y011321D01*
X014313Y011222D01*
X014767Y011222D01*
X014865Y011321D01*
X014865Y011814D01*
X014767Y011913D01*
X014709Y011913D01*
X014494Y012128D01*
X015000Y012128D01*
X015554Y011574D01*
X015629Y011499D01*
X015727Y011458D01*
X015848Y011458D01*
X015848Y011065D01*
X015947Y010966D01*
X016637Y010966D01*
X016723Y011053D01*
X017124Y010652D01*
X017227Y010549D01*
X017361Y010494D01*
X017679Y010494D01*
X017679Y010356D01*
X017777Y010258D01*
X017777Y008896D01*
X017833Y008762D01*
X018880Y007715D01*
X019014Y007659D01*
X019058Y007659D01*
X019050Y007632D01*
X019050Y007062D01*
X019350Y007062D01*
X019350Y006962D01*
X019050Y006962D01*
X019050Y006392D01*
X019061Y006354D01*
X019080Y006320D01*
X019108Y006292D01*
X019142Y006272D01*
X019181Y006262D01*
X019350Y006262D01*
X019350Y006962D01*
X019450Y006962D01*
X019450Y006262D01*
X019620Y006262D01*
X019658Y006272D01*
X019692Y006292D01*
X019720Y006320D01*
X019722Y006323D01*
X019801Y006244D01*
X020340Y006244D01*
X020419Y006323D01*
X020421Y006320D01*
X020448Y006292D01*
X020483Y006272D01*
X020521Y006262D01*
X020691Y006262D01*
X020691Y006962D01*
X020791Y006962D01*
X020791Y006262D01*
X020960Y006262D01*
X020998Y006272D01*
X021033Y006292D01*
X021061Y006320D01*
X021062Y006323D01*
X021141Y006244D01*
X021680Y006244D01*
X021746Y006309D01*
X021811Y006244D01*
X022350Y006244D01*
X022449Y006342D01*
X022449Y006635D01*
X024238Y006635D01*
X024372Y006691D01*
X024514Y006832D01*
X024787Y006832D01*
X024885Y006931D01*
X024885Y008251D01*
X024806Y008330D01*
X024806Y008412D01*
X024751Y008546D01*
X024648Y008648D01*
X024530Y008766D01*
X024447Y008801D01*
X025405Y008801D01*
X025503Y008899D01*
X025503Y009668D01*
X025405Y009767D01*
X025146Y009767D01*
X025146Y010492D01*
X025047Y010591D01*
X024308Y010591D01*
X024209Y010492D01*
X024209Y010487D01*
X024108Y010487D01*
X024058Y010538D01*
X023923Y010594D01*
X021643Y010594D01*
X021545Y010495D01*
X021545Y010394D02*
X021125Y010394D01*
X021065Y010296D02*
X021545Y010296D01*
X021545Y010197D02*
X021027Y010197D01*
X021111Y010099D02*
X021545Y010099D01*
X021545Y010000D02*
X021210Y010000D01*
X021308Y009902D02*
X021606Y009902D01*
X021505Y009705D02*
X023250Y009705D01*
X023250Y009803D02*
X021407Y009803D01*
X021604Y009606D02*
X023250Y009606D01*
X023250Y009508D02*
X021709Y009508D01*
X021965Y009409D02*
X023250Y009409D01*
X021981Y009393D02*
X021981Y008309D01*
X021883Y008210D01*
X021776Y008210D01*
X021776Y007745D01*
X021811Y007781D01*
X022350Y007781D01*
X022449Y007682D01*
X022449Y007365D01*
X023998Y007365D01*
X023998Y008092D01*
X023778Y008092D01*
X023644Y008148D01*
X023541Y008250D01*
X023305Y008487D01*
X023368Y008424D02*
X021981Y008424D01*
X021981Y008326D02*
X023466Y008326D01*
X023565Y008227D02*
X021900Y008227D01*
X021776Y008129D02*
X023690Y008129D01*
X023998Y008030D02*
X021776Y008030D01*
X021776Y007932D02*
X023998Y007932D01*
X023998Y007833D02*
X021776Y007833D01*
X022397Y007735D02*
X023998Y007735D01*
X023998Y007636D02*
X022449Y007636D01*
X022449Y007538D02*
X023998Y007538D01*
X023998Y007439D02*
X022449Y007439D01*
X022449Y006553D02*
X025572Y006553D01*
X025572Y006651D02*
X024276Y006651D01*
X024431Y006750D02*
X025572Y006750D01*
X025572Y006848D02*
X024802Y006848D01*
X024885Y006947D02*
X025572Y006947D01*
X025572Y007045D02*
X024885Y007045D01*
X024885Y007144D02*
X025572Y007144D01*
X025572Y007242D02*
X024885Y007242D01*
X024885Y007341D02*
X025572Y007341D01*
X025572Y007439D02*
X024885Y007439D01*
X024885Y007538D02*
X025572Y007538D01*
X025572Y007636D02*
X024885Y007636D01*
X024885Y007735D02*
X025572Y007735D01*
X025572Y007833D02*
X024885Y007833D01*
X024885Y007932D02*
X025572Y007932D01*
X025572Y008030D02*
X024885Y008030D01*
X024885Y008129D02*
X025572Y008129D01*
X025572Y008227D02*
X024885Y008227D01*
X024811Y008326D02*
X025572Y008326D01*
X025572Y008424D02*
X024801Y008424D01*
X024760Y008523D02*
X025572Y008523D01*
X025572Y008621D02*
X024675Y008621D01*
X024577Y008720D02*
X025572Y008720D01*
X025572Y008818D02*
X025422Y008818D01*
X025503Y008917D02*
X025572Y008917D01*
X025572Y009015D02*
X025503Y009015D01*
X025503Y009114D02*
X025572Y009114D01*
X025572Y009212D02*
X025503Y009212D01*
X025503Y009311D02*
X025572Y009311D01*
X025572Y009409D02*
X025503Y009409D01*
X025503Y009508D02*
X025572Y009508D01*
X025572Y009606D02*
X025503Y009606D01*
X025467Y009705D02*
X025572Y009705D01*
X025572Y009803D02*
X025146Y009803D01*
X025146Y009902D02*
X025572Y009902D01*
X025572Y010000D02*
X025146Y010000D01*
X025146Y010099D02*
X025572Y010099D01*
X025572Y010197D02*
X025146Y010197D01*
X025146Y010296D02*
X025572Y010296D01*
X025572Y010394D02*
X025146Y010394D01*
X025145Y010493D02*
X025572Y010493D01*
X025572Y010591D02*
X023930Y010591D01*
X024103Y010493D02*
X024210Y010493D01*
X024442Y010738D02*
X024505Y010705D01*
X024572Y010684D01*
X024628Y010675D01*
X024628Y011072D01*
X024728Y011072D01*
X024728Y011172D01*
X025125Y011172D01*
X025116Y011228D01*
X025095Y011295D01*
X025062Y011358D01*
X025021Y011416D01*
X024971Y011466D01*
X024954Y011478D01*
X025405Y011478D01*
X025503Y011576D01*
X025572Y011576D01*
X025503Y011576D02*
X025503Y012346D01*
X025405Y012444D01*
X023927Y012444D01*
X023828Y012346D01*
X023828Y011576D01*
X023927Y011478D01*
X024401Y011478D01*
X024384Y011466D01*
X024334Y011416D01*
X024293Y011358D01*
X024261Y011295D01*
X024239Y011228D01*
X024230Y011172D01*
X024628Y011172D01*
X024628Y011072D01*
X024230Y011072D01*
X024239Y011017D01*
X024261Y010950D01*
X024293Y010887D01*
X024334Y010829D01*
X024384Y010779D01*
X024442Y010738D01*
X024376Y010788D02*
X023671Y010788D01*
X023674Y010800D02*
X023674Y010968D01*
X022667Y010968D01*
X022667Y011065D01*
X022570Y011065D01*
X022570Y011363D01*
X021693Y011363D01*
X021655Y011353D01*
X021621Y011333D01*
X021593Y011305D01*
X021573Y011271D01*
X021563Y011233D01*
X021563Y011065D01*
X022570Y011065D01*
X022570Y010968D01*
X021563Y010968D01*
X021563Y010800D01*
X021573Y010761D01*
X021593Y010727D01*
X021621Y010699D01*
X021655Y010680D01*
X021693Y010669D01*
X022570Y010669D01*
X022570Y010968D01*
X022667Y010968D01*
X022667Y010669D01*
X023544Y010669D01*
X023582Y010680D01*
X023616Y010699D01*
X023644Y010727D01*
X023664Y010761D01*
X023674Y010800D01*
X023674Y010887D02*
X024293Y010887D01*
X024249Y010985D02*
X022667Y010985D01*
X022667Y011065D02*
X023674Y011065D01*
X023674Y011233D01*
X023664Y011271D01*
X023644Y011305D01*
X023616Y011333D01*
X023582Y011353D01*
X023544Y011363D01*
X022667Y011363D01*
X022667Y011065D01*
X022667Y011084D02*
X022570Y011084D01*
X022570Y011182D02*
X022667Y011182D01*
X022667Y011281D02*
X022570Y011281D01*
X022570Y010985D02*
X021125Y010985D01*
X021125Y010887D02*
X021563Y010887D01*
X021566Y010788D02*
X021125Y010788D01*
X021125Y010690D02*
X021638Y010690D01*
X021641Y010591D02*
X021125Y010591D01*
X021125Y011084D02*
X021563Y011084D01*
X021563Y011182D02*
X021125Y011182D01*
X021125Y011281D02*
X021579Y011281D01*
X021108Y011379D02*
X024308Y011379D01*
X024256Y011281D02*
X023658Y011281D01*
X023674Y011182D02*
X024231Y011182D01*
X024401Y011478D02*
X017331Y011478D01*
X017232Y011576D02*
X023829Y011576D01*
X023828Y011675D02*
X017134Y011675D01*
X017035Y011773D02*
X023828Y011773D01*
X023828Y011872D02*
X016937Y011872D01*
X016838Y011970D02*
X023828Y011970D01*
X023828Y012069D02*
X016735Y012069D01*
X016735Y012167D02*
X023828Y012167D01*
X023828Y012266D02*
X016735Y012266D01*
X016735Y012364D02*
X023847Y012364D01*
X024954Y011478D02*
X025572Y011478D01*
X025572Y011379D02*
X025047Y011379D01*
X025099Y011281D02*
X025572Y011281D01*
X025572Y011182D02*
X025124Y011182D01*
X025125Y011072D02*
X024728Y011072D01*
X024728Y010675D01*
X024783Y010684D01*
X024850Y010705D01*
X024913Y010738D01*
X024971Y010779D01*
X025021Y010829D01*
X025062Y010887D01*
X025095Y010950D01*
X025116Y011017D01*
X025125Y011072D01*
X025106Y010985D02*
X025572Y010985D01*
X025572Y010887D02*
X025062Y010887D01*
X024980Y010788D02*
X025572Y010788D01*
X025572Y010690D02*
X024801Y010690D01*
X024728Y010690D02*
X024628Y010690D01*
X024554Y010690D02*
X023599Y010690D01*
X023674Y011084D02*
X024628Y011084D01*
X024628Y010985D02*
X024728Y010985D01*
X024728Y010887D02*
X024628Y010887D01*
X024628Y010788D02*
X024728Y010788D01*
X024728Y011084D02*
X025572Y011084D01*
X025572Y011675D02*
X025503Y011675D01*
X025503Y011773D02*
X025572Y011773D01*
X025572Y011872D02*
X025503Y011872D01*
X025503Y011970D02*
X025572Y011970D01*
X025572Y012069D02*
X025503Y012069D01*
X025503Y012167D02*
X025572Y012167D01*
X025572Y012266D02*
X025503Y012266D01*
X025485Y012364D02*
X025572Y012364D01*
X025572Y012463D02*
X016658Y012463D01*
X015926Y012463D02*
X015419Y012463D01*
X015321Y012561D02*
X025572Y012561D01*
X025572Y012660D02*
X017624Y012660D01*
X017723Y012758D02*
X025572Y012758D01*
X025572Y012857D02*
X017821Y012857D01*
X017920Y012955D02*
X025572Y012955D01*
X025572Y013054D02*
X018009Y013054D01*
X018050Y013152D02*
X025572Y013152D01*
X025572Y013251D02*
X020883Y013251D01*
X021042Y013349D02*
X025572Y013349D01*
X025572Y013448D02*
X021136Y013448D01*
X021177Y013546D02*
X025572Y013546D01*
X025572Y013645D02*
X021211Y013645D01*
X021211Y013743D02*
X025572Y013743D01*
X025572Y013842D02*
X021209Y013842D01*
X021168Y013940D02*
X025572Y013940D01*
X025572Y014039D02*
X021120Y014039D01*
X021066Y014137D02*
X025572Y014137D01*
X025572Y014236D02*
X021066Y014236D01*
X021068Y014334D02*
X025572Y014334D01*
X025572Y014433D02*
X021106Y014433D01*
X021106Y014531D02*
X023669Y014531D01*
X023631Y014569D02*
X023730Y014470D01*
X025208Y014470D01*
X025306Y014569D01*
X025306Y015338D01*
X025208Y015436D01*
X025088Y015436D01*
X025088Y015529D01*
X024688Y015529D01*
X024688Y015629D01*
X024588Y015629D01*
X024588Y015529D01*
X024188Y015529D01*
X024188Y015436D01*
X023730Y015436D01*
X023631Y015338D01*
X023631Y014569D01*
X023631Y014630D02*
X021106Y014630D01*
X021106Y014728D02*
X023631Y014728D01*
X023631Y014827D02*
X021105Y014827D01*
X020995Y015010D02*
X021030Y015030D01*
X021057Y015058D01*
X021077Y015092D01*
X021087Y015130D01*
X021087Y015279D01*
X020730Y015279D01*
X020730Y015336D01*
X020672Y015336D01*
X020672Y015279D01*
X020315Y015279D01*
X020315Y015130D01*
X020325Y015092D01*
X020345Y015058D01*
X020373Y015030D01*
X020407Y015010D01*
X020445Y015000D01*
X020672Y015000D01*
X020672Y015279D01*
X020730Y015279D01*
X020730Y015000D01*
X020957Y015000D01*
X020995Y015010D01*
X021018Y015024D02*
X023631Y015024D01*
X023631Y015122D02*
X021085Y015122D01*
X021087Y015221D02*
X023631Y015221D01*
X023631Y015319D02*
X020730Y015319D01*
X020672Y015319D02*
X019706Y015319D01*
X019706Y015318D02*
X019706Y015376D01*
X019649Y015376D01*
X019649Y015654D01*
X019422Y015654D01*
X019383Y015644D01*
X019349Y015624D01*
X019321Y015596D01*
X019302Y015562D01*
X019291Y015524D01*
X019291Y015376D01*
X019649Y015376D01*
X019649Y015318D01*
X019706Y015318D01*
X019706Y015039D01*
X019934Y015039D01*
X019972Y015050D01*
X020006Y015069D01*
X020034Y015097D01*
X020054Y015131D01*
X020064Y015170D01*
X020064Y015318D01*
X019706Y015318D01*
X019649Y015318D02*
X019649Y015039D01*
X019422Y015039D01*
X019383Y015050D01*
X019349Y015069D01*
X019321Y015097D01*
X019302Y015131D01*
X019291Y015170D01*
X019291Y015318D01*
X019649Y015318D01*
X019649Y015319D02*
X018722Y015319D01*
X018722Y015336D02*
X019080Y015336D01*
X019080Y015485D01*
X019069Y015523D01*
X019050Y015557D01*
X019022Y015585D01*
X018987Y015605D01*
X018949Y015615D01*
X018722Y015615D01*
X018722Y015336D01*
X018722Y015279D01*
X019080Y015279D01*
X019080Y015130D01*
X019069Y015092D01*
X019050Y015058D01*
X019022Y015030D01*
X018987Y015010D01*
X018949Y015000D01*
X018722Y015000D01*
X018722Y015279D01*
X018665Y015279D01*
X018665Y015000D01*
X018437Y015000D01*
X018399Y015010D01*
X018365Y015030D01*
X018337Y015058D01*
X018317Y015092D01*
X018307Y015130D01*
X018307Y015279D01*
X018665Y015279D01*
X018665Y015336D01*
X018665Y015615D01*
X018437Y015615D01*
X018399Y015605D01*
X018365Y015585D01*
X018337Y015557D01*
X018317Y015523D01*
X018307Y015485D01*
X018307Y015336D01*
X018665Y015336D01*
X018722Y015336D01*
X018665Y015319D02*
X013007Y015319D01*
X013016Y015221D02*
X018307Y015221D01*
X018309Y015122D02*
X013000Y015122D01*
X013688Y015418D02*
X014634Y015418D01*
X014602Y015516D02*
X013706Y015516D01*
X013706Y016086D02*
X013706Y016205D01*
X013607Y016303D01*
X013350Y016303D01*
X013266Y016387D01*
X013344Y016387D01*
X013344Y016787D01*
X013444Y016787D01*
X013444Y016387D01*
X013714Y016387D01*
X013752Y016397D01*
X013786Y016417D01*
X013814Y016445D01*
X013834Y016479D01*
X013844Y016517D01*
X013844Y016787D01*
X013444Y016787D01*
X013444Y016887D01*
X013344Y016887D01*
X013344Y017287D01*
X013074Y017287D01*
X013036Y017277D01*
X013002Y017257D01*
X012974Y017229D01*
X012954Y017195D01*
X012944Y017157D01*
X012944Y016985D01*
X012866Y017063D01*
X012795Y017092D01*
X012791Y017102D01*
X012659Y017234D01*
X012487Y017305D01*
X012301Y017305D01*
X012129Y017234D01*
X011997Y017102D01*
X011926Y016930D01*
X011926Y016744D01*
X011997Y016572D01*
X012129Y016440D01*
X012301Y016369D01*
X012487Y016369D01*
X012600Y016416D01*
X012600Y016357D01*
X012622Y016303D01*
X012208Y016303D01*
X012110Y016205D01*
X012110Y016087D01*
X011834Y016087D01*
X011755Y016166D01*
X011755Y017284D01*
X012229Y017757D01*
X012920Y017757D01*
X013018Y017798D01*
X013227Y018008D01*
X013227Y017887D01*
X013642Y017887D01*
X013642Y017787D01*
X013227Y017787D01*
X013227Y017561D01*
X013238Y017523D01*
X013257Y017489D01*
X013285Y017461D01*
X013319Y017441D01*
X013358Y017431D01*
X013642Y017431D01*
X013642Y017787D01*
X013742Y017787D01*
X013742Y017431D01*
X014027Y017431D01*
X014065Y017441D01*
X014099Y017461D01*
X014127Y017489D01*
X014147Y017523D01*
X014157Y017561D01*
X014157Y017787D01*
X013742Y017787D01*
X013742Y017887D01*
X014157Y017887D01*
X014157Y018113D01*
X014147Y018151D01*
X014127Y018185D01*
X014099Y018213D01*
X014093Y018217D01*
X014175Y018299D01*
X014175Y018309D01*
X014584Y018309D01*
X014584Y018091D01*
X014588Y018087D01*
X014588Y017479D01*
X014629Y017381D01*
X014686Y017324D01*
X014686Y017286D01*
X014738Y017159D01*
X014836Y017061D01*
X014909Y017031D01*
X014506Y017031D01*
X014408Y016990D01*
X014212Y016793D01*
X014137Y016718D01*
X014096Y016620D01*
X014096Y016087D01*
X014095Y016086D01*
X013706Y016086D01*
X013706Y016107D02*
X014096Y016107D01*
X014096Y016206D02*
X013705Y016206D01*
X013761Y016403D02*
X014096Y016403D01*
X014096Y016501D02*
X013840Y016501D01*
X013844Y016600D02*
X014096Y016600D01*
X014128Y016698D02*
X013844Y016698D01*
X013844Y016887D02*
X013844Y017157D01*
X013834Y017195D01*
X013814Y017229D01*
X013786Y017257D01*
X013752Y017277D01*
X013714Y017287D01*
X013444Y017287D01*
X013444Y016887D01*
X013844Y016887D01*
X013844Y016895D02*
X014313Y016895D01*
X014215Y016797D02*
X013444Y016797D01*
X013444Y016895D02*
X013344Y016895D01*
X013344Y016994D02*
X013444Y016994D01*
X013444Y017092D02*
X013344Y017092D01*
X013344Y017191D02*
X013444Y017191D01*
X012953Y017191D02*
X012703Y017191D01*
X012796Y017092D02*
X012944Y017092D01*
X012935Y016994D02*
X012944Y016994D01*
X013344Y016698D02*
X013444Y016698D01*
X013444Y016600D02*
X013344Y016600D01*
X013344Y016501D02*
X013444Y016501D01*
X013444Y016403D02*
X013344Y016403D01*
X013349Y016304D02*
X014096Y016304D01*
X014574Y015812D02*
X014602Y015812D01*
X014602Y015713D02*
X014476Y015713D01*
X014377Y015615D02*
X014602Y015615D01*
X014862Y015615D02*
X014882Y015615D01*
X014882Y015713D02*
X014862Y015713D01*
X014862Y015812D02*
X014882Y015812D01*
X014882Y015910D02*
X014862Y015910D01*
X015362Y015910D02*
X015382Y015910D01*
X015382Y015956D02*
X015862Y015956D01*
X015862Y015936D01*
X015882Y015936D01*
X015882Y015361D01*
X016012Y015361D01*
X016050Y015371D01*
X016085Y015391D01*
X016112Y015419D01*
X016122Y015436D01*
X016132Y015419D01*
X016160Y015391D01*
X016195Y015371D01*
X016233Y015361D01*
X016362Y015361D01*
X016362Y015936D01*
X016102Y015936D01*
X015882Y015936D01*
X015882Y015956D01*
X015862Y015956D01*
X015862Y016531D01*
X015733Y016531D01*
X015695Y016521D01*
X015660Y016501D01*
X015632Y016473D01*
X015622Y016456D01*
X015612Y016473D01*
X015585Y016501D01*
X015550Y016521D01*
X015512Y016531D01*
X015382Y016531D01*
X015382Y015956D01*
X015382Y016009D02*
X015362Y016009D01*
X015362Y016107D02*
X015382Y016107D01*
X015382Y016206D02*
X015362Y016206D01*
X015362Y016304D02*
X015382Y016304D01*
X015382Y016403D02*
X015362Y016403D01*
X015362Y016501D02*
X015382Y016501D01*
X015362Y016531D02*
X015362Y016531D01*
X015441Y016600D02*
X016783Y016600D01*
X016828Y016501D02*
X016584Y016501D01*
X016585Y016501D02*
X016550Y016521D01*
X016512Y016531D01*
X016382Y016531D01*
X016382Y015956D01*
X016362Y015956D01*
X016362Y015936D01*
X016382Y015936D01*
X016382Y015361D01*
X016512Y015361D01*
X016550Y015371D01*
X016585Y015391D01*
X016612Y015419D01*
X016632Y015453D01*
X016642Y015491D01*
X016642Y015936D01*
X016382Y015936D01*
X016382Y015956D01*
X016642Y015956D01*
X016642Y016401D01*
X016632Y016439D01*
X016612Y016473D01*
X016585Y016501D01*
X016642Y016403D02*
X019943Y016403D01*
X019943Y016501D02*
X018334Y016501D01*
X018379Y016600D02*
X019943Y016600D01*
X019943Y016698D02*
X018379Y016698D01*
X018379Y016797D02*
X019943Y016797D01*
X019943Y016895D02*
X018379Y016895D01*
X018379Y016994D02*
X019945Y016994D01*
X020017Y017092D02*
X018852Y017092D01*
X018692Y017092D02*
X018379Y017092D01*
X019019Y017191D02*
X019943Y017191D01*
X019945Y017782D02*
X018379Y017782D01*
X018379Y017880D02*
X020068Y017880D01*
X019968Y017979D02*
X018379Y017979D01*
X018379Y018077D02*
X019961Y018077D01*
X019961Y018176D02*
X018379Y018176D01*
X018379Y018274D02*
X020239Y018274D01*
X019961Y018373D02*
X018282Y018373D01*
X017628Y018373D02*
X017534Y018373D01*
X016880Y018373D02*
X016661Y018373D01*
X016661Y018471D02*
X019961Y018471D01*
X019980Y018570D02*
X016661Y018570D01*
X016661Y018668D02*
X019977Y018668D01*
X019943Y018767D02*
X016661Y018767D01*
X016661Y018865D02*
X019943Y018865D01*
X019943Y018964D02*
X016661Y018964D01*
X016692Y019062D02*
X019617Y019062D01*
X018637Y019161D02*
X016712Y019161D01*
X016712Y019259D02*
X018538Y019259D01*
X018440Y019358D02*
X016712Y019358D01*
X016712Y019456D02*
X018341Y019456D01*
X018243Y019555D02*
X016712Y019555D01*
X016712Y019653D02*
X018188Y019653D01*
X018179Y019752D02*
X016712Y019752D01*
X016712Y019850D02*
X018179Y019850D01*
X018154Y019949D02*
X017737Y019949D01*
X017835Y020047D02*
X018056Y020047D01*
X017977Y020146D02*
X017913Y020146D01*
X017913Y020244D02*
X017977Y020244D01*
X017977Y020343D02*
X017913Y020343D01*
X017913Y020441D02*
X017977Y020441D01*
X018004Y020540D02*
X017947Y020540D01*
X017600Y020835D02*
X016338Y020835D01*
X016690Y020737D02*
X017201Y020737D01*
X017102Y020638D02*
X016789Y020638D01*
X016887Y020540D02*
X017004Y020540D01*
X016977Y020441D02*
X016913Y020441D01*
X016913Y020343D02*
X016977Y020343D01*
X016977Y020244D02*
X016913Y020244D01*
X016913Y020146D02*
X016977Y020146D01*
X017056Y020047D02*
X016835Y020047D01*
X016737Y019949D02*
X017154Y019949D01*
X017259Y020869D02*
X017395Y020869D01*
X017395Y021269D01*
X017495Y021269D01*
X017495Y020869D01*
X017632Y020869D01*
X017895Y021133D01*
X017895Y021269D01*
X017495Y021269D01*
X017495Y021369D01*
X017895Y021369D01*
X017895Y021506D01*
X017632Y021769D01*
X017495Y021769D01*
X017495Y021369D01*
X017395Y021369D01*
X017395Y021269D01*
X016995Y021269D01*
X016995Y021133D01*
X017259Y020869D01*
X017195Y020934D02*
X016722Y020934D01*
X016820Y021032D02*
X017096Y021032D01*
X016998Y021131D02*
X016913Y021131D01*
X016913Y021229D02*
X016995Y021229D01*
X016913Y021328D02*
X017395Y021328D01*
X017395Y021369D02*
X016995Y021369D01*
X016995Y021506D01*
X017259Y021769D01*
X017395Y021769D01*
X017395Y021369D01*
X017395Y021426D02*
X017495Y021426D01*
X017495Y021328D02*
X017977Y021328D01*
X017977Y021426D02*
X017895Y021426D01*
X017876Y021525D02*
X017989Y021525D01*
X018087Y021623D02*
X017778Y021623D01*
X017679Y021722D02*
X018186Y021722D01*
X018705Y021722D02*
X019211Y021722D01*
X019259Y021769D02*
X018995Y021506D01*
X018995Y021369D01*
X019395Y021369D01*
X019395Y021769D01*
X019259Y021769D01*
X019395Y021722D02*
X019495Y021722D01*
X019495Y021769D02*
X019495Y021369D01*
X019895Y021369D01*
X019895Y021506D01*
X019632Y021769D01*
X019495Y021769D01*
X019495Y021623D02*
X019395Y021623D01*
X019395Y021525D02*
X019495Y021525D01*
X019495Y021426D02*
X019395Y021426D01*
X019395Y021328D02*
X018913Y021328D01*
X018913Y021426D02*
X018995Y021426D01*
X019014Y021525D02*
X018902Y021525D01*
X018804Y021623D02*
X019113Y021623D01*
X019495Y021328D02*
X019977Y021328D01*
X019977Y021426D02*
X019895Y021426D01*
X019876Y021525D02*
X019989Y021525D01*
X019977Y021513D02*
X019977Y021125D01*
X020251Y020851D01*
X020639Y020851D01*
X020913Y021125D01*
X020913Y021513D01*
X020639Y021787D01*
X020251Y021787D01*
X019977Y021513D01*
X020087Y021623D02*
X019778Y021623D01*
X019679Y021722D02*
X020186Y021722D01*
X020705Y021722D02*
X021186Y021722D01*
X021251Y021787D02*
X020977Y021513D01*
X020977Y021125D01*
X021251Y020851D01*
X021639Y020851D01*
X021913Y021125D01*
X021913Y021513D01*
X021639Y021787D01*
X021251Y021787D01*
X021087Y021623D02*
X020804Y021623D01*
X020902Y021525D02*
X020989Y021525D01*
X020977Y021426D02*
X020913Y021426D01*
X020913Y021328D02*
X020977Y021328D01*
X020977Y021229D02*
X020913Y021229D01*
X020913Y021131D02*
X020977Y021131D01*
X021071Y021032D02*
X020820Y021032D01*
X020722Y020934D02*
X021169Y020934D01*
X021251Y020787D02*
X020977Y020513D01*
X020977Y020125D01*
X021251Y019851D01*
X021639Y019851D01*
X021913Y020125D01*
X021913Y020513D01*
X021639Y020787D01*
X021251Y020787D01*
X021201Y020737D02*
X020690Y020737D01*
X020789Y020638D02*
X021102Y020638D01*
X021004Y020540D02*
X020887Y020540D01*
X020913Y020441D02*
X020977Y020441D01*
X020977Y020343D02*
X020913Y020343D01*
X020913Y020244D02*
X020977Y020244D01*
X020977Y020146D02*
X020913Y020146D01*
X020835Y020047D02*
X021056Y020047D01*
X021154Y019949D02*
X020737Y019949D01*
X020691Y019850D02*
X023393Y019850D01*
X023286Y019949D02*
X022711Y019949D01*
X022632Y019869D02*
X022495Y019869D01*
X022495Y020269D01*
X022395Y020269D01*
X022395Y019869D01*
X022259Y019869D01*
X021995Y020133D01*
X021995Y020269D01*
X022395Y020269D01*
X022395Y020369D01*
X021995Y020369D01*
X021995Y020506D01*
X022259Y020769D01*
X022395Y020769D01*
X022395Y020369D01*
X022495Y020369D01*
X022895Y020369D01*
X022895Y020506D01*
X022632Y020769D01*
X022495Y020769D01*
X022495Y020369D01*
X022495Y020269D01*
X022895Y020269D01*
X022895Y020133D01*
X022632Y019869D01*
X022495Y019949D02*
X022395Y019949D01*
X022395Y020047D02*
X022495Y020047D01*
X022495Y020146D02*
X022395Y020146D01*
X022395Y020244D02*
X022495Y020244D01*
X022495Y020343D02*
X023063Y020343D01*
X023037Y020441D02*
X022895Y020441D01*
X022861Y020540D02*
X023021Y020540D01*
X023004Y020638D02*
X022763Y020638D01*
X022664Y020737D02*
X022988Y020737D01*
X022977Y020835D02*
X020141Y020835D01*
X020169Y020934D02*
X020042Y020934D01*
X020071Y021032D02*
X019944Y021032D01*
X019977Y021131D02*
X019893Y021131D01*
X019895Y021229D02*
X019977Y021229D01*
X020180Y020737D02*
X020201Y020737D01*
X018998Y021131D02*
X018913Y021131D01*
X018913Y021229D02*
X018995Y021229D01*
X017977Y021229D02*
X017895Y021229D01*
X017893Y021131D02*
X017977Y021131D01*
X017797Y021032D02*
X017794Y021032D01*
X017699Y020934D02*
X017696Y020934D01*
X017495Y020934D02*
X017395Y020934D01*
X017395Y021032D02*
X017495Y021032D01*
X017495Y021131D02*
X017395Y021131D01*
X017395Y021229D02*
X017495Y021229D01*
X017495Y021525D02*
X017395Y021525D01*
X017395Y021623D02*
X017495Y021623D01*
X017495Y021722D02*
X017395Y021722D01*
X017211Y021722D02*
X016705Y021722D01*
X016804Y021623D02*
X017113Y021623D01*
X017014Y021525D02*
X016902Y021525D01*
X016913Y021426D02*
X016995Y021426D01*
X016186Y021722D02*
X015705Y021722D01*
X015804Y021623D02*
X016087Y021623D01*
X015989Y021525D02*
X015902Y021525D01*
X015913Y021426D02*
X015977Y021426D01*
X015977Y021328D02*
X015913Y021328D01*
X015913Y021229D02*
X015977Y021229D01*
X015671Y020835D02*
X002898Y020835D01*
X002898Y020737D02*
X003025Y020737D01*
X002977Y020638D02*
X002898Y020638D01*
X002880Y020540D02*
X002977Y020540D01*
X002977Y020441D02*
X002846Y020441D01*
X002812Y020343D02*
X002977Y020343D01*
X002977Y020244D02*
X002779Y020244D01*
X002739Y020146D02*
X002977Y020146D01*
X002977Y020047D02*
X002663Y020047D01*
X002586Y019949D02*
X002978Y019949D01*
X003179Y019850D02*
X002509Y019850D01*
X002398Y019752D02*
X003179Y019752D01*
X003179Y019653D02*
X002247Y019653D01*
X002220Y019555D02*
X003180Y019555D01*
X003223Y019456D02*
X002220Y019456D01*
X002220Y019358D02*
X003321Y019358D01*
X003420Y019259D02*
X002220Y019259D01*
X002220Y019161D02*
X003518Y019161D01*
X003478Y018607D02*
X003478Y018309D01*
X003381Y018309D01*
X003381Y018607D01*
X002504Y018607D01*
X002466Y018597D01*
X002432Y018577D01*
X002404Y018549D01*
X002384Y018515D01*
X002374Y018477D01*
X002374Y018309D01*
X003381Y018309D01*
X003381Y018212D01*
X002374Y018212D01*
X002374Y018044D01*
X002384Y018005D01*
X002404Y017971D01*
X002432Y017943D01*
X002466Y017924D01*
X002504Y017913D01*
X003381Y017913D01*
X003381Y018212D01*
X003478Y018212D01*
X003478Y018309D01*
X004485Y018309D01*
X004485Y018477D01*
X004475Y018515D01*
X004455Y018549D01*
X004427Y018577D01*
X004393Y018597D01*
X004355Y018607D01*
X003478Y018607D01*
X003478Y018570D02*
X003381Y018570D01*
X003381Y018471D02*
X003478Y018471D01*
X003478Y018373D02*
X003381Y018373D01*
X003381Y018274D02*
X001663Y018274D01*
X001663Y018373D02*
X002374Y018373D01*
X002374Y018471D02*
X001663Y018471D01*
X001663Y018668D02*
X004882Y018668D01*
X004882Y018570D02*
X004435Y018570D01*
X004485Y018471D02*
X005297Y018471D01*
X005297Y018446D02*
X004882Y018446D01*
X004882Y018221D01*
X004892Y018183D01*
X004912Y018148D01*
X004940Y018121D01*
X004974Y018101D01*
X005012Y018091D01*
X005297Y018091D01*
X005297Y018446D01*
X005297Y018373D02*
X005397Y018373D01*
X005397Y018471D02*
X006142Y018471D01*
X006240Y018570D02*
X005812Y018570D01*
X005812Y018668D02*
X006339Y018668D01*
X006384Y018964D02*
X011393Y018964D01*
X011294Y019062D02*
X006520Y019062D01*
X006121Y018964D02*
X005830Y018964D01*
X005830Y019062D02*
X005985Y019062D01*
X005761Y018865D02*
X011491Y018865D01*
X011590Y018767D02*
X005812Y018767D01*
X005812Y018373D02*
X006043Y018373D01*
X005986Y018274D02*
X005812Y018274D01*
X005797Y018176D02*
X005986Y018176D01*
X005986Y018077D02*
X004485Y018077D01*
X004485Y018044D02*
X004485Y018212D01*
X003478Y018212D01*
X003478Y017913D01*
X004355Y017913D01*
X004393Y017924D01*
X004427Y017943D01*
X004455Y017971D01*
X004475Y018005D01*
X004485Y018044D01*
X004459Y017979D02*
X005986Y017979D01*
X005986Y017880D02*
X001574Y017880D01*
X001472Y017979D02*
X002400Y017979D01*
X002374Y018077D02*
X000318Y018077D01*
X000318Y017979D02*
X000954Y017979D01*
X000852Y017880D02*
X000318Y017880D01*
X000318Y017782D02*
X000790Y017782D01*
X000749Y017683D02*
X000318Y017683D01*
X000318Y017585D02*
X000745Y017585D01*
X000745Y017486D02*
X000318Y017486D01*
X000318Y017388D02*
X000786Y017388D01*
X000841Y017289D02*
X000318Y017289D01*
X000318Y017191D02*
X000940Y017191D01*
X000990Y016994D02*
X000318Y016994D01*
X000318Y017092D02*
X005120Y017092D01*
X005120Y017191D02*
X004487Y017191D01*
X004462Y016994D02*
X004669Y016994D01*
X004667Y016403D02*
X004487Y016403D01*
X004462Y016206D02*
X004669Y016206D01*
X004742Y016304D02*
X001600Y016304D01*
X001501Y016206D02*
X002397Y016206D01*
X002246Y016107D02*
X000318Y016107D01*
X000318Y016009D02*
X001026Y016009D01*
X000882Y015910D02*
X000318Y015910D01*
X000318Y015812D02*
X000803Y015812D01*
X000762Y015713D02*
X000318Y015713D01*
X000318Y015615D02*
X000745Y015615D01*
X000745Y015516D02*
X000318Y015516D01*
X000318Y015418D02*
X000625Y015418D01*
X000545Y015319D02*
X000318Y015319D01*
X000318Y015221D02*
X000545Y015221D01*
X000545Y015122D02*
X000318Y015122D01*
X000318Y015024D02*
X000545Y015024D01*
X000545Y014925D02*
X000318Y014925D01*
X000318Y014827D02*
X000545Y014827D01*
X000545Y014728D02*
X000318Y014728D01*
X000318Y014630D02*
X000545Y014630D01*
X000582Y014531D02*
X000318Y014531D01*
X000318Y014433D02*
X004754Y014433D01*
X004853Y014531D02*
X002182Y014531D01*
X002220Y014630D02*
X004951Y014630D01*
X005050Y014728D02*
X002220Y014728D01*
X002220Y014827D02*
X005148Y014827D01*
X005247Y014925D02*
X002220Y014925D01*
X002220Y015024D02*
X005345Y015024D01*
X005444Y015122D02*
X002220Y015122D01*
X002220Y015221D02*
X005542Y015221D01*
X005641Y015319D02*
X002220Y015319D01*
X002140Y015418D02*
X005739Y015418D01*
X005452Y015516D02*
X005242Y015516D01*
X005318Y015615D02*
X005376Y015615D01*
X005376Y015713D02*
X005318Y015713D01*
X005318Y015812D02*
X005376Y015812D01*
X005376Y015910D02*
X005318Y015910D01*
X004743Y015516D02*
X002074Y015516D01*
X001844Y016009D02*
X001400Y016009D01*
X000925Y016206D02*
X000318Y016206D01*
X000318Y016304D02*
X000826Y016304D01*
X000779Y016403D02*
X000318Y016403D01*
X000318Y016501D02*
X000745Y016501D01*
X000745Y016600D02*
X000318Y016600D01*
X000318Y016698D02*
X000756Y016698D01*
X000796Y016797D02*
X000318Y016797D01*
X000318Y016895D02*
X000867Y016895D01*
X001436Y016994D02*
X002398Y016994D01*
X002372Y017191D02*
X001486Y017191D01*
X001559Y016895D02*
X001787Y016895D01*
X002290Y016403D02*
X002372Y016403D01*
X002398Y017782D02*
X001984Y017782D01*
X001622Y018176D02*
X002374Y018176D01*
X002424Y018570D02*
X001263Y018570D01*
X001263Y018471D02*
X001163Y018471D01*
X001163Y018529D02*
X001163Y018129D01*
X000893Y018129D01*
X000855Y018139D01*
X000821Y018159D01*
X000793Y018187D01*
X000773Y018221D01*
X000763Y018259D01*
X000763Y018529D01*
X001163Y018529D01*
X001163Y018570D02*
X000318Y018570D01*
X000318Y018668D02*
X000763Y018668D01*
X000599Y018767D02*
X000318Y018767D01*
X000318Y018865D02*
X000545Y018865D01*
X000545Y018964D02*
X000318Y018964D01*
X000318Y019062D02*
X000545Y019062D01*
X000545Y019161D02*
X000318Y019161D01*
X000318Y019259D02*
X000545Y019259D01*
X000545Y019358D02*
X000318Y019358D01*
X000318Y019456D02*
X000545Y019456D01*
X000545Y019555D02*
X000318Y019555D01*
X000318Y019653D02*
X000608Y019653D01*
X000666Y019752D02*
X000318Y019752D01*
X000318Y019850D02*
X000559Y019850D01*
X000452Y019949D02*
X000318Y019949D01*
X000318Y020047D02*
X000389Y020047D01*
X000335Y020146D02*
X000318Y020146D01*
X002220Y019062D02*
X004864Y019062D01*
X004864Y018964D02*
X002220Y018964D01*
X002220Y018865D02*
X004932Y018865D01*
X004882Y018767D02*
X002166Y018767D01*
X001263Y018373D02*
X001163Y018373D01*
X001163Y018274D02*
X001263Y018274D01*
X001263Y018176D02*
X001163Y018176D01*
X000804Y018176D02*
X000318Y018176D01*
X000318Y018274D02*
X000763Y018274D01*
X000763Y018373D02*
X000318Y018373D01*
X000318Y018471D02*
X000763Y018471D01*
X003381Y018176D02*
X003478Y018176D01*
X003478Y018274D02*
X004882Y018274D01*
X004882Y018373D02*
X004485Y018373D01*
X004485Y018176D02*
X004896Y018176D01*
X005297Y018176D02*
X005397Y018176D01*
X005397Y018274D02*
X005297Y018274D01*
X005964Y017782D02*
X004461Y017782D01*
X003478Y017979D02*
X003381Y017979D01*
X003381Y018077D02*
X003478Y018077D01*
X003780Y019653D02*
X004907Y019653D01*
X004639Y019851D02*
X004913Y020125D01*
X004913Y020513D01*
X004639Y020787D01*
X004251Y020787D01*
X003977Y020513D01*
X003977Y020125D01*
X004251Y019851D01*
X004639Y019851D01*
X004737Y019949D02*
X005154Y019949D01*
X005251Y019851D02*
X004977Y020125D01*
X004977Y020513D01*
X005251Y020787D01*
X005639Y020787D01*
X005913Y020513D01*
X005913Y020125D01*
X005639Y019851D01*
X005251Y019851D01*
X005056Y020047D02*
X004835Y020047D01*
X004913Y020146D02*
X004977Y020146D01*
X004977Y020244D02*
X004913Y020244D01*
X004913Y020343D02*
X004977Y020343D01*
X004977Y020441D02*
X004913Y020441D01*
X004887Y020540D02*
X005004Y020540D01*
X005102Y020638D02*
X004789Y020638D01*
X004690Y020737D02*
X005201Y020737D01*
X005259Y020869D02*
X005395Y020869D01*
X005395Y021269D01*
X005495Y021269D01*
X005495Y020869D01*
X005632Y020869D01*
X005895Y021133D01*
X005895Y021269D01*
X005495Y021269D01*
X005495Y021369D01*
X005895Y021369D01*
X005895Y021506D01*
X005632Y021769D01*
X005495Y021769D01*
X005495Y021369D01*
X005395Y021369D01*
X005395Y021269D01*
X004995Y021269D01*
X004995Y021133D01*
X005259Y020869D01*
X005195Y020934D02*
X004722Y020934D01*
X004639Y020851D02*
X004913Y021125D01*
X004913Y021513D01*
X004639Y021787D01*
X004251Y021787D01*
X004050Y021586D01*
X003841Y021586D01*
X003639Y021787D01*
X003251Y021787D01*
X002977Y021513D01*
X002977Y021125D01*
X003251Y020851D01*
X003639Y020851D01*
X003841Y021053D01*
X004050Y021053D01*
X004251Y020851D01*
X004639Y020851D01*
X004820Y021032D02*
X005096Y021032D01*
X004998Y021131D02*
X004913Y021131D01*
X004913Y021229D02*
X004995Y021229D01*
X004913Y021328D02*
X005395Y021328D01*
X005395Y021369D02*
X004995Y021369D01*
X004995Y021506D01*
X005259Y021769D01*
X005395Y021769D01*
X005395Y021369D01*
X005395Y021426D02*
X005495Y021426D01*
X005495Y021328D02*
X005977Y021328D01*
X005977Y021426D02*
X005895Y021426D01*
X005876Y021525D02*
X005989Y021525D01*
X005977Y021513D02*
X005977Y021125D01*
X006251Y020851D01*
X006639Y020851D01*
X006913Y021125D01*
X006913Y021513D01*
X006639Y021787D01*
X006251Y021787D01*
X005977Y021513D01*
X006087Y021623D02*
X005778Y021623D01*
X005679Y021722D02*
X006186Y021722D01*
X006705Y021722D02*
X007186Y021722D01*
X007251Y021787D02*
X006977Y021513D01*
X006977Y021125D01*
X007251Y020851D01*
X007639Y020851D01*
X007913Y021125D01*
X007913Y021513D01*
X007639Y021787D01*
X007251Y021787D01*
X007087Y021623D02*
X006804Y021623D01*
X006902Y021525D02*
X006989Y021525D01*
X006977Y021426D02*
X006913Y021426D01*
X006913Y021328D02*
X006977Y021328D01*
X006977Y021229D02*
X006913Y021229D01*
X006913Y021131D02*
X006977Y021131D01*
X007071Y021032D02*
X006820Y021032D01*
X006722Y020934D02*
X007169Y020934D01*
X007259Y020769D02*
X006995Y020506D01*
X006995Y020369D01*
X007395Y020369D01*
X007395Y020269D01*
X007495Y020269D01*
X007495Y019869D01*
X007632Y019869D01*
X007895Y020133D01*
X007895Y020269D01*
X007495Y020269D01*
X007495Y020369D01*
X007895Y020369D01*
X007895Y020506D01*
X007632Y020769D01*
X007495Y020769D01*
X007495Y020369D01*
X007395Y020369D01*
X007395Y020769D01*
X007259Y020769D01*
X007226Y020737D02*
X006690Y020737D01*
X006639Y020787D02*
X006251Y020787D01*
X005977Y020513D01*
X005977Y020125D01*
X006251Y019851D01*
X006639Y019851D01*
X006913Y020125D01*
X006913Y020513D01*
X006639Y020787D01*
X006789Y020638D02*
X007128Y020638D01*
X007029Y020540D02*
X006887Y020540D01*
X006913Y020441D02*
X006995Y020441D01*
X006913Y020343D02*
X007395Y020343D01*
X007395Y020269D02*
X006995Y020269D01*
X006995Y020133D01*
X007259Y019869D01*
X007395Y019869D01*
X007395Y020269D01*
X007395Y020244D02*
X007495Y020244D01*
X007495Y020146D02*
X007395Y020146D01*
X007395Y020047D02*
X007495Y020047D01*
X007495Y019949D02*
X007395Y019949D01*
X007180Y019949D02*
X006737Y019949D01*
X006835Y020047D02*
X007081Y020047D01*
X006995Y020146D02*
X006913Y020146D01*
X006913Y020244D02*
X006995Y020244D01*
X007395Y020441D02*
X007495Y020441D01*
X007495Y020343D02*
X007977Y020343D01*
X007977Y020441D02*
X007895Y020441D01*
X007861Y020540D02*
X008004Y020540D01*
X007977Y020513D02*
X007977Y020125D01*
X008251Y019851D01*
X008639Y019851D01*
X008913Y020125D01*
X008913Y020513D01*
X008639Y020787D01*
X008251Y020787D01*
X007977Y020513D01*
X008102Y020638D02*
X007763Y020638D01*
X007664Y020737D02*
X008201Y020737D01*
X008251Y020851D02*
X008639Y020851D01*
X008913Y021125D01*
X008913Y021513D01*
X008639Y021787D01*
X008251Y021787D01*
X007977Y021513D01*
X007977Y021125D01*
X008251Y020851D01*
X008169Y020934D02*
X007722Y020934D01*
X007820Y021032D02*
X008071Y021032D01*
X007977Y021131D02*
X007913Y021131D01*
X007913Y021229D02*
X007977Y021229D01*
X007977Y021328D02*
X007913Y021328D01*
X007913Y021426D02*
X007977Y021426D01*
X007989Y021525D02*
X007902Y021525D01*
X007804Y021623D02*
X008087Y021623D01*
X008186Y021722D02*
X007705Y021722D01*
X008705Y021722D02*
X009211Y021722D01*
X009259Y021769D02*
X008995Y021506D01*
X008995Y021369D01*
X009395Y021369D01*
X009395Y021269D01*
X009495Y021269D01*
X009495Y020869D01*
X009632Y020869D01*
X009895Y021133D01*
X009895Y021269D01*
X009495Y021269D01*
X009495Y021369D01*
X009895Y021369D01*
X009895Y021506D01*
X009632Y021769D01*
X009495Y021769D01*
X009495Y021369D01*
X009395Y021369D01*
X009395Y021769D01*
X009259Y021769D01*
X009395Y021722D02*
X009495Y021722D01*
X009495Y021623D02*
X009395Y021623D01*
X009395Y021525D02*
X009495Y021525D01*
X009495Y021426D02*
X009395Y021426D01*
X009395Y021328D02*
X008913Y021328D01*
X008913Y021426D02*
X008995Y021426D01*
X009014Y021525D02*
X008902Y021525D01*
X008804Y021623D02*
X009113Y021623D01*
X008995Y021269D02*
X008995Y021133D01*
X009259Y020869D01*
X009395Y020869D01*
X009395Y021269D01*
X008995Y021269D01*
X008995Y021229D02*
X008913Y021229D01*
X008913Y021131D02*
X008998Y021131D01*
X009096Y021032D02*
X008820Y021032D01*
X008722Y020934D02*
X009195Y020934D01*
X009251Y020787D02*
X008977Y020513D01*
X008977Y020125D01*
X009251Y019851D01*
X009639Y019851D01*
X009913Y020125D01*
X009913Y020513D01*
X009639Y020787D01*
X009251Y020787D01*
X009201Y020737D02*
X008690Y020737D01*
X008789Y020638D02*
X009102Y020638D01*
X009004Y020540D02*
X008887Y020540D01*
X008913Y020441D02*
X008977Y020441D01*
X008977Y020343D02*
X008913Y020343D01*
X008913Y020244D02*
X008977Y020244D01*
X008977Y020146D02*
X008913Y020146D01*
X008835Y020047D02*
X009056Y020047D01*
X009154Y019949D02*
X008737Y019949D01*
X008154Y019949D02*
X007711Y019949D01*
X007809Y020047D02*
X008056Y020047D01*
X007977Y020146D02*
X007895Y020146D01*
X007895Y020244D02*
X007977Y020244D01*
X007495Y020540D02*
X007395Y020540D01*
X007395Y020638D02*
X007495Y020638D01*
X007495Y020737D02*
X007395Y020737D01*
X006201Y020737D02*
X005690Y020737D01*
X005789Y020638D02*
X006102Y020638D01*
X006004Y020540D02*
X005887Y020540D01*
X005913Y020441D02*
X005977Y020441D01*
X005977Y020343D02*
X005913Y020343D01*
X005913Y020244D02*
X005977Y020244D01*
X005977Y020146D02*
X005913Y020146D01*
X005835Y020047D02*
X006056Y020047D01*
X006154Y019949D02*
X005737Y019949D01*
X005786Y019653D02*
X011179Y019653D01*
X011179Y019752D02*
X003712Y019752D01*
X003712Y019850D02*
X011179Y019850D01*
X011154Y019949D02*
X010737Y019949D01*
X010639Y019851D02*
X010913Y020125D01*
X010913Y020513D01*
X010639Y020787D01*
X010251Y020787D01*
X009977Y020513D01*
X009977Y020125D01*
X010251Y019851D01*
X010639Y019851D01*
X010835Y020047D02*
X011056Y020047D01*
X010977Y020146D02*
X010913Y020146D01*
X010913Y020244D02*
X010977Y020244D01*
X010977Y020343D02*
X010913Y020343D01*
X010913Y020441D02*
X010977Y020441D01*
X011004Y020540D02*
X010887Y020540D01*
X010789Y020638D02*
X011102Y020638D01*
X011201Y020737D02*
X010690Y020737D01*
X010639Y020851D02*
X010913Y021125D01*
X010913Y021513D01*
X010639Y021787D01*
X010251Y021787D01*
X009977Y021513D01*
X009977Y021125D01*
X010251Y020851D01*
X010639Y020851D01*
X010722Y020934D02*
X011169Y020934D01*
X011251Y020851D02*
X011639Y020851D01*
X011913Y021125D01*
X011913Y021513D01*
X011639Y021787D01*
X011251Y021787D01*
X010977Y021513D01*
X010977Y021125D01*
X011251Y020851D01*
X011071Y021032D02*
X010820Y021032D01*
X010913Y021131D02*
X010977Y021131D01*
X010977Y021229D02*
X010913Y021229D01*
X010913Y021328D02*
X010977Y021328D01*
X010977Y021426D02*
X010913Y021426D01*
X010902Y021525D02*
X010989Y021525D01*
X011087Y021623D02*
X010804Y021623D01*
X010705Y021722D02*
X011186Y021722D01*
X011705Y021722D02*
X012211Y021722D01*
X012259Y021769D02*
X011995Y021506D01*
X011995Y021369D01*
X012395Y021369D01*
X012395Y021269D01*
X012495Y021269D01*
X012495Y020869D01*
X012632Y020869D01*
X012895Y021133D01*
X012895Y021269D01*
X012495Y021269D01*
X012495Y021369D01*
X012895Y021369D01*
X012895Y021506D01*
X012632Y021769D01*
X012495Y021769D01*
X012495Y021369D01*
X012395Y021369D01*
X012395Y021769D01*
X012259Y021769D01*
X012395Y021722D02*
X012495Y021722D01*
X012495Y021623D02*
X012395Y021623D01*
X012395Y021525D02*
X012495Y021525D01*
X012495Y021426D02*
X012395Y021426D01*
X012395Y021328D02*
X011913Y021328D01*
X011913Y021426D02*
X011995Y021426D01*
X012014Y021525D02*
X011902Y021525D01*
X011804Y021623D02*
X012113Y021623D01*
X011995Y021269D02*
X011995Y021133D01*
X012259Y020869D01*
X012395Y020869D01*
X012395Y021269D01*
X011995Y021269D01*
X011995Y021229D02*
X011913Y021229D01*
X011913Y021131D02*
X011998Y021131D01*
X012096Y021032D02*
X011820Y021032D01*
X011722Y020934D02*
X012195Y020934D01*
X012251Y020787D02*
X011977Y020513D01*
X011977Y020125D01*
X012251Y019851D01*
X012639Y019851D01*
X012913Y020125D01*
X012913Y020513D01*
X012639Y020787D01*
X012251Y020787D01*
X012201Y020737D02*
X011690Y020737D01*
X011789Y020638D02*
X012102Y020638D01*
X012004Y020540D02*
X011887Y020540D01*
X011913Y020441D02*
X011977Y020441D01*
X011977Y020343D02*
X011913Y020343D01*
X011913Y020244D02*
X011977Y020244D01*
X011977Y020146D02*
X011913Y020146D01*
X011835Y020047D02*
X012056Y020047D01*
X012154Y019949D02*
X011737Y019949D01*
X011712Y019850D02*
X015689Y019850D01*
X015689Y019752D02*
X011712Y019752D01*
X011712Y019653D02*
X012234Y019653D01*
X012138Y019555D02*
X011712Y019555D01*
X011712Y019456D02*
X012097Y019456D01*
X012087Y019358D02*
X011752Y019358D01*
X011851Y019259D02*
X012102Y019259D01*
X012146Y019161D02*
X011949Y019161D01*
X011617Y018739D02*
X011617Y018739D01*
X011968Y018250D02*
X011263Y017545D01*
X011222Y017447D01*
X011222Y016002D01*
X011263Y015905D01*
X011338Y015830D01*
X011475Y015692D01*
X007863Y015692D01*
X007868Y015698D01*
X007888Y015732D01*
X007898Y015770D01*
X007898Y015976D01*
X007562Y015976D01*
X007562Y016076D01*
X007462Y016076D01*
X007462Y016412D01*
X007256Y016412D01*
X007218Y016402D01*
X007204Y016394D01*
X007384Y016574D01*
X007385Y016576D01*
X007542Y016576D01*
X007641Y016675D01*
X007641Y017167D01*
X008867Y017167D01*
X008884Y017150D01*
X008990Y017106D01*
X009105Y017106D01*
X009211Y017150D01*
X009292Y017231D01*
X009336Y017337D01*
X009336Y017451D01*
X009292Y017557D01*
X009211Y017638D01*
X009105Y017682D01*
X008990Y017682D01*
X008884Y017638D01*
X008867Y017621D01*
X007623Y017621D01*
X007623Y017738D01*
X007208Y017738D01*
X007208Y017838D01*
X007108Y017838D01*
X007108Y018194D01*
X006823Y018194D01*
X006785Y018183D01*
X006751Y018164D01*
X006723Y018136D01*
X006703Y018102D01*
X006693Y018063D01*
X006693Y017838D01*
X007108Y017838D01*
X007108Y017738D01*
X006693Y017738D01*
X006693Y017621D01*
X006440Y017621D01*
X006440Y018127D01*
X006583Y018269D01*
X012014Y018269D01*
X011968Y018250D01*
X011893Y018176D02*
X007544Y018176D01*
X007531Y018183D02*
X007493Y018194D01*
X007208Y018194D01*
X007208Y017838D01*
X007623Y017838D01*
X007623Y018063D01*
X007613Y018102D01*
X007593Y018136D01*
X007565Y018164D01*
X007531Y018183D01*
X007619Y018077D02*
X011795Y018077D01*
X011696Y017979D02*
X007623Y017979D01*
X007623Y017880D02*
X011598Y017880D01*
X011499Y017782D02*
X007208Y017782D01*
X007208Y017880D02*
X007108Y017880D01*
X007108Y017782D02*
X006440Y017782D01*
X006440Y017880D02*
X006693Y017880D01*
X006693Y017979D02*
X006440Y017979D01*
X006440Y018077D02*
X006697Y018077D01*
X006771Y018176D02*
X006489Y018176D01*
X006440Y017683D02*
X006693Y017683D01*
X007108Y017979D02*
X007208Y017979D01*
X007208Y018077D02*
X007108Y018077D01*
X007108Y018176D02*
X007208Y018176D01*
X007623Y017683D02*
X011401Y017683D01*
X011302Y017585D02*
X009265Y017585D01*
X009321Y017486D02*
X011238Y017486D01*
X011222Y017388D02*
X009336Y017388D01*
X009316Y017289D02*
X011222Y017289D01*
X011222Y017191D02*
X009252Y017191D01*
X007868Y016354D02*
X007841Y016382D01*
X007806Y016402D01*
X007768Y016412D01*
X007562Y016412D01*
X007562Y016076D01*
X007898Y016076D01*
X007898Y016282D01*
X007888Y016320D01*
X007868Y016354D01*
X007893Y016304D02*
X011222Y016304D01*
X011222Y016206D02*
X007898Y016206D01*
X007898Y016107D02*
X011222Y016107D01*
X011222Y016009D02*
X007562Y016009D01*
X007562Y016107D02*
X007462Y016107D01*
X007462Y016206D02*
X007562Y016206D01*
X007562Y016304D02*
X007462Y016304D01*
X007462Y016403D02*
X007562Y016403D01*
X007566Y016600D02*
X011222Y016600D01*
X011222Y016698D02*
X007641Y016698D01*
X007641Y016797D02*
X011222Y016797D01*
X011222Y016895D02*
X007641Y016895D01*
X007641Y016994D02*
X011222Y016994D01*
X011222Y017092D02*
X007641Y017092D01*
X007311Y016501D02*
X011222Y016501D01*
X011222Y016403D02*
X007804Y016403D01*
X007898Y015910D02*
X011260Y015910D01*
X011356Y015812D02*
X007898Y015812D01*
X007877Y015713D02*
X011454Y015713D01*
X011814Y016107D02*
X012110Y016107D01*
X012111Y016206D02*
X011755Y016206D01*
X011755Y016304D02*
X012622Y016304D01*
X012600Y016403D02*
X012568Y016403D01*
X012220Y016403D02*
X011755Y016403D01*
X011755Y016501D02*
X012068Y016501D01*
X011986Y016600D02*
X011755Y016600D01*
X011755Y016698D02*
X011945Y016698D01*
X011926Y016797D02*
X011755Y016797D01*
X011755Y016895D02*
X011926Y016895D01*
X011952Y016994D02*
X011755Y016994D01*
X011755Y017092D02*
X011993Y017092D01*
X012086Y017191D02*
X011755Y017191D01*
X011760Y017289D02*
X012262Y017289D01*
X012526Y017289D02*
X014686Y017289D01*
X014725Y017191D02*
X013835Y017191D01*
X013844Y017092D02*
X014805Y017092D01*
X014626Y017388D02*
X011859Y017388D01*
X011957Y017486D02*
X013260Y017486D01*
X013227Y017585D02*
X012056Y017585D01*
X012154Y017683D02*
X013227Y017683D01*
X013227Y017782D02*
X012978Y017782D01*
X013100Y017880D02*
X013642Y017880D01*
X013642Y017782D02*
X013742Y017782D01*
X013742Y017880D02*
X014588Y017880D01*
X014588Y017782D02*
X014157Y017782D01*
X014157Y017683D02*
X014588Y017683D01*
X014588Y017585D02*
X014157Y017585D01*
X014124Y017486D02*
X014588Y017486D01*
X014588Y017979D02*
X014157Y017979D01*
X014157Y018077D02*
X014588Y018077D01*
X014584Y018176D02*
X014133Y018176D01*
X014151Y018274D02*
X014584Y018274D01*
X013742Y017683D02*
X013642Y017683D01*
X013642Y017585D02*
X013742Y017585D01*
X013742Y017486D02*
X013642Y017486D01*
X013844Y016994D02*
X014417Y016994D01*
X015540Y016698D02*
X016069Y016698D01*
X015961Y016797D02*
X015638Y016797D01*
X015710Y016895D02*
X015863Y016895D01*
X015764Y016994D02*
X015731Y016994D01*
X015882Y016531D02*
X015882Y015956D01*
X016362Y015956D01*
X016362Y016531D01*
X016233Y016531D01*
X016195Y016521D01*
X016160Y016501D01*
X016132Y016473D01*
X016122Y016456D01*
X016112Y016473D01*
X016085Y016501D01*
X016050Y016521D01*
X016012Y016531D01*
X015882Y016531D01*
X015882Y016501D02*
X015862Y016501D01*
X015862Y016403D02*
X015882Y016403D01*
X015882Y016304D02*
X015862Y016304D01*
X015862Y016206D02*
X015882Y016206D01*
X015882Y016107D02*
X015862Y016107D01*
X015862Y016009D02*
X015882Y016009D01*
X015882Y015910D02*
X015862Y015910D01*
X015862Y015812D02*
X015882Y015812D01*
X015882Y015713D02*
X015862Y015713D01*
X015862Y015615D02*
X015882Y015615D01*
X015882Y015516D02*
X015862Y015516D01*
X015862Y015418D02*
X015882Y015418D01*
X016111Y015418D02*
X016134Y015418D01*
X016362Y015418D02*
X016382Y015418D01*
X016382Y015516D02*
X016362Y015516D01*
X016362Y015615D02*
X016382Y015615D01*
X016382Y015713D02*
X016362Y015713D01*
X016362Y015812D02*
X016382Y015812D01*
X016382Y015910D02*
X016362Y015910D01*
X016362Y016009D02*
X016382Y016009D01*
X016382Y016107D02*
X016362Y016107D01*
X016362Y016206D02*
X016382Y016206D01*
X016382Y016304D02*
X016362Y016304D01*
X016362Y016403D02*
X016382Y016403D01*
X016382Y016501D02*
X016362Y016501D01*
X016160Y016501D02*
X016084Y016501D01*
X016642Y016304D02*
X019969Y016304D01*
X019961Y016206D02*
X016642Y016206D01*
X016642Y016107D02*
X019961Y016107D01*
X019961Y015987D02*
X019961Y015760D01*
X019971Y015722D01*
X019991Y015688D01*
X020019Y015660D01*
X020053Y015640D01*
X020091Y015630D01*
X020239Y015630D01*
X020239Y015987D01*
X019961Y015987D01*
X019961Y015910D02*
X016642Y015910D01*
X016642Y015812D02*
X019961Y015812D01*
X019976Y015713D02*
X016642Y015713D01*
X016642Y015615D02*
X018436Y015615D01*
X018315Y015516D02*
X016642Y015516D01*
X016611Y015418D02*
X018307Y015418D01*
X018376Y015024D02*
X016188Y015024D01*
X016287Y014925D02*
X018527Y014925D01*
X018665Y015024D02*
X018722Y015024D01*
X018722Y015122D02*
X018665Y015122D01*
X018665Y015221D02*
X018722Y015221D01*
X018722Y015418D02*
X018665Y015418D01*
X018665Y015516D02*
X018722Y015516D01*
X018722Y015615D02*
X018665Y015615D01*
X018951Y015615D02*
X019339Y015615D01*
X019291Y015516D02*
X019071Y015516D01*
X019080Y015418D02*
X019291Y015418D01*
X019291Y015221D02*
X019080Y015221D01*
X019077Y015122D02*
X019307Y015122D01*
X019333Y014925D02*
X018859Y014925D01*
X019010Y015024D02*
X020384Y015024D01*
X020317Y015122D02*
X020048Y015122D01*
X020064Y015221D02*
X020315Y015221D01*
X020315Y015336D02*
X020672Y015336D01*
X020672Y015615D01*
X020445Y015615D01*
X020407Y015605D01*
X020373Y015585D01*
X020345Y015557D01*
X020325Y015523D01*
X020315Y015485D01*
X020315Y015336D01*
X020315Y015418D02*
X020064Y015418D01*
X020064Y015376D02*
X020064Y015524D01*
X020054Y015562D01*
X020034Y015596D01*
X020006Y015624D01*
X019972Y015644D01*
X019934Y015654D01*
X019706Y015654D01*
X019706Y015376D01*
X020064Y015376D01*
X020064Y015516D02*
X020323Y015516D01*
X020444Y015615D02*
X020016Y015615D01*
X020239Y015713D02*
X020297Y015713D01*
X020297Y015812D02*
X020239Y015812D01*
X020239Y015910D02*
X020297Y015910D01*
X020297Y016009D02*
X020651Y016009D01*
X020651Y016107D02*
X020576Y016107D01*
X020576Y016206D02*
X020651Y016206D01*
X020651Y016304D02*
X020567Y016304D01*
X020594Y016403D02*
X020651Y016403D01*
X020641Y016501D02*
X020651Y016501D01*
X020651Y015910D02*
X020576Y015910D01*
X020576Y015812D02*
X020651Y015812D01*
X020651Y015713D02*
X020560Y015713D01*
X020672Y015615D02*
X020730Y015615D01*
X020730Y015516D02*
X020672Y015516D01*
X020672Y015418D02*
X020730Y015418D01*
X020730Y015221D02*
X020672Y015221D01*
X020672Y015122D02*
X020730Y015122D01*
X020730Y015024D02*
X020672Y015024D01*
X020535Y014925D02*
X020022Y014925D01*
X020082Y014827D02*
X020297Y014827D01*
X020297Y014728D02*
X020082Y014728D01*
X020082Y014630D02*
X020297Y014630D01*
X020297Y014531D02*
X020082Y014531D01*
X020082Y014433D02*
X020297Y014433D01*
X020335Y014334D02*
X020043Y014334D01*
X020043Y014236D02*
X020336Y014236D01*
X020336Y014137D02*
X020043Y014137D01*
X020120Y014039D02*
X020266Y014039D01*
X020218Y013940D02*
X020168Y013940D01*
X020177Y013546D02*
X020210Y013546D01*
X020251Y013448D02*
X020136Y013448D01*
X020042Y013349D02*
X020344Y013349D01*
X020503Y013251D02*
X019883Y013251D01*
X019503Y013251D02*
X018883Y013251D01*
X019042Y013349D02*
X019344Y013349D01*
X019251Y013448D02*
X019136Y013448D01*
X019177Y013546D02*
X019210Y013546D01*
X019218Y013940D02*
X019168Y013940D01*
X019120Y014039D02*
X019266Y014039D01*
X019313Y014137D02*
X019058Y014137D01*
X019058Y014236D02*
X019313Y014236D01*
X019313Y014334D02*
X019060Y014334D01*
X019098Y014433D02*
X019273Y014433D01*
X019273Y014531D02*
X019098Y014531D01*
X019098Y014630D02*
X019273Y014630D01*
X019273Y014728D02*
X019098Y014728D01*
X019097Y014827D02*
X019273Y014827D01*
X019649Y015122D02*
X019706Y015122D01*
X019706Y015221D02*
X019649Y015221D01*
X019649Y015418D02*
X019706Y015418D01*
X019706Y015516D02*
X019649Y015516D01*
X019649Y015615D02*
X019706Y015615D01*
X020239Y016009D02*
X016642Y016009D01*
X015660Y016501D02*
X015584Y016501D01*
X015382Y015812D02*
X015362Y015812D01*
X015362Y015713D02*
X015382Y015713D01*
X015382Y015615D02*
X015362Y015615D01*
X015362Y015516D02*
X015382Y015516D01*
X015382Y015418D02*
X015362Y015418D01*
X015134Y015418D02*
X015111Y015418D01*
X014882Y015418D02*
X014862Y015418D01*
X014862Y015516D02*
X014882Y015516D01*
X015611Y015418D02*
X015634Y015418D01*
X016385Y014827D02*
X018290Y014827D01*
X018289Y014728D02*
X016484Y014728D01*
X016582Y014630D02*
X018289Y014630D01*
X018289Y014531D02*
X016681Y014531D01*
X016779Y014433D02*
X018289Y014433D01*
X018327Y014334D02*
X016878Y014334D01*
X016920Y014236D02*
X017553Y014236D01*
X017365Y014137D02*
X017022Y014137D01*
X017120Y014039D02*
X017266Y014039D01*
X017218Y013940D02*
X017168Y013940D01*
X017833Y014236D02*
X018328Y014236D01*
X018328Y014137D02*
X018022Y014137D01*
X018120Y014039D02*
X018266Y014039D01*
X018218Y013940D02*
X018168Y013940D01*
X018177Y013546D02*
X018210Y013546D01*
X018251Y013448D02*
X018136Y013448D01*
X018058Y013349D02*
X018344Y013349D01*
X018503Y013251D02*
X018058Y013251D01*
X015848Y012364D02*
X015518Y012364D01*
X015616Y012266D02*
X015848Y012266D01*
X015848Y012167D02*
X015715Y012167D01*
X015813Y012069D02*
X015848Y012069D01*
X015453Y011675D02*
X014865Y011675D01*
X014865Y011773D02*
X015355Y011773D01*
X015256Y011872D02*
X014808Y011872D01*
X014652Y011970D02*
X015158Y011970D01*
X015059Y012069D02*
X014553Y012069D01*
X014193Y011675D02*
X014117Y011675D01*
X014117Y011576D02*
X014214Y011576D01*
X014214Y011478D02*
X014117Y011478D01*
X014117Y011379D02*
X014214Y011379D01*
X014254Y011281D02*
X014077Y011281D01*
X013506Y011281D02*
X013271Y011281D01*
X013271Y011182D02*
X015848Y011182D01*
X015848Y011084D02*
X013231Y011084D01*
X013231Y010985D02*
X015928Y010985D01*
X015848Y011281D02*
X014825Y011281D01*
X014865Y011379D02*
X015848Y011379D01*
X015680Y011478D02*
X014865Y011478D01*
X014865Y011576D02*
X015552Y011576D01*
X016656Y010985D02*
X016791Y010985D01*
X016889Y010887D02*
X013231Y010887D01*
X013231Y010788D02*
X016988Y010788D01*
X017086Y010690D02*
X013231Y010690D01*
X013231Y010591D02*
X017185Y010591D01*
X017124Y010652D02*
X017124Y010652D01*
X016702Y010493D02*
X017679Y010493D01*
X017679Y010394D02*
X016717Y010394D01*
X016717Y010445D02*
X016707Y010483D01*
X016687Y010518D01*
X016659Y010546D01*
X016625Y010565D01*
X016587Y010576D01*
X016342Y010576D01*
X016342Y009885D01*
X016717Y009885D01*
X016717Y010445D01*
X016717Y010296D02*
X017739Y010296D01*
X017777Y010197D02*
X016717Y010197D01*
X016717Y010099D02*
X017777Y010099D01*
X017777Y010000D02*
X016717Y010000D01*
X016717Y009902D02*
X017777Y009902D01*
X017777Y009803D02*
X016342Y009803D01*
X016342Y009785D02*
X016342Y009885D01*
X016242Y009885D01*
X016242Y010576D01*
X015996Y010576D01*
X015958Y010565D01*
X015924Y010546D01*
X015896Y010518D01*
X015876Y010483D01*
X015866Y010445D01*
X015866Y009885D01*
X016242Y009885D01*
X016242Y009785D01*
X016342Y009785D01*
X016717Y009785D01*
X016717Y009225D01*
X016707Y009187D01*
X016687Y009152D01*
X016659Y009124D01*
X016625Y009105D01*
X016587Y009094D01*
X016342Y009094D01*
X016342Y009785D01*
X016342Y009705D02*
X016242Y009705D01*
X016242Y009785D02*
X016242Y009094D01*
X015996Y009094D01*
X015958Y009105D01*
X015924Y009124D01*
X015896Y009152D01*
X015876Y009187D01*
X015866Y009225D01*
X015866Y009785D01*
X016242Y009785D01*
X016242Y009803D02*
X011210Y009803D01*
X011268Y009705D02*
X015866Y009705D01*
X015866Y009606D02*
X011308Y009606D01*
X011318Y009508D02*
X015866Y009508D01*
X015866Y009409D02*
X011318Y009409D01*
X011290Y009311D02*
X015866Y009311D01*
X015870Y009212D02*
X011249Y009212D01*
X011165Y009114D02*
X015943Y009114D01*
X016242Y009114D02*
X016342Y009114D01*
X016342Y009212D02*
X016242Y009212D01*
X016242Y009311D02*
X016342Y009311D01*
X016342Y009409D02*
X016242Y009409D01*
X016242Y009508D02*
X016342Y009508D01*
X016342Y009606D02*
X016242Y009606D01*
X016717Y009606D02*
X017777Y009606D01*
X017777Y009508D02*
X016717Y009508D01*
X016717Y009409D02*
X017777Y009409D01*
X017777Y009311D02*
X016717Y009311D01*
X016714Y009212D02*
X017777Y009212D01*
X017777Y009114D02*
X016640Y009114D01*
X017014Y008523D02*
X018072Y008523D01*
X017974Y008621D02*
X007033Y008621D01*
X006935Y008720D02*
X017875Y008720D01*
X017810Y008818D02*
X006836Y008818D01*
X006738Y008917D02*
X017777Y008917D01*
X017777Y009015D02*
X011029Y009015D01*
X010570Y009015D02*
X008470Y009015D01*
X008606Y009114D02*
X010434Y009114D01*
X010350Y009212D02*
X008690Y009212D01*
X008731Y009311D02*
X010309Y009311D01*
X010281Y009409D02*
X008759Y009409D01*
X008759Y009508D02*
X010276Y009508D01*
X010178Y009606D02*
X008749Y009606D01*
X008764Y009705D02*
X010079Y009705D01*
X009981Y009803D02*
X008862Y009803D01*
X008961Y009902D02*
X009882Y009902D01*
X009784Y010000D02*
X009059Y010000D01*
X009158Y010099D02*
X009685Y010099D01*
X009587Y010197D02*
X009256Y010197D01*
X009355Y010296D02*
X009510Y010296D01*
X009470Y010394D02*
X009443Y010394D01*
X008717Y010690D02*
X004965Y010690D01*
X004866Y010788D02*
X008761Y010788D01*
X008761Y010887D02*
X007148Y010887D01*
X007149Y010887D02*
X007149Y011381D01*
X007050Y011480D01*
X006993Y011480D01*
X006719Y011754D01*
X006991Y011754D01*
X007090Y011852D01*
X007090Y011931D01*
X007604Y011931D01*
X007670Y011864D01*
X007798Y011812D01*
X007935Y011812D01*
X008063Y011864D01*
X008160Y011962D01*
X008213Y012089D01*
X008213Y012227D01*
X008160Y012354D01*
X008063Y012451D01*
X007935Y012504D01*
X007798Y012504D01*
X007670Y012451D01*
X007604Y012385D01*
X007090Y012385D01*
X007090Y012464D01*
X006991Y012562D01*
X006537Y012562D01*
X006439Y012464D01*
X006439Y012034D01*
X006381Y012091D01*
X006381Y012464D01*
X006283Y012562D01*
X005828Y012562D01*
X005730Y012464D01*
X005730Y011852D01*
X005828Y011754D01*
X005965Y011754D01*
X006259Y011460D01*
X006252Y011461D01*
X006104Y011461D01*
X006104Y011163D01*
X006383Y011163D01*
X006383Y011331D01*
X006381Y011337D01*
X006498Y011221D01*
X006498Y010887D01*
X006596Y010789D01*
X007050Y010789D01*
X007149Y010887D01*
X007149Y010985D02*
X008761Y010985D01*
X008761Y011084D02*
X007149Y011084D01*
X007149Y011182D02*
X008761Y011182D01*
X008761Y011281D02*
X007149Y011281D01*
X007149Y011379D02*
X008761Y011379D01*
X008761Y011478D02*
X007052Y011478D01*
X006896Y011576D02*
X008761Y011576D01*
X008761Y011675D02*
X006798Y011675D01*
X007011Y011773D02*
X008761Y011773D01*
X008761Y011872D02*
X008070Y011872D01*
X008163Y011970D02*
X008761Y011970D01*
X008761Y012069D02*
X008204Y012069D01*
X008213Y012167D02*
X008761Y012167D01*
X008761Y012266D02*
X008197Y012266D01*
X008150Y012364D02*
X008784Y012364D01*
X008801Y012463D02*
X008036Y012463D01*
X007697Y012463D02*
X007090Y012463D01*
X006992Y012561D02*
X008819Y012561D01*
X007663Y011872D02*
X007090Y011872D01*
X006439Y012069D02*
X006404Y012069D01*
X006381Y012167D02*
X006439Y012167D01*
X006439Y012266D02*
X006381Y012266D01*
X006381Y012364D02*
X006439Y012364D01*
X006439Y012463D02*
X006381Y012463D01*
X006284Y012561D02*
X006536Y012561D01*
X005827Y012561D02*
X000318Y012561D01*
X000318Y012463D02*
X005730Y012463D01*
X005730Y012364D02*
X000318Y012364D01*
X000318Y012266D02*
X005730Y012266D01*
X005730Y012167D02*
X000318Y012167D01*
X000318Y012069D02*
X005730Y012069D01*
X005730Y011970D02*
X000318Y011970D01*
X000318Y011872D02*
X005730Y011872D01*
X005809Y011773D02*
X000318Y011773D01*
X000318Y011675D02*
X006044Y011675D01*
X006142Y011576D02*
X000318Y011576D01*
X000318Y011478D02*
X006241Y011478D01*
X006104Y011379D02*
X006046Y011379D01*
X006046Y011461D02*
X006046Y011163D01*
X006046Y011106D01*
X005768Y011106D01*
X005768Y010937D01*
X005778Y010899D01*
X005798Y010865D01*
X005826Y010837D01*
X005860Y010817D01*
X005898Y010807D01*
X006046Y010807D01*
X006046Y011106D01*
X006104Y011106D01*
X006104Y011163D01*
X006046Y011163D01*
X005768Y011163D01*
X005768Y011331D01*
X005778Y011369D01*
X005798Y011404D01*
X005826Y011431D01*
X005860Y011451D01*
X005898Y011461D01*
X006046Y011461D01*
X006046Y011281D02*
X006104Y011281D01*
X006104Y011182D02*
X006046Y011182D01*
X006104Y011106D02*
X006383Y011106D01*
X006383Y010937D01*
X006372Y010899D01*
X006353Y010865D01*
X006325Y010837D01*
X006291Y010817D01*
X006252Y010807D01*
X006104Y010807D01*
X006104Y011106D01*
X006104Y011084D02*
X006046Y011084D01*
X006046Y010985D02*
X006104Y010985D01*
X006104Y010887D02*
X006046Y010887D01*
X005785Y010887D02*
X000318Y010887D01*
X000318Y010985D02*
X005768Y010985D01*
X005768Y011084D02*
X000318Y011084D01*
X000318Y011182D02*
X005768Y011182D01*
X005768Y011281D02*
X000318Y011281D01*
X000318Y011379D02*
X005784Y011379D01*
X006383Y011281D02*
X006438Y011281D01*
X006383Y011182D02*
X006498Y011182D01*
X006498Y011084D02*
X006383Y011084D01*
X006383Y010985D02*
X006498Y010985D01*
X006499Y010887D02*
X006365Y010887D01*
X006160Y010591D02*
X005063Y010591D01*
X005162Y010493D02*
X006124Y010493D01*
X006124Y010394D02*
X005260Y010394D01*
X005359Y010296D02*
X006114Y010296D01*
X006084Y010197D02*
X005457Y010197D01*
X005556Y010099D02*
X006084Y010099D01*
X006116Y010000D02*
X005654Y010000D01*
X005753Y009902D02*
X006182Y009902D01*
X006280Y009803D02*
X005851Y009803D01*
X005950Y009705D02*
X006379Y009705D01*
X006477Y009606D02*
X006048Y009606D01*
X006147Y009508D02*
X006576Y009508D01*
X006700Y009409D02*
X006245Y009409D01*
X006344Y009311D02*
X007750Y009311D01*
X007791Y009212D02*
X006442Y009212D01*
X006541Y009114D02*
X007875Y009114D01*
X008011Y009015D02*
X006639Y009015D01*
X006443Y008818D02*
X000318Y008818D01*
X000318Y008720D02*
X006541Y008720D01*
X006640Y008621D02*
X000318Y008621D01*
X000318Y008523D02*
X003387Y008523D01*
X003411Y008546D02*
X003313Y008448D01*
X003313Y007994D01*
X003331Y007976D01*
X003331Y007926D01*
X003381Y007926D01*
X003381Y007926D01*
X003381Y007926D01*
X003331Y007926D01*
X003331Y007876D01*
X003313Y007857D01*
X003313Y007403D01*
X003331Y007385D01*
X003331Y007335D01*
X003331Y007256D01*
X003336Y007237D01*
X003331Y007217D01*
X003331Y007138D01*
X003331Y007088D01*
X003313Y007070D01*
X003313Y006813D01*
X003331Y006795D01*
X003331Y006744D01*
X003331Y006694D01*
X003313Y006676D01*
X003313Y006222D01*
X003331Y006204D01*
X003331Y006154D01*
X003381Y006154D01*
X003381Y006154D01*
X003381Y006154D01*
X003331Y006154D01*
X003331Y006104D01*
X003313Y006086D01*
X003313Y005632D01*
X003331Y005613D01*
X003331Y005563D01*
X003331Y005513D01*
X003313Y005495D01*
X003313Y005041D01*
X003331Y005023D01*
X003331Y004973D01*
X003381Y004973D01*
X003381Y004973D01*
X003381Y004973D01*
X003331Y004973D01*
X003331Y004923D01*
X003313Y004905D01*
X003313Y004647D01*
X003411Y004549D01*
X004298Y004549D01*
X004327Y004578D01*
X004446Y004578D01*
X004563Y004695D01*
X004665Y004695D01*
X004665Y004581D01*
X004709Y004475D01*
X004755Y004429D01*
X004755Y004320D01*
X004871Y004204D01*
X005029Y004046D01*
X005337Y004046D01*
X007327Y002057D01*
X010293Y002057D01*
X010293Y001648D01*
X010406Y001452D01*
X010406Y001452D01*
X010406Y001452D01*
X010603Y001339D01*
X010852Y001339D01*
X011048Y001452D01*
X011048Y001452D01*
X011162Y001648D01*
X011162Y002057D01*
X013989Y002057D01*
X013953Y002043D01*
X013848Y001937D01*
X013791Y001799D01*
X013791Y001650D01*
X013848Y001512D01*
X013953Y001407D01*
X014091Y001350D01*
X014240Y001350D01*
X014378Y001407D01*
X014429Y001458D01*
X014643Y001458D01*
X014643Y001124D01*
X014742Y001025D01*
X016535Y001025D01*
X016633Y001124D01*
X016633Y001439D01*
X016889Y001439D01*
X016987Y001537D01*
X016987Y001913D01*
X016978Y001922D01*
X016987Y001931D01*
X016987Y002306D01*
X016978Y002315D01*
X016987Y002324D01*
X016987Y002700D01*
X016978Y002709D01*
X016987Y002718D01*
X016987Y003094D01*
X016978Y003103D01*
X016987Y003112D01*
X016987Y003487D01*
X016958Y003516D01*
X016959Y003517D01*
X016969Y003555D01*
X016969Y003684D01*
X016435Y003684D01*
X016435Y003702D01*
X016969Y003702D01*
X016969Y003831D01*
X016959Y003869D01*
X016958Y003870D01*
X016987Y003899D01*
X016987Y004275D01*
X016978Y004284D01*
X016987Y004293D01*
X016987Y004668D01*
X016958Y004697D01*
X016959Y004698D01*
X016969Y004737D01*
X016969Y004865D01*
X016435Y004865D01*
X016435Y004883D01*
X016969Y004883D01*
X016969Y005012D01*
X016959Y005050D01*
X016958Y005051D01*
X016987Y005080D01*
X016987Y005456D01*
X016978Y005465D01*
X016987Y005474D01*
X016987Y005850D01*
X016958Y005878D01*
X016959Y005880D01*
X016969Y005918D01*
X016969Y006046D01*
X016435Y006046D01*
X016435Y006065D01*
X016969Y006065D01*
X016969Y006193D01*
X016959Y006232D01*
X016958Y006233D01*
X016987Y006261D01*
X016987Y006637D01*
X016978Y006646D01*
X016987Y006655D01*
X016987Y007031D01*
X016958Y007060D01*
X016959Y007061D01*
X016969Y007099D01*
X016969Y007228D01*
X016435Y007228D01*
X016435Y007246D01*
X016969Y007246D01*
X016969Y007374D01*
X016959Y007413D01*
X016939Y007447D01*
X016911Y007475D01*
X016877Y007495D01*
X016839Y007505D01*
X016633Y007505D01*
X016633Y007838D01*
X016535Y007936D01*
X014742Y007936D01*
X014643Y007838D01*
X014643Y007423D01*
X014742Y007324D01*
X015882Y007324D01*
X015882Y007246D01*
X016417Y007246D01*
X016417Y007228D01*
X015882Y007228D01*
X015882Y007099D01*
X015892Y007061D01*
X015893Y007060D01*
X015874Y007041D01*
X015756Y007041D01*
X015619Y006904D01*
X011582Y006904D01*
X011582Y007030D01*
X011468Y007226D01*
X011272Y007340D01*
X011013Y007340D01*
X010816Y007226D01*
X010780Y007163D01*
X010743Y007226D01*
X010547Y007340D01*
X010288Y007340D01*
X010092Y007226D01*
X010092Y007226D01*
X010055Y007163D01*
X010019Y007226D01*
X010019Y007226D01*
X010019Y007226D01*
X009822Y007340D01*
X009563Y007340D01*
X009367Y007226D01*
X009367Y007226D01*
X009253Y007030D01*
X009253Y006904D01*
X008649Y006904D01*
X008623Y006967D01*
X008542Y007048D01*
X008436Y007092D01*
X008321Y007092D01*
X008215Y007048D01*
X008134Y006967D01*
X008090Y006861D01*
X008090Y006746D01*
X008112Y006693D01*
X008018Y006654D01*
X007937Y006573D01*
X007893Y006467D01*
X007893Y006392D01*
X006839Y006392D01*
X006890Y006443D01*
X006934Y006549D01*
X006934Y006664D01*
X006890Y006770D01*
X006809Y006851D01*
X006703Y006895D01*
X006649Y006895D01*
X006612Y006984D01*
X006531Y007065D01*
X006425Y007109D01*
X006310Y007109D01*
X006204Y007065D01*
X006161Y007022D01*
X004523Y007022D01*
X004406Y007139D01*
X004379Y007139D01*
X004379Y007217D01*
X004373Y007237D01*
X004379Y007256D01*
X004379Y007334D01*
X004406Y007334D01*
X004445Y007372D01*
X004959Y007372D01*
X004984Y007310D01*
X005066Y007229D01*
X005171Y007185D01*
X005286Y007185D01*
X005392Y007229D01*
X005473Y007310D01*
X005517Y007416D01*
X005517Y007530D01*
X005473Y007636D01*
X006500Y007636D01*
X006499Y007637D02*
X006574Y007562D01*
X006672Y007521D01*
X013662Y007521D01*
X013791Y007392D01*
X013791Y007320D01*
X013848Y007182D01*
X013953Y007076D01*
X014091Y007019D01*
X014240Y007019D01*
X014378Y007076D01*
X014483Y007182D01*
X014541Y007320D01*
X014541Y007469D01*
X014483Y007606D01*
X014378Y007712D01*
X014240Y007769D01*
X014168Y007769D01*
X013923Y008014D01*
X013825Y008054D01*
X006835Y008054D01*
X006403Y008486D01*
X006305Y008527D01*
X004506Y008527D01*
X004408Y008486D01*
X004384Y008461D01*
X004298Y008546D01*
X003411Y008546D01*
X003313Y008424D02*
X000318Y008424D01*
X000318Y008326D02*
X003313Y008326D01*
X003313Y008227D02*
X000318Y008227D01*
X000318Y008129D02*
X003313Y008129D01*
X003313Y008030D02*
X000318Y008030D01*
X000318Y007932D02*
X003331Y007932D01*
X003313Y007833D02*
X000318Y007833D01*
X000318Y007735D02*
X003313Y007735D01*
X003313Y007636D02*
X000318Y007636D01*
X000318Y007538D02*
X003313Y007538D01*
X003313Y007439D02*
X000318Y007439D01*
X000318Y007341D02*
X003331Y007341D01*
X003331Y007335D02*
X003381Y007335D01*
X003331Y007335D01*
X003381Y007335D02*
X003381Y007335D01*
X003335Y007242D02*
X000318Y007242D01*
X000318Y007144D02*
X003331Y007144D01*
X003331Y007138D02*
X003381Y007138D01*
X003381Y007138D01*
X003331Y007138D01*
X003313Y007045D02*
X000318Y007045D01*
X000318Y006947D02*
X003313Y006947D01*
X003313Y006848D02*
X000318Y006848D01*
X000318Y006750D02*
X003331Y006750D01*
X003331Y006744D02*
X003381Y006744D01*
X003331Y006744D01*
X003381Y006744D02*
X003381Y006744D01*
X003381Y006744D01*
X003313Y006651D02*
X000318Y006651D01*
X000318Y006553D02*
X003313Y006553D01*
X003313Y006454D02*
X000318Y006454D01*
X000318Y006356D02*
X003313Y006356D01*
X003313Y006257D02*
X000318Y006257D01*
X000318Y006159D02*
X003331Y006159D01*
X003313Y006060D02*
X000318Y006060D01*
X000318Y005962D02*
X003313Y005962D01*
X003313Y005863D02*
X000318Y005863D01*
X000318Y005765D02*
X003313Y005765D01*
X003313Y005666D02*
X000318Y005666D01*
X000318Y005568D02*
X003331Y005568D01*
X003331Y005563D02*
X003381Y005563D01*
X003331Y005563D01*
X003381Y005563D02*
X003381Y005563D01*
X003381Y005563D01*
X003313Y005469D02*
X000318Y005469D01*
X000318Y005371D02*
X003313Y005371D01*
X003313Y005272D02*
X000318Y005272D01*
X000318Y005174D02*
X003313Y005174D01*
X003313Y005075D02*
X000318Y005075D01*
X000318Y004977D02*
X003331Y004977D01*
X003313Y004878D02*
X000318Y004878D01*
X000318Y004780D02*
X003313Y004780D01*
X003313Y004681D02*
X000318Y004681D01*
X000318Y004583D02*
X003377Y004583D01*
X003431Y004324D02*
X003356Y004312D01*
X003276Y004286D01*
X003201Y004248D01*
X003133Y004199D01*
X003074Y004140D01*
X003024Y004072D01*
X002986Y003997D01*
X002960Y003917D01*
X002948Y003842D01*
X003431Y003842D01*
X003431Y004324D01*
X003431Y004287D02*
X003531Y004287D01*
X003531Y004324D02*
X003531Y003842D01*
X003431Y003842D01*
X003431Y003742D01*
X002948Y003742D01*
X002960Y003667D01*
X002986Y003587D01*
X003024Y003512D01*
X003074Y003444D01*
X003133Y003385D01*
X003201Y003335D01*
X003276Y003297D01*
X003356Y003271D01*
X003431Y003259D01*
X003431Y003742D01*
X003531Y003742D01*
X003531Y003842D01*
X004013Y003842D01*
X004001Y003917D01*
X003975Y003997D01*
X003937Y004072D01*
X003888Y004140D01*
X003828Y004199D01*
X003761Y004248D01*
X003686Y004286D01*
X003606Y004312D01*
X003531Y004324D01*
X003531Y004189D02*
X003431Y004189D01*
X003431Y004090D02*
X003531Y004090D01*
X003531Y003992D02*
X003431Y003992D01*
X003431Y003893D02*
X003531Y003893D01*
X003531Y003795D02*
X005589Y003795D01*
X005491Y003893D02*
X004005Y003893D01*
X003977Y003992D02*
X005392Y003992D01*
X005688Y003696D02*
X004006Y003696D01*
X004001Y003667D02*
X004013Y003742D01*
X003531Y003742D01*
X003531Y003259D01*
X003606Y003271D01*
X003686Y003297D01*
X003761Y003335D01*
X003828Y003385D01*
X003888Y003444D01*
X003937Y003512D01*
X003975Y003587D01*
X004001Y003667D01*
X003979Y003598D02*
X005786Y003598D01*
X005885Y003499D02*
X003928Y003499D01*
X003844Y003401D02*
X005983Y003401D01*
X006082Y003302D02*
X003695Y003302D01*
X003531Y003302D02*
X003431Y003302D01*
X003431Y003401D02*
X003531Y003401D01*
X003531Y003499D02*
X003431Y003499D01*
X003431Y003598D02*
X003531Y003598D01*
X003531Y003696D02*
X003431Y003696D01*
X003431Y003795D02*
X002009Y003795D01*
X002027Y003760D02*
X001988Y003835D01*
X001939Y003903D01*
X001880Y003963D01*
X001812Y004012D01*
X001737Y004050D01*
X001657Y004076D01*
X001582Y004088D01*
X001582Y003606D01*
X001482Y003606D01*
X001482Y004088D01*
X001407Y004076D01*
X001327Y004050D01*
X001252Y004012D01*
X001184Y003963D01*
X001125Y003903D01*
X001075Y003835D01*
X001037Y003760D01*
X001011Y003681D01*
X000999Y003606D01*
X001482Y003606D01*
X001482Y003506D01*
X000999Y003506D01*
X001011Y003430D01*
X001037Y003351D01*
X001075Y003276D01*
X001125Y003208D01*
X001184Y003148D01*
X001252Y003099D01*
X001327Y003061D01*
X001407Y003035D01*
X001482Y003023D01*
X001482Y003506D01*
X001582Y003506D01*
X001582Y003606D01*
X002064Y003606D01*
X002053Y003681D01*
X002027Y003760D01*
X002048Y003696D02*
X002955Y003696D01*
X002982Y003598D02*
X001582Y003598D01*
X001582Y003506D02*
X002064Y003506D01*
X002053Y003430D01*
X002027Y003351D01*
X001988Y003276D01*
X001939Y003208D01*
X001880Y003148D01*
X001812Y003099D01*
X001737Y003061D01*
X001657Y003035D01*
X001582Y003023D01*
X001582Y003506D01*
X001582Y003499D02*
X001482Y003499D01*
X001482Y003401D02*
X001582Y003401D01*
X001582Y003302D02*
X001482Y003302D01*
X001482Y003204D02*
X001582Y003204D01*
X001582Y003105D02*
X001482Y003105D01*
X001597Y002908D02*
X000318Y002908D01*
X000318Y002810D02*
X001040Y002810D01*
X001187Y002874D02*
X000768Y002690D01*
X000432Y002381D01*
X000318Y002170D01*
X000318Y010622D01*
X004638Y010622D01*
X006922Y008339D01*
X016804Y008339D01*
X017343Y007835D01*
X017305Y007742D01*
X017305Y000544D01*
X002498Y000544D01*
X002468Y000506D02*
X002749Y000867D01*
X002898Y001299D01*
X002898Y001757D01*
X002749Y002189D01*
X002468Y002550D01*
X002086Y002800D01*
X001643Y002912D01*
X001187Y002874D01*
X001244Y003105D02*
X000318Y003105D01*
X000318Y003007D02*
X006377Y003007D01*
X006279Y003105D02*
X001820Y003105D01*
X001935Y003204D02*
X006180Y003204D01*
X006476Y002908D02*
X001658Y002908D01*
X002047Y002810D02*
X006574Y002810D01*
X006673Y002711D02*
X002221Y002711D01*
X002372Y002613D02*
X006771Y002613D01*
X006870Y002514D02*
X002496Y002514D01*
X002573Y002416D02*
X006968Y002416D01*
X007067Y002317D02*
X002649Y002317D01*
X002726Y002219D02*
X007165Y002219D01*
X007264Y002120D02*
X002773Y002120D01*
X002807Y002022D02*
X010293Y002022D01*
X010293Y001923D02*
X002840Y001923D01*
X002874Y001825D02*
X010293Y001825D01*
X010293Y001726D02*
X002898Y001726D01*
X002898Y001628D02*
X010305Y001628D01*
X010362Y001529D02*
X002898Y001529D01*
X002898Y001431D02*
X010444Y001431D01*
X011011Y001431D02*
X013930Y001431D01*
X013841Y001529D02*
X011093Y001529D01*
X011150Y001628D02*
X013800Y001628D01*
X013791Y001726D02*
X011162Y001726D01*
X011162Y001648D02*
X011162Y001648D01*
X011162Y001825D02*
X013801Y001825D01*
X013842Y001923D02*
X011162Y001923D01*
X011162Y002022D02*
X013932Y002022D01*
X014401Y001431D02*
X014643Y001431D01*
X014643Y001332D02*
X002898Y001332D01*
X002875Y001234D02*
X014643Y001234D01*
X014643Y001135D02*
X002841Y001135D01*
X002807Y001037D02*
X014730Y001037D01*
X016546Y001037D02*
X017305Y001037D01*
X017305Y001135D02*
X016633Y001135D01*
X016633Y001234D02*
X017305Y001234D01*
X017305Y001332D02*
X016633Y001332D01*
X016633Y001431D02*
X017305Y001431D01*
X017305Y001529D02*
X016979Y001529D01*
X016987Y001628D02*
X017305Y001628D01*
X017305Y001726D02*
X016987Y001726D01*
X016987Y001825D02*
X017305Y001825D01*
X017305Y001923D02*
X016980Y001923D01*
X016987Y002022D02*
X017305Y002022D01*
X017305Y002120D02*
X016987Y002120D01*
X016987Y002219D02*
X017305Y002219D01*
X017305Y002317D02*
X016980Y002317D01*
X016987Y002416D02*
X017305Y002416D01*
X017305Y002514D02*
X016987Y002514D01*
X016987Y002613D02*
X017305Y002613D01*
X017305Y002711D02*
X016980Y002711D01*
X016987Y002810D02*
X017305Y002810D01*
X017305Y002908D02*
X016987Y002908D01*
X016987Y003007D02*
X017305Y003007D01*
X017305Y003105D02*
X016981Y003105D01*
X016987Y003204D02*
X017305Y003204D01*
X017305Y003302D02*
X016987Y003302D01*
X016987Y003401D02*
X017305Y003401D01*
X017305Y003499D02*
X016976Y003499D01*
X016969Y003598D02*
X017305Y003598D01*
X017305Y003696D02*
X016435Y003696D01*
X016417Y003696D02*
X013291Y003696D01*
X013371Y003650D02*
X013175Y003763D01*
X012925Y003763D01*
X012728Y003650D01*
X012728Y003650D01*
X012728Y003650D01*
X012696Y003594D01*
X012664Y003650D01*
X012468Y003763D01*
X012217Y003763D01*
X012021Y003650D01*
X012021Y003650D01*
X011907Y003453D01*
X011907Y003361D01*
X007658Y003361D01*
X006844Y004175D01*
X006844Y004193D01*
X006890Y004239D01*
X006934Y004345D01*
X006934Y004459D01*
X006890Y004565D01*
X006809Y004646D01*
X006703Y004690D01*
X006589Y004690D01*
X006483Y004646D01*
X006402Y004565D01*
X006371Y004490D01*
X006310Y004490D01*
X006204Y004446D01*
X006123Y004365D01*
X006079Y004259D01*
X006079Y004145D01*
X006123Y004039D01*
X006204Y003958D01*
X006310Y003914D01*
X006375Y003914D01*
X007445Y002845D01*
X012114Y002845D01*
X012261Y002930D01*
X012261Y002752D01*
X012364Y002573D01*
X010955Y002573D01*
X010759Y002460D01*
X010759Y002460D01*
X010727Y002406D01*
X010696Y002460D01*
X010696Y002460D01*
X010696Y002460D01*
X010500Y002573D01*
X007540Y002573D01*
X005579Y004535D01*
X005579Y004600D01*
X005540Y004695D01*
X008124Y004695D01*
X008134Y004672D01*
X008215Y004591D01*
X008321Y004547D01*
X008436Y004547D01*
X008536Y004589D01*
X008567Y004514D01*
X008613Y004468D01*
X008613Y004357D01*
X008945Y004026D01*
X009348Y004026D01*
X009348Y003686D01*
X009462Y003490D01*
X009658Y003376D01*
X009915Y003376D01*
X010111Y003490D01*
X010111Y003490D01*
X010147Y003551D01*
X010182Y003490D01*
X010182Y003490D01*
X010378Y003376D01*
X010635Y003376D01*
X010832Y003490D01*
X010945Y003686D01*
X010945Y004026D01*
X015658Y004026D01*
X015795Y003889D01*
X015874Y003889D01*
X015893Y003870D01*
X015892Y003869D01*
X015882Y003831D01*
X015882Y003702D01*
X016417Y003702D01*
X016417Y003684D01*
X015882Y003684D01*
X015882Y003555D01*
X015892Y003517D01*
X015893Y003516D01*
X015874Y003498D01*
X015795Y003498D01*
X015658Y003361D01*
X013485Y003361D01*
X013485Y003453D01*
X013371Y003650D01*
X013371Y003650D01*
X013371Y003650D01*
X013402Y003598D02*
X015882Y003598D01*
X015875Y003499D02*
X013458Y003499D01*
X013485Y003401D02*
X015698Y003401D01*
X015882Y003795D02*
X010945Y003795D01*
X010945Y003893D02*
X015791Y003893D01*
X015693Y003992D02*
X010945Y003992D01*
X010945Y003696D02*
X012101Y003696D01*
X012021Y003650D02*
X012021Y003650D01*
X011991Y003598D02*
X010894Y003598D01*
X010837Y003499D02*
X011934Y003499D01*
X011907Y003401D02*
X010677Y003401D01*
X010832Y003490D02*
X010832Y003490D01*
X010832Y003490D01*
X010337Y003401D02*
X009957Y003401D01*
X010117Y003499D02*
X010177Y003499D01*
X010182Y003490D02*
X010182Y003490D01*
X009616Y003401D02*
X007619Y003401D01*
X007520Y003499D02*
X009456Y003499D01*
X009462Y003490D02*
X009462Y003490D01*
X009462Y003490D01*
X009399Y003598D02*
X007422Y003598D01*
X007323Y003696D02*
X009348Y003696D01*
X009348Y003795D02*
X007225Y003795D01*
X007126Y003893D02*
X009348Y003893D01*
X009348Y003992D02*
X007028Y003992D01*
X006929Y004090D02*
X008881Y004090D01*
X008782Y004189D02*
X006844Y004189D01*
X006910Y004287D02*
X008684Y004287D01*
X008613Y004386D02*
X006934Y004386D01*
X006924Y004484D02*
X008598Y004484D01*
X008539Y004583D02*
X008522Y004583D01*
X008235Y004583D02*
X006873Y004583D01*
X006725Y004681D02*
X008130Y004681D01*
X008470Y005109D02*
X008470Y005168D01*
X008453Y005207D01*
X011395Y005207D01*
X011395Y004933D01*
X011509Y004737D01*
X011705Y004623D01*
X011942Y004623D01*
X012138Y004737D01*
X012163Y004780D01*
X012188Y004737D01*
X012188Y004737D01*
X012384Y004623D01*
X012621Y004623D01*
X012817Y004737D01*
X012842Y004780D01*
X012867Y004737D01*
X013064Y004623D01*
X013300Y004623D01*
X013496Y004737D01*
X013496Y004737D01*
X013610Y004933D01*
X013610Y005207D01*
X015658Y005207D01*
X015795Y005070D01*
X015874Y005070D01*
X015893Y005051D01*
X015892Y005050D01*
X015882Y005012D01*
X015882Y004883D01*
X016417Y004883D01*
X016417Y004865D01*
X015882Y004865D01*
X015882Y004737D01*
X015892Y004698D01*
X015893Y004697D01*
X015874Y004679D01*
X015795Y004679D01*
X015658Y004542D01*
X010739Y004542D01*
X010585Y004453D01*
X010585Y004882D01*
X010472Y005078D01*
X010472Y005078D01*
X010472Y005078D01*
X010275Y005191D01*
X010018Y005191D01*
X009822Y005078D01*
X009822Y005078D01*
X009708Y004882D01*
X009708Y004453D01*
X009555Y004542D01*
X009436Y004542D01*
X009410Y004605D01*
X009329Y004686D01*
X009223Y004729D01*
X009108Y004729D01*
X009100Y004726D01*
X009100Y004735D01*
X009056Y004841D01*
X008975Y004922D01*
X008869Y004966D01*
X008754Y004966D01*
X008653Y004924D01*
X008623Y004998D01*
X008542Y005079D01*
X008470Y005109D01*
X008467Y005174D02*
X009987Y005174D01*
X009822Y005078D02*
X009822Y005078D01*
X009820Y005075D02*
X008546Y005075D01*
X008632Y004977D02*
X009763Y004977D01*
X009708Y004878D02*
X009018Y004878D01*
X009081Y004780D02*
X009708Y004780D01*
X009708Y004681D02*
X009334Y004681D01*
X009419Y004583D02*
X009708Y004583D01*
X009708Y004484D02*
X009655Y004484D01*
X010585Y004484D02*
X010638Y004484D01*
X010585Y004583D02*
X015699Y004583D01*
X015876Y004681D02*
X013400Y004681D01*
X013496Y004737D02*
X013496Y004737D01*
X013521Y004780D02*
X015882Y004780D01*
X015882Y004977D02*
X013610Y004977D01*
X013610Y005075D02*
X015790Y005075D01*
X015692Y005174D02*
X013610Y005174D01*
X013578Y004878D02*
X016417Y004878D01*
X016435Y004878D02*
X017305Y004878D01*
X017305Y004780D02*
X016969Y004780D01*
X016975Y004681D02*
X017305Y004681D01*
X017305Y004583D02*
X016987Y004583D01*
X016987Y004484D02*
X017305Y004484D01*
X017305Y004386D02*
X016987Y004386D01*
X016981Y004287D02*
X017305Y004287D01*
X017305Y004189D02*
X016987Y004189D01*
X016987Y004090D02*
X017305Y004090D01*
X017305Y003992D02*
X016987Y003992D01*
X016981Y003893D02*
X017305Y003893D01*
X017305Y003795D02*
X016969Y003795D01*
X015793Y002710D02*
X015756Y002710D01*
X015619Y002573D01*
X013028Y002573D01*
X013131Y002752D01*
X013131Y002930D01*
X013278Y002845D01*
X015658Y002845D01*
X015793Y002710D01*
X015792Y002711D02*
X013107Y002711D01*
X013131Y002810D02*
X015694Y002810D01*
X015658Y002613D02*
X013050Y002613D01*
X013131Y002908D02*
X013169Y002908D01*
X012342Y002613D02*
X007501Y002613D01*
X007403Y002711D02*
X012285Y002711D01*
X012261Y002810D02*
X007304Y002810D01*
X007381Y002908D02*
X007206Y002908D01*
X007283Y003007D02*
X007107Y003007D01*
X007184Y003105D02*
X007009Y003105D01*
X007086Y003204D02*
X006910Y003204D01*
X006987Y003302D02*
X006812Y003302D01*
X006889Y003401D02*
X006713Y003401D01*
X006790Y003499D02*
X006615Y003499D01*
X006692Y003598D02*
X006516Y003598D01*
X006593Y003696D02*
X006418Y003696D01*
X006495Y003795D02*
X006319Y003795D01*
X006396Y003893D02*
X006221Y003893D01*
X006171Y003992D02*
X006122Y003992D01*
X006102Y004090D02*
X006024Y004090D01*
X006079Y004189D02*
X005925Y004189D01*
X005827Y004287D02*
X006091Y004287D01*
X006143Y004386D02*
X005728Y004386D01*
X005630Y004484D02*
X006295Y004484D01*
X006419Y004583D02*
X005579Y004583D01*
X005545Y004681D02*
X006567Y004681D01*
X005792Y005723D02*
X007998Y005723D01*
X007905Y005816D01*
X007844Y005876D01*
X005737Y005876D01*
X005749Y005864D01*
X005792Y005758D01*
X005792Y005723D01*
X005790Y005765D02*
X007956Y005765D01*
X007858Y005863D02*
X005749Y005863D01*
X005272Y005876D02*
X005260Y005864D01*
X005234Y005802D01*
X004523Y005802D01*
X004467Y005859D01*
X004484Y005876D01*
X005272Y005876D01*
X005260Y005863D02*
X004471Y005863D01*
X004501Y007045D02*
X006184Y007045D01*
X006551Y007045D02*
X008212Y007045D01*
X008126Y006947D02*
X006627Y006947D01*
X006812Y006848D02*
X008090Y006848D01*
X008090Y006750D02*
X006899Y006750D01*
X006934Y006651D02*
X008015Y006651D01*
X007929Y006553D02*
X006934Y006553D01*
X006895Y006454D02*
X007893Y006454D01*
X008544Y007045D02*
X009262Y007045D01*
X009253Y006947D02*
X008631Y006947D01*
X009319Y007144D02*
X004379Y007144D01*
X004375Y007242D02*
X005052Y007242D01*
X004972Y007341D02*
X004413Y007341D01*
X003855Y007305D02*
X003855Y007169D01*
X003855Y007169D01*
X003855Y007305D01*
X003855Y007305D01*
X003855Y007242D02*
X003855Y007242D01*
X005281Y007761D02*
X005281Y007845D01*
X005237Y007951D01*
X005194Y007994D01*
X006142Y007994D01*
X006499Y007637D01*
X006401Y007735D02*
X005350Y007735D01*
X005392Y007717D02*
X005286Y007761D01*
X005281Y007761D01*
X005281Y007833D02*
X006303Y007833D01*
X006204Y007932D02*
X005245Y007932D01*
X005392Y007717D02*
X005473Y007636D01*
X005514Y007538D02*
X006633Y007538D01*
X006761Y008129D02*
X017029Y008129D01*
X016923Y008227D02*
X006663Y008227D01*
X006564Y008326D02*
X016818Y008326D01*
X017112Y008424D02*
X018171Y008424D01*
X018269Y008326D02*
X017211Y008326D01*
X017309Y008227D02*
X018368Y008227D01*
X018466Y008129D02*
X018132Y008129D01*
X018185Y008107D02*
X018185Y008107D01*
X018261Y008030D02*
X018565Y008030D01*
X018663Y007932D02*
X018350Y007932D01*
X018343Y007949D02*
X018343Y007949D01*
X018391Y007833D02*
X018762Y007833D01*
X018860Y007735D02*
X018428Y007735D01*
X018428Y007636D02*
X019051Y007636D01*
X019050Y007538D02*
X018428Y007538D01*
X018428Y007439D02*
X019050Y007439D01*
X019050Y007341D02*
X018428Y007341D01*
X018428Y007242D02*
X019050Y007242D01*
X019050Y007144D02*
X018428Y007144D01*
X018428Y007045D02*
X019350Y007045D01*
X019350Y006947D02*
X019450Y006947D01*
X019450Y006848D02*
X019350Y006848D01*
X019350Y006750D02*
X019450Y006750D01*
X019450Y006651D02*
X019350Y006651D01*
X019350Y006553D02*
X019450Y006553D01*
X019450Y006454D02*
X019350Y006454D01*
X019350Y006356D02*
X019450Y006356D01*
X019788Y006257D02*
X018428Y006257D01*
X018428Y006159D02*
X024016Y006159D01*
X024016Y006257D02*
X022364Y006257D01*
X022449Y006356D02*
X024029Y006356D01*
X024026Y006350D02*
X024016Y006311D01*
X024016Y005751D01*
X024391Y005751D01*
X024391Y005651D01*
X024016Y005651D01*
X024016Y005091D01*
X024026Y005053D01*
X024046Y005019D01*
X024074Y004991D01*
X024108Y004971D01*
X024146Y004961D01*
X024391Y004961D01*
X024391Y005651D01*
X024491Y005651D01*
X024491Y004961D01*
X024737Y004961D01*
X024775Y004971D01*
X024809Y004991D01*
X024837Y005019D01*
X024857Y005053D01*
X024867Y005091D01*
X024867Y005651D01*
X024491Y005651D01*
X024491Y005751D01*
X024391Y005751D01*
X024391Y006442D01*
X024146Y006442D01*
X024108Y006432D01*
X024074Y006412D01*
X024046Y006384D01*
X024026Y006350D01*
X024016Y006060D02*
X018428Y006060D01*
X018428Y005962D02*
X024016Y005962D01*
X024016Y005863D02*
X018428Y005863D01*
X018428Y005765D02*
X024016Y005765D01*
X024016Y005568D02*
X018428Y005568D01*
X018428Y005666D02*
X024391Y005666D01*
X024391Y005568D02*
X024491Y005568D01*
X024491Y005666D02*
X025572Y005666D01*
X025572Y005568D02*
X024867Y005568D01*
X024867Y005469D02*
X025572Y005469D01*
X025572Y005371D02*
X024867Y005371D01*
X024867Y005272D02*
X025572Y005272D01*
X025572Y005174D02*
X024867Y005174D01*
X024863Y005075D02*
X025572Y005075D01*
X025572Y004977D02*
X024785Y004977D01*
X024491Y004977D02*
X024391Y004977D01*
X024391Y005075D02*
X024491Y005075D01*
X024491Y005174D02*
X024391Y005174D01*
X024391Y005272D02*
X024491Y005272D01*
X024491Y005371D02*
X024391Y005371D01*
X024391Y005469D02*
X024491Y005469D01*
X024491Y005751D02*
X024867Y005751D01*
X024867Y006311D01*
X024857Y006350D01*
X024837Y006384D01*
X024809Y006412D01*
X024775Y006432D01*
X024737Y006442D01*
X024491Y006442D01*
X024491Y005751D01*
X024491Y005765D02*
X024391Y005765D01*
X024391Y005863D02*
X024491Y005863D01*
X024491Y005962D02*
X024391Y005962D01*
X024391Y006060D02*
X024491Y006060D01*
X024491Y006159D02*
X024391Y006159D01*
X024391Y006257D02*
X024491Y006257D01*
X024491Y006356D02*
X024391Y006356D01*
X024853Y006356D02*
X025572Y006356D01*
X025572Y006454D02*
X022449Y006454D01*
X021798Y006257D02*
X021694Y006257D01*
X021128Y006257D02*
X020353Y006257D01*
X020691Y006356D02*
X020791Y006356D01*
X020791Y006454D02*
X020691Y006454D01*
X020691Y006553D02*
X020791Y006553D01*
X020791Y006651D02*
X020691Y006651D01*
X020691Y006750D02*
X020791Y006750D01*
X020791Y006848D02*
X020691Y006848D01*
X020691Y006947D02*
X020791Y006947D01*
X020791Y007144D02*
X020691Y007144D01*
X020691Y007242D02*
X020791Y007242D01*
X020791Y007341D02*
X020691Y007341D01*
X020691Y007439D02*
X020791Y007439D01*
X020791Y007538D02*
X020691Y007538D01*
X020691Y007636D02*
X020791Y007636D01*
X020791Y007735D02*
X020691Y007735D01*
X020452Y007735D02*
X020435Y007735D01*
X020435Y007833D02*
X021046Y007833D01*
X021046Y007735D02*
X021029Y007735D01*
X021046Y007932D02*
X020406Y007932D01*
X020345Y008030D02*
X021046Y008030D01*
X021046Y008129D02*
X020247Y008129D01*
X020148Y008227D02*
X021018Y008227D01*
X020937Y008326D02*
X020360Y008326D01*
X020369Y008424D02*
X020937Y008424D01*
X020937Y008523D02*
X020369Y008523D01*
X020369Y008621D02*
X020937Y008621D01*
X020937Y008720D02*
X020369Y008720D01*
X020369Y008917D02*
X020937Y008917D01*
X020937Y009015D02*
X020369Y009015D01*
X020369Y009114D02*
X020937Y009114D01*
X020937Y009212D02*
X020369Y009212D01*
X020369Y009311D02*
X020867Y009311D01*
X020769Y009409D02*
X020343Y009409D01*
X020572Y009606D02*
X018507Y009606D01*
X018507Y009508D02*
X020670Y009508D01*
X020473Y009705D02*
X018507Y009705D01*
X018507Y009803D02*
X020375Y009803D01*
X020321Y009902D02*
X018507Y009902D01*
X018507Y010000D02*
X020297Y010000D01*
X020297Y010099D02*
X018507Y010099D01*
X018507Y010197D02*
X020297Y010197D01*
X020259Y010296D02*
X018545Y010296D01*
X018606Y010394D02*
X020198Y010394D01*
X020198Y010493D02*
X018606Y010493D01*
X018606Y010591D02*
X020198Y010591D01*
X020198Y010690D02*
X018606Y010690D01*
X018606Y010788D02*
X020198Y010788D01*
X020198Y010887D02*
X018606Y010887D01*
X018606Y010985D02*
X020198Y010985D01*
X020198Y011084D02*
X018606Y011084D01*
X018606Y011182D02*
X020198Y011182D01*
X020198Y011281D02*
X018606Y011281D01*
X018588Y011379D02*
X020216Y011379D01*
X017696Y011379D02*
X017429Y011379D01*
X017528Y011281D02*
X017679Y011281D01*
X016342Y010493D02*
X016242Y010493D01*
X016242Y010394D02*
X016342Y010394D01*
X016342Y010296D02*
X016242Y010296D01*
X016242Y010197D02*
X016342Y010197D01*
X016342Y010099D02*
X016242Y010099D01*
X016242Y010000D02*
X016342Y010000D01*
X016342Y009902D02*
X016242Y009902D01*
X015866Y009902D02*
X011112Y009902D01*
X010816Y010000D02*
X015866Y010000D01*
X015866Y010099D02*
X010718Y010099D01*
X010619Y010197D02*
X015866Y010197D01*
X015866Y010296D02*
X010521Y010296D01*
X010422Y010394D02*
X015866Y010394D01*
X015882Y010493D02*
X013171Y010493D01*
X012641Y010493D02*
X012430Y010493D01*
X012447Y010502D02*
X012475Y010530D01*
X012495Y010565D01*
X012505Y010603D01*
X012505Y010830D01*
X012226Y010830D01*
X012226Y010887D01*
X012505Y010887D01*
X012505Y011115D01*
X012495Y011153D01*
X012475Y011187D01*
X012447Y011215D01*
X012413Y011235D01*
X012374Y011245D01*
X012226Y011245D01*
X012226Y010887D01*
X012169Y010887D01*
X012168Y010887D02*
X012168Y010830D01*
X011890Y010830D01*
X011890Y010603D01*
X011900Y010565D01*
X011920Y010530D01*
X011948Y010502D01*
X011982Y010483D01*
X012020Y010472D01*
X012169Y010472D01*
X012169Y010830D01*
X012226Y010830D01*
X012226Y010472D01*
X012374Y010472D01*
X012413Y010483D01*
X012447Y010502D01*
X012502Y010591D02*
X012580Y010591D01*
X012580Y010690D02*
X012505Y010690D01*
X012505Y010788D02*
X012580Y010788D01*
X012580Y010887D02*
X012226Y010887D01*
X012169Y010887D02*
X012169Y011245D01*
X012020Y011245D01*
X011982Y011235D01*
X011948Y011215D01*
X011920Y011187D01*
X011900Y011153D01*
X011890Y011115D01*
X011890Y010887D01*
X012168Y010887D01*
X010200Y010887D01*
X010200Y010985D02*
X011890Y010985D01*
X011890Y011084D02*
X010200Y011084D01*
X010200Y011182D02*
X011917Y011182D01*
X011774Y011379D02*
X011656Y011379D01*
X011696Y011478D02*
X011754Y011478D01*
X011754Y011576D02*
X011717Y011576D01*
X012169Y011182D02*
X012226Y011182D01*
X012226Y011084D02*
X012169Y011084D01*
X012169Y010985D02*
X012226Y010985D01*
X012226Y010788D02*
X012169Y010788D01*
X012169Y010690D02*
X012226Y010690D01*
X012226Y010591D02*
X012169Y010591D01*
X012169Y010493D02*
X012226Y010493D01*
X011965Y010493D02*
X010324Y010493D01*
X010225Y010591D02*
X011893Y010591D01*
X011890Y010690D02*
X010200Y010690D01*
X010200Y010788D02*
X011890Y010788D01*
X012505Y010985D02*
X012580Y010985D01*
X012580Y011084D02*
X012505Y011084D01*
X012478Y011182D02*
X012598Y011182D01*
X012678Y011281D02*
X010200Y011281D01*
X010200Y011379D02*
X010927Y011379D01*
X010887Y011478D02*
X010200Y011478D01*
X010200Y011576D02*
X010887Y011576D01*
X010887Y011675D02*
X010200Y011675D01*
X010200Y011773D02*
X010887Y011773D01*
X010887Y011872D02*
X010200Y011872D01*
X010200Y011970D02*
X010984Y011970D01*
X010978Y012069D02*
X010200Y012069D01*
X010200Y012167D02*
X010908Y012167D01*
X010906Y012266D02*
X010200Y012266D01*
X010200Y012364D02*
X011263Y012364D01*
X011320Y012364D02*
X011754Y012364D01*
X011678Y012383D02*
X011678Y012532D01*
X011668Y012570D01*
X011662Y012580D01*
X011811Y012580D01*
X011754Y012523D01*
X011754Y012270D01*
X011743Y012271D01*
X011727Y012267D01*
X011711Y012267D01*
X011678Y012253D01*
X011678Y012326D01*
X011320Y012326D01*
X011320Y012383D01*
X011678Y012383D01*
X011678Y012463D02*
X011754Y012463D01*
X011792Y012561D02*
X011670Y012561D01*
X011678Y012266D02*
X011708Y012266D01*
X011320Y012266D02*
X011263Y012266D01*
X011263Y012167D02*
X011320Y012167D01*
X011320Y012069D02*
X011263Y012069D01*
X010906Y012463D02*
X010200Y012463D01*
X010200Y012561D02*
X010913Y012561D01*
X012444Y011773D02*
X012481Y011773D01*
X012444Y011675D02*
X012659Y011675D01*
X012659Y011576D02*
X012444Y011576D01*
X012444Y011478D02*
X012659Y011478D01*
X012679Y011379D02*
X012424Y011379D01*
X011193Y013879D02*
X011133Y014026D01*
X010987Y014172D01*
X010796Y014251D01*
X010590Y014251D01*
X010400Y014172D01*
X010254Y014026D01*
X010193Y013879D01*
X010133Y014026D01*
X009987Y014172D01*
X009796Y014251D01*
X009590Y014251D01*
X009400Y014172D01*
X009254Y014026D01*
X009193Y013879D01*
X009133Y014026D01*
X008987Y014172D01*
X008796Y014251D01*
X008590Y014251D01*
X008400Y014172D01*
X008254Y014026D01*
X008181Y013850D01*
X008157Y013925D01*
X008121Y013995D01*
X008075Y014058D01*
X008019Y014114D01*
X007955Y014160D01*
X007885Y014196D01*
X007810Y014220D01*
X007742Y014231D01*
X007742Y013781D01*
X007645Y013781D01*
X007645Y014231D01*
X007576Y014220D01*
X007501Y014196D01*
X007431Y014160D01*
X007368Y014114D01*
X007312Y014058D01*
X007266Y013995D01*
X007230Y013925D01*
X007206Y013850D01*
X007206Y013850D01*
X007133Y014026D01*
X006987Y014172D01*
X006837Y014234D01*
X007483Y014234D01*
X007582Y014332D01*
X007582Y015102D01*
X007483Y015200D01*
X007343Y015200D01*
X007381Y015238D01*
X010402Y015238D01*
X010394Y015219D01*
X010394Y015081D01*
X010418Y015023D01*
X009349Y015023D01*
X009283Y015089D01*
X009156Y015142D01*
X009018Y015142D01*
X008891Y015089D01*
X008793Y014992D01*
X008741Y014865D01*
X008741Y014727D01*
X008793Y014600D01*
X008891Y014502D01*
X009018Y014449D01*
X009156Y014449D01*
X009283Y014502D01*
X009349Y014569D01*
X011268Y014569D01*
X011260Y014550D01*
X011260Y014412D01*
X011313Y014285D01*
X011411Y014187D01*
X011424Y014182D01*
X011400Y014172D01*
X011254Y014026D01*
X011193Y013879D01*
X011168Y013940D02*
X011218Y013940D01*
X011266Y014039D02*
X011120Y014039D01*
X011022Y014137D02*
X011365Y014137D01*
X011362Y014236D02*
X010833Y014236D01*
X010553Y014236D02*
X009833Y014236D01*
X010022Y014137D02*
X010365Y014137D01*
X010266Y014039D02*
X010120Y014039D01*
X010168Y013940D02*
X010218Y013940D01*
X009553Y014236D02*
X008833Y014236D01*
X009022Y014137D02*
X009365Y014137D01*
X009266Y014039D02*
X009120Y014039D01*
X009168Y013940D02*
X009218Y013940D01*
X008553Y014236D02*
X007485Y014236D01*
X007399Y014137D02*
X007022Y014137D01*
X007120Y014039D02*
X007297Y014039D01*
X007238Y013940D02*
X007168Y013940D01*
X007645Y013940D02*
X007742Y013940D01*
X007742Y013842D02*
X007645Y013842D01*
X007645Y014039D02*
X007742Y014039D01*
X007742Y014137D02*
X007645Y014137D01*
X007582Y014334D02*
X011293Y014334D01*
X011260Y014433D02*
X007582Y014433D01*
X007582Y014531D02*
X008862Y014531D01*
X008781Y014630D02*
X007582Y014630D01*
X007582Y014728D02*
X008741Y014728D01*
X008741Y014827D02*
X007582Y014827D01*
X007582Y014925D02*
X008766Y014925D01*
X008825Y015024D02*
X007582Y015024D01*
X007561Y015122D02*
X008970Y015122D01*
X009204Y015122D02*
X010394Y015122D01*
X010395Y015221D02*
X007364Y015221D01*
X006320Y015999D02*
X006027Y015705D01*
X006027Y016204D01*
X005968Y016263D01*
X005968Y016321D01*
X006027Y016380D01*
X006027Y016419D01*
X006069Y016419D01*
X006167Y016459D01*
X006283Y016575D01*
X006321Y016575D01*
X006448Y016628D01*
X006546Y016726D01*
X006599Y016853D01*
X006599Y016991D01*
X006546Y017118D01*
X006497Y017167D01*
X006675Y017167D01*
X006675Y016675D01*
X006703Y016647D01*
X006574Y016518D01*
X006499Y016443D01*
X006494Y016430D01*
X006419Y016430D01*
X006320Y016332D01*
X006320Y015999D01*
X006320Y016009D02*
X006027Y016009D01*
X006027Y016107D02*
X006320Y016107D01*
X006320Y016206D02*
X006025Y016206D01*
X005968Y016304D02*
X006320Y016304D01*
X006391Y016403D02*
X006027Y016403D01*
X006209Y016501D02*
X006557Y016501D01*
X006656Y016600D02*
X006379Y016600D01*
X006518Y016698D02*
X006675Y016698D01*
X006675Y016797D02*
X006575Y016797D01*
X006599Y016895D02*
X006675Y016895D01*
X006675Y016994D02*
X006597Y016994D01*
X006557Y017092D02*
X006675Y017092D01*
X007213Y016403D02*
X007220Y016403D01*
X006232Y015910D02*
X006027Y015910D01*
X006027Y015812D02*
X006133Y015812D01*
X006035Y015713D02*
X006027Y015713D01*
X004667Y015615D02*
X004486Y015615D01*
X004656Y014334D02*
X000318Y014334D01*
X000318Y014236D02*
X004553Y014236D01*
X004365Y014137D02*
X004184Y014137D01*
X004193Y014039D02*
X004266Y014039D01*
X004218Y013940D02*
X004193Y013940D01*
X004193Y013546D02*
X004210Y013546D01*
X004193Y013448D02*
X004251Y013448D01*
X004190Y013349D02*
X004344Y013349D01*
X004503Y013251D02*
X004114Y013251D01*
X003742Y013251D02*
X003645Y013251D01*
X003645Y013233D02*
X003645Y013684D01*
X003193Y013684D01*
X003193Y013363D01*
X003204Y013325D01*
X003223Y013291D01*
X003251Y013263D01*
X003285Y013243D01*
X003324Y013233D01*
X003645Y013233D01*
X003645Y013349D02*
X003742Y013349D01*
X003742Y013448D02*
X003645Y013448D01*
X003645Y013546D02*
X003742Y013546D01*
X003742Y013645D02*
X003645Y013645D01*
X003645Y013743D02*
X000318Y013743D01*
X000318Y013645D02*
X003193Y013645D01*
X003193Y013546D02*
X000318Y013546D01*
X000318Y013448D02*
X003193Y013448D01*
X003197Y013349D02*
X000318Y013349D01*
X000318Y013251D02*
X003272Y013251D01*
X003193Y013781D02*
X003645Y013781D01*
X003645Y014233D01*
X003324Y014233D01*
X003285Y014222D01*
X003251Y014203D01*
X003223Y014175D01*
X003204Y014141D01*
X003193Y014102D01*
X003193Y013781D01*
X003193Y013842D02*
X000318Y013842D01*
X000318Y013940D02*
X003193Y013940D01*
X003193Y014039D02*
X000318Y014039D01*
X000318Y014137D02*
X003203Y014137D01*
X003645Y014137D02*
X003742Y014137D01*
X003742Y014039D02*
X003645Y014039D01*
X003645Y013940D02*
X003742Y013940D01*
X003742Y013842D02*
X003645Y013842D01*
X004758Y013152D02*
X000318Y013152D01*
X000318Y013054D02*
X004856Y013054D01*
X004955Y012955D02*
X000318Y012955D01*
X000318Y012857D02*
X005053Y012857D01*
X005152Y012758D02*
X000318Y012758D01*
X000318Y012660D02*
X005250Y012660D01*
X007987Y014137D02*
X008365Y014137D01*
X008266Y014039D02*
X008089Y014039D01*
X008149Y013940D02*
X008218Y013940D01*
X008181Y013850D02*
X008181Y013850D01*
X009312Y014531D02*
X011260Y014531D01*
X010418Y015024D02*
X009349Y015024D01*
X013198Y017979D02*
X013227Y017979D01*
X012633Y019653D02*
X015266Y019653D01*
X015259Y019869D02*
X015395Y019869D01*
X015395Y020269D01*
X014995Y020269D01*
X014995Y020133D01*
X015259Y019869D01*
X015180Y019949D02*
X014737Y019949D01*
X014639Y019851D02*
X014251Y019851D01*
X013977Y020125D01*
X013977Y020513D01*
X014251Y020787D01*
X014639Y020787D01*
X014913Y020513D01*
X014913Y020125D01*
X014639Y019851D01*
X014835Y020047D02*
X015081Y020047D01*
X014995Y020146D02*
X014913Y020146D01*
X014913Y020244D02*
X014995Y020244D01*
X014995Y020369D02*
X015395Y020369D01*
X015395Y020769D01*
X015259Y020769D01*
X014995Y020506D01*
X014995Y020369D01*
X014995Y020441D02*
X014913Y020441D01*
X014913Y020343D02*
X015395Y020343D01*
X015395Y020441D02*
X015495Y020441D01*
X015495Y020540D02*
X015395Y020540D01*
X015395Y020638D02*
X015495Y020638D01*
X015495Y020737D02*
X015395Y020737D01*
X015226Y020737D02*
X014690Y020737D01*
X014639Y020851D02*
X014251Y020851D01*
X013977Y021125D01*
X013977Y021513D01*
X014251Y021787D01*
X014639Y021787D01*
X014913Y021513D01*
X014913Y021125D01*
X014639Y020851D01*
X014722Y020934D02*
X015169Y020934D01*
X015071Y021032D02*
X014820Y021032D01*
X014913Y021131D02*
X014977Y021131D01*
X014977Y021229D02*
X014913Y021229D01*
X014913Y021328D02*
X014977Y021328D01*
X014977Y021426D02*
X014913Y021426D01*
X014902Y021525D02*
X014989Y021525D01*
X015087Y021623D02*
X014804Y021623D01*
X014705Y021722D02*
X015186Y021722D01*
X014186Y021722D02*
X013705Y021722D01*
X013639Y021787D02*
X013251Y021787D01*
X012977Y021513D01*
X012977Y021125D01*
X013251Y020851D01*
X013639Y020851D01*
X013913Y021125D01*
X013913Y021513D01*
X013639Y021787D01*
X013804Y021623D02*
X014087Y021623D01*
X013989Y021525D02*
X013902Y021525D01*
X013913Y021426D02*
X013977Y021426D01*
X013977Y021328D02*
X013913Y021328D01*
X013913Y021229D02*
X013977Y021229D01*
X013977Y021131D02*
X013913Y021131D01*
X013820Y021032D02*
X014071Y021032D01*
X014169Y020934D02*
X013722Y020934D01*
X013639Y020787D02*
X013251Y020787D01*
X012977Y020513D01*
X012977Y020125D01*
X013251Y019851D01*
X013639Y019851D01*
X013913Y020125D01*
X013913Y020513D01*
X013639Y020787D01*
X013690Y020737D02*
X014201Y020737D01*
X014102Y020638D02*
X013789Y020638D01*
X013887Y020540D02*
X014004Y020540D01*
X013977Y020441D02*
X013913Y020441D01*
X013913Y020343D02*
X013977Y020343D01*
X013977Y020244D02*
X013913Y020244D01*
X013913Y020146D02*
X013977Y020146D01*
X014056Y020047D02*
X013835Y020047D01*
X013737Y019949D02*
X014154Y019949D01*
X014887Y020540D02*
X015029Y020540D01*
X015128Y020638D02*
X014789Y020638D01*
X015395Y020244D02*
X015495Y020244D01*
X015495Y020146D02*
X015395Y020146D01*
X015395Y020047D02*
X015495Y020047D01*
X015495Y019949D02*
X015395Y019949D01*
X015664Y019653D02*
X015689Y019653D01*
X015664Y020737D02*
X015680Y020737D01*
X013201Y020737D02*
X012690Y020737D01*
X012789Y020638D02*
X013102Y020638D01*
X013004Y020540D02*
X012887Y020540D01*
X012913Y020441D02*
X012977Y020441D01*
X012977Y020343D02*
X012913Y020343D01*
X012913Y020244D02*
X012977Y020244D01*
X012977Y020146D02*
X012913Y020146D01*
X012835Y020047D02*
X013056Y020047D01*
X013154Y019949D02*
X012737Y019949D01*
X012696Y020934D02*
X013169Y020934D01*
X013071Y021032D02*
X012794Y021032D01*
X012893Y021131D02*
X012977Y021131D01*
X012977Y021229D02*
X012895Y021229D01*
X012977Y021328D02*
X012495Y021328D01*
X012495Y021229D02*
X012395Y021229D01*
X012395Y021131D02*
X012495Y021131D01*
X012495Y021032D02*
X012395Y021032D01*
X012395Y020934D02*
X012495Y020934D01*
X012895Y021426D02*
X012977Y021426D01*
X012989Y021525D02*
X012876Y021525D01*
X012778Y021623D02*
X013087Y021623D01*
X013186Y021722D02*
X012679Y021722D01*
X010186Y021722D02*
X009679Y021722D01*
X009778Y021623D02*
X010087Y021623D01*
X009989Y021525D02*
X009876Y021525D01*
X009895Y021426D02*
X009977Y021426D01*
X009977Y021328D02*
X009495Y021328D01*
X009495Y021229D02*
X009395Y021229D01*
X009395Y021131D02*
X009495Y021131D01*
X009495Y021032D02*
X009395Y021032D01*
X009395Y020934D02*
X009495Y020934D01*
X009696Y020934D02*
X010169Y020934D01*
X010071Y021032D02*
X009794Y021032D01*
X009893Y021131D02*
X009977Y021131D01*
X009977Y021229D02*
X009895Y021229D01*
X009690Y020737D02*
X010201Y020737D01*
X010102Y020638D02*
X009789Y020638D01*
X009887Y020540D02*
X010004Y020540D01*
X009977Y020441D02*
X009913Y020441D01*
X009913Y020343D02*
X009977Y020343D01*
X009977Y020244D02*
X009913Y020244D01*
X009913Y020146D02*
X009977Y020146D01*
X010056Y020047D02*
X009835Y020047D01*
X009737Y019949D02*
X010154Y019949D01*
X006169Y020934D02*
X005696Y020934D01*
X005794Y021032D02*
X006071Y021032D01*
X005977Y021131D02*
X005893Y021131D01*
X005895Y021229D02*
X005977Y021229D01*
X005495Y021229D02*
X005395Y021229D01*
X005395Y021131D02*
X005495Y021131D01*
X005495Y021032D02*
X005395Y021032D01*
X005395Y020934D02*
X005495Y020934D01*
X004995Y021426D02*
X004913Y021426D01*
X004902Y021525D02*
X005014Y021525D01*
X005113Y021623D02*
X004804Y021623D01*
X004705Y021722D02*
X005211Y021722D01*
X005395Y021722D02*
X005495Y021722D01*
X005495Y021623D02*
X005395Y021623D01*
X005395Y021525D02*
X005495Y021525D01*
X004186Y021722D02*
X003705Y021722D01*
X003804Y021623D02*
X004087Y021623D01*
X004071Y021032D02*
X003820Y021032D01*
X003722Y020934D02*
X004169Y020934D01*
X004201Y020737D02*
X003866Y020737D01*
X003913Y020638D02*
X004102Y020638D01*
X004004Y020540D02*
X003913Y020540D01*
X003913Y020441D02*
X003977Y020441D01*
X003977Y020343D02*
X003913Y020343D01*
X003913Y020244D02*
X003977Y020244D01*
X003977Y020146D02*
X003913Y020146D01*
X003913Y020047D02*
X004056Y020047D01*
X004154Y019949D02*
X003912Y019949D01*
X003169Y020934D02*
X002898Y020934D01*
X002898Y021032D02*
X003071Y021032D01*
X002977Y021131D02*
X002869Y021131D01*
X002835Y021229D02*
X002977Y021229D01*
X002977Y021328D02*
X002802Y021328D01*
X002768Y021426D02*
X002977Y021426D01*
X002989Y021525D02*
X002715Y021525D01*
X002638Y021623D02*
X003087Y021623D01*
X003186Y021722D02*
X002561Y021722D01*
X002485Y021820D02*
X023427Y021820D01*
X023320Y021722D02*
X022705Y021722D01*
X022639Y021787D02*
X022251Y021787D01*
X021977Y021513D01*
X021977Y021125D01*
X022251Y020851D01*
X022639Y020851D01*
X022913Y021125D01*
X022913Y021513D01*
X022639Y021787D01*
X022804Y021623D02*
X023240Y021623D01*
X023187Y021525D02*
X022902Y021525D01*
X022913Y021426D02*
X023134Y021426D01*
X023080Y021328D02*
X022913Y021328D01*
X022913Y021229D02*
X023042Y021229D01*
X023026Y021131D02*
X022913Y021131D01*
X022820Y021032D02*
X023010Y021032D01*
X022993Y020934D02*
X022722Y020934D01*
X022495Y020737D02*
X022395Y020737D01*
X022395Y020638D02*
X022495Y020638D01*
X022495Y020540D02*
X022395Y020540D01*
X022395Y020441D02*
X022495Y020441D01*
X022395Y020343D02*
X021913Y020343D01*
X021913Y020441D02*
X021995Y020441D01*
X022029Y020540D02*
X021887Y020540D01*
X021789Y020638D02*
X022128Y020638D01*
X022226Y020737D02*
X021690Y020737D01*
X021722Y020934D02*
X022169Y020934D01*
X022071Y021032D02*
X021820Y021032D01*
X021913Y021131D02*
X021977Y021131D01*
X021977Y021229D02*
X021913Y021229D01*
X021913Y021328D02*
X021977Y021328D01*
X021977Y021426D02*
X021913Y021426D01*
X021902Y021525D02*
X021989Y021525D01*
X022087Y021623D02*
X021804Y021623D01*
X021705Y021722D02*
X022186Y021722D01*
X023534Y021919D02*
X002350Y021919D01*
X002199Y022017D02*
X023684Y022017D01*
X023117Y020244D02*
X022895Y020244D01*
X022895Y020146D02*
X023170Y020146D01*
X023223Y020047D02*
X022809Y020047D01*
X022180Y019949D02*
X021737Y019949D01*
X021835Y020047D02*
X022081Y020047D01*
X021995Y020146D02*
X021913Y020146D01*
X021913Y020244D02*
X021995Y020244D01*
X021920Y019555D02*
X023631Y019555D01*
X023631Y019456D02*
X022042Y019456D01*
X022092Y019358D02*
X023631Y019358D01*
X023631Y019259D02*
X022110Y019259D01*
X022104Y019161D02*
X023631Y019161D01*
X023631Y019062D02*
X022063Y019062D01*
X022031Y018964D02*
X023631Y018964D01*
X023631Y018865D02*
X022031Y018865D01*
X022031Y018767D02*
X023685Y018767D01*
X023903Y018668D02*
X022127Y018668D01*
X021498Y018668D02*
X021268Y018668D01*
X021299Y018570D02*
X021391Y018570D01*
X021348Y018471D02*
X021302Y018471D01*
X021302Y018373D02*
X021348Y018373D01*
X021348Y018274D02*
X021302Y018274D01*
X021302Y018176D02*
X021348Y018176D01*
X021348Y018077D02*
X021302Y018077D01*
X021302Y017979D02*
X021363Y017979D01*
X021243Y017880D02*
X024277Y017880D01*
X024379Y017979D02*
X023480Y017979D01*
X023453Y017782D02*
X023820Y017782D01*
X023741Y018077D02*
X025572Y018077D01*
X025572Y017979D02*
X024897Y017979D01*
X024999Y017880D02*
X025572Y017880D01*
X025572Y017782D02*
X025061Y017782D01*
X025102Y017683D02*
X025572Y017683D01*
X025572Y017585D02*
X025106Y017585D01*
X025106Y017486D02*
X025572Y017486D01*
X025572Y017388D02*
X025066Y017388D01*
X025010Y017289D02*
X025572Y017289D01*
X025572Y017191D02*
X024912Y017191D01*
X024861Y016994D02*
X025572Y016994D01*
X025572Y017092D02*
X021227Y017092D01*
X021300Y016994D02*
X021390Y016994D01*
X021364Y017191D02*
X021302Y017191D01*
X021300Y017782D02*
X021390Y017782D01*
X021364Y016403D02*
X021302Y016403D01*
X021302Y016304D02*
X024251Y016304D01*
X024350Y016206D02*
X023429Y016206D01*
X023419Y016215D02*
X023385Y016235D01*
X023347Y016245D01*
X022470Y016245D01*
X022470Y015946D01*
X023477Y015946D01*
X023477Y016115D01*
X023467Y016153D01*
X023447Y016187D01*
X023419Y016215D01*
X023477Y016107D02*
X025572Y016107D01*
X025572Y016009D02*
X025014Y016009D01*
X025030Y015999D02*
X024996Y016019D01*
X024958Y016029D01*
X024688Y016029D01*
X024688Y015629D01*
X025088Y015629D01*
X025088Y015899D01*
X025078Y015937D01*
X025058Y015971D01*
X025030Y015999D01*
X025085Y015910D02*
X025572Y015910D01*
X025572Y015812D02*
X025088Y015812D01*
X025088Y015713D02*
X025572Y015713D01*
X025572Y015615D02*
X024688Y015615D01*
X024688Y015713D02*
X024588Y015713D01*
X024588Y015629D02*
X024588Y016029D01*
X024318Y016029D01*
X024280Y016019D01*
X024246Y015999D01*
X024218Y015971D01*
X024198Y015937D01*
X024188Y015899D01*
X024188Y015629D01*
X024588Y015629D01*
X024588Y015615D02*
X023450Y015615D01*
X023447Y015609D02*
X023467Y015643D01*
X023477Y015681D01*
X023477Y015850D01*
X022470Y015850D01*
X022470Y015946D01*
X022373Y015946D01*
X022373Y015850D01*
X021366Y015850D01*
X021366Y015681D01*
X021376Y015643D01*
X021396Y015609D01*
X021424Y015581D01*
X021458Y015561D01*
X021496Y015551D01*
X022373Y015551D01*
X022373Y015850D01*
X022470Y015850D01*
X022470Y015551D01*
X023347Y015551D01*
X023385Y015561D01*
X023419Y015581D01*
X023447Y015609D01*
X023477Y015713D02*
X024188Y015713D01*
X024188Y015812D02*
X023477Y015812D01*
X023477Y016009D02*
X024262Y016009D01*
X024191Y015910D02*
X022470Y015910D01*
X022373Y015910D02*
X021302Y015910D01*
X021366Y015946D02*
X022373Y015946D01*
X022373Y016245D01*
X021496Y016245D01*
X021458Y016235D01*
X021424Y016215D01*
X021396Y016187D01*
X021376Y016153D01*
X021366Y016115D01*
X021366Y015946D01*
X021366Y016009D02*
X021302Y016009D01*
X021302Y016107D02*
X021366Y016107D01*
X021415Y016206D02*
X021302Y016206D01*
X021302Y015812D02*
X021366Y015812D01*
X021366Y015713D02*
X021302Y015713D01*
X021393Y015615D02*
X021207Y015615D01*
X021079Y015516D02*
X024188Y015516D01*
X024588Y015812D02*
X024688Y015812D01*
X024688Y015910D02*
X024588Y015910D01*
X024588Y016009D02*
X024688Y016009D01*
X024927Y016206D02*
X025572Y016206D01*
X025572Y016304D02*
X025025Y016304D01*
X025072Y016403D02*
X025572Y016403D01*
X025572Y016501D02*
X025106Y016501D01*
X025106Y016600D02*
X025572Y016600D01*
X025572Y016698D02*
X025096Y016698D01*
X025055Y016797D02*
X025572Y016797D01*
X025572Y016895D02*
X024984Y016895D01*
X024415Y016994D02*
X023454Y016994D01*
X023479Y017191D02*
X024365Y017191D01*
X024292Y016895D02*
X024064Y016895D01*
X023561Y016403D02*
X023479Y016403D01*
X022470Y016206D02*
X022373Y016206D01*
X022373Y016107D02*
X022470Y016107D01*
X022470Y016009D02*
X022373Y016009D01*
X022373Y015812D02*
X022470Y015812D01*
X022470Y015713D02*
X022373Y015713D01*
X022373Y015615D02*
X022470Y015615D01*
X023711Y015418D02*
X021087Y015418D01*
X020867Y014925D02*
X023631Y014925D01*
X025088Y015516D02*
X025572Y015516D01*
X025572Y015418D02*
X025227Y015418D01*
X025306Y015319D02*
X025572Y015319D01*
X025572Y015221D02*
X025306Y015221D01*
X025306Y015122D02*
X025572Y015122D01*
X025572Y015024D02*
X025306Y015024D01*
X025306Y014925D02*
X025572Y014925D01*
X025572Y014827D02*
X025306Y014827D01*
X025306Y014728D02*
X025572Y014728D01*
X025572Y014630D02*
X025306Y014630D01*
X025269Y014531D02*
X025572Y014531D01*
X025572Y018176D02*
X024887Y018176D01*
X024995Y018274D02*
X025572Y018274D01*
X025572Y018373D02*
X025059Y018373D01*
X025100Y018471D02*
X025572Y018471D01*
X025572Y018570D02*
X025106Y018570D01*
X025106Y018668D02*
X025572Y018668D01*
X025572Y018767D02*
X025252Y018767D01*
X025306Y018865D02*
X025572Y018865D01*
X025572Y018964D02*
X025306Y018964D01*
X025306Y019062D02*
X025572Y019062D01*
X025572Y019161D02*
X025306Y019161D01*
X025306Y019259D02*
X025572Y019259D01*
X025572Y019358D02*
X025306Y019358D01*
X025306Y019456D02*
X025572Y019456D01*
X025572Y019555D02*
X025306Y019555D01*
X025243Y019653D02*
X025572Y019653D01*
X025572Y019752D02*
X025232Y019752D01*
X025344Y019850D02*
X025572Y019850D01*
X025572Y019949D02*
X025420Y019949D01*
X025497Y020047D02*
X025572Y020047D01*
X023612Y019653D02*
X020903Y019653D01*
X020929Y019555D02*
X021608Y019555D01*
X021486Y019456D02*
X020929Y019456D01*
X020841Y019752D02*
X023500Y019752D01*
X023452Y018570D02*
X023514Y018570D01*
X024130Y018176D02*
X024389Y018176D01*
X021436Y019358D02*
X021259Y019358D01*
X016783Y018274D02*
X016661Y018274D01*
X016714Y018176D02*
X016783Y018176D01*
X022570Y010887D02*
X022667Y010887D01*
X022667Y010788D02*
X022570Y010788D01*
X022570Y010690D02*
X022667Y010690D01*
X020937Y008818D02*
X019915Y008818D01*
X019915Y008917D02*
X019815Y008917D01*
X019815Y009015D02*
X019915Y009015D01*
X019915Y009114D02*
X019815Y009114D01*
X019815Y009212D02*
X019915Y009212D01*
X019915Y009311D02*
X019815Y009311D01*
X019815Y009409D02*
X019915Y009409D01*
X019387Y009409D02*
X018507Y009409D01*
X018507Y009311D02*
X019360Y009311D01*
X019360Y009212D02*
X018507Y009212D01*
X018514Y009114D02*
X019360Y009114D01*
X019360Y009015D02*
X018612Y009015D01*
X018711Y008917D02*
X019360Y008917D01*
X019360Y008720D02*
X018908Y008720D01*
X018809Y008818D02*
X019815Y008818D01*
X019360Y008621D02*
X019006Y008621D01*
X019105Y008523D02*
X019360Y008523D01*
X019360Y008424D02*
X019203Y008424D01*
X017601Y008129D02*
X017408Y008129D01*
X017548Y008107D02*
X017548Y008107D01*
X017342Y007833D02*
X016633Y007833D01*
X016633Y007735D02*
X017305Y007735D01*
X017305Y007636D02*
X016633Y007636D01*
X016633Y007538D02*
X017305Y007538D01*
X017305Y007439D02*
X016944Y007439D01*
X016969Y007341D02*
X017305Y007341D01*
X017305Y007242D02*
X016435Y007242D01*
X016417Y007242D02*
X014508Y007242D01*
X014541Y007341D02*
X014726Y007341D01*
X014643Y007439D02*
X014541Y007439D01*
X014512Y007538D02*
X014643Y007538D01*
X014643Y007636D02*
X014454Y007636D01*
X014323Y007735D02*
X014643Y007735D01*
X014643Y007833D02*
X014104Y007833D01*
X014005Y007932D02*
X014737Y007932D01*
X013884Y008030D02*
X017135Y008030D01*
X017240Y007932D02*
X016539Y007932D01*
X016969Y007144D02*
X017305Y007144D01*
X017305Y007045D02*
X016973Y007045D01*
X016987Y006947D02*
X017305Y006947D01*
X017305Y006848D02*
X016987Y006848D01*
X016987Y006750D02*
X017305Y006750D01*
X017305Y006651D02*
X016983Y006651D01*
X016987Y006553D02*
X017305Y006553D01*
X017305Y006454D02*
X016987Y006454D01*
X016987Y006356D02*
X017305Y006356D01*
X017305Y006257D02*
X016983Y006257D01*
X016969Y006159D02*
X017305Y006159D01*
X017305Y006060D02*
X016435Y006060D01*
X016417Y006060D02*
X013234Y006060D01*
X013270Y005997D02*
X013157Y006193D01*
X013157Y006193D01*
X013157Y006193D01*
X012960Y006306D01*
X012724Y006306D01*
X012528Y006193D01*
X012503Y006150D01*
X012478Y006193D01*
X012478Y006193D01*
X012478Y006193D01*
X012281Y006306D01*
X012045Y006306D01*
X011848Y006193D01*
X011735Y005997D01*
X011735Y005646D01*
X011602Y005723D01*
X009414Y005723D01*
X009454Y005820D01*
X009454Y005935D01*
X009410Y006041D01*
X009329Y006122D01*
X009223Y006166D01*
X009108Y006166D01*
X009021Y006129D01*
X009021Y006173D01*
X008977Y006279D01*
X008896Y006360D01*
X008828Y006388D01*
X009460Y006388D01*
X009616Y006478D01*
X009616Y006262D01*
X009729Y006066D01*
X009925Y005953D01*
X010185Y005953D01*
X010381Y006066D01*
X010417Y006129D01*
X010454Y006066D01*
X010650Y005953D01*
X010910Y005953D01*
X011106Y006066D01*
X011219Y006262D01*
X011219Y006478D01*
X011375Y006388D01*
X015619Y006388D01*
X015756Y006251D01*
X015874Y006251D01*
X015893Y006233D01*
X015892Y006232D01*
X015882Y006193D01*
X015882Y006065D01*
X016417Y006065D01*
X016417Y006046D01*
X015882Y006046D01*
X015882Y005918D01*
X015892Y005880D01*
X015893Y005878D01*
X015874Y005860D01*
X015795Y005860D01*
X015658Y005723D01*
X013403Y005723D01*
X013270Y005646D01*
X013270Y005997D01*
X013270Y005962D02*
X015882Y005962D01*
X015877Y005863D02*
X013270Y005863D01*
X013270Y005765D02*
X015700Y005765D01*
X015882Y006159D02*
X013177Y006159D01*
X013046Y006257D02*
X015750Y006257D01*
X015652Y006356D02*
X011219Y006356D01*
X011219Y006454D02*
X011261Y006454D01*
X011216Y006257D02*
X011959Y006257D01*
X011848Y006193D02*
X011848Y006193D01*
X011848Y006193D01*
X011829Y006159D02*
X011159Y006159D01*
X011106Y006066D02*
X011106Y006066D01*
X011096Y006060D02*
X011772Y006060D01*
X011735Y005962D02*
X010925Y005962D01*
X010635Y005962D02*
X010200Y005962D01*
X010371Y006060D02*
X010464Y006060D01*
X010454Y006066D02*
X010454Y006066D01*
X010454Y006066D01*
X010381Y006066D02*
X010381Y006066D01*
X010381Y006066D01*
X009910Y005962D02*
X009443Y005962D01*
X009454Y005863D02*
X011735Y005863D01*
X011735Y005765D02*
X009431Y005765D01*
X009391Y006060D02*
X009739Y006060D01*
X009729Y006066D02*
X009729Y006066D01*
X009676Y006159D02*
X009240Y006159D01*
X009092Y006159D02*
X009021Y006159D01*
X008986Y006257D02*
X009619Y006257D01*
X009616Y006356D02*
X008900Y006356D01*
X009574Y006454D02*
X009616Y006454D01*
X009394Y007242D02*
X005405Y007242D01*
X005486Y007341D02*
X013791Y007341D01*
X013823Y007242D02*
X011441Y007242D01*
X011468Y007226D02*
X011468Y007226D01*
X011468Y007226D01*
X011516Y007144D02*
X013886Y007144D01*
X014029Y007045D02*
X011573Y007045D01*
X011582Y006947D02*
X015661Y006947D01*
X015878Y007045D02*
X014302Y007045D01*
X014445Y007144D02*
X015882Y007144D01*
X016969Y005962D02*
X017305Y005962D01*
X017305Y005863D02*
X016974Y005863D01*
X016987Y005765D02*
X017305Y005765D01*
X017305Y005666D02*
X016987Y005666D01*
X016987Y005568D02*
X017305Y005568D01*
X017305Y005469D02*
X016982Y005469D01*
X016987Y005371D02*
X017305Y005371D01*
X017305Y005272D02*
X016987Y005272D01*
X016987Y005174D02*
X017305Y005174D01*
X017305Y005075D02*
X016982Y005075D01*
X016969Y004977D02*
X017305Y004977D01*
X018428Y004977D02*
X024098Y004977D01*
X024020Y005075D02*
X018428Y005075D01*
X018428Y005174D02*
X024016Y005174D01*
X024016Y005272D02*
X018428Y005272D01*
X018428Y005371D02*
X024016Y005371D01*
X024016Y005469D02*
X018428Y005469D01*
X018428Y004878D02*
X025572Y004878D01*
X025572Y004780D02*
X018428Y004780D01*
X018428Y004681D02*
X018519Y004681D01*
X018492Y004583D02*
X018428Y004583D01*
X018428Y004484D02*
X018492Y004484D01*
X018492Y004386D02*
X018428Y004386D01*
X018428Y004287D02*
X018492Y004287D01*
X018492Y004189D02*
X018428Y004189D01*
X018428Y004090D02*
X018492Y004090D01*
X018492Y003992D02*
X018428Y003992D01*
X018428Y003893D02*
X018492Y003893D01*
X018492Y003795D02*
X018428Y003795D01*
X018428Y003696D02*
X018492Y003696D01*
X018492Y003598D02*
X018428Y003598D01*
X018428Y003499D02*
X018492Y003499D01*
X018492Y003401D02*
X018428Y003401D01*
X018428Y003302D02*
X018492Y003302D01*
X018492Y003204D02*
X018428Y003204D01*
X018428Y003105D02*
X018492Y003105D01*
X018492Y003007D02*
X018428Y003007D01*
X020691Y003007D02*
X020791Y003007D01*
X020791Y003105D02*
X020691Y003105D01*
X020691Y003204D02*
X020791Y003204D01*
X020791Y003302D02*
X020691Y003302D01*
X020691Y003401D02*
X020791Y003401D01*
X020791Y003499D02*
X020691Y003499D01*
X020691Y003598D02*
X020791Y003598D01*
X020791Y003696D02*
X020691Y003696D01*
X020691Y003795D02*
X020791Y003795D01*
X020791Y003893D02*
X020691Y003893D01*
X020691Y003992D02*
X020791Y003992D01*
X020791Y004090D02*
X020691Y004090D01*
X020691Y004189D02*
X020791Y004189D01*
X020791Y004287D02*
X020691Y004287D01*
X020691Y004386D02*
X020791Y004386D01*
X020791Y004484D02*
X020691Y004484D01*
X020691Y004583D02*
X020791Y004583D01*
X020791Y004681D02*
X020691Y004681D01*
X022962Y004681D02*
X025572Y004681D01*
X025572Y004583D02*
X022989Y004583D01*
X022989Y004484D02*
X025572Y004484D01*
X025572Y004386D02*
X022989Y004386D01*
X022989Y004287D02*
X025572Y004287D01*
X025572Y004189D02*
X022989Y004189D01*
X022989Y004090D02*
X025572Y004090D01*
X025572Y003992D02*
X022989Y003992D01*
X022989Y003893D02*
X025572Y003893D01*
X025572Y003795D02*
X022989Y003795D01*
X022989Y003696D02*
X025572Y003696D01*
X025572Y003598D02*
X022989Y003598D01*
X022989Y003499D02*
X025572Y003499D01*
X025572Y003401D02*
X022989Y003401D01*
X022989Y003302D02*
X025572Y003302D01*
X025572Y003204D02*
X022989Y003204D01*
X022989Y003105D02*
X025572Y003105D01*
X025572Y003007D02*
X022989Y003007D01*
X024492Y002908D02*
X025572Y002908D01*
X025572Y002810D02*
X024881Y002810D01*
X025056Y002711D02*
X025572Y002711D01*
X025572Y002613D02*
X025207Y002613D01*
X025331Y002514D02*
X025572Y002514D01*
X025572Y002416D02*
X025407Y002416D01*
X025484Y002317D02*
X025572Y002317D01*
X025561Y002219D02*
X025572Y002219D01*
X023645Y000347D02*
X018551Y000347D01*
X018455Y000446D02*
X023516Y000446D01*
X020791Y001234D02*
X020691Y001234D01*
X020691Y001332D02*
X020791Y001332D01*
X020791Y001431D02*
X020691Y001431D01*
X020691Y001529D02*
X020791Y001529D01*
X020791Y001628D02*
X020691Y001628D01*
X020691Y001726D02*
X020791Y001726D01*
X020791Y001825D02*
X020691Y001825D01*
X020691Y001923D02*
X020791Y001923D01*
X020791Y002022D02*
X020691Y002022D01*
X020691Y002120D02*
X020791Y002120D01*
X020791Y002219D02*
X020691Y002219D01*
X020691Y002317D02*
X020791Y002317D01*
X020791Y002416D02*
X020691Y002416D01*
X020691Y002514D02*
X020791Y002514D01*
X020791Y002613D02*
X020691Y002613D01*
X020691Y002711D02*
X020791Y002711D01*
X017305Y000938D02*
X002774Y000938D01*
X002728Y000840D02*
X017305Y000840D01*
X017305Y000741D02*
X002651Y000741D01*
X002574Y000643D02*
X017305Y000643D01*
X017305Y000544D02*
X017300Y000500D01*
X017267Y000418D01*
X017204Y000356D01*
X017123Y000322D01*
X017079Y000318D01*
X002180Y000318D01*
X002468Y000506D01*
X002375Y000446D02*
X017278Y000446D01*
X017182Y000347D02*
X002225Y000347D01*
X000344Y002219D02*
X000318Y002219D01*
X000318Y002317D02*
X000398Y002317D01*
X000470Y002416D02*
X000318Y002416D01*
X000318Y002514D02*
X000577Y002514D01*
X000684Y002613D02*
X000318Y002613D01*
X000318Y002711D02*
X000815Y002711D01*
X001129Y003204D02*
X000318Y003204D01*
X000318Y003302D02*
X001062Y003302D01*
X001021Y003401D02*
X000318Y003401D01*
X000318Y003499D02*
X001000Y003499D01*
X001016Y003696D02*
X000318Y003696D01*
X000318Y003598D02*
X001482Y003598D01*
X001482Y003696D02*
X001582Y003696D01*
X001582Y003795D02*
X001482Y003795D01*
X001482Y003893D02*
X001582Y003893D01*
X001582Y003992D02*
X001482Y003992D01*
X001224Y003992D02*
X000318Y003992D01*
X000318Y004090D02*
X003038Y004090D01*
X002984Y003992D02*
X001840Y003992D01*
X001947Y003893D02*
X002956Y003893D01*
X003122Y004189D02*
X000318Y004189D01*
X000318Y004287D02*
X003277Y004287D01*
X003684Y004287D02*
X004788Y004287D01*
X004755Y004386D02*
X000318Y004386D01*
X000318Y004484D02*
X004705Y004484D01*
X004665Y004583D02*
X004450Y004583D01*
X004549Y004681D02*
X004665Y004681D01*
X004886Y004189D02*
X003839Y004189D01*
X003924Y004090D02*
X004985Y004090D01*
X003266Y003302D02*
X002002Y003302D01*
X002043Y003401D02*
X003117Y003401D01*
X003033Y003499D02*
X002063Y003499D01*
X001117Y003893D02*
X000318Y003893D01*
X000318Y003795D02*
X001055Y003795D01*
X005517Y007439D02*
X013744Y007439D01*
X012638Y006257D02*
X012367Y006257D01*
X012498Y006159D02*
X012508Y006159D01*
X012528Y006193D02*
X012528Y006193D01*
X012528Y006193D01*
X011735Y005666D02*
X011701Y005666D01*
X011395Y005174D02*
X010306Y005174D01*
X010473Y005075D02*
X011395Y005075D01*
X011395Y004977D02*
X010530Y004977D01*
X010585Y004878D02*
X011427Y004878D01*
X011484Y004780D02*
X010585Y004780D01*
X010585Y004681D02*
X011606Y004681D01*
X011509Y004737D02*
X011509Y004737D01*
X011509Y004737D01*
X012041Y004681D02*
X012285Y004681D01*
X012188Y004737D02*
X012188Y004737D01*
X012163Y004780D02*
X012163Y004780D01*
X012138Y004737D02*
X012138Y004737D01*
X012138Y004737D01*
X012720Y004681D02*
X012964Y004681D01*
X012867Y004737D02*
X012867Y004737D01*
X012842Y004780D02*
X012843Y004780D01*
X012817Y004737D02*
X012817Y004737D01*
X012817Y004737D01*
X013270Y005666D02*
X013304Y005666D01*
X010844Y007242D02*
X010716Y007242D01*
X010743Y007226D02*
X010743Y007226D01*
X010816Y007226D02*
X010816Y007226D01*
X010816Y007226D01*
X010119Y007242D02*
X009991Y007242D01*
X010092Y007226D02*
X010092Y007226D01*
X006837Y008424D02*
X006466Y008424D01*
X006316Y008523D02*
X006738Y008523D01*
X006344Y008917D02*
X000318Y008917D01*
X000318Y009015D02*
X003257Y009015D01*
X003276Y009006D02*
X003356Y008980D01*
X003431Y008968D01*
X003431Y009450D01*
X003531Y009450D01*
X003531Y009550D01*
X004013Y009550D01*
X004001Y009625D01*
X003975Y009705D01*
X003937Y009780D01*
X003888Y009848D01*
X003828Y009908D01*
X003761Y009957D01*
X003686Y009995D01*
X003606Y010021D01*
X003531Y010033D01*
X003531Y009550D01*
X003431Y009550D01*
X003431Y009450D01*
X002948Y009450D01*
X002960Y009375D01*
X002986Y009295D01*
X003024Y009221D01*
X003074Y009153D01*
X003133Y009093D01*
X003201Y009044D01*
X003276Y009006D01*
X003431Y009015D02*
X003531Y009015D01*
X003531Y008968D02*
X003606Y008980D01*
X003686Y009006D01*
X003761Y009044D01*
X003828Y009093D01*
X003888Y009153D01*
X003937Y009221D01*
X003975Y009295D01*
X004001Y009375D01*
X004013Y009450D01*
X003531Y009450D01*
X003531Y008968D01*
X003531Y009114D02*
X003431Y009114D01*
X003431Y009212D02*
X003531Y009212D01*
X003531Y009311D02*
X003431Y009311D01*
X003431Y009409D02*
X003531Y009409D01*
X003531Y009508D02*
X005753Y009508D01*
X005655Y009606D02*
X004004Y009606D01*
X003976Y009705D02*
X005556Y009705D01*
X005458Y009803D02*
X003921Y009803D01*
X003835Y009902D02*
X005359Y009902D01*
X005261Y010000D02*
X003671Y010000D01*
X003531Y010000D02*
X003431Y010000D01*
X003431Y010033D02*
X003356Y010021D01*
X003276Y009995D01*
X003201Y009957D01*
X003133Y009908D01*
X003074Y009848D01*
X003024Y009780D01*
X002986Y009705D01*
X002960Y009625D01*
X002948Y009550D01*
X003431Y009550D01*
X003431Y010033D01*
X003431Y009902D02*
X003531Y009902D01*
X003531Y009803D02*
X003431Y009803D01*
X003431Y009705D02*
X003531Y009705D01*
X003531Y009606D02*
X003431Y009606D01*
X003431Y009508D02*
X002014Y009508D01*
X002027Y009532D02*
X002053Y009612D01*
X002064Y009687D01*
X001582Y009687D01*
X001582Y009787D01*
X001482Y009787D01*
X001482Y010269D01*
X001407Y010257D01*
X001327Y010231D01*
X001252Y010193D01*
X001184Y010144D01*
X001125Y010084D01*
X001075Y010016D01*
X001037Y009942D01*
X001011Y009862D01*
X000999Y009787D01*
X001482Y009787D01*
X001482Y009687D01*
X000999Y009687D01*
X001011Y009612D01*
X001037Y009532D01*
X001075Y009457D01*
X001125Y009389D01*
X001184Y009329D01*
X001252Y009280D01*
X001327Y009242D01*
X001407Y009216D01*
X001482Y009204D01*
X001482Y009687D01*
X001582Y009687D01*
X001582Y009204D01*
X001657Y009216D01*
X001737Y009242D01*
X001812Y009280D01*
X001880Y009329D01*
X001939Y009389D01*
X001988Y009457D01*
X002027Y009532D01*
X002051Y009606D02*
X002957Y009606D01*
X002986Y009705D02*
X001582Y009705D01*
X001582Y009787D02*
X002064Y009787D01*
X002053Y009862D01*
X002027Y009942D01*
X001988Y010016D01*
X001939Y010084D01*
X001880Y010144D01*
X001812Y010193D01*
X001737Y010231D01*
X001657Y010257D01*
X001582Y010269D01*
X001582Y009787D01*
X001582Y009803D02*
X001482Y009803D01*
X001482Y009705D02*
X000318Y009705D01*
X000318Y009803D02*
X001002Y009803D01*
X001024Y009902D02*
X000318Y009902D01*
X000318Y010000D02*
X001067Y010000D01*
X001139Y010099D02*
X000318Y010099D01*
X000318Y010197D02*
X001260Y010197D01*
X001482Y010197D02*
X001582Y010197D01*
X001582Y010099D02*
X001482Y010099D01*
X001482Y010000D02*
X001582Y010000D01*
X001582Y009902D02*
X001482Y009902D01*
X001804Y010197D02*
X005064Y010197D01*
X005162Y010099D02*
X001925Y010099D01*
X001997Y010000D02*
X003291Y010000D01*
X003127Y009902D02*
X002040Y009902D01*
X002062Y009803D02*
X003041Y009803D01*
X002955Y009409D02*
X001954Y009409D01*
X001854Y009311D02*
X002981Y009311D01*
X003030Y009212D02*
X001632Y009212D01*
X001582Y009212D02*
X001482Y009212D01*
X001431Y009212D02*
X000318Y009212D01*
X000318Y009114D02*
X003113Y009114D01*
X003704Y009015D02*
X006246Y009015D01*
X006147Y009114D02*
X003849Y009114D01*
X003931Y009212D02*
X006049Y009212D01*
X005950Y009311D02*
X003980Y009311D01*
X004007Y009409D02*
X005852Y009409D01*
X006918Y010197D02*
X008224Y010197D01*
X008323Y010296D02*
X006820Y010296D01*
X006775Y010394D02*
X008421Y010394D01*
X008520Y010493D02*
X006775Y010493D01*
X006738Y010591D02*
X008618Y010591D01*
X004965Y010296D02*
X000318Y010296D01*
X000318Y010394D02*
X004867Y010394D01*
X004768Y010493D02*
X000318Y010493D01*
X000318Y010591D02*
X004670Y010591D01*
X004496Y008523D02*
X004322Y008523D01*
X001582Y009311D02*
X001482Y009311D01*
X001482Y009409D02*
X001582Y009409D01*
X001582Y009508D02*
X001482Y009508D01*
X001482Y009606D02*
X001582Y009606D01*
X001210Y009311D02*
X000318Y009311D01*
X000318Y009409D02*
X001110Y009409D01*
X001049Y009508D02*
X000318Y009508D01*
X000318Y009606D02*
X001013Y009606D01*
X010603Y002514D02*
X010852Y002514D01*
X010759Y002460D02*
X010759Y002460D01*
X010733Y002416D02*
X010722Y002416D01*
X012224Y002908D02*
X012261Y002908D01*
X012694Y003598D02*
X012698Y003598D01*
X012664Y003650D02*
X012664Y003650D01*
X012584Y003696D02*
X012808Y003696D01*
X018428Y006356D02*
X019060Y006356D01*
X019050Y006454D02*
X018428Y006454D01*
X018428Y006553D02*
X019050Y006553D01*
X019050Y006651D02*
X018428Y006651D01*
X018428Y006750D02*
X019050Y006750D01*
X019050Y006848D02*
X018428Y006848D01*
X018428Y006947D02*
X019050Y006947D01*
X017777Y009705D02*
X016717Y009705D01*
X024867Y006257D02*
X025572Y006257D01*
X025572Y006159D02*
X024867Y006159D01*
X024867Y006060D02*
X025572Y006060D01*
X025572Y005962D02*
X024867Y005962D01*
X024867Y005863D02*
X025572Y005863D01*
X025572Y005765D02*
X024867Y005765D01*
D39*
X016426Y001725D02*
X014166Y001725D01*
X014166Y007394D02*
X013772Y007788D01*
X006725Y007788D01*
X006252Y008260D01*
X004559Y008260D01*
X004422Y008122D01*
X006449Y010150D02*
X006449Y010307D01*
X006823Y011134D02*
X006823Y011272D01*
X006056Y012040D01*
X006056Y012158D01*
X005693Y013733D02*
X005693Y014276D01*
X006134Y014717D01*
X007119Y014717D01*
X006725Y016026D02*
X004717Y014018D01*
X004717Y013756D01*
X004693Y013733D01*
X004993Y015898D02*
X003430Y015898D01*
X002512Y015898D01*
X001213Y015579D01*
X001213Y016579D02*
X002473Y016685D01*
X003430Y016685D01*
X004993Y016685D01*
X005701Y016685D02*
X006016Y016685D01*
X006252Y016922D01*
X005701Y016685D02*
X005701Y015898D01*
X006695Y016026D02*
X006725Y016026D01*
X006725Y016292D01*
X007158Y016725D01*
X007158Y017000D01*
X006174Y019363D02*
X005386Y019363D01*
X005347Y019323D01*
X005347Y019284D01*
X005386Y019363D02*
X003693Y019363D01*
X003445Y019611D01*
X003445Y020319D01*
X003445Y021319D02*
X004445Y021319D01*
X006174Y019363D02*
X011327Y019363D01*
X011445Y019481D01*
X011445Y020319D01*
X011370Y019363D02*
X011843Y018890D01*
X012985Y018890D01*
X013103Y018772D01*
X013103Y018615D01*
X013103Y018260D01*
X012867Y018024D01*
X012119Y018024D01*
X011489Y017394D01*
X011489Y016056D01*
X011724Y015820D01*
X012534Y015820D01*
X012867Y016410D02*
X013282Y015994D01*
X013282Y015820D01*
X013283Y015819D01*
X014205Y015819D01*
X014363Y015977D01*
X014363Y016567D01*
X014559Y016764D01*
X015229Y016764D01*
X015465Y017000D01*
X015465Y017945D01*
X015372Y018038D01*
X015372Y018596D01*
X014855Y018575D02*
X014855Y017532D01*
X015032Y017355D01*
X015872Y017262D02*
X016204Y016931D01*
X017207Y016931D01*
X017955Y016931D02*
X017955Y017394D01*
X017994Y017433D01*
X018772Y017433D01*
X018890Y017433D01*
X018930Y017473D02*
X020268Y017473D01*
X020977Y017473D02*
X020977Y018260D01*
X021764Y018654D02*
X022158Y018260D01*
X022422Y018260D01*
X023378Y018260D01*
X024638Y018579D01*
X024638Y017579D02*
X023300Y017473D01*
X022422Y017473D01*
X020977Y017473D01*
X020977Y016685D02*
X020977Y016016D01*
X020977Y016685D02*
X022422Y016685D01*
X023378Y016685D01*
X024638Y016579D01*
X021764Y018654D02*
X021764Y018969D01*
X021764Y019244D01*
X021725Y019008D02*
X020977Y019008D01*
X019796Y019363D02*
X018811Y019363D01*
X018445Y019729D01*
X018445Y020319D01*
X016445Y020319D02*
X016445Y019162D01*
X016372Y019089D01*
X016372Y018596D01*
X016372Y018140D01*
X016621Y017891D01*
X017207Y017891D01*
X017955Y017891D02*
X017955Y017394D01*
X015872Y017262D02*
X015872Y018596D01*
X015872Y018865D01*
X014855Y018575D02*
X013733Y018575D01*
X013692Y018624D02*
X013113Y018624D01*
X012715Y016837D02*
X012394Y016837D01*
X012715Y016837D02*
X012867Y016685D01*
X012867Y016410D01*
X012552Y012945D02*
X012552Y012079D01*
X012670Y011961D01*
X013004Y011961D01*
X014284Y011961D01*
X014540Y011705D01*
X014540Y011567D01*
X013792Y011567D02*
X013772Y011587D01*
X013004Y011587D01*
X013004Y011233D01*
X012906Y011134D01*
X012906Y010859D01*
X012099Y011587D02*
X012099Y011961D01*
X011764Y012000D01*
X011410Y011646D01*
X011292Y011646D01*
X012099Y011961D02*
X012099Y012335D01*
X013004Y012335D02*
X013398Y012335D01*
X013457Y012394D01*
X014166Y012394D01*
X015111Y012394D01*
X015780Y011725D01*
X016292Y011725D01*
X019678Y013748D02*
X019693Y013733D01*
X020693Y013733D02*
X020701Y013741D01*
X015937Y020811D02*
X016445Y021319D01*
X009914Y012945D02*
X009835Y012867D01*
X003430Y017473D02*
X002473Y017473D01*
X001213Y017579D01*
D40*
X003430Y017473D02*
X005977Y017473D01*
X006213Y017709D01*
X006213Y018221D01*
X006489Y018496D01*
X012433Y018496D01*
X013103Y018615D02*
X013113Y018624D01*
X013692Y018624D02*
X013692Y018616D01*
X013733Y018575D01*
X012433Y019363D02*
X015465Y019363D01*
X015937Y018930D02*
X015872Y018865D01*
X017445Y020319D02*
X017445Y020359D01*
X017906Y020819D01*
X019835Y020819D01*
X019953Y020701D01*
X019953Y019914D01*
X020189Y019678D01*
X020426Y019678D01*
X020583Y019520D01*
X020465Y019008D02*
X020622Y018851D01*
X020622Y017473D01*
X020268Y017473D01*
X020622Y017473D02*
X020622Y016804D01*
X020504Y016685D01*
X020268Y016685D01*
X018930Y017473D02*
X018890Y017433D01*
X020268Y019008D02*
X020465Y019008D01*
X021725Y019008D02*
X021764Y018969D01*
X016693Y014197D02*
X016016Y014874D01*
X012158Y014874D01*
X011882Y015150D01*
X010741Y015150D01*
X011607Y014481D02*
X011764Y014323D01*
X013418Y014323D01*
X013693Y014048D01*
X013693Y013733D01*
X014693Y013733D02*
X014693Y014386D01*
X014481Y014599D01*
X012079Y014599D01*
X011882Y014796D01*
X009087Y014796D01*
X007119Y015465D02*
X012000Y015465D01*
X012237Y015229D01*
X012670Y015229D01*
X009048Y017394D02*
X006213Y017394D01*
X005977Y017158D01*
X005386Y017158D01*
X005347Y017119D01*
X005347Y016292D01*
X004993Y015937D01*
X004993Y015898D01*
X006252Y019284D02*
X006174Y019363D01*
X011327Y019363D02*
X011370Y019363D01*
X016693Y014197D02*
X016693Y013733D01*
X007867Y012158D02*
X006764Y012158D01*
X003362Y008339D02*
X003362Y008091D01*
X003353Y008082D01*
X003332Y008046D01*
X003322Y008006D01*
X003322Y007926D01*
X003855Y007926D01*
X003855Y007926D01*
X003322Y007926D01*
X003322Y007846D01*
X003266Y007846D01*
X003322Y007846D02*
X003332Y007805D01*
X003353Y007769D01*
X003362Y007761D01*
X003362Y007500D01*
X003353Y007492D01*
X003332Y007455D01*
X003322Y007415D01*
X003322Y007335D01*
X003322Y007255D01*
X003327Y007237D01*
X003322Y007218D01*
X003322Y007138D01*
X003322Y007058D01*
X003332Y007018D01*
X003353Y006981D01*
X003362Y006973D01*
X003362Y006909D01*
X003353Y006901D01*
X003332Y006865D01*
X003322Y006824D01*
X003322Y006744D01*
X003322Y006664D01*
X003332Y006624D01*
X003353Y006588D01*
X003362Y006580D01*
X003362Y006319D01*
X003353Y006311D01*
X003332Y006274D01*
X003322Y006234D01*
X003322Y006154D01*
X003855Y006154D01*
X003855Y006154D01*
X003322Y006154D01*
X003322Y006074D01*
X003332Y006033D01*
X003353Y005997D01*
X003362Y005989D01*
X003362Y005728D01*
X003353Y005720D01*
X003332Y005684D01*
X003322Y005643D01*
X003322Y005563D01*
X003322Y005483D01*
X003332Y005443D01*
X003353Y005407D01*
X003362Y005398D01*
X003362Y005138D01*
X003353Y005130D01*
X003332Y005093D01*
X003322Y005053D01*
X003322Y004973D01*
X003855Y004973D01*
X003855Y004973D01*
X003322Y004973D01*
X003322Y004893D01*
X003332Y004852D01*
X003353Y004816D01*
X003362Y004808D01*
X003362Y004756D01*
X003300Y004756D01*
X003260Y008339D01*
X003362Y008339D01*
X003362Y008313D02*
X003261Y008313D01*
X003262Y008196D02*
X003362Y008196D01*
X003352Y008080D02*
X003263Y008080D01*
X003264Y007963D02*
X003322Y007963D01*
X003362Y007730D02*
X003267Y007730D01*
X003268Y007613D02*
X003362Y007613D01*
X003358Y007496D02*
X003269Y007496D01*
X003271Y007380D02*
X003322Y007380D01*
X003322Y007335D02*
X003401Y007335D01*
X003322Y007335D01*
X003322Y007263D02*
X003272Y007263D01*
X003273Y007147D02*
X003322Y007147D01*
X003322Y007138D02*
X003401Y007138D01*
X003401Y007138D01*
X003322Y007138D01*
X003329Y007030D02*
X003275Y007030D01*
X003276Y006913D02*
X003362Y006913D01*
X003322Y006797D02*
X003277Y006797D01*
X003322Y006744D02*
X003855Y006744D01*
X003322Y006744D01*
X003322Y006680D02*
X003278Y006680D01*
X003280Y006564D02*
X003362Y006564D01*
X003362Y006447D02*
X003281Y006447D01*
X003282Y006330D02*
X003362Y006330D01*
X003322Y006214D02*
X003284Y006214D01*
X003285Y006097D02*
X003322Y006097D01*
X003286Y005981D02*
X003362Y005981D01*
X003362Y005864D02*
X003287Y005864D01*
X003289Y005747D02*
X003362Y005747D01*
X003322Y005631D02*
X003290Y005631D01*
X003322Y005563D02*
X003855Y005563D01*
X003322Y005563D01*
X003322Y005514D02*
X003291Y005514D01*
X003293Y005397D02*
X003362Y005397D01*
X003362Y005281D02*
X003294Y005281D01*
X003295Y005164D02*
X003362Y005164D01*
X003322Y005048D02*
X003296Y005048D01*
X003298Y004931D02*
X003322Y004931D01*
X003299Y004814D02*
X003355Y004814D01*
X003855Y005563D02*
X003855Y005563D01*
X003855Y006744D02*
X003855Y006744D01*
X003855Y007138D02*
X003855Y007335D01*
X003855Y007335D01*
X003855Y007138D01*
X003855Y007138D01*
X003855Y007147D02*
X003855Y007147D01*
X003855Y007263D02*
X003855Y007263D01*
X003401Y007335D02*
X003401Y007335D01*
D41*
X015937Y018930D02*
X015937Y020811D01*
D42*
X024638Y019205D02*
X024638Y018615D01*
X020701Y014599D02*
X020701Y013741D01*
X019678Y013748D02*
X019678Y014638D01*
X018693Y014599D02*
X018693Y013733D01*
X017693Y013733D02*
X017693Y013244D01*
X017394Y012945D01*
X012552Y012945D01*
X009914Y012945D01*
X005481Y012945D01*
X004693Y013733D01*
X001213Y014953D02*
X001213Y015583D01*
X006449Y010150D02*
X006863Y009737D01*
X008280Y009737D01*
X009126Y010583D01*
X009126Y012237D01*
X009835Y012237D02*
X009835Y010465D01*
X010839Y009461D01*
X010800Y009481D01*
X008280Y009737D02*
X008241Y009481D01*
X009835Y012237D02*
X009835Y012867D01*
X016292Y011725D02*
X016567Y011725D01*
X017433Y010859D01*
X018142Y010859D01*
X018142Y008969D01*
X019087Y008024D01*
X019835Y008024D01*
X020070Y007789D01*
X020070Y007012D01*
X021411Y007012D02*
X021411Y008724D01*
X021459Y008851D01*
X021420Y009274D01*
X020662Y010032D01*
X020662Y010859D01*
X022619Y010229D02*
X023615Y010229D01*
X023615Y008693D01*
X023851Y008457D01*
X024323Y008457D01*
X024441Y008339D01*
X024441Y007591D01*
X024402Y007552D01*
X024402Y007237D01*
X024166Y007000D01*
X022093Y007000D01*
X022081Y007012D01*
X023615Y010229D02*
X023851Y010229D01*
X023957Y010122D01*
X024678Y010122D01*
D43*
X016426Y006843D02*
X015838Y006843D01*
X015701Y006706D01*
X011489Y006706D01*
X011489Y006586D02*
X011462Y006588D01*
X011435Y006593D01*
X011409Y006601D01*
X011384Y006612D01*
X011361Y006626D01*
X011340Y006643D01*
X011321Y006662D01*
X011304Y006683D01*
X011290Y006706D01*
X011279Y006731D01*
X011271Y006757D01*
X011266Y006784D01*
X011264Y006811D01*
X011264Y006916D01*
X011262Y006934D01*
X011258Y006952D01*
X011250Y006969D01*
X011239Y006983D01*
X011226Y006996D01*
X011212Y007007D01*
X011195Y007015D01*
X011177Y007019D01*
X011159Y007021D01*
X011126Y007021D01*
X011108Y007019D01*
X011090Y007015D01*
X011074Y007007D01*
X011059Y006996D01*
X011046Y006983D01*
X011035Y006969D01*
X011027Y006952D01*
X011023Y006934D01*
X011021Y006916D01*
X011021Y006376D01*
X010901Y006376D02*
X010901Y006916D01*
X010903Y006943D01*
X010908Y006970D01*
X010916Y006996D01*
X010927Y007021D01*
X010941Y007044D01*
X010958Y007065D01*
X010977Y007084D01*
X010998Y007101D01*
X011021Y007115D01*
X011046Y007126D01*
X011072Y007134D01*
X011099Y007139D01*
X011126Y007141D01*
X011159Y007141D01*
X011186Y007139D01*
X011213Y007134D01*
X011239Y007126D01*
X011264Y007115D01*
X011287Y007101D01*
X011308Y007084D01*
X011327Y007065D01*
X011344Y007044D01*
X011358Y007021D01*
X011369Y006996D01*
X011377Y006970D01*
X011382Y006943D01*
X011384Y006916D01*
X011384Y006811D01*
X011386Y006793D01*
X011390Y006775D01*
X011398Y006759D01*
X011409Y006744D01*
X011422Y006731D01*
X011437Y006720D01*
X011453Y006712D01*
X011471Y006708D01*
X011489Y006706D01*
X011489Y006586D02*
X015701Y006586D01*
X015838Y006449D01*
X016426Y006449D01*
X016426Y005662D02*
X015877Y005662D01*
X015741Y005525D01*
X013517Y005525D01*
X013517Y005405D02*
X015741Y005405D01*
X015877Y005268D01*
X016426Y005268D01*
X016426Y004481D02*
X015877Y004481D01*
X015741Y004344D01*
X010852Y004344D01*
X010852Y004224D02*
X015741Y004224D01*
X015877Y004087D01*
X016426Y004087D01*
X016426Y003300D02*
X015877Y003300D01*
X015741Y003163D01*
X013392Y003163D01*
X013392Y003043D02*
X013365Y003045D01*
X013338Y003050D01*
X013312Y003058D01*
X013287Y003069D01*
X013264Y003083D01*
X013243Y003100D01*
X013224Y003119D01*
X013207Y003140D01*
X013193Y003163D01*
X013182Y003188D01*
X013174Y003214D01*
X013169Y003241D01*
X013167Y003268D01*
X013167Y003340D01*
X013165Y003358D01*
X013161Y003376D01*
X013153Y003393D01*
X013142Y003407D01*
X013129Y003420D01*
X013115Y003431D01*
X013098Y003439D01*
X013080Y003443D01*
X013062Y003445D01*
X013038Y003445D01*
X013020Y003443D01*
X013002Y003439D01*
X012986Y003431D01*
X012971Y003420D01*
X012958Y003407D01*
X012947Y003393D01*
X012939Y003376D01*
X012935Y003358D01*
X012933Y003340D01*
X012933Y002866D01*
X012813Y002888D02*
X012813Y003340D01*
X012815Y003367D01*
X012820Y003394D01*
X012828Y003420D01*
X012839Y003445D01*
X012853Y003468D01*
X012870Y003489D01*
X012889Y003508D01*
X012910Y003525D01*
X012933Y003539D01*
X012958Y003550D01*
X012984Y003558D01*
X013011Y003563D01*
X013038Y003565D01*
X013062Y003565D01*
X013089Y003563D01*
X013116Y003558D01*
X013142Y003550D01*
X013167Y003539D01*
X013190Y003525D01*
X013211Y003508D01*
X013230Y003489D01*
X013247Y003468D01*
X013261Y003445D01*
X013272Y003420D01*
X013280Y003394D01*
X013285Y003367D01*
X013287Y003340D01*
X013287Y003268D01*
X013289Y003250D01*
X013293Y003232D01*
X013301Y003216D01*
X013312Y003201D01*
X013325Y003188D01*
X013340Y003177D01*
X013356Y003169D01*
X013374Y003165D01*
X013392Y003163D01*
X013392Y003043D02*
X015741Y003043D01*
X015877Y002906D01*
X016426Y002906D01*
X016426Y002512D02*
X015838Y002512D01*
X015701Y002375D01*
X011069Y002375D01*
X011069Y002255D02*
X015701Y002255D01*
X015838Y002119D01*
X016426Y002119D01*
X012708Y002641D02*
X012684Y002641D01*
X012684Y002783D02*
X012708Y002783D01*
X012708Y002641D02*
X012735Y002643D01*
X012762Y002648D01*
X012788Y002656D01*
X012813Y002667D01*
X012836Y002681D01*
X012857Y002698D01*
X012876Y002717D01*
X012893Y002738D01*
X012907Y002761D01*
X012918Y002786D01*
X012926Y002812D01*
X012931Y002839D01*
X012933Y002866D01*
X012813Y002888D02*
X012811Y002870D01*
X012807Y002852D01*
X012799Y002836D01*
X012788Y002821D01*
X012775Y002808D01*
X012761Y002797D01*
X012744Y002789D01*
X012726Y002785D01*
X012708Y002783D01*
X012684Y002641D02*
X012657Y002643D01*
X012630Y002648D01*
X012604Y002656D01*
X012579Y002667D01*
X012556Y002681D01*
X012535Y002698D01*
X012516Y002717D01*
X012499Y002738D01*
X012485Y002761D01*
X012474Y002786D01*
X012466Y002812D01*
X012461Y002839D01*
X012459Y002866D01*
X012459Y003340D01*
X012457Y003358D01*
X012453Y003376D01*
X012445Y003393D01*
X012434Y003407D01*
X012421Y003420D01*
X012407Y003431D01*
X012390Y003439D01*
X012372Y003443D01*
X012354Y003445D01*
X012330Y003445D01*
X012312Y003443D01*
X012294Y003439D01*
X012278Y003431D01*
X012263Y003420D01*
X012250Y003407D01*
X012239Y003393D01*
X012231Y003376D01*
X012227Y003358D01*
X012225Y003340D01*
X012225Y003268D01*
X012105Y003268D02*
X012105Y003340D01*
X012225Y003268D02*
X012223Y003241D01*
X012218Y003214D01*
X012210Y003188D01*
X012199Y003163D01*
X012185Y003140D01*
X012168Y003119D01*
X012149Y003100D01*
X012128Y003083D01*
X012105Y003069D01*
X012080Y003058D01*
X012054Y003050D01*
X012027Y003045D01*
X012000Y003043D01*
X007527Y003043D01*
X006367Y004202D01*
X006646Y004093D02*
X006646Y004402D01*
X006646Y004093D02*
X007576Y003163D01*
X012000Y003163D01*
X012018Y003165D01*
X012036Y003169D01*
X012053Y003177D01*
X012067Y003188D01*
X012080Y003201D01*
X012091Y003216D01*
X012099Y003232D01*
X012103Y003250D01*
X012105Y003268D01*
X012105Y003340D02*
X012107Y003367D01*
X012112Y003394D01*
X012120Y003420D01*
X012131Y003445D01*
X012145Y003468D01*
X012162Y003489D01*
X012181Y003508D01*
X012202Y003525D01*
X012225Y003539D01*
X012250Y003550D01*
X012276Y003558D01*
X012303Y003563D01*
X012330Y003565D01*
X012354Y003565D01*
X012381Y003563D01*
X012408Y003558D01*
X012434Y003550D01*
X012459Y003539D01*
X012482Y003525D01*
X012503Y003508D01*
X012522Y003489D01*
X012539Y003468D01*
X012553Y003445D01*
X012564Y003420D01*
X012572Y003394D01*
X012577Y003367D01*
X012579Y003340D01*
X012579Y002888D01*
X012581Y002870D01*
X012585Y002852D01*
X012593Y002836D01*
X012604Y002821D01*
X012617Y002808D01*
X012632Y002797D01*
X012648Y002789D01*
X012666Y002785D01*
X012684Y002783D01*
X011069Y002255D02*
X011051Y002253D01*
X011033Y002249D01*
X011017Y002241D01*
X011002Y002230D01*
X010989Y002217D01*
X010978Y002203D01*
X010970Y002186D01*
X010966Y002168D01*
X010964Y002150D01*
X010964Y001762D01*
X010844Y001762D02*
X010844Y002150D01*
X010846Y002177D01*
X010851Y002204D01*
X010859Y002230D01*
X010870Y002255D01*
X010884Y002278D01*
X010901Y002299D01*
X010920Y002318D01*
X010941Y002335D01*
X010964Y002349D01*
X010989Y002360D01*
X011015Y002368D01*
X011042Y002373D01*
X011069Y002375D01*
X010611Y002150D02*
X010611Y001762D01*
X010491Y001762D02*
X010493Y001735D01*
X010498Y001708D01*
X010506Y001682D01*
X010517Y001657D01*
X010531Y001634D01*
X010548Y001613D01*
X010567Y001594D01*
X010588Y001577D01*
X010611Y001563D01*
X010636Y001552D01*
X010662Y001544D01*
X010689Y001539D01*
X010716Y001537D01*
X010739Y001537D01*
X010739Y001657D02*
X010716Y001657D01*
X010698Y001659D01*
X010680Y001663D01*
X010664Y001671D01*
X010649Y001682D01*
X010636Y001695D01*
X010625Y001710D01*
X010617Y001726D01*
X010613Y001744D01*
X010611Y001762D01*
X010491Y001762D02*
X010491Y002150D01*
X010489Y002168D01*
X010485Y002186D01*
X010477Y002203D01*
X010466Y002217D01*
X010453Y002230D01*
X010439Y002241D01*
X010422Y002249D01*
X010404Y002253D01*
X010386Y002255D01*
X007409Y002255D01*
X005419Y004244D01*
X005111Y004244D01*
X004953Y004402D01*
X004953Y004638D01*
X005291Y004543D02*
X007458Y002375D01*
X010386Y002375D01*
X010413Y002373D01*
X010440Y002368D01*
X010466Y002360D01*
X010491Y002349D01*
X010514Y002335D01*
X010535Y002318D01*
X010554Y002299D01*
X010571Y002278D01*
X010585Y002255D01*
X010596Y002230D01*
X010604Y002204D01*
X010609Y002177D01*
X010611Y002150D01*
X010964Y001762D02*
X010962Y001735D01*
X010957Y001708D01*
X010949Y001682D01*
X010938Y001657D01*
X010924Y001634D01*
X010907Y001613D01*
X010888Y001594D01*
X010867Y001577D01*
X010844Y001563D01*
X010819Y001552D01*
X010793Y001544D01*
X010766Y001539D01*
X010739Y001537D01*
X010739Y001657D02*
X010757Y001659D01*
X010775Y001663D01*
X010792Y001671D01*
X010806Y001682D01*
X010819Y001695D01*
X010830Y001709D01*
X010838Y001726D01*
X010842Y001744D01*
X010844Y001762D01*
X010522Y003574D02*
X010492Y003574D01*
X010492Y003694D02*
X010522Y003694D01*
X010522Y003574D02*
X010549Y003576D01*
X010576Y003581D01*
X010602Y003589D01*
X010627Y003600D01*
X010650Y003614D01*
X010671Y003631D01*
X010690Y003650D01*
X010707Y003671D01*
X010721Y003694D01*
X010732Y003719D01*
X010740Y003745D01*
X010745Y003772D01*
X010747Y003799D01*
X010747Y004119D01*
X010749Y004137D01*
X010753Y004155D01*
X010761Y004172D01*
X010772Y004186D01*
X010785Y004199D01*
X010800Y004210D01*
X010816Y004218D01*
X010834Y004222D01*
X010852Y004224D01*
X010852Y004344D02*
X010825Y004342D01*
X010798Y004337D01*
X010772Y004329D01*
X010747Y004318D01*
X010724Y004304D01*
X010703Y004287D01*
X010684Y004268D01*
X010667Y004247D01*
X010653Y004224D01*
X010642Y004199D01*
X010634Y004173D01*
X010629Y004146D01*
X010627Y004119D01*
X010627Y003799D01*
X010625Y003781D01*
X010621Y003763D01*
X010613Y003747D01*
X010602Y003732D01*
X010589Y003719D01*
X010575Y003708D01*
X010558Y003700D01*
X010540Y003696D01*
X010522Y003694D01*
X010492Y003574D02*
X010465Y003576D01*
X010438Y003581D01*
X010412Y003589D01*
X010387Y003600D01*
X010364Y003614D01*
X010343Y003631D01*
X010324Y003650D01*
X010307Y003671D01*
X010293Y003694D01*
X010282Y003719D01*
X010274Y003745D01*
X010269Y003772D01*
X010267Y003799D01*
X010267Y004681D01*
X010265Y004699D01*
X010261Y004717D01*
X010253Y004734D01*
X010242Y004748D01*
X010229Y004761D01*
X010215Y004772D01*
X010198Y004780D01*
X010180Y004784D01*
X010162Y004786D01*
X010132Y004786D01*
X010132Y004993D02*
X010105Y004991D01*
X010078Y004986D01*
X010052Y004978D01*
X010027Y004967D01*
X010004Y004953D01*
X009983Y004936D01*
X009964Y004917D01*
X009947Y004896D01*
X009933Y004873D01*
X009922Y004848D01*
X009914Y004822D01*
X009909Y004795D01*
X009907Y004768D01*
X009907Y003799D01*
X010027Y003799D02*
X010025Y003772D01*
X010020Y003745D01*
X010012Y003719D01*
X010001Y003694D01*
X009987Y003671D01*
X009970Y003650D01*
X009951Y003631D01*
X009930Y003614D01*
X009907Y003600D01*
X009882Y003589D01*
X009856Y003581D01*
X009829Y003576D01*
X009802Y003574D01*
X009771Y003574D01*
X009771Y003694D02*
X009802Y003694D01*
X009820Y003696D01*
X009838Y003700D01*
X009855Y003708D01*
X009869Y003719D01*
X009882Y003732D01*
X009893Y003747D01*
X009901Y003763D01*
X009905Y003781D01*
X009907Y003799D01*
X010027Y003799D02*
X010027Y004681D01*
X010029Y004699D01*
X010033Y004717D01*
X010041Y004734D01*
X010052Y004748D01*
X010065Y004761D01*
X010080Y004772D01*
X010096Y004780D01*
X010114Y004784D01*
X010132Y004786D01*
X010162Y004993D02*
X010189Y004991D01*
X010216Y004986D01*
X010242Y004978D01*
X010267Y004967D01*
X010290Y004953D01*
X010311Y004936D01*
X010330Y004917D01*
X010347Y004896D01*
X010361Y004873D01*
X010372Y004848D01*
X010380Y004822D01*
X010385Y004795D01*
X010387Y004768D01*
X010387Y003799D01*
X010389Y003781D01*
X010393Y003763D01*
X010401Y003747D01*
X010412Y003732D01*
X010425Y003719D01*
X010440Y003708D01*
X010456Y003700D01*
X010474Y003696D01*
X010492Y003694D01*
X009771Y003574D02*
X009744Y003576D01*
X009717Y003581D01*
X009691Y003589D01*
X009666Y003600D01*
X009643Y003614D01*
X009622Y003631D01*
X009603Y003650D01*
X009586Y003671D01*
X009572Y003694D01*
X009561Y003719D01*
X009553Y003745D01*
X009548Y003772D01*
X009546Y003799D01*
X009546Y004119D01*
X009544Y004137D01*
X009540Y004155D01*
X009532Y004172D01*
X009521Y004186D01*
X009508Y004199D01*
X009494Y004210D01*
X009477Y004218D01*
X009459Y004222D01*
X009441Y004224D01*
X009027Y004224D01*
X008811Y004439D01*
X008811Y004678D01*
X009166Y004441D02*
X009263Y004344D01*
X009441Y004344D01*
X009468Y004342D01*
X009495Y004337D01*
X009521Y004329D01*
X009546Y004318D01*
X009569Y004304D01*
X009590Y004287D01*
X009609Y004268D01*
X009626Y004247D01*
X009640Y004224D01*
X009651Y004199D01*
X009659Y004173D01*
X009664Y004146D01*
X009666Y004119D01*
X009666Y003799D01*
X009668Y003781D01*
X009672Y003763D01*
X009680Y003747D01*
X009691Y003732D01*
X009704Y003719D01*
X009719Y003708D01*
X009735Y003700D01*
X009753Y003696D01*
X009771Y003694D01*
X008378Y004835D02*
X008320Y004893D01*
X004481Y004893D01*
X004364Y004776D01*
X003855Y004776D01*
X003855Y004973D02*
X003241Y004973D01*
X003221Y004953D01*
X003855Y005170D02*
X004324Y005170D01*
X004481Y005013D01*
X008084Y005013D01*
X008181Y005111D01*
X008103Y005898D02*
X009145Y005898D01*
X009166Y005877D01*
X008733Y006116D02*
X008082Y006116D01*
X008003Y006194D01*
X004402Y006194D01*
X004245Y006351D01*
X003855Y006351D01*
X003855Y006548D02*
X004285Y006548D01*
X004441Y006704D01*
X006056Y006704D01*
X006153Y006607D01*
X006646Y006607D01*
X006367Y006821D02*
X006364Y006824D01*
X004441Y006824D01*
X004324Y006941D01*
X003855Y006941D01*
X003855Y006744D02*
X003280Y006744D01*
X003260Y006764D01*
X003241Y007138D02*
X003221Y007158D01*
X003241Y007138D02*
X003855Y007138D01*
X003855Y007335D02*
X003241Y007335D01*
X003855Y007532D02*
X004324Y007532D01*
X004363Y007570D01*
X005131Y007570D01*
X005229Y007473D01*
X004993Y007788D02*
X004895Y007690D01*
X004363Y007690D01*
X004324Y007729D01*
X003855Y007729D01*
X003855Y007926D02*
X003241Y007926D01*
X003221Y007906D01*
X003241Y006154D02*
X003221Y006134D01*
X003241Y006154D02*
X003855Y006154D01*
X003855Y005957D02*
X004285Y005957D01*
X004402Y006074D01*
X007927Y006074D01*
X008103Y005898D01*
X008181Y006410D02*
X008358Y006586D01*
X009346Y006586D01*
X009346Y006706D02*
X008475Y006706D01*
X008377Y006804D01*
X008378Y006804D01*
X009346Y006586D02*
X009373Y006588D01*
X009400Y006593D01*
X009426Y006601D01*
X009451Y006612D01*
X009474Y006626D01*
X009495Y006643D01*
X009514Y006662D01*
X009531Y006683D01*
X009545Y006706D01*
X009556Y006731D01*
X009564Y006757D01*
X009569Y006784D01*
X009571Y006811D01*
X009571Y006916D01*
X009573Y006934D01*
X009577Y006952D01*
X009585Y006969D01*
X009596Y006983D01*
X009609Y006996D01*
X009624Y007007D01*
X009640Y007015D01*
X009658Y007019D01*
X009676Y007021D01*
X009709Y007021D01*
X009727Y007019D01*
X009745Y007015D01*
X009762Y007007D01*
X009776Y006996D01*
X009789Y006983D01*
X009800Y006969D01*
X009808Y006952D01*
X009812Y006934D01*
X009814Y006916D01*
X009814Y006376D01*
X009816Y006349D01*
X009821Y006322D01*
X009829Y006296D01*
X009840Y006271D01*
X009854Y006248D01*
X009871Y006227D01*
X009890Y006208D01*
X009911Y006191D01*
X009934Y006177D01*
X009959Y006166D01*
X009985Y006158D01*
X010012Y006153D01*
X010039Y006151D01*
X010071Y006151D01*
X010098Y006153D01*
X010125Y006158D01*
X010151Y006166D01*
X010176Y006177D01*
X010199Y006191D01*
X010220Y006208D01*
X010239Y006227D01*
X010256Y006248D01*
X010270Y006271D01*
X010281Y006296D01*
X010289Y006322D01*
X010294Y006349D01*
X010296Y006376D01*
X010296Y006916D01*
X010298Y006934D01*
X010302Y006952D01*
X010310Y006969D01*
X010321Y006983D01*
X010334Y006996D01*
X010349Y007007D01*
X010365Y007015D01*
X010383Y007019D01*
X010401Y007021D01*
X010434Y007021D01*
X010452Y007019D01*
X010470Y007015D01*
X010487Y007007D01*
X010501Y006996D01*
X010514Y006983D01*
X010525Y006969D01*
X010533Y006952D01*
X010537Y006934D01*
X010539Y006916D01*
X010539Y006376D01*
X010659Y006376D02*
X010659Y006916D01*
X010657Y006943D01*
X010652Y006970D01*
X010644Y006996D01*
X010633Y007021D01*
X010619Y007044D01*
X010602Y007065D01*
X010583Y007084D01*
X010562Y007101D01*
X010539Y007115D01*
X010514Y007126D01*
X010488Y007134D01*
X010461Y007139D01*
X010434Y007141D01*
X010401Y007141D01*
X010374Y007139D01*
X010347Y007134D01*
X010321Y007126D01*
X010296Y007115D01*
X010273Y007101D01*
X010252Y007084D01*
X010233Y007065D01*
X010216Y007044D01*
X010202Y007021D01*
X010191Y006996D01*
X010183Y006970D01*
X010178Y006943D01*
X010176Y006916D01*
X010176Y006652D01*
X010174Y006634D01*
X010170Y006616D01*
X010162Y006600D01*
X010151Y006585D01*
X010138Y006572D01*
X010124Y006561D01*
X010107Y006553D01*
X010089Y006549D01*
X010071Y006547D01*
X010039Y006547D01*
X010021Y006549D01*
X010003Y006553D01*
X009987Y006561D01*
X009972Y006572D01*
X009959Y006585D01*
X009948Y006600D01*
X009940Y006616D01*
X009936Y006634D01*
X009934Y006652D01*
X009934Y006916D01*
X009932Y006943D01*
X009927Y006970D01*
X009919Y006996D01*
X009908Y007021D01*
X009894Y007044D01*
X009877Y007065D01*
X009858Y007084D01*
X009837Y007101D01*
X009814Y007115D01*
X009789Y007126D01*
X009763Y007134D01*
X009736Y007139D01*
X009709Y007141D01*
X009676Y007141D01*
X009649Y007139D01*
X009622Y007134D01*
X009596Y007126D01*
X009571Y007115D01*
X009548Y007101D01*
X009527Y007084D01*
X009508Y007065D01*
X009491Y007044D01*
X009477Y007021D01*
X009466Y006996D01*
X009458Y006970D01*
X009453Y006943D01*
X009451Y006916D01*
X009451Y006811D01*
X009449Y006793D01*
X009445Y006775D01*
X009437Y006759D01*
X009426Y006744D01*
X009413Y006731D01*
X009399Y006720D01*
X009382Y006712D01*
X009364Y006708D01*
X009346Y006706D01*
X010539Y006376D02*
X010541Y006349D01*
X010546Y006322D01*
X010554Y006296D01*
X010565Y006271D01*
X010579Y006248D01*
X010596Y006227D01*
X010615Y006208D01*
X010636Y006191D01*
X010659Y006177D01*
X010684Y006166D01*
X010710Y006158D01*
X010737Y006153D01*
X010764Y006151D01*
X010796Y006151D01*
X010796Y006271D02*
X010764Y006271D01*
X010746Y006273D01*
X010728Y006277D01*
X010712Y006285D01*
X010697Y006296D01*
X010684Y006309D01*
X010673Y006324D01*
X010665Y006340D01*
X010661Y006358D01*
X010659Y006376D01*
X010796Y006151D02*
X010823Y006153D01*
X010850Y006158D01*
X010876Y006166D01*
X010901Y006177D01*
X010924Y006191D01*
X010945Y006208D01*
X010964Y006227D01*
X010981Y006248D01*
X010995Y006271D01*
X011006Y006296D01*
X011014Y006322D01*
X011019Y006349D01*
X011021Y006376D01*
X010901Y006376D02*
X010899Y006358D01*
X010895Y006340D01*
X010887Y006324D01*
X010876Y006309D01*
X010863Y006296D01*
X010849Y006285D01*
X010832Y006277D01*
X010814Y006273D01*
X010796Y006271D01*
X011489Y005525D02*
X005662Y005525D01*
X005621Y005484D01*
X004441Y005484D01*
X004324Y005367D01*
X003855Y005367D01*
X003855Y005563D02*
X003241Y005563D01*
X003260Y005544D01*
X003855Y005760D02*
X004285Y005760D01*
X004441Y005604D01*
X005407Y005604D01*
X005504Y005701D01*
X005759Y005405D02*
X005622Y005268D01*
X005759Y005405D02*
X011489Y005405D01*
X011507Y005403D01*
X011525Y005399D01*
X011542Y005391D01*
X011556Y005380D01*
X011569Y005367D01*
X011580Y005353D01*
X011588Y005336D01*
X011592Y005318D01*
X011594Y005300D01*
X011594Y005047D01*
X011714Y005047D02*
X011714Y005300D01*
X011712Y005327D01*
X011707Y005354D01*
X011699Y005380D01*
X011688Y005405D01*
X011674Y005428D01*
X011657Y005449D01*
X011638Y005468D01*
X011617Y005485D01*
X011594Y005499D01*
X011569Y005510D01*
X011543Y005518D01*
X011516Y005523D01*
X011489Y005525D01*
X011933Y005883D02*
X011933Y005047D01*
X012053Y005047D02*
X012051Y005020D01*
X012046Y004993D01*
X012038Y004967D01*
X012027Y004942D01*
X012013Y004919D01*
X011996Y004898D01*
X011977Y004879D01*
X011956Y004862D01*
X011933Y004848D01*
X011908Y004837D01*
X011882Y004829D01*
X011855Y004824D01*
X011828Y004822D01*
X011819Y004822D01*
X011828Y004942D02*
X011819Y004942D01*
X011819Y004822D02*
X011792Y004824D01*
X011765Y004829D01*
X011739Y004837D01*
X011714Y004848D01*
X011691Y004862D01*
X011670Y004879D01*
X011651Y004898D01*
X011634Y004919D01*
X011620Y004942D01*
X011609Y004967D01*
X011601Y004993D01*
X011596Y005020D01*
X011594Y005047D01*
X011714Y005047D02*
X011716Y005029D01*
X011720Y005011D01*
X011728Y004995D01*
X011739Y004980D01*
X011752Y004967D01*
X011767Y004956D01*
X011783Y004948D01*
X011801Y004944D01*
X011819Y004942D01*
X011828Y004942D02*
X011846Y004944D01*
X011864Y004948D01*
X011881Y004956D01*
X011895Y004967D01*
X011908Y004980D01*
X011919Y004995D01*
X011927Y005011D01*
X011931Y005029D01*
X011933Y005047D01*
X012053Y005047D02*
X012053Y005883D01*
X012055Y005901D01*
X012059Y005919D01*
X012067Y005936D01*
X012078Y005950D01*
X012091Y005963D01*
X012106Y005974D01*
X012122Y005982D01*
X012140Y005986D01*
X012158Y005988D01*
X012168Y005988D01*
X012186Y005986D01*
X012204Y005982D01*
X012221Y005974D01*
X012235Y005963D01*
X012248Y005950D01*
X012259Y005936D01*
X012267Y005919D01*
X012271Y005901D01*
X012273Y005883D01*
X012273Y005047D01*
X012393Y005047D02*
X012393Y005883D01*
X012612Y005883D02*
X012612Y005047D01*
X012732Y005047D02*
X012730Y005020D01*
X012725Y004993D01*
X012717Y004967D01*
X012706Y004942D01*
X012692Y004919D01*
X012675Y004898D01*
X012656Y004879D01*
X012635Y004862D01*
X012612Y004848D01*
X012587Y004837D01*
X012561Y004829D01*
X012534Y004824D01*
X012507Y004822D01*
X012498Y004822D01*
X012507Y004942D02*
X012498Y004942D01*
X012498Y004822D02*
X012471Y004824D01*
X012444Y004829D01*
X012418Y004837D01*
X012393Y004848D01*
X012370Y004862D01*
X012349Y004879D01*
X012330Y004898D01*
X012313Y004919D01*
X012299Y004942D01*
X012288Y004967D01*
X012280Y004993D01*
X012275Y005020D01*
X012273Y005047D01*
X012393Y005047D02*
X012395Y005029D01*
X012399Y005011D01*
X012407Y004995D01*
X012418Y004980D01*
X012431Y004967D01*
X012446Y004956D01*
X012462Y004948D01*
X012480Y004944D01*
X012498Y004942D01*
X012507Y004942D02*
X012525Y004944D01*
X012543Y004948D01*
X012560Y004956D01*
X012574Y004967D01*
X012587Y004980D01*
X012598Y004995D01*
X012606Y005011D01*
X012610Y005029D01*
X012612Y005047D01*
X012732Y005047D02*
X012732Y005653D01*
X012734Y005671D01*
X012738Y005689D01*
X012746Y005706D01*
X012757Y005720D01*
X012770Y005733D01*
X012785Y005744D01*
X012801Y005752D01*
X012819Y005756D01*
X012837Y005758D01*
X012847Y005758D01*
X012865Y005756D01*
X012883Y005752D01*
X012900Y005744D01*
X012914Y005733D01*
X012927Y005720D01*
X012938Y005706D01*
X012946Y005689D01*
X012950Y005671D01*
X012952Y005653D01*
X012952Y005047D01*
X013072Y005047D02*
X013072Y005883D01*
X013070Y005910D01*
X013065Y005937D01*
X013057Y005963D01*
X013046Y005988D01*
X013032Y006011D01*
X013015Y006032D01*
X012996Y006051D01*
X012975Y006068D01*
X012952Y006082D01*
X012927Y006093D01*
X012901Y006101D01*
X012874Y006106D01*
X012847Y006108D01*
X012837Y006108D01*
X012810Y006106D01*
X012783Y006101D01*
X012757Y006093D01*
X012732Y006082D01*
X012709Y006068D01*
X012688Y006051D01*
X012669Y006032D01*
X012652Y006011D01*
X012638Y005988D01*
X012627Y005963D01*
X012619Y005937D01*
X012614Y005910D01*
X012612Y005883D01*
X012393Y005883D02*
X012391Y005910D01*
X012386Y005937D01*
X012378Y005963D01*
X012367Y005988D01*
X012353Y006011D01*
X012336Y006032D01*
X012317Y006051D01*
X012296Y006068D01*
X012273Y006082D01*
X012248Y006093D01*
X012222Y006101D01*
X012195Y006106D01*
X012168Y006108D01*
X012158Y006108D01*
X012131Y006106D01*
X012104Y006101D01*
X012078Y006093D01*
X012053Y006082D01*
X012030Y006068D01*
X012009Y006051D01*
X011990Y006032D01*
X011973Y006011D01*
X011959Y005988D01*
X011948Y005963D01*
X011940Y005937D01*
X011935Y005910D01*
X011933Y005883D01*
X013292Y005300D02*
X013292Y005047D01*
X013412Y005047D02*
X013410Y005020D01*
X013405Y004993D01*
X013397Y004967D01*
X013386Y004942D01*
X013372Y004919D01*
X013355Y004898D01*
X013336Y004879D01*
X013315Y004862D01*
X013292Y004848D01*
X013267Y004837D01*
X013241Y004829D01*
X013214Y004824D01*
X013187Y004822D01*
X013177Y004822D01*
X013187Y004942D02*
X013177Y004942D01*
X013177Y004822D02*
X013150Y004824D01*
X013123Y004829D01*
X013097Y004837D01*
X013072Y004848D01*
X013049Y004862D01*
X013028Y004879D01*
X013009Y004898D01*
X012992Y004919D01*
X012978Y004942D01*
X012967Y004967D01*
X012959Y004993D01*
X012954Y005020D01*
X012952Y005047D01*
X013072Y005047D02*
X013074Y005029D01*
X013078Y005011D01*
X013086Y004995D01*
X013097Y004980D01*
X013110Y004967D01*
X013125Y004956D01*
X013141Y004948D01*
X013159Y004944D01*
X013177Y004942D01*
X013187Y004942D02*
X013205Y004944D01*
X013223Y004948D01*
X013240Y004956D01*
X013254Y004967D01*
X013267Y004980D01*
X013278Y004995D01*
X013286Y005011D01*
X013290Y005029D01*
X013292Y005047D01*
X013412Y005047D02*
X013412Y005300D01*
X013414Y005318D01*
X013418Y005336D01*
X013426Y005353D01*
X013437Y005367D01*
X013450Y005380D01*
X013465Y005391D01*
X013481Y005399D01*
X013499Y005403D01*
X013517Y005405D01*
X013517Y005525D02*
X013490Y005523D01*
X013463Y005518D01*
X013437Y005510D01*
X013412Y005499D01*
X013389Y005485D01*
X013368Y005468D01*
X013349Y005449D01*
X013332Y005428D01*
X013318Y005405D01*
X013307Y005380D01*
X013299Y005354D01*
X013294Y005327D01*
X013292Y005300D01*
X010162Y004993D02*
X010132Y004993D01*
D44*
X014166Y007394D03*
X014166Y001725D03*
D45*
X004422Y008122D02*
X003855Y008122D01*
M02*
