G75*
%MOIN*%
%OFA0B0*%
%FSLAX24Y24*%
%IPPOS*%
%LPD*%
%AMOC8*
5,1,8,0,0,1.08239X$1,22.5*
%
%ADD10C,0.0000*%
D10*
X001331Y000150D02*
X017079Y000150D01*
X017118Y000152D01*
X017156Y000158D01*
X017193Y000167D01*
X017230Y000180D01*
X017265Y000197D01*
X017298Y000216D01*
X017329Y000239D01*
X017358Y000265D01*
X017384Y000294D01*
X017407Y000325D01*
X017426Y000358D01*
X017443Y000393D01*
X017456Y000430D01*
X017465Y000467D01*
X017471Y000505D01*
X017473Y000544D01*
X017473Y007630D01*
X017475Y007669D01*
X017481Y007707D01*
X017490Y007744D01*
X017503Y007781D01*
X017520Y007816D01*
X017539Y007849D01*
X017562Y007880D01*
X017588Y007909D01*
X017617Y007935D01*
X017648Y007958D01*
X017681Y007977D01*
X017716Y007994D01*
X017753Y008007D01*
X017790Y008016D01*
X017828Y008022D01*
X017867Y008024D01*
X017906Y008022D01*
X017944Y008016D01*
X017981Y008007D01*
X018018Y007994D01*
X018053Y007977D01*
X018086Y007958D01*
X018117Y007935D01*
X018146Y007909D01*
X018172Y007880D01*
X018195Y007849D01*
X018214Y007816D01*
X018231Y007781D01*
X018244Y007744D01*
X018253Y007707D01*
X018259Y007669D01*
X018261Y007630D01*
X018260Y007630D02*
X018260Y000544D01*
X018262Y000505D01*
X018268Y000467D01*
X018277Y000430D01*
X018290Y000393D01*
X018307Y000358D01*
X018326Y000325D01*
X018349Y000294D01*
X018375Y000265D01*
X018404Y000239D01*
X018435Y000216D01*
X018468Y000197D01*
X018503Y000180D01*
X018540Y000167D01*
X018577Y000158D01*
X018615Y000152D01*
X018654Y000150D01*
X024559Y000150D01*
X024625Y000152D01*
X024691Y000157D01*
X024757Y000167D01*
X024822Y000180D01*
X024886Y000196D01*
X024949Y000216D01*
X025011Y000240D01*
X025071Y000267D01*
X025130Y000297D01*
X025187Y000331D01*
X025242Y000368D01*
X025295Y000408D01*
X025346Y000450D01*
X025394Y000496D01*
X025440Y000544D01*
X025482Y000595D01*
X025522Y000648D01*
X025559Y000703D01*
X025593Y000760D01*
X025623Y000819D01*
X025650Y000879D01*
X025674Y000941D01*
X025694Y001004D01*
X025710Y001068D01*
X025723Y001133D01*
X025733Y001199D01*
X025738Y001265D01*
X025740Y001331D01*
X025741Y001331D02*
X025741Y021016D01*
X025740Y021016D02*
X025738Y021082D01*
X025733Y021148D01*
X025723Y021214D01*
X025710Y021279D01*
X025694Y021343D01*
X025674Y021406D01*
X025650Y021468D01*
X025623Y021528D01*
X025593Y021587D01*
X025559Y021644D01*
X025522Y021699D01*
X025482Y021752D01*
X025440Y021803D01*
X025394Y021851D01*
X025346Y021897D01*
X025295Y021939D01*
X025242Y021979D01*
X025187Y022016D01*
X025130Y022050D01*
X025071Y022080D01*
X025011Y022107D01*
X024949Y022131D01*
X024886Y022151D01*
X024822Y022167D01*
X024757Y022180D01*
X024691Y022190D01*
X024625Y022195D01*
X024559Y022197D01*
X001331Y022197D01*
X001265Y022195D01*
X001199Y022190D01*
X001133Y022180D01*
X001068Y022167D01*
X001004Y022151D01*
X000941Y022131D01*
X000879Y022107D01*
X000819Y022080D01*
X000760Y022050D01*
X000703Y022016D01*
X000648Y021979D01*
X000595Y021939D01*
X000544Y021897D01*
X000496Y021851D01*
X000450Y021803D01*
X000408Y021752D01*
X000368Y021699D01*
X000331Y021644D01*
X000297Y021587D01*
X000267Y021528D01*
X000240Y021468D01*
X000216Y021406D01*
X000196Y021343D01*
X000180Y021279D01*
X000167Y021214D01*
X000157Y021148D01*
X000152Y021082D01*
X000150Y021016D01*
X000150Y001331D01*
X000152Y001265D01*
X000157Y001199D01*
X000167Y001133D01*
X000180Y001068D01*
X000196Y001004D01*
X000216Y000941D01*
X000240Y000879D01*
X000267Y000819D01*
X000297Y000760D01*
X000331Y000703D01*
X000368Y000648D01*
X000408Y000595D01*
X000450Y000544D01*
X000496Y000496D01*
X000544Y000450D01*
X000595Y000408D01*
X000648Y000368D01*
X000703Y000331D01*
X000760Y000297D01*
X000819Y000267D01*
X000879Y000240D01*
X000941Y000216D01*
X001004Y000196D01*
X001068Y000180D01*
X001133Y000167D01*
X001199Y000157D01*
X001265Y000152D01*
X001331Y000150D01*
X000977Y001528D02*
X000979Y001575D01*
X000985Y001621D01*
X000995Y001667D01*
X001008Y001712D01*
X001026Y001755D01*
X001047Y001797D01*
X001071Y001837D01*
X001099Y001874D01*
X001130Y001909D01*
X001164Y001942D01*
X001200Y001971D01*
X001239Y001997D01*
X001280Y002020D01*
X001323Y002039D01*
X001367Y002055D01*
X001412Y002067D01*
X001458Y002075D01*
X001505Y002079D01*
X001551Y002079D01*
X001598Y002075D01*
X001644Y002067D01*
X001689Y002055D01*
X001733Y002039D01*
X001776Y002020D01*
X001817Y001997D01*
X001856Y001971D01*
X001892Y001942D01*
X001926Y001909D01*
X001957Y001874D01*
X001985Y001837D01*
X002009Y001797D01*
X002030Y001755D01*
X002048Y001712D01*
X002061Y001667D01*
X002071Y001621D01*
X002077Y001575D01*
X002079Y001528D01*
X002077Y001481D01*
X002071Y001435D01*
X002061Y001389D01*
X002048Y001344D01*
X002030Y001301D01*
X002009Y001259D01*
X001985Y001219D01*
X001957Y001182D01*
X001926Y001147D01*
X001892Y001114D01*
X001856Y001085D01*
X001817Y001059D01*
X001776Y001036D01*
X001733Y001017D01*
X001689Y001001D01*
X001644Y000989D01*
X001598Y000981D01*
X001551Y000977D01*
X001505Y000977D01*
X001458Y000981D01*
X001412Y000989D01*
X001367Y001001D01*
X001323Y001017D01*
X001280Y001036D01*
X001239Y001059D01*
X001200Y001085D01*
X001164Y001114D01*
X001130Y001147D01*
X001099Y001182D01*
X001071Y001219D01*
X001047Y001259D01*
X001026Y001301D01*
X001008Y001344D01*
X000995Y001389D01*
X000985Y001435D01*
X000979Y001481D01*
X000977Y001528D01*
X023812Y001528D02*
X023814Y001575D01*
X023820Y001621D01*
X023830Y001667D01*
X023843Y001712D01*
X023861Y001755D01*
X023882Y001797D01*
X023906Y001837D01*
X023934Y001874D01*
X023965Y001909D01*
X023999Y001942D01*
X024035Y001971D01*
X024074Y001997D01*
X024115Y002020D01*
X024158Y002039D01*
X024202Y002055D01*
X024247Y002067D01*
X024293Y002075D01*
X024340Y002079D01*
X024386Y002079D01*
X024433Y002075D01*
X024479Y002067D01*
X024524Y002055D01*
X024568Y002039D01*
X024611Y002020D01*
X024652Y001997D01*
X024691Y001971D01*
X024727Y001942D01*
X024761Y001909D01*
X024792Y001874D01*
X024820Y001837D01*
X024844Y001797D01*
X024865Y001755D01*
X024883Y001712D01*
X024896Y001667D01*
X024906Y001621D01*
X024912Y001575D01*
X024914Y001528D01*
X024912Y001481D01*
X024906Y001435D01*
X024896Y001389D01*
X024883Y001344D01*
X024865Y001301D01*
X024844Y001259D01*
X024820Y001219D01*
X024792Y001182D01*
X024761Y001147D01*
X024727Y001114D01*
X024691Y001085D01*
X024652Y001059D01*
X024611Y001036D01*
X024568Y001017D01*
X024524Y001001D01*
X024479Y000989D01*
X024433Y000981D01*
X024386Y000977D01*
X024340Y000977D01*
X024293Y000981D01*
X024247Y000989D01*
X024202Y001001D01*
X024158Y001017D01*
X024115Y001036D01*
X024074Y001059D01*
X024035Y001085D01*
X023999Y001114D01*
X023965Y001147D01*
X023934Y001182D01*
X023906Y001219D01*
X023882Y001259D01*
X023861Y001301D01*
X023843Y001344D01*
X023830Y001389D01*
X023820Y001435D01*
X023814Y001481D01*
X023812Y001528D01*
X023812Y020819D02*
X023814Y020866D01*
X023820Y020912D01*
X023830Y020958D01*
X023843Y021003D01*
X023861Y021046D01*
X023882Y021088D01*
X023906Y021128D01*
X023934Y021165D01*
X023965Y021200D01*
X023999Y021233D01*
X024035Y021262D01*
X024074Y021288D01*
X024115Y021311D01*
X024158Y021330D01*
X024202Y021346D01*
X024247Y021358D01*
X024293Y021366D01*
X024340Y021370D01*
X024386Y021370D01*
X024433Y021366D01*
X024479Y021358D01*
X024524Y021346D01*
X024568Y021330D01*
X024611Y021311D01*
X024652Y021288D01*
X024691Y021262D01*
X024727Y021233D01*
X024761Y021200D01*
X024792Y021165D01*
X024820Y021128D01*
X024844Y021088D01*
X024865Y021046D01*
X024883Y021003D01*
X024896Y020958D01*
X024906Y020912D01*
X024912Y020866D01*
X024914Y020819D01*
X024912Y020772D01*
X024906Y020726D01*
X024896Y020680D01*
X024883Y020635D01*
X024865Y020592D01*
X024844Y020550D01*
X024820Y020510D01*
X024792Y020473D01*
X024761Y020438D01*
X024727Y020405D01*
X024691Y020376D01*
X024652Y020350D01*
X024611Y020327D01*
X024568Y020308D01*
X024524Y020292D01*
X024479Y020280D01*
X024433Y020272D01*
X024386Y020268D01*
X024340Y020268D01*
X024293Y020272D01*
X024247Y020280D01*
X024202Y020292D01*
X024158Y020308D01*
X024115Y020327D01*
X024074Y020350D01*
X024035Y020376D01*
X023999Y020405D01*
X023965Y020438D01*
X023934Y020473D01*
X023906Y020510D01*
X023882Y020550D01*
X023861Y020592D01*
X023843Y020635D01*
X023830Y020680D01*
X023820Y020726D01*
X023814Y020772D01*
X023812Y020819D01*
X000977Y020819D02*
X000979Y020866D01*
X000985Y020912D01*
X000995Y020958D01*
X001008Y021003D01*
X001026Y021046D01*
X001047Y021088D01*
X001071Y021128D01*
X001099Y021165D01*
X001130Y021200D01*
X001164Y021233D01*
X001200Y021262D01*
X001239Y021288D01*
X001280Y021311D01*
X001323Y021330D01*
X001367Y021346D01*
X001412Y021358D01*
X001458Y021366D01*
X001505Y021370D01*
X001551Y021370D01*
X001598Y021366D01*
X001644Y021358D01*
X001689Y021346D01*
X001733Y021330D01*
X001776Y021311D01*
X001817Y021288D01*
X001856Y021262D01*
X001892Y021233D01*
X001926Y021200D01*
X001957Y021165D01*
X001985Y021128D01*
X002009Y021088D01*
X002030Y021046D01*
X002048Y021003D01*
X002061Y020958D01*
X002071Y020912D01*
X002077Y020866D01*
X002079Y020819D01*
X002077Y020772D01*
X002071Y020726D01*
X002061Y020680D01*
X002048Y020635D01*
X002030Y020592D01*
X002009Y020550D01*
X001985Y020510D01*
X001957Y020473D01*
X001926Y020438D01*
X001892Y020405D01*
X001856Y020376D01*
X001817Y020350D01*
X001776Y020327D01*
X001733Y020308D01*
X001689Y020292D01*
X001644Y020280D01*
X001598Y020272D01*
X001551Y020268D01*
X001505Y020268D01*
X001458Y020272D01*
X001412Y020280D01*
X001367Y020292D01*
X001323Y020308D01*
X001280Y020327D01*
X001239Y020350D01*
X001200Y020376D01*
X001164Y020405D01*
X001130Y020438D01*
X001099Y020473D01*
X001071Y020510D01*
X001047Y020550D01*
X001026Y020592D01*
X001008Y020635D01*
X000995Y020680D01*
X000985Y020726D01*
X000979Y020772D01*
X000977Y020819D01*
M02*
