G75*
%MOIN*%
%OFA0B0*%
%FSLAX24Y24*%
%IPPOS*%
%LPD*%
%AMOC8*
5,1,8,0,0,1.08239X$1,22.5*
%
%ADD10C,0.0000*%
%ADD11R,0.0512X0.0630*%
%ADD12R,0.0630X0.0512*%
%ADD13R,0.0591X0.0630*%
%ADD14R,0.0472X0.0472*%
%ADD15R,0.0315X0.0472*%
%ADD16R,0.1811X0.0394*%
%ADD17R,0.1339X0.0630*%
%ADD18R,0.0315X0.0354*%
%ADD19R,0.0354X0.0236*%
%ADD20R,0.0472X0.0315*%
%ADD21R,0.0787X0.0236*%
%ADD22R,0.1654X0.0276*%
%ADD23R,0.0748X0.0118*%
%ADD24R,0.0551X0.1181*%
%ADD25R,0.0400X0.1201*%
%ADD26R,0.4197X0.3299*%
%ADD27R,0.0591X0.0866*%
%ADD28R,0.0709X0.0945*%
%ADD29R,0.0240X0.0870*%
D10*
X001439Y000736D02*
X017187Y000736D01*
X017226Y000738D01*
X017264Y000744D01*
X017301Y000753D01*
X017338Y000766D01*
X017373Y000783D01*
X017406Y000802D01*
X017437Y000825D01*
X017466Y000851D01*
X017492Y000880D01*
X017515Y000911D01*
X017534Y000944D01*
X017551Y000979D01*
X017564Y001016D01*
X017573Y001053D01*
X017579Y001091D01*
X017581Y001130D01*
X017580Y001130D02*
X017580Y008217D01*
X017582Y008256D01*
X017588Y008294D01*
X017597Y008331D01*
X017610Y008368D01*
X017627Y008403D01*
X017646Y008436D01*
X017669Y008467D01*
X017695Y008496D01*
X017724Y008522D01*
X017755Y008545D01*
X017788Y008564D01*
X017823Y008581D01*
X017860Y008594D01*
X017897Y008603D01*
X017935Y008609D01*
X017974Y008611D01*
X018013Y008609D01*
X018051Y008603D01*
X018088Y008594D01*
X018125Y008581D01*
X018160Y008564D01*
X018193Y008545D01*
X018224Y008522D01*
X018253Y008496D01*
X018279Y008467D01*
X018302Y008436D01*
X018321Y008403D01*
X018338Y008368D01*
X018351Y008331D01*
X018360Y008294D01*
X018366Y008256D01*
X018368Y008217D01*
X018368Y001130D01*
X018367Y001130D02*
X018369Y001091D01*
X018375Y001053D01*
X018384Y001016D01*
X018397Y000979D01*
X018414Y000944D01*
X018433Y000911D01*
X018456Y000880D01*
X018482Y000851D01*
X018511Y000825D01*
X018542Y000802D01*
X018575Y000783D01*
X018610Y000766D01*
X018647Y000753D01*
X018684Y000744D01*
X018722Y000738D01*
X018761Y000736D01*
X024667Y000736D01*
X024733Y000738D01*
X024799Y000743D01*
X024865Y000753D01*
X024930Y000766D01*
X024994Y000782D01*
X025057Y000802D01*
X025119Y000826D01*
X025179Y000853D01*
X025238Y000883D01*
X025295Y000917D01*
X025350Y000954D01*
X025403Y000994D01*
X025454Y001036D01*
X025502Y001082D01*
X025548Y001130D01*
X025590Y001181D01*
X025630Y001234D01*
X025667Y001289D01*
X025701Y001346D01*
X025731Y001405D01*
X025758Y001465D01*
X025782Y001527D01*
X025802Y001590D01*
X025818Y001654D01*
X025831Y001719D01*
X025841Y001785D01*
X025846Y001851D01*
X025848Y001917D01*
X025848Y021602D01*
X025846Y021668D01*
X025841Y021734D01*
X025831Y021800D01*
X025818Y021865D01*
X025802Y021929D01*
X025782Y021992D01*
X025758Y022054D01*
X025731Y022114D01*
X025701Y022173D01*
X025667Y022230D01*
X025630Y022285D01*
X025590Y022338D01*
X025548Y022389D01*
X025502Y022437D01*
X025454Y022483D01*
X025403Y022525D01*
X025350Y022565D01*
X025295Y022602D01*
X025238Y022636D01*
X025179Y022666D01*
X025119Y022693D01*
X025057Y022717D01*
X024994Y022737D01*
X024930Y022753D01*
X024865Y022766D01*
X024799Y022776D01*
X024733Y022781D01*
X024667Y022783D01*
X001439Y022783D01*
X001373Y022781D01*
X001307Y022776D01*
X001241Y022766D01*
X001176Y022753D01*
X001112Y022737D01*
X001049Y022717D01*
X000987Y022693D01*
X000927Y022666D01*
X000868Y022636D01*
X000811Y022602D01*
X000756Y022565D01*
X000703Y022525D01*
X000652Y022483D01*
X000604Y022437D01*
X000558Y022389D01*
X000516Y022338D01*
X000476Y022285D01*
X000439Y022230D01*
X000405Y022173D01*
X000375Y022114D01*
X000348Y022054D01*
X000324Y021992D01*
X000304Y021929D01*
X000288Y021865D01*
X000275Y021800D01*
X000265Y021734D01*
X000260Y021668D01*
X000258Y021602D01*
X000257Y021602D02*
X000100Y015500D01*
X000108Y015459D01*
X000120Y015419D01*
X000136Y015381D01*
X000155Y015343D01*
X000177Y015308D01*
X000202Y015275D01*
X000230Y015243D01*
X000261Y015215D01*
X000294Y015189D01*
X000329Y015166D01*
X000366Y015147D01*
X000404Y015130D01*
X000444Y015118D01*
X000484Y015108D01*
X000526Y015102D01*
X000568Y015100D01*
X000609Y015101D01*
X000651Y015107D01*
X000651Y015106D02*
X001832Y015106D01*
X001832Y015107D02*
X001871Y015105D01*
X001909Y015099D01*
X001946Y015090D01*
X001983Y015077D01*
X002018Y015060D01*
X002051Y015041D01*
X002082Y015018D01*
X002111Y014992D01*
X002137Y014963D01*
X002160Y014932D01*
X002179Y014899D01*
X002196Y014864D01*
X002209Y014827D01*
X002218Y014790D01*
X002224Y014752D01*
X002226Y014713D01*
X002226Y008807D01*
X002224Y008768D01*
X002218Y008730D01*
X002209Y008693D01*
X002196Y008656D01*
X002179Y008621D01*
X002160Y008588D01*
X002137Y008557D01*
X002111Y008528D01*
X002082Y008502D01*
X002051Y008479D01*
X002018Y008460D01*
X001983Y008443D01*
X001946Y008430D01*
X001909Y008421D01*
X001871Y008415D01*
X001832Y008413D01*
X000651Y008413D01*
X000651Y008414D02*
X000612Y008412D01*
X000574Y008406D01*
X000537Y008397D01*
X000500Y008384D01*
X000465Y008367D01*
X000432Y008348D01*
X000401Y008325D01*
X000372Y008299D01*
X000346Y008270D01*
X000323Y008239D01*
X000304Y008206D01*
X000287Y008171D01*
X000274Y008134D01*
X000265Y008097D01*
X000259Y008059D01*
X000257Y008020D01*
X000257Y001917D01*
X000258Y001917D02*
X000260Y001851D01*
X000265Y001785D01*
X000275Y001719D01*
X000288Y001654D01*
X000304Y001590D01*
X000324Y001527D01*
X000348Y001465D01*
X000375Y001405D01*
X000405Y001346D01*
X000439Y001289D01*
X000476Y001234D01*
X000516Y001181D01*
X000558Y001130D01*
X000604Y001082D01*
X000652Y001036D01*
X000703Y000994D01*
X000756Y000954D01*
X000811Y000917D01*
X000868Y000883D01*
X000927Y000853D01*
X000987Y000826D01*
X001049Y000802D01*
X001112Y000782D01*
X001176Y000766D01*
X001241Y000753D01*
X001307Y000743D01*
X001373Y000738D01*
X001439Y000736D01*
X001084Y002114D02*
X001086Y002161D01*
X001092Y002207D01*
X001102Y002253D01*
X001115Y002298D01*
X001133Y002341D01*
X001154Y002383D01*
X001178Y002423D01*
X001206Y002460D01*
X001237Y002495D01*
X001271Y002528D01*
X001307Y002557D01*
X001346Y002583D01*
X001387Y002606D01*
X001430Y002625D01*
X001474Y002641D01*
X001519Y002653D01*
X001565Y002661D01*
X001612Y002665D01*
X001658Y002665D01*
X001705Y002661D01*
X001751Y002653D01*
X001796Y002641D01*
X001840Y002625D01*
X001883Y002606D01*
X001924Y002583D01*
X001963Y002557D01*
X001999Y002528D01*
X002033Y002495D01*
X002064Y002460D01*
X002092Y002423D01*
X002116Y002383D01*
X002137Y002341D01*
X002155Y002298D01*
X002168Y002253D01*
X002178Y002207D01*
X002184Y002161D01*
X002186Y002114D01*
X002184Y002067D01*
X002178Y002021D01*
X002168Y001975D01*
X002155Y001930D01*
X002137Y001887D01*
X002116Y001845D01*
X002092Y001805D01*
X002064Y001768D01*
X002033Y001733D01*
X001999Y001700D01*
X001963Y001671D01*
X001924Y001645D01*
X001883Y001622D01*
X001840Y001603D01*
X001796Y001587D01*
X001751Y001575D01*
X001705Y001567D01*
X001658Y001563D01*
X001612Y001563D01*
X001565Y001567D01*
X001519Y001575D01*
X001474Y001587D01*
X001430Y001603D01*
X001387Y001622D01*
X001346Y001645D01*
X001307Y001671D01*
X001271Y001700D01*
X001237Y001733D01*
X001206Y001768D01*
X001178Y001805D01*
X001154Y001845D01*
X001133Y001887D01*
X001115Y001930D01*
X001102Y001975D01*
X001092Y002021D01*
X001086Y002067D01*
X001084Y002114D01*
X023919Y002114D02*
X023921Y002161D01*
X023927Y002207D01*
X023937Y002253D01*
X023950Y002298D01*
X023968Y002341D01*
X023989Y002383D01*
X024013Y002423D01*
X024041Y002460D01*
X024072Y002495D01*
X024106Y002528D01*
X024142Y002557D01*
X024181Y002583D01*
X024222Y002606D01*
X024265Y002625D01*
X024309Y002641D01*
X024354Y002653D01*
X024400Y002661D01*
X024447Y002665D01*
X024493Y002665D01*
X024540Y002661D01*
X024586Y002653D01*
X024631Y002641D01*
X024675Y002625D01*
X024718Y002606D01*
X024759Y002583D01*
X024798Y002557D01*
X024834Y002528D01*
X024868Y002495D01*
X024899Y002460D01*
X024927Y002423D01*
X024951Y002383D01*
X024972Y002341D01*
X024990Y002298D01*
X025003Y002253D01*
X025013Y002207D01*
X025019Y002161D01*
X025021Y002114D01*
X025019Y002067D01*
X025013Y002021D01*
X025003Y001975D01*
X024990Y001930D01*
X024972Y001887D01*
X024951Y001845D01*
X024927Y001805D01*
X024899Y001768D01*
X024868Y001733D01*
X024834Y001700D01*
X024798Y001671D01*
X024759Y001645D01*
X024718Y001622D01*
X024675Y001603D01*
X024631Y001587D01*
X024586Y001575D01*
X024540Y001567D01*
X024493Y001563D01*
X024447Y001563D01*
X024400Y001567D01*
X024354Y001575D01*
X024309Y001587D01*
X024265Y001603D01*
X024222Y001622D01*
X024181Y001645D01*
X024142Y001671D01*
X024106Y001700D01*
X024072Y001733D01*
X024041Y001768D01*
X024013Y001805D01*
X023989Y001845D01*
X023968Y001887D01*
X023950Y001930D01*
X023937Y001975D01*
X023927Y002021D01*
X023921Y002067D01*
X023919Y002114D01*
X023919Y021406D02*
X023921Y021453D01*
X023927Y021499D01*
X023937Y021545D01*
X023950Y021590D01*
X023968Y021633D01*
X023989Y021675D01*
X024013Y021715D01*
X024041Y021752D01*
X024072Y021787D01*
X024106Y021820D01*
X024142Y021849D01*
X024181Y021875D01*
X024222Y021898D01*
X024265Y021917D01*
X024309Y021933D01*
X024354Y021945D01*
X024400Y021953D01*
X024447Y021957D01*
X024493Y021957D01*
X024540Y021953D01*
X024586Y021945D01*
X024631Y021933D01*
X024675Y021917D01*
X024718Y021898D01*
X024759Y021875D01*
X024798Y021849D01*
X024834Y021820D01*
X024868Y021787D01*
X024899Y021752D01*
X024927Y021715D01*
X024951Y021675D01*
X024972Y021633D01*
X024990Y021590D01*
X025003Y021545D01*
X025013Y021499D01*
X025019Y021453D01*
X025021Y021406D01*
X025019Y021359D01*
X025013Y021313D01*
X025003Y021267D01*
X024990Y021222D01*
X024972Y021179D01*
X024951Y021137D01*
X024927Y021097D01*
X024899Y021060D01*
X024868Y021025D01*
X024834Y020992D01*
X024798Y020963D01*
X024759Y020937D01*
X024718Y020914D01*
X024675Y020895D01*
X024631Y020879D01*
X024586Y020867D01*
X024540Y020859D01*
X024493Y020855D01*
X024447Y020855D01*
X024400Y020859D01*
X024354Y020867D01*
X024309Y020879D01*
X024265Y020895D01*
X024222Y020914D01*
X024181Y020937D01*
X024142Y020963D01*
X024106Y020992D01*
X024072Y021025D01*
X024041Y021060D01*
X024013Y021097D01*
X023989Y021137D01*
X023968Y021179D01*
X023950Y021222D01*
X023937Y021267D01*
X023927Y021313D01*
X023921Y021359D01*
X023919Y021406D01*
X001084Y021406D02*
X001086Y021453D01*
X001092Y021499D01*
X001102Y021545D01*
X001115Y021590D01*
X001133Y021633D01*
X001154Y021675D01*
X001178Y021715D01*
X001206Y021752D01*
X001237Y021787D01*
X001271Y021820D01*
X001307Y021849D01*
X001346Y021875D01*
X001387Y021898D01*
X001430Y021917D01*
X001474Y021933D01*
X001519Y021945D01*
X001565Y021953D01*
X001612Y021957D01*
X001658Y021957D01*
X001705Y021953D01*
X001751Y021945D01*
X001796Y021933D01*
X001840Y021917D01*
X001883Y021898D01*
X001924Y021875D01*
X001963Y021849D01*
X001999Y021820D01*
X002033Y021787D01*
X002064Y021752D01*
X002092Y021715D01*
X002116Y021675D01*
X002137Y021633D01*
X002155Y021590D01*
X002168Y021545D01*
X002178Y021499D01*
X002184Y021453D01*
X002186Y021406D01*
X002184Y021359D01*
X002178Y021313D01*
X002168Y021267D01*
X002155Y021222D01*
X002137Y021179D01*
X002116Y021137D01*
X002092Y021097D01*
X002064Y021060D01*
X002033Y021025D01*
X001999Y020992D01*
X001963Y020963D01*
X001924Y020937D01*
X001883Y020914D01*
X001840Y020895D01*
X001796Y020879D01*
X001751Y020867D01*
X001705Y020859D01*
X001658Y020855D01*
X001612Y020855D01*
X001565Y020859D01*
X001519Y020867D01*
X001474Y020879D01*
X001430Y020895D01*
X001387Y020914D01*
X001346Y020937D01*
X001307Y020963D01*
X001271Y020992D01*
X001237Y021025D01*
X001206Y021060D01*
X001178Y021097D01*
X001154Y021137D01*
X001133Y021179D01*
X001115Y021222D01*
X001102Y021267D01*
X001092Y021313D01*
X001086Y021359D01*
X001084Y021406D01*
D11*
X012641Y016406D03*
X013389Y016406D03*
X017315Y017517D03*
X018063Y017517D03*
X018063Y018477D03*
X017315Y018477D03*
D12*
X013800Y018423D03*
X013800Y019211D03*
X007265Y018374D03*
X007265Y017587D03*
X005454Y019083D03*
X005454Y019870D03*
D13*
X007226Y015303D03*
D14*
X007620Y016612D03*
X006832Y016612D03*
D15*
X005809Y016484D03*
X005100Y016484D03*
X005100Y017272D03*
X005809Y017272D03*
X006163Y012744D03*
X006872Y012744D03*
X009234Y012823D03*
X009943Y012823D03*
X012305Y011445D03*
X013013Y011445D03*
X020376Y016602D03*
X021084Y016602D03*
X021084Y017272D03*
X020376Y017272D03*
X020376Y018059D03*
X021084Y018059D03*
X021084Y018846D03*
X020376Y018846D03*
X020376Y019594D03*
X021084Y019594D03*
D16*
X022529Y018846D03*
X022529Y018059D03*
X022529Y017272D03*
X022529Y016484D03*
X022726Y011602D03*
X022726Y010815D03*
X003537Y016484D03*
X003537Y017272D03*
X003537Y018059D03*
X003537Y018846D03*
D17*
X001490Y019791D03*
X001490Y015539D03*
X024576Y015539D03*
X024773Y012547D03*
X024773Y009870D03*
X024576Y019791D03*
D18*
X014273Y012980D03*
X013899Y012154D03*
X014647Y012154D03*
X006931Y011720D03*
X006183Y011720D03*
X006557Y010894D03*
D19*
X012206Y012173D03*
X012206Y012547D03*
X012206Y012921D03*
X013112Y012921D03*
X013112Y012547D03*
X013112Y012173D03*
D20*
X011399Y012232D03*
X011399Y012941D03*
X018801Y015185D03*
X018801Y015894D03*
X019785Y015933D03*
X019785Y015224D03*
X020809Y015185D03*
X020809Y015894D03*
D21*
X012210Y007823D03*
X012210Y007429D03*
X012210Y007035D03*
X012210Y006642D03*
X012210Y006248D03*
X012210Y005854D03*
X012210Y005461D03*
X012210Y005067D03*
X012210Y004673D03*
X012210Y004280D03*
X012210Y003886D03*
X012210Y003492D03*
X012210Y003098D03*
X012210Y002705D03*
X012210Y002311D03*
D22*
X012998Y001917D03*
X012998Y008217D03*
D23*
X006088Y007921D03*
X006088Y007724D03*
X006088Y007528D03*
X006088Y007331D03*
X006088Y007134D03*
X006088Y006937D03*
X006088Y006740D03*
X006088Y006543D03*
X006088Y006346D03*
X006088Y006150D03*
X006088Y005953D03*
X006088Y005756D03*
X006088Y005559D03*
X006088Y005362D03*
X006088Y005165D03*
X006088Y004969D03*
X006088Y004772D03*
X006088Y004575D03*
X006088Y004378D03*
D24*
X016399Y010421D03*
X016399Y012311D03*
X024549Y008177D03*
X024549Y006287D03*
D25*
X022188Y007598D03*
X021518Y007598D03*
X020848Y007598D03*
X020178Y007598D03*
X019508Y007598D03*
D26*
X020848Y003531D03*
D27*
X020769Y011445D03*
X018250Y011445D03*
D28*
X019972Y009437D03*
X021567Y009437D03*
D29*
X016480Y016532D03*
X015980Y016532D03*
X015480Y016532D03*
X014980Y016532D03*
X014980Y019182D03*
X015480Y019182D03*
X015980Y019182D03*
X016480Y019182D03*
M02*
