G75*
%MOIN*%
%OFA0B0*%
%FSLAX24Y24*%
%IPPOS*%
%LPD*%
%AMOC8*
5,1,8,0,0,1.08239X$1,22.5*
%
%ADD10C,0.0000*%
%ADD11C,0.0020*%
D10*
X001331Y000150D02*
X017079Y000150D01*
X017118Y000152D01*
X017156Y000158D01*
X017193Y000167D01*
X017230Y000180D01*
X017265Y000197D01*
X017298Y000216D01*
X017329Y000239D01*
X017358Y000265D01*
X017384Y000294D01*
X017407Y000325D01*
X017426Y000358D01*
X017443Y000393D01*
X017456Y000430D01*
X017465Y000467D01*
X017471Y000505D01*
X017473Y000544D01*
X017473Y007630D01*
X017475Y007669D01*
X017481Y007707D01*
X017490Y007744D01*
X017503Y007781D01*
X017520Y007816D01*
X017539Y007849D01*
X017562Y007880D01*
X017588Y007909D01*
X017617Y007935D01*
X017648Y007958D01*
X017681Y007977D01*
X017716Y007994D01*
X017753Y008007D01*
X017790Y008016D01*
X017828Y008022D01*
X017867Y008024D01*
X017906Y008022D01*
X017944Y008016D01*
X017981Y008007D01*
X018018Y007994D01*
X018053Y007977D01*
X018086Y007958D01*
X018117Y007935D01*
X018146Y007909D01*
X018172Y007880D01*
X018195Y007849D01*
X018214Y007816D01*
X018231Y007781D01*
X018244Y007744D01*
X018253Y007707D01*
X018259Y007669D01*
X018261Y007630D01*
X018260Y007630D02*
X018260Y000544D01*
X018262Y000505D01*
X018268Y000467D01*
X018277Y000430D01*
X018290Y000393D01*
X018307Y000358D01*
X018326Y000325D01*
X018349Y000294D01*
X018375Y000265D01*
X018404Y000239D01*
X018435Y000216D01*
X018468Y000197D01*
X018503Y000180D01*
X018540Y000167D01*
X018577Y000158D01*
X018615Y000152D01*
X018654Y000150D01*
X024559Y000150D01*
X024625Y000152D01*
X024691Y000157D01*
X024757Y000167D01*
X024822Y000180D01*
X024886Y000196D01*
X024949Y000216D01*
X025011Y000240D01*
X025071Y000267D01*
X025130Y000297D01*
X025187Y000331D01*
X025242Y000368D01*
X025295Y000408D01*
X025346Y000450D01*
X025394Y000496D01*
X025440Y000544D01*
X025482Y000595D01*
X025522Y000648D01*
X025559Y000703D01*
X025593Y000760D01*
X025623Y000819D01*
X025650Y000879D01*
X025674Y000941D01*
X025694Y001004D01*
X025710Y001068D01*
X025723Y001133D01*
X025733Y001199D01*
X025738Y001265D01*
X025740Y001331D01*
X025741Y001331D02*
X025741Y021016D01*
X025740Y021016D02*
X025738Y021082D01*
X025733Y021148D01*
X025723Y021214D01*
X025710Y021279D01*
X025694Y021343D01*
X025674Y021406D01*
X025650Y021468D01*
X025623Y021528D01*
X025593Y021587D01*
X025559Y021644D01*
X025522Y021699D01*
X025482Y021752D01*
X025440Y021803D01*
X025394Y021851D01*
X025346Y021897D01*
X025295Y021939D01*
X025242Y021979D01*
X025187Y022016D01*
X025130Y022050D01*
X025071Y022080D01*
X025011Y022107D01*
X024949Y022131D01*
X024886Y022151D01*
X024822Y022167D01*
X024757Y022180D01*
X024691Y022190D01*
X024625Y022195D01*
X024559Y022197D01*
X001331Y022197D01*
X001265Y022195D01*
X001199Y022190D01*
X001133Y022180D01*
X001068Y022167D01*
X001004Y022151D01*
X000941Y022131D01*
X000879Y022107D01*
X000819Y022080D01*
X000760Y022050D01*
X000703Y022016D01*
X000648Y021979D01*
X000595Y021939D01*
X000544Y021897D01*
X000496Y021851D01*
X000450Y021803D01*
X000408Y021752D01*
X000368Y021699D01*
X000331Y021644D01*
X000297Y021587D01*
X000267Y021528D01*
X000240Y021468D01*
X000216Y021406D01*
X000196Y021343D01*
X000180Y021279D01*
X000167Y021214D01*
X000157Y021148D01*
X000152Y021082D01*
X000150Y021016D01*
X000150Y001331D01*
X000152Y001265D01*
X000157Y001199D01*
X000167Y001133D01*
X000180Y001068D01*
X000196Y001004D01*
X000216Y000941D01*
X000240Y000879D01*
X000267Y000819D01*
X000297Y000760D01*
X000331Y000703D01*
X000368Y000648D01*
X000408Y000595D01*
X000450Y000544D01*
X000496Y000496D01*
X000544Y000450D01*
X000595Y000408D01*
X000648Y000368D01*
X000703Y000331D01*
X000760Y000297D01*
X000819Y000267D01*
X000879Y000240D01*
X000941Y000216D01*
X001004Y000196D01*
X001068Y000180D01*
X001133Y000167D01*
X001199Y000157D01*
X001265Y000152D01*
X001331Y000150D01*
X000977Y001528D02*
X000979Y001575D01*
X000985Y001621D01*
X000995Y001667D01*
X001008Y001712D01*
X001026Y001755D01*
X001047Y001797D01*
X001071Y001837D01*
X001099Y001874D01*
X001130Y001909D01*
X001164Y001942D01*
X001200Y001971D01*
X001239Y001997D01*
X001280Y002020D01*
X001323Y002039D01*
X001367Y002055D01*
X001412Y002067D01*
X001458Y002075D01*
X001505Y002079D01*
X001551Y002079D01*
X001598Y002075D01*
X001644Y002067D01*
X001689Y002055D01*
X001733Y002039D01*
X001776Y002020D01*
X001817Y001997D01*
X001856Y001971D01*
X001892Y001942D01*
X001926Y001909D01*
X001957Y001874D01*
X001985Y001837D01*
X002009Y001797D01*
X002030Y001755D01*
X002048Y001712D01*
X002061Y001667D01*
X002071Y001621D01*
X002077Y001575D01*
X002079Y001528D01*
X002077Y001481D01*
X002071Y001435D01*
X002061Y001389D01*
X002048Y001344D01*
X002030Y001301D01*
X002009Y001259D01*
X001985Y001219D01*
X001957Y001182D01*
X001926Y001147D01*
X001892Y001114D01*
X001856Y001085D01*
X001817Y001059D01*
X001776Y001036D01*
X001733Y001017D01*
X001689Y001001D01*
X001644Y000989D01*
X001598Y000981D01*
X001551Y000977D01*
X001505Y000977D01*
X001458Y000981D01*
X001412Y000989D01*
X001367Y001001D01*
X001323Y001017D01*
X001280Y001036D01*
X001239Y001059D01*
X001200Y001085D01*
X001164Y001114D01*
X001130Y001147D01*
X001099Y001182D01*
X001071Y001219D01*
X001047Y001259D01*
X001026Y001301D01*
X001008Y001344D01*
X000995Y001389D01*
X000985Y001435D01*
X000979Y001481D01*
X000977Y001528D01*
X023812Y001528D02*
X023814Y001575D01*
X023820Y001621D01*
X023830Y001667D01*
X023843Y001712D01*
X023861Y001755D01*
X023882Y001797D01*
X023906Y001837D01*
X023934Y001874D01*
X023965Y001909D01*
X023999Y001942D01*
X024035Y001971D01*
X024074Y001997D01*
X024115Y002020D01*
X024158Y002039D01*
X024202Y002055D01*
X024247Y002067D01*
X024293Y002075D01*
X024340Y002079D01*
X024386Y002079D01*
X024433Y002075D01*
X024479Y002067D01*
X024524Y002055D01*
X024568Y002039D01*
X024611Y002020D01*
X024652Y001997D01*
X024691Y001971D01*
X024727Y001942D01*
X024761Y001909D01*
X024792Y001874D01*
X024820Y001837D01*
X024844Y001797D01*
X024865Y001755D01*
X024883Y001712D01*
X024896Y001667D01*
X024906Y001621D01*
X024912Y001575D01*
X024914Y001528D01*
X024912Y001481D01*
X024906Y001435D01*
X024896Y001389D01*
X024883Y001344D01*
X024865Y001301D01*
X024844Y001259D01*
X024820Y001219D01*
X024792Y001182D01*
X024761Y001147D01*
X024727Y001114D01*
X024691Y001085D01*
X024652Y001059D01*
X024611Y001036D01*
X024568Y001017D01*
X024524Y001001D01*
X024479Y000989D01*
X024433Y000981D01*
X024386Y000977D01*
X024340Y000977D01*
X024293Y000981D01*
X024247Y000989D01*
X024202Y001001D01*
X024158Y001017D01*
X024115Y001036D01*
X024074Y001059D01*
X024035Y001085D01*
X023999Y001114D01*
X023965Y001147D01*
X023934Y001182D01*
X023906Y001219D01*
X023882Y001259D01*
X023861Y001301D01*
X023843Y001344D01*
X023830Y001389D01*
X023820Y001435D01*
X023814Y001481D01*
X023812Y001528D01*
X023812Y020819D02*
X023814Y020866D01*
X023820Y020912D01*
X023830Y020958D01*
X023843Y021003D01*
X023861Y021046D01*
X023882Y021088D01*
X023906Y021128D01*
X023934Y021165D01*
X023965Y021200D01*
X023999Y021233D01*
X024035Y021262D01*
X024074Y021288D01*
X024115Y021311D01*
X024158Y021330D01*
X024202Y021346D01*
X024247Y021358D01*
X024293Y021366D01*
X024340Y021370D01*
X024386Y021370D01*
X024433Y021366D01*
X024479Y021358D01*
X024524Y021346D01*
X024568Y021330D01*
X024611Y021311D01*
X024652Y021288D01*
X024691Y021262D01*
X024727Y021233D01*
X024761Y021200D01*
X024792Y021165D01*
X024820Y021128D01*
X024844Y021088D01*
X024865Y021046D01*
X024883Y021003D01*
X024896Y020958D01*
X024906Y020912D01*
X024912Y020866D01*
X024914Y020819D01*
X024912Y020772D01*
X024906Y020726D01*
X024896Y020680D01*
X024883Y020635D01*
X024865Y020592D01*
X024844Y020550D01*
X024820Y020510D01*
X024792Y020473D01*
X024761Y020438D01*
X024727Y020405D01*
X024691Y020376D01*
X024652Y020350D01*
X024611Y020327D01*
X024568Y020308D01*
X024524Y020292D01*
X024479Y020280D01*
X024433Y020272D01*
X024386Y020268D01*
X024340Y020268D01*
X024293Y020272D01*
X024247Y020280D01*
X024202Y020292D01*
X024158Y020308D01*
X024115Y020327D01*
X024074Y020350D01*
X024035Y020376D01*
X023999Y020405D01*
X023965Y020438D01*
X023934Y020473D01*
X023906Y020510D01*
X023882Y020550D01*
X023861Y020592D01*
X023843Y020635D01*
X023830Y020680D01*
X023820Y020726D01*
X023814Y020772D01*
X023812Y020819D01*
X000977Y020819D02*
X000979Y020866D01*
X000985Y020912D01*
X000995Y020958D01*
X001008Y021003D01*
X001026Y021046D01*
X001047Y021088D01*
X001071Y021128D01*
X001099Y021165D01*
X001130Y021200D01*
X001164Y021233D01*
X001200Y021262D01*
X001239Y021288D01*
X001280Y021311D01*
X001323Y021330D01*
X001367Y021346D01*
X001412Y021358D01*
X001458Y021366D01*
X001505Y021370D01*
X001551Y021370D01*
X001598Y021366D01*
X001644Y021358D01*
X001689Y021346D01*
X001733Y021330D01*
X001776Y021311D01*
X001817Y021288D01*
X001856Y021262D01*
X001892Y021233D01*
X001926Y021200D01*
X001957Y021165D01*
X001985Y021128D01*
X002009Y021088D01*
X002030Y021046D01*
X002048Y021003D01*
X002061Y020958D01*
X002071Y020912D01*
X002077Y020866D01*
X002079Y020819D01*
X002077Y020772D01*
X002071Y020726D01*
X002061Y020680D01*
X002048Y020635D01*
X002030Y020592D01*
X002009Y020550D01*
X001985Y020510D01*
X001957Y020473D01*
X001926Y020438D01*
X001892Y020405D01*
X001856Y020376D01*
X001817Y020350D01*
X001776Y020327D01*
X001733Y020308D01*
X001689Y020292D01*
X001644Y020280D01*
X001598Y020272D01*
X001551Y020268D01*
X001505Y020268D01*
X001458Y020272D01*
X001412Y020280D01*
X001367Y020292D01*
X001323Y020308D01*
X001280Y020327D01*
X001239Y020350D01*
X001200Y020376D01*
X001164Y020405D01*
X001130Y020438D01*
X001099Y020473D01*
X001071Y020510D01*
X001047Y020550D01*
X001026Y020592D01*
X001008Y020635D01*
X000995Y020680D01*
X000985Y020726D01*
X000979Y020772D01*
X000977Y020819D01*
D11*
X002006Y018723D02*
X002098Y018723D01*
X002144Y018677D01*
X002232Y018723D02*
X002232Y018447D01*
X002324Y018539D01*
X002416Y018447D01*
X002416Y018723D01*
X002504Y018677D02*
X002550Y018723D01*
X002642Y018723D01*
X002688Y018677D01*
X002688Y018631D01*
X002642Y018585D01*
X002550Y018585D01*
X002504Y018539D01*
X002504Y018493D01*
X002550Y018447D01*
X002642Y018447D01*
X002688Y018493D01*
X002144Y018447D02*
X001960Y018631D01*
X001960Y018677D01*
X002006Y018723D01*
X001960Y018447D02*
X002144Y018447D01*
X001987Y017660D02*
X001987Y017384D01*
X001987Y017476D02*
X001803Y017660D01*
X001941Y017522D02*
X001803Y017384D01*
X002347Y017430D02*
X002347Y017614D01*
X002393Y017660D01*
X002530Y017660D01*
X002530Y017384D01*
X002393Y017384D01*
X002347Y017430D01*
X002619Y017384D02*
X002802Y017384D01*
X002802Y017660D01*
X002619Y017660D01*
X002711Y017522D02*
X002802Y017522D01*
X002891Y017384D02*
X003074Y017384D01*
X003074Y017660D01*
X003153Y016754D02*
X003153Y016479D01*
X002969Y016479D01*
X002881Y016479D02*
X002881Y016754D01*
X002697Y016754D01*
X002609Y016754D02*
X002471Y016754D01*
X002426Y016708D01*
X002426Y016525D01*
X002471Y016479D01*
X002609Y016479D01*
X002609Y016754D01*
X002789Y016617D02*
X002881Y016617D01*
X002881Y016479D02*
X002697Y016479D01*
X002065Y016479D02*
X002065Y016663D01*
X001974Y016754D01*
X001882Y016663D01*
X001882Y016479D01*
X001882Y016617D02*
X002065Y016617D01*
X002154Y015691D02*
X002154Y015416D01*
X002245Y015508D01*
X002337Y015416D01*
X002337Y015691D01*
X002426Y015645D02*
X002471Y015691D01*
X002563Y015691D01*
X002609Y015645D01*
X002609Y015600D01*
X002563Y015554D01*
X002471Y015554D01*
X002426Y015508D01*
X002426Y015462D01*
X002471Y015416D01*
X002563Y015416D01*
X002609Y015462D01*
X002065Y015416D02*
X001882Y015416D01*
X001974Y015416D02*
X001974Y015691D01*
X002065Y015600D01*
X003216Y014791D02*
X003346Y014921D01*
X003411Y014921D01*
X003508Y014824D01*
X003314Y014629D01*
X003216Y014726D01*
X003216Y014791D01*
X003376Y014566D02*
X003571Y014761D01*
X003701Y014631D02*
X003376Y014566D01*
X003506Y014437D02*
X003701Y014631D01*
X003731Y014537D02*
X003795Y014537D01*
X003860Y014472D01*
X003860Y014407D01*
X003731Y014277D01*
X003666Y014277D01*
X003601Y014342D01*
X003601Y014407D01*
X003666Y014472D01*
X003731Y014407D01*
X004200Y014726D02*
X004200Y014791D01*
X004330Y014921D01*
X004395Y014921D01*
X004493Y014824D01*
X004298Y014629D01*
X004200Y014726D01*
X004393Y014599D02*
X004523Y014729D01*
X004587Y014729D01*
X004685Y014631D01*
X004490Y014437D01*
X004393Y014534D01*
X004393Y014599D01*
X004617Y014439D02*
X004747Y014569D01*
X004617Y014439D02*
X004617Y014309D01*
X004747Y014309D01*
X004877Y014439D01*
X005321Y014629D02*
X005516Y014824D01*
X005192Y014759D01*
X005386Y014953D01*
X005324Y015016D02*
X005194Y015146D01*
X005132Y015208D02*
X005034Y015306D01*
X004969Y015306D01*
X004904Y015241D01*
X004904Y015176D01*
X005002Y015078D01*
X004937Y015013D02*
X005132Y015208D01*
X005259Y015081D02*
X005064Y014886D01*
X004937Y015143D02*
X004807Y015143D01*
X004745Y015206D02*
X004875Y015335D01*
X004875Y015465D01*
X004745Y015465D01*
X004615Y015335D01*
X004585Y015430D02*
X004520Y015430D01*
X004455Y015495D01*
X004455Y015560D01*
X004488Y015593D01*
X004552Y015593D01*
X004617Y015528D01*
X004682Y015528D01*
X004715Y015560D01*
X004715Y015625D01*
X004650Y015690D01*
X004585Y015690D01*
X004555Y015785D02*
X004425Y015915D01*
X004490Y015850D02*
X004295Y015655D01*
X004712Y015433D02*
X004842Y015303D01*
X005416Y014599D02*
X005546Y014729D01*
X005611Y014729D01*
X005676Y014664D01*
X005676Y014599D01*
X005546Y014469D01*
X005481Y014469D01*
X005416Y014534D01*
X005416Y014599D01*
X005609Y014407D02*
X005609Y014342D01*
X005673Y014277D01*
X005738Y014277D01*
X005868Y014407D01*
X005868Y014472D01*
X005803Y014537D01*
X005738Y014537D01*
X006401Y014534D02*
X006465Y014469D01*
X006530Y014469D01*
X006560Y014374D02*
X006690Y014374D01*
X006658Y014407D02*
X006755Y014309D01*
X006690Y014244D02*
X006885Y014439D01*
X006788Y014537D01*
X006723Y014537D01*
X006658Y014472D01*
X006658Y014407D01*
X006628Y014566D02*
X006563Y014566D01*
X006498Y014631D01*
X006433Y014631D01*
X006401Y014599D01*
X006401Y014534D01*
X006628Y014566D02*
X006660Y014599D01*
X006660Y014664D01*
X006595Y014729D01*
X006530Y014729D01*
X007352Y014566D02*
X007547Y014761D01*
X007520Y014845D02*
X007904Y014460D01*
X007869Y014439D02*
X007772Y014537D01*
X007707Y014537D01*
X007642Y014472D01*
X007642Y014407D01*
X007739Y014309D01*
X007674Y014244D02*
X007869Y014439D01*
X007674Y014374D02*
X007545Y014374D01*
X007482Y014437D02*
X007482Y014566D01*
X007352Y014566D01*
X007482Y014437D02*
X007677Y014631D01*
X008529Y014374D02*
X008659Y014244D01*
X008854Y014439D01*
X008724Y014569D01*
X008696Y014652D02*
X008889Y014460D01*
X008756Y014342D02*
X008691Y014407D01*
X009200Y014726D02*
X009265Y014661D01*
X009330Y014661D01*
X009330Y014921D01*
X009200Y014791D01*
X009200Y014726D01*
X009330Y014661D02*
X009460Y014791D01*
X009460Y014856D01*
X009395Y014921D01*
X009330Y014921D01*
X009523Y014729D02*
X009490Y014696D01*
X009490Y014631D01*
X009587Y014534D01*
X009585Y014407D02*
X009715Y014537D01*
X009780Y014537D01*
X009877Y014439D01*
X009682Y014244D01*
X009585Y014342D01*
X009585Y014407D01*
X009490Y014437D02*
X009393Y014534D01*
X009393Y014599D01*
X009425Y014631D01*
X009490Y014631D01*
X009523Y014729D02*
X009587Y014729D01*
X009685Y014631D01*
X009490Y014437D01*
X010152Y014759D02*
X010282Y014629D01*
X010217Y014694D02*
X010412Y014889D01*
X010412Y014759D01*
X010474Y014696D02*
X010474Y014631D01*
X010572Y014534D01*
X010569Y014407D02*
X010699Y014537D01*
X010764Y014537D01*
X010861Y014439D01*
X010667Y014244D01*
X010569Y014342D01*
X010569Y014407D01*
X010474Y014437D02*
X010377Y014534D01*
X010377Y014599D01*
X010409Y014631D01*
X010474Y014631D01*
X010474Y014696D02*
X010507Y014729D01*
X010572Y014729D01*
X010669Y014631D01*
X010474Y014437D01*
X011136Y014759D02*
X011266Y014629D01*
X011266Y014889D01*
X011299Y014921D01*
X011364Y014921D01*
X011429Y014856D01*
X011429Y014791D01*
X011491Y014729D02*
X011459Y014696D01*
X011459Y014631D01*
X011556Y014534D01*
X011553Y014407D02*
X011683Y014537D01*
X011748Y014537D01*
X011846Y014439D01*
X011651Y014244D01*
X011553Y014342D01*
X011553Y014407D01*
X011459Y014437D02*
X011361Y014534D01*
X011361Y014599D01*
X011394Y014631D01*
X011459Y014631D01*
X011491Y014729D02*
X011556Y014729D01*
X011653Y014631D01*
X011459Y014437D01*
X012193Y014726D02*
X012193Y014791D01*
X012225Y014824D01*
X012290Y014824D01*
X012322Y014791D01*
X012290Y014824D02*
X012290Y014889D01*
X012322Y014921D01*
X012387Y014921D01*
X012452Y014856D01*
X012452Y014791D01*
X012515Y014729D02*
X012482Y014696D01*
X012482Y014631D01*
X012580Y014534D01*
X012707Y014537D02*
X012772Y014537D01*
X012869Y014439D01*
X012674Y014244D01*
X012577Y014342D01*
X012577Y014407D01*
X012707Y014537D01*
X012677Y014631D02*
X012580Y014729D01*
X012515Y014729D01*
X012482Y014631D02*
X012417Y014631D01*
X012385Y014599D01*
X012385Y014534D01*
X012482Y014437D01*
X012677Y014631D01*
X012322Y014661D02*
X012257Y014661D01*
X012193Y014726D01*
X013216Y014726D02*
X013411Y014921D01*
X013411Y014726D01*
X013281Y014856D01*
X013441Y014631D02*
X013408Y014599D01*
X013408Y014534D01*
X013506Y014437D01*
X013701Y014631D01*
X013603Y014729D01*
X013538Y014729D01*
X013506Y014696D01*
X013506Y014631D01*
X013603Y014534D01*
X013601Y014407D02*
X013731Y014537D01*
X013795Y014537D01*
X013893Y014439D01*
X013698Y014244D01*
X013601Y014342D01*
X013601Y014407D01*
X013506Y014631D02*
X013441Y014631D01*
X014200Y014726D02*
X014265Y014661D01*
X014330Y014661D01*
X014393Y014599D02*
X014393Y014534D01*
X014490Y014437D01*
X014685Y014631D01*
X014587Y014729D01*
X014523Y014729D01*
X014490Y014696D01*
X014490Y014631D01*
X014587Y014534D01*
X014585Y014407D02*
X014715Y014537D01*
X014780Y014537D01*
X014877Y014439D01*
X014682Y014244D01*
X014585Y014342D01*
X014585Y014407D01*
X014490Y014631D02*
X014425Y014631D01*
X014393Y014599D01*
X014395Y014726D02*
X014363Y014824D01*
X014330Y014856D01*
X014265Y014856D01*
X014200Y014791D01*
X014200Y014726D01*
X014395Y014726D02*
X014493Y014824D01*
X014363Y014953D01*
X015185Y014791D02*
X015185Y014726D01*
X015250Y014661D01*
X015315Y014661D01*
X015379Y014726D01*
X015282Y014824D01*
X015217Y014824D01*
X015185Y014791D01*
X015379Y014856D02*
X015379Y014726D01*
X015409Y014631D02*
X015377Y014599D01*
X015377Y014534D01*
X015474Y014437D01*
X015669Y014631D01*
X015572Y014729D01*
X015507Y014729D01*
X015474Y014696D01*
X015474Y014631D01*
X015572Y014534D01*
X015699Y014537D02*
X015764Y014537D01*
X015861Y014439D01*
X015667Y014244D01*
X015569Y014342D01*
X015569Y014407D01*
X015699Y014537D01*
X015474Y014631D02*
X015409Y014631D01*
X015379Y014856D02*
X015347Y014953D01*
X016338Y014921D02*
X016338Y014661D01*
X016306Y014629D01*
X016401Y014599D02*
X016401Y014534D01*
X016498Y014437D01*
X016693Y014631D01*
X016595Y014729D01*
X016530Y014729D01*
X016498Y014696D01*
X016498Y014631D01*
X016595Y014534D01*
X016593Y014407D02*
X016723Y014537D01*
X016788Y014537D01*
X016885Y014439D01*
X016690Y014244D01*
X016593Y014342D01*
X016593Y014407D01*
X016498Y014631D02*
X016433Y014631D01*
X016401Y014599D01*
X016501Y014824D02*
X016371Y014953D01*
X016338Y014921D01*
X016681Y015238D02*
X016876Y015433D01*
X016908Y015400D02*
X016843Y015465D01*
X016747Y015496D02*
X016618Y015366D01*
X016553Y015366D01*
X016488Y015431D01*
X016488Y015496D01*
X016553Y015561D01*
X016618Y015496D01*
X016747Y015496D02*
X016747Y015561D01*
X016682Y015626D01*
X016618Y015626D01*
X016588Y015721D02*
X016393Y015526D01*
X016490Y015623D02*
X016360Y015753D01*
X016263Y015656D02*
X016458Y015851D01*
X016395Y015913D02*
X016265Y016043D01*
X016330Y015978D02*
X016136Y015783D01*
X015816Y016103D02*
X015946Y016233D01*
X015946Y016362D01*
X015816Y016362D01*
X015686Y016233D01*
X015624Y016295D02*
X015819Y016490D01*
X015494Y016425D01*
X015689Y016620D01*
X015594Y016650D02*
X015464Y016520D01*
X015399Y016520D01*
X015334Y016585D01*
X015334Y016650D01*
X015464Y016779D01*
X015529Y016779D01*
X015594Y016715D01*
X015594Y016650D01*
X015434Y016874D02*
X015337Y016972D01*
X015272Y016972D01*
X015142Y016842D01*
X015142Y016777D01*
X015239Y016679D01*
X015434Y016874D01*
X015242Y017067D02*
X015112Y017196D01*
X015079Y017034D02*
X015144Y016969D01*
X015047Y016872D02*
X014917Y017002D01*
X015047Y016872D02*
X015242Y017067D01*
X015556Y017386D02*
X015686Y017256D01*
X015881Y017451D01*
X015751Y017581D01*
X015719Y017419D02*
X015784Y017354D01*
X015911Y017356D02*
X015976Y017356D01*
X016073Y017259D01*
X015878Y017064D01*
X015781Y017161D01*
X015781Y017226D01*
X015911Y017356D01*
X016103Y017164D02*
X015973Y017034D01*
X015973Y016969D01*
X016038Y016904D01*
X016103Y016904D01*
X016233Y017034D01*
X016233Y017099D01*
X016168Y017164D01*
X016103Y017164D01*
X016328Y017004D02*
X016133Y016809D01*
X016230Y016907D02*
X016360Y016777D01*
X016263Y016679D02*
X016458Y016874D01*
X016520Y016812D02*
X016650Y016682D01*
X016585Y016747D02*
X016390Y016552D01*
X016518Y016425D02*
X016647Y016555D01*
X016777Y016555D01*
X016777Y016425D01*
X016647Y016295D01*
X016742Y016265D02*
X016742Y016200D01*
X016807Y016135D01*
X016872Y016135D01*
X017002Y016265D01*
X017002Y016330D01*
X016937Y016395D01*
X016872Y016395D01*
X016745Y016392D02*
X016615Y016522D01*
X017022Y016944D02*
X016957Y017009D01*
X016957Y017073D01*
X017087Y017203D01*
X017152Y017203D01*
X017217Y017138D01*
X017217Y017073D01*
X017087Y016944D01*
X017022Y016944D01*
X017117Y016849D02*
X017312Y017044D01*
X017215Y016946D02*
X017345Y016816D01*
X017247Y016719D02*
X017442Y016914D01*
X017504Y016851D02*
X017634Y016721D01*
X017569Y016786D02*
X017374Y016592D01*
X017502Y016464D02*
X017632Y016594D01*
X017762Y016594D01*
X017762Y016464D01*
X017632Y016334D01*
X017726Y016304D02*
X017726Y016240D01*
X017791Y016175D01*
X017856Y016175D01*
X017986Y016304D01*
X017986Y016369D01*
X017921Y016434D01*
X017856Y016434D01*
X017729Y016432D02*
X017599Y016562D01*
X017942Y016969D02*
X017942Y017034D01*
X018072Y017164D01*
X018137Y017164D01*
X018201Y017099D01*
X018201Y017034D01*
X018072Y016904D01*
X018007Y016904D01*
X017942Y016969D01*
X017847Y017064D02*
X017749Y017161D01*
X017749Y017226D01*
X017879Y017356D01*
X017944Y017356D01*
X018042Y017259D01*
X017847Y017064D01*
X017655Y017256D02*
X017525Y017386D01*
X017687Y017419D02*
X017752Y017354D01*
X017849Y017451D02*
X017655Y017256D01*
X017849Y017451D02*
X017720Y017581D01*
X017400Y017771D02*
X017400Y017900D01*
X017337Y017964D02*
X017142Y017769D01*
X017045Y017866D01*
X017045Y017931D01*
X017077Y017964D01*
X017142Y017964D01*
X017239Y017866D01*
X017142Y017964D02*
X017142Y018029D01*
X017174Y018061D01*
X017239Y018061D01*
X017337Y017964D01*
X017400Y017771D02*
X017335Y017706D01*
X017205Y017706D01*
X016950Y017961D02*
X016820Y018091D01*
X016790Y018186D02*
X016725Y018186D01*
X016660Y018251D01*
X016660Y018316D01*
X016822Y018478D01*
X016760Y018540D02*
X016565Y018346D01*
X016435Y018476D01*
X016373Y018538D02*
X016373Y018668D01*
X016438Y018733D01*
X016568Y018733D01*
X016630Y018670D02*
X016760Y018540D01*
X016663Y018443D02*
X016598Y018508D01*
X016790Y018186D02*
X016952Y018348D01*
X017145Y018156D02*
X016950Y017961D01*
X016416Y017940D02*
X016416Y017810D01*
X016351Y017745D01*
X016221Y017745D01*
X016190Y017841D02*
X016125Y017841D01*
X016060Y017906D01*
X016060Y017971D01*
X016125Y018036D01*
X016190Y017971D01*
X016190Y018101D02*
X016255Y018101D01*
X016320Y018036D01*
X016320Y017971D01*
X016190Y017841D01*
X016030Y018065D02*
X015933Y018163D01*
X015933Y018228D01*
X015998Y018293D01*
X016063Y018293D01*
X016160Y018195D01*
X015965Y018001D01*
X015965Y018130D02*
X015836Y018130D01*
X015773Y018193D02*
X015643Y018323D01*
X015581Y018385D02*
X015451Y018515D01*
X015389Y018577D02*
X015584Y018772D01*
X015259Y018707D01*
X015454Y018902D01*
X015391Y018964D02*
X015261Y018964D01*
X015196Y018899D01*
X015196Y018770D01*
X014886Y018446D02*
X014984Y018348D01*
X014789Y018153D01*
X014692Y018251D01*
X014692Y018316D01*
X014821Y018446D01*
X014886Y018446D01*
X014792Y018540D02*
X014662Y018540D01*
X014597Y018476D01*
X014597Y018346D01*
X015046Y018286D02*
X015176Y018156D01*
X014981Y017961D01*
X014851Y018091D01*
X015014Y018124D02*
X015079Y018059D01*
X015141Y017996D02*
X015141Y017931D01*
X015238Y017834D01*
X015173Y017899D02*
X015044Y017899D01*
X015141Y017996D02*
X015206Y018061D01*
X015271Y018061D01*
X015368Y017964D01*
X015173Y017769D01*
X015237Y017706D02*
X015367Y017706D01*
X015432Y017771D01*
X015432Y017900D01*
X015773Y018193D02*
X015968Y018388D01*
X015838Y018517D01*
X015776Y018580D02*
X015646Y018710D01*
X015613Y018547D02*
X015678Y018482D01*
X015581Y018385D02*
X015776Y018580D01*
X015806Y018355D02*
X015871Y018290D01*
X016735Y017620D02*
X016865Y017490D01*
X016670Y017296D01*
X016541Y017425D01*
X016703Y017458D02*
X016768Y017393D01*
X016895Y017396D02*
X016960Y017396D01*
X017057Y017298D01*
X016863Y017103D01*
X016765Y017201D01*
X016765Y017266D01*
X016895Y017396D01*
X018102Y016809D02*
X018296Y017004D01*
X018199Y016907D02*
X018329Y016777D01*
X018426Y016874D02*
X018231Y016679D01*
X018359Y016552D02*
X018554Y016747D01*
X018618Y016682D02*
X018489Y016812D01*
X018616Y016555D02*
X018486Y016425D01*
X018583Y016522D02*
X018713Y016392D01*
X018746Y016425D02*
X018746Y016555D01*
X018616Y016555D01*
X018746Y016425D02*
X018616Y016295D01*
X018711Y016265D02*
X018711Y016200D01*
X018776Y016135D01*
X018841Y016135D01*
X018971Y016265D01*
X018971Y016330D01*
X018906Y016395D01*
X018841Y016395D01*
X019258Y016043D02*
X019387Y015913D01*
X019450Y015851D02*
X019255Y015656D01*
X019352Y015753D02*
X019482Y015623D01*
X019545Y015561D02*
X019610Y015496D01*
X019545Y015561D02*
X019480Y015496D01*
X019480Y015431D01*
X019545Y015366D01*
X019610Y015366D01*
X019740Y015496D01*
X019740Y015561D01*
X019675Y015626D01*
X019610Y015626D01*
X019580Y015721D02*
X019385Y015526D01*
X019640Y015270D02*
X019705Y015206D01*
X019673Y015238D02*
X019868Y015433D01*
X019900Y015400D02*
X019835Y015465D01*
X020092Y015208D02*
X019898Y015013D01*
X019768Y015143D01*
X019960Y014951D02*
X020155Y014951D01*
X020155Y014886D02*
X020155Y015146D01*
X020285Y015016D02*
X020090Y014821D01*
X020185Y014791D02*
X020185Y014726D01*
X020250Y014661D01*
X020315Y014661D01*
X020444Y014791D01*
X020444Y014856D01*
X020379Y014921D01*
X020315Y014921D01*
X020474Y014696D02*
X020344Y014566D01*
X020442Y014664D02*
X020572Y014534D01*
X020604Y014566D02*
X020474Y014437D01*
X020569Y014407D02*
X020569Y014342D01*
X020667Y014244D01*
X020861Y014439D01*
X020764Y014537D01*
X020699Y014537D01*
X020667Y014504D01*
X020667Y014439D01*
X020764Y014342D01*
X020667Y014439D02*
X020602Y014439D01*
X020569Y014407D01*
X020604Y014566D02*
X020604Y014696D01*
X020474Y014696D01*
X019877Y014478D02*
X019682Y014284D01*
X019585Y014381D01*
X019585Y014446D01*
X019617Y014478D01*
X019682Y014478D01*
X019780Y014381D01*
X019877Y014478D02*
X019780Y014576D01*
X019715Y014576D01*
X019682Y014543D01*
X019682Y014478D01*
X019587Y014573D02*
X019458Y014703D01*
X019490Y014736D02*
X019360Y014606D01*
X019330Y014701D02*
X019265Y014701D01*
X019200Y014766D01*
X019200Y014831D01*
X019171Y014925D02*
X019171Y015185D01*
X019108Y015247D02*
X018913Y015053D01*
X018783Y015183D01*
X018721Y015245D02*
X018656Y015310D01*
X018689Y015277D02*
X018883Y015472D01*
X018916Y015440D02*
X018851Y015505D01*
X018755Y015535D02*
X018625Y015406D01*
X018560Y015406D01*
X018496Y015471D01*
X018496Y015535D01*
X018560Y015600D01*
X018625Y015535D01*
X018755Y015535D02*
X018755Y015600D01*
X018690Y015665D01*
X018625Y015665D01*
X018595Y015760D02*
X018401Y015565D01*
X018498Y015663D02*
X018368Y015793D01*
X018466Y015890D02*
X018271Y015695D01*
X018143Y015823D02*
X018338Y016017D01*
X018403Y015952D02*
X018273Y016082D01*
X017771Y015561D02*
X017771Y015496D01*
X017641Y015366D01*
X017576Y015366D01*
X017511Y015431D01*
X017511Y015496D01*
X017576Y015561D01*
X017641Y015496D01*
X017641Y015626D02*
X017706Y015626D01*
X017771Y015561D01*
X017867Y015465D02*
X017932Y015400D01*
X017899Y015433D02*
X017704Y015238D01*
X017737Y015206D02*
X017672Y015270D01*
X017799Y015143D02*
X017929Y015013D01*
X018124Y015208D01*
X018186Y015146D02*
X018186Y014886D01*
X018186Y014951D02*
X017991Y014951D01*
X018121Y014821D02*
X018316Y015016D01*
X018346Y014921D02*
X018411Y014921D01*
X018476Y014856D01*
X018476Y014791D01*
X018346Y014661D01*
X018281Y014661D01*
X018216Y014726D01*
X018216Y014791D01*
X018376Y014566D02*
X018506Y014696D01*
X018636Y014696D01*
X018636Y014566D01*
X018506Y014437D01*
X018601Y014407D02*
X018601Y014342D01*
X018698Y014244D01*
X018893Y014439D01*
X018795Y014537D01*
X018731Y014537D01*
X018698Y014504D01*
X018698Y014439D01*
X018795Y014342D01*
X018698Y014439D02*
X018633Y014439D01*
X018601Y014407D01*
X018603Y014534D02*
X018473Y014664D01*
X018976Y014990D02*
X019171Y014990D01*
X019300Y015055D02*
X019106Y014860D01*
X019330Y014960D02*
X019395Y014960D01*
X019460Y014895D01*
X019460Y014831D01*
X019330Y014701D01*
X019490Y014736D02*
X019620Y014736D01*
X019620Y014606D01*
X019490Y014476D01*
X017869Y014439D02*
X017772Y014537D01*
X017707Y014537D01*
X017674Y014504D01*
X017674Y014439D01*
X017772Y014342D01*
X017869Y014439D02*
X017674Y014244D01*
X017577Y014342D01*
X017577Y014407D01*
X017610Y014439D01*
X017674Y014439D01*
X017580Y014534D02*
X017450Y014664D01*
X017482Y014696D02*
X017352Y014566D01*
X017322Y014661D02*
X017257Y014661D01*
X017193Y014726D01*
X017193Y014791D01*
X017163Y014886D02*
X017163Y015146D01*
X017100Y015208D02*
X016905Y015013D01*
X016776Y015143D01*
X016713Y015206D02*
X016648Y015270D01*
X016968Y014951D02*
X017163Y014951D01*
X017293Y015016D02*
X017098Y014821D01*
X017322Y014921D02*
X017387Y014921D01*
X017452Y014856D01*
X017452Y014791D01*
X017322Y014661D01*
X017482Y014696D02*
X017612Y014696D01*
X017612Y014566D01*
X017482Y014437D01*
X017416Y015526D02*
X017611Y015721D01*
X017514Y015623D02*
X017384Y015753D01*
X017481Y015851D02*
X017287Y015656D01*
X017159Y015783D02*
X017354Y015978D01*
X017419Y015913D02*
X017289Y016043D01*
X015913Y016200D02*
X015784Y016330D01*
X019128Y015783D02*
X019323Y015978D01*
X022806Y016459D02*
X022806Y016643D01*
X022898Y016735D01*
X022989Y016643D01*
X022989Y016459D01*
X022989Y016597D02*
X022806Y016597D01*
X023350Y016689D02*
X023395Y016735D01*
X023487Y016735D01*
X023533Y016689D01*
X023533Y016505D01*
X023487Y016459D01*
X023395Y016459D01*
X023350Y016505D01*
X023621Y016459D02*
X023621Y016735D01*
X023805Y016735D02*
X023621Y016459D01*
X023805Y016459D02*
X023805Y016735D01*
X023893Y016735D02*
X024077Y016735D01*
X024077Y016459D01*
X023893Y016459D01*
X023985Y016597D02*
X024077Y016597D01*
X023952Y015750D02*
X023998Y015705D01*
X023998Y015521D01*
X023952Y015475D01*
X023861Y015475D01*
X023815Y015521D01*
X023726Y015521D02*
X023726Y015705D01*
X023680Y015750D01*
X023589Y015750D01*
X023543Y015705D01*
X023543Y015521D01*
X023589Y015475D01*
X023680Y015475D01*
X023726Y015521D01*
X023815Y015705D02*
X023861Y015750D01*
X023952Y015750D01*
X023454Y015750D02*
X023454Y015475D01*
X023271Y015475D02*
X023271Y015750D01*
X023363Y015659D01*
X023454Y015750D01*
X023487Y017483D02*
X023395Y017483D01*
X023350Y017529D01*
X023487Y017483D02*
X023533Y017529D01*
X023533Y017712D01*
X023487Y017758D01*
X023395Y017758D01*
X023350Y017712D01*
X023621Y017758D02*
X023621Y017483D01*
X023805Y017758D01*
X023805Y017483D01*
X023893Y017483D02*
X024077Y017483D01*
X024077Y017758D01*
X023893Y017758D01*
X023985Y017621D02*
X024077Y017621D01*
X022989Y017621D02*
X022852Y017621D01*
X022806Y017575D01*
X022806Y017529D01*
X022852Y017483D01*
X022989Y017483D01*
X022989Y017758D01*
X022852Y017758D01*
X022806Y017712D01*
X022806Y017667D01*
X022852Y017621D01*
X022812Y018506D02*
X022904Y018506D01*
X022950Y018552D01*
X022904Y018644D02*
X022812Y018644D01*
X022766Y018598D01*
X022766Y018552D01*
X022812Y018506D01*
X022678Y018506D02*
X022586Y018598D01*
X022495Y018506D01*
X022495Y018782D01*
X022678Y018782D02*
X022678Y018506D01*
X022766Y018736D02*
X022812Y018782D01*
X022904Y018782D01*
X022950Y018736D01*
X022950Y018690D01*
X022904Y018644D01*
X023310Y018552D02*
X023356Y018506D01*
X023448Y018506D01*
X023494Y018552D01*
X023494Y018736D01*
X023448Y018782D01*
X023356Y018782D01*
X023310Y018736D01*
X023582Y018782D02*
X023582Y018506D01*
X023766Y018782D01*
X023766Y018506D01*
X023854Y018506D02*
X024038Y018506D01*
X024038Y018782D01*
X023854Y018782D01*
X023946Y018644D02*
X024038Y018644D01*
X023913Y011341D02*
X023959Y011295D01*
X023959Y011111D01*
X023913Y011066D01*
X023821Y011066D01*
X023775Y011111D01*
X023775Y011203D01*
X023867Y011203D01*
X023775Y011295D02*
X023821Y011341D01*
X023913Y011341D01*
X023687Y011341D02*
X023503Y011066D01*
X023503Y011341D01*
X023415Y011341D02*
X023415Y011066D01*
X023277Y011066D01*
X023231Y011111D01*
X023231Y011295D01*
X023277Y011341D01*
X023415Y011341D01*
X023687Y011341D02*
X023687Y011066D01*
X023635Y010317D02*
X023635Y010042D01*
X023726Y010042D02*
X023543Y010042D01*
X023454Y010042D02*
X023271Y010226D01*
X023271Y010271D01*
X023317Y010317D01*
X023409Y010317D01*
X023454Y010271D01*
X023635Y010317D02*
X023726Y010226D01*
X023815Y010180D02*
X023998Y010180D01*
X023906Y010271D02*
X023906Y010088D01*
X023454Y010042D02*
X023271Y010042D01*
X023183Y010134D02*
X023091Y010042D01*
X022999Y010134D01*
X022999Y010317D01*
X022911Y010317D02*
X022773Y010317D01*
X022727Y010271D01*
X022727Y010088D01*
X022773Y010042D01*
X022911Y010042D01*
X022911Y010317D01*
X023183Y010317D02*
X023183Y010134D01*
X022639Y010088D02*
X022593Y010042D01*
X022501Y010042D01*
X022455Y010088D01*
X022455Y010271D02*
X022501Y010317D01*
X022593Y010317D01*
X022639Y010271D01*
X022639Y010088D01*
X022095Y010042D02*
X022003Y010042D01*
X022049Y010042D02*
X022049Y010317D01*
X022095Y010317D02*
X022003Y010317D01*
X021914Y010317D02*
X021730Y010042D01*
X021730Y010317D01*
X021914Y010317D02*
X021914Y010042D01*
M02*
