G75*
%MOIN*%
%OFA0B0*%
%FSLAX24Y24*%
%IPPOS*%
%LPD*%
%AMOC8*
5,1,8,0,0,1.08239X$1,22.5*
%
%ADD10C,0.0000*%
%ADD11R,0.0600X0.0600*%
%ADD12OC8,0.0600*%
%ADD13R,0.0512X0.0630*%
%ADD14R,0.0630X0.0512*%
%ADD15C,0.0600*%
%ADD16R,0.0591X0.0630*%
%ADD17R,0.0472X0.0472*%
%ADD18R,0.0315X0.0472*%
%ADD19R,0.1811X0.0394*%
%ADD20R,0.1339X0.0630*%
%ADD21R,0.0315X0.0354*%
%ADD22R,0.0354X0.0236*%
%ADD23R,0.0472X0.0315*%
%ADD24R,0.0700X0.0700*%
%ADD25C,0.0700*%
%ADD26R,0.0787X0.0236*%
%ADD27R,0.1654X0.0276*%
%ADD28R,0.0748X0.0118*%
%ADD29C,0.0768*%
%ADD30R,0.0551X0.1181*%
%ADD31R,0.0400X0.1201*%
%ADD32R,0.4197X0.3299*%
%ADD33R,0.0591X0.0866*%
%ADD34R,0.0709X0.0945*%
%ADD35R,0.0240X0.0870*%
%ADD36C,0.0356*%
%ADD37C,0.0240*%
%ADD38C,0.0100*%
%ADD39C,0.0197*%
%ADD40C,0.0118*%
%ADD41C,0.0160*%
%ADD42C,0.0394*%
%ADD43C,0.0060*%
D10*
X001439Y000736D02*
X017187Y000736D01*
X017226Y000738D01*
X017264Y000744D01*
X017301Y000753D01*
X017338Y000766D01*
X017373Y000783D01*
X017406Y000802D01*
X017437Y000825D01*
X017466Y000851D01*
X017492Y000880D01*
X017515Y000911D01*
X017534Y000944D01*
X017551Y000979D01*
X017564Y001016D01*
X017573Y001053D01*
X017579Y001091D01*
X017581Y001130D01*
X017580Y001130D02*
X017580Y008217D01*
X017582Y008256D01*
X017588Y008294D01*
X017597Y008331D01*
X017610Y008368D01*
X017627Y008403D01*
X017646Y008436D01*
X017669Y008467D01*
X017695Y008496D01*
X017724Y008522D01*
X017755Y008545D01*
X017788Y008564D01*
X017823Y008581D01*
X017860Y008594D01*
X017897Y008603D01*
X017935Y008609D01*
X017974Y008611D01*
X018013Y008609D01*
X018051Y008603D01*
X018088Y008594D01*
X018125Y008581D01*
X018160Y008564D01*
X018193Y008545D01*
X018224Y008522D01*
X018253Y008496D01*
X018279Y008467D01*
X018302Y008436D01*
X018321Y008403D01*
X018338Y008368D01*
X018351Y008331D01*
X018360Y008294D01*
X018366Y008256D01*
X018368Y008217D01*
X018368Y001130D01*
X018367Y001130D02*
X018369Y001091D01*
X018375Y001053D01*
X018384Y001016D01*
X018397Y000979D01*
X018414Y000944D01*
X018433Y000911D01*
X018456Y000880D01*
X018482Y000851D01*
X018511Y000825D01*
X018542Y000802D01*
X018575Y000783D01*
X018610Y000766D01*
X018647Y000753D01*
X018684Y000744D01*
X018722Y000738D01*
X018761Y000736D01*
X024667Y000736D01*
X024733Y000738D01*
X024799Y000743D01*
X024865Y000753D01*
X024930Y000766D01*
X024994Y000782D01*
X025057Y000802D01*
X025119Y000826D01*
X025179Y000853D01*
X025238Y000883D01*
X025295Y000917D01*
X025350Y000954D01*
X025403Y000994D01*
X025454Y001036D01*
X025502Y001082D01*
X025548Y001130D01*
X025590Y001181D01*
X025630Y001234D01*
X025667Y001289D01*
X025701Y001346D01*
X025731Y001405D01*
X025758Y001465D01*
X025782Y001527D01*
X025802Y001590D01*
X025818Y001654D01*
X025831Y001719D01*
X025841Y001785D01*
X025846Y001851D01*
X025848Y001917D01*
X025848Y021602D01*
X025846Y021668D01*
X025841Y021734D01*
X025831Y021800D01*
X025818Y021865D01*
X025802Y021929D01*
X025782Y021992D01*
X025758Y022054D01*
X025731Y022114D01*
X025701Y022173D01*
X025667Y022230D01*
X025630Y022285D01*
X025590Y022338D01*
X025548Y022389D01*
X025502Y022437D01*
X025454Y022483D01*
X025403Y022525D01*
X025350Y022565D01*
X025295Y022602D01*
X025238Y022636D01*
X025179Y022666D01*
X025119Y022693D01*
X025057Y022717D01*
X024994Y022737D01*
X024930Y022753D01*
X024865Y022766D01*
X024799Y022776D01*
X024733Y022781D01*
X024667Y022783D01*
X001439Y022783D01*
X001373Y022781D01*
X001307Y022776D01*
X001241Y022766D01*
X001176Y022753D01*
X001112Y022737D01*
X001049Y022717D01*
X000987Y022693D01*
X000927Y022666D01*
X000868Y022636D01*
X000811Y022602D01*
X000756Y022565D01*
X000703Y022525D01*
X000652Y022483D01*
X000604Y022437D01*
X000558Y022389D01*
X000516Y022338D01*
X000476Y022285D01*
X000439Y022230D01*
X000405Y022173D01*
X000375Y022114D01*
X000348Y022054D01*
X000324Y021992D01*
X000304Y021929D01*
X000288Y021865D01*
X000275Y021800D01*
X000265Y021734D01*
X000260Y021668D01*
X000258Y021602D01*
X000257Y021602D02*
X000100Y015500D01*
X000108Y015459D01*
X000120Y015419D01*
X000136Y015381D01*
X000155Y015343D01*
X000177Y015308D01*
X000202Y015275D01*
X000230Y015243D01*
X000261Y015215D01*
X000294Y015189D01*
X000329Y015166D01*
X000366Y015147D01*
X000404Y015130D01*
X000444Y015118D01*
X000484Y015108D01*
X000526Y015102D01*
X000568Y015100D01*
X000609Y015101D01*
X000651Y015107D01*
X000651Y015106D02*
X001832Y015106D01*
X001832Y015107D02*
X001871Y015105D01*
X001909Y015099D01*
X001946Y015090D01*
X001983Y015077D01*
X002018Y015060D01*
X002051Y015041D01*
X002082Y015018D01*
X002111Y014992D01*
X002137Y014963D01*
X002160Y014932D01*
X002179Y014899D01*
X002196Y014864D01*
X002209Y014827D01*
X002218Y014790D01*
X002224Y014752D01*
X002226Y014713D01*
X002226Y008807D01*
X002224Y008768D01*
X002218Y008730D01*
X002209Y008693D01*
X002196Y008656D01*
X002179Y008621D01*
X002160Y008588D01*
X002137Y008557D01*
X002111Y008528D01*
X002082Y008502D01*
X002051Y008479D01*
X002018Y008460D01*
X001983Y008443D01*
X001946Y008430D01*
X001909Y008421D01*
X001871Y008415D01*
X001832Y008413D01*
X000651Y008413D01*
X000651Y008414D02*
X000612Y008412D01*
X000574Y008406D01*
X000537Y008397D01*
X000500Y008384D01*
X000465Y008367D01*
X000432Y008348D01*
X000401Y008325D01*
X000372Y008299D01*
X000346Y008270D01*
X000323Y008239D01*
X000304Y008206D01*
X000287Y008171D01*
X000274Y008134D01*
X000265Y008097D01*
X000259Y008059D01*
X000257Y008020D01*
X000257Y001917D01*
X000258Y001917D02*
X000260Y001851D01*
X000265Y001785D01*
X000275Y001719D01*
X000288Y001654D01*
X000304Y001590D01*
X000324Y001527D01*
X000348Y001465D01*
X000375Y001405D01*
X000405Y001346D01*
X000439Y001289D01*
X000476Y001234D01*
X000516Y001181D01*
X000558Y001130D01*
X000604Y001082D01*
X000652Y001036D01*
X000703Y000994D01*
X000756Y000954D01*
X000811Y000917D01*
X000868Y000883D01*
X000927Y000853D01*
X000987Y000826D01*
X001049Y000802D01*
X001112Y000782D01*
X001176Y000766D01*
X001241Y000753D01*
X001307Y000743D01*
X001373Y000738D01*
X001439Y000736D01*
X001084Y002114D02*
X001086Y002161D01*
X001092Y002207D01*
X001102Y002253D01*
X001115Y002298D01*
X001133Y002341D01*
X001154Y002383D01*
X001178Y002423D01*
X001206Y002460D01*
X001237Y002495D01*
X001271Y002528D01*
X001307Y002557D01*
X001346Y002583D01*
X001387Y002606D01*
X001430Y002625D01*
X001474Y002641D01*
X001519Y002653D01*
X001565Y002661D01*
X001612Y002665D01*
X001658Y002665D01*
X001705Y002661D01*
X001751Y002653D01*
X001796Y002641D01*
X001840Y002625D01*
X001883Y002606D01*
X001924Y002583D01*
X001963Y002557D01*
X001999Y002528D01*
X002033Y002495D01*
X002064Y002460D01*
X002092Y002423D01*
X002116Y002383D01*
X002137Y002341D01*
X002155Y002298D01*
X002168Y002253D01*
X002178Y002207D01*
X002184Y002161D01*
X002186Y002114D01*
X002184Y002067D01*
X002178Y002021D01*
X002168Y001975D01*
X002155Y001930D01*
X002137Y001887D01*
X002116Y001845D01*
X002092Y001805D01*
X002064Y001768D01*
X002033Y001733D01*
X001999Y001700D01*
X001963Y001671D01*
X001924Y001645D01*
X001883Y001622D01*
X001840Y001603D01*
X001796Y001587D01*
X001751Y001575D01*
X001705Y001567D01*
X001658Y001563D01*
X001612Y001563D01*
X001565Y001567D01*
X001519Y001575D01*
X001474Y001587D01*
X001430Y001603D01*
X001387Y001622D01*
X001346Y001645D01*
X001307Y001671D01*
X001271Y001700D01*
X001237Y001733D01*
X001206Y001768D01*
X001178Y001805D01*
X001154Y001845D01*
X001133Y001887D01*
X001115Y001930D01*
X001102Y001975D01*
X001092Y002021D01*
X001086Y002067D01*
X001084Y002114D01*
X023919Y002114D02*
X023921Y002161D01*
X023927Y002207D01*
X023937Y002253D01*
X023950Y002298D01*
X023968Y002341D01*
X023989Y002383D01*
X024013Y002423D01*
X024041Y002460D01*
X024072Y002495D01*
X024106Y002528D01*
X024142Y002557D01*
X024181Y002583D01*
X024222Y002606D01*
X024265Y002625D01*
X024309Y002641D01*
X024354Y002653D01*
X024400Y002661D01*
X024447Y002665D01*
X024493Y002665D01*
X024540Y002661D01*
X024586Y002653D01*
X024631Y002641D01*
X024675Y002625D01*
X024718Y002606D01*
X024759Y002583D01*
X024798Y002557D01*
X024834Y002528D01*
X024868Y002495D01*
X024899Y002460D01*
X024927Y002423D01*
X024951Y002383D01*
X024972Y002341D01*
X024990Y002298D01*
X025003Y002253D01*
X025013Y002207D01*
X025019Y002161D01*
X025021Y002114D01*
X025019Y002067D01*
X025013Y002021D01*
X025003Y001975D01*
X024990Y001930D01*
X024972Y001887D01*
X024951Y001845D01*
X024927Y001805D01*
X024899Y001768D01*
X024868Y001733D01*
X024834Y001700D01*
X024798Y001671D01*
X024759Y001645D01*
X024718Y001622D01*
X024675Y001603D01*
X024631Y001587D01*
X024586Y001575D01*
X024540Y001567D01*
X024493Y001563D01*
X024447Y001563D01*
X024400Y001567D01*
X024354Y001575D01*
X024309Y001587D01*
X024265Y001603D01*
X024222Y001622D01*
X024181Y001645D01*
X024142Y001671D01*
X024106Y001700D01*
X024072Y001733D01*
X024041Y001768D01*
X024013Y001805D01*
X023989Y001845D01*
X023968Y001887D01*
X023950Y001930D01*
X023937Y001975D01*
X023927Y002021D01*
X023921Y002067D01*
X023919Y002114D01*
X023919Y021406D02*
X023921Y021453D01*
X023927Y021499D01*
X023937Y021545D01*
X023950Y021590D01*
X023968Y021633D01*
X023989Y021675D01*
X024013Y021715D01*
X024041Y021752D01*
X024072Y021787D01*
X024106Y021820D01*
X024142Y021849D01*
X024181Y021875D01*
X024222Y021898D01*
X024265Y021917D01*
X024309Y021933D01*
X024354Y021945D01*
X024400Y021953D01*
X024447Y021957D01*
X024493Y021957D01*
X024540Y021953D01*
X024586Y021945D01*
X024631Y021933D01*
X024675Y021917D01*
X024718Y021898D01*
X024759Y021875D01*
X024798Y021849D01*
X024834Y021820D01*
X024868Y021787D01*
X024899Y021752D01*
X024927Y021715D01*
X024951Y021675D01*
X024972Y021633D01*
X024990Y021590D01*
X025003Y021545D01*
X025013Y021499D01*
X025019Y021453D01*
X025021Y021406D01*
X025019Y021359D01*
X025013Y021313D01*
X025003Y021267D01*
X024990Y021222D01*
X024972Y021179D01*
X024951Y021137D01*
X024927Y021097D01*
X024899Y021060D01*
X024868Y021025D01*
X024834Y020992D01*
X024798Y020963D01*
X024759Y020937D01*
X024718Y020914D01*
X024675Y020895D01*
X024631Y020879D01*
X024586Y020867D01*
X024540Y020859D01*
X024493Y020855D01*
X024447Y020855D01*
X024400Y020859D01*
X024354Y020867D01*
X024309Y020879D01*
X024265Y020895D01*
X024222Y020914D01*
X024181Y020937D01*
X024142Y020963D01*
X024106Y020992D01*
X024072Y021025D01*
X024041Y021060D01*
X024013Y021097D01*
X023989Y021137D01*
X023968Y021179D01*
X023950Y021222D01*
X023937Y021267D01*
X023927Y021313D01*
X023921Y021359D01*
X023919Y021406D01*
X001084Y021406D02*
X001086Y021453D01*
X001092Y021499D01*
X001102Y021545D01*
X001115Y021590D01*
X001133Y021633D01*
X001154Y021675D01*
X001178Y021715D01*
X001206Y021752D01*
X001237Y021787D01*
X001271Y021820D01*
X001307Y021849D01*
X001346Y021875D01*
X001387Y021898D01*
X001430Y021917D01*
X001474Y021933D01*
X001519Y021945D01*
X001565Y021953D01*
X001612Y021957D01*
X001658Y021957D01*
X001705Y021953D01*
X001751Y021945D01*
X001796Y021933D01*
X001840Y021917D01*
X001883Y021898D01*
X001924Y021875D01*
X001963Y021849D01*
X001999Y021820D01*
X002033Y021787D01*
X002064Y021752D01*
X002092Y021715D01*
X002116Y021675D01*
X002137Y021633D01*
X002155Y021590D01*
X002168Y021545D01*
X002178Y021499D01*
X002184Y021453D01*
X002186Y021406D01*
X002184Y021359D01*
X002178Y021313D01*
X002168Y021267D01*
X002155Y021222D01*
X002137Y021179D01*
X002116Y021137D01*
X002092Y021097D01*
X002064Y021060D01*
X002033Y021025D01*
X001999Y020992D01*
X001963Y020963D01*
X001924Y020937D01*
X001883Y020914D01*
X001840Y020895D01*
X001796Y020879D01*
X001751Y020867D01*
X001705Y020859D01*
X001658Y020855D01*
X001612Y020855D01*
X001565Y020859D01*
X001519Y020867D01*
X001474Y020879D01*
X001430Y020895D01*
X001387Y020914D01*
X001346Y020937D01*
X001307Y020963D01*
X001271Y020992D01*
X001237Y021025D01*
X001206Y021060D01*
X001178Y021097D01*
X001154Y021137D01*
X001133Y021179D01*
X001115Y021222D01*
X001102Y021267D01*
X001092Y021313D01*
X001086Y021359D01*
X001084Y021406D01*
D11*
X003553Y020906D03*
X001320Y019165D03*
X013502Y017423D03*
X024746Y016165D03*
X024785Y010709D03*
D12*
X022553Y020906D03*
X021553Y020906D03*
X020553Y020906D03*
X019553Y020906D03*
X018553Y020906D03*
X017553Y020906D03*
X016553Y020906D03*
X015553Y020906D03*
X014553Y020906D03*
X014553Y021906D03*
X015553Y021906D03*
X016553Y021906D03*
X017553Y021906D03*
X018553Y021906D03*
X019553Y021906D03*
X020553Y021906D03*
X021553Y021906D03*
X022553Y021906D03*
X013553Y021906D03*
X012553Y021906D03*
X011553Y021906D03*
X010553Y021906D03*
X009553Y021906D03*
X008553Y021906D03*
X007553Y021906D03*
X006553Y021906D03*
X005553Y021906D03*
X004553Y021906D03*
X003553Y021906D03*
X004553Y020906D03*
X005553Y020906D03*
X006553Y020906D03*
X007553Y020906D03*
X008553Y020906D03*
X009553Y020906D03*
X010553Y020906D03*
X011553Y020906D03*
X012553Y020906D03*
X013553Y020906D03*
D13*
X017315Y018477D03*
X018063Y018477D03*
X018063Y017517D03*
X017315Y017517D03*
X013389Y016406D03*
X012641Y016406D03*
D14*
X013800Y018423D03*
X013800Y019211D03*
X007265Y018374D03*
X007265Y017587D03*
X005454Y019083D03*
X005454Y019870D03*
D15*
X001320Y018165D03*
X001320Y017165D03*
X001320Y016165D03*
X012502Y017423D03*
X024746Y017165D03*
X024746Y018165D03*
X024746Y019165D03*
X024785Y011709D03*
D16*
X007226Y015303D03*
D17*
X007620Y016612D03*
X006832Y016612D03*
D18*
X005809Y016484D03*
X005100Y016484D03*
X005100Y017272D03*
X005809Y017272D03*
X006163Y012744D03*
X006872Y012744D03*
X009234Y012823D03*
X009943Y012823D03*
X012305Y011445D03*
X013013Y011445D03*
X020376Y016602D03*
X021084Y016602D03*
X021084Y017272D03*
X020376Y017272D03*
X020376Y018059D03*
X021084Y018059D03*
X021084Y018846D03*
X020376Y018846D03*
X020376Y019594D03*
X021084Y019594D03*
D19*
X022529Y018846D03*
X022529Y018059D03*
X022529Y017272D03*
X022529Y016484D03*
X022726Y011602D03*
X022726Y010815D03*
X003537Y016484D03*
X003537Y017272D03*
X003537Y018059D03*
X003537Y018846D03*
D20*
X001490Y019791D03*
X001490Y015539D03*
X024576Y015539D03*
X024773Y012547D03*
X024773Y009870D03*
X024576Y019791D03*
D21*
X014273Y012980D03*
X013899Y012154D03*
X014647Y012154D03*
X006931Y011720D03*
X006183Y011720D03*
X006557Y010894D03*
D22*
X012206Y012173D03*
X012206Y012547D03*
X012206Y012921D03*
X013112Y012921D03*
X013112Y012547D03*
X013112Y012173D03*
D23*
X011399Y012232D03*
X011399Y012941D03*
X018801Y015185D03*
X018801Y015894D03*
X019785Y015933D03*
X019785Y015224D03*
X020809Y015185D03*
X020809Y015894D03*
D24*
X003801Y014319D03*
D25*
X004801Y014319D03*
X005801Y014319D03*
X006801Y014319D03*
X007801Y014319D03*
X008801Y014319D03*
X009801Y014319D03*
X010801Y014319D03*
X011801Y014319D03*
X012801Y014319D03*
X013801Y014319D03*
X014801Y014319D03*
X015801Y014319D03*
X016801Y014319D03*
X017801Y014319D03*
X018801Y014319D03*
X019801Y014319D03*
X020801Y014319D03*
X010907Y010067D03*
X008348Y010067D03*
D26*
X012210Y007823D03*
X012210Y007429D03*
X012210Y007035D03*
X012210Y006642D03*
X012210Y006248D03*
X012210Y005854D03*
X012210Y005461D03*
X012210Y005067D03*
X012210Y004673D03*
X012210Y004280D03*
X012210Y003886D03*
X012210Y003492D03*
X012210Y003098D03*
X012210Y002705D03*
X012210Y002311D03*
D27*
X012998Y001917D03*
X012998Y008217D03*
D28*
X006088Y007921D03*
X006088Y007724D03*
X006088Y007528D03*
X006088Y007331D03*
X006088Y007134D03*
X006088Y006937D03*
X006088Y006740D03*
X006088Y006543D03*
X006088Y006346D03*
X006088Y006150D03*
X006088Y005953D03*
X006088Y005756D03*
X006088Y005559D03*
X006088Y005362D03*
X006088Y005165D03*
X006088Y004969D03*
X006088Y004772D03*
X006088Y004575D03*
X006088Y004378D03*
D29*
X005714Y003394D03*
X003765Y003157D03*
X005714Y009102D03*
X003765Y009339D03*
D30*
X016399Y010421D03*
X016399Y012311D03*
X024549Y008177D03*
X024549Y006287D03*
D31*
X022188Y007598D03*
X021518Y007598D03*
X020848Y007598D03*
X020178Y007598D03*
X019508Y007598D03*
D32*
X020848Y003531D03*
D33*
X020769Y011445D03*
X018250Y011445D03*
D34*
X019972Y009437D03*
X021567Y009437D03*
D35*
X016480Y016532D03*
X015980Y016532D03*
X015480Y016532D03*
X014980Y016532D03*
X014980Y019182D03*
X015480Y019182D03*
X015980Y019182D03*
X016480Y019182D03*
D36*
X015572Y019949D03*
X015139Y017941D03*
X014037Y016760D03*
X012777Y015815D03*
X011714Y015067D03*
X010848Y015736D03*
X009194Y015382D03*
X007226Y016051D03*
X006360Y017508D03*
X005809Y018492D03*
X007187Y019476D03*
X006360Y019870D03*
X009037Y019476D03*
X010061Y019516D03*
X011557Y018650D03*
X012541Y019083D03*
X012541Y019949D03*
X017383Y016445D03*
X018210Y016642D03*
X019037Y016957D03*
X018880Y018020D03*
X018250Y019358D03*
X019903Y019949D03*
X020691Y020106D03*
X021872Y019831D03*
X022817Y019831D03*
X022974Y015697D03*
X022029Y015303D03*
X023840Y013925D03*
X025257Y013925D03*
X023131Y012626D03*
X022029Y012311D03*
X020179Y010382D03*
X019116Y010343D03*
X019470Y011406D03*
X017777Y012941D03*
X019391Y013256D03*
X016832Y011327D03*
X017305Y010500D03*
X017344Y009476D03*
X017620Y008886D03*
X018840Y008059D03*
X018919Y007311D03*
X019903Y006524D03*
X020612Y006051D03*
X020848Y006681D03*
X022029Y006602D03*
X022817Y006957D03*
X023053Y006169D03*
X021911Y005933D03*
X021950Y004437D03*
X020651Y004280D03*
X019313Y004437D03*
X019431Y002941D03*
X020691Y002783D03*
X021911Y002744D03*
X021950Y001327D03*
X022817Y001366D03*
X021163Y001327D03*
X020336Y001248D03*
X018880Y001248D03*
X023643Y004122D03*
X024352Y004594D03*
X023643Y004988D03*
X025100Y004949D03*
X025061Y004122D03*
X019155Y006091D03*
X020809Y008531D03*
X020730Y009004D03*
X019234Y009398D03*
X022147Y010264D03*
X023565Y009988D03*
X023604Y009004D03*
X015730Y011760D03*
X015257Y011209D03*
X013880Y010500D03*
X012974Y009594D03*
X013525Y008728D03*
X014352Y008335D03*
X013880Y007665D03*
X013525Y007114D03*
X014234Y006563D03*
X013683Y005854D03*
X013801Y004555D03*
X013446Y003925D03*
X013801Y002862D03*
X011675Y001406D03*
X010612Y001524D03*
X013210Y001287D03*
X004549Y004240D03*
X004391Y005500D03*
X003131Y005303D03*
X002817Y004240D03*
X004234Y002272D03*
X004076Y001327D03*
X003171Y001287D03*
X002659Y006839D03*
X004116Y007035D03*
X004431Y008098D03*
X002856Y008098D03*
X002817Y009358D03*
X004116Y010736D03*
X005454Y010382D03*
X004037Y012114D03*
X002974Y012272D03*
X002738Y015697D03*
X003525Y015854D03*
X007974Y012744D03*
X008131Y011602D03*
X009667Y009752D03*
X010651Y011406D03*
X011990Y010500D03*
X015376Y009594D03*
X017462Y015303D03*
X003013Y019673D03*
D37*
X006281Y016799D03*
X009273Y016720D03*
X009824Y017350D03*
X009155Y017980D03*
X009116Y018689D03*
X010061Y018492D03*
X011006Y016484D03*
X020730Y009909D03*
X020769Y009437D03*
X022187Y009122D03*
X022029Y008689D03*
X022895Y008138D03*
X022226Y009831D03*
X021360Y011051D03*
X012935Y007665D03*
X011832Y008295D03*
X011242Y008728D03*
X010257Y008728D03*
X009234Y008689D03*
X009116Y007902D03*
X009470Y007547D03*
X009982Y006957D03*
X010376Y006839D03*
X010769Y006957D03*
X011399Y006799D03*
X010927Y006012D03*
X011163Y005657D03*
X011517Y005933D03*
X010297Y005972D03*
X009470Y006209D03*
X008958Y005854D03*
X008486Y005618D03*
X008092Y006051D03*
X007462Y006091D03*
X006911Y006091D03*
X006832Y005461D03*
X006793Y004870D03*
X007856Y005185D03*
X008643Y004437D03*
X008919Y004870D03*
X009470Y004673D03*
X009982Y004988D03*
X010297Y004437D03*
X010651Y004988D03*
X011006Y004673D03*
X011517Y004673D03*
X012895Y004634D03*
X012895Y003492D03*
X011557Y003531D03*
X011242Y003295D03*
X011084Y003650D03*
X010730Y003256D03*
X010100Y002626D03*
X009588Y002508D03*
X008919Y002508D03*
X008368Y002626D03*
X007817Y003256D03*
X007069Y003886D03*
X006832Y004122D03*
X006281Y003965D03*
X005454Y004555D03*
X005454Y005146D03*
X005454Y005736D03*
X005454Y006327D03*
X005454Y006839D03*
X005454Y007547D03*
X005572Y008256D03*
X006360Y008256D03*
X006832Y008571D03*
X007462Y008728D03*
X008289Y008728D03*
X008328Y007941D03*
X008683Y007587D03*
X007817Y007665D03*
X007344Y007902D03*
X006990Y007587D03*
X006754Y006839D03*
X007541Y006839D03*
X008210Y006839D03*
X008801Y006209D03*
X009431Y005618D03*
X007817Y004240D03*
X009155Y003846D03*
X008958Y003295D03*
X009509Y003256D03*
X009824Y003846D03*
X011439Y002508D03*
X012935Y002390D03*
X012974Y005854D03*
X011320Y007587D03*
X010376Y007941D03*
D38*
X010341Y007840D02*
X010145Y007953D01*
X009867Y007953D01*
X009671Y007840D01*
X009558Y007644D01*
X009558Y007490D01*
X006747Y007490D01*
X006767Y007498D01*
X007297Y008029D01*
X010974Y008029D01*
X011406Y007597D01*
X011504Y007556D01*
X011541Y007556D01*
X011475Y007490D01*
X011217Y007490D01*
X011217Y007644D01*
X011103Y007840D01*
X010907Y007953D01*
X010629Y007953D01*
X010433Y007840D01*
X010433Y007840D01*
X010387Y007761D01*
X010341Y007840D01*
X010341Y007840D01*
X010348Y007828D02*
X010426Y007828D01*
X010433Y007840D02*
X010433Y007840D01*
X010583Y007927D02*
X010191Y007927D01*
X009821Y007927D02*
X007195Y007927D01*
X007294Y008025D02*
X010977Y008025D01*
X010953Y007927D02*
X011076Y007927D01*
X011103Y007840D02*
X011103Y007840D01*
X011103Y007840D01*
X011110Y007828D02*
X011174Y007828D01*
X011167Y007730D02*
X011273Y007730D01*
X011217Y007631D02*
X011371Y007631D01*
X011517Y007533D02*
X011217Y007533D01*
X010768Y007167D02*
X010814Y007088D01*
X010814Y007088D01*
X011010Y006974D01*
X011475Y006974D01*
X011611Y006837D01*
X011648Y006837D01*
X011514Y006703D01*
X009918Y006703D01*
X009918Y006836D01*
X009819Y007006D01*
X009960Y007088D01*
X010006Y007167D01*
X010052Y007088D01*
X010052Y007088D01*
X010248Y006974D01*
X010526Y006974D01*
X010722Y007088D01*
X010768Y007167D01*
X010752Y007139D02*
X010784Y007139D01*
X010814Y007088D02*
X010814Y007088D01*
X010722Y007088D02*
X010722Y007088D01*
X010722Y007088D01*
X010640Y007040D02*
X010896Y007040D01*
X011507Y006942D02*
X009856Y006942D01*
X009879Y007040D02*
X010134Y007040D01*
X010052Y007088D02*
X010052Y007088D01*
X010022Y007139D02*
X009990Y007139D01*
X009960Y007088D02*
X009960Y007088D01*
X009913Y006843D02*
X011606Y006843D01*
X011556Y006745D02*
X009918Y006745D01*
X009486Y006350D02*
X009515Y006300D01*
X009711Y006187D01*
X011514Y006187D01*
X011651Y006050D01*
X011659Y006050D01*
X011677Y006031D01*
X011677Y006030D01*
X011667Y005992D01*
X011667Y005863D01*
X012201Y005863D01*
X012201Y005845D01*
X011667Y005845D01*
X011667Y005716D01*
X011677Y005678D01*
X011677Y005677D01*
X011659Y005659D01*
X011533Y005659D01*
X011396Y005522D01*
X011059Y005522D01*
X011059Y005618D01*
X010946Y005814D01*
X010946Y005814D01*
X010750Y005928D01*
X010522Y005928D01*
X010326Y005814D01*
X010306Y005779D01*
X010285Y005814D01*
X010089Y005928D01*
X009862Y005928D01*
X009666Y005814D01*
X009666Y005814D01*
X009552Y005618D01*
X009552Y005522D01*
X008396Y005522D01*
X007923Y005994D01*
X006796Y005994D01*
X006739Y006051D01*
X006875Y006187D01*
X008567Y006187D01*
X008763Y006300D01*
X008763Y006300D01*
X008763Y006300D01*
X008792Y006350D01*
X008821Y006300D01*
X009017Y006187D01*
X009261Y006187D01*
X009457Y006300D01*
X009457Y006300D01*
X009486Y006350D01*
X009515Y006300D02*
X009515Y006300D01*
X009515Y006300D01*
X009457Y006300D02*
X009457Y006300D01*
X009374Y006252D02*
X009598Y006252D01*
X009741Y005858D02*
X008060Y005858D01*
X008158Y005760D02*
X009634Y005760D01*
X009577Y005661D02*
X008257Y005661D01*
X008355Y005563D02*
X009552Y005563D01*
X009871Y005070D02*
X010080Y005070D01*
X009996Y005119D02*
X010192Y005006D01*
X010419Y005006D01*
X010616Y005119D01*
X010636Y005154D01*
X010656Y005119D01*
X010656Y005119D01*
X010656Y005119D01*
X010853Y005006D01*
X011396Y005006D01*
X011417Y004985D01*
X011533Y004869D01*
X011659Y004869D01*
X011677Y004850D01*
X011677Y004849D01*
X011667Y004811D01*
X011667Y004682D01*
X012201Y004682D01*
X012201Y004664D01*
X011667Y004664D01*
X011667Y004535D01*
X011677Y004497D01*
X011677Y004496D01*
X011659Y004478D01*
X011611Y004478D01*
X011475Y004341D01*
X010232Y004341D01*
X010232Y004376D01*
X010119Y004572D01*
X010119Y004572D01*
X009923Y004686D01*
X009690Y004686D01*
X009493Y004572D01*
X009470Y004532D01*
X009447Y004572D01*
X009447Y004572D01*
X009447Y004572D01*
X009250Y004686D01*
X009017Y004686D01*
X008821Y004572D01*
X008708Y004376D01*
X008708Y004341D01*
X008593Y004341D01*
X007530Y005404D01*
X006757Y005404D01*
X006739Y005421D01*
X006796Y005478D01*
X007710Y005478D01*
X008182Y005006D01*
X008346Y005006D01*
X009563Y005006D01*
X009759Y005006D01*
X009955Y005119D01*
X009955Y005119D01*
X009975Y005154D01*
X009996Y005119D01*
X009996Y005119D01*
X009996Y005119D01*
X009955Y005119D02*
X009955Y005119D01*
X009939Y004676D02*
X012201Y004676D01*
X012219Y004676D02*
X017412Y004676D01*
X017412Y004578D02*
X012754Y004578D01*
X012754Y004535D02*
X012754Y004664D01*
X012219Y004664D01*
X012219Y004682D01*
X012754Y004682D01*
X012754Y004811D01*
X012744Y004849D01*
X012743Y004850D01*
X012772Y004879D01*
X012772Y005255D01*
X012763Y005264D01*
X012772Y005273D01*
X012772Y005648D01*
X012743Y005677D01*
X012744Y005678D01*
X012754Y005716D01*
X012754Y005845D01*
X012219Y005845D01*
X012219Y005863D01*
X012754Y005863D01*
X012754Y005992D01*
X012744Y006030D01*
X012743Y006031D01*
X012772Y006060D01*
X012772Y006436D01*
X012763Y006445D01*
X012772Y006454D01*
X012772Y006829D01*
X012763Y006839D01*
X012772Y006848D01*
X012772Y007223D01*
X012763Y007232D01*
X012772Y007241D01*
X012772Y007617D01*
X012763Y007626D01*
X012772Y007635D01*
X012772Y007911D01*
X013894Y007911D01*
X013993Y008009D01*
X013993Y008424D01*
X013894Y008522D01*
X012101Y008522D01*
X012003Y008424D01*
X012003Y008109D01*
X011747Y008109D01*
X011727Y008089D01*
X011667Y008089D01*
X011310Y008446D01*
X011235Y008521D01*
X011137Y008562D01*
X007134Y008562D01*
X007036Y008521D01*
X006961Y008446D01*
X006597Y008083D01*
X006532Y008148D01*
X005645Y008148D01*
X005546Y008050D01*
X005546Y007596D01*
X005564Y007578D01*
X005564Y007528D01*
X005614Y007528D01*
X005614Y007528D01*
X005614Y007528D01*
X005564Y007528D01*
X005564Y007478D01*
X005546Y007459D01*
X005546Y007005D01*
X005564Y006987D01*
X005564Y006937D01*
X005564Y006858D01*
X005569Y006839D01*
X005564Y006819D01*
X005564Y006740D01*
X005564Y006690D01*
X005546Y006672D01*
X005546Y006415D01*
X005564Y006397D01*
X005564Y006346D01*
X005564Y006296D01*
X005546Y006278D01*
X005546Y005824D01*
X005564Y005806D01*
X005564Y005756D01*
X005614Y005756D01*
X005614Y005756D01*
X005564Y005756D01*
X005564Y005706D01*
X005546Y005688D01*
X005546Y005234D01*
X005564Y005215D01*
X005564Y005165D01*
X005564Y005115D01*
X005546Y005097D01*
X005546Y004643D01*
X005564Y004625D01*
X005564Y004575D01*
X005614Y004575D01*
X005614Y004575D01*
X005564Y004575D01*
X005564Y004525D01*
X005546Y004507D01*
X005546Y004249D01*
X005645Y004151D01*
X006532Y004151D01*
X006561Y004180D01*
X006640Y004180D01*
X006757Y004297D01*
X006922Y004297D01*
X008460Y002760D01*
X008460Y002760D01*
X008576Y002643D01*
X009814Y002643D01*
X010010Y002757D01*
X010117Y002941D01*
X010223Y002757D01*
X010223Y002757D01*
X010223Y002757D01*
X010420Y002643D01*
X011514Y002643D01*
X011651Y002507D01*
X011659Y002507D01*
X011677Y002488D01*
X011677Y002487D01*
X011667Y002449D01*
X011667Y002320D01*
X012201Y002320D01*
X012201Y002302D01*
X011667Y002302D01*
X011667Y002173D01*
X011677Y002135D01*
X011697Y002101D01*
X011724Y002073D01*
X011759Y002053D01*
X011797Y002043D01*
X012003Y002043D01*
X012003Y001710D01*
X012101Y001611D01*
X013894Y001611D01*
X013993Y001710D01*
X013993Y002125D01*
X013894Y002223D01*
X012754Y002223D01*
X012754Y002302D01*
X012219Y002302D01*
X012219Y002320D01*
X012754Y002320D01*
X012754Y002449D01*
X012744Y002487D01*
X012743Y002488D01*
X012772Y002517D01*
X012772Y002892D01*
X012763Y002902D01*
X012772Y002911D01*
X012772Y003286D01*
X012743Y003315D01*
X012744Y003316D01*
X012754Y003354D01*
X012754Y003483D01*
X012219Y003483D01*
X012219Y003501D01*
X012754Y003501D01*
X012754Y003630D01*
X012744Y003668D01*
X012743Y003669D01*
X012772Y003698D01*
X012772Y004074D01*
X012763Y004083D01*
X012772Y004092D01*
X012772Y004467D01*
X012743Y004496D01*
X012744Y004497D01*
X012754Y004535D01*
X012760Y004479D02*
X017412Y004479D01*
X017412Y004381D02*
X012772Y004381D01*
X012772Y004282D02*
X017412Y004282D01*
X017412Y004184D02*
X012772Y004184D01*
X012765Y004085D02*
X017412Y004085D01*
X017412Y003987D02*
X012772Y003987D01*
X012772Y003888D02*
X017412Y003888D01*
X017412Y003790D02*
X012772Y003790D01*
X012765Y003691D02*
X017412Y003691D01*
X017412Y003593D02*
X012754Y003593D01*
X012754Y003396D02*
X017412Y003396D01*
X017412Y003494D02*
X012219Y003494D01*
X012201Y003494D02*
X010474Y003494D01*
X010513Y003472D02*
X010316Y003585D01*
X009917Y003585D01*
X009721Y003472D01*
X009608Y003276D01*
X009608Y003160D01*
X008790Y003160D01*
X007252Y004697D01*
X007136Y004813D01*
X006757Y004813D01*
X006720Y004850D01*
X006757Y004888D01*
X007316Y004888D01*
X008263Y003941D01*
X008263Y003941D01*
X008379Y003825D01*
X008914Y003825D01*
X009110Y003938D01*
X009110Y003938D01*
X009134Y003978D01*
X009157Y003938D01*
X009157Y003938D01*
X009157Y003938D01*
X009354Y003825D01*
X009587Y003825D01*
X009783Y003938D01*
X009806Y003978D01*
X009830Y003938D01*
X010026Y003825D01*
X011475Y003825D01*
X011611Y003688D01*
X011659Y003688D01*
X011677Y003669D01*
X011677Y003668D01*
X011667Y003630D01*
X011667Y003501D01*
X012201Y003501D01*
X012201Y003483D01*
X011667Y003483D01*
X011667Y003354D01*
X011677Y003316D01*
X011677Y003315D01*
X011659Y003297D01*
X011651Y003297D01*
X011514Y003160D01*
X010626Y003160D01*
X010626Y003276D01*
X010513Y003472D01*
X010513Y003472D01*
X010557Y003396D02*
X011667Y003396D01*
X011659Y003297D02*
X010614Y003297D01*
X010626Y003199D02*
X011553Y003199D01*
X011667Y003593D02*
X008357Y003593D01*
X008455Y003494D02*
X009760Y003494D01*
X009721Y003472D02*
X009721Y003472D01*
X009721Y003472D01*
X009677Y003396D02*
X008554Y003396D01*
X008652Y003297D02*
X009620Y003297D01*
X009608Y003199D02*
X008751Y003199D01*
X008415Y002805D02*
X004168Y002805D01*
X004173Y002810D02*
X004222Y002878D01*
X004260Y002953D01*
X004286Y003032D01*
X004298Y003107D01*
X003815Y003107D01*
X003815Y002625D01*
X003890Y002637D01*
X003970Y002663D01*
X004045Y002701D01*
X004113Y002750D01*
X004173Y002810D01*
X004235Y002903D02*
X005501Y002903D01*
X005509Y002899D02*
X005589Y002873D01*
X005664Y002861D01*
X005664Y003344D01*
X005182Y003344D01*
X005193Y003269D01*
X005219Y003189D01*
X005258Y003114D01*
X005307Y003046D01*
X005366Y002986D01*
X005434Y002937D01*
X005509Y002899D01*
X005664Y002903D02*
X005764Y002903D01*
X005764Y002861D02*
X005839Y002873D01*
X005919Y002899D01*
X005994Y002937D01*
X006062Y002986D01*
X006121Y003046D01*
X006171Y003114D01*
X006209Y003189D01*
X006235Y003269D01*
X006247Y003344D01*
X005764Y003344D01*
X005764Y003444D01*
X005664Y003444D01*
X005664Y003926D01*
X005589Y003914D01*
X005509Y003888D01*
X000426Y003888D01*
X000426Y003790D02*
X005355Y003790D01*
X005366Y003801D02*
X005307Y003741D01*
X005258Y003674D01*
X005219Y003599D01*
X005193Y003519D01*
X005182Y003444D01*
X005664Y003444D01*
X005664Y003344D01*
X005764Y003344D01*
X005764Y002861D01*
X005764Y003002D02*
X005664Y003002D01*
X005664Y003100D02*
X005764Y003100D01*
X005764Y003199D02*
X005664Y003199D01*
X005664Y003297D02*
X005764Y003297D01*
X005764Y003396D02*
X007823Y003396D01*
X007725Y003494D02*
X006239Y003494D01*
X006235Y003519D02*
X006209Y003599D01*
X006171Y003674D01*
X006121Y003741D01*
X006062Y003801D01*
X005994Y003850D01*
X005919Y003888D01*
X005839Y003914D01*
X005764Y003926D01*
X005764Y003444D01*
X006247Y003444D01*
X006235Y003519D01*
X006211Y003593D02*
X007626Y003593D01*
X007528Y003691D02*
X006158Y003691D01*
X006073Y003790D02*
X007429Y003790D01*
X007331Y003888D02*
X005920Y003888D01*
X005764Y003888D02*
X005664Y003888D01*
X005664Y003790D02*
X005764Y003790D01*
X005764Y003691D02*
X005664Y003691D01*
X005664Y003593D02*
X005764Y003593D01*
X005764Y003494D02*
X005664Y003494D01*
X005664Y003396D02*
X004243Y003396D01*
X004260Y003362D02*
X004222Y003437D01*
X004173Y003505D01*
X004113Y003565D01*
X004045Y003614D01*
X003970Y003652D01*
X003890Y003678D01*
X003815Y003690D01*
X003815Y003207D01*
X004298Y003207D01*
X004286Y003282D01*
X004260Y003362D01*
X004281Y003297D02*
X005189Y003297D01*
X005216Y003199D02*
X003815Y003199D01*
X003815Y003207D02*
X003815Y003107D01*
X003715Y003107D01*
X003715Y002625D01*
X003640Y002637D01*
X003560Y002663D01*
X003486Y002701D01*
X003418Y002750D01*
X003358Y002810D01*
X003309Y002878D01*
X003271Y002953D01*
X003245Y003032D01*
X003233Y003107D01*
X003715Y003107D01*
X003715Y003207D01*
X003233Y003207D01*
X003245Y003282D01*
X003271Y003362D01*
X003309Y003437D01*
X003358Y003505D01*
X003418Y003565D01*
X003486Y003614D01*
X003560Y003652D01*
X003640Y003678D01*
X003715Y003690D01*
X003715Y003207D01*
X003815Y003207D01*
X003815Y003297D02*
X003715Y003297D01*
X003715Y003199D02*
X002480Y003199D01*
X002576Y003136D02*
X002193Y003386D01*
X001750Y003498D01*
X001295Y003460D01*
X000876Y003277D01*
X000540Y002967D01*
X000426Y002756D01*
X000426Y008020D01*
X000430Y008064D01*
X000464Y008145D01*
X000526Y008207D01*
X000607Y008241D01*
X000651Y008245D01*
X001944Y008245D01*
X002151Y008331D01*
X002309Y008489D01*
X002394Y008695D01*
X002394Y009791D01*
X003480Y009791D01*
X003418Y009746D01*
X003358Y009686D01*
X003309Y009618D01*
X003271Y009544D01*
X003245Y009464D01*
X003233Y009389D01*
X003715Y009389D01*
X003715Y009289D01*
X003233Y009289D01*
X003245Y009214D01*
X003271Y009134D01*
X003309Y009059D01*
X003358Y008991D01*
X003418Y008931D01*
X003486Y008882D01*
X003560Y008844D01*
X003640Y008818D01*
X003715Y008806D01*
X003715Y009289D01*
X003815Y009289D01*
X003815Y009389D01*
X004298Y009389D01*
X004286Y009464D01*
X004260Y009544D01*
X004222Y009618D01*
X004173Y009686D01*
X004113Y009746D01*
X004050Y009791D01*
X006163Y009791D01*
X007029Y008925D01*
X016911Y008925D01*
X017451Y008421D01*
X017412Y008328D01*
X017412Y001130D01*
X017408Y001086D01*
X017374Y001005D01*
X017312Y000942D01*
X017231Y000909D01*
X017187Y000904D01*
X002288Y000904D01*
X002576Y001093D01*
X002857Y001453D01*
X003005Y001886D01*
X003005Y002343D01*
X002857Y002775D01*
X002576Y003136D01*
X002604Y003100D02*
X003234Y003100D01*
X003255Y003002D02*
X002680Y003002D01*
X002757Y002903D02*
X003296Y002903D01*
X003363Y002805D02*
X002834Y002805D01*
X002880Y002706D02*
X003478Y002706D01*
X003715Y002706D02*
X003815Y002706D01*
X003815Y002805D02*
X003715Y002805D01*
X003715Y002903D02*
X003815Y002903D01*
X003815Y003002D02*
X003715Y003002D01*
X003715Y003100D02*
X003815Y003100D01*
X003815Y003396D02*
X003715Y003396D01*
X003715Y003494D02*
X003815Y003494D01*
X003815Y003593D02*
X003715Y003593D01*
X003456Y003593D02*
X000426Y003593D01*
X000426Y003691D02*
X005270Y003691D01*
X005218Y003593D02*
X004075Y003593D01*
X004181Y003494D02*
X005190Y003494D01*
X005366Y003801D02*
X005434Y003850D01*
X005509Y003888D01*
X005612Y004184D02*
X000426Y004184D01*
X000426Y004282D02*
X005546Y004282D01*
X005546Y004381D02*
X000426Y004381D01*
X000426Y004479D02*
X005546Y004479D01*
X005564Y004578D02*
X000426Y004578D01*
X000426Y004676D02*
X005546Y004676D01*
X005546Y004775D02*
X000426Y004775D01*
X000426Y004873D02*
X005546Y004873D01*
X005546Y004972D02*
X000426Y004972D01*
X000426Y005070D02*
X005546Y005070D01*
X005564Y005165D02*
X005614Y005165D01*
X005614Y005165D01*
X005614Y005165D01*
X005564Y005165D01*
X005564Y005169D02*
X000426Y005169D01*
X000426Y005267D02*
X005546Y005267D01*
X005546Y005366D02*
X000426Y005366D01*
X000426Y005464D02*
X005546Y005464D01*
X005546Y005563D02*
X000426Y005563D01*
X000426Y005661D02*
X005546Y005661D01*
X005564Y005760D02*
X000426Y005760D01*
X000426Y005858D02*
X005546Y005858D01*
X005546Y005957D02*
X000426Y005957D01*
X000426Y006055D02*
X005546Y006055D01*
X005546Y006154D02*
X000426Y006154D01*
X000426Y006252D02*
X005546Y006252D01*
X005564Y006346D02*
X005614Y006346D01*
X005614Y006346D01*
X005614Y006346D01*
X005564Y006346D01*
X005564Y006351D02*
X000426Y006351D01*
X000426Y006449D02*
X005546Y006449D01*
X005546Y006548D02*
X000426Y006548D01*
X000426Y006646D02*
X005546Y006646D01*
X005564Y006740D02*
X005614Y006740D01*
X005614Y006740D01*
X005564Y006740D01*
X005564Y006745D02*
X000426Y006745D01*
X000426Y006843D02*
X005568Y006843D01*
X005517Y006839D02*
X006088Y006937D01*
X006088Y006907D02*
X006088Y006770D01*
X006088Y006907D01*
X006088Y006907D01*
X006088Y006843D02*
X006088Y006843D01*
X006088Y006770D02*
X006088Y006770D01*
X005614Y006937D02*
X005564Y006937D01*
X005614Y006937D01*
X005614Y006937D01*
X005564Y006942D02*
X000426Y006942D01*
X000426Y007040D02*
X005546Y007040D01*
X005546Y007139D02*
X000426Y007139D01*
X000426Y007237D02*
X005546Y007237D01*
X005546Y007336D02*
X000426Y007336D01*
X000426Y007434D02*
X005546Y007434D01*
X005564Y007533D02*
X000426Y007533D01*
X000426Y007631D02*
X005546Y007631D01*
X005546Y007730D02*
X000426Y007730D01*
X000426Y007828D02*
X005546Y007828D01*
X005546Y007927D02*
X000426Y007927D01*
X000426Y008025D02*
X005546Y008025D01*
X005620Y008124D02*
X000455Y008124D01*
X000562Y008222D02*
X006737Y008222D01*
X006835Y008321D02*
X002126Y008321D01*
X002151Y008331D02*
X002151Y008331D01*
X002239Y008419D02*
X006934Y008419D01*
X007032Y008518D02*
X002321Y008518D01*
X002309Y008489D02*
X002309Y008489D01*
X002361Y008616D02*
X005492Y008616D01*
X005509Y008608D02*
X005589Y008582D01*
X005664Y008570D01*
X005664Y009052D01*
X005764Y009052D01*
X005764Y008570D01*
X005839Y008582D01*
X005919Y008608D01*
X005994Y008646D01*
X006062Y008695D01*
X006121Y008755D01*
X006171Y008823D01*
X006209Y008897D01*
X006235Y008977D01*
X006247Y009052D01*
X005764Y009052D01*
X005764Y009152D01*
X006247Y009152D01*
X006235Y009227D01*
X006209Y009307D01*
X006171Y009382D01*
X006121Y009450D01*
X006062Y009510D01*
X005994Y009559D01*
X005919Y009597D01*
X005839Y009623D01*
X005764Y009635D01*
X005764Y009152D01*
X005664Y009152D01*
X005664Y009052D01*
X005182Y009052D01*
X005193Y008977D01*
X005219Y008897D01*
X005258Y008823D01*
X005307Y008755D01*
X005366Y008695D01*
X005434Y008646D01*
X005509Y008608D01*
X005664Y008616D02*
X005764Y008616D01*
X005764Y008715D02*
X005664Y008715D01*
X005664Y008813D02*
X005764Y008813D01*
X005764Y008912D02*
X005664Y008912D01*
X005664Y009010D02*
X005764Y009010D01*
X005764Y009109D02*
X006846Y009109D01*
X006944Y009010D02*
X006240Y009010D01*
X006214Y008912D02*
X016925Y008912D01*
X017031Y008813D02*
X006164Y008813D01*
X006082Y008715D02*
X017137Y008715D01*
X017242Y008616D02*
X005936Y008616D01*
X005664Y009109D02*
X004247Y009109D01*
X004260Y009134D02*
X004286Y009214D01*
X004298Y009289D01*
X003815Y009289D01*
X003815Y008806D01*
X003890Y008818D01*
X003970Y008844D01*
X004045Y008882D01*
X004113Y008931D01*
X004173Y008991D01*
X004222Y009059D01*
X004260Y009134D01*
X004284Y009207D02*
X005190Y009207D01*
X005193Y009227D02*
X005182Y009152D01*
X005664Y009152D01*
X005664Y009635D01*
X005589Y009623D01*
X005509Y009597D01*
X005434Y009559D01*
X005366Y009510D01*
X005307Y009450D01*
X005258Y009382D01*
X005219Y009307D01*
X005193Y009227D01*
X005219Y009306D02*
X003815Y009306D01*
X003815Y009207D02*
X003715Y009207D01*
X003715Y009109D02*
X003815Y009109D01*
X003815Y009010D02*
X003715Y009010D01*
X003715Y008912D02*
X003815Y008912D01*
X003815Y008813D02*
X003715Y008813D01*
X003670Y008813D02*
X002394Y008813D01*
X002394Y008715D02*
X005347Y008715D01*
X005264Y008813D02*
X003861Y008813D01*
X004086Y008912D02*
X005215Y008912D01*
X005188Y009010D02*
X004187Y009010D01*
X003715Y009306D02*
X002394Y009306D01*
X002394Y009404D02*
X003235Y009404D01*
X003257Y009503D02*
X002394Y009503D01*
X002394Y009601D02*
X003300Y009601D01*
X003372Y009700D02*
X002394Y009700D01*
X002394Y010067D02*
X002394Y014824D01*
X002309Y015031D01*
X002304Y015036D01*
X002305Y015132D01*
X002327Y015155D01*
X002327Y015924D01*
X002229Y016022D01*
X001856Y016022D01*
X002501Y016181D01*
X002562Y016119D01*
X004512Y016119D01*
X004611Y016218D01*
X004774Y016218D01*
X004774Y016178D01*
X004873Y016080D01*
X005327Y016080D01*
X005426Y016178D01*
X005426Y016528D01*
X005483Y016585D01*
X005483Y016178D01*
X005582Y016080D01*
X005923Y016080D01*
X004673Y014830D01*
X004668Y014825D01*
X004507Y014758D01*
X004362Y014612D01*
X004301Y014466D01*
X004301Y014689D01*
X004291Y014727D01*
X004271Y014761D01*
X004243Y014789D01*
X004209Y014809D01*
X004171Y014819D01*
X003849Y014819D01*
X003849Y014367D01*
X003752Y014367D01*
X003752Y014270D01*
X003849Y014270D01*
X003849Y013819D01*
X004171Y013819D01*
X004209Y013829D01*
X004243Y013849D01*
X004271Y013877D01*
X004291Y013911D01*
X004301Y013949D01*
X004301Y014172D01*
X004362Y014025D01*
X004507Y013880D01*
X004698Y013801D01*
X004803Y013801D01*
X005381Y013222D01*
X005516Y013167D01*
X008946Y013167D01*
X008908Y013129D01*
X008908Y012990D01*
X008869Y012895D01*
X008869Y011320D01*
X008236Y010688D01*
X007121Y010688D01*
X006882Y010927D01*
X006882Y011140D01*
X006784Y011239D01*
X006330Y011239D01*
X006231Y011140D01*
X006231Y010904D01*
X006192Y010809D01*
X006192Y010664D01*
X006247Y010529D01*
X006661Y010116D01*
X006763Y010013D01*
X006897Y009958D01*
X007832Y009958D01*
X007909Y009773D01*
X008055Y009628D01*
X008245Y009549D01*
X008451Y009549D01*
X008642Y009628D01*
X008787Y009773D01*
X008866Y009964D01*
X008866Y010170D01*
X008832Y010252D01*
X009543Y010963D01*
X009578Y011045D01*
X009578Y010979D01*
X009633Y010844D01*
X009736Y010742D01*
X010389Y010089D01*
X010389Y009964D01*
X010468Y009773D01*
X010614Y009628D01*
X010804Y009549D01*
X011010Y009549D01*
X011201Y009628D01*
X011346Y009773D01*
X011425Y009964D01*
X011425Y010170D01*
X011346Y010360D01*
X011201Y010506D01*
X011010Y010585D01*
X010925Y010585D01*
X010307Y011202D01*
X010307Y013167D01*
X011029Y013167D01*
X011023Y013156D01*
X011013Y013118D01*
X011013Y012970D01*
X011370Y012970D01*
X011370Y012912D01*
X011013Y012912D01*
X011013Y012764D01*
X011023Y012726D01*
X011043Y012691D01*
X011071Y012663D01*
X011105Y012644D01*
X011143Y012633D01*
X011370Y012633D01*
X011370Y012912D01*
X011428Y012912D01*
X011428Y012633D01*
X011542Y012633D01*
X011466Y012558D01*
X011093Y012558D01*
X010995Y012459D01*
X010995Y012005D01*
X011093Y011907D01*
X011705Y011907D01*
X011804Y012005D01*
X011804Y012142D01*
X011861Y012199D01*
X011861Y011985D01*
X011959Y011887D01*
X012453Y011887D01*
X012552Y011985D01*
X012552Y012396D01*
X012626Y012321D01*
X012724Y012281D01*
X012767Y012281D01*
X012767Y011985D01*
X012834Y011918D01*
X012787Y011871D01*
X012773Y011835D01*
X012688Y011751D01*
X012688Y011139D01*
X012786Y011041D01*
X013240Y011041D01*
X013339Y011139D01*
X013339Y011671D01*
X013378Y011766D01*
X013378Y011907D01*
X013574Y011907D01*
X013672Y011808D01*
X014126Y011808D01*
X014225Y011907D01*
X014225Y012281D01*
X014281Y012281D01*
X014322Y012240D01*
X014322Y011907D01*
X014420Y011808D01*
X014874Y011808D01*
X014973Y011907D01*
X014973Y012400D01*
X014874Y012499D01*
X014817Y012499D01*
X014602Y012714D01*
X015108Y012714D01*
X015661Y012160D01*
X015736Y012085D01*
X015834Y012044D01*
X015956Y012044D01*
X015956Y011651D01*
X016054Y011552D01*
X016744Y011552D01*
X016831Y011639D01*
X017232Y011238D01*
X017334Y011135D01*
X017468Y011080D01*
X017786Y011080D01*
X017786Y010942D01*
X017885Y010844D01*
X017885Y009483D01*
X017940Y009348D01*
X018988Y008301D01*
X019122Y008245D01*
X019165Y008245D01*
X019158Y008219D01*
X019158Y007648D01*
X019458Y007648D01*
X019458Y007548D01*
X019558Y007548D01*
X019558Y006848D01*
X019728Y006848D01*
X019766Y006858D01*
X019800Y006878D01*
X019828Y006906D01*
X019830Y006909D01*
X019908Y006830D01*
X020448Y006830D01*
X020526Y006909D01*
X020528Y006906D01*
X020556Y006878D01*
X020590Y006858D01*
X020628Y006848D01*
X020798Y006848D01*
X020798Y007548D01*
X020898Y007548D01*
X020898Y006848D01*
X021068Y006848D01*
X021106Y006858D01*
X021140Y006878D01*
X021168Y006906D01*
X021170Y006909D01*
X021248Y006830D01*
X021788Y006830D01*
X021853Y006895D01*
X021919Y006830D01*
X022458Y006830D01*
X022556Y006928D01*
X022556Y007222D01*
X023243Y007222D01*
X023378Y007277D01*
X023480Y007380D01*
X023913Y007812D01*
X024105Y007812D01*
X024105Y007517D01*
X024204Y007419D01*
X024894Y007419D01*
X024993Y007517D01*
X024993Y008837D01*
X024894Y008936D01*
X024204Y008936D01*
X024105Y008837D01*
X024105Y008542D01*
X023689Y008542D01*
X023555Y008487D01*
X023020Y007952D01*
X022556Y007952D01*
X022556Y008031D01*
X023035Y008510D01*
X023091Y008644D01*
X023091Y010450D01*
X023807Y010450D01*
X023858Y010399D01*
X023992Y010344D01*
X024025Y010344D01*
X023936Y010255D01*
X023936Y009485D01*
X024034Y009387D01*
X025512Y009387D01*
X025611Y009485D01*
X025611Y010255D01*
X025512Y010353D01*
X025253Y010353D01*
X025253Y011078D01*
X025155Y011177D01*
X024415Y011177D01*
X024317Y011078D01*
X024317Y011074D01*
X024216Y011074D01*
X024165Y011124D01*
X024031Y011180D01*
X021751Y011180D01*
X021652Y011081D01*
X021652Y010548D01*
X021751Y010450D01*
X022361Y010450D01*
X022361Y008868D01*
X021883Y008390D01*
X021883Y008796D01*
X021990Y008796D01*
X022089Y008895D01*
X022089Y009979D01*
X021990Y010078D01*
X021826Y010078D01*
X021824Y010079D01*
X021816Y010095D01*
X021773Y010130D01*
X021134Y010769D01*
X021134Y010844D01*
X021233Y010942D01*
X021233Y011948D01*
X021134Y012046D01*
X020404Y012046D01*
X020306Y011948D01*
X020306Y010942D01*
X020404Y010844D01*
X020404Y010546D01*
X020460Y010411D01*
X021044Y009827D01*
X021044Y008895D01*
X021143Y008796D01*
X021153Y008796D01*
X021153Y008306D01*
X021140Y008319D01*
X021106Y008339D01*
X021068Y008349D01*
X020898Y008349D01*
X020898Y007648D01*
X020798Y007648D01*
X020798Y008349D01*
X020628Y008349D01*
X020590Y008339D01*
X020556Y008319D01*
X020543Y008306D01*
X020543Y008447D01*
X020487Y008582D01*
X020254Y008815D01*
X020346Y008815D01*
X020384Y008825D01*
X020418Y008845D01*
X020446Y008872D01*
X020466Y008907D01*
X020476Y008945D01*
X020476Y009387D01*
X020022Y009387D01*
X020022Y009487D01*
X019922Y009487D01*
X019922Y009387D01*
X019468Y009387D01*
X019468Y008975D01*
X019346Y008975D01*
X018615Y009706D01*
X018615Y010844D01*
X018713Y010942D01*
X018713Y011948D01*
X018615Y012046D01*
X017885Y012046D01*
X017786Y011948D01*
X017786Y011810D01*
X017692Y011810D01*
X016882Y012620D01*
X016843Y012636D01*
X016843Y012971D01*
X016744Y013070D01*
X016054Y013070D01*
X015956Y012971D01*
X015956Y012620D01*
X015409Y013167D01*
X017574Y013167D01*
X017708Y013222D01*
X018008Y013521D01*
X018110Y013624D01*
X018166Y013758D01*
X018166Y013951D01*
X018240Y014025D01*
X018301Y014172D01*
X018362Y014025D01*
X018507Y013880D01*
X018698Y013801D01*
X018904Y013801D01*
X019094Y013880D01*
X019240Y014025D01*
X019301Y014172D01*
X019362Y014025D01*
X019507Y013880D01*
X019698Y013801D01*
X019904Y013801D01*
X020094Y013880D01*
X020240Y014025D01*
X020301Y014172D01*
X020362Y014025D01*
X020507Y013880D01*
X020698Y013801D01*
X020904Y013801D01*
X021094Y013880D01*
X021240Y014025D01*
X021319Y014216D01*
X021319Y014422D01*
X021240Y014612D01*
X021174Y014679D01*
X021174Y014919D01*
X021213Y014958D01*
X021213Y015412D01*
X021115Y015511D01*
X020976Y015511D01*
X020881Y015550D01*
X020736Y015550D01*
X020641Y015511D01*
X020503Y015511D01*
X020404Y015412D01*
X020404Y014958D01*
X020444Y014919D01*
X020444Y014695D01*
X020362Y014612D01*
X020301Y014466D01*
X020240Y014612D01*
X020150Y014702D01*
X020150Y014958D01*
X020189Y014997D01*
X020189Y015452D01*
X020091Y015550D01*
X019953Y015550D01*
X019858Y015589D01*
X019712Y015589D01*
X019617Y015550D01*
X019479Y015550D01*
X019381Y015452D01*
X019381Y014997D01*
X019420Y014958D01*
X019420Y014671D01*
X019362Y014612D01*
X019301Y014466D01*
X019240Y014612D01*
X019166Y014687D01*
X019166Y014919D01*
X019205Y014958D01*
X019205Y015412D01*
X019107Y015511D01*
X018968Y015511D01*
X018873Y015550D01*
X018728Y015550D01*
X018633Y015511D01*
X018495Y015511D01*
X018396Y015412D01*
X018396Y014958D01*
X018436Y014919D01*
X018436Y014687D01*
X018362Y014612D01*
X018301Y014466D01*
X018240Y014612D01*
X018094Y014758D01*
X017904Y014837D01*
X017698Y014837D01*
X017507Y014758D01*
X017362Y014612D01*
X017301Y014466D01*
X017240Y014612D01*
X017094Y014758D01*
X017028Y014786D01*
X017028Y014878D01*
X016895Y015011D01*
X016895Y015011D01*
X016218Y015688D01*
X013099Y015688D01*
X013123Y015746D01*
X013123Y015884D01*
X013107Y015923D01*
X013715Y015923D01*
X013813Y016022D01*
X013813Y016139D01*
X014366Y016139D01*
X014464Y016180D01*
X014539Y016255D01*
X014696Y016412D01*
X014710Y016446D01*
X014710Y016077D01*
X014720Y016039D01*
X014740Y016005D01*
X014768Y015977D01*
X014802Y015957D01*
X014840Y015947D01*
X014970Y015947D01*
X014970Y016522D01*
X014990Y016522D01*
X014990Y015947D01*
X015120Y015947D01*
X015158Y015957D01*
X015192Y015977D01*
X015220Y016005D01*
X015230Y016022D01*
X015240Y016005D01*
X015268Y015977D01*
X015302Y015957D01*
X015340Y015947D01*
X015470Y015947D01*
X015470Y016522D01*
X015490Y016522D01*
X015490Y015947D01*
X015620Y015947D01*
X015658Y015957D01*
X015692Y015977D01*
X015720Y016005D01*
X015730Y016022D01*
X015740Y016005D01*
X015768Y015977D01*
X015802Y015957D01*
X015840Y015947D01*
X015970Y015947D01*
X015970Y016522D01*
X015990Y016522D01*
X015990Y015947D01*
X016120Y015947D01*
X016158Y015957D01*
X016192Y015977D01*
X016220Y016005D01*
X016230Y016022D01*
X016240Y016005D01*
X016268Y015977D01*
X016302Y015957D01*
X016340Y015947D01*
X016470Y015947D01*
X016470Y016522D01*
X016490Y016522D01*
X016490Y015947D01*
X016620Y015947D01*
X016658Y015957D01*
X016692Y015977D01*
X016720Y016005D01*
X016740Y016039D01*
X016750Y016077D01*
X016750Y016522D01*
X016490Y016522D01*
X016490Y016542D01*
X016750Y016542D01*
X016750Y016987D01*
X016740Y017025D01*
X016720Y017059D01*
X016692Y017087D01*
X016658Y017107D01*
X016620Y017117D01*
X016490Y017117D01*
X016490Y016542D01*
X016470Y016542D01*
X016470Y016522D01*
X016210Y016522D01*
X015990Y016522D01*
X015990Y016542D01*
X016470Y016542D01*
X016470Y017117D01*
X016340Y017117D01*
X016302Y017107D01*
X016268Y017087D01*
X016192Y017087D01*
X016158Y017107D01*
X016120Y017117D01*
X015990Y017117D01*
X015990Y016542D01*
X015970Y016542D01*
X015970Y016522D01*
X015710Y016522D01*
X015490Y016522D01*
X015490Y016542D01*
X015970Y016542D01*
X015970Y017117D01*
X015840Y017117D01*
X015802Y017107D01*
X015768Y017087D01*
X015692Y017087D01*
X015658Y017107D01*
X015620Y017117D01*
X015490Y017117D01*
X015490Y016542D01*
X015470Y016542D01*
X015470Y016522D01*
X015210Y016522D01*
X014990Y016522D01*
X014990Y016542D01*
X015470Y016542D01*
X015470Y017117D01*
X015470Y017117D01*
X015487Y017124D01*
X015562Y017199D01*
X015798Y017436D01*
X015839Y017534D01*
X015839Y017612D01*
X016086Y017366D01*
X016161Y017291D01*
X016259Y017250D01*
X016891Y017250D01*
X016891Y017132D01*
X016989Y017034D01*
X017640Y017034D01*
X017689Y017082D01*
X017737Y017034D01*
X018388Y017034D01*
X018487Y017132D01*
X018487Y017753D01*
X018656Y017753D01*
X018683Y017726D01*
X018811Y017673D01*
X018948Y017673D01*
X019076Y017726D01*
X019139Y017790D01*
X019146Y017793D01*
X020050Y017793D01*
X020050Y017753D01*
X020138Y017665D01*
X020050Y017578D01*
X020050Y016966D01*
X020093Y016922D01*
X020078Y016896D01*
X020068Y016858D01*
X020068Y016631D01*
X020347Y016631D01*
X020347Y016574D01*
X020068Y016574D01*
X020068Y016346D01*
X020078Y016308D01*
X020098Y016274D01*
X020126Y016246D01*
X020160Y016226D01*
X020198Y016216D01*
X020347Y016216D01*
X020347Y016574D01*
X020404Y016574D01*
X020404Y016631D01*
X020683Y016631D01*
X020683Y016858D01*
X020673Y016896D01*
X020658Y016922D01*
X020701Y016966D01*
X020701Y017044D01*
X020706Y017044D01*
X020759Y017097D01*
X020759Y016966D01*
X020787Y016937D01*
X020759Y016908D01*
X020759Y016297D01*
X020854Y016201D01*
X020837Y016201D01*
X020837Y015922D01*
X021195Y015922D01*
X021195Y016071D01*
X021185Y016109D01*
X021165Y016143D01*
X021137Y016171D01*
X021103Y016191D01*
X021076Y016198D01*
X021311Y016198D01*
X021410Y016297D01*
X021410Y016908D01*
X021381Y016937D01*
X021410Y016966D01*
X021410Y017005D01*
X021456Y017005D01*
X021554Y016907D01*
X023504Y016907D01*
X023593Y016995D01*
X024335Y016932D01*
X024349Y016900D01*
X024481Y016769D01*
X024653Y016697D01*
X024839Y016697D01*
X025011Y016769D01*
X025143Y016900D01*
X025214Y017072D01*
X025214Y017258D01*
X025143Y017431D01*
X025011Y017562D01*
X024839Y017633D01*
X024653Y017633D01*
X024481Y017562D01*
X024382Y017464D01*
X023603Y017529D01*
X023603Y017538D01*
X023504Y017637D01*
X021554Y017637D01*
X021456Y017538D01*
X021410Y017538D01*
X021410Y017578D01*
X021322Y017665D01*
X021410Y017753D01*
X021410Y017793D01*
X021456Y017793D01*
X021554Y017694D01*
X023504Y017694D01*
X023603Y017793D01*
X023603Y017807D01*
X024380Y017869D01*
X024481Y017769D01*
X024653Y017697D01*
X024839Y017697D01*
X025011Y017769D01*
X025143Y017900D01*
X025214Y018072D01*
X025214Y018258D01*
X025143Y018431D01*
X025011Y018562D01*
X024839Y018633D01*
X024653Y018633D01*
X024481Y018562D01*
X024349Y018431D01*
X024336Y018400D01*
X023588Y018341D01*
X023504Y018424D01*
X021554Y018424D01*
X021456Y018326D01*
X021410Y018326D01*
X021410Y018365D01*
X021351Y018424D01*
X021351Y018482D01*
X021410Y018541D01*
X021410Y019152D01*
X021342Y019220D01*
X021410Y019289D01*
X021410Y019328D01*
X021605Y019328D01*
X021605Y019211D01*
X021554Y019211D01*
X021456Y019113D01*
X021456Y018580D01*
X021554Y018481D01*
X023504Y018481D01*
X023603Y018580D01*
X023603Y018601D01*
X024437Y018812D01*
X024481Y018769D01*
X024653Y018697D01*
X024839Y018697D01*
X025011Y018769D01*
X025143Y018900D01*
X025214Y019072D01*
X025214Y019258D01*
X025193Y019308D01*
X025315Y019308D01*
X025414Y019407D01*
X025414Y020176D01*
X025315Y020274D01*
X025243Y020274D01*
X025411Y020384D01*
X025680Y020730D01*
X025680Y002790D01*
X025411Y003136D01*
X025028Y003386D01*
X024585Y003498D01*
X024129Y003460D01*
X023711Y003277D01*
X023374Y002967D01*
X023157Y002565D01*
X023096Y002204D01*
X023096Y003481D01*
X020898Y003481D01*
X020898Y001732D01*
X022966Y001732D01*
X023004Y001742D01*
X023039Y001762D01*
X023066Y001790D01*
X023086Y001824D01*
X023096Y001862D01*
X023096Y002025D01*
X023157Y001663D01*
X023374Y001261D01*
X023711Y000952D01*
X023819Y000904D01*
X018761Y000904D01*
X018717Y000909D01*
X018636Y000942D01*
X018574Y001005D01*
X018540Y001086D01*
X018536Y001130D01*
X018536Y008328D01*
X018450Y008535D01*
X018292Y008693D01*
X018086Y008778D01*
X017862Y008778D01*
X017656Y008693D01*
X017656Y008693D01*
X017596Y008633D01*
X017029Y009201D01*
X007147Y009201D01*
X006281Y010067D01*
X002394Y010067D01*
X002394Y010094D02*
X006683Y010094D01*
X006585Y010192D02*
X002394Y010192D01*
X002394Y010291D02*
X006486Y010291D01*
X006388Y010389D02*
X002394Y010389D01*
X002394Y010488D02*
X006289Y010488D01*
X006224Y010586D02*
X002394Y010586D01*
X002394Y010685D02*
X006192Y010685D01*
X006192Y010783D02*
X002394Y010783D01*
X002394Y010882D02*
X006222Y010882D01*
X006231Y010980D02*
X002394Y010980D01*
X002394Y011079D02*
X006231Y011079D01*
X006268Y011177D02*
X002394Y011177D01*
X002394Y011276D02*
X008824Y011276D01*
X008869Y011374D02*
X002394Y011374D01*
X002394Y011473D02*
X005893Y011473D01*
X005885Y011485D02*
X005905Y011451D01*
X005933Y011423D01*
X005967Y011404D01*
X006005Y011393D01*
X006154Y011393D01*
X006154Y011692D01*
X005875Y011692D01*
X005875Y011524D01*
X005885Y011485D01*
X005875Y011571D02*
X002394Y011571D01*
X002394Y011670D02*
X005875Y011670D01*
X005875Y011749D02*
X006154Y011749D01*
X006154Y011692D01*
X006211Y011692D01*
X006211Y011393D01*
X006360Y011393D01*
X006398Y011404D01*
X006432Y011423D01*
X006460Y011451D01*
X006480Y011485D01*
X006490Y011524D01*
X006490Y011692D01*
X006211Y011692D01*
X006211Y011749D01*
X006154Y011749D01*
X006154Y012048D01*
X006005Y012048D01*
X005967Y012037D01*
X005933Y012018D01*
X005905Y011990D01*
X005885Y011956D01*
X005875Y011917D01*
X005875Y011749D01*
X005875Y011768D02*
X002394Y011768D01*
X002394Y011867D02*
X005875Y011867D01*
X005891Y011965D02*
X002394Y011965D01*
X002394Y012064D02*
X006348Y012064D01*
X006360Y012048D02*
X006211Y012048D01*
X006211Y011749D01*
X006490Y011749D01*
X006490Y011917D01*
X006489Y011924D01*
X006605Y011807D01*
X006605Y011474D01*
X006704Y011375D01*
X007158Y011375D01*
X007256Y011474D01*
X007256Y011967D01*
X007158Y012066D01*
X007100Y012066D01*
X006826Y012340D01*
X007099Y012340D01*
X007197Y012438D01*
X007197Y012517D01*
X007712Y012517D01*
X007778Y012451D01*
X007905Y012398D01*
X008043Y012398D01*
X008170Y012451D01*
X008268Y012548D01*
X008320Y012675D01*
X008320Y012813D01*
X008268Y012940D01*
X008170Y013038D01*
X008043Y013090D01*
X007905Y013090D01*
X007778Y013038D01*
X007712Y012971D01*
X007197Y012971D01*
X007197Y013050D01*
X007099Y013148D01*
X006645Y013148D01*
X006546Y013050D01*
X006546Y012620D01*
X006489Y012677D01*
X006489Y013050D01*
X006390Y013148D01*
X005936Y013148D01*
X005837Y013050D01*
X005837Y012438D01*
X005936Y012340D01*
X006072Y012340D01*
X006366Y012046D01*
X006360Y012048D01*
X006250Y012162D02*
X002394Y012162D01*
X002394Y012261D02*
X006151Y012261D01*
X005916Y012359D02*
X002394Y012359D01*
X002394Y012458D02*
X005837Y012458D01*
X005837Y012556D02*
X002394Y012556D01*
X002394Y012655D02*
X005837Y012655D01*
X005837Y012753D02*
X002394Y012753D01*
X002394Y012852D02*
X005837Y012852D01*
X005837Y012950D02*
X002394Y012950D01*
X002394Y013049D02*
X005837Y013049D01*
X005935Y013147D02*
X002394Y013147D01*
X002394Y013246D02*
X005358Y013246D01*
X005259Y013344D02*
X002394Y013344D01*
X002394Y013443D02*
X005161Y013443D01*
X005062Y013541D02*
X002394Y013541D01*
X002394Y013640D02*
X004964Y013640D01*
X004865Y013738D02*
X002394Y013738D01*
X002394Y013837D02*
X003380Y013837D01*
X003393Y013829D02*
X003431Y013819D01*
X003752Y013819D01*
X003752Y014270D01*
X003301Y014270D01*
X003301Y013949D01*
X003311Y013911D01*
X003331Y013877D01*
X003359Y013849D01*
X003393Y013829D01*
X003305Y013935D02*
X002394Y013935D01*
X002394Y014034D02*
X003301Y014034D01*
X003301Y014132D02*
X002394Y014132D01*
X002394Y014231D02*
X003301Y014231D01*
X003301Y014367D02*
X003752Y014367D01*
X003752Y014819D01*
X003431Y014819D01*
X003393Y014809D01*
X003359Y014789D01*
X003331Y014761D01*
X003311Y014727D01*
X003301Y014689D01*
X003301Y014367D01*
X003301Y014428D02*
X002394Y014428D01*
X002394Y014526D02*
X003301Y014526D01*
X003301Y014625D02*
X002394Y014625D01*
X002394Y014723D02*
X003310Y014723D01*
X003752Y014723D02*
X003849Y014723D01*
X003849Y014625D02*
X003752Y014625D01*
X003752Y014526D02*
X003849Y014526D01*
X003849Y014428D02*
X003752Y014428D01*
X003752Y014329D02*
X002394Y014329D01*
X002394Y014822D02*
X004661Y014822D01*
X004763Y014920D02*
X002354Y014920D01*
X002314Y015019D02*
X004862Y015019D01*
X004960Y015117D02*
X002305Y015117D01*
X002309Y015031D02*
X002309Y015031D01*
X002327Y015216D02*
X005059Y015216D01*
X005157Y015314D02*
X002327Y015314D01*
X002327Y015413D02*
X005256Y015413D01*
X005354Y015511D02*
X002327Y015511D01*
X002327Y015610D02*
X005453Y015610D01*
X005551Y015708D02*
X002327Y015708D01*
X002327Y015807D02*
X005650Y015807D01*
X005748Y015905D02*
X002327Y015905D01*
X002247Y016004D02*
X005847Y016004D01*
X005559Y016102D02*
X005349Y016102D01*
X005426Y016201D02*
X005483Y016201D01*
X005483Y016299D02*
X005426Y016299D01*
X005426Y016398D02*
X005483Y016398D01*
X005483Y016496D02*
X005426Y016496D01*
X004851Y016102D02*
X002182Y016102D01*
X001952Y016595D02*
X001507Y016595D01*
X001586Y016562D02*
X001414Y016633D01*
X001227Y016633D01*
X001055Y016562D01*
X000924Y016431D01*
X000852Y016258D01*
X000852Y016072D01*
X000873Y016022D01*
X000751Y016022D01*
X000652Y015924D01*
X000652Y015277D01*
X000637Y015274D01*
X000582Y015274D01*
X000576Y015269D01*
X000563Y015268D01*
X000445Y015295D01*
X000346Y015366D01*
X000336Y015381D01*
X000336Y018137D01*
X000405Y020801D01*
X000540Y020553D01*
X000842Y020274D01*
X000751Y020274D01*
X000652Y020176D01*
X000652Y019407D01*
X000751Y019308D01*
X000870Y019308D01*
X000870Y019215D01*
X001270Y019215D01*
X001270Y019115D01*
X000870Y019115D01*
X000870Y018846D01*
X000881Y018807D01*
X000900Y018773D01*
X000928Y018745D01*
X000963Y018726D01*
X001001Y018715D01*
X001270Y018715D01*
X001270Y019115D01*
X001370Y019115D01*
X001370Y018715D01*
X001640Y018715D01*
X001678Y018726D01*
X001713Y018745D01*
X001741Y018773D01*
X001760Y018807D01*
X001770Y018846D01*
X001770Y019115D01*
X001370Y019115D01*
X001370Y019215D01*
X001770Y019215D01*
X001770Y019308D01*
X002229Y019308D01*
X002327Y019407D01*
X002327Y020176D01*
X002300Y020203D01*
X002576Y020384D01*
X002857Y020745D01*
X003005Y021177D01*
X003005Y021634D01*
X002857Y022066D01*
X002576Y022427D01*
X002288Y022615D01*
X023819Y022615D01*
X023711Y022568D01*
X023374Y022258D01*
X023157Y021856D01*
X023081Y021406D01*
X023157Y020955D01*
X023374Y020553D01*
X023711Y020243D01*
X023777Y020214D01*
X023739Y020176D01*
X023739Y019407D01*
X023837Y019308D01*
X024224Y019308D01*
X023572Y019143D01*
X023504Y019211D01*
X022277Y019211D01*
X022138Y019351D01*
X022138Y019608D01*
X022165Y019635D01*
X022218Y019762D01*
X022218Y019900D01*
X022165Y020027D01*
X022068Y020124D01*
X021941Y020177D01*
X021803Y020177D01*
X021676Y020124D01*
X021578Y020027D01*
X021525Y019900D01*
X021525Y019861D01*
X021410Y019861D01*
X021410Y019900D01*
X021311Y019999D01*
X021021Y019999D01*
X021037Y020037D01*
X021037Y020175D01*
X020984Y020302D01*
X020887Y020400D01*
X020761Y020452D01*
X021021Y020712D01*
X021021Y021099D01*
X020747Y021374D01*
X020359Y021374D01*
X020288Y021303D01*
X020288Y021381D01*
X020155Y021515D01*
X020037Y021633D01*
X019916Y021633D01*
X020003Y021719D01*
X020003Y021856D01*
X019603Y021856D01*
X019603Y021956D01*
X019503Y021956D01*
X019503Y022356D01*
X019366Y022356D01*
X019103Y022092D01*
X019103Y021956D01*
X019503Y021956D01*
X019503Y021856D01*
X019103Y021856D01*
X019103Y021719D01*
X019189Y021633D01*
X018942Y021633D01*
X019021Y021712D01*
X019021Y022099D01*
X018747Y022374D01*
X018359Y022374D01*
X018085Y022099D01*
X018085Y021712D01*
X018164Y021633D01*
X017919Y021633D01*
X017786Y021500D01*
X017660Y021374D01*
X017359Y021374D01*
X017085Y021099D01*
X017085Y020712D01*
X017359Y020437D01*
X017747Y020437D01*
X018021Y020712D01*
X018021Y021092D01*
X018107Y021178D01*
X018164Y021178D01*
X018085Y021099D01*
X018085Y020712D01*
X018286Y020510D01*
X018286Y020262D01*
X018327Y020164D01*
X018693Y019798D01*
X018768Y019723D01*
X018866Y019682D01*
X019680Y019682D01*
X019707Y019655D01*
X019834Y019603D01*
X019972Y019603D01*
X020050Y019635D01*
X020050Y019289D01*
X020132Y019206D01*
X020126Y019203D01*
X020098Y019175D01*
X020078Y019141D01*
X020068Y019102D01*
X020068Y018875D01*
X020347Y018875D01*
X020347Y018818D01*
X020068Y018818D01*
X020068Y018590D01*
X020078Y018552D01*
X020098Y018518D01*
X020126Y018490D01*
X020160Y018470D01*
X020187Y018463D01*
X020148Y018463D01*
X020050Y018365D01*
X020050Y018326D01*
X019046Y018326D01*
X018948Y018366D01*
X018811Y018366D01*
X018683Y018313D01*
X018656Y018286D01*
X018487Y018286D01*
X018487Y018862D01*
X018388Y018960D01*
X017737Y018960D01*
X017689Y018912D01*
X017640Y018960D01*
X016989Y018960D01*
X016891Y018862D01*
X016891Y018744D01*
X016839Y018744D01*
X016768Y018815D01*
X016768Y019586D01*
X016779Y019597D01*
X016819Y019695D01*
X016819Y020510D01*
X017021Y020712D01*
X017021Y021099D01*
X016747Y021374D01*
X016398Y021374D01*
X016462Y021437D01*
X016747Y021437D01*
X017021Y021712D01*
X017021Y022099D01*
X016747Y022374D01*
X016359Y022374D01*
X016085Y022099D01*
X016085Y021814D01*
X016021Y021751D01*
X016021Y022099D01*
X015747Y022374D01*
X015359Y022374D01*
X015085Y022099D01*
X015085Y021712D01*
X015359Y021437D01*
X015747Y021437D01*
X015791Y021482D01*
X015778Y021451D01*
X015778Y021345D01*
X015797Y021300D01*
X015797Y021298D01*
X015739Y021356D01*
X015603Y021356D01*
X015603Y020956D01*
X015503Y020956D01*
X015503Y021356D01*
X015366Y021356D01*
X015103Y021092D01*
X015103Y020956D01*
X015503Y020956D01*
X015503Y020856D01*
X015103Y020856D01*
X015103Y020719D01*
X015366Y020456D01*
X015503Y020456D01*
X015503Y020856D01*
X015603Y020856D01*
X015603Y020456D01*
X015739Y020456D01*
X015797Y020513D01*
X015797Y020214D01*
X015769Y020242D01*
X015641Y020295D01*
X015504Y020295D01*
X015376Y020242D01*
X015310Y020176D01*
X012803Y020176D01*
X012737Y020242D01*
X012610Y020295D01*
X012472Y020295D01*
X012345Y020242D01*
X012247Y020145D01*
X012195Y020018D01*
X012195Y019880D01*
X012247Y019753D01*
X012257Y019743D01*
X012061Y019743D01*
X011811Y019993D01*
X011819Y020014D01*
X011819Y020510D01*
X012021Y020712D01*
X012021Y021099D01*
X011747Y021374D01*
X011359Y021374D01*
X011085Y021099D01*
X011085Y020712D01*
X011286Y020510D01*
X011286Y020215D01*
X006431Y020215D01*
X006429Y020216D01*
X006291Y020216D01*
X006289Y020215D01*
X005918Y020215D01*
X005839Y020294D01*
X005070Y020294D01*
X004991Y020215D01*
X003911Y020215D01*
X003819Y020307D01*
X003819Y020437D01*
X003922Y020437D01*
X004021Y020536D01*
X004021Y021275D01*
X003922Y021374D01*
X003183Y021374D01*
X003085Y021275D01*
X003085Y020536D01*
X003183Y020437D01*
X003286Y020437D01*
X003286Y020144D01*
X003327Y020046D01*
X003575Y019798D01*
X003650Y019723D01*
X003748Y019682D01*
X004971Y019682D01*
X004971Y019545D01*
X005054Y019462D01*
X005047Y019459D01*
X005019Y019431D01*
X005000Y019396D01*
X004989Y019358D01*
X004989Y019133D01*
X005404Y019133D01*
X005404Y019033D01*
X004989Y019033D01*
X004989Y018807D01*
X005000Y018769D01*
X005019Y018735D01*
X005047Y018707D01*
X005081Y018687D01*
X005120Y018677D01*
X005404Y018677D01*
X005404Y019033D01*
X005504Y019033D01*
X005504Y019133D01*
X005919Y019133D01*
X005919Y019358D01*
X005909Y019396D01*
X005889Y019431D01*
X005861Y019459D01*
X005855Y019462D01*
X005937Y019545D01*
X005937Y019682D01*
X006063Y019682D01*
X006066Y019674D01*
X006164Y019577D01*
X006291Y019524D01*
X006429Y019524D01*
X006556Y019577D01*
X006653Y019674D01*
X006657Y019682D01*
X011368Y019682D01*
X011724Y019325D01*
X011740Y019310D01*
X006502Y019310D01*
X006369Y019177D01*
X006369Y019177D01*
X006226Y019034D01*
X006093Y018901D01*
X006093Y018389D01*
X005990Y018286D01*
X004611Y018286D01*
X004611Y018326D01*
X004512Y018424D01*
X002562Y018424D01*
X002473Y018336D01*
X001731Y018398D01*
X001717Y018431D01*
X001586Y018562D01*
X001414Y018633D01*
X001227Y018633D01*
X001055Y018562D01*
X000924Y018431D01*
X000852Y018258D01*
X000852Y018072D01*
X000924Y017900D01*
X001055Y017769D01*
X001227Y017697D01*
X001414Y017697D01*
X001586Y017769D01*
X001684Y017867D01*
X002463Y017801D01*
X002463Y017793D01*
X002562Y017694D01*
X004512Y017694D01*
X004611Y017793D01*
X004611Y017832D01*
X005260Y017832D01*
X005227Y017799D01*
X005227Y017676D01*
X004873Y017676D01*
X004774Y017578D01*
X004774Y017538D01*
X004611Y017538D01*
X004512Y017637D01*
X002562Y017637D01*
X002463Y017538D01*
X002463Y017529D01*
X001684Y017464D01*
X001586Y017562D01*
X001414Y017633D01*
X001227Y017633D01*
X001055Y017562D01*
X000924Y017431D01*
X000852Y017258D01*
X000852Y017072D01*
X000924Y016900D01*
X001055Y016769D01*
X001227Y016697D01*
X001414Y016697D01*
X001586Y016769D01*
X001717Y016900D01*
X001731Y016932D01*
X002473Y016995D01*
X002562Y016907D01*
X004512Y016907D01*
X004611Y017005D01*
X004774Y017005D01*
X004774Y016966D01*
X004862Y016878D01*
X004774Y016790D01*
X004774Y016751D01*
X004611Y016751D01*
X004512Y016849D01*
X002562Y016849D01*
X002463Y016751D01*
X002463Y016720D01*
X001632Y016516D01*
X001586Y016562D01*
X001609Y016792D02*
X002504Y016792D01*
X002353Y016693D02*
X000336Y016693D01*
X000336Y016595D02*
X001134Y016595D01*
X000989Y016496D02*
X000336Y016496D01*
X000336Y016398D02*
X000910Y016398D01*
X000869Y016299D02*
X000336Y016299D01*
X000336Y016201D02*
X000852Y016201D01*
X000852Y016102D02*
X000336Y016102D01*
X000336Y016004D02*
X000732Y016004D01*
X000652Y015905D02*
X000336Y015905D01*
X000336Y015807D02*
X000652Y015807D01*
X000652Y015708D02*
X000336Y015708D01*
X000336Y015610D02*
X000652Y015610D01*
X000652Y015511D02*
X000336Y015511D01*
X000336Y015413D02*
X000652Y015413D01*
X000652Y015314D02*
X000418Y015314D01*
X000336Y016792D02*
X001032Y016792D01*
X000934Y016890D02*
X000336Y016890D01*
X000336Y016989D02*
X000887Y016989D01*
X000852Y017087D02*
X000336Y017087D01*
X000336Y017186D02*
X000852Y017186D01*
X000863Y017284D02*
X000336Y017284D01*
X000336Y017383D02*
X000904Y017383D01*
X000974Y017481D02*
X000336Y017481D01*
X000336Y017580D02*
X001098Y017580D01*
X001047Y017777D02*
X000336Y017777D01*
X000336Y017875D02*
X000949Y017875D01*
X000893Y017974D02*
X000336Y017974D01*
X000336Y018072D02*
X000852Y018072D01*
X000852Y018171D02*
X000337Y018171D01*
X000340Y018269D02*
X000857Y018269D01*
X000898Y018368D02*
X000342Y018368D01*
X000345Y018466D02*
X000959Y018466D01*
X001062Y018565D02*
X000347Y018565D01*
X000350Y018663D02*
X002481Y018663D01*
X002481Y018630D02*
X002492Y018592D01*
X002511Y018558D01*
X002539Y018530D01*
X002574Y018510D01*
X002612Y018500D01*
X003489Y018500D01*
X003489Y018798D01*
X003585Y018798D01*
X003585Y018500D01*
X004462Y018500D01*
X004500Y018510D01*
X004535Y018530D01*
X004563Y018558D01*
X004582Y018592D01*
X004593Y018630D01*
X004593Y018798D01*
X003585Y018798D01*
X003585Y018895D01*
X003489Y018895D01*
X003489Y019193D01*
X002612Y019193D01*
X002574Y019183D01*
X002539Y019163D01*
X002511Y019135D01*
X002492Y019101D01*
X002481Y019063D01*
X002481Y018895D01*
X003489Y018895D01*
X003489Y018798D01*
X002481Y018798D01*
X002481Y018630D01*
X002507Y018565D02*
X001579Y018565D01*
X001682Y018466D02*
X006093Y018466D01*
X006093Y018565D02*
X004567Y018565D01*
X004593Y018663D02*
X006093Y018663D01*
X006093Y018762D02*
X005905Y018762D01*
X005909Y018769D02*
X005919Y018807D01*
X005919Y019033D01*
X005504Y019033D01*
X005504Y018677D01*
X005789Y018677D01*
X005827Y018687D01*
X005861Y018707D01*
X005889Y018735D01*
X005909Y018769D01*
X005919Y018860D02*
X006093Y018860D01*
X006151Y018959D02*
X005919Y018959D01*
X005919Y019156D02*
X006348Y019156D01*
X006446Y019254D02*
X005919Y019254D01*
X005919Y019353D02*
X011697Y019353D01*
X011724Y019325D02*
X011724Y019325D01*
X011599Y019451D02*
X005869Y019451D01*
X005937Y019550D02*
X006228Y019550D01*
X006092Y019648D02*
X005937Y019648D01*
X006491Y019550D02*
X011500Y019550D01*
X011402Y019648D02*
X006628Y019648D01*
X006249Y019057D02*
X005504Y019057D01*
X005504Y018959D02*
X005404Y018959D01*
X005404Y019057D02*
X004593Y019057D01*
X004593Y019063D02*
X004582Y019101D01*
X004563Y019135D01*
X004535Y019163D01*
X004500Y019183D01*
X004462Y019193D01*
X003585Y019193D01*
X003585Y018895D01*
X004593Y018895D01*
X004593Y019063D01*
X004593Y018959D02*
X004989Y018959D01*
X004989Y018860D02*
X003585Y018860D01*
X003489Y018860D02*
X001770Y018860D01*
X001770Y018959D02*
X002481Y018959D01*
X002481Y019057D02*
X001770Y019057D01*
X001770Y019254D02*
X004989Y019254D01*
X004989Y019156D02*
X004542Y019156D01*
X004989Y019353D02*
X002273Y019353D01*
X002327Y019451D02*
X005040Y019451D01*
X004971Y019550D02*
X002327Y019550D01*
X002327Y019648D02*
X004971Y019648D01*
X005015Y020239D02*
X003887Y020239D01*
X003819Y020338D02*
X011286Y020338D01*
X011286Y020436D02*
X003819Y020436D01*
X004020Y020535D02*
X004261Y020535D01*
X004359Y020437D02*
X004747Y020437D01*
X005021Y020712D01*
X005021Y021099D01*
X004747Y021374D01*
X004359Y021374D01*
X004085Y021099D01*
X004085Y020712D01*
X004359Y020437D01*
X004163Y020633D02*
X004021Y020633D01*
X004021Y020732D02*
X004085Y020732D01*
X004085Y020830D02*
X004021Y020830D01*
X004021Y020929D02*
X004085Y020929D01*
X004085Y021027D02*
X004021Y021027D01*
X004021Y021126D02*
X004111Y021126D01*
X004021Y021224D02*
X004210Y021224D01*
X004308Y021323D02*
X003973Y021323D01*
X003829Y021520D02*
X004276Y021520D01*
X004359Y021437D02*
X004747Y021437D01*
X005021Y021712D01*
X005021Y022099D01*
X004747Y022374D01*
X004359Y022374D01*
X004157Y022172D01*
X003948Y022172D01*
X003747Y022374D01*
X003359Y022374D01*
X003085Y022099D01*
X003085Y021712D01*
X003359Y021437D01*
X003747Y021437D01*
X003948Y021639D01*
X004157Y021639D01*
X004359Y021437D01*
X004178Y021618D02*
X003928Y021618D01*
X003911Y022209D02*
X004195Y022209D01*
X004293Y022308D02*
X003812Y022308D01*
X003293Y022308D02*
X002669Y022308D01*
X002592Y022406D02*
X023535Y022406D01*
X023428Y022308D02*
X022812Y022308D01*
X022747Y022374D02*
X022359Y022374D01*
X022085Y022099D01*
X022085Y021712D01*
X022359Y021437D01*
X022747Y021437D01*
X023021Y021712D01*
X023021Y022099D01*
X022747Y022374D01*
X022911Y022209D02*
X023348Y022209D01*
X023294Y022111D02*
X023009Y022111D01*
X023021Y022012D02*
X023241Y022012D01*
X023188Y021914D02*
X023021Y021914D01*
X023021Y021815D02*
X023150Y021815D01*
X023133Y021717D02*
X023021Y021717D01*
X022928Y021618D02*
X023117Y021618D01*
X023101Y021520D02*
X022829Y021520D01*
X022739Y021356D02*
X022603Y021356D01*
X022603Y020956D01*
X022503Y020956D01*
X022503Y021356D01*
X022366Y021356D01*
X022103Y021092D01*
X022103Y020956D01*
X022503Y020956D01*
X022503Y020856D01*
X022103Y020856D01*
X022103Y020719D01*
X022366Y020456D01*
X022503Y020456D01*
X022503Y020856D01*
X022603Y020856D01*
X022603Y020956D01*
X023003Y020956D01*
X023003Y021092D01*
X022739Y021356D01*
X022772Y021323D02*
X023095Y021323D01*
X023084Y021421D02*
X020248Y021421D01*
X020276Y021520D02*
X020150Y021520D01*
X020178Y021618D02*
X020051Y021618D01*
X020085Y021712D02*
X020359Y021437D01*
X020747Y021437D01*
X021021Y021712D01*
X021021Y022099D01*
X020747Y022374D01*
X020359Y022374D01*
X020085Y022099D01*
X020085Y021712D01*
X020085Y021717D02*
X020000Y021717D01*
X020003Y021815D02*
X020085Y021815D01*
X020085Y021914D02*
X019603Y021914D01*
X019603Y021956D02*
X020003Y021956D01*
X020003Y022092D01*
X019739Y022356D01*
X019603Y022356D01*
X019603Y021956D01*
X019603Y022012D02*
X019503Y022012D01*
X019503Y021914D02*
X019021Y021914D01*
X019021Y022012D02*
X019103Y022012D01*
X019122Y022111D02*
X019009Y022111D01*
X018911Y022209D02*
X019220Y022209D01*
X019319Y022308D02*
X018812Y022308D01*
X018293Y022308D02*
X017787Y022308D01*
X017739Y022356D02*
X018003Y022092D01*
X018003Y021956D01*
X017603Y021956D01*
X017503Y021956D01*
X017503Y022356D01*
X017366Y022356D01*
X017103Y022092D01*
X017103Y021956D01*
X017503Y021956D01*
X017503Y021856D01*
X017103Y021856D01*
X017103Y021719D01*
X017366Y021456D01*
X017503Y021456D01*
X017503Y021856D01*
X017603Y021856D01*
X017603Y021956D01*
X017603Y022356D01*
X017739Y022356D01*
X017603Y022308D02*
X017503Y022308D01*
X017503Y022209D02*
X017603Y022209D01*
X017603Y022111D02*
X017503Y022111D01*
X017503Y022012D02*
X017603Y022012D01*
X017603Y021914D02*
X018085Y021914D01*
X018085Y022012D02*
X018003Y022012D01*
X017984Y022111D02*
X018096Y022111D01*
X018195Y022209D02*
X017885Y022209D01*
X018003Y021856D02*
X017603Y021856D01*
X017603Y021456D01*
X017739Y021456D01*
X018003Y021719D01*
X018003Y021856D01*
X018003Y021815D02*
X018085Y021815D01*
X018085Y021717D02*
X018000Y021717D01*
X017905Y021618D02*
X017902Y021618D01*
X017806Y021520D02*
X017803Y021520D01*
X017708Y021421D02*
X016445Y021421D01*
X016798Y021323D02*
X017308Y021323D01*
X017210Y021224D02*
X016896Y021224D01*
X016995Y021126D02*
X017111Y021126D01*
X017085Y021027D02*
X017021Y021027D01*
X017021Y020929D02*
X017085Y020929D01*
X017085Y020830D02*
X017021Y020830D01*
X017021Y020732D02*
X017085Y020732D01*
X017163Y020633D02*
X016943Y020633D01*
X016844Y020535D02*
X017261Y020535D01*
X016819Y020436D02*
X018286Y020436D01*
X018286Y020338D02*
X016819Y020338D01*
X016819Y020239D02*
X018296Y020239D01*
X018350Y020141D02*
X016819Y020141D01*
X016819Y020042D02*
X018449Y020042D01*
X018547Y019944D02*
X016819Y019944D01*
X016819Y019845D02*
X018646Y019845D01*
X018744Y019747D02*
X016819Y019747D01*
X016800Y019648D02*
X019724Y019648D01*
X020050Y019550D02*
X016768Y019550D01*
X016768Y019451D02*
X020050Y019451D01*
X020050Y019353D02*
X016768Y019353D01*
X016768Y019254D02*
X020084Y019254D01*
X020087Y019156D02*
X016768Y019156D01*
X016768Y019057D02*
X020068Y019057D01*
X020068Y018959D02*
X018390Y018959D01*
X018487Y018860D02*
X020347Y018860D01*
X020068Y018762D02*
X018487Y018762D01*
X018487Y018663D02*
X020068Y018663D01*
X020075Y018565D02*
X018487Y018565D01*
X018487Y018466D02*
X020176Y018466D01*
X020053Y018368D02*
X018487Y018368D01*
X018487Y017678D02*
X018799Y017678D01*
X018960Y017678D02*
X020125Y017678D01*
X020052Y017580D02*
X018487Y017580D01*
X018487Y017481D02*
X020050Y017481D01*
X020050Y017383D02*
X018487Y017383D01*
X018487Y017284D02*
X020050Y017284D01*
X020050Y017186D02*
X018487Y017186D01*
X018442Y017087D02*
X020050Y017087D01*
X020050Y016989D02*
X016749Y016989D01*
X016750Y016890D02*
X020077Y016890D01*
X020068Y016792D02*
X016750Y016792D01*
X016750Y016693D02*
X020068Y016693D01*
X020068Y016496D02*
X016750Y016496D01*
X016750Y016398D02*
X020068Y016398D01*
X020084Y016299D02*
X016750Y016299D01*
X016750Y016201D02*
X018543Y016201D01*
X018545Y016201D02*
X018507Y016191D01*
X018472Y016171D01*
X018445Y016143D01*
X018425Y016109D01*
X018415Y016071D01*
X018415Y015922D01*
X018772Y015922D01*
X018772Y015865D01*
X018415Y015865D01*
X018415Y015716D01*
X018425Y015678D01*
X018445Y015644D01*
X018472Y015616D01*
X018507Y015596D01*
X018545Y015586D01*
X018772Y015586D01*
X018772Y015865D01*
X018830Y015865D01*
X018830Y015922D01*
X019187Y015922D01*
X019187Y016071D01*
X019177Y016109D01*
X019157Y016143D01*
X019129Y016171D01*
X019095Y016191D01*
X019057Y016201D01*
X018830Y016201D01*
X018830Y015922D01*
X018772Y015922D01*
X018772Y016201D01*
X018545Y016201D01*
X018423Y016102D02*
X016750Y016102D01*
X016719Y016004D02*
X018415Y016004D01*
X018415Y015807D02*
X013123Y015807D01*
X013115Y015905D02*
X018772Y015905D01*
X018830Y015905D02*
X019756Y015905D01*
X019756Y015904D02*
X019399Y015904D01*
X019399Y015756D01*
X019409Y015718D01*
X019429Y015683D01*
X019457Y015656D01*
X019491Y015636D01*
X019529Y015626D01*
X019756Y015626D01*
X019756Y015904D01*
X019814Y015904D01*
X019814Y015626D01*
X020041Y015626D01*
X020079Y015636D01*
X020113Y015656D01*
X020141Y015683D01*
X020161Y015718D01*
X020171Y015756D01*
X020171Y015904D01*
X019814Y015904D01*
X019814Y015962D01*
X020171Y015962D01*
X020171Y016110D01*
X020161Y016148D01*
X020141Y016183D01*
X020113Y016211D01*
X020079Y016230D01*
X020041Y016241D01*
X019814Y016241D01*
X019814Y015962D01*
X019756Y015962D01*
X019756Y015904D01*
X019814Y015905D02*
X020780Y015905D01*
X020780Y015922D02*
X020780Y015865D01*
X020837Y015865D01*
X020837Y015586D01*
X021065Y015586D01*
X021103Y015596D01*
X021137Y015616D01*
X021165Y015644D01*
X021185Y015678D01*
X021195Y015716D01*
X021195Y015865D01*
X020837Y015865D01*
X020837Y015922D01*
X020780Y015922D01*
X020422Y015922D01*
X020422Y016071D01*
X020433Y016109D01*
X020452Y016143D01*
X020480Y016171D01*
X020515Y016191D01*
X020553Y016201D01*
X020780Y016201D01*
X020780Y015922D01*
X020780Y015865D02*
X020422Y015865D01*
X020422Y015716D01*
X020433Y015678D01*
X020452Y015644D01*
X020480Y015616D01*
X020515Y015596D01*
X020553Y015586D01*
X020780Y015586D01*
X020780Y015865D01*
X020780Y015807D02*
X020837Y015807D01*
X020837Y015905D02*
X023739Y015905D01*
X023739Y015924D02*
X023739Y015155D01*
X023837Y015056D01*
X025315Y015056D01*
X025414Y015155D01*
X025414Y015924D01*
X025315Y016022D01*
X025196Y016022D01*
X025196Y016115D01*
X024796Y016115D01*
X024796Y016215D01*
X025196Y016215D01*
X025196Y016485D01*
X025185Y016523D01*
X025166Y016557D01*
X025138Y016585D01*
X025104Y016605D01*
X025065Y016615D01*
X024796Y016615D01*
X024796Y016215D01*
X024696Y016215D01*
X024696Y016115D01*
X024296Y016115D01*
X024296Y016022D01*
X023837Y016022D01*
X023739Y015924D01*
X023819Y016004D02*
X021195Y016004D01*
X021186Y016102D02*
X024296Y016102D01*
X024296Y016215D02*
X024696Y016215D01*
X024696Y016615D01*
X024426Y016615D01*
X024388Y016605D01*
X024354Y016585D01*
X024326Y016557D01*
X024306Y016523D01*
X024296Y016485D01*
X024296Y016215D01*
X024296Y016299D02*
X023585Y016299D01*
X023585Y016268D02*
X023585Y016436D01*
X022578Y016436D01*
X022578Y016533D01*
X023585Y016533D01*
X023585Y016701D01*
X023574Y016739D01*
X023555Y016773D01*
X023527Y016801D01*
X023493Y016821D01*
X023454Y016831D01*
X022578Y016831D01*
X022578Y016533D01*
X022481Y016533D01*
X022481Y016831D01*
X021604Y016831D01*
X021566Y016821D01*
X021532Y016801D01*
X021504Y016773D01*
X021484Y016739D01*
X021474Y016701D01*
X021474Y016533D01*
X022481Y016533D01*
X022481Y016436D01*
X022578Y016436D01*
X022578Y016137D01*
X023454Y016137D01*
X023493Y016148D01*
X023527Y016167D01*
X023555Y016195D01*
X023574Y016230D01*
X023585Y016268D01*
X023558Y016201D02*
X024696Y016201D01*
X024696Y016299D02*
X024796Y016299D01*
X024796Y016201D02*
X025680Y016201D01*
X025680Y016299D02*
X025196Y016299D01*
X025196Y016398D02*
X025680Y016398D01*
X025680Y016496D02*
X025193Y016496D01*
X025122Y016595D02*
X025680Y016595D01*
X025680Y016693D02*
X023585Y016693D01*
X023585Y016595D02*
X024370Y016595D01*
X024299Y016496D02*
X022578Y016496D01*
X022481Y016496D02*
X021410Y016496D01*
X021474Y016436D02*
X021474Y016268D01*
X021484Y016230D01*
X021504Y016195D01*
X021532Y016167D01*
X021566Y016148D01*
X021604Y016137D01*
X022481Y016137D01*
X022481Y016436D01*
X021474Y016436D01*
X021474Y016398D02*
X021410Y016398D01*
X021410Y016299D02*
X021474Y016299D01*
X021500Y016201D02*
X021314Y016201D01*
X021410Y016595D02*
X021474Y016595D01*
X021474Y016693D02*
X021410Y016693D01*
X021410Y016792D02*
X021522Y016792D01*
X021410Y016890D02*
X024359Y016890D01*
X024457Y016792D02*
X023536Y016792D01*
X023586Y016989D02*
X023668Y016989D01*
X023561Y017580D02*
X024523Y017580D01*
X024400Y017481D02*
X024172Y017481D01*
X024472Y017777D02*
X023587Y017777D01*
X023561Y018368D02*
X023928Y018368D01*
X023848Y018663D02*
X025680Y018663D01*
X025680Y018565D02*
X025005Y018565D01*
X025107Y018466D02*
X025680Y018466D01*
X025680Y018368D02*
X025169Y018368D01*
X025209Y018269D02*
X025680Y018269D01*
X025680Y018171D02*
X025214Y018171D01*
X025214Y018072D02*
X025680Y018072D01*
X025680Y017974D02*
X025173Y017974D01*
X025118Y017875D02*
X025680Y017875D01*
X025680Y017777D02*
X025019Y017777D01*
X024968Y017580D02*
X025680Y017580D01*
X025680Y017678D02*
X021335Y017678D01*
X021408Y017580D02*
X021497Y017580D01*
X021471Y017777D02*
X021410Y017777D01*
X021407Y018368D02*
X021498Y018368D01*
X021351Y018466D02*
X024385Y018466D01*
X024487Y018565D02*
X023588Y018565D01*
X024237Y018762D02*
X024497Y018762D01*
X024995Y018762D02*
X025680Y018762D01*
X025680Y018860D02*
X025103Y018860D01*
X025167Y018959D02*
X025680Y018959D01*
X025680Y019057D02*
X025208Y019057D01*
X025214Y019156D02*
X025680Y019156D01*
X025680Y019254D02*
X025214Y019254D01*
X025360Y019353D02*
X025680Y019353D01*
X025680Y019451D02*
X025414Y019451D01*
X025414Y019550D02*
X025680Y019550D01*
X025680Y019648D02*
X025414Y019648D01*
X025414Y019747D02*
X025680Y019747D01*
X025680Y019845D02*
X025414Y019845D01*
X025414Y019944D02*
X025680Y019944D01*
X025680Y020042D02*
X025414Y020042D01*
X025414Y020141D02*
X025680Y020141D01*
X025680Y020239D02*
X025350Y020239D01*
X025340Y020338D02*
X025680Y020338D01*
X025680Y020436D02*
X025451Y020436D01*
X025528Y020535D02*
X025680Y020535D01*
X025680Y020633D02*
X025605Y020633D01*
X023719Y020239D02*
X021010Y020239D01*
X021037Y020141D02*
X021715Y020141D01*
X021594Y020042D02*
X021037Y020042D01*
X020949Y020338D02*
X023608Y020338D01*
X023501Y020436D02*
X020799Y020436D01*
X020844Y020535D02*
X021261Y020535D01*
X021359Y020437D02*
X021085Y020712D01*
X021085Y021099D01*
X021359Y021374D01*
X021747Y021374D01*
X022021Y021099D01*
X022021Y020712D01*
X021747Y020437D01*
X021359Y020437D01*
X021163Y020633D02*
X020943Y020633D01*
X021021Y020732D02*
X021085Y020732D01*
X021085Y020830D02*
X021021Y020830D01*
X021021Y020929D02*
X021085Y020929D01*
X021085Y021027D02*
X021021Y021027D01*
X020995Y021126D02*
X021111Y021126D01*
X021210Y021224D02*
X020896Y021224D01*
X020798Y021323D02*
X021308Y021323D01*
X021359Y021437D02*
X021747Y021437D01*
X022021Y021712D01*
X022021Y022099D01*
X021747Y022374D01*
X021359Y022374D01*
X021085Y022099D01*
X021085Y021712D01*
X021359Y021437D01*
X021276Y021520D02*
X020829Y021520D01*
X020928Y021618D02*
X021178Y021618D01*
X021085Y021717D02*
X021021Y021717D01*
X021021Y021815D02*
X021085Y021815D01*
X021085Y021914D02*
X021021Y021914D01*
X021021Y022012D02*
X021085Y022012D01*
X021096Y022111D02*
X021009Y022111D01*
X020911Y022209D02*
X021195Y022209D01*
X021293Y022308D02*
X020812Y022308D01*
X020293Y022308D02*
X019787Y022308D01*
X019885Y022209D02*
X020195Y022209D01*
X020096Y022111D02*
X019984Y022111D01*
X020003Y022012D02*
X020085Y022012D01*
X019603Y022111D02*
X019503Y022111D01*
X019503Y022209D02*
X019603Y022209D01*
X019603Y022308D02*
X019503Y022308D01*
X019103Y021815D02*
X019021Y021815D01*
X019021Y021717D02*
X019105Y021717D01*
X018111Y021126D02*
X018055Y021126D01*
X018085Y021027D02*
X018021Y021027D01*
X018021Y020929D02*
X018085Y020929D01*
X018085Y020830D02*
X018021Y020830D01*
X018021Y020732D02*
X018085Y020732D01*
X018163Y020633D02*
X017943Y020633D01*
X017844Y020535D02*
X018261Y020535D01*
X017603Y021520D02*
X017503Y021520D01*
X017503Y021618D02*
X017603Y021618D01*
X017603Y021717D02*
X017503Y021717D01*
X017503Y021815D02*
X017603Y021815D01*
X017503Y021914D02*
X017021Y021914D01*
X017021Y022012D02*
X017103Y022012D01*
X017122Y022111D02*
X017009Y022111D01*
X016911Y022209D02*
X017220Y022209D01*
X017319Y022308D02*
X016812Y022308D01*
X016293Y022308D02*
X015812Y022308D01*
X015911Y022209D02*
X016195Y022209D01*
X016096Y022111D02*
X016009Y022111D01*
X016021Y022012D02*
X016085Y022012D01*
X016085Y021914D02*
X016021Y021914D01*
X016021Y021815D02*
X016085Y021815D01*
X015778Y021421D02*
X003005Y021421D01*
X003005Y021323D02*
X003132Y021323D01*
X003085Y021224D02*
X003005Y021224D01*
X002988Y021126D02*
X003085Y021126D01*
X003085Y021027D02*
X002954Y021027D01*
X002920Y020929D02*
X003085Y020929D01*
X003085Y020830D02*
X002886Y020830D01*
X002847Y020732D02*
X003085Y020732D01*
X003085Y020633D02*
X002770Y020633D01*
X002693Y020535D02*
X003086Y020535D01*
X003286Y020436D02*
X002617Y020436D01*
X002505Y020338D02*
X003286Y020338D01*
X003286Y020239D02*
X002355Y020239D01*
X002327Y020141D02*
X003287Y020141D01*
X003330Y020042D02*
X002327Y020042D01*
X002327Y019944D02*
X003429Y019944D01*
X003527Y019845D02*
X002327Y019845D01*
X002327Y019747D02*
X003626Y019747D01*
X003585Y019156D02*
X003489Y019156D01*
X003489Y019057D02*
X003585Y019057D01*
X003585Y018959D02*
X003489Y018959D01*
X003489Y018762D02*
X003585Y018762D01*
X003585Y018663D02*
X003489Y018663D01*
X003489Y018565D02*
X003585Y018565D01*
X004568Y018368D02*
X006072Y018368D01*
X005504Y018762D02*
X005404Y018762D01*
X005404Y018860D02*
X005504Y018860D01*
X005004Y018762D02*
X004593Y018762D01*
X004595Y017777D02*
X005227Y017777D01*
X005227Y017678D02*
X000336Y017678D01*
X001543Y017580D02*
X002505Y017580D01*
X002479Y017777D02*
X001594Y017777D01*
X001667Y017481D02*
X001894Y017481D01*
X002398Y016989D02*
X002480Y016989D01*
X001707Y016890D02*
X004850Y016890D01*
X004776Y016792D02*
X004570Y016792D01*
X004594Y016989D02*
X004774Y016989D01*
X004777Y017580D02*
X004569Y017580D01*
X006075Y016907D02*
X006134Y016966D01*
X006134Y017005D01*
X006177Y017005D01*
X006275Y017046D01*
X006391Y017162D01*
X006429Y017162D01*
X006556Y017214D01*
X006653Y017312D01*
X006706Y017439D01*
X006706Y017577D01*
X006653Y017704D01*
X006604Y017753D01*
X006782Y017753D01*
X006782Y017261D01*
X006810Y017233D01*
X006681Y017104D01*
X006606Y017029D01*
X006601Y017017D01*
X006526Y017017D01*
X006428Y016918D01*
X006428Y016585D01*
X006134Y016291D01*
X006134Y016790D01*
X006075Y016849D01*
X006075Y016907D01*
X006075Y016890D02*
X006428Y016890D01*
X006428Y016792D02*
X006133Y016792D01*
X006134Y016693D02*
X006428Y016693D01*
X006428Y016595D02*
X006134Y016595D01*
X006134Y016496D02*
X006339Y016496D01*
X006241Y016398D02*
X006134Y016398D01*
X006134Y016299D02*
X006142Y016299D01*
X006134Y016989D02*
X006499Y016989D01*
X006665Y017087D02*
X006316Y017087D01*
X006487Y017186D02*
X006763Y017186D01*
X006782Y017284D02*
X006626Y017284D01*
X006683Y017383D02*
X006782Y017383D01*
X006782Y017481D02*
X006706Y017481D01*
X006705Y017580D02*
X006782Y017580D01*
X006782Y017678D02*
X006664Y017678D01*
X006548Y018207D02*
X006548Y018713D01*
X006690Y018856D01*
X012122Y018856D01*
X012075Y018836D01*
X012000Y018761D01*
X011370Y018131D01*
X011330Y018033D01*
X011330Y016589D01*
X011370Y016491D01*
X011445Y016416D01*
X011583Y016278D01*
X007970Y016278D01*
X007976Y016284D01*
X007996Y016318D01*
X008006Y016356D01*
X008006Y016562D01*
X007670Y016562D01*
X007670Y016662D01*
X008006Y016662D01*
X008006Y016868D01*
X007996Y016906D01*
X007976Y016941D01*
X007948Y016968D01*
X007914Y016988D01*
X007876Y016998D01*
X007670Y016998D01*
X007670Y016662D01*
X007570Y016662D01*
X007570Y016998D01*
X007364Y016998D01*
X007326Y016988D01*
X007311Y016980D01*
X007491Y017160D01*
X007492Y017163D01*
X007650Y017163D01*
X007748Y017261D01*
X007748Y017753D01*
X008975Y017753D01*
X008992Y017736D01*
X009098Y017692D01*
X009212Y017692D01*
X009318Y017736D01*
X009399Y017817D01*
X009443Y017923D01*
X009443Y018038D01*
X009399Y018144D01*
X009318Y018225D01*
X009212Y018268D01*
X009098Y018268D01*
X008992Y018225D01*
X008975Y018207D01*
X007730Y018207D01*
X007730Y018324D01*
X007315Y018324D01*
X007315Y018424D01*
X007215Y018424D01*
X007215Y018324D01*
X006800Y018324D01*
X006800Y018207D01*
X006548Y018207D01*
X006548Y018269D02*
X006800Y018269D01*
X006800Y018424D02*
X007215Y018424D01*
X007215Y018780D01*
X006931Y018780D01*
X006892Y018770D01*
X006858Y018750D01*
X006830Y018722D01*
X006811Y018688D01*
X006800Y018650D01*
X006800Y018424D01*
X006800Y018466D02*
X006548Y018466D01*
X006548Y018368D02*
X007215Y018368D01*
X007215Y018466D02*
X007315Y018466D01*
X007315Y018424D02*
X007315Y018780D01*
X007600Y018780D01*
X007638Y018770D01*
X007672Y018750D01*
X007700Y018722D01*
X007720Y018688D01*
X007730Y018650D01*
X007730Y018424D01*
X007315Y018424D01*
X007315Y018368D02*
X011607Y018368D01*
X011705Y018466D02*
X007730Y018466D01*
X007730Y018565D02*
X011804Y018565D01*
X011902Y018663D02*
X007727Y018663D01*
X007652Y018762D02*
X012001Y018762D01*
X012000Y018761D02*
X012000Y018761D01*
X012336Y018344D02*
X013027Y018344D01*
X013125Y018384D01*
X013335Y018594D01*
X013335Y018473D01*
X013750Y018473D01*
X013750Y018373D01*
X013850Y018373D01*
X013850Y018473D01*
X014265Y018473D01*
X014265Y018699D01*
X014255Y018737D01*
X014235Y018771D01*
X014207Y018799D01*
X014201Y018803D01*
X014283Y018885D01*
X014283Y018895D01*
X014692Y018895D01*
X014692Y018678D01*
X014696Y018674D01*
X014696Y018065D01*
X014736Y017967D01*
X014793Y017910D01*
X014793Y017872D01*
X014846Y017745D01*
X014943Y017647D01*
X015017Y017617D01*
X014614Y017617D01*
X014516Y017576D01*
X014319Y017380D01*
X014244Y017305D01*
X014204Y017207D01*
X014204Y016673D01*
X014202Y016672D01*
X013813Y016672D01*
X013813Y016791D01*
X013715Y016890D01*
X013457Y016890D01*
X014204Y016890D01*
X014204Y016792D02*
X013813Y016792D01*
X013813Y016693D02*
X014204Y016693D01*
X014583Y016299D02*
X014710Y016299D01*
X014710Y016201D02*
X014485Y016201D01*
X014710Y016102D02*
X013813Y016102D01*
X013795Y016004D02*
X014741Y016004D01*
X014970Y016004D02*
X014990Y016004D01*
X014990Y016102D02*
X014970Y016102D01*
X014970Y016201D02*
X014990Y016201D01*
X014990Y016299D02*
X014970Y016299D01*
X014970Y016398D02*
X014990Y016398D01*
X014990Y016496D02*
X014970Y016496D01*
X014710Y016398D02*
X014682Y016398D01*
X015219Y016004D02*
X015241Y016004D01*
X015470Y016004D02*
X015490Y016004D01*
X015490Y016102D02*
X015470Y016102D01*
X015470Y016201D02*
X015490Y016201D01*
X015490Y016299D02*
X015470Y016299D01*
X015470Y016398D02*
X015490Y016398D01*
X015490Y016496D02*
X015470Y016496D01*
X015470Y016595D02*
X015490Y016595D01*
X015490Y016693D02*
X015470Y016693D01*
X015470Y016792D02*
X015490Y016792D01*
X015490Y016890D02*
X015470Y016890D01*
X015470Y016989D02*
X015490Y016989D01*
X015490Y017087D02*
X015470Y017087D01*
X015549Y017186D02*
X016891Y017186D01*
X016935Y017087D02*
X016692Y017087D01*
X016490Y017087D02*
X016470Y017087D01*
X016470Y016989D02*
X016490Y016989D01*
X016490Y016890D02*
X016470Y016890D01*
X016470Y016792D02*
X016490Y016792D01*
X016490Y016693D02*
X016470Y016693D01*
X016470Y016595D02*
X016490Y016595D01*
X016490Y016496D02*
X016470Y016496D01*
X016470Y016398D02*
X016490Y016398D01*
X016490Y016299D02*
X016470Y016299D01*
X016470Y016201D02*
X016490Y016201D01*
X016490Y016102D02*
X016470Y016102D01*
X016470Y016004D02*
X016490Y016004D01*
X016241Y016004D02*
X016219Y016004D01*
X015990Y016004D02*
X015970Y016004D01*
X015970Y016102D02*
X015990Y016102D01*
X015990Y016201D02*
X015970Y016201D01*
X015970Y016299D02*
X015990Y016299D01*
X015990Y016398D02*
X015970Y016398D01*
X015970Y016496D02*
X015990Y016496D01*
X015990Y016595D02*
X015970Y016595D01*
X015970Y016693D02*
X015990Y016693D01*
X015990Y016792D02*
X015970Y016792D01*
X015970Y016890D02*
X015990Y016890D01*
X015990Y016989D02*
X015970Y016989D01*
X015970Y017087D02*
X015990Y017087D01*
X016192Y017087D02*
X016220Y017059D01*
X016230Y017042D01*
X016240Y017059D01*
X016268Y017087D01*
X016176Y017284D02*
X015647Y017284D01*
X015746Y017383D02*
X016069Y017383D01*
X015970Y017481D02*
X015817Y017481D01*
X015839Y017580D02*
X015872Y017580D01*
X015768Y017087D02*
X015740Y017059D01*
X015730Y017042D01*
X015720Y017059D01*
X015692Y017087D01*
X014912Y017678D02*
X013952Y017678D01*
X013952Y017743D02*
X013941Y017781D01*
X013922Y017815D01*
X013894Y017843D01*
X013859Y017863D01*
X013821Y017873D01*
X013552Y017873D01*
X013552Y017473D01*
X013952Y017473D01*
X013952Y017743D01*
X013943Y017777D02*
X014833Y017777D01*
X014793Y017875D02*
X012633Y017875D01*
X012595Y017891D02*
X012767Y017820D01*
X012898Y017688D01*
X012902Y017679D01*
X012973Y017649D01*
X013052Y017571D01*
X013052Y017743D01*
X013062Y017781D01*
X013082Y017815D01*
X013109Y017843D01*
X013144Y017863D01*
X013182Y017873D01*
X013452Y017873D01*
X013452Y017473D01*
X013552Y017473D01*
X013552Y017373D01*
X013952Y017373D01*
X013952Y017103D01*
X013941Y017065D01*
X013922Y017031D01*
X013894Y017003D01*
X013859Y016983D01*
X013821Y016973D01*
X013552Y016973D01*
X013552Y017373D01*
X013452Y017373D01*
X013452Y016973D01*
X013374Y016973D01*
X013457Y016890D01*
X013452Y016989D02*
X013552Y016989D01*
X013552Y017087D02*
X013452Y017087D01*
X013452Y017186D02*
X013552Y017186D01*
X013552Y017284D02*
X013452Y017284D01*
X013552Y017383D02*
X014322Y017383D01*
X014236Y017284D02*
X013952Y017284D01*
X013952Y017186D02*
X014204Y017186D01*
X014204Y017087D02*
X013947Y017087D01*
X013869Y016989D02*
X014204Y016989D01*
X014421Y017481D02*
X013952Y017481D01*
X013952Y017580D02*
X014524Y017580D01*
X014733Y017974D02*
X011966Y017974D01*
X011868Y017875D02*
X012370Y017875D01*
X012408Y017891D02*
X012236Y017820D01*
X012105Y017688D01*
X012033Y017516D01*
X012033Y017330D01*
X012105Y017158D01*
X012236Y017026D01*
X012408Y016955D01*
X012595Y016955D01*
X012707Y017002D01*
X012707Y016943D01*
X012730Y016890D01*
X012316Y016890D01*
X012217Y016791D01*
X012217Y016673D01*
X011942Y016673D01*
X011863Y016752D01*
X011863Y017870D01*
X012336Y018344D01*
X012262Y018269D02*
X013335Y018269D01*
X013335Y018171D02*
X012163Y018171D01*
X012065Y018072D02*
X013368Y018072D01*
X013365Y018075D02*
X013393Y018047D01*
X013427Y018028D01*
X013465Y018017D01*
X013750Y018017D01*
X013750Y018373D01*
X013335Y018373D01*
X013335Y018148D01*
X013345Y018109D01*
X013365Y018075D01*
X013452Y017777D02*
X013552Y017777D01*
X013552Y017678D02*
X013452Y017678D01*
X013452Y017580D02*
X013552Y017580D01*
X013552Y017481D02*
X013452Y017481D01*
X013052Y017580D02*
X013043Y017580D01*
X013052Y017678D02*
X012903Y017678D01*
X012810Y017777D02*
X013061Y017777D01*
X012595Y017891D02*
X012408Y017891D01*
X012193Y017777D02*
X011863Y017777D01*
X011863Y017678D02*
X012101Y017678D01*
X012060Y017580D02*
X011863Y017580D01*
X011863Y017481D02*
X012033Y017481D01*
X012033Y017383D02*
X011863Y017383D01*
X011863Y017284D02*
X012052Y017284D01*
X012093Y017186D02*
X011863Y017186D01*
X011863Y017087D02*
X012176Y017087D01*
X012327Y016989D02*
X011863Y016989D01*
X011863Y016890D02*
X012729Y016890D01*
X012707Y016989D02*
X012676Y016989D01*
X012218Y016792D02*
X011863Y016792D01*
X011921Y016693D02*
X012217Y016693D01*
X011562Y016299D02*
X007985Y016299D01*
X008006Y016398D02*
X011463Y016398D01*
X011368Y016496D02*
X008006Y016496D01*
X008006Y016693D02*
X011330Y016693D01*
X011330Y016595D02*
X007670Y016595D01*
X007670Y016693D02*
X007570Y016693D01*
X007570Y016792D02*
X007670Y016792D01*
X007670Y016890D02*
X007570Y016890D01*
X007570Y016989D02*
X007670Y016989D01*
X007673Y017186D02*
X011330Y017186D01*
X011330Y017284D02*
X007748Y017284D01*
X007748Y017383D02*
X011330Y017383D01*
X011330Y017481D02*
X007748Y017481D01*
X007748Y017580D02*
X011330Y017580D01*
X011330Y017678D02*
X007748Y017678D01*
X007730Y018269D02*
X011508Y018269D01*
X011410Y018171D02*
X009372Y018171D01*
X009429Y018072D02*
X011346Y018072D01*
X011330Y017974D02*
X009443Y017974D01*
X009423Y017875D02*
X011330Y017875D01*
X011330Y017777D02*
X009359Y017777D01*
X008000Y016890D02*
X011330Y016890D01*
X011330Y016792D02*
X008006Y016792D01*
X007912Y016989D02*
X011330Y016989D01*
X011330Y017087D02*
X007419Y017087D01*
X007328Y016989D02*
X007320Y016989D01*
X007488Y015824D02*
X010510Y015824D01*
X010502Y015805D01*
X010502Y015667D01*
X010526Y015609D01*
X009457Y015609D01*
X009391Y015675D01*
X009263Y015728D01*
X009126Y015728D01*
X008998Y015675D01*
X008901Y015578D01*
X008848Y015451D01*
X008848Y015313D01*
X008901Y015186D01*
X008998Y015088D01*
X009126Y015036D01*
X009263Y015036D01*
X009391Y015088D01*
X009457Y015155D01*
X011376Y015155D01*
X011368Y015136D01*
X011368Y014998D01*
X011421Y014871D01*
X011518Y014773D01*
X011531Y014768D01*
X011507Y014758D01*
X011362Y014612D01*
X011301Y014466D01*
X011240Y014612D01*
X011094Y014758D01*
X010904Y014837D01*
X010698Y014837D01*
X010507Y014758D01*
X010362Y014612D01*
X010301Y014466D01*
X010240Y014612D01*
X010094Y014758D01*
X009904Y014837D01*
X009698Y014837D01*
X009507Y014758D01*
X009362Y014612D01*
X009301Y014466D01*
X009240Y014612D01*
X009094Y014758D01*
X008904Y014837D01*
X008698Y014837D01*
X008507Y014758D01*
X008362Y014612D01*
X008288Y014436D01*
X008264Y014511D01*
X008228Y014581D01*
X008182Y014645D01*
X008127Y014700D01*
X008063Y014747D01*
X007993Y014782D01*
X007918Y014807D01*
X007849Y014817D01*
X007849Y014367D01*
X007752Y014367D01*
X007752Y014817D01*
X007684Y014807D01*
X007609Y014782D01*
X007539Y014747D01*
X007475Y014700D01*
X007419Y014645D01*
X007373Y014581D01*
X007337Y014511D01*
X007313Y014436D01*
X007313Y014436D01*
X007240Y014612D01*
X007094Y014758D01*
X006945Y014820D01*
X007591Y014820D01*
X007689Y014919D01*
X007689Y015688D01*
X007591Y015786D01*
X007451Y015786D01*
X007488Y015824D01*
X007471Y015807D02*
X010503Y015807D01*
X010502Y015708D02*
X009311Y015708D01*
X009456Y015610D02*
X010526Y015610D01*
X011368Y015117D02*
X009419Y015117D01*
X009661Y014822D02*
X008941Y014822D01*
X009129Y014723D02*
X009472Y014723D01*
X009374Y014625D02*
X009228Y014625D01*
X009276Y014526D02*
X009326Y014526D01*
X009941Y014822D02*
X010661Y014822D01*
X010472Y014723D02*
X010129Y014723D01*
X010228Y014625D02*
X010374Y014625D01*
X010326Y014526D02*
X010276Y014526D01*
X010941Y014822D02*
X011470Y014822D01*
X011472Y014723D02*
X011129Y014723D01*
X011228Y014625D02*
X011374Y014625D01*
X011326Y014526D02*
X011276Y014526D01*
X011400Y014920D02*
X007689Y014920D01*
X007689Y015019D02*
X011368Y015019D01*
X013108Y015708D02*
X018417Y015708D01*
X018484Y015610D02*
X016296Y015610D01*
X016394Y015511D02*
X018635Y015511D01*
X018772Y015610D02*
X018830Y015610D01*
X018830Y015586D02*
X019057Y015586D01*
X019095Y015596D01*
X019129Y015616D01*
X019157Y015644D01*
X019177Y015678D01*
X019187Y015716D01*
X019187Y015865D01*
X018830Y015865D01*
X018830Y015586D01*
X018830Y015708D02*
X018772Y015708D01*
X018772Y015807D02*
X018830Y015807D01*
X018830Y016004D02*
X018772Y016004D01*
X018772Y016102D02*
X018830Y016102D01*
X018830Y016201D02*
X018772Y016201D01*
X019058Y016201D02*
X019447Y016201D01*
X019457Y016211D02*
X019429Y016183D01*
X019409Y016148D01*
X019399Y016110D01*
X019399Y015962D01*
X019756Y015962D01*
X019756Y016241D01*
X019529Y016241D01*
X019491Y016230D01*
X019457Y016211D01*
X019399Y016102D02*
X019179Y016102D01*
X019187Y016004D02*
X019399Y016004D01*
X019399Y015807D02*
X019187Y015807D01*
X019185Y015708D02*
X019414Y015708D01*
X019440Y015511D02*
X018967Y015511D01*
X019118Y015610D02*
X020491Y015610D01*
X020425Y015708D02*
X020156Y015708D01*
X020171Y015807D02*
X020422Y015807D01*
X020422Y016004D02*
X020171Y016004D01*
X020171Y016102D02*
X020431Y016102D01*
X020404Y016216D02*
X020553Y016216D01*
X020591Y016226D01*
X020625Y016246D01*
X020653Y016274D01*
X020673Y016308D01*
X020683Y016346D01*
X020683Y016574D01*
X020404Y016574D01*
X020404Y016216D01*
X020404Y016299D02*
X020347Y016299D01*
X020347Y016398D02*
X020404Y016398D01*
X020404Y016496D02*
X020347Y016496D01*
X020347Y016595D02*
X016750Y016595D01*
X015741Y016004D02*
X015719Y016004D01*
X016493Y015413D02*
X018397Y015413D01*
X018396Y015314D02*
X016591Y015314D01*
X016690Y015216D02*
X018396Y015216D01*
X018396Y015117D02*
X016788Y015117D01*
X016887Y015019D02*
X018396Y015019D01*
X018434Y014920D02*
X016985Y014920D01*
X017028Y014822D02*
X017661Y014822D01*
X017472Y014723D02*
X017129Y014723D01*
X017228Y014625D02*
X017374Y014625D01*
X017326Y014526D02*
X017276Y014526D01*
X017941Y014822D02*
X018436Y014822D01*
X018436Y014723D02*
X018129Y014723D01*
X018228Y014625D02*
X018374Y014625D01*
X018326Y014526D02*
X018276Y014526D01*
X018284Y014132D02*
X018317Y014132D01*
X018358Y014034D02*
X018243Y014034D01*
X018166Y013935D02*
X018452Y013935D01*
X018611Y013837D02*
X018166Y013837D01*
X018158Y013738D02*
X025680Y013738D01*
X025680Y013640D02*
X018117Y013640D01*
X018027Y013541D02*
X025680Y013541D01*
X025680Y013443D02*
X017929Y013443D01*
X017830Y013344D02*
X025680Y013344D01*
X025680Y013246D02*
X017732Y013246D01*
X016843Y012950D02*
X023954Y012950D01*
X023936Y012932D02*
X023936Y012163D01*
X024034Y012064D01*
X024509Y012064D01*
X024492Y012052D01*
X024442Y012002D01*
X024400Y011945D01*
X024368Y011881D01*
X024346Y011814D01*
X024337Y011759D01*
X024735Y011759D01*
X024735Y011659D01*
X024337Y011659D01*
X024346Y011603D01*
X024368Y011536D01*
X024400Y011473D01*
X024442Y011416D01*
X024492Y011365D01*
X024549Y011324D01*
X024612Y011292D01*
X024680Y011270D01*
X024735Y011261D01*
X024735Y011659D01*
X024835Y011659D01*
X024835Y011759D01*
X025233Y011759D01*
X025224Y011814D01*
X025202Y011881D01*
X025170Y011945D01*
X025128Y012002D01*
X025078Y012052D01*
X025061Y012064D01*
X025512Y012064D01*
X025611Y012163D01*
X025611Y012932D01*
X025512Y013030D01*
X024034Y013030D01*
X023936Y012932D01*
X023936Y012852D02*
X016843Y012852D01*
X016843Y012753D02*
X023936Y012753D01*
X023936Y012655D02*
X016843Y012655D01*
X016946Y012556D02*
X023936Y012556D01*
X023936Y012458D02*
X017044Y012458D01*
X017143Y012359D02*
X023936Y012359D01*
X023936Y012261D02*
X017241Y012261D01*
X017340Y012162D02*
X023936Y012162D01*
X023724Y011919D02*
X023689Y011939D01*
X023651Y011949D01*
X022774Y011949D01*
X022774Y011651D01*
X022678Y011651D01*
X022678Y011949D01*
X021801Y011949D01*
X021763Y011939D01*
X021728Y011919D01*
X021700Y011891D01*
X021681Y011857D01*
X021670Y011819D01*
X021670Y011651D01*
X022678Y011651D01*
X022678Y011554D01*
X022774Y011554D01*
X022774Y011256D01*
X023651Y011256D01*
X023689Y011266D01*
X023724Y011285D01*
X023752Y011313D01*
X023771Y011348D01*
X023781Y011386D01*
X023781Y011554D01*
X022774Y011554D01*
X022774Y011651D01*
X023781Y011651D01*
X023781Y011819D01*
X023771Y011857D01*
X023752Y011891D01*
X023724Y011919D01*
X023766Y011867D02*
X024363Y011867D01*
X024339Y011768D02*
X023781Y011768D01*
X023781Y011670D02*
X024735Y011670D01*
X024735Y011571D02*
X024835Y011571D01*
X024835Y011659D02*
X024835Y011261D01*
X024890Y011270D01*
X024958Y011292D01*
X025021Y011324D01*
X025078Y011365D01*
X025128Y011416D01*
X025170Y011473D01*
X025202Y011536D01*
X025224Y011603D01*
X025233Y011659D01*
X024835Y011659D01*
X024835Y011670D02*
X025680Y011670D01*
X025680Y011768D02*
X025231Y011768D01*
X025207Y011867D02*
X025680Y011867D01*
X025680Y011965D02*
X025155Y011965D01*
X025062Y012064D02*
X025680Y012064D01*
X025680Y012162D02*
X025610Y012162D01*
X025611Y012261D02*
X025680Y012261D01*
X025680Y012359D02*
X025611Y012359D01*
X025611Y012458D02*
X025680Y012458D01*
X025680Y012556D02*
X025611Y012556D01*
X025611Y012655D02*
X025680Y012655D01*
X025680Y012753D02*
X025611Y012753D01*
X025611Y012852D02*
X025680Y012852D01*
X025680Y012950D02*
X025592Y012950D01*
X025680Y013049D02*
X016765Y013049D01*
X016033Y013049D02*
X015527Y013049D01*
X015625Y012950D02*
X015956Y012950D01*
X015956Y012852D02*
X015724Y012852D01*
X015822Y012753D02*
X015956Y012753D01*
X015956Y012655D02*
X015921Y012655D01*
X015561Y012261D02*
X014973Y012261D01*
X014973Y012359D02*
X015462Y012359D01*
X015364Y012458D02*
X014915Y012458D01*
X014759Y012556D02*
X015265Y012556D01*
X015167Y012655D02*
X014661Y012655D01*
X014301Y012261D02*
X014225Y012261D01*
X014225Y012162D02*
X014322Y012162D01*
X014322Y012064D02*
X014225Y012064D01*
X014225Y011965D02*
X014322Y011965D01*
X014362Y011867D02*
X014185Y011867D01*
X013614Y011867D02*
X013378Y011867D01*
X013378Y011768D02*
X015956Y011768D01*
X015956Y011670D02*
X013339Y011670D01*
X013339Y011571D02*
X016035Y011571D01*
X015956Y011867D02*
X014933Y011867D01*
X014973Y011965D02*
X015956Y011965D01*
X015788Y012064D02*
X014973Y012064D01*
X014973Y012162D02*
X015659Y012162D01*
X016763Y011571D02*
X016898Y011571D01*
X016997Y011473D02*
X013339Y011473D01*
X013339Y011374D02*
X017095Y011374D01*
X017194Y011276D02*
X013339Y011276D01*
X013339Y011177D02*
X017292Y011177D01*
X016825Y011032D02*
X016815Y011070D01*
X016795Y011104D01*
X016767Y011132D01*
X016733Y011152D01*
X016695Y011162D01*
X016449Y011162D01*
X016449Y010471D01*
X016825Y010471D01*
X016825Y011032D01*
X016809Y011079D02*
X017786Y011079D01*
X017786Y010980D02*
X016825Y010980D01*
X016825Y010882D02*
X017847Y010882D01*
X017885Y010783D02*
X016825Y010783D01*
X016825Y010685D02*
X017885Y010685D01*
X017885Y010586D02*
X016825Y010586D01*
X016825Y010488D02*
X017885Y010488D01*
X017885Y010389D02*
X016449Y010389D01*
X016449Y010371D02*
X016449Y010471D01*
X016349Y010471D01*
X016349Y010371D01*
X016449Y010371D01*
X016449Y009681D01*
X016695Y009681D01*
X016733Y009691D01*
X016767Y009711D01*
X016795Y009739D01*
X016815Y009773D01*
X016825Y009811D01*
X016825Y010371D01*
X016449Y010371D01*
X016449Y010291D02*
X016349Y010291D01*
X016349Y010371D02*
X016349Y009681D01*
X016104Y009681D01*
X016066Y009691D01*
X016032Y009711D01*
X016004Y009739D01*
X015984Y009773D01*
X015974Y009811D01*
X015974Y010371D01*
X016349Y010371D01*
X016349Y010389D02*
X011317Y010389D01*
X011375Y010291D02*
X015974Y010291D01*
X015974Y010192D02*
X011416Y010192D01*
X011425Y010094D02*
X015974Y010094D01*
X015974Y009995D02*
X011425Y009995D01*
X011397Y009897D02*
X015974Y009897D01*
X015977Y009798D02*
X011357Y009798D01*
X011273Y009700D02*
X016050Y009700D01*
X016349Y009700D02*
X016449Y009700D01*
X016449Y009798D02*
X016349Y009798D01*
X016349Y009897D02*
X016449Y009897D01*
X016449Y009995D02*
X016349Y009995D01*
X016349Y010094D02*
X016449Y010094D01*
X016449Y010192D02*
X016349Y010192D01*
X016349Y010471D02*
X015974Y010471D01*
X015974Y011032D01*
X015984Y011070D01*
X016004Y011104D01*
X016032Y011132D01*
X016066Y011152D01*
X016104Y011162D01*
X016349Y011162D01*
X016349Y010471D01*
X016349Y010488D02*
X016449Y010488D01*
X016449Y010586D02*
X016349Y010586D01*
X016349Y010685D02*
X016449Y010685D01*
X016449Y010783D02*
X016349Y010783D01*
X016349Y010882D02*
X016449Y010882D01*
X016449Y010980D02*
X016349Y010980D01*
X016349Y011079D02*
X016449Y011079D01*
X015989Y011079D02*
X013279Y011079D01*
X012748Y011079D02*
X012537Y011079D01*
X012520Y011069D02*
X012554Y011089D01*
X012582Y011117D01*
X012602Y011151D01*
X012612Y011189D01*
X012612Y011416D01*
X012333Y011416D01*
X012333Y011059D01*
X012482Y011059D01*
X012520Y011069D01*
X012609Y011177D02*
X012688Y011177D01*
X012688Y011276D02*
X012612Y011276D01*
X012612Y011374D02*
X012688Y011374D01*
X012688Y011473D02*
X012333Y011473D01*
X012333Y011474D02*
X012612Y011474D01*
X012612Y011701D01*
X012602Y011739D01*
X012582Y011773D01*
X012554Y011801D01*
X012520Y011821D01*
X012482Y011831D01*
X012333Y011831D01*
X012333Y011474D01*
X012276Y011474D01*
X012276Y011831D01*
X012127Y011831D01*
X012089Y011821D01*
X012055Y011801D01*
X012027Y011773D01*
X012007Y011739D01*
X011997Y011701D01*
X011997Y011474D01*
X012276Y011474D01*
X012276Y011416D01*
X012333Y011416D01*
X012333Y011474D01*
X012276Y011473D02*
X010307Y011473D01*
X010307Y011571D02*
X011997Y011571D01*
X011997Y011670D02*
X010307Y011670D01*
X010307Y011768D02*
X012024Y011768D01*
X011881Y011965D02*
X011764Y011965D01*
X011804Y012064D02*
X011861Y012064D01*
X011861Y012162D02*
X011824Y012162D01*
X012276Y011768D02*
X012333Y011768D01*
X012333Y011670D02*
X012276Y011670D01*
X012276Y011571D02*
X012333Y011571D01*
X012276Y011416D02*
X011997Y011416D01*
X011997Y011189D01*
X012007Y011151D01*
X012027Y011117D01*
X012055Y011089D01*
X012089Y011069D01*
X012127Y011059D01*
X012276Y011059D01*
X012276Y011416D01*
X012276Y011374D02*
X012333Y011374D01*
X012333Y011276D02*
X012276Y011276D01*
X012276Y011177D02*
X012333Y011177D01*
X012333Y011079D02*
X012276Y011079D01*
X012072Y011079D02*
X010431Y011079D01*
X010333Y011177D02*
X012000Y011177D01*
X011997Y011276D02*
X010307Y011276D01*
X010307Y011374D02*
X011997Y011374D01*
X012612Y011571D02*
X012688Y011571D01*
X012688Y011670D02*
X012612Y011670D01*
X012585Y011768D02*
X012705Y011768D01*
X012785Y011867D02*
X010307Y011867D01*
X010307Y011965D02*
X011035Y011965D01*
X010995Y012064D02*
X010307Y012064D01*
X010307Y012162D02*
X010995Y012162D01*
X010995Y012261D02*
X010307Y012261D01*
X010307Y012359D02*
X010995Y012359D01*
X010995Y012458D02*
X010307Y012458D01*
X010307Y012556D02*
X011092Y012556D01*
X011086Y012655D02*
X010307Y012655D01*
X010307Y012753D02*
X011016Y012753D01*
X011013Y012852D02*
X010307Y012852D01*
X010307Y012950D02*
X011370Y012950D01*
X011428Y012950D02*
X011861Y012950D01*
X011785Y012970D02*
X011785Y013118D01*
X011775Y013156D01*
X011769Y013167D01*
X011919Y013167D01*
X011861Y013109D01*
X011861Y012856D01*
X011850Y012858D01*
X011835Y012853D01*
X011819Y012853D01*
X011785Y012839D01*
X011785Y012912D01*
X011428Y012912D01*
X011428Y012970D01*
X011785Y012970D01*
X011785Y013049D02*
X011861Y013049D01*
X011899Y013147D02*
X011778Y013147D01*
X011785Y012852D02*
X011815Y012852D01*
X011428Y012852D02*
X011370Y012852D01*
X011370Y012753D02*
X011428Y012753D01*
X011428Y012655D02*
X011370Y012655D01*
X011013Y013049D02*
X010307Y013049D01*
X010307Y013147D02*
X011021Y013147D01*
X012552Y012359D02*
X012588Y012359D01*
X012552Y012261D02*
X012767Y012261D01*
X012767Y012162D02*
X012552Y012162D01*
X012552Y012064D02*
X012767Y012064D01*
X012787Y011965D02*
X012531Y011965D01*
X010727Y010783D02*
X015974Y010783D01*
X015974Y010685D02*
X010825Y010685D01*
X010924Y010586D02*
X015974Y010586D01*
X015974Y010488D02*
X011219Y010488D01*
X010628Y010882D02*
X015974Y010882D01*
X015974Y010980D02*
X010530Y010980D01*
X009990Y010488D02*
X009068Y010488D01*
X008970Y010389D02*
X010088Y010389D01*
X010187Y010291D02*
X008871Y010291D01*
X008857Y010192D02*
X010285Y010192D01*
X010384Y010094D02*
X008866Y010094D01*
X008866Y009995D02*
X010389Y009995D01*
X010417Y009897D02*
X008838Y009897D01*
X008798Y009798D02*
X010458Y009798D01*
X010542Y009700D02*
X008714Y009700D01*
X008578Y009601D02*
X010677Y009601D01*
X011137Y009601D02*
X017885Y009601D01*
X017885Y009503D02*
X006845Y009503D01*
X006747Y009601D02*
X008118Y009601D01*
X007982Y009700D02*
X006648Y009700D01*
X006550Y009798D02*
X007899Y009798D01*
X007858Y009897D02*
X006451Y009897D01*
X006353Y009995D02*
X006807Y009995D01*
X006353Y009601D02*
X005906Y009601D01*
X005764Y009601D02*
X005664Y009601D01*
X005664Y009503D02*
X005764Y009503D01*
X005764Y009404D02*
X005664Y009404D01*
X005664Y009306D02*
X005764Y009306D01*
X005764Y009207D02*
X005664Y009207D01*
X005522Y009601D02*
X004231Y009601D01*
X004273Y009503D02*
X005360Y009503D01*
X005274Y009404D02*
X004295Y009404D01*
X004159Y009700D02*
X006255Y009700D01*
X006069Y009503D02*
X006452Y009503D01*
X006550Y009404D02*
X006155Y009404D01*
X006209Y009306D02*
X006649Y009306D01*
X006747Y009207D02*
X006238Y009207D01*
X006944Y009404D02*
X017917Y009404D01*
X017983Y009306D02*
X007042Y009306D01*
X007141Y009207D02*
X018081Y009207D01*
X018180Y009109D02*
X017121Y009109D01*
X017220Y009010D02*
X018278Y009010D01*
X018377Y008912D02*
X017318Y008912D01*
X017417Y008813D02*
X018475Y008813D01*
X018574Y008715D02*
X018239Y008715D01*
X018292Y008693D02*
X018292Y008693D01*
X018369Y008616D02*
X018672Y008616D01*
X018771Y008518D02*
X018457Y008518D01*
X018450Y008535D02*
X018450Y008535D01*
X018498Y008419D02*
X018869Y008419D01*
X018968Y008321D02*
X018536Y008321D01*
X018536Y008222D02*
X019159Y008222D01*
X019158Y008124D02*
X018536Y008124D01*
X018536Y008025D02*
X019158Y008025D01*
X019158Y007927D02*
X018536Y007927D01*
X018536Y007828D02*
X019158Y007828D01*
X019158Y007730D02*
X018536Y007730D01*
X018536Y007631D02*
X019458Y007631D01*
X019458Y007548D02*
X019158Y007548D01*
X019158Y006978D01*
X019168Y006940D01*
X019188Y006906D01*
X019216Y006878D01*
X019250Y006858D01*
X019288Y006848D01*
X019458Y006848D01*
X019458Y007548D01*
X019458Y007533D02*
X019558Y007533D01*
X019558Y007434D02*
X019458Y007434D01*
X019458Y007336D02*
X019558Y007336D01*
X019558Y007237D02*
X019458Y007237D01*
X019458Y007139D02*
X019558Y007139D01*
X019558Y007040D02*
X019458Y007040D01*
X019458Y006942D02*
X019558Y006942D01*
X019895Y006843D02*
X018536Y006843D01*
X018536Y006745D02*
X024123Y006745D01*
X024123Y006843D02*
X022471Y006843D01*
X022556Y006942D02*
X024137Y006942D01*
X024133Y006936D02*
X024123Y006898D01*
X024123Y006337D01*
X024499Y006337D01*
X024499Y006237D01*
X024599Y006237D01*
X024599Y005547D01*
X024844Y005547D01*
X024882Y005557D01*
X024917Y005577D01*
X024944Y005605D01*
X024964Y005639D01*
X024974Y005677D01*
X024974Y006237D01*
X024599Y006237D01*
X024599Y006337D01*
X024974Y006337D01*
X024974Y006898D01*
X024964Y006936D01*
X024944Y006970D01*
X024917Y006998D01*
X024882Y007018D01*
X024844Y007028D01*
X024599Y007028D01*
X024599Y006337D01*
X024499Y006337D01*
X024499Y007028D01*
X024253Y007028D01*
X024215Y007018D01*
X024181Y006998D01*
X024153Y006970D01*
X024133Y006936D01*
X024499Y006942D02*
X024599Y006942D01*
X024599Y006843D02*
X024499Y006843D01*
X024499Y006745D02*
X024599Y006745D01*
X024599Y006646D02*
X024499Y006646D01*
X024499Y006548D02*
X024599Y006548D01*
X024599Y006449D02*
X024499Y006449D01*
X024499Y006351D02*
X024599Y006351D01*
X024599Y006252D02*
X025680Y006252D01*
X025680Y006154D02*
X024974Y006154D01*
X024974Y006055D02*
X025680Y006055D01*
X025680Y005957D02*
X024974Y005957D01*
X024974Y005858D02*
X025680Y005858D01*
X025680Y005760D02*
X024974Y005760D01*
X024970Y005661D02*
X025680Y005661D01*
X025680Y005563D02*
X024892Y005563D01*
X024599Y005563D02*
X024499Y005563D01*
X024499Y005547D02*
X024499Y006237D01*
X024123Y006237D01*
X024123Y005677D01*
X024133Y005639D01*
X024153Y005605D01*
X024181Y005577D01*
X024215Y005557D01*
X024253Y005547D01*
X024499Y005547D01*
X024499Y005661D02*
X024599Y005661D01*
X024599Y005760D02*
X024499Y005760D01*
X024499Y005858D02*
X024599Y005858D01*
X024599Y005957D02*
X024499Y005957D01*
X024499Y006055D02*
X024599Y006055D01*
X024599Y006154D02*
X024499Y006154D01*
X024499Y006252D02*
X018536Y006252D01*
X018536Y006154D02*
X024123Y006154D01*
X024123Y006055D02*
X018536Y006055D01*
X018536Y005957D02*
X024123Y005957D01*
X024123Y005858D02*
X018536Y005858D01*
X018536Y005760D02*
X024123Y005760D01*
X024127Y005661D02*
X018536Y005661D01*
X018536Y005563D02*
X024206Y005563D01*
X024123Y006351D02*
X018536Y006351D01*
X018536Y006449D02*
X024123Y006449D01*
X024123Y006548D02*
X018536Y006548D01*
X018536Y006646D02*
X024123Y006646D01*
X024974Y006646D02*
X025680Y006646D01*
X025680Y006548D02*
X024974Y006548D01*
X024974Y006449D02*
X025680Y006449D01*
X025680Y006351D02*
X024974Y006351D01*
X024974Y006745D02*
X025680Y006745D01*
X025680Y006843D02*
X024974Y006843D01*
X024961Y006942D02*
X025680Y006942D01*
X025680Y007040D02*
X022556Y007040D01*
X022556Y007139D02*
X025680Y007139D01*
X025680Y007237D02*
X023281Y007237D01*
X023436Y007336D02*
X025680Y007336D01*
X025680Y007434D02*
X024910Y007434D01*
X024993Y007533D02*
X025680Y007533D01*
X025680Y007631D02*
X024993Y007631D01*
X024993Y007730D02*
X025680Y007730D01*
X025680Y007828D02*
X024993Y007828D01*
X024993Y007927D02*
X025680Y007927D01*
X025680Y008025D02*
X024993Y008025D01*
X024993Y008124D02*
X025680Y008124D01*
X025680Y008222D02*
X024993Y008222D01*
X024993Y008321D02*
X025680Y008321D01*
X025680Y008419D02*
X024993Y008419D01*
X024993Y008518D02*
X025680Y008518D01*
X025680Y008616D02*
X024993Y008616D01*
X024993Y008715D02*
X025680Y008715D01*
X025680Y008813D02*
X024993Y008813D01*
X024918Y008912D02*
X025680Y008912D01*
X025680Y009010D02*
X023091Y009010D01*
X023091Y008912D02*
X024180Y008912D01*
X024105Y008813D02*
X023091Y008813D01*
X023091Y008715D02*
X024105Y008715D01*
X024105Y008616D02*
X023079Y008616D01*
X023039Y008518D02*
X023630Y008518D01*
X023487Y008419D02*
X022945Y008419D01*
X022846Y008321D02*
X023389Y008321D01*
X023290Y008222D02*
X022748Y008222D01*
X022649Y008124D02*
X023192Y008124D01*
X023093Y008025D02*
X022556Y008025D01*
X021913Y008419D02*
X021883Y008419D01*
X021883Y008518D02*
X022011Y008518D01*
X022110Y008616D02*
X021883Y008616D01*
X021883Y008715D02*
X022208Y008715D01*
X022307Y008813D02*
X022007Y008813D01*
X022089Y008912D02*
X022361Y008912D01*
X022361Y009010D02*
X022089Y009010D01*
X022089Y009109D02*
X022361Y009109D01*
X022361Y009207D02*
X022089Y009207D01*
X022089Y009306D02*
X022361Y009306D01*
X022361Y009404D02*
X022089Y009404D01*
X022089Y009503D02*
X022361Y009503D01*
X022361Y009601D02*
X022089Y009601D01*
X022089Y009700D02*
X022361Y009700D01*
X022361Y009798D02*
X022089Y009798D01*
X022089Y009897D02*
X022361Y009897D01*
X022361Y009995D02*
X022073Y009995D01*
X021817Y010094D02*
X022361Y010094D01*
X022361Y010192D02*
X021711Y010192D01*
X021613Y010291D02*
X022361Y010291D01*
X022361Y010389D02*
X021514Y010389D01*
X021416Y010488D02*
X021713Y010488D01*
X021652Y010586D02*
X021317Y010586D01*
X021219Y010685D02*
X021652Y010685D01*
X021652Y010783D02*
X021134Y010783D01*
X021172Y010882D02*
X021652Y010882D01*
X021652Y010980D02*
X021233Y010980D01*
X021233Y011079D02*
X021652Y011079D01*
X021748Y011177D02*
X021233Y011177D01*
X021233Y011276D02*
X021745Y011276D01*
X021728Y011285D02*
X021763Y011266D01*
X021801Y011256D01*
X022678Y011256D01*
X022678Y011554D01*
X021670Y011554D01*
X021670Y011386D01*
X021681Y011348D01*
X021700Y011313D01*
X021728Y011285D01*
X021674Y011374D02*
X021233Y011374D01*
X021233Y011473D02*
X021670Y011473D01*
X021670Y011670D02*
X021233Y011670D01*
X021233Y011768D02*
X021670Y011768D01*
X021686Y011867D02*
X021233Y011867D01*
X021215Y011965D02*
X024415Y011965D01*
X024508Y012064D02*
X017438Y012064D01*
X017537Y011965D02*
X017804Y011965D01*
X017786Y011867D02*
X017635Y011867D01*
X018695Y011965D02*
X020324Y011965D01*
X020306Y011867D02*
X018713Y011867D01*
X018713Y011768D02*
X020306Y011768D01*
X020306Y011670D02*
X018713Y011670D01*
X018713Y011571D02*
X020306Y011571D01*
X020306Y011473D02*
X018713Y011473D01*
X018713Y011374D02*
X020306Y011374D01*
X020306Y011276D02*
X018713Y011276D01*
X018713Y011177D02*
X020306Y011177D01*
X020306Y011079D02*
X018713Y011079D01*
X018713Y010980D02*
X020306Y010980D01*
X020366Y010882D02*
X018653Y010882D01*
X018615Y010783D02*
X020404Y010783D01*
X020404Y010685D02*
X018615Y010685D01*
X018615Y010586D02*
X020404Y010586D01*
X020428Y010488D02*
X018615Y010488D01*
X018615Y010389D02*
X020482Y010389D01*
X020581Y010291D02*
X018615Y010291D01*
X018615Y010192D02*
X020679Y010192D01*
X020778Y010094D02*
X018615Y010094D01*
X018615Y009995D02*
X019494Y009995D01*
X019498Y010002D02*
X019478Y009967D01*
X019468Y009929D01*
X019468Y009487D01*
X019922Y009487D01*
X019922Y010059D01*
X019598Y010059D01*
X019560Y010049D01*
X019526Y010029D01*
X019498Y010002D01*
X019468Y009897D02*
X018615Y009897D01*
X018615Y009798D02*
X019468Y009798D01*
X019468Y009700D02*
X018621Y009700D01*
X018720Y009601D02*
X019468Y009601D01*
X019468Y009503D02*
X018818Y009503D01*
X018917Y009404D02*
X019922Y009404D01*
X019922Y009503D02*
X020022Y009503D01*
X020022Y009487D02*
X020022Y010059D01*
X020346Y010059D01*
X020384Y010049D01*
X020418Y010029D01*
X020446Y010002D01*
X020466Y009967D01*
X020476Y009929D01*
X020476Y009487D01*
X020022Y009487D01*
X020022Y009404D02*
X021044Y009404D01*
X021044Y009306D02*
X020476Y009306D01*
X020476Y009207D02*
X021044Y009207D01*
X021044Y009109D02*
X020476Y009109D01*
X020476Y009010D02*
X021044Y009010D01*
X021044Y008912D02*
X020468Y008912D01*
X020354Y008715D02*
X021153Y008715D01*
X021153Y008616D02*
X020453Y008616D01*
X020514Y008518D02*
X021153Y008518D01*
X021153Y008419D02*
X020543Y008419D01*
X020543Y008321D02*
X020559Y008321D01*
X020798Y008321D02*
X020898Y008321D01*
X020898Y008222D02*
X020798Y008222D01*
X020798Y008124D02*
X020898Y008124D01*
X020898Y008025D02*
X020798Y008025D01*
X020798Y007927D02*
X020898Y007927D01*
X020898Y007828D02*
X020798Y007828D01*
X020798Y007730D02*
X020898Y007730D01*
X020898Y007533D02*
X020798Y007533D01*
X020798Y007434D02*
X020898Y007434D01*
X020898Y007336D02*
X020798Y007336D01*
X020798Y007237D02*
X020898Y007237D01*
X020898Y007139D02*
X020798Y007139D01*
X020798Y007040D02*
X020898Y007040D01*
X020898Y006942D02*
X020798Y006942D01*
X020461Y006843D02*
X021235Y006843D01*
X021801Y006843D02*
X021905Y006843D01*
X023480Y007380D02*
X023480Y007380D01*
X023535Y007434D02*
X024188Y007434D01*
X024105Y007533D02*
X023633Y007533D01*
X023732Y007631D02*
X024105Y007631D01*
X024105Y007730D02*
X023830Y007730D01*
X023091Y009109D02*
X025680Y009109D01*
X025680Y009207D02*
X023091Y009207D01*
X023091Y009306D02*
X025680Y009306D01*
X025680Y009404D02*
X025529Y009404D01*
X025611Y009503D02*
X025680Y009503D01*
X025680Y009601D02*
X025611Y009601D01*
X025611Y009700D02*
X025680Y009700D01*
X025680Y009798D02*
X025611Y009798D01*
X025611Y009897D02*
X025680Y009897D01*
X025680Y009995D02*
X025611Y009995D01*
X025611Y010094D02*
X025680Y010094D01*
X025680Y010192D02*
X025611Y010192D01*
X025575Y010291D02*
X025680Y010291D01*
X025680Y010389D02*
X025253Y010389D01*
X025253Y010488D02*
X025680Y010488D01*
X025680Y010586D02*
X025253Y010586D01*
X025253Y010685D02*
X025680Y010685D01*
X025680Y010783D02*
X025253Y010783D01*
X025253Y010882D02*
X025680Y010882D01*
X025680Y010980D02*
X025253Y010980D01*
X025253Y011079D02*
X025680Y011079D01*
X025680Y011177D02*
X024037Y011177D01*
X024211Y011079D02*
X024317Y011079D01*
X024483Y011374D02*
X023778Y011374D01*
X023781Y011473D02*
X024400Y011473D01*
X024357Y011571D02*
X022774Y011571D01*
X022678Y011571D02*
X021233Y011571D01*
X022678Y011473D02*
X022774Y011473D01*
X022774Y011374D02*
X022678Y011374D01*
X022678Y011276D02*
X022774Y011276D01*
X022774Y011670D02*
X022678Y011670D01*
X022678Y011768D02*
X022774Y011768D01*
X022774Y011867D02*
X022678Y011867D01*
X023707Y011276D02*
X024661Y011276D01*
X024735Y011276D02*
X024835Y011276D01*
X024909Y011276D02*
X025680Y011276D01*
X025680Y011374D02*
X025087Y011374D01*
X025170Y011473D02*
X025680Y011473D01*
X025680Y011571D02*
X025214Y011571D01*
X024835Y011473D02*
X024735Y011473D01*
X024735Y011374D02*
X024835Y011374D01*
X023882Y010389D02*
X023091Y010389D01*
X023091Y010291D02*
X023972Y010291D01*
X023936Y010192D02*
X023091Y010192D01*
X023091Y010094D02*
X023936Y010094D01*
X023936Y009995D02*
X023091Y009995D01*
X023091Y009897D02*
X023936Y009897D01*
X023936Y009798D02*
X023091Y009798D01*
X023091Y009700D02*
X023936Y009700D01*
X023936Y009601D02*
X023091Y009601D01*
X023091Y009503D02*
X023936Y009503D01*
X024017Y009404D02*
X023091Y009404D01*
X021044Y009503D02*
X020476Y009503D01*
X020476Y009601D02*
X021044Y009601D01*
X021044Y009700D02*
X020476Y009700D01*
X020476Y009798D02*
X021044Y009798D01*
X020975Y009897D02*
X020476Y009897D01*
X020450Y009995D02*
X020876Y009995D01*
X020022Y009995D02*
X019922Y009995D01*
X019922Y009897D02*
X020022Y009897D01*
X020022Y009798D02*
X019922Y009798D01*
X019922Y009700D02*
X020022Y009700D01*
X020022Y009601D02*
X019922Y009601D01*
X019468Y009306D02*
X019015Y009306D01*
X019114Y009207D02*
X019468Y009207D01*
X019468Y009109D02*
X019212Y009109D01*
X019311Y009010D02*
X019468Y009010D01*
X020256Y008813D02*
X021126Y008813D01*
X021137Y008321D02*
X021153Y008321D01*
X019158Y007533D02*
X018536Y007533D01*
X018536Y007434D02*
X019158Y007434D01*
X019158Y007336D02*
X018536Y007336D01*
X018536Y007237D02*
X019158Y007237D01*
X019158Y007139D02*
X018536Y007139D01*
X018536Y007040D02*
X019158Y007040D01*
X019168Y006942D02*
X018536Y006942D01*
X017412Y006942D02*
X012772Y006942D01*
X012772Y007040D02*
X017412Y007040D01*
X017412Y007139D02*
X012772Y007139D01*
X012768Y007237D02*
X017412Y007237D01*
X017412Y007336D02*
X012772Y007336D01*
X012772Y007434D02*
X017412Y007434D01*
X017412Y007533D02*
X012772Y007533D01*
X012768Y007631D02*
X017412Y007631D01*
X017412Y007730D02*
X012772Y007730D01*
X012772Y007828D02*
X017412Y007828D01*
X017412Y007927D02*
X013910Y007927D01*
X013993Y008025D02*
X017412Y008025D01*
X017412Y008124D02*
X013993Y008124D01*
X013993Y008222D02*
X017412Y008222D01*
X017412Y008321D02*
X013993Y008321D01*
X013993Y008419D02*
X017450Y008419D01*
X017348Y008518D02*
X013899Y008518D01*
X012097Y008518D02*
X011239Y008518D01*
X011337Y008419D02*
X012003Y008419D01*
X012003Y008321D02*
X011436Y008321D01*
X011534Y008222D02*
X012003Y008222D01*
X012003Y008124D02*
X011633Y008124D01*
X012768Y006843D02*
X017412Y006843D01*
X017412Y006745D02*
X012772Y006745D01*
X012772Y006646D02*
X017412Y006646D01*
X017412Y006548D02*
X012772Y006548D01*
X012767Y006449D02*
X017412Y006449D01*
X017412Y006351D02*
X012772Y006351D01*
X012772Y006252D02*
X017412Y006252D01*
X017412Y006154D02*
X012772Y006154D01*
X012767Y006055D02*
X017412Y006055D01*
X017412Y005957D02*
X012754Y005957D01*
X012754Y005760D02*
X017412Y005760D01*
X017412Y005858D02*
X012219Y005858D01*
X012201Y005858D02*
X010870Y005858D01*
X010977Y005760D02*
X011667Y005760D01*
X011661Y005661D02*
X011034Y005661D01*
X011059Y005563D02*
X011437Y005563D01*
X011667Y005957D02*
X007961Y005957D01*
X007723Y005464D02*
X006782Y005464D01*
X006743Y004873D02*
X007330Y004873D01*
X007429Y004775D02*
X007175Y004775D01*
X007273Y004676D02*
X007527Y004676D01*
X007626Y004578D02*
X007372Y004578D01*
X007470Y004479D02*
X007724Y004479D01*
X007823Y004381D02*
X007569Y004381D01*
X007667Y004282D02*
X007921Y004282D01*
X008020Y004184D02*
X007766Y004184D01*
X007864Y004085D02*
X008118Y004085D01*
X008217Y003987D02*
X007963Y003987D01*
X008061Y003888D02*
X008315Y003888D01*
X008160Y003790D02*
X011509Y003790D01*
X011608Y003691D02*
X008258Y003691D01*
X007922Y003297D02*
X006239Y003297D01*
X006212Y003199D02*
X008020Y003199D01*
X008119Y003100D02*
X006161Y003100D01*
X006077Y003002D02*
X008218Y003002D01*
X008316Y002903D02*
X005927Y002903D01*
X005351Y003002D02*
X004276Y003002D01*
X004297Y003100D02*
X005268Y003100D01*
X004053Y002706D02*
X008513Y002706D01*
X009923Y002706D02*
X010311Y002706D01*
X010196Y002805D02*
X010038Y002805D01*
X010010Y002757D02*
X010010Y002757D01*
X010010Y002757D01*
X010095Y002903D02*
X010139Y002903D01*
X009916Y003888D02*
X009697Y003888D01*
X009783Y003938D02*
X009783Y003938D01*
X009783Y003938D01*
X009830Y003938D02*
X009830Y003938D01*
X009243Y003888D02*
X009024Y003888D01*
X009110Y003938D02*
X009110Y003938D01*
X008710Y004381D02*
X008553Y004381D01*
X008454Y004479D02*
X008767Y004479D01*
X008821Y004572D02*
X008821Y004572D01*
X008821Y004572D01*
X008830Y004578D02*
X008356Y004578D01*
X008257Y004676D02*
X009001Y004676D01*
X009267Y004676D02*
X009674Y004676D01*
X009503Y004578D02*
X009437Y004578D01*
X009493Y004572D02*
X009493Y004572D01*
X009493Y004572D01*
X010110Y004578D02*
X011667Y004578D01*
X011660Y004479D02*
X010173Y004479D01*
X010119Y004572D02*
X010119Y004572D01*
X010230Y004381D02*
X011515Y004381D01*
X011667Y004775D02*
X008159Y004775D01*
X008060Y004873D02*
X011528Y004873D01*
X011430Y004972D02*
X007962Y004972D01*
X007863Y005070D02*
X008117Y005070D01*
X008019Y005169D02*
X007765Y005169D01*
X007666Y005267D02*
X007920Y005267D01*
X007822Y005366D02*
X007568Y005366D01*
X006842Y006154D02*
X011547Y006154D01*
X011646Y006055D02*
X006743Y006055D01*
X006875Y006703D02*
X006837Y006741D01*
X006612Y006741D01*
X006612Y006819D01*
X006607Y006839D01*
X006612Y006858D01*
X006612Y006936D01*
X006640Y006936D01*
X006678Y006974D01*
X008440Y006974D01*
X008360Y006836D01*
X008360Y006703D01*
X006875Y006703D01*
X006612Y006745D02*
X008360Y006745D01*
X008365Y006843D02*
X006608Y006843D01*
X006646Y006942D02*
X008421Y006942D01*
X008680Y006252D02*
X008904Y006252D01*
X008821Y006300D02*
X008821Y006300D01*
X008821Y006300D01*
X010210Y005858D02*
X010402Y005858D01*
X010326Y005814D02*
X010326Y005814D01*
X010326Y005814D01*
X010285Y005814D02*
X010285Y005814D01*
X010285Y005814D01*
X010616Y005119D02*
X010616Y005119D01*
X010616Y005119D01*
X010531Y005070D02*
X010741Y005070D01*
X011417Y004985D02*
X011417Y004985D01*
X012754Y004775D02*
X017412Y004775D01*
X017412Y004873D02*
X012766Y004873D01*
X012772Y004972D02*
X017412Y004972D01*
X017412Y005070D02*
X012772Y005070D01*
X012772Y005169D02*
X017412Y005169D01*
X017412Y005267D02*
X012766Y005267D01*
X012772Y005366D02*
X017412Y005366D01*
X017412Y005464D02*
X012772Y005464D01*
X012772Y005563D02*
X017412Y005563D01*
X017412Y005661D02*
X012759Y005661D01*
X012761Y003297D02*
X017412Y003297D01*
X017412Y003199D02*
X012772Y003199D01*
X012772Y003100D02*
X017412Y003100D01*
X017412Y003002D02*
X012772Y003002D01*
X012765Y002903D02*
X017412Y002903D01*
X017412Y002805D02*
X012772Y002805D01*
X012772Y002706D02*
X017412Y002706D01*
X017412Y002608D02*
X012772Y002608D01*
X012764Y002509D02*
X017412Y002509D01*
X017412Y002411D02*
X012754Y002411D01*
X012219Y002312D02*
X017412Y002312D01*
X017412Y002214D02*
X013904Y002214D01*
X013993Y002115D02*
X017412Y002115D01*
X017412Y002017D02*
X013993Y002017D01*
X013993Y001918D02*
X017412Y001918D01*
X017412Y001820D02*
X013993Y001820D01*
X013993Y001721D02*
X017412Y001721D01*
X017412Y001623D02*
X013905Y001623D01*
X012090Y001623D02*
X002915Y001623D01*
X002949Y001721D02*
X012003Y001721D01*
X012003Y001820D02*
X002982Y001820D01*
X003005Y001918D02*
X012003Y001918D01*
X012003Y002017D02*
X003005Y002017D01*
X003005Y002115D02*
X011688Y002115D01*
X011667Y002214D02*
X003005Y002214D01*
X003005Y002312D02*
X012201Y002312D01*
X011667Y002411D02*
X002982Y002411D01*
X002948Y002509D02*
X011648Y002509D01*
X011550Y002608D02*
X002914Y002608D01*
X003249Y003297D02*
X002329Y003297D01*
X002154Y003396D02*
X003288Y003396D01*
X003350Y003494D02*
X001765Y003494D01*
X001704Y003494D02*
X000426Y003494D01*
X000426Y003396D02*
X001147Y003396D01*
X000923Y003297D02*
X000426Y003297D01*
X000426Y003199D02*
X000791Y003199D01*
X000684Y003100D02*
X000426Y003100D01*
X000426Y003002D02*
X000577Y003002D01*
X000505Y002903D02*
X000426Y002903D01*
X000426Y002805D02*
X000452Y002805D01*
X000426Y003987D02*
X007232Y003987D01*
X007134Y004085D02*
X000426Y004085D01*
X002881Y001524D02*
X017412Y001524D01*
X017412Y001426D02*
X002835Y001426D01*
X002759Y001327D02*
X017412Y001327D01*
X017412Y001229D02*
X002682Y001229D01*
X002605Y001130D02*
X017412Y001130D01*
X017385Y001032D02*
X002483Y001032D01*
X002332Y000933D02*
X017290Y000933D01*
X018536Y001130D02*
X023517Y001130D01*
X023624Y001032D02*
X018563Y001032D01*
X018658Y000933D02*
X023753Y000933D01*
X023410Y001229D02*
X018536Y001229D01*
X018536Y001327D02*
X023339Y001327D01*
X023285Y001426D02*
X018536Y001426D01*
X018536Y001524D02*
X023232Y001524D01*
X023179Y001623D02*
X018536Y001623D01*
X018536Y001721D02*
X023147Y001721D01*
X023131Y001820D02*
X023084Y001820D01*
X023096Y001918D02*
X023114Y001918D01*
X023096Y002017D02*
X023098Y002017D01*
X023096Y002214D02*
X023098Y002214D01*
X023096Y002312D02*
X023115Y002312D01*
X023096Y002411D02*
X023131Y002411D01*
X023147Y002509D02*
X023096Y002509D01*
X023096Y002608D02*
X023180Y002608D01*
X023233Y002706D02*
X023096Y002706D01*
X023096Y002805D02*
X023286Y002805D01*
X023340Y002903D02*
X023096Y002903D01*
X023096Y003002D02*
X023412Y003002D01*
X023519Y003100D02*
X023096Y003100D01*
X023096Y003199D02*
X023626Y003199D01*
X023758Y003297D02*
X023096Y003297D01*
X023096Y003396D02*
X023982Y003396D01*
X024539Y003494D02*
X020898Y003494D01*
X020898Y003481D02*
X020898Y003581D01*
X023096Y003581D01*
X023096Y005201D01*
X023086Y005239D01*
X023066Y005273D01*
X023039Y005301D01*
X023004Y005321D01*
X022966Y005331D01*
X020898Y005331D01*
X020898Y003581D01*
X020798Y003581D01*
X020798Y003481D01*
X020898Y003481D01*
X020898Y003396D02*
X020798Y003396D01*
X020798Y003481D02*
X020798Y001732D01*
X018730Y001732D01*
X018692Y001742D01*
X018658Y001762D01*
X018630Y001790D01*
X018610Y001824D01*
X018600Y001862D01*
X018600Y003481D01*
X020798Y003481D01*
X020798Y003494D02*
X018536Y003494D01*
X018536Y003396D02*
X018600Y003396D01*
X018600Y003297D02*
X018536Y003297D01*
X018536Y003199D02*
X018600Y003199D01*
X018600Y003100D02*
X018536Y003100D01*
X018536Y003002D02*
X018600Y003002D01*
X018600Y002903D02*
X018536Y002903D01*
X018536Y002805D02*
X018600Y002805D01*
X018600Y002706D02*
X018536Y002706D01*
X018536Y002608D02*
X018600Y002608D01*
X018600Y002509D02*
X018536Y002509D01*
X018536Y002411D02*
X018600Y002411D01*
X018600Y002312D02*
X018536Y002312D01*
X018536Y002214D02*
X018600Y002214D01*
X018600Y002115D02*
X018536Y002115D01*
X018536Y002017D02*
X018600Y002017D01*
X018600Y001918D02*
X018536Y001918D01*
X018536Y001820D02*
X018612Y001820D01*
X020798Y001820D02*
X020898Y001820D01*
X020898Y001918D02*
X020798Y001918D01*
X020798Y002017D02*
X020898Y002017D01*
X020898Y002115D02*
X020798Y002115D01*
X020798Y002214D02*
X020898Y002214D01*
X020898Y002312D02*
X020798Y002312D01*
X020798Y002411D02*
X020898Y002411D01*
X020898Y002509D02*
X020798Y002509D01*
X020798Y002608D02*
X020898Y002608D01*
X020898Y002706D02*
X020798Y002706D01*
X020798Y002805D02*
X020898Y002805D01*
X020898Y002903D02*
X020798Y002903D01*
X020798Y003002D02*
X020898Y003002D01*
X020898Y003100D02*
X020798Y003100D01*
X020798Y003199D02*
X020898Y003199D01*
X020898Y003297D02*
X020798Y003297D01*
X020798Y003581D02*
X018600Y003581D01*
X018600Y005201D01*
X018610Y005239D01*
X018630Y005273D01*
X018658Y005301D01*
X018692Y005321D01*
X018730Y005331D01*
X020798Y005331D01*
X020798Y003581D01*
X020798Y003593D02*
X020898Y003593D01*
X020898Y003691D02*
X020798Y003691D01*
X020798Y003790D02*
X020898Y003790D01*
X020898Y003888D02*
X020798Y003888D01*
X020798Y003987D02*
X020898Y003987D01*
X020898Y004085D02*
X020798Y004085D01*
X020798Y004184D02*
X020898Y004184D01*
X020898Y004282D02*
X020798Y004282D01*
X020798Y004381D02*
X020898Y004381D01*
X020898Y004479D02*
X020798Y004479D01*
X020798Y004578D02*
X020898Y004578D01*
X020898Y004676D02*
X020798Y004676D01*
X020798Y004775D02*
X020898Y004775D01*
X020898Y004873D02*
X020798Y004873D01*
X020798Y004972D02*
X020898Y004972D01*
X020898Y005070D02*
X020798Y005070D01*
X020798Y005169D02*
X020898Y005169D01*
X020898Y005267D02*
X020798Y005267D01*
X018626Y005267D02*
X018536Y005267D01*
X018536Y005169D02*
X018600Y005169D01*
X018600Y005070D02*
X018536Y005070D01*
X018536Y004972D02*
X018600Y004972D01*
X018600Y004873D02*
X018536Y004873D01*
X018536Y004775D02*
X018600Y004775D01*
X018600Y004676D02*
X018536Y004676D01*
X018536Y004578D02*
X018600Y004578D01*
X018600Y004479D02*
X018536Y004479D01*
X018536Y004381D02*
X018600Y004381D01*
X018600Y004282D02*
X018536Y004282D01*
X018536Y004184D02*
X018600Y004184D01*
X018600Y004085D02*
X018536Y004085D01*
X018536Y003987D02*
X018600Y003987D01*
X018600Y003888D02*
X018536Y003888D01*
X018536Y003790D02*
X018600Y003790D01*
X018600Y003691D02*
X018536Y003691D01*
X018536Y003593D02*
X018600Y003593D01*
X018536Y005366D02*
X025680Y005366D01*
X025680Y005464D02*
X018536Y005464D01*
X023070Y005267D02*
X025680Y005267D01*
X025680Y005169D02*
X023096Y005169D01*
X023096Y005070D02*
X025680Y005070D01*
X025680Y004972D02*
X023096Y004972D01*
X023096Y004873D02*
X025680Y004873D01*
X025680Y004775D02*
X023096Y004775D01*
X023096Y004676D02*
X025680Y004676D01*
X025680Y004578D02*
X023096Y004578D01*
X023096Y004479D02*
X025680Y004479D01*
X025680Y004381D02*
X023096Y004381D01*
X023096Y004282D02*
X025680Y004282D01*
X025680Y004184D02*
X023096Y004184D01*
X023096Y004085D02*
X025680Y004085D01*
X025680Y003987D02*
X023096Y003987D01*
X023096Y003888D02*
X025680Y003888D01*
X025680Y003790D02*
X023096Y003790D01*
X023096Y003691D02*
X025680Y003691D01*
X025680Y003593D02*
X023096Y003593D01*
X024600Y003494D02*
X025680Y003494D01*
X025680Y003396D02*
X024989Y003396D01*
X025163Y003297D02*
X025680Y003297D01*
X025680Y003199D02*
X025314Y003199D01*
X025438Y003100D02*
X025680Y003100D01*
X025680Y003002D02*
X025515Y003002D01*
X025592Y002903D02*
X025680Y002903D01*
X025668Y002805D02*
X025680Y002805D01*
X017709Y008715D02*
X017515Y008715D01*
X017885Y009700D02*
X016748Y009700D01*
X016821Y009798D02*
X017885Y009798D01*
X017885Y009897D02*
X016825Y009897D01*
X016825Y009995D02*
X017885Y009995D01*
X017885Y010094D02*
X016825Y010094D01*
X016825Y010192D02*
X017885Y010192D01*
X017885Y010291D02*
X016825Y010291D01*
X015428Y013147D02*
X025680Y013147D01*
X025680Y013837D02*
X020991Y013837D01*
X021150Y013935D02*
X025680Y013935D01*
X025680Y014034D02*
X021243Y014034D01*
X021284Y014132D02*
X025680Y014132D01*
X025680Y014231D02*
X021319Y014231D01*
X021319Y014329D02*
X025680Y014329D01*
X025680Y014428D02*
X021316Y014428D01*
X021276Y014526D02*
X025680Y014526D01*
X025680Y014625D02*
X021228Y014625D01*
X021174Y014723D02*
X025680Y014723D01*
X025680Y014822D02*
X021174Y014822D01*
X021175Y014920D02*
X025680Y014920D01*
X025680Y015019D02*
X021213Y015019D01*
X021213Y015117D02*
X023776Y015117D01*
X023739Y015216D02*
X021213Y015216D01*
X021213Y015314D02*
X023739Y015314D01*
X023739Y015413D02*
X021212Y015413D01*
X021126Y015610D02*
X023739Y015610D01*
X023739Y015708D02*
X021193Y015708D01*
X021195Y015807D02*
X023739Y015807D01*
X023739Y015511D02*
X020975Y015511D01*
X020837Y015610D02*
X020780Y015610D01*
X020780Y015708D02*
X020837Y015708D01*
X020643Y015511D02*
X020130Y015511D01*
X020189Y015413D02*
X020405Y015413D01*
X020404Y015314D02*
X020189Y015314D01*
X020189Y015216D02*
X020404Y015216D01*
X020404Y015117D02*
X020189Y015117D01*
X020189Y015019D02*
X020404Y015019D01*
X020442Y014920D02*
X020150Y014920D01*
X020150Y014822D02*
X020444Y014822D01*
X020444Y014723D02*
X020150Y014723D01*
X020228Y014625D02*
X020374Y014625D01*
X020326Y014526D02*
X020276Y014526D01*
X020284Y014132D02*
X020317Y014132D01*
X020358Y014034D02*
X020243Y014034D01*
X020150Y013935D02*
X020452Y013935D01*
X020611Y013837D02*
X019991Y013837D01*
X019611Y013837D02*
X018991Y013837D01*
X019150Y013935D02*
X019452Y013935D01*
X019358Y014034D02*
X019243Y014034D01*
X019284Y014132D02*
X019317Y014132D01*
X019326Y014526D02*
X019276Y014526D01*
X019228Y014625D02*
X019374Y014625D01*
X019420Y014723D02*
X019166Y014723D01*
X019166Y014822D02*
X019420Y014822D01*
X019420Y014920D02*
X019167Y014920D01*
X019205Y015019D02*
X019381Y015019D01*
X019381Y015117D02*
X019205Y015117D01*
X019205Y015216D02*
X019381Y015216D01*
X019381Y015314D02*
X019205Y015314D01*
X019205Y015413D02*
X019381Y015413D01*
X019756Y015708D02*
X019814Y015708D01*
X019814Y015807D02*
X019756Y015807D01*
X019756Y016004D02*
X019814Y016004D01*
X019814Y016102D02*
X019756Y016102D01*
X019756Y016201D02*
X019814Y016201D01*
X020123Y016201D02*
X020551Y016201D01*
X020668Y016299D02*
X020759Y016299D01*
X020759Y016398D02*
X020683Y016398D01*
X020683Y016496D02*
X020759Y016496D01*
X020759Y016595D02*
X020404Y016595D01*
X020683Y016693D02*
X020759Y016693D01*
X020759Y016792D02*
X020683Y016792D01*
X020675Y016890D02*
X020759Y016890D01*
X020759Y016989D02*
X020701Y016989D01*
X020749Y017087D02*
X020759Y017087D01*
X021410Y016989D02*
X021472Y016989D01*
X022481Y016792D02*
X022578Y016792D01*
X022578Y016693D02*
X022481Y016693D01*
X022481Y016595D02*
X022578Y016595D01*
X022578Y016398D02*
X022481Y016398D01*
X022481Y016299D02*
X022578Y016299D01*
X022578Y016201D02*
X022481Y016201D01*
X023585Y016398D02*
X024296Y016398D01*
X024696Y016398D02*
X024796Y016398D01*
X024796Y016496D02*
X024696Y016496D01*
X024696Y016595D02*
X024796Y016595D01*
X025034Y016792D02*
X025680Y016792D01*
X025680Y016890D02*
X025133Y016890D01*
X025179Y016989D02*
X025680Y016989D01*
X025680Y017087D02*
X025214Y017087D01*
X025214Y017186D02*
X025680Y017186D01*
X025680Y017284D02*
X025203Y017284D01*
X025162Y017383D02*
X025680Y017383D01*
X025680Y017481D02*
X025092Y017481D01*
X025196Y016102D02*
X025680Y016102D01*
X025680Y016004D02*
X025334Y016004D01*
X025414Y015905D02*
X025680Y015905D01*
X025680Y015807D02*
X025414Y015807D01*
X025414Y015708D02*
X025680Y015708D01*
X025680Y015610D02*
X025414Y015610D01*
X025414Y015511D02*
X025680Y015511D01*
X025680Y015413D02*
X025414Y015413D01*
X025414Y015314D02*
X025680Y015314D01*
X025680Y015216D02*
X025414Y015216D01*
X025376Y015117D02*
X025680Y015117D01*
X020837Y016004D02*
X020780Y016004D01*
X020780Y016102D02*
X020837Y016102D01*
X020837Y016201D02*
X020780Y016201D01*
X020050Y017777D02*
X019126Y017777D01*
X017735Y018959D02*
X017642Y018959D01*
X016987Y018959D02*
X016768Y018959D01*
X016768Y018860D02*
X016891Y018860D01*
X016891Y018762D02*
X016821Y018762D01*
X015797Y020239D02*
X015772Y020239D01*
X015797Y020338D02*
X011819Y020338D01*
X011819Y020436D02*
X015797Y020436D01*
X015603Y020535D02*
X015503Y020535D01*
X015503Y020633D02*
X015603Y020633D01*
X015603Y020732D02*
X015503Y020732D01*
X015503Y020830D02*
X015603Y020830D01*
X015503Y020929D02*
X015021Y020929D01*
X015021Y021027D02*
X015103Y021027D01*
X015137Y021126D02*
X014995Y021126D01*
X015021Y021099D02*
X014747Y021374D01*
X014359Y021374D01*
X014085Y021099D01*
X014085Y020712D01*
X014359Y020437D01*
X014747Y020437D01*
X015021Y020712D01*
X015021Y021099D01*
X014896Y021224D02*
X015235Y021224D01*
X015334Y021323D02*
X014798Y021323D01*
X014747Y021437D02*
X014359Y021437D01*
X014085Y021712D01*
X014085Y022099D01*
X014359Y022374D01*
X014747Y022374D01*
X015021Y022099D01*
X015021Y021712D01*
X014747Y021437D01*
X014829Y021520D02*
X015276Y021520D01*
X015178Y021618D02*
X014928Y021618D01*
X015021Y021717D02*
X015085Y021717D01*
X015085Y021815D02*
X015021Y021815D01*
X015021Y021914D02*
X015085Y021914D01*
X015085Y022012D02*
X015021Y022012D01*
X015009Y022111D02*
X015096Y022111D01*
X015195Y022209D02*
X014911Y022209D01*
X014812Y022308D02*
X015293Y022308D01*
X014293Y022308D02*
X013812Y022308D01*
X013747Y022374D02*
X013359Y022374D01*
X013085Y022099D01*
X013085Y021712D01*
X013359Y021437D01*
X013747Y021437D01*
X014021Y021712D01*
X014021Y022099D01*
X013747Y022374D01*
X013911Y022209D02*
X014195Y022209D01*
X014096Y022111D02*
X014009Y022111D01*
X014021Y022012D02*
X014085Y022012D01*
X014085Y021914D02*
X014021Y021914D01*
X014021Y021815D02*
X014085Y021815D01*
X014085Y021717D02*
X014021Y021717D01*
X013928Y021618D02*
X014178Y021618D01*
X014276Y021520D02*
X013829Y021520D01*
X013747Y021374D02*
X013359Y021374D01*
X013085Y021099D01*
X013085Y020712D01*
X013359Y020437D01*
X013747Y020437D01*
X014021Y020712D01*
X014021Y021099D01*
X013747Y021374D01*
X013798Y021323D02*
X014308Y021323D01*
X014210Y021224D02*
X013896Y021224D01*
X013995Y021126D02*
X014111Y021126D01*
X014085Y021027D02*
X014021Y021027D01*
X014021Y020929D02*
X014085Y020929D01*
X014085Y020830D02*
X014021Y020830D01*
X014021Y020732D02*
X014085Y020732D01*
X014163Y020633D02*
X013943Y020633D01*
X013844Y020535D02*
X014261Y020535D01*
X014844Y020535D02*
X015287Y020535D01*
X015189Y020633D02*
X014943Y020633D01*
X015021Y020732D02*
X015103Y020732D01*
X015103Y020830D02*
X015021Y020830D01*
X015503Y021027D02*
X015603Y021027D01*
X015603Y021126D02*
X015503Y021126D01*
X015503Y021224D02*
X015603Y021224D01*
X015603Y021323D02*
X015503Y021323D01*
X015772Y021323D02*
X015787Y021323D01*
X016829Y021520D02*
X017302Y021520D01*
X017204Y021618D02*
X016928Y021618D01*
X017021Y021717D02*
X017105Y021717D01*
X017103Y021815D02*
X017021Y021815D01*
X015373Y020239D02*
X012740Y020239D01*
X012747Y020437D02*
X012359Y020437D01*
X012085Y020712D01*
X012085Y021099D01*
X012359Y021374D01*
X012747Y021374D01*
X013021Y021099D01*
X013021Y020712D01*
X012747Y020437D01*
X012844Y020535D02*
X013261Y020535D01*
X013163Y020633D02*
X012943Y020633D01*
X013021Y020732D02*
X013085Y020732D01*
X013085Y020830D02*
X013021Y020830D01*
X013021Y020929D02*
X013085Y020929D01*
X013085Y021027D02*
X013021Y021027D01*
X012995Y021126D02*
X013111Y021126D01*
X013210Y021224D02*
X012896Y021224D01*
X012798Y021323D02*
X013308Y021323D01*
X013276Y021520D02*
X012803Y021520D01*
X012739Y021456D02*
X013003Y021719D01*
X013003Y021856D01*
X012603Y021856D01*
X012603Y021956D01*
X012503Y021956D01*
X012503Y022356D01*
X012366Y022356D01*
X012103Y022092D01*
X012103Y021956D01*
X012503Y021956D01*
X012503Y021856D01*
X012103Y021856D01*
X012103Y021719D01*
X012366Y021456D01*
X012503Y021456D01*
X012503Y021856D01*
X012603Y021856D01*
X012603Y021456D01*
X012739Y021456D01*
X012603Y021520D02*
X012503Y021520D01*
X012503Y021618D02*
X012603Y021618D01*
X012603Y021717D02*
X012503Y021717D01*
X012503Y021815D02*
X012603Y021815D01*
X012603Y021914D02*
X013085Y021914D01*
X013003Y021956D02*
X013003Y022092D01*
X012739Y022356D01*
X012603Y022356D01*
X012603Y021956D01*
X013003Y021956D01*
X013003Y022012D02*
X013085Y022012D01*
X013096Y022111D02*
X012984Y022111D01*
X012885Y022209D02*
X013195Y022209D01*
X013293Y022308D02*
X012787Y022308D01*
X012603Y022308D02*
X012503Y022308D01*
X012503Y022209D02*
X012603Y022209D01*
X012603Y022111D02*
X012503Y022111D01*
X012503Y022012D02*
X012603Y022012D01*
X012503Y021914D02*
X012021Y021914D01*
X012021Y022012D02*
X012103Y022012D01*
X012122Y022111D02*
X012009Y022111D01*
X012021Y022099D02*
X011747Y022374D01*
X011359Y022374D01*
X011085Y022099D01*
X011085Y021712D01*
X011359Y021437D01*
X011747Y021437D01*
X012021Y021712D01*
X012021Y022099D01*
X011911Y022209D02*
X012220Y022209D01*
X012319Y022308D02*
X011812Y022308D01*
X011293Y022308D02*
X010812Y022308D01*
X010747Y022374D02*
X010359Y022374D01*
X010085Y022099D01*
X010085Y021712D01*
X010359Y021437D01*
X010747Y021437D01*
X011021Y021712D01*
X011021Y022099D01*
X010747Y022374D01*
X010911Y022209D02*
X011195Y022209D01*
X011096Y022111D02*
X011009Y022111D01*
X011021Y022012D02*
X011085Y022012D01*
X011085Y021914D02*
X011021Y021914D01*
X011021Y021815D02*
X011085Y021815D01*
X011085Y021717D02*
X011021Y021717D01*
X010928Y021618D02*
X011178Y021618D01*
X011276Y021520D02*
X010829Y021520D01*
X010747Y021374D02*
X010359Y021374D01*
X010085Y021099D01*
X010085Y020712D01*
X010359Y020437D01*
X010747Y020437D01*
X011021Y020712D01*
X011021Y021099D01*
X010747Y021374D01*
X010798Y021323D02*
X011308Y021323D01*
X011210Y021224D02*
X010896Y021224D01*
X010995Y021126D02*
X011111Y021126D01*
X011085Y021027D02*
X011021Y021027D01*
X011021Y020929D02*
X011085Y020929D01*
X011085Y020830D02*
X011021Y020830D01*
X011021Y020732D02*
X011085Y020732D01*
X011163Y020633D02*
X010943Y020633D01*
X010844Y020535D02*
X011261Y020535D01*
X011286Y020239D02*
X005894Y020239D01*
X005747Y020437D02*
X006021Y020712D01*
X006021Y021099D01*
X005747Y021374D01*
X005359Y021374D01*
X005085Y021099D01*
X005085Y020712D01*
X005359Y020437D01*
X005747Y020437D01*
X005844Y020535D02*
X006261Y020535D01*
X006359Y020437D02*
X006747Y020437D01*
X007021Y020712D01*
X007021Y021099D01*
X006747Y021374D01*
X006359Y021374D01*
X006085Y021099D01*
X006085Y020712D01*
X006359Y020437D01*
X006163Y020633D02*
X005943Y020633D01*
X006021Y020732D02*
X006085Y020732D01*
X006085Y020830D02*
X006021Y020830D01*
X006021Y020929D02*
X006085Y020929D01*
X006085Y021027D02*
X006021Y021027D01*
X005995Y021126D02*
X006111Y021126D01*
X006210Y021224D02*
X005896Y021224D01*
X005798Y021323D02*
X006308Y021323D01*
X006359Y021437D02*
X006747Y021437D01*
X007021Y021712D01*
X007021Y022099D01*
X006747Y022374D01*
X006359Y022374D01*
X006085Y022099D01*
X006085Y021712D01*
X006359Y021437D01*
X006276Y021520D02*
X005803Y021520D01*
X005739Y021456D02*
X006003Y021719D01*
X006003Y021856D01*
X005603Y021856D01*
X005603Y021956D01*
X005503Y021956D01*
X005503Y022356D01*
X005366Y022356D01*
X005103Y022092D01*
X005103Y021956D01*
X005503Y021956D01*
X005503Y021856D01*
X005103Y021856D01*
X005103Y021719D01*
X005366Y021456D01*
X005503Y021456D01*
X005503Y021856D01*
X005603Y021856D01*
X005603Y021456D01*
X005739Y021456D01*
X005603Y021520D02*
X005503Y021520D01*
X005503Y021618D02*
X005603Y021618D01*
X005603Y021717D02*
X005503Y021717D01*
X005503Y021815D02*
X005603Y021815D01*
X005603Y021914D02*
X006085Y021914D01*
X006003Y021956D02*
X006003Y022092D01*
X005739Y022356D01*
X005603Y022356D01*
X005603Y021956D01*
X006003Y021956D01*
X006003Y022012D02*
X006085Y022012D01*
X006096Y022111D02*
X005984Y022111D01*
X005885Y022209D02*
X006195Y022209D01*
X006293Y022308D02*
X005787Y022308D01*
X005603Y022308D02*
X005503Y022308D01*
X005503Y022209D02*
X005603Y022209D01*
X005603Y022111D02*
X005503Y022111D01*
X005503Y022012D02*
X005603Y022012D01*
X005503Y021914D02*
X005021Y021914D01*
X005021Y022012D02*
X005103Y022012D01*
X005122Y022111D02*
X005009Y022111D01*
X004911Y022209D02*
X005220Y022209D01*
X005319Y022308D02*
X004812Y022308D01*
X005021Y021815D02*
X005103Y021815D01*
X005105Y021717D02*
X005021Y021717D01*
X004928Y021618D02*
X005204Y021618D01*
X005302Y021520D02*
X004829Y021520D01*
X004798Y021323D02*
X005308Y021323D01*
X005210Y021224D02*
X004896Y021224D01*
X004995Y021126D02*
X005111Y021126D01*
X005085Y021027D02*
X005021Y021027D01*
X005021Y020929D02*
X005085Y020929D01*
X005085Y020830D02*
X005021Y020830D01*
X005021Y020732D02*
X005085Y020732D01*
X005163Y020633D02*
X004943Y020633D01*
X004844Y020535D02*
X005261Y020535D01*
X005902Y021618D02*
X006178Y021618D01*
X006085Y021717D02*
X006000Y021717D01*
X006003Y021815D02*
X006085Y021815D01*
X006829Y021520D02*
X007276Y021520D01*
X007359Y021437D02*
X007747Y021437D01*
X008021Y021712D01*
X008021Y022099D01*
X007747Y022374D01*
X007359Y022374D01*
X007085Y022099D01*
X007085Y021712D01*
X007359Y021437D01*
X007366Y021356D02*
X007103Y021092D01*
X007103Y020956D01*
X007503Y020956D01*
X007503Y021356D01*
X007366Y021356D01*
X007334Y021323D02*
X006798Y021323D01*
X006896Y021224D02*
X007235Y021224D01*
X007137Y021126D02*
X006995Y021126D01*
X007021Y021027D02*
X007103Y021027D01*
X007021Y020929D02*
X007503Y020929D01*
X007503Y020956D02*
X007503Y020856D01*
X007103Y020856D01*
X007103Y020719D01*
X007366Y020456D01*
X007503Y020456D01*
X007503Y020856D01*
X007603Y020856D01*
X007603Y020956D01*
X007503Y020956D01*
X007503Y021027D02*
X007603Y021027D01*
X007603Y020956D02*
X007603Y021356D01*
X007739Y021356D01*
X008003Y021092D01*
X008003Y020956D01*
X007603Y020956D01*
X007603Y020929D02*
X008085Y020929D01*
X008085Y021027D02*
X008003Y021027D01*
X007969Y021126D02*
X008111Y021126D01*
X008085Y021099D02*
X008085Y020712D01*
X008359Y020437D01*
X008747Y020437D01*
X009021Y020712D01*
X009021Y021099D01*
X008747Y021374D01*
X008359Y021374D01*
X008085Y021099D01*
X008210Y021224D02*
X007870Y021224D01*
X007772Y021323D02*
X008308Y021323D01*
X008359Y021437D02*
X008747Y021437D01*
X009021Y021712D01*
X009021Y022099D01*
X008747Y022374D01*
X008359Y022374D01*
X008085Y022099D01*
X008085Y021712D01*
X008359Y021437D01*
X008276Y021520D02*
X007829Y021520D01*
X007928Y021618D02*
X008178Y021618D01*
X008085Y021717D02*
X008021Y021717D01*
X008021Y021815D02*
X008085Y021815D01*
X008085Y021914D02*
X008021Y021914D01*
X008021Y022012D02*
X008085Y022012D01*
X008096Y022111D02*
X008009Y022111D01*
X007911Y022209D02*
X008195Y022209D01*
X008293Y022308D02*
X007812Y022308D01*
X007293Y022308D02*
X006812Y022308D01*
X006911Y022209D02*
X007195Y022209D01*
X007096Y022111D02*
X007009Y022111D01*
X007021Y022012D02*
X007085Y022012D01*
X007085Y021914D02*
X007021Y021914D01*
X007021Y021815D02*
X007085Y021815D01*
X007085Y021717D02*
X007021Y021717D01*
X006928Y021618D02*
X007178Y021618D01*
X007503Y021323D02*
X007603Y021323D01*
X007603Y021224D02*
X007503Y021224D01*
X007503Y021126D02*
X007603Y021126D01*
X007603Y020856D02*
X008003Y020856D01*
X008003Y020719D01*
X007739Y020456D01*
X007603Y020456D01*
X007603Y020856D01*
X007603Y020830D02*
X007503Y020830D01*
X007503Y020732D02*
X007603Y020732D01*
X007603Y020633D02*
X007503Y020633D01*
X007503Y020535D02*
X007603Y020535D01*
X007818Y020535D02*
X008261Y020535D01*
X008163Y020633D02*
X007917Y020633D01*
X008003Y020732D02*
X008085Y020732D01*
X008085Y020830D02*
X008003Y020830D01*
X007287Y020535D02*
X006844Y020535D01*
X006943Y020633D02*
X007189Y020633D01*
X007103Y020732D02*
X007021Y020732D01*
X007021Y020830D02*
X007103Y020830D01*
X008798Y021323D02*
X009308Y021323D01*
X009359Y021374D02*
X009085Y021099D01*
X009085Y020712D01*
X009359Y020437D01*
X009747Y020437D01*
X010021Y020712D01*
X010021Y021099D01*
X009747Y021374D01*
X009359Y021374D01*
X009366Y021456D02*
X009503Y021456D01*
X009503Y021856D01*
X009103Y021856D01*
X009103Y021719D01*
X009366Y021456D01*
X009302Y021520D02*
X008829Y021520D01*
X008928Y021618D02*
X009204Y021618D01*
X009105Y021717D02*
X009021Y021717D01*
X009021Y021815D02*
X009103Y021815D01*
X009021Y021914D02*
X009503Y021914D01*
X009503Y021956D02*
X009503Y021856D01*
X009603Y021856D01*
X009603Y021956D01*
X009503Y021956D01*
X009503Y022356D01*
X009366Y022356D01*
X009103Y022092D01*
X009103Y021956D01*
X009503Y021956D01*
X009503Y022012D02*
X009603Y022012D01*
X009603Y021956D02*
X009603Y022356D01*
X009739Y022356D01*
X010003Y022092D01*
X010003Y021956D01*
X009603Y021956D01*
X009603Y021914D02*
X010085Y021914D01*
X010085Y022012D02*
X010003Y022012D01*
X009984Y022111D02*
X010096Y022111D01*
X010195Y022209D02*
X009885Y022209D01*
X009787Y022308D02*
X010293Y022308D01*
X010085Y021815D02*
X010003Y021815D01*
X010003Y021856D02*
X009603Y021856D01*
X009603Y021456D01*
X009739Y021456D01*
X010003Y021719D01*
X010003Y021856D01*
X010000Y021717D02*
X010085Y021717D01*
X010178Y021618D02*
X009902Y021618D01*
X009803Y021520D02*
X010276Y021520D01*
X010308Y021323D02*
X009798Y021323D01*
X009896Y021224D02*
X010210Y021224D01*
X010111Y021126D02*
X009995Y021126D01*
X010021Y021027D02*
X010085Y021027D01*
X010085Y020929D02*
X010021Y020929D01*
X010021Y020830D02*
X010085Y020830D01*
X010085Y020732D02*
X010021Y020732D01*
X009943Y020633D02*
X010163Y020633D01*
X010261Y020535D02*
X009844Y020535D01*
X009261Y020535D02*
X008844Y020535D01*
X008943Y020633D02*
X009163Y020633D01*
X009085Y020732D02*
X009021Y020732D01*
X009021Y020830D02*
X009085Y020830D01*
X009085Y020929D02*
X009021Y020929D01*
X009021Y021027D02*
X009085Y021027D01*
X009111Y021126D02*
X008995Y021126D01*
X008896Y021224D02*
X009210Y021224D01*
X009503Y021520D02*
X009603Y021520D01*
X009603Y021618D02*
X009503Y021618D01*
X009503Y021717D02*
X009603Y021717D01*
X009603Y021815D02*
X009503Y021815D01*
X009503Y022111D02*
X009603Y022111D01*
X009603Y022209D02*
X009503Y022209D01*
X009503Y022308D02*
X009603Y022308D01*
X009319Y022308D02*
X008812Y022308D01*
X008911Y022209D02*
X009220Y022209D01*
X009122Y022111D02*
X009009Y022111D01*
X009021Y022012D02*
X009103Y022012D01*
X011829Y021520D02*
X012302Y021520D01*
X012204Y021618D02*
X011928Y021618D01*
X012021Y021717D02*
X012105Y021717D01*
X012103Y021815D02*
X012021Y021815D01*
X012902Y021618D02*
X013178Y021618D01*
X013085Y021717D02*
X013000Y021717D01*
X013003Y021815D02*
X013085Y021815D01*
X012308Y021323D02*
X011798Y021323D01*
X011896Y021224D02*
X012210Y021224D01*
X012111Y021126D02*
X011995Y021126D01*
X012021Y021027D02*
X012085Y021027D01*
X012085Y020929D02*
X012021Y020929D01*
X012021Y020830D02*
X012085Y020830D01*
X012085Y020732D02*
X012021Y020732D01*
X011943Y020633D02*
X012163Y020633D01*
X012261Y020535D02*
X011844Y020535D01*
X011819Y020239D02*
X012342Y020239D01*
X012246Y020141D02*
X011819Y020141D01*
X011819Y020042D02*
X012205Y020042D01*
X012195Y019944D02*
X011860Y019944D01*
X011958Y019845D02*
X012209Y019845D01*
X012253Y019747D02*
X012057Y019747D01*
X013305Y018565D02*
X013335Y018565D01*
X013207Y018466D02*
X013750Y018466D01*
X013750Y018368D02*
X013850Y018368D01*
X013850Y018373D02*
X013850Y018017D01*
X014135Y018017D01*
X014173Y018028D01*
X014207Y018047D01*
X014235Y018075D01*
X014255Y018109D01*
X014265Y018148D01*
X014265Y018373D01*
X013850Y018373D01*
X013850Y018466D02*
X014696Y018466D01*
X014696Y018368D02*
X014265Y018368D01*
X014265Y018269D02*
X014696Y018269D01*
X014696Y018171D02*
X014265Y018171D01*
X014232Y018072D02*
X014696Y018072D01*
X014696Y018565D02*
X014265Y018565D01*
X014265Y018663D02*
X014696Y018663D01*
X014692Y018762D02*
X014240Y018762D01*
X014258Y018860D02*
X014692Y018860D01*
X013850Y018269D02*
X013750Y018269D01*
X013750Y018171D02*
X013850Y018171D01*
X013850Y018072D02*
X013750Y018072D01*
X013335Y018368D02*
X013085Y018368D01*
X009078Y015708D02*
X007669Y015708D01*
X007689Y015610D02*
X008933Y015610D01*
X008873Y015511D02*
X007689Y015511D01*
X007689Y015413D02*
X008848Y015413D01*
X008848Y015314D02*
X007689Y015314D01*
X007689Y015216D02*
X008889Y015216D01*
X008969Y015117D02*
X007689Y015117D01*
X007593Y014822D02*
X008661Y014822D01*
X008472Y014723D02*
X008095Y014723D01*
X008197Y014625D02*
X008374Y014625D01*
X008326Y014526D02*
X008256Y014526D01*
X008288Y014436D02*
X008288Y014436D01*
X007849Y014428D02*
X007752Y014428D01*
X007752Y014526D02*
X007849Y014526D01*
X007849Y014625D02*
X007752Y014625D01*
X007752Y014723D02*
X007849Y014723D01*
X007507Y014723D02*
X007129Y014723D01*
X007228Y014625D02*
X007405Y014625D01*
X007345Y014526D02*
X007276Y014526D01*
X007100Y013147D02*
X008927Y013147D01*
X008908Y013049D02*
X008143Y013049D01*
X008257Y012950D02*
X008892Y012950D01*
X008869Y012852D02*
X008304Y012852D01*
X008320Y012753D02*
X008869Y012753D01*
X008869Y012655D02*
X008312Y012655D01*
X008271Y012556D02*
X008869Y012556D01*
X008869Y012458D02*
X008177Y012458D01*
X007771Y012458D02*
X007197Y012458D01*
X007118Y012359D02*
X008869Y012359D01*
X008869Y012261D02*
X006905Y012261D01*
X007004Y012162D02*
X008869Y012162D01*
X008869Y012064D02*
X007160Y012064D01*
X007256Y011965D02*
X008869Y011965D01*
X008869Y011867D02*
X007256Y011867D01*
X007256Y011768D02*
X008869Y011768D01*
X008869Y011670D02*
X007256Y011670D01*
X007256Y011571D02*
X008869Y011571D01*
X008869Y011473D02*
X007255Y011473D01*
X006846Y011177D02*
X008726Y011177D01*
X008627Y011079D02*
X006882Y011079D01*
X006882Y010980D02*
X008529Y010980D01*
X008430Y010882D02*
X006927Y010882D01*
X007026Y010783D02*
X008332Y010783D01*
X009167Y010586D02*
X009891Y010586D01*
X009793Y010685D02*
X009265Y010685D01*
X009364Y010783D02*
X009694Y010783D01*
X009618Y010882D02*
X009462Y010882D01*
X009551Y010980D02*
X009578Y010980D01*
X007805Y013049D02*
X007197Y013049D01*
X006643Y013147D02*
X006391Y013147D01*
X006489Y013049D02*
X006546Y013049D01*
X006546Y012950D02*
X006489Y012950D01*
X006489Y012852D02*
X006546Y012852D01*
X006546Y012753D02*
X006489Y012753D01*
X006511Y012655D02*
X006546Y012655D01*
X006211Y011965D02*
X006154Y011965D01*
X006154Y011867D02*
X006211Y011867D01*
X006211Y011768D02*
X006154Y011768D01*
X006154Y011670D02*
X006211Y011670D01*
X006211Y011571D02*
X006154Y011571D01*
X006154Y011473D02*
X006211Y011473D01*
X006473Y011473D02*
X006606Y011473D01*
X006605Y011571D02*
X006490Y011571D01*
X006490Y011670D02*
X006605Y011670D01*
X006605Y011768D02*
X006490Y011768D01*
X006490Y011867D02*
X006545Y011867D01*
X004611Y013837D02*
X004222Y013837D01*
X004297Y013935D02*
X004452Y013935D01*
X004358Y014034D02*
X004301Y014034D01*
X004301Y014132D02*
X004317Y014132D01*
X004301Y014526D02*
X004326Y014526D01*
X004301Y014625D02*
X004374Y014625D01*
X004292Y014723D02*
X004472Y014723D01*
X003849Y014231D02*
X003752Y014231D01*
X003752Y014132D02*
X003849Y014132D01*
X003849Y014034D02*
X003752Y014034D01*
X003752Y013935D02*
X003849Y013935D01*
X003849Y013837D02*
X003752Y013837D01*
X004594Y016201D02*
X004774Y016201D01*
X006548Y018565D02*
X006800Y018565D01*
X006804Y018663D02*
X006548Y018663D01*
X006596Y018762D02*
X006879Y018762D01*
X007215Y018762D02*
X007315Y018762D01*
X007315Y018663D02*
X007215Y018663D01*
X007215Y018565D02*
X007315Y018565D01*
X006226Y019034D02*
X006226Y019034D01*
X003276Y021520D02*
X003005Y021520D01*
X003005Y021618D02*
X003178Y021618D01*
X003085Y021717D02*
X002977Y021717D01*
X002943Y021815D02*
X003085Y021815D01*
X003085Y021914D02*
X002909Y021914D01*
X002875Y022012D02*
X003085Y022012D01*
X003096Y022111D02*
X002822Y022111D01*
X002745Y022209D02*
X003195Y022209D01*
X002457Y022505D02*
X023642Y022505D01*
X023791Y022603D02*
X002306Y022603D01*
X000443Y020732D02*
X000403Y020732D01*
X000401Y020633D02*
X000496Y020633D01*
X000559Y020535D02*
X000398Y020535D01*
X000396Y020436D02*
X000666Y020436D01*
X000773Y020338D02*
X000393Y020338D01*
X000390Y020239D02*
X000716Y020239D01*
X000652Y020141D02*
X000388Y020141D01*
X000385Y020042D02*
X000652Y020042D01*
X000652Y019944D02*
X000383Y019944D01*
X000380Y019845D02*
X000652Y019845D01*
X000652Y019747D02*
X000378Y019747D01*
X000375Y019648D02*
X000652Y019648D01*
X000652Y019550D02*
X000373Y019550D01*
X000370Y019451D02*
X000652Y019451D01*
X000706Y019353D02*
X000368Y019353D01*
X000365Y019254D02*
X000870Y019254D01*
X000870Y019057D02*
X000360Y019057D01*
X000357Y018959D02*
X000870Y018959D01*
X000870Y018860D02*
X000355Y018860D01*
X000352Y018762D02*
X000912Y018762D01*
X001270Y018762D02*
X001370Y018762D01*
X001370Y018860D02*
X001270Y018860D01*
X001270Y018959D02*
X001370Y018959D01*
X001370Y019057D02*
X001270Y019057D01*
X001270Y019156D02*
X000363Y019156D01*
X001370Y019156D02*
X002532Y019156D01*
X002481Y018762D02*
X001729Y018762D01*
X002092Y018368D02*
X002506Y018368D01*
X002394Y009207D02*
X003247Y009207D01*
X003283Y009109D02*
X002394Y009109D01*
X002394Y009010D02*
X003344Y009010D01*
X003445Y008912D02*
X002394Y008912D01*
X006557Y008124D02*
X006638Y008124D01*
X007097Y007828D02*
X009664Y007828D01*
X009671Y007840D02*
X009671Y007840D01*
X009671Y007840D01*
X009607Y007730D02*
X006998Y007730D01*
X006900Y007631D02*
X009558Y007631D01*
X009558Y007533D02*
X006801Y007533D01*
X005614Y005756D02*
X005614Y005756D01*
X005614Y004575D02*
X005614Y004575D01*
X006644Y004184D02*
X007035Y004184D01*
X006937Y004282D02*
X006742Y004282D01*
X021410Y018565D02*
X021471Y018565D01*
X021456Y018663D02*
X021410Y018663D01*
X021410Y018762D02*
X021456Y018762D01*
X021456Y018860D02*
X021410Y018860D01*
X021410Y018959D02*
X021456Y018959D01*
X021456Y019057D02*
X021410Y019057D01*
X021406Y019156D02*
X021498Y019156D01*
X021605Y019254D02*
X021375Y019254D01*
X022138Y019353D02*
X023793Y019353D01*
X023739Y019451D02*
X022138Y019451D01*
X022138Y019550D02*
X023739Y019550D01*
X023739Y019648D02*
X022171Y019648D01*
X022212Y019747D02*
X023739Y019747D01*
X023739Y019845D02*
X022218Y019845D01*
X022200Y019944D02*
X023739Y019944D01*
X023739Y020042D02*
X022150Y020042D01*
X022028Y020141D02*
X023739Y020141D01*
X023394Y020535D02*
X022818Y020535D01*
X022739Y020456D02*
X023003Y020719D01*
X023003Y020856D01*
X022603Y020856D01*
X022603Y020456D01*
X022739Y020456D01*
X022603Y020535D02*
X022503Y020535D01*
X022503Y020633D02*
X022603Y020633D01*
X022603Y020732D02*
X022503Y020732D01*
X022503Y020830D02*
X022603Y020830D01*
X022603Y020929D02*
X023171Y020929D01*
X023145Y021027D02*
X023003Y021027D01*
X022969Y021126D02*
X023128Y021126D01*
X023112Y021224D02*
X022870Y021224D01*
X022603Y021224D02*
X022503Y021224D01*
X022503Y021126D02*
X022603Y021126D01*
X022603Y021027D02*
X022503Y021027D01*
X022503Y020929D02*
X022021Y020929D01*
X022021Y021027D02*
X022103Y021027D01*
X022137Y021126D02*
X021995Y021126D01*
X021896Y021224D02*
X022235Y021224D01*
X022334Y021323D02*
X021798Y021323D01*
X021829Y021520D02*
X022276Y021520D01*
X022178Y021618D02*
X021928Y021618D01*
X022021Y021717D02*
X022085Y021717D01*
X022085Y021815D02*
X022021Y021815D01*
X022021Y021914D02*
X022085Y021914D01*
X022085Y022012D02*
X022021Y022012D01*
X022009Y022111D02*
X022096Y022111D01*
X022195Y022209D02*
X021911Y022209D01*
X021812Y022308D02*
X022293Y022308D01*
X022503Y021323D02*
X022603Y021323D01*
X023003Y020830D02*
X023224Y020830D01*
X023277Y020732D02*
X023003Y020732D01*
X022917Y020633D02*
X023331Y020633D01*
X022287Y020535D02*
X021844Y020535D01*
X021943Y020633D02*
X022189Y020633D01*
X022103Y020732D02*
X022021Y020732D01*
X022021Y020830D02*
X022103Y020830D01*
X021544Y019944D02*
X021366Y019944D01*
X022234Y019254D02*
X024011Y019254D01*
X023622Y019156D02*
X023560Y019156D01*
X020308Y021323D02*
X020288Y021323D01*
D39*
X018553Y020906D02*
X018553Y020315D01*
X018919Y019949D01*
X019903Y019949D01*
X021084Y019594D02*
X021832Y019594D01*
X021872Y019555D02*
X021872Y019240D01*
X022265Y018846D01*
X022529Y018846D01*
X023486Y018846D01*
X024746Y019165D01*
X024746Y018165D02*
X023407Y018059D01*
X022529Y018059D01*
X021084Y018059D01*
X021084Y018846D01*
X021872Y019555D02*
X021872Y019831D01*
X020376Y018059D02*
X019037Y018059D01*
X018998Y018020D02*
X018880Y018020D01*
X018102Y018020D01*
X018063Y017980D01*
X018063Y017517D01*
X018063Y017980D02*
X018063Y018477D01*
X017315Y018477D02*
X016729Y018477D01*
X016480Y018726D01*
X016480Y019182D01*
X016480Y019675D01*
X016553Y019748D01*
X016553Y020906D01*
X016045Y021398D02*
X016553Y021906D01*
X015980Y019451D02*
X015980Y019182D01*
X015980Y017848D01*
X016312Y017517D01*
X017315Y017517D01*
X015572Y017587D02*
X015336Y017350D01*
X014667Y017350D01*
X014470Y017154D01*
X014470Y016563D01*
X014313Y016406D01*
X013390Y016406D01*
X013389Y016406D01*
X013389Y016581D01*
X012974Y016996D01*
X012974Y017272D01*
X012822Y017423D01*
X012502Y017423D01*
X011596Y017980D02*
X011596Y016642D01*
X011831Y016406D01*
X012641Y016406D01*
X011596Y017980D02*
X012226Y018610D01*
X012974Y018610D01*
X013210Y018846D01*
X013210Y019201D01*
X013210Y019358D01*
X013092Y019476D01*
X011950Y019476D01*
X011478Y019949D01*
X011435Y019949D02*
X011553Y020067D01*
X011553Y020906D01*
X011435Y019949D02*
X006281Y019949D01*
X005494Y019949D01*
X005454Y019909D01*
X005454Y019870D01*
X005494Y019949D02*
X003801Y019949D01*
X003553Y020197D01*
X003553Y020906D01*
X003553Y021906D02*
X004553Y021906D01*
X002580Y018059D02*
X001320Y018165D01*
X002580Y018059D02*
X003537Y018059D01*
X003537Y017272D02*
X002580Y017272D01*
X001320Y017165D01*
X001320Y016165D02*
X002620Y016484D01*
X003537Y016484D01*
X005100Y016484D01*
X005809Y016484D02*
X005809Y017272D01*
X006124Y017272D01*
X006360Y017508D01*
X006832Y016878D02*
X006832Y016612D01*
X004824Y014604D01*
X004824Y014343D01*
X004801Y014319D01*
X005801Y014319D02*
X005801Y014862D01*
X006242Y015303D01*
X007226Y015303D01*
X006832Y016612D02*
X006803Y016612D01*
X006832Y016878D02*
X007265Y017311D01*
X007265Y017587D01*
X005100Y017272D02*
X003537Y017272D01*
X006163Y012744D02*
X006163Y012626D01*
X006931Y011858D01*
X006931Y011720D01*
X006557Y010894D02*
X006557Y010736D01*
X007187Y008295D02*
X011084Y008295D01*
X011557Y007823D01*
X012210Y007823D01*
X013013Y011445D02*
X013013Y011720D01*
X013112Y011819D01*
X013112Y012173D01*
X013880Y012173D01*
X013899Y012154D01*
X014391Y012547D02*
X014647Y012291D01*
X014647Y012154D01*
X014391Y012547D02*
X013112Y012547D01*
X012777Y012547D01*
X012659Y012665D01*
X012659Y013531D01*
X012206Y012921D02*
X012206Y012547D01*
X011872Y012587D01*
X011517Y012232D01*
X011399Y012232D01*
X012206Y012173D02*
X012206Y012547D01*
X013112Y012921D02*
X013506Y012921D01*
X013565Y012980D01*
X014273Y012980D01*
X015218Y012980D01*
X015887Y012311D01*
X016399Y012311D01*
X019785Y014335D02*
X019801Y014319D01*
X020801Y014319D02*
X020809Y014327D01*
X021084Y016602D02*
X021084Y017272D01*
X022529Y017272D01*
X023486Y017272D01*
X024746Y017165D01*
X015572Y017587D02*
X015572Y018531D01*
X015480Y018624D01*
X015480Y019182D01*
X014962Y019161D02*
X014962Y018118D01*
X015139Y017941D01*
X014962Y019161D02*
X013840Y019161D01*
X013800Y019211D02*
X013220Y019211D01*
X010021Y013531D02*
X009943Y013453D01*
X007187Y008295D02*
X006616Y007724D01*
X006754Y006839D02*
X005517Y006839D01*
D40*
X005555Y006857D02*
X005560Y006839D01*
X005555Y006820D01*
X005555Y006740D01*
X005555Y006660D01*
X005566Y006620D01*
X005587Y006583D01*
X005595Y006575D01*
X005595Y006511D01*
X005587Y006503D01*
X005566Y006467D01*
X005555Y006426D01*
X005555Y006346D01*
X005555Y006266D01*
X005566Y006226D01*
X005587Y006190D01*
X005595Y006182D01*
X005595Y005921D01*
X005587Y005913D01*
X005566Y005876D01*
X005555Y005836D01*
X005555Y005756D01*
X006084Y005756D01*
X006084Y005756D01*
X005555Y005756D01*
X005555Y005676D01*
X005566Y005635D01*
X005587Y005599D01*
X005595Y005591D01*
X005595Y005330D01*
X005587Y005322D01*
X005566Y005286D01*
X005555Y005245D01*
X005555Y005165D01*
X005555Y005085D01*
X005566Y005045D01*
X005587Y005009D01*
X005595Y005000D01*
X005595Y004740D01*
X005587Y004732D01*
X005566Y004695D01*
X005555Y004655D01*
X005555Y004575D01*
X006084Y004575D01*
X006084Y004575D01*
X005555Y004575D01*
X005555Y004495D01*
X005566Y004454D01*
X005587Y004418D01*
X005595Y004410D01*
X005595Y004270D01*
X005664Y004201D01*
X005454Y004201D01*
X005454Y008177D01*
X006084Y008177D01*
X006084Y008099D01*
X005665Y008099D01*
X005595Y008030D01*
X005595Y007692D01*
X005587Y007684D01*
X005566Y007648D01*
X005555Y007608D01*
X005555Y007528D01*
X006084Y007528D01*
X006084Y007528D01*
X005555Y007528D01*
X005555Y007448D01*
X005566Y007407D01*
X005587Y007371D01*
X005595Y007363D01*
X005595Y007102D01*
X005587Y007094D01*
X005566Y007057D01*
X005555Y007017D01*
X005555Y006937D01*
X005635Y006937D01*
X005635Y006937D01*
X005555Y006937D01*
X005555Y006857D01*
X005555Y006800D02*
X005454Y006800D01*
X005454Y006917D02*
X005555Y006917D01*
X005559Y007033D02*
X005454Y007033D01*
X005454Y007150D02*
X005595Y007150D01*
X005595Y007266D02*
X005454Y007266D01*
X005454Y007383D02*
X005580Y007383D01*
X005555Y007500D02*
X005454Y007500D01*
X005454Y007616D02*
X005557Y007616D01*
X005595Y007733D02*
X005454Y007733D01*
X005454Y007849D02*
X005595Y007849D01*
X005595Y007966D02*
X005454Y007966D01*
X005454Y008083D02*
X005648Y008083D01*
X006088Y007724D02*
X006616Y007724D01*
X005635Y006740D02*
X005555Y006740D01*
X005635Y006740D01*
X005635Y006740D01*
X005555Y006683D02*
X005454Y006683D01*
X005454Y006567D02*
X005595Y006567D01*
X005561Y006450D02*
X005454Y006450D01*
X005454Y006334D02*
X005555Y006334D01*
X005555Y006346D02*
X006084Y006346D01*
X006084Y006346D01*
X005555Y006346D01*
X005571Y006217D02*
X005454Y006217D01*
X005454Y006100D02*
X005595Y006100D01*
X005595Y005984D02*
X005454Y005984D01*
X005454Y005867D02*
X005563Y005867D01*
X005555Y005750D02*
X005454Y005750D01*
X005454Y005634D02*
X005567Y005634D01*
X005595Y005517D02*
X005454Y005517D01*
X005454Y005401D02*
X005595Y005401D01*
X005565Y005284D02*
X005454Y005284D01*
X005454Y005167D02*
X005555Y005167D01*
X005555Y005165D02*
X006084Y005165D01*
X005555Y005165D01*
X005564Y005051D02*
X005454Y005051D01*
X005454Y004934D02*
X005595Y004934D01*
X005595Y004818D02*
X005454Y004818D01*
X005454Y004701D02*
X005569Y004701D01*
X005555Y004584D02*
X005454Y004584D01*
X005454Y004468D02*
X005562Y004468D01*
X005595Y004351D02*
X005454Y004351D01*
X005454Y004235D02*
X005630Y004235D01*
X006084Y005165D02*
X006084Y005165D01*
X006872Y012744D02*
X007974Y012744D01*
X009194Y015382D02*
X011990Y015382D01*
X012187Y015185D01*
X014588Y015185D01*
X014801Y014972D01*
X014801Y014319D01*
X013801Y014319D02*
X013801Y014634D01*
X013525Y014909D01*
X011872Y014909D01*
X011714Y015067D01*
X012265Y015461D02*
X016124Y015461D01*
X016801Y014783D01*
X016801Y014319D01*
X012777Y015815D02*
X012344Y015815D01*
X012108Y016051D01*
X007226Y016051D01*
X005454Y016878D02*
X005454Y017705D01*
X005494Y017744D01*
X006084Y017744D01*
X006320Y017980D01*
X009155Y017980D01*
X006596Y019083D02*
X012541Y019083D01*
X013210Y019201D02*
X013220Y019211D01*
X013800Y019211D02*
X013800Y019202D01*
X013840Y019161D01*
X012541Y019949D02*
X015572Y019949D01*
X016045Y019516D02*
X015980Y019451D01*
X017553Y020906D02*
X017553Y020945D01*
X018013Y021406D01*
X019943Y021406D01*
X020061Y021287D01*
X020061Y020500D01*
X020297Y020264D01*
X020533Y020264D01*
X020691Y020106D01*
X020572Y019594D02*
X020730Y019437D01*
X020730Y018059D01*
X020376Y018059D01*
X020730Y018059D02*
X020730Y017390D01*
X020612Y017272D01*
X020376Y017272D01*
X019037Y018059D02*
X018998Y018020D01*
X020376Y019594D02*
X020572Y019594D01*
X021832Y019594D02*
X021872Y019555D01*
X012265Y015461D02*
X011990Y015736D01*
X010848Y015736D01*
X006320Y018295D02*
X006320Y018807D01*
X006596Y019083D01*
X006360Y019870D02*
X006281Y019949D01*
X006320Y018295D02*
X006084Y018059D01*
X003537Y018059D01*
X005100Y016524D02*
X005454Y016878D01*
X005100Y016524D02*
X005100Y016484D01*
X011435Y019949D02*
X011478Y019949D01*
D41*
X016045Y019516D02*
X016045Y021398D01*
D42*
X018801Y015185D02*
X018801Y014319D01*
X019785Y014335D02*
X019785Y015224D01*
X020809Y015185D02*
X020809Y014327D01*
X017801Y014319D02*
X017801Y013831D01*
X017502Y013531D01*
X012659Y013531D01*
X010021Y013531D01*
X005588Y013531D01*
X004801Y014319D01*
X009234Y012823D02*
X009234Y011169D01*
X008387Y010323D01*
X006970Y010323D01*
X006557Y010736D01*
X008387Y010323D02*
X008348Y010067D01*
X009943Y011051D02*
X009943Y012823D01*
X009943Y013453D01*
X009943Y011051D02*
X010946Y010047D01*
X010907Y010067D01*
X016399Y012311D02*
X016675Y012311D01*
X017541Y011445D01*
X018250Y011445D01*
X018250Y009555D01*
X019194Y008610D01*
X019943Y008610D01*
X020178Y008375D01*
X020178Y007598D01*
X021518Y007598D02*
X021518Y009310D01*
X021567Y009437D01*
X021527Y009860D01*
X020769Y010618D01*
X020769Y011445D01*
X022726Y010815D02*
X023958Y010815D01*
X024065Y010709D01*
X024785Y010709D01*
X022726Y010815D02*
X022726Y008717D01*
X022188Y008179D01*
X022188Y007598D01*
X022200Y007587D01*
X023171Y007587D01*
X023761Y008177D01*
X024549Y008177D01*
D43*
X012210Y007429D02*
X011694Y007429D01*
X011557Y007292D01*
X011124Y007292D01*
X011106Y007294D01*
X011088Y007298D01*
X011072Y007306D01*
X011057Y007317D01*
X011044Y007330D01*
X011033Y007345D01*
X011025Y007361D01*
X011021Y007379D01*
X011019Y007397D01*
X011019Y007530D01*
X010899Y007530D02*
X010899Y007397D01*
X011019Y007530D02*
X011017Y007557D01*
X011012Y007584D01*
X011004Y007610D01*
X010993Y007635D01*
X010979Y007658D01*
X010962Y007679D01*
X010943Y007698D01*
X010922Y007715D01*
X010899Y007729D01*
X010874Y007740D01*
X010848Y007748D01*
X010821Y007753D01*
X010794Y007755D01*
X010743Y007755D01*
X010743Y007635D02*
X010794Y007635D01*
X010812Y007633D01*
X010830Y007629D01*
X010847Y007621D01*
X010861Y007610D01*
X010874Y007597D01*
X010885Y007583D01*
X010893Y007566D01*
X010897Y007548D01*
X010899Y007530D01*
X010743Y007755D02*
X010716Y007753D01*
X010689Y007748D01*
X010663Y007740D01*
X010638Y007729D01*
X010615Y007715D01*
X010594Y007698D01*
X010575Y007679D01*
X010558Y007658D01*
X010544Y007635D01*
X010533Y007610D01*
X010525Y007584D01*
X010520Y007557D01*
X010518Y007530D01*
X010518Y007397D01*
X010516Y007379D01*
X010512Y007361D01*
X010504Y007345D01*
X010493Y007330D01*
X010480Y007317D01*
X010466Y007306D01*
X010449Y007298D01*
X010431Y007294D01*
X010413Y007292D01*
X010362Y007292D01*
X010344Y007294D01*
X010326Y007298D01*
X010310Y007306D01*
X010295Y007317D01*
X010282Y007330D01*
X010271Y007345D01*
X010263Y007361D01*
X010259Y007379D01*
X010257Y007397D01*
X010257Y007530D01*
X010137Y007530D02*
X010137Y007397D01*
X010257Y007530D02*
X010255Y007557D01*
X010250Y007584D01*
X010242Y007610D01*
X010231Y007635D01*
X010217Y007658D01*
X010200Y007679D01*
X010181Y007698D01*
X010160Y007715D01*
X010137Y007729D01*
X010112Y007740D01*
X010086Y007748D01*
X010059Y007753D01*
X010032Y007755D01*
X009981Y007755D01*
X009981Y007635D02*
X010032Y007635D01*
X010050Y007633D01*
X010068Y007629D01*
X010085Y007621D01*
X010099Y007610D01*
X010112Y007597D01*
X010123Y007583D01*
X010131Y007566D01*
X010135Y007548D01*
X010137Y007530D01*
X009981Y007755D02*
X009954Y007753D01*
X009927Y007748D01*
X009901Y007740D01*
X009876Y007729D01*
X009853Y007715D01*
X009832Y007698D01*
X009813Y007679D01*
X009796Y007658D01*
X009782Y007635D01*
X009771Y007610D01*
X009763Y007584D01*
X009758Y007557D01*
X009756Y007530D01*
X009756Y007397D01*
X009754Y007379D01*
X009750Y007361D01*
X009742Y007345D01*
X009731Y007330D01*
X009718Y007317D01*
X009704Y007306D01*
X009687Y007298D01*
X009669Y007294D01*
X009651Y007292D01*
X006596Y007292D01*
X006558Y007331D01*
X006088Y007331D01*
X006088Y007134D02*
X006558Y007134D01*
X006596Y007172D01*
X009651Y007172D01*
X009678Y007174D01*
X009705Y007179D01*
X009731Y007187D01*
X009756Y007198D01*
X009779Y007212D01*
X009800Y007229D01*
X009819Y007248D01*
X009836Y007269D01*
X009850Y007292D01*
X009861Y007317D01*
X009869Y007343D01*
X009874Y007370D01*
X009876Y007397D01*
X009876Y007530D01*
X009878Y007548D01*
X009882Y007566D01*
X009890Y007583D01*
X009901Y007597D01*
X009914Y007610D01*
X009929Y007621D01*
X009945Y007629D01*
X009963Y007633D01*
X009981Y007635D01*
X010137Y007397D02*
X010139Y007370D01*
X010144Y007343D01*
X010152Y007317D01*
X010163Y007292D01*
X010177Y007269D01*
X010194Y007248D01*
X010213Y007229D01*
X010234Y007212D01*
X010257Y007198D01*
X010282Y007187D01*
X010308Y007179D01*
X010335Y007174D01*
X010362Y007172D01*
X010413Y007172D01*
X010440Y007174D01*
X010467Y007179D01*
X010493Y007187D01*
X010518Y007198D01*
X010541Y007212D01*
X010562Y007229D01*
X010581Y007248D01*
X010598Y007269D01*
X010612Y007292D01*
X010623Y007317D01*
X010631Y007343D01*
X010636Y007370D01*
X010638Y007397D01*
X010638Y007530D01*
X010640Y007548D01*
X010644Y007566D01*
X010652Y007583D01*
X010663Y007597D01*
X010676Y007610D01*
X010691Y007621D01*
X010707Y007629D01*
X010725Y007633D01*
X010743Y007635D01*
X010899Y007397D02*
X010901Y007370D01*
X010906Y007343D01*
X010914Y007317D01*
X010925Y007292D01*
X010939Y007269D01*
X010956Y007248D01*
X010975Y007229D01*
X010996Y007212D01*
X011019Y007198D01*
X011044Y007187D01*
X011070Y007179D01*
X011097Y007174D01*
X011124Y007172D01*
X011557Y007172D01*
X011694Y007035D01*
X012210Y007035D01*
X012210Y006642D02*
X011733Y006642D01*
X011596Y006505D01*
X009824Y006505D01*
X009806Y006507D01*
X009788Y006511D01*
X009772Y006519D01*
X009757Y006530D01*
X009744Y006543D01*
X009733Y006558D01*
X009725Y006574D01*
X009721Y006592D01*
X009719Y006610D01*
X009719Y006723D01*
X009599Y006723D02*
X009599Y006610D01*
X009719Y006723D02*
X009717Y006750D01*
X009712Y006777D01*
X009704Y006803D01*
X009693Y006828D01*
X009679Y006851D01*
X009662Y006872D01*
X009643Y006891D01*
X009622Y006908D01*
X009599Y006922D01*
X009574Y006933D01*
X009548Y006941D01*
X009521Y006946D01*
X009494Y006948D01*
X009477Y006948D01*
X009477Y006828D02*
X009494Y006828D01*
X009512Y006826D01*
X009530Y006822D01*
X009547Y006814D01*
X009561Y006803D01*
X009574Y006790D01*
X009585Y006776D01*
X009593Y006759D01*
X009597Y006741D01*
X009599Y006723D01*
X009477Y006948D02*
X009450Y006946D01*
X009423Y006941D01*
X009397Y006933D01*
X009372Y006922D01*
X009349Y006908D01*
X009328Y006891D01*
X009309Y006872D01*
X009292Y006851D01*
X009278Y006828D01*
X009267Y006803D01*
X009259Y006777D01*
X009254Y006750D01*
X009252Y006723D01*
X009252Y006618D01*
X009250Y006600D01*
X009246Y006582D01*
X009238Y006566D01*
X009227Y006551D01*
X009214Y006538D01*
X009200Y006527D01*
X009183Y006519D01*
X009165Y006515D01*
X009147Y006513D01*
X009130Y006513D01*
X009130Y006385D02*
X009103Y006387D01*
X009076Y006392D01*
X009050Y006400D01*
X009025Y006411D01*
X009002Y006425D01*
X008981Y006442D01*
X008962Y006461D01*
X008945Y006482D01*
X008931Y006505D01*
X008920Y006530D01*
X008912Y006556D01*
X008907Y006583D01*
X008905Y006610D01*
X008905Y006723D01*
X009025Y006723D02*
X009023Y006750D01*
X009018Y006777D01*
X009010Y006803D01*
X008999Y006828D01*
X008985Y006851D01*
X008968Y006872D01*
X008949Y006891D01*
X008928Y006908D01*
X008905Y006922D01*
X008880Y006933D01*
X008854Y006941D01*
X008827Y006946D01*
X008800Y006948D01*
X008784Y006948D01*
X008784Y006828D02*
X008800Y006828D01*
X008818Y006826D01*
X008836Y006822D01*
X008853Y006814D01*
X008867Y006803D01*
X008880Y006790D01*
X008891Y006776D01*
X008899Y006759D01*
X008903Y006741D01*
X008905Y006723D01*
X009025Y006723D02*
X009025Y006618D01*
X009027Y006600D01*
X009031Y006582D01*
X009039Y006566D01*
X009050Y006551D01*
X009063Y006538D01*
X009078Y006527D01*
X009094Y006519D01*
X009112Y006515D01*
X009130Y006513D01*
X009147Y006385D02*
X009174Y006387D01*
X009201Y006392D01*
X009227Y006400D01*
X009252Y006411D01*
X009275Y006425D01*
X009296Y006442D01*
X009315Y006461D01*
X009332Y006482D01*
X009346Y006505D01*
X009357Y006530D01*
X009365Y006556D01*
X009370Y006583D01*
X009372Y006610D01*
X009372Y006723D01*
X009374Y006741D01*
X009378Y006759D01*
X009386Y006776D01*
X009397Y006790D01*
X009410Y006803D01*
X009425Y006814D01*
X009441Y006822D01*
X009459Y006826D01*
X009477Y006828D01*
X009599Y006610D02*
X009601Y006583D01*
X009606Y006556D01*
X009614Y006530D01*
X009625Y006505D01*
X009639Y006482D01*
X009656Y006461D01*
X009675Y006442D01*
X009696Y006425D01*
X009719Y006411D01*
X009744Y006400D01*
X009770Y006392D01*
X009797Y006387D01*
X009824Y006385D01*
X011596Y006385D01*
X011733Y006248D01*
X012210Y006248D01*
X012210Y005461D02*
X011615Y005461D01*
X011478Y005324D01*
X010966Y005324D01*
X010948Y005326D01*
X010930Y005330D01*
X010914Y005338D01*
X010899Y005349D01*
X010886Y005362D01*
X010875Y005377D01*
X010867Y005393D01*
X010863Y005411D01*
X010861Y005429D01*
X010861Y005505D01*
X010741Y005505D02*
X010741Y005429D01*
X010861Y005505D02*
X010859Y005532D01*
X010854Y005559D01*
X010846Y005585D01*
X010835Y005610D01*
X010821Y005633D01*
X010804Y005654D01*
X010785Y005673D01*
X010764Y005690D01*
X010741Y005704D01*
X010716Y005715D01*
X010690Y005723D01*
X010663Y005728D01*
X010636Y005730D01*
X010636Y005730D01*
X010636Y005610D02*
X010636Y005610D01*
X010636Y005730D02*
X010609Y005728D01*
X010582Y005723D01*
X010556Y005715D01*
X010531Y005704D01*
X010508Y005690D01*
X010487Y005673D01*
X010468Y005654D01*
X010451Y005633D01*
X010437Y005610D01*
X010426Y005585D01*
X010418Y005559D01*
X010413Y005532D01*
X010411Y005505D01*
X010411Y005437D01*
X010409Y005419D01*
X010405Y005401D01*
X010397Y005385D01*
X010386Y005370D01*
X010373Y005357D01*
X010359Y005346D01*
X010342Y005338D01*
X010324Y005334D01*
X010306Y005332D01*
X010306Y005332D01*
X010306Y005204D02*
X010333Y005206D01*
X010360Y005211D01*
X010386Y005219D01*
X010411Y005230D01*
X010434Y005244D01*
X010455Y005261D01*
X010474Y005280D01*
X010491Y005301D01*
X010505Y005324D01*
X010516Y005349D01*
X010524Y005375D01*
X010529Y005402D01*
X010531Y005429D01*
X010531Y005505D01*
X010533Y005523D01*
X010537Y005541D01*
X010545Y005558D01*
X010556Y005572D01*
X010569Y005585D01*
X010584Y005596D01*
X010600Y005604D01*
X010618Y005608D01*
X010636Y005610D01*
X010654Y005608D01*
X010672Y005604D01*
X010689Y005596D01*
X010703Y005585D01*
X010716Y005572D01*
X010727Y005558D01*
X010735Y005541D01*
X010739Y005523D01*
X010741Y005505D01*
X010741Y005429D02*
X010743Y005402D01*
X010748Y005375D01*
X010756Y005349D01*
X010767Y005324D01*
X010781Y005301D01*
X010798Y005280D01*
X010817Y005261D01*
X010838Y005244D01*
X010861Y005230D01*
X010886Y005219D01*
X010912Y005211D01*
X010939Y005206D01*
X010966Y005204D01*
X011478Y005204D01*
X011615Y005067D01*
X012210Y005067D01*
X012210Y004280D02*
X011694Y004280D01*
X011557Y004143D01*
X010139Y004143D01*
X010121Y004145D01*
X010103Y004149D01*
X010087Y004157D01*
X010072Y004168D01*
X010059Y004181D01*
X010048Y004196D01*
X010040Y004212D01*
X010036Y004230D01*
X010034Y004248D01*
X010034Y004263D01*
X009914Y004248D02*
X009916Y004221D01*
X009921Y004194D01*
X009929Y004168D01*
X009940Y004143D01*
X009954Y004120D01*
X009971Y004099D01*
X009990Y004080D01*
X010011Y004063D01*
X010034Y004049D01*
X010059Y004038D01*
X010085Y004030D01*
X010112Y004025D01*
X010139Y004023D01*
X011557Y004023D01*
X011694Y003886D01*
X012210Y003886D01*
X012210Y003098D02*
X011733Y003098D01*
X011596Y002962D01*
X010533Y002962D01*
X010515Y002964D01*
X010497Y002968D01*
X010481Y002976D01*
X010466Y002987D01*
X010453Y003000D01*
X010442Y003015D01*
X010434Y003031D01*
X010430Y003049D01*
X010428Y003067D01*
X010428Y003162D01*
X010308Y003162D02*
X010308Y003067D01*
X010428Y003162D02*
X010426Y003189D01*
X010421Y003216D01*
X010413Y003242D01*
X010402Y003267D01*
X010388Y003290D01*
X010371Y003311D01*
X010352Y003330D01*
X010331Y003347D01*
X010308Y003361D01*
X010283Y003372D01*
X010257Y003380D01*
X010230Y003385D01*
X010203Y003387D01*
X010031Y003387D01*
X010031Y003267D02*
X010203Y003267D01*
X010221Y003265D01*
X010239Y003261D01*
X010256Y003253D01*
X010270Y003242D01*
X010283Y003229D01*
X010294Y003215D01*
X010302Y003198D01*
X010306Y003180D01*
X010308Y003162D01*
X010308Y003067D02*
X010310Y003040D01*
X010315Y003013D01*
X010323Y002987D01*
X010334Y002962D01*
X010348Y002939D01*
X010365Y002918D01*
X010384Y002899D01*
X010405Y002882D01*
X010428Y002868D01*
X010453Y002857D01*
X010479Y002849D01*
X010506Y002844D01*
X010533Y002842D01*
X011596Y002842D01*
X011733Y002705D01*
X012210Y002705D01*
X010031Y003387D02*
X010004Y003385D01*
X009977Y003380D01*
X009951Y003372D01*
X009926Y003361D01*
X009903Y003347D01*
X009882Y003330D01*
X009863Y003311D01*
X009846Y003290D01*
X009832Y003267D01*
X009821Y003242D01*
X009813Y003216D01*
X009808Y003189D01*
X009806Y003162D01*
X009806Y003067D01*
X009804Y003049D01*
X009800Y003031D01*
X009792Y003015D01*
X009781Y003000D01*
X009768Y002987D01*
X009754Y002976D01*
X009737Y002968D01*
X009719Y002964D01*
X009701Y002962D01*
X008708Y002962D01*
X007054Y004615D01*
X006675Y004615D01*
X006518Y004772D01*
X006088Y004772D01*
X006088Y004969D02*
X006558Y004969D01*
X006675Y005086D01*
X007398Y005086D01*
X008461Y004023D01*
X008801Y004023D01*
X008801Y004143D02*
X008511Y004143D01*
X007448Y005206D01*
X006675Y005206D01*
X006518Y005362D01*
X006088Y005362D01*
X006088Y005559D02*
X006597Y005559D01*
X006714Y005676D01*
X007792Y005676D01*
X008264Y005204D01*
X009645Y005204D01*
X009645Y005324D02*
X008314Y005324D01*
X007841Y005796D01*
X006714Y005796D01*
X006558Y005953D01*
X006088Y005953D01*
X006088Y006150D02*
X006558Y006150D01*
X006793Y006385D01*
X008454Y006385D01*
X008454Y006505D02*
X006793Y006505D01*
X006754Y006543D01*
X006088Y006543D01*
X008454Y006505D02*
X008472Y006507D01*
X008490Y006511D01*
X008507Y006519D01*
X008521Y006530D01*
X008534Y006543D01*
X008545Y006558D01*
X008553Y006574D01*
X008557Y006592D01*
X008559Y006610D01*
X008559Y006723D01*
X008679Y006723D02*
X008679Y006610D01*
X008559Y006723D02*
X008561Y006750D01*
X008566Y006777D01*
X008574Y006803D01*
X008585Y006828D01*
X008599Y006851D01*
X008616Y006872D01*
X008635Y006891D01*
X008656Y006908D01*
X008679Y006922D01*
X008704Y006933D01*
X008730Y006941D01*
X008757Y006946D01*
X008784Y006948D01*
X008784Y006828D02*
X008766Y006826D01*
X008748Y006822D01*
X008732Y006814D01*
X008717Y006803D01*
X008704Y006790D01*
X008693Y006776D01*
X008685Y006759D01*
X008681Y006741D01*
X008679Y006723D01*
X008679Y006610D02*
X008677Y006583D01*
X008672Y006556D01*
X008664Y006530D01*
X008653Y006505D01*
X008639Y006482D01*
X008622Y006461D01*
X008603Y006442D01*
X008582Y006425D01*
X008559Y006411D01*
X008534Y006400D01*
X008508Y006392D01*
X008481Y006387D01*
X008454Y006385D01*
X009130Y006385D02*
X009147Y006385D01*
X009975Y005730D02*
X009976Y005730D01*
X009975Y005610D02*
X009976Y005610D01*
X009976Y005730D02*
X010003Y005728D01*
X010030Y005723D01*
X010056Y005715D01*
X010081Y005704D01*
X010104Y005690D01*
X010125Y005673D01*
X010144Y005654D01*
X010161Y005633D01*
X010175Y005610D01*
X010186Y005585D01*
X010194Y005559D01*
X010199Y005532D01*
X010201Y005505D01*
X010201Y005437D01*
X010203Y005419D01*
X010207Y005401D01*
X010215Y005385D01*
X010226Y005370D01*
X010239Y005357D01*
X010254Y005346D01*
X010270Y005338D01*
X010288Y005334D01*
X010306Y005332D01*
X010306Y005204D02*
X010279Y005206D01*
X010252Y005211D01*
X010226Y005219D01*
X010201Y005230D01*
X010178Y005244D01*
X010157Y005261D01*
X010138Y005280D01*
X010121Y005301D01*
X010107Y005324D01*
X010096Y005349D01*
X010088Y005375D01*
X010083Y005402D01*
X010081Y005429D01*
X010081Y005505D01*
X010079Y005523D01*
X010075Y005541D01*
X010067Y005558D01*
X010056Y005572D01*
X010043Y005585D01*
X010029Y005596D01*
X010012Y005604D01*
X009994Y005608D01*
X009976Y005610D01*
X009975Y005730D02*
X009948Y005728D01*
X009921Y005723D01*
X009895Y005715D01*
X009870Y005704D01*
X009847Y005690D01*
X009826Y005673D01*
X009807Y005654D01*
X009790Y005633D01*
X009776Y005610D01*
X009765Y005585D01*
X009757Y005559D01*
X009752Y005532D01*
X009750Y005505D01*
X009750Y005429D01*
X009748Y005411D01*
X009744Y005393D01*
X009736Y005377D01*
X009725Y005362D01*
X009712Y005349D01*
X009698Y005338D01*
X009681Y005330D01*
X009663Y005326D01*
X009645Y005324D01*
X009645Y005204D02*
X009672Y005206D01*
X009699Y005211D01*
X009725Y005219D01*
X009750Y005230D01*
X009773Y005244D01*
X009794Y005261D01*
X009813Y005280D01*
X009830Y005301D01*
X009844Y005324D01*
X009855Y005349D01*
X009863Y005375D01*
X009868Y005402D01*
X009870Y005429D01*
X009870Y005505D01*
X009872Y005523D01*
X009876Y005541D01*
X009884Y005558D01*
X009895Y005572D01*
X009908Y005585D01*
X009923Y005596D01*
X009939Y005604D01*
X009957Y005608D01*
X009975Y005610D01*
X010306Y005204D02*
X010306Y005204D01*
X009809Y004488D02*
X009803Y004488D01*
X009803Y004368D02*
X009809Y004368D01*
X009809Y004488D02*
X009836Y004486D01*
X009863Y004481D01*
X009889Y004473D01*
X009914Y004462D01*
X009937Y004448D01*
X009958Y004431D01*
X009977Y004412D01*
X009994Y004391D01*
X010008Y004368D01*
X010019Y004343D01*
X010027Y004317D01*
X010032Y004290D01*
X010034Y004263D01*
X009914Y004263D02*
X009914Y004248D01*
X009914Y004263D02*
X009912Y004281D01*
X009908Y004299D01*
X009900Y004316D01*
X009889Y004330D01*
X009876Y004343D01*
X009862Y004354D01*
X009845Y004362D01*
X009827Y004366D01*
X009809Y004368D01*
X009803Y004488D02*
X009776Y004486D01*
X009749Y004481D01*
X009723Y004473D01*
X009698Y004462D01*
X009675Y004448D01*
X009654Y004431D01*
X009635Y004412D01*
X009618Y004391D01*
X009604Y004368D01*
X009593Y004343D01*
X009585Y004317D01*
X009580Y004290D01*
X009578Y004263D01*
X009578Y004256D01*
X009576Y004238D01*
X009572Y004220D01*
X009564Y004204D01*
X009553Y004189D01*
X009540Y004176D01*
X009526Y004165D01*
X009509Y004157D01*
X009491Y004153D01*
X009473Y004151D01*
X009467Y004151D01*
X009467Y004023D02*
X009440Y004025D01*
X009413Y004030D01*
X009387Y004038D01*
X009362Y004049D01*
X009339Y004063D01*
X009318Y004080D01*
X009299Y004099D01*
X009282Y004120D01*
X009268Y004143D01*
X009257Y004168D01*
X009249Y004194D01*
X009244Y004221D01*
X009242Y004248D01*
X009242Y004263D01*
X009362Y004263D02*
X009360Y004290D01*
X009355Y004317D01*
X009347Y004343D01*
X009336Y004368D01*
X009322Y004391D01*
X009305Y004412D01*
X009286Y004431D01*
X009265Y004448D01*
X009242Y004462D01*
X009217Y004473D01*
X009191Y004481D01*
X009164Y004486D01*
X009137Y004488D01*
X009131Y004488D01*
X009131Y004368D02*
X009137Y004368D01*
X009155Y004366D01*
X009173Y004362D01*
X009190Y004354D01*
X009204Y004343D01*
X009217Y004330D01*
X009228Y004316D01*
X009236Y004299D01*
X009240Y004281D01*
X009242Y004263D01*
X009131Y004488D02*
X009104Y004486D01*
X009077Y004481D01*
X009051Y004473D01*
X009026Y004462D01*
X009003Y004448D01*
X008982Y004431D01*
X008963Y004412D01*
X008946Y004391D01*
X008932Y004368D01*
X008921Y004343D01*
X008913Y004317D01*
X008908Y004290D01*
X008906Y004263D01*
X008906Y004248D01*
X008904Y004230D01*
X008900Y004212D01*
X008892Y004196D01*
X008881Y004181D01*
X008868Y004168D01*
X008854Y004157D01*
X008837Y004149D01*
X008819Y004145D01*
X008801Y004143D01*
X008801Y004023D02*
X008828Y004025D01*
X008855Y004030D01*
X008881Y004038D01*
X008906Y004049D01*
X008929Y004063D01*
X008950Y004080D01*
X008969Y004099D01*
X008986Y004120D01*
X009000Y004143D01*
X009011Y004168D01*
X009019Y004194D01*
X009024Y004221D01*
X009026Y004248D01*
X009026Y004263D01*
X009028Y004281D01*
X009032Y004299D01*
X009040Y004316D01*
X009051Y004330D01*
X009064Y004343D01*
X009079Y004354D01*
X009095Y004362D01*
X009113Y004366D01*
X009131Y004368D01*
X009362Y004263D02*
X009362Y004256D01*
X009364Y004238D01*
X009368Y004220D01*
X009376Y004204D01*
X009387Y004189D01*
X009400Y004176D01*
X009415Y004165D01*
X009431Y004157D01*
X009449Y004153D01*
X009467Y004151D01*
X009473Y004023D02*
X009500Y004025D01*
X009527Y004030D01*
X009553Y004038D01*
X009578Y004049D01*
X009601Y004063D01*
X009622Y004080D01*
X009641Y004099D01*
X009658Y004120D01*
X009672Y004143D01*
X009683Y004168D01*
X009691Y004194D01*
X009696Y004221D01*
X009698Y004248D01*
X009698Y004263D01*
X009700Y004281D01*
X009704Y004299D01*
X009712Y004316D01*
X009723Y004330D01*
X009736Y004343D01*
X009751Y004354D01*
X009767Y004362D01*
X009785Y004366D01*
X009803Y004368D01*
X009473Y004023D02*
X009467Y004023D01*
X009926Y003162D02*
X009926Y003067D01*
X009926Y003162D02*
X009928Y003180D01*
X009932Y003198D01*
X009940Y003215D01*
X009951Y003229D01*
X009964Y003242D01*
X009979Y003253D01*
X009995Y003261D01*
X010013Y003265D01*
X010031Y003267D01*
X009926Y003067D02*
X009924Y003040D01*
X009919Y003013D01*
X009911Y002987D01*
X009900Y002962D01*
X009886Y002939D01*
X009869Y002918D01*
X009850Y002899D01*
X009829Y002882D01*
X009806Y002868D01*
X009781Y002857D01*
X009755Y002849D01*
X009728Y002844D01*
X009701Y002842D01*
X008658Y002842D01*
X007004Y004495D01*
X006675Y004495D01*
X006558Y004378D01*
X006088Y004378D01*
M02*
