G75*
%MOIN*%
%OFA0B0*%
%FSLAX24Y24*%
%IPPOS*%
%LPD*%
%AMOC8*
5,1,8,0,0,1.08239X$1,22.5*
%
%ADD10C,0.0000*%
%ADD11C,0.1418*%
%ADD12R,0.0640X0.0640*%
%ADD13C,0.0640*%
%ADD14R,0.0640X0.0640*%
%ADD15C,0.0394*%
%ADD16C,0.1024*%
%ADD17R,0.1024X0.1024*%
D10*
X009993Y000744D02*
X000150Y017792D01*
X009993Y034839D01*
X029678Y034839D01*
X039520Y017792D01*
X029678Y000744D01*
X009993Y000744D01*
X010091Y002108D02*
X010093Y002160D01*
X010099Y002212D01*
X010109Y002263D01*
X010122Y002313D01*
X010140Y002363D01*
X010161Y002410D01*
X010185Y002456D01*
X010214Y002500D01*
X010245Y002542D01*
X010279Y002581D01*
X010316Y002618D01*
X010356Y002651D01*
X010399Y002682D01*
X010443Y002709D01*
X010489Y002733D01*
X010538Y002753D01*
X010587Y002769D01*
X010638Y002782D01*
X010689Y002791D01*
X010741Y002796D01*
X010793Y002797D01*
X010845Y002794D01*
X010897Y002787D01*
X010948Y002776D01*
X010998Y002762D01*
X011047Y002743D01*
X011094Y002721D01*
X011139Y002696D01*
X011183Y002667D01*
X011224Y002635D01*
X011263Y002600D01*
X011298Y002562D01*
X011331Y002521D01*
X011361Y002479D01*
X011387Y002434D01*
X011410Y002387D01*
X011429Y002338D01*
X011445Y002288D01*
X011457Y002238D01*
X011465Y002186D01*
X011469Y002134D01*
X011469Y002082D01*
X011465Y002030D01*
X011457Y001978D01*
X011445Y001928D01*
X011429Y001878D01*
X011410Y001829D01*
X011387Y001782D01*
X011361Y001737D01*
X011331Y001695D01*
X011298Y001654D01*
X011263Y001616D01*
X011224Y001581D01*
X011183Y001549D01*
X011139Y001520D01*
X011094Y001495D01*
X011047Y001473D01*
X010998Y001454D01*
X010948Y001440D01*
X010897Y001429D01*
X010845Y001422D01*
X010793Y001419D01*
X010741Y001420D01*
X010689Y001425D01*
X010638Y001434D01*
X010587Y001447D01*
X010538Y001463D01*
X010489Y001483D01*
X010443Y001507D01*
X010399Y001534D01*
X010356Y001565D01*
X010316Y001598D01*
X010279Y001635D01*
X010245Y001674D01*
X010214Y001716D01*
X010185Y001760D01*
X010161Y001806D01*
X010140Y001853D01*
X010122Y001903D01*
X010109Y001953D01*
X010099Y002004D01*
X010093Y002056D01*
X010091Y002108D01*
X018792Y002831D02*
X018794Y002857D01*
X018800Y002883D01*
X018810Y002908D01*
X018823Y002931D01*
X018839Y002951D01*
X018859Y002969D01*
X018881Y002984D01*
X018904Y002996D01*
X018930Y003004D01*
X018956Y003008D01*
X018982Y003008D01*
X019008Y003004D01*
X019034Y002996D01*
X019058Y002984D01*
X019079Y002969D01*
X019099Y002951D01*
X019115Y002931D01*
X019128Y002908D01*
X019138Y002883D01*
X019144Y002857D01*
X019146Y002831D01*
X019144Y002805D01*
X019138Y002779D01*
X019128Y002754D01*
X019115Y002731D01*
X019099Y002711D01*
X019079Y002693D01*
X019057Y002678D01*
X019034Y002666D01*
X019008Y002658D01*
X018982Y002654D01*
X018956Y002654D01*
X018930Y002658D01*
X018904Y002666D01*
X018880Y002678D01*
X018859Y002693D01*
X018839Y002711D01*
X018823Y002731D01*
X018810Y002754D01*
X018800Y002779D01*
X018794Y002805D01*
X018792Y002831D01*
X020524Y002831D02*
X020526Y002857D01*
X020532Y002883D01*
X020542Y002908D01*
X020555Y002931D01*
X020571Y002951D01*
X020591Y002969D01*
X020613Y002984D01*
X020636Y002996D01*
X020662Y003004D01*
X020688Y003008D01*
X020714Y003008D01*
X020740Y003004D01*
X020766Y002996D01*
X020790Y002984D01*
X020811Y002969D01*
X020831Y002951D01*
X020847Y002931D01*
X020860Y002908D01*
X020870Y002883D01*
X020876Y002857D01*
X020878Y002831D01*
X020876Y002805D01*
X020870Y002779D01*
X020860Y002754D01*
X020847Y002731D01*
X020831Y002711D01*
X020811Y002693D01*
X020789Y002678D01*
X020766Y002666D01*
X020740Y002658D01*
X020714Y002654D01*
X020688Y002654D01*
X020662Y002658D01*
X020636Y002666D01*
X020612Y002678D01*
X020591Y002693D01*
X020571Y002711D01*
X020555Y002731D01*
X020542Y002754D01*
X020532Y002779D01*
X020526Y002805D01*
X020524Y002831D01*
X028201Y002108D02*
X028203Y002160D01*
X028209Y002212D01*
X028219Y002263D01*
X028232Y002313D01*
X028250Y002363D01*
X028271Y002410D01*
X028295Y002456D01*
X028324Y002500D01*
X028355Y002542D01*
X028389Y002581D01*
X028426Y002618D01*
X028466Y002651D01*
X028509Y002682D01*
X028553Y002709D01*
X028599Y002733D01*
X028648Y002753D01*
X028697Y002769D01*
X028748Y002782D01*
X028799Y002791D01*
X028851Y002796D01*
X028903Y002797D01*
X028955Y002794D01*
X029007Y002787D01*
X029058Y002776D01*
X029108Y002762D01*
X029157Y002743D01*
X029204Y002721D01*
X029249Y002696D01*
X029293Y002667D01*
X029334Y002635D01*
X029373Y002600D01*
X029408Y002562D01*
X029441Y002521D01*
X029471Y002479D01*
X029497Y002434D01*
X029520Y002387D01*
X029539Y002338D01*
X029555Y002288D01*
X029567Y002238D01*
X029575Y002186D01*
X029579Y002134D01*
X029579Y002082D01*
X029575Y002030D01*
X029567Y001978D01*
X029555Y001928D01*
X029539Y001878D01*
X029520Y001829D01*
X029497Y001782D01*
X029471Y001737D01*
X029441Y001695D01*
X029408Y001654D01*
X029373Y001616D01*
X029334Y001581D01*
X029293Y001549D01*
X029249Y001520D01*
X029204Y001495D01*
X029157Y001473D01*
X029108Y001454D01*
X029058Y001440D01*
X029007Y001429D01*
X028955Y001422D01*
X028903Y001419D01*
X028851Y001420D01*
X028799Y001425D01*
X028748Y001434D01*
X028697Y001447D01*
X028648Y001463D01*
X028599Y001483D01*
X028553Y001507D01*
X028509Y001534D01*
X028466Y001565D01*
X028426Y001598D01*
X028389Y001635D01*
X028355Y001674D01*
X028324Y001716D01*
X028295Y001760D01*
X028271Y001806D01*
X028250Y001853D01*
X028232Y001903D01*
X028219Y001953D01*
X028209Y002004D01*
X028203Y002056D01*
X028201Y002108D01*
X037256Y017792D02*
X037258Y017844D01*
X037264Y017896D01*
X037274Y017947D01*
X037287Y017997D01*
X037305Y018047D01*
X037326Y018094D01*
X037350Y018140D01*
X037379Y018184D01*
X037410Y018226D01*
X037444Y018265D01*
X037481Y018302D01*
X037521Y018335D01*
X037564Y018366D01*
X037608Y018393D01*
X037654Y018417D01*
X037703Y018437D01*
X037752Y018453D01*
X037803Y018466D01*
X037854Y018475D01*
X037906Y018480D01*
X037958Y018481D01*
X038010Y018478D01*
X038062Y018471D01*
X038113Y018460D01*
X038163Y018446D01*
X038212Y018427D01*
X038259Y018405D01*
X038304Y018380D01*
X038348Y018351D01*
X038389Y018319D01*
X038428Y018284D01*
X038463Y018246D01*
X038496Y018205D01*
X038526Y018163D01*
X038552Y018118D01*
X038575Y018071D01*
X038594Y018022D01*
X038610Y017972D01*
X038622Y017922D01*
X038630Y017870D01*
X038634Y017818D01*
X038634Y017766D01*
X038630Y017714D01*
X038622Y017662D01*
X038610Y017612D01*
X038594Y017562D01*
X038575Y017513D01*
X038552Y017466D01*
X038526Y017421D01*
X038496Y017379D01*
X038463Y017338D01*
X038428Y017300D01*
X038389Y017265D01*
X038348Y017233D01*
X038304Y017204D01*
X038259Y017179D01*
X038212Y017157D01*
X038163Y017138D01*
X038113Y017124D01*
X038062Y017113D01*
X038010Y017106D01*
X037958Y017103D01*
X037906Y017104D01*
X037854Y017109D01*
X037803Y017118D01*
X037752Y017131D01*
X037703Y017147D01*
X037654Y017167D01*
X037608Y017191D01*
X037564Y017218D01*
X037521Y017249D01*
X037481Y017282D01*
X037444Y017319D01*
X037410Y017358D01*
X037379Y017400D01*
X037350Y017444D01*
X037326Y017490D01*
X037305Y017537D01*
X037287Y017587D01*
X037274Y017637D01*
X037264Y017688D01*
X037258Y017740D01*
X037256Y017792D01*
X028201Y033476D02*
X028203Y033528D01*
X028209Y033580D01*
X028219Y033631D01*
X028232Y033681D01*
X028250Y033731D01*
X028271Y033778D01*
X028295Y033824D01*
X028324Y033868D01*
X028355Y033910D01*
X028389Y033949D01*
X028426Y033986D01*
X028466Y034019D01*
X028509Y034050D01*
X028553Y034077D01*
X028599Y034101D01*
X028648Y034121D01*
X028697Y034137D01*
X028748Y034150D01*
X028799Y034159D01*
X028851Y034164D01*
X028903Y034165D01*
X028955Y034162D01*
X029007Y034155D01*
X029058Y034144D01*
X029108Y034130D01*
X029157Y034111D01*
X029204Y034089D01*
X029249Y034064D01*
X029293Y034035D01*
X029334Y034003D01*
X029373Y033968D01*
X029408Y033930D01*
X029441Y033889D01*
X029471Y033847D01*
X029497Y033802D01*
X029520Y033755D01*
X029539Y033706D01*
X029555Y033656D01*
X029567Y033606D01*
X029575Y033554D01*
X029579Y033502D01*
X029579Y033450D01*
X029575Y033398D01*
X029567Y033346D01*
X029555Y033296D01*
X029539Y033246D01*
X029520Y033197D01*
X029497Y033150D01*
X029471Y033105D01*
X029441Y033063D01*
X029408Y033022D01*
X029373Y032984D01*
X029334Y032949D01*
X029293Y032917D01*
X029249Y032888D01*
X029204Y032863D01*
X029157Y032841D01*
X029108Y032822D01*
X029058Y032808D01*
X029007Y032797D01*
X028955Y032790D01*
X028903Y032787D01*
X028851Y032788D01*
X028799Y032793D01*
X028748Y032802D01*
X028697Y032815D01*
X028648Y032831D01*
X028599Y032851D01*
X028553Y032875D01*
X028509Y032902D01*
X028466Y032933D01*
X028426Y032966D01*
X028389Y033003D01*
X028355Y033042D01*
X028324Y033084D01*
X028295Y033128D01*
X028271Y033174D01*
X028250Y033221D01*
X028232Y033271D01*
X028219Y033321D01*
X028209Y033372D01*
X028203Y033424D01*
X028201Y033476D01*
X010091Y033476D02*
X010093Y033528D01*
X010099Y033580D01*
X010109Y033631D01*
X010122Y033681D01*
X010140Y033731D01*
X010161Y033778D01*
X010185Y033824D01*
X010214Y033868D01*
X010245Y033910D01*
X010279Y033949D01*
X010316Y033986D01*
X010356Y034019D01*
X010399Y034050D01*
X010443Y034077D01*
X010489Y034101D01*
X010538Y034121D01*
X010587Y034137D01*
X010638Y034150D01*
X010689Y034159D01*
X010741Y034164D01*
X010793Y034165D01*
X010845Y034162D01*
X010897Y034155D01*
X010948Y034144D01*
X010998Y034130D01*
X011047Y034111D01*
X011094Y034089D01*
X011139Y034064D01*
X011183Y034035D01*
X011224Y034003D01*
X011263Y033968D01*
X011298Y033930D01*
X011331Y033889D01*
X011361Y033847D01*
X011387Y033802D01*
X011410Y033755D01*
X011429Y033706D01*
X011445Y033656D01*
X011457Y033606D01*
X011465Y033554D01*
X011469Y033502D01*
X011469Y033450D01*
X011465Y033398D01*
X011457Y033346D01*
X011445Y033296D01*
X011429Y033246D01*
X011410Y033197D01*
X011387Y033150D01*
X011361Y033105D01*
X011331Y033063D01*
X011298Y033022D01*
X011263Y032984D01*
X011224Y032949D01*
X011183Y032917D01*
X011139Y032888D01*
X011094Y032863D01*
X011047Y032841D01*
X010998Y032822D01*
X010948Y032808D01*
X010897Y032797D01*
X010845Y032790D01*
X010793Y032787D01*
X010741Y032788D01*
X010689Y032793D01*
X010638Y032802D01*
X010587Y032815D01*
X010538Y032831D01*
X010489Y032851D01*
X010443Y032875D01*
X010399Y032902D01*
X010356Y032933D01*
X010316Y032966D01*
X010279Y033003D01*
X010245Y033042D01*
X010214Y033084D01*
X010185Y033128D01*
X010161Y033174D01*
X010140Y033221D01*
X010122Y033271D01*
X010109Y033321D01*
X010099Y033372D01*
X010093Y033424D01*
X010091Y033476D01*
X001036Y017792D02*
X001038Y017844D01*
X001044Y017896D01*
X001054Y017947D01*
X001067Y017997D01*
X001085Y018047D01*
X001106Y018094D01*
X001130Y018140D01*
X001159Y018184D01*
X001190Y018226D01*
X001224Y018265D01*
X001261Y018302D01*
X001301Y018335D01*
X001344Y018366D01*
X001388Y018393D01*
X001434Y018417D01*
X001483Y018437D01*
X001532Y018453D01*
X001583Y018466D01*
X001634Y018475D01*
X001686Y018480D01*
X001738Y018481D01*
X001790Y018478D01*
X001842Y018471D01*
X001893Y018460D01*
X001943Y018446D01*
X001992Y018427D01*
X002039Y018405D01*
X002084Y018380D01*
X002128Y018351D01*
X002169Y018319D01*
X002208Y018284D01*
X002243Y018246D01*
X002276Y018205D01*
X002306Y018163D01*
X002332Y018118D01*
X002355Y018071D01*
X002374Y018022D01*
X002390Y017972D01*
X002402Y017922D01*
X002410Y017870D01*
X002414Y017818D01*
X002414Y017766D01*
X002410Y017714D01*
X002402Y017662D01*
X002390Y017612D01*
X002374Y017562D01*
X002355Y017513D01*
X002332Y017466D01*
X002306Y017421D01*
X002276Y017379D01*
X002243Y017338D01*
X002208Y017300D01*
X002169Y017265D01*
X002128Y017233D01*
X002084Y017204D01*
X002039Y017179D01*
X001992Y017157D01*
X001943Y017138D01*
X001893Y017124D01*
X001842Y017113D01*
X001790Y017106D01*
X001738Y017103D01*
X001686Y017104D01*
X001634Y017109D01*
X001583Y017118D01*
X001532Y017131D01*
X001483Y017147D01*
X001434Y017167D01*
X001388Y017191D01*
X001344Y017218D01*
X001301Y017249D01*
X001261Y017282D01*
X001224Y017319D01*
X001190Y017358D01*
X001159Y017400D01*
X001130Y017444D01*
X001106Y017490D01*
X001085Y017537D01*
X001067Y017587D01*
X001054Y017637D01*
X001044Y017688D01*
X001038Y017740D01*
X001036Y017792D01*
D11*
X001725Y017792D03*
X010780Y002108D03*
X028890Y002108D03*
X037945Y017792D03*
X028890Y033476D03*
X010780Y033476D03*
D12*
G36*
X007653Y028147D02*
X007099Y028467D01*
X007419Y029021D01*
X007973Y028701D01*
X007653Y028147D01*
G37*
G36*
X003956Y021744D02*
X003402Y022064D01*
X003722Y022618D01*
X004276Y022298D01*
X003956Y021744D01*
G37*
G36*
X012873Y020926D02*
X012319Y021246D01*
X012639Y021800D01*
X013193Y021480D01*
X012873Y020926D01*
G37*
G36*
X004615Y013068D02*
X004061Y012748D01*
X003741Y013302D01*
X004295Y013622D01*
X004615Y013068D01*
G37*
G36*
X007197Y008587D02*
X006643Y008267D01*
X006323Y008821D01*
X006877Y009141D01*
X007197Y008587D01*
G37*
G36*
X016853Y012398D02*
X017173Y011844D01*
X016619Y011524D01*
X016299Y012078D01*
X016853Y012398D01*
G37*
G36*
X025997Y017907D02*
X026317Y018461D01*
X026871Y018141D01*
X026551Y017587D01*
X025997Y017907D01*
G37*
G36*
X034126Y011449D02*
X034680Y011129D01*
X034360Y010575D01*
X033806Y010895D01*
X034126Y011449D01*
G37*
G36*
X031543Y006976D02*
X032097Y006656D01*
X031777Y006102D01*
X031223Y006422D01*
X031543Y006976D01*
G37*
G36*
X034894Y023164D02*
X035448Y023484D01*
X035768Y022930D01*
X035214Y022610D01*
X034894Y023164D01*
G37*
G36*
X031197Y029567D02*
X031751Y029887D01*
X032071Y029333D01*
X031517Y029013D01*
X031197Y029567D01*
G37*
D13*
X007760Y006972D03*
X008260Y006106D03*
X007260Y007838D03*
X005178Y011453D03*
X004678Y012319D03*
X008906Y015524D03*
X009406Y014658D03*
X009906Y013792D03*
X010406Y012926D03*
X010906Y012060D03*
X011406Y011193D03*
X011906Y010327D03*
X012406Y009461D03*
X016236Y012827D03*
X015736Y013693D03*
X015236Y014560D03*
X014736Y015426D03*
X014236Y016292D03*
X013736Y017158D03*
X013236Y018024D03*
X014488Y020363D03*
X014988Y021229D03*
X014122Y021729D03*
X013256Y022229D03*
X013622Y020863D03*
X010401Y019547D03*
X009901Y018681D03*
X009035Y019181D03*
X008169Y019681D03*
X007303Y020181D03*
X006437Y020681D03*
X005571Y021181D03*
X004705Y021681D03*
X005205Y022547D03*
X006071Y022047D03*
X006937Y021547D03*
X007803Y021047D03*
X008669Y020547D03*
X009535Y020047D03*
X004339Y023047D03*
X009268Y027584D03*
X010134Y027084D03*
X011000Y026584D03*
X011866Y026084D03*
X012732Y025584D03*
X013598Y025084D03*
X014098Y025950D03*
X013232Y026450D03*
X012366Y026950D03*
X011500Y027450D03*
X010634Y027950D03*
X009768Y028450D03*
X008902Y028950D03*
X008402Y028084D03*
X008036Y029450D03*
X013178Y033540D03*
X014178Y033540D03*
X015178Y033540D03*
X016453Y028391D03*
X017453Y028391D03*
X018453Y028391D03*
X019453Y028391D03*
X020453Y028391D03*
X021453Y028391D03*
X022453Y028391D03*
X023453Y028391D03*
X025572Y025950D03*
X026438Y026450D03*
X026938Y025584D03*
X026072Y025084D03*
X027804Y026084D03*
X028670Y026584D03*
X029536Y027084D03*
X029036Y027950D03*
X029902Y028450D03*
X030768Y028950D03*
X031268Y028084D03*
X030402Y027584D03*
X032134Y028584D03*
X028170Y027450D03*
X027304Y026950D03*
X023453Y023391D03*
X022453Y023391D03*
X021453Y023391D03*
X020453Y023391D03*
X019453Y023391D03*
X018453Y023391D03*
X017453Y023391D03*
X019335Y021784D03*
X020335Y021784D03*
X021335Y021784D03*
X025934Y017158D03*
X025434Y016292D03*
X024934Y015426D03*
X024434Y014560D03*
X023934Y013693D03*
X023434Y012827D03*
X022934Y011961D03*
X022335Y010705D03*
X021335Y010705D03*
X020335Y010705D03*
X019335Y010705D03*
X018335Y010705D03*
X019835Y014406D03*
X027264Y009461D03*
X027764Y010327D03*
X028264Y011193D03*
X028764Y012060D03*
X029264Y012926D03*
X029764Y013792D03*
X030264Y014658D03*
X030764Y015524D03*
X029769Y018681D03*
X029269Y019547D03*
X030135Y020047D03*
X030635Y019181D03*
X031501Y019681D03*
X032367Y020181D03*
X033233Y020681D03*
X034099Y021181D03*
X034965Y021681D03*
X035831Y022181D03*
X034465Y022547D03*
X033599Y022047D03*
X032733Y021547D03*
X031867Y021047D03*
X031001Y020547D03*
X035743Y013610D03*
X035243Y012744D03*
X034743Y011878D03*
X032660Y008271D03*
X032160Y007405D03*
X016308Y001650D03*
X015172Y001650D03*
X014011Y001650D03*
X012911Y001650D03*
X024150Y033540D03*
X025150Y033540D03*
D14*
X026150Y033540D03*
X016178Y033540D03*
X016453Y023391D03*
X018335Y021784D03*
X017335Y010705D03*
D15*
X018969Y002831D03*
X020701Y002831D03*
D16*
X020819Y032674D03*
D17*
X018851Y032674D03*
M02*
