%
M48
M72
T01C0.0120
T02C0.0197
T03C0.0236
T04C0.0354
T05C0.0394
T06C0.0400
T07C0.0709
T08C0.1378
%
T01
X18693Y5061
X17827Y5416
X16764Y5416
X16607Y6439
X17709Y6636
X18221Y8408
X19710Y8060
X20426Y7109
X19960Y6826
X19953Y5888
X20898Y5061
X21607Y5061
X22709Y5770
X22867Y7502
X22394Y7502
X21260Y8557
X20741Y7857
X18851Y11794
X20426Y13093
X21922Y13565
X21882Y15416
X21179Y16518
X21252Y17030
X21764Y17030
X21252Y17935
X20071Y16006
X19796Y15337
X19323Y15888
X18733Y16321
X19363Y16400
X18496Y16794
X18063Y17305
X18693Y18565
X18890Y20691
X19599Y20534
X19323Y21951
X17670Y22227
X17985Y23723
X18969Y23644
X17040Y20455
X15977Y19707
X15622Y20376
X16213Y18565
X16489Y18368
X16843Y15455
X15426Y15258
X11646Y17423
X10937Y15770
X12867Y22817
X12591Y23486
X11528Y23171
X14126Y23486
X14599Y22817
X14914Y23762
X21843Y26164
X22433Y26164
X21843Y27030
X22433Y27305
X24008Y26006
X24284Y27817
X26607Y28211
X28063Y23211
X27906Y22581
X28181Y22030
X28634Y22255
X30071Y22699
X30131Y21721
X27197Y21557
X26882Y20849
X26764Y20494
X26961Y19904
X26449Y21242
X26056Y21518
X25583Y21715
X25426Y22109
X24323Y20573
X23969Y20179
X23496Y20612
X24717Y20179
X29166Y6990
X26095Y5219
X26095Y4038
X25504Y6518
X22906Y2187
X15386Y3290
T02
X9284Y31833
X9756Y31124
X10347Y30731
X10819Y31164
X11882Y31597
X11961Y31046
X12355Y32109
X8890Y30691
X9678Y30258
X6370Y27109
X6764Y26400
X7394Y26321
X7748Y25927
X7433Y25416
X6882Y25731
X6646Y25179
X7040Y24668
X6095Y23959
X6252Y23486
X5465Y23683
X4874Y24274
X5859Y24746
X5819Y25376
X6016Y26282
X2670Y20731
X3024Y19589
X3260Y18526
X4087Y19234
X3930Y17463
X5071Y17542
X1804Y19313
X1922Y15573
X3024Y14077
X7040Y10494
X8693Y13368
X7945Y14983
X11056Y16518
X12276Y15258
X10859Y18408
X11567Y18841
X11252Y20573
X12433Y22187
X20504Y24864
X24678Y25297
X24914Y24038
X25426Y23132
X28024Y18959
X28811Y17384
X28339Y16321
X27630Y15376
X30701Y16439
X32473Y17463
X33733Y18250
X35426Y19589
X35741Y18762
X36331Y18447
X36449Y19195
X37079Y19313
X37748Y19353
X37709Y15494
X36804Y14392
X31804Y14392
X28890Y9864
X26804Y10219
X25465Y11321
X25150Y9668
X24796Y8841
X22630Y3486
X17119Y3605
X16607Y2542
X12827Y6124
X13063Y8250
X11449Y8329
X10347Y5219
X14953Y10770
X13772Y11479
X30583Y4431
X32788Y9589
X35111Y24195
X33811Y24864
X33418Y24392
X33496Y25416
X33418Y25927
X33496Y26400
X32827Y26557
X32197Y26164
X32985Y25573
X34323Y25534
X29796Y29904
X29402Y30770
X29796Y31321
X30229Y31794
X30268Y30731
X31134Y30573
X28772Y31164
X28103Y30849
X27748Y31518
X27315Y30809
X22512Y33959
X20859Y34038
X19166Y33959
X17552Y32738
X16882Y32227
T03
X18063Y2345
X21607Y2384
X24559Y1085
X26528Y11321
X28063Y12542
T04
X20701Y2463
X18969Y2463
T05
X15819Y8014
T06
X7760Y6604
X8260Y5738
X7260Y7470
X6760Y8336
X5178Y11085
X4678Y11951
X4178Y12817
X3839Y21813
X4705Y21313
X5205Y22179
X6071Y21679
X5571Y20813
X6437Y20313
X6937Y21179
X7803Y20679
X7303Y19813
X8169Y19313
X8669Y20179
X9535Y19679
X9035Y18813
X9901Y18313
X10401Y19179
X12756Y20994
X13622Y20494
X14488Y19994
X14988Y20860
X14122Y21360
X13256Y21860
X13598Y24716
X12732Y25216
X13232Y26082
X14098Y25582
X12366Y26582
X11866Y25716
X11000Y26216
X11500Y27082
X10634Y27582
X10134Y26716
X9268Y27216
X9768Y28082
X8902Y28582
X8036Y29082
X7536Y28216
X8402Y27716
X4339Y22679
X8906Y15155
X9406Y14289
X9906Y13423
X10406Y12557
X10906Y11691
X11406Y10825
X11906Y9959
X12406Y9093
X16236Y12459
X16736Y11593
X17335Y10337
X18335Y10337
X19335Y10337
X20335Y10337
X21335Y10337
X22335Y10337
X22934Y11593
X23434Y12459
X23934Y13325
X24434Y14191
X24934Y15057
X25434Y15923
X25934Y16789
X26434Y17655
X29269Y19179
X30135Y19679
X30635Y18813
X31501Y19313
X32367Y19813
X31867Y20679
X32733Y21179
X33599Y21679
X34465Y22179
X35331Y22679
X35831Y21813
X34965Y21313
X34099Y20813
X33233Y20313
X31001Y20179
X29769Y18313
X30764Y15155
X30264Y14289
X29764Y13423
X29264Y12557
X28764Y11691
X28264Y10825
X27764Y9959
X27264Y9093
X31660Y6171
X32160Y7037
X32660Y7903
X34243Y10644
X34743Y11510
X35243Y12376
X35743Y13242
X28670Y26216
X27804Y25716
X26938Y25216
X26072Y24716
X25572Y25582
X26438Y26082
X27304Y26582
X28170Y27082
X29036Y27582
X29536Y26716
X30402Y27216
X29902Y28082
X30768Y28582
X31634Y29082
X32134Y28216
X31268Y27716
X26150Y33171
X25150Y33171
X24150Y33171
X23453Y28022
X22453Y28022
X21453Y28022
X20453Y28022
X19453Y28022
X18453Y28022
X17453Y28022
X16453Y28022
X16453Y23022
X17453Y23022
X18453Y23022
X19453Y23022
X20453Y23022
X21453Y23022
X22453Y23022
X23453Y23022
X21335Y21416
X20335Y21416
X19335Y21416
X18335Y21416
X13736Y16789
X14236Y15923
X14736Y15057
X15236Y14191
X15736Y13325
X19835Y14038
X13236Y17655
X13811Y5061
X13811Y4038
X13772Y3014
X13772Y1990
X16178Y33171
X15178Y33171
X14178Y33171
X13178Y33171
T07
X18378Y33368
X20032Y33368
X21685Y33368
X21685Y31203
X20032Y31203
X18378Y31203
T08
X1725Y17423
X10780Y1740
X28890Y1740
X37945Y17423
X28890Y33107
X10780Y33107
M30
