G75*
%MOIN*%
%OFA0B0*%
%FSLAX24Y24*%
%IPPOS*%
%LPD*%
%AMOC8*
5,1,8,0,0,1.08239X$1,22.5*
%
%ADD10C,0.0000*%
%ADD11R,0.0394X0.1811*%
%ADD12R,0.0630X0.1339*%
%ADD13R,0.1339X0.0630*%
%ADD14R,0.1181X0.0551*%
%ADD15R,0.0315X0.0472*%
%ADD16R,0.0748X0.0551*%
%ADD17R,0.0906X0.0500*%
%ADD18R,0.0600X0.0300*%
%ADD19R,0.0472X0.0315*%
%ADD20R,0.0197X0.0984*%
%ADD21R,0.0787X0.0984*%
%ADD22R,0.0150X0.0450*%
%ADD23R,0.0276X0.0276*%
%ADD24R,0.0472X0.0551*%
%ADD25R,0.0200X0.0580*%
%ADD26R,0.0880X0.0480*%
%ADD27R,0.0866X0.1417*%
D10*
X009993Y000744D02*
X000150Y017792D01*
X009993Y034839D01*
X029678Y034839D01*
X039520Y017792D01*
X029678Y000744D01*
X009993Y000744D01*
X010091Y002108D02*
X010093Y002160D01*
X010099Y002212D01*
X010109Y002263D01*
X010122Y002313D01*
X010140Y002363D01*
X010161Y002410D01*
X010185Y002456D01*
X010214Y002500D01*
X010245Y002542D01*
X010279Y002581D01*
X010316Y002618D01*
X010356Y002651D01*
X010399Y002682D01*
X010443Y002709D01*
X010489Y002733D01*
X010538Y002753D01*
X010587Y002769D01*
X010638Y002782D01*
X010689Y002791D01*
X010741Y002796D01*
X010793Y002797D01*
X010845Y002794D01*
X010897Y002787D01*
X010948Y002776D01*
X010998Y002762D01*
X011047Y002743D01*
X011094Y002721D01*
X011139Y002696D01*
X011183Y002667D01*
X011224Y002635D01*
X011263Y002600D01*
X011298Y002562D01*
X011331Y002521D01*
X011361Y002479D01*
X011387Y002434D01*
X011410Y002387D01*
X011429Y002338D01*
X011445Y002288D01*
X011457Y002238D01*
X011465Y002186D01*
X011469Y002134D01*
X011469Y002082D01*
X011465Y002030D01*
X011457Y001978D01*
X011445Y001928D01*
X011429Y001878D01*
X011410Y001829D01*
X011387Y001782D01*
X011361Y001737D01*
X011331Y001695D01*
X011298Y001654D01*
X011263Y001616D01*
X011224Y001581D01*
X011183Y001549D01*
X011139Y001520D01*
X011094Y001495D01*
X011047Y001473D01*
X010998Y001454D01*
X010948Y001440D01*
X010897Y001429D01*
X010845Y001422D01*
X010793Y001419D01*
X010741Y001420D01*
X010689Y001425D01*
X010638Y001434D01*
X010587Y001447D01*
X010538Y001463D01*
X010489Y001483D01*
X010443Y001507D01*
X010399Y001534D01*
X010356Y001565D01*
X010316Y001598D01*
X010279Y001635D01*
X010245Y001674D01*
X010214Y001716D01*
X010185Y001760D01*
X010161Y001806D01*
X010140Y001853D01*
X010122Y001903D01*
X010109Y001953D01*
X010099Y002004D01*
X010093Y002056D01*
X010091Y002108D01*
X018792Y002831D02*
X018794Y002857D01*
X018800Y002883D01*
X018810Y002908D01*
X018823Y002931D01*
X018839Y002951D01*
X018859Y002969D01*
X018881Y002984D01*
X018904Y002996D01*
X018930Y003004D01*
X018956Y003008D01*
X018982Y003008D01*
X019008Y003004D01*
X019034Y002996D01*
X019058Y002984D01*
X019079Y002969D01*
X019099Y002951D01*
X019115Y002931D01*
X019128Y002908D01*
X019138Y002883D01*
X019144Y002857D01*
X019146Y002831D01*
X019144Y002805D01*
X019138Y002779D01*
X019128Y002754D01*
X019115Y002731D01*
X019099Y002711D01*
X019079Y002693D01*
X019057Y002678D01*
X019034Y002666D01*
X019008Y002658D01*
X018982Y002654D01*
X018956Y002654D01*
X018930Y002658D01*
X018904Y002666D01*
X018880Y002678D01*
X018859Y002693D01*
X018839Y002711D01*
X018823Y002731D01*
X018810Y002754D01*
X018800Y002779D01*
X018794Y002805D01*
X018792Y002831D01*
X020524Y002831D02*
X020526Y002857D01*
X020532Y002883D01*
X020542Y002908D01*
X020555Y002931D01*
X020571Y002951D01*
X020591Y002969D01*
X020613Y002984D01*
X020636Y002996D01*
X020662Y003004D01*
X020688Y003008D01*
X020714Y003008D01*
X020740Y003004D01*
X020766Y002996D01*
X020790Y002984D01*
X020811Y002969D01*
X020831Y002951D01*
X020847Y002931D01*
X020860Y002908D01*
X020870Y002883D01*
X020876Y002857D01*
X020878Y002831D01*
X020876Y002805D01*
X020870Y002779D01*
X020860Y002754D01*
X020847Y002731D01*
X020831Y002711D01*
X020811Y002693D01*
X020789Y002678D01*
X020766Y002666D01*
X020740Y002658D01*
X020714Y002654D01*
X020688Y002654D01*
X020662Y002658D01*
X020636Y002666D01*
X020612Y002678D01*
X020591Y002693D01*
X020571Y002711D01*
X020555Y002731D01*
X020542Y002754D01*
X020532Y002779D01*
X020526Y002805D01*
X020524Y002831D01*
X028201Y002108D02*
X028203Y002160D01*
X028209Y002212D01*
X028219Y002263D01*
X028232Y002313D01*
X028250Y002363D01*
X028271Y002410D01*
X028295Y002456D01*
X028324Y002500D01*
X028355Y002542D01*
X028389Y002581D01*
X028426Y002618D01*
X028466Y002651D01*
X028509Y002682D01*
X028553Y002709D01*
X028599Y002733D01*
X028648Y002753D01*
X028697Y002769D01*
X028748Y002782D01*
X028799Y002791D01*
X028851Y002796D01*
X028903Y002797D01*
X028955Y002794D01*
X029007Y002787D01*
X029058Y002776D01*
X029108Y002762D01*
X029157Y002743D01*
X029204Y002721D01*
X029249Y002696D01*
X029293Y002667D01*
X029334Y002635D01*
X029373Y002600D01*
X029408Y002562D01*
X029441Y002521D01*
X029471Y002479D01*
X029497Y002434D01*
X029520Y002387D01*
X029539Y002338D01*
X029555Y002288D01*
X029567Y002238D01*
X029575Y002186D01*
X029579Y002134D01*
X029579Y002082D01*
X029575Y002030D01*
X029567Y001978D01*
X029555Y001928D01*
X029539Y001878D01*
X029520Y001829D01*
X029497Y001782D01*
X029471Y001737D01*
X029441Y001695D01*
X029408Y001654D01*
X029373Y001616D01*
X029334Y001581D01*
X029293Y001549D01*
X029249Y001520D01*
X029204Y001495D01*
X029157Y001473D01*
X029108Y001454D01*
X029058Y001440D01*
X029007Y001429D01*
X028955Y001422D01*
X028903Y001419D01*
X028851Y001420D01*
X028799Y001425D01*
X028748Y001434D01*
X028697Y001447D01*
X028648Y001463D01*
X028599Y001483D01*
X028553Y001507D01*
X028509Y001534D01*
X028466Y001565D01*
X028426Y001598D01*
X028389Y001635D01*
X028355Y001674D01*
X028324Y001716D01*
X028295Y001760D01*
X028271Y001806D01*
X028250Y001853D01*
X028232Y001903D01*
X028219Y001953D01*
X028209Y002004D01*
X028203Y002056D01*
X028201Y002108D01*
X037256Y017792D02*
X037258Y017844D01*
X037264Y017896D01*
X037274Y017947D01*
X037287Y017997D01*
X037305Y018047D01*
X037326Y018094D01*
X037350Y018140D01*
X037379Y018184D01*
X037410Y018226D01*
X037444Y018265D01*
X037481Y018302D01*
X037521Y018335D01*
X037564Y018366D01*
X037608Y018393D01*
X037654Y018417D01*
X037703Y018437D01*
X037752Y018453D01*
X037803Y018466D01*
X037854Y018475D01*
X037906Y018480D01*
X037958Y018481D01*
X038010Y018478D01*
X038062Y018471D01*
X038113Y018460D01*
X038163Y018446D01*
X038212Y018427D01*
X038259Y018405D01*
X038304Y018380D01*
X038348Y018351D01*
X038389Y018319D01*
X038428Y018284D01*
X038463Y018246D01*
X038496Y018205D01*
X038526Y018163D01*
X038552Y018118D01*
X038575Y018071D01*
X038594Y018022D01*
X038610Y017972D01*
X038622Y017922D01*
X038630Y017870D01*
X038634Y017818D01*
X038634Y017766D01*
X038630Y017714D01*
X038622Y017662D01*
X038610Y017612D01*
X038594Y017562D01*
X038575Y017513D01*
X038552Y017466D01*
X038526Y017421D01*
X038496Y017379D01*
X038463Y017338D01*
X038428Y017300D01*
X038389Y017265D01*
X038348Y017233D01*
X038304Y017204D01*
X038259Y017179D01*
X038212Y017157D01*
X038163Y017138D01*
X038113Y017124D01*
X038062Y017113D01*
X038010Y017106D01*
X037958Y017103D01*
X037906Y017104D01*
X037854Y017109D01*
X037803Y017118D01*
X037752Y017131D01*
X037703Y017147D01*
X037654Y017167D01*
X037608Y017191D01*
X037564Y017218D01*
X037521Y017249D01*
X037481Y017282D01*
X037444Y017319D01*
X037410Y017358D01*
X037379Y017400D01*
X037350Y017444D01*
X037326Y017490D01*
X037305Y017537D01*
X037287Y017587D01*
X037274Y017637D01*
X037264Y017688D01*
X037258Y017740D01*
X037256Y017792D01*
X028201Y033476D02*
X028203Y033528D01*
X028209Y033580D01*
X028219Y033631D01*
X028232Y033681D01*
X028250Y033731D01*
X028271Y033778D01*
X028295Y033824D01*
X028324Y033868D01*
X028355Y033910D01*
X028389Y033949D01*
X028426Y033986D01*
X028466Y034019D01*
X028509Y034050D01*
X028553Y034077D01*
X028599Y034101D01*
X028648Y034121D01*
X028697Y034137D01*
X028748Y034150D01*
X028799Y034159D01*
X028851Y034164D01*
X028903Y034165D01*
X028955Y034162D01*
X029007Y034155D01*
X029058Y034144D01*
X029108Y034130D01*
X029157Y034111D01*
X029204Y034089D01*
X029249Y034064D01*
X029293Y034035D01*
X029334Y034003D01*
X029373Y033968D01*
X029408Y033930D01*
X029441Y033889D01*
X029471Y033847D01*
X029497Y033802D01*
X029520Y033755D01*
X029539Y033706D01*
X029555Y033656D01*
X029567Y033606D01*
X029575Y033554D01*
X029579Y033502D01*
X029579Y033450D01*
X029575Y033398D01*
X029567Y033346D01*
X029555Y033296D01*
X029539Y033246D01*
X029520Y033197D01*
X029497Y033150D01*
X029471Y033105D01*
X029441Y033063D01*
X029408Y033022D01*
X029373Y032984D01*
X029334Y032949D01*
X029293Y032917D01*
X029249Y032888D01*
X029204Y032863D01*
X029157Y032841D01*
X029108Y032822D01*
X029058Y032808D01*
X029007Y032797D01*
X028955Y032790D01*
X028903Y032787D01*
X028851Y032788D01*
X028799Y032793D01*
X028748Y032802D01*
X028697Y032815D01*
X028648Y032831D01*
X028599Y032851D01*
X028553Y032875D01*
X028509Y032902D01*
X028466Y032933D01*
X028426Y032966D01*
X028389Y033003D01*
X028355Y033042D01*
X028324Y033084D01*
X028295Y033128D01*
X028271Y033174D01*
X028250Y033221D01*
X028232Y033271D01*
X028219Y033321D01*
X028209Y033372D01*
X028203Y033424D01*
X028201Y033476D01*
X010091Y033476D02*
X010093Y033528D01*
X010099Y033580D01*
X010109Y033631D01*
X010122Y033681D01*
X010140Y033731D01*
X010161Y033778D01*
X010185Y033824D01*
X010214Y033868D01*
X010245Y033910D01*
X010279Y033949D01*
X010316Y033986D01*
X010356Y034019D01*
X010399Y034050D01*
X010443Y034077D01*
X010489Y034101D01*
X010538Y034121D01*
X010587Y034137D01*
X010638Y034150D01*
X010689Y034159D01*
X010741Y034164D01*
X010793Y034165D01*
X010845Y034162D01*
X010897Y034155D01*
X010948Y034144D01*
X010998Y034130D01*
X011047Y034111D01*
X011094Y034089D01*
X011139Y034064D01*
X011183Y034035D01*
X011224Y034003D01*
X011263Y033968D01*
X011298Y033930D01*
X011331Y033889D01*
X011361Y033847D01*
X011387Y033802D01*
X011410Y033755D01*
X011429Y033706D01*
X011445Y033656D01*
X011457Y033606D01*
X011465Y033554D01*
X011469Y033502D01*
X011469Y033450D01*
X011465Y033398D01*
X011457Y033346D01*
X011445Y033296D01*
X011429Y033246D01*
X011410Y033197D01*
X011387Y033150D01*
X011361Y033105D01*
X011331Y033063D01*
X011298Y033022D01*
X011263Y032984D01*
X011224Y032949D01*
X011183Y032917D01*
X011139Y032888D01*
X011094Y032863D01*
X011047Y032841D01*
X010998Y032822D01*
X010948Y032808D01*
X010897Y032797D01*
X010845Y032790D01*
X010793Y032787D01*
X010741Y032788D01*
X010689Y032793D01*
X010638Y032802D01*
X010587Y032815D01*
X010538Y032831D01*
X010489Y032851D01*
X010443Y032875D01*
X010399Y032902D01*
X010356Y032933D01*
X010316Y032966D01*
X010279Y033003D01*
X010245Y033042D01*
X010214Y033084D01*
X010185Y033128D01*
X010161Y033174D01*
X010140Y033221D01*
X010122Y033271D01*
X010109Y033321D01*
X010099Y033372D01*
X010093Y033424D01*
X010091Y033476D01*
X001036Y017792D02*
X001038Y017844D01*
X001044Y017896D01*
X001054Y017947D01*
X001067Y017997D01*
X001085Y018047D01*
X001106Y018094D01*
X001130Y018140D01*
X001159Y018184D01*
X001190Y018226D01*
X001224Y018265D01*
X001261Y018302D01*
X001301Y018335D01*
X001344Y018366D01*
X001388Y018393D01*
X001434Y018417D01*
X001483Y018437D01*
X001532Y018453D01*
X001583Y018466D01*
X001634Y018475D01*
X001686Y018480D01*
X001738Y018481D01*
X001790Y018478D01*
X001842Y018471D01*
X001893Y018460D01*
X001943Y018446D01*
X001992Y018427D01*
X002039Y018405D01*
X002084Y018380D01*
X002128Y018351D01*
X002169Y018319D01*
X002208Y018284D01*
X002243Y018246D01*
X002276Y018205D01*
X002306Y018163D01*
X002332Y018118D01*
X002355Y018071D01*
X002374Y018022D01*
X002390Y017972D01*
X002402Y017922D01*
X002410Y017870D01*
X002414Y017818D01*
X002414Y017766D01*
X002410Y017714D01*
X002402Y017662D01*
X002390Y017612D01*
X002374Y017562D01*
X002355Y017513D01*
X002332Y017466D01*
X002306Y017421D01*
X002276Y017379D01*
X002243Y017338D01*
X002208Y017300D01*
X002169Y017265D01*
X002128Y017233D01*
X002084Y017204D01*
X002039Y017179D01*
X001992Y017157D01*
X001943Y017138D01*
X001893Y017124D01*
X001842Y017113D01*
X001790Y017106D01*
X001738Y017103D01*
X001686Y017104D01*
X001634Y017109D01*
X001583Y017118D01*
X001532Y017131D01*
X001483Y017147D01*
X001434Y017167D01*
X001388Y017191D01*
X001344Y017218D01*
X001301Y017249D01*
X001261Y017282D01*
X001224Y017319D01*
X001190Y017358D01*
X001159Y017400D01*
X001130Y017444D01*
X001106Y017490D01*
X001085Y017537D01*
X001067Y017587D01*
X001054Y017637D01*
X001044Y017688D01*
X001038Y017740D01*
X001036Y017792D01*
D11*
G36*
X006512Y014511D02*
X006709Y014169D01*
X005142Y013265D01*
X004945Y013607D01*
X006512Y014511D01*
G37*
G36*
X006906Y013830D02*
X007103Y013488D01*
X005536Y012584D01*
X005339Y012926D01*
X006906Y013830D01*
G37*
G36*
X007299Y013148D02*
X007496Y012806D01*
X005929Y011902D01*
X005732Y012244D01*
X007299Y013148D01*
G37*
G36*
X009217Y009982D02*
X009414Y009640D01*
X007847Y008736D01*
X007650Y009078D01*
X009217Y009982D01*
G37*
G36*
X009611Y009301D02*
X009808Y008959D01*
X008241Y008055D01*
X008044Y008397D01*
X009611Y009301D01*
G37*
G36*
X010005Y008619D02*
X010202Y008277D01*
X008635Y007373D01*
X008438Y007715D01*
X010005Y008619D01*
G37*
G36*
X010399Y007937D02*
X010596Y007595D01*
X009029Y006691D01*
X008832Y007033D01*
X010399Y007937D01*
G37*
G36*
X029338Y007893D02*
X029535Y008235D01*
X031102Y007331D01*
X030905Y006989D01*
X029338Y007893D01*
G37*
G36*
X029731Y008575D02*
X029928Y008917D01*
X031495Y008013D01*
X031298Y007671D01*
X029731Y008575D01*
G37*
G36*
X030125Y009257D02*
X030322Y009599D01*
X031889Y008695D01*
X031692Y008353D01*
X030125Y009257D01*
G37*
G36*
X031907Y012501D02*
X032104Y012843D01*
X033671Y011939D01*
X033474Y011597D01*
X031907Y012501D01*
G37*
G36*
X032301Y013183D02*
X032498Y013525D01*
X034065Y012621D01*
X033868Y012279D01*
X032301Y013183D01*
G37*
G36*
X032694Y013864D02*
X032891Y014206D01*
X034458Y013302D01*
X034261Y012960D01*
X032694Y013864D01*
G37*
G36*
X033088Y014546D02*
X033285Y014888D01*
X034852Y013984D01*
X034655Y013642D01*
X033088Y014546D01*
G37*
X015859Y031796D03*
X015071Y031796D03*
X014284Y031796D03*
X013496Y031796D03*
X024367Y031874D03*
X025154Y031874D03*
X025941Y031874D03*
D12*
X026886Y033922D03*
X023422Y033922D03*
X016804Y033843D03*
X012552Y033843D03*
D13*
G36*
X007677Y005411D02*
X008834Y006079D01*
X009149Y005533D01*
X007992Y004865D01*
X007677Y005411D01*
G37*
G36*
X005551Y009093D02*
X006708Y009761D01*
X007023Y009215D01*
X005866Y008547D01*
X005551Y009093D01*
G37*
G36*
X004578Y010622D02*
X005735Y011290D01*
X006050Y010744D01*
X004893Y010076D01*
X004578Y010622D01*
G37*
G36*
X002845Y013622D02*
X004002Y014290D01*
X004317Y013744D01*
X003160Y013076D01*
X002845Y013622D01*
G37*
G36*
X031941Y005163D02*
X030784Y005831D01*
X031099Y006377D01*
X032256Y005709D01*
X031941Y005163D01*
G37*
G36*
X033673Y008163D02*
X032516Y008831D01*
X032831Y009377D01*
X033988Y008709D01*
X033673Y008163D01*
G37*
G36*
X034510Y009771D02*
X033353Y010439D01*
X033668Y010985D01*
X034825Y010317D01*
X034510Y009771D01*
G37*
G36*
X036636Y013453D02*
X035479Y014121D01*
X035794Y014667D01*
X036951Y013999D01*
X036636Y013453D01*
G37*
D14*
G36*
X027854Y014934D02*
X027265Y013913D01*
X026788Y014188D01*
X027377Y015209D01*
X027854Y014934D01*
G37*
G36*
X026909Y013297D02*
X026320Y012276D01*
X025843Y012551D01*
X026432Y013572D01*
X026909Y013297D01*
G37*
X015819Y007831D03*
X013930Y007831D03*
G36*
X013350Y012276D02*
X012761Y013297D01*
X013238Y013572D01*
X013827Y012551D01*
X013350Y012276D01*
G37*
G36*
X012405Y013913D02*
X011816Y014934D01*
X012293Y015209D01*
X012882Y014188D01*
X012405Y013913D01*
G37*
X019008Y025891D03*
X020898Y025891D03*
D15*
G36*
X022797Y020442D02*
X022575Y020664D01*
X022907Y020996D01*
X023129Y020774D01*
X022797Y020442D01*
G37*
G36*
X022325Y019970D02*
X022103Y020192D01*
X022435Y020524D01*
X022657Y020302D01*
X022325Y019970D01*
G37*
G36*
X022826Y019469D02*
X022604Y019691D01*
X022936Y020023D01*
X023158Y019801D01*
X022826Y019469D01*
G37*
G36*
X023298Y019941D02*
X023076Y020163D01*
X023408Y020495D01*
X023630Y020273D01*
X023298Y019941D01*
G37*
G36*
X023348Y016230D02*
X023126Y016452D01*
X023458Y016784D01*
X023680Y016562D01*
X023348Y016230D01*
G37*
G36*
X022876Y015757D02*
X022654Y015979D01*
X022986Y016311D01*
X023208Y016089D01*
X022876Y015757D01*
G37*
G36*
X022514Y015839D02*
X022736Y015617D01*
X022404Y015285D01*
X022182Y015507D01*
X022514Y015839D01*
G37*
G36*
X023015Y015338D02*
X023237Y015116D01*
X022905Y014784D01*
X022683Y015006D01*
X023015Y015338D01*
G37*
G36*
X023377Y015256D02*
X023155Y015478D01*
X023487Y015810D01*
X023709Y015588D01*
X023377Y015256D01*
G37*
G36*
X023849Y015729D02*
X023627Y015951D01*
X023959Y016283D01*
X024181Y016061D01*
X023849Y015729D01*
G37*
G36*
X019676Y012815D02*
X019454Y013037D01*
X019786Y013369D01*
X020008Y013147D01*
X019676Y012815D01*
G37*
G36*
X019204Y012304D02*
X018982Y012526D01*
X019314Y012858D01*
X019536Y012636D01*
X019204Y012304D01*
G37*
G36*
X018703Y012805D02*
X018481Y013027D01*
X018813Y013359D01*
X019035Y013137D01*
X018703Y012805D01*
G37*
G36*
X019175Y013316D02*
X018953Y013538D01*
X019285Y013870D01*
X019507Y013648D01*
X019175Y013316D01*
G37*
G36*
X016741Y015625D02*
X016519Y015403D01*
X016187Y015735D01*
X016409Y015957D01*
X016741Y015625D01*
G37*
G36*
X016239Y015124D02*
X016017Y014902D01*
X015685Y015234D01*
X015907Y015456D01*
X016239Y015124D01*
G37*
G36*
X016827Y020234D02*
X017049Y020456D01*
X017381Y020124D01*
X017159Y019902D01*
X016827Y020234D01*
G37*
G36*
X017328Y020735D02*
X017550Y020957D01*
X017882Y020625D01*
X017660Y020403D01*
X017328Y020735D01*
G37*
X018772Y009681D03*
X019481Y009681D03*
X021056Y009721D03*
X021764Y009721D03*
X023536Y006138D03*
X024244Y006138D03*
X024205Y004996D03*
X023496Y004996D03*
X023496Y003855D03*
X024205Y003855D03*
X025504Y007530D03*
X026213Y007530D03*
X026213Y008264D03*
X025504Y008264D03*
D16*
G36*
X018730Y013771D02*
X018202Y014299D01*
X018590Y014687D01*
X019118Y014159D01*
X018730Y013771D01*
G37*
G36*
X018062Y013103D02*
X017534Y013631D01*
X017922Y014019D01*
X018450Y013491D01*
X018062Y013103D01*
G37*
G36*
X016837Y014328D02*
X016309Y014856D01*
X016697Y015244D01*
X017225Y014716D01*
X016837Y014328D01*
G37*
G36*
X017505Y014996D02*
X016977Y015524D01*
X017365Y015912D01*
X017893Y015384D01*
X017505Y014996D01*
G37*
D17*
G36*
X014604Y020064D02*
X014152Y019280D01*
X013718Y019530D01*
X014170Y020314D01*
X014604Y020064D01*
G37*
G36*
X013738Y020564D02*
X013286Y019780D01*
X012852Y020030D01*
X013304Y020814D01*
X013738Y020564D01*
G37*
G36*
X012872Y021064D02*
X012420Y020280D01*
X011986Y020530D01*
X012438Y021314D01*
X012872Y021064D01*
G37*
G36*
X014892Y022562D02*
X014440Y021778D01*
X014006Y022028D01*
X014458Y022812D01*
X014892Y022562D01*
G37*
G36*
X015758Y022062D02*
X015306Y021278D01*
X014872Y021528D01*
X015324Y022312D01*
X015758Y022062D01*
G37*
G36*
X014026Y023062D02*
X013574Y022278D01*
X013140Y022528D01*
X013592Y023312D01*
X014026Y023062D01*
G37*
G36*
X013714Y024785D02*
X013262Y024001D01*
X012828Y024251D01*
X013280Y025035D01*
X013714Y024785D01*
G37*
G36*
X012848Y025285D02*
X012396Y024501D01*
X011962Y024751D01*
X012414Y025535D01*
X012848Y025285D01*
G37*
G36*
X011982Y025785D02*
X011530Y025001D01*
X011096Y025251D01*
X011548Y026035D01*
X011982Y025785D01*
G37*
G36*
X011116Y026285D02*
X010664Y025501D01*
X010230Y025751D01*
X010682Y026535D01*
X011116Y026285D01*
G37*
G36*
X010250Y026785D02*
X009798Y026001D01*
X009364Y026251D01*
X009816Y027035D01*
X010250Y026785D01*
G37*
G36*
X009384Y027285D02*
X008932Y026501D01*
X008498Y026751D01*
X008950Y027535D01*
X009384Y027285D01*
G37*
G36*
X008518Y027785D02*
X008066Y027001D01*
X007632Y027251D01*
X008084Y028035D01*
X008518Y027785D01*
G37*
G36*
X007652Y028285D02*
X007200Y027501D01*
X006766Y027751D01*
X007218Y028535D01*
X007652Y028285D01*
G37*
G36*
X009672Y029783D02*
X009220Y028999D01*
X008786Y029249D01*
X009238Y030033D01*
X009672Y029783D01*
G37*
G36*
X010538Y029283D02*
X010086Y028499D01*
X009652Y028749D01*
X010104Y029533D01*
X010538Y029283D01*
G37*
G36*
X011404Y028783D02*
X010952Y027999D01*
X010518Y028249D01*
X010970Y029033D01*
X011404Y028783D01*
G37*
G36*
X012270Y028283D02*
X011818Y027499D01*
X011384Y027749D01*
X011836Y028533D01*
X012270Y028283D01*
G37*
G36*
X013136Y027783D02*
X012684Y026999D01*
X012250Y027249D01*
X012702Y028033D01*
X013136Y027783D01*
G37*
G36*
X014002Y027283D02*
X013550Y026499D01*
X013116Y026749D01*
X013568Y027533D01*
X014002Y027283D01*
G37*
G36*
X014868Y026783D02*
X014416Y025999D01*
X013982Y026249D01*
X014434Y027033D01*
X014868Y026783D01*
G37*
G36*
X008806Y030283D02*
X008354Y029499D01*
X007920Y029749D01*
X008372Y030533D01*
X008806Y030283D01*
G37*
G36*
X005109Y023880D02*
X004657Y023096D01*
X004223Y023346D01*
X004675Y024130D01*
X005109Y023880D01*
G37*
G36*
X005975Y023380D02*
X005523Y022596D01*
X005089Y022846D01*
X005541Y023630D01*
X005975Y023380D01*
G37*
G36*
X006841Y022880D02*
X006389Y022096D01*
X005955Y022346D01*
X006407Y023130D01*
X006841Y022880D01*
G37*
G36*
X007707Y022380D02*
X007255Y021596D01*
X006821Y021846D01*
X007273Y022630D01*
X007707Y022380D01*
G37*
G36*
X008573Y021880D02*
X008121Y021096D01*
X007687Y021346D01*
X008139Y022130D01*
X008573Y021880D01*
G37*
G36*
X009439Y021380D02*
X008987Y020596D01*
X008553Y020846D01*
X009005Y021630D01*
X009439Y021380D01*
G37*
G36*
X010305Y020880D02*
X009853Y020096D01*
X009419Y020346D01*
X009871Y021130D01*
X010305Y020880D01*
G37*
G36*
X011171Y020380D02*
X010719Y019596D01*
X010285Y019846D01*
X010737Y020630D01*
X011171Y020380D01*
G37*
G36*
X010017Y018382D02*
X009565Y017598D01*
X009131Y017848D01*
X009583Y018632D01*
X010017Y018382D01*
G37*
G36*
X009151Y018882D02*
X008699Y018098D01*
X008265Y018348D01*
X008717Y019132D01*
X009151Y018882D01*
G37*
G36*
X008285Y019382D02*
X007833Y018598D01*
X007399Y018848D01*
X007851Y019632D01*
X008285Y019382D01*
G37*
G36*
X007419Y019882D02*
X006967Y019098D01*
X006533Y019348D01*
X006985Y020132D01*
X007419Y019882D01*
G37*
G36*
X006553Y020382D02*
X006101Y019598D01*
X005667Y019848D01*
X006119Y020632D01*
X006553Y020382D01*
G37*
G36*
X005687Y020882D02*
X005235Y020098D01*
X004801Y020348D01*
X005253Y021132D01*
X005687Y020882D01*
G37*
G36*
X004821Y021382D02*
X004369Y020598D01*
X003935Y020848D01*
X004387Y021632D01*
X004821Y021382D01*
G37*
G36*
X003955Y021882D02*
X003503Y021098D01*
X003069Y021348D01*
X003521Y022132D01*
X003955Y021882D01*
G37*
G36*
X025254Y025999D02*
X024802Y026783D01*
X025236Y027033D01*
X025688Y026249D01*
X025254Y025999D01*
G37*
G36*
X026120Y026499D02*
X025668Y027283D01*
X026102Y027533D01*
X026554Y026749D01*
X026120Y026499D01*
G37*
G36*
X026986Y026999D02*
X026534Y027783D01*
X026968Y028033D01*
X027420Y027249D01*
X026986Y026999D01*
G37*
G36*
X027852Y027499D02*
X027400Y028283D01*
X027834Y028533D01*
X028286Y027749D01*
X027852Y027499D01*
G37*
G36*
X028718Y027999D02*
X028266Y028783D01*
X028700Y029033D01*
X029152Y028249D01*
X028718Y027999D01*
G37*
G36*
X029584Y028499D02*
X029132Y029283D01*
X029566Y029533D01*
X030018Y028749D01*
X029584Y028499D01*
G37*
G36*
X030450Y028999D02*
X029998Y029783D01*
X030432Y030033D01*
X030884Y029249D01*
X030450Y028999D01*
G37*
G36*
X031316Y029499D02*
X030864Y030283D01*
X031298Y030533D01*
X031750Y029749D01*
X031316Y029499D01*
G37*
G36*
X032470Y027501D02*
X032018Y028285D01*
X032452Y028535D01*
X032904Y027751D01*
X032470Y027501D01*
G37*
G36*
X031604Y027001D02*
X031152Y027785D01*
X031586Y028035D01*
X032038Y027251D01*
X031604Y027001D01*
G37*
G36*
X030738Y026501D02*
X030286Y027285D01*
X030720Y027535D01*
X031172Y026751D01*
X030738Y026501D01*
G37*
G36*
X029872Y026001D02*
X029420Y026785D01*
X029854Y027035D01*
X030306Y026251D01*
X029872Y026001D01*
G37*
G36*
X029006Y025501D02*
X028554Y026285D01*
X028988Y026535D01*
X029440Y025751D01*
X029006Y025501D01*
G37*
G36*
X028140Y025001D02*
X027688Y025785D01*
X028122Y026035D01*
X028574Y025251D01*
X028140Y025001D01*
G37*
G36*
X027274Y024501D02*
X026822Y025285D01*
X027256Y025535D01*
X027708Y024751D01*
X027274Y024501D01*
G37*
G36*
X026408Y024001D02*
X025956Y024785D01*
X026390Y025035D01*
X026842Y024251D01*
X026408Y024001D01*
G37*
G36*
X029817Y020096D02*
X029365Y020880D01*
X029799Y021130D01*
X030251Y020346D01*
X029817Y020096D01*
G37*
G36*
X028951Y019596D02*
X028499Y020380D01*
X028933Y020630D01*
X029385Y019846D01*
X028951Y019596D01*
G37*
G36*
X030105Y017598D02*
X029653Y018382D01*
X030087Y018632D01*
X030539Y017848D01*
X030105Y017598D01*
G37*
G36*
X030971Y018098D02*
X030519Y018882D01*
X030953Y019132D01*
X031405Y018348D01*
X030971Y018098D01*
G37*
G36*
X031837Y018598D02*
X031385Y019382D01*
X031819Y019632D01*
X032271Y018848D01*
X031837Y018598D01*
G37*
G36*
X032703Y019098D02*
X032251Y019882D01*
X032685Y020132D01*
X033137Y019348D01*
X032703Y019098D01*
G37*
G36*
X033569Y019598D02*
X033117Y020382D01*
X033551Y020632D01*
X034003Y019848D01*
X033569Y019598D01*
G37*
G36*
X034435Y020098D02*
X033983Y020882D01*
X034417Y021132D01*
X034869Y020348D01*
X034435Y020098D01*
G37*
G36*
X035301Y020598D02*
X034849Y021382D01*
X035283Y021632D01*
X035735Y020848D01*
X035301Y020598D01*
G37*
G36*
X036167Y021098D02*
X035715Y021882D01*
X036149Y022132D01*
X036601Y021348D01*
X036167Y021098D01*
G37*
G36*
X034147Y022596D02*
X033695Y023380D01*
X034129Y023630D01*
X034581Y022846D01*
X034147Y022596D01*
G37*
G36*
X033281Y022096D02*
X032829Y022880D01*
X033263Y023130D01*
X033715Y022346D01*
X033281Y022096D01*
G37*
G36*
X032415Y021596D02*
X031963Y022380D01*
X032397Y022630D01*
X032849Y021846D01*
X032415Y021596D01*
G37*
G36*
X031549Y021096D02*
X031097Y021880D01*
X031531Y022130D01*
X031983Y021346D01*
X031549Y021096D01*
G37*
G36*
X030683Y020596D02*
X030231Y021380D01*
X030665Y021630D01*
X031117Y020846D01*
X030683Y020596D01*
G37*
G36*
X035013Y023096D02*
X034561Y023880D01*
X034995Y024130D01*
X035447Y023346D01*
X035013Y023096D01*
G37*
D18*
X025599Y002971D03*
X025599Y001471D03*
X023599Y001471D03*
X023599Y002971D03*
D19*
X020898Y005075D03*
X020189Y005075D03*
X019481Y005075D03*
X019481Y005784D03*
X020189Y005784D03*
X020898Y005784D03*
X018693Y005784D03*
X018693Y005075D03*
X017709Y007516D03*
X017709Y008225D03*
X014993Y004445D03*
X014993Y003737D03*
X010150Y004406D03*
X010150Y005115D03*
X021941Y013579D03*
X021941Y014288D03*
X022394Y008225D03*
X022394Y007516D03*
X024835Y007516D03*
X024835Y008225D03*
D20*
X020465Y003815D03*
X020150Y003815D03*
X019835Y003815D03*
X019520Y003815D03*
X019205Y003815D03*
D21*
X018063Y003815D03*
X018063Y001650D03*
X021607Y001650D03*
X021607Y003815D03*
D22*
X020960Y006815D03*
X020710Y006815D03*
X020460Y006815D03*
X020210Y006815D03*
X019960Y006815D03*
X019710Y006815D03*
X019460Y006815D03*
X019210Y006815D03*
X018960Y006815D03*
X018710Y006815D03*
X018710Y008925D03*
X018960Y008925D03*
X019210Y008925D03*
X019460Y008925D03*
X019710Y008925D03*
X019960Y008925D03*
X020210Y008925D03*
X020460Y008925D03*
X020710Y008925D03*
X020960Y008925D03*
D23*
X023250Y008126D03*
X023250Y007615D03*
X023979Y007870D03*
D24*
X024874Y006138D03*
X024914Y004996D03*
X024914Y003855D03*
X026095Y003855D03*
X026095Y004996D03*
X026056Y006138D03*
D25*
G36*
X020048Y015218D02*
X020189Y015359D01*
X020598Y014950D01*
X020457Y014809D01*
X020048Y015218D01*
G37*
G36*
X020267Y015437D02*
X020408Y015578D01*
X020817Y015169D01*
X020676Y015028D01*
X020267Y015437D01*
G37*
G36*
X020493Y015663D02*
X020634Y015804D01*
X021043Y015395D01*
X020902Y015254D01*
X020493Y015663D01*
G37*
G36*
X020713Y015882D02*
X020854Y016023D01*
X021263Y015614D01*
X021122Y015473D01*
X020713Y015882D01*
G37*
G36*
X020939Y016108D02*
X021080Y016249D01*
X021489Y015840D01*
X021348Y015699D01*
X020939Y016108D01*
G37*
G36*
X021158Y016328D02*
X021299Y016469D01*
X021708Y016060D01*
X021567Y015919D01*
X021158Y016328D01*
G37*
G36*
X021377Y016547D02*
X021518Y016688D01*
X021927Y016279D01*
X021786Y016138D01*
X021377Y016547D01*
G37*
G36*
X021604Y016773D02*
X021745Y016914D01*
X022154Y016505D01*
X022013Y016364D01*
X021604Y016773D01*
G37*
G36*
X021823Y016992D02*
X021964Y017133D01*
X022373Y016724D01*
X022232Y016583D01*
X021823Y016992D01*
G37*
G36*
X022049Y017219D02*
X022190Y017360D01*
X022599Y016951D01*
X022458Y016810D01*
X022049Y017219D01*
G37*
G36*
X022268Y017438D02*
X022409Y017579D01*
X022818Y017170D01*
X022677Y017029D01*
X022268Y017438D01*
G37*
G36*
X022409Y018005D02*
X022268Y018146D01*
X022677Y018555D01*
X022818Y018414D01*
X022409Y018005D01*
G37*
G36*
X022190Y018224D02*
X022049Y018365D01*
X022458Y018774D01*
X022599Y018633D01*
X022190Y018224D01*
G37*
G36*
X021964Y018450D02*
X021823Y018591D01*
X022232Y019000D01*
X022373Y018859D01*
X021964Y018450D01*
G37*
G36*
X021745Y018669D02*
X021604Y018810D01*
X022013Y019219D01*
X022154Y019078D01*
X021745Y018669D01*
G37*
G36*
X021518Y018896D02*
X021377Y019037D01*
X021786Y019446D01*
X021927Y019305D01*
X021518Y018896D01*
G37*
G36*
X021299Y019115D02*
X021158Y019256D01*
X021567Y019665D01*
X021708Y019524D01*
X021299Y019115D01*
G37*
G36*
X021080Y019334D02*
X020939Y019475D01*
X021348Y019884D01*
X021489Y019743D01*
X021080Y019334D01*
G37*
G36*
X020854Y019560D02*
X020713Y019701D01*
X021122Y020110D01*
X021263Y019969D01*
X020854Y019560D01*
G37*
G36*
X020634Y019779D02*
X020493Y019920D01*
X020902Y020329D01*
X021043Y020188D01*
X020634Y019779D01*
G37*
G36*
X020408Y020006D02*
X020267Y020147D01*
X020676Y020556D01*
X020817Y020415D01*
X020408Y020006D01*
G37*
G36*
X020189Y020225D02*
X020048Y020366D01*
X020457Y020775D01*
X020598Y020634D01*
X020189Y020225D01*
G37*
G36*
X019072Y020634D02*
X019213Y020775D01*
X019622Y020366D01*
X019481Y020225D01*
X019072Y020634D01*
G37*
G36*
X018853Y020415D02*
X018994Y020556D01*
X019403Y020147D01*
X019262Y020006D01*
X018853Y020415D01*
G37*
G36*
X018627Y020188D02*
X018768Y020329D01*
X019177Y019920D01*
X019036Y019779D01*
X018627Y020188D01*
G37*
G36*
X018407Y019969D02*
X018548Y020110D01*
X018957Y019701D01*
X018816Y019560D01*
X018407Y019969D01*
G37*
G36*
X018181Y019743D02*
X018322Y019884D01*
X018731Y019475D01*
X018590Y019334D01*
X018181Y019743D01*
G37*
G36*
X017962Y019524D02*
X018103Y019665D01*
X018512Y019256D01*
X018371Y019115D01*
X017962Y019524D01*
G37*
G36*
X017743Y019305D02*
X017884Y019446D01*
X018293Y019037D01*
X018152Y018896D01*
X017743Y019305D01*
G37*
G36*
X017516Y019078D02*
X017657Y019219D01*
X018066Y018810D01*
X017925Y018669D01*
X017516Y019078D01*
G37*
G36*
X017297Y018859D02*
X017438Y019000D01*
X017847Y018591D01*
X017706Y018450D01*
X017297Y018859D01*
G37*
G36*
X017071Y018633D02*
X017212Y018774D01*
X017621Y018365D01*
X017480Y018224D01*
X017071Y018633D01*
G37*
G36*
X016852Y018414D02*
X016993Y018555D01*
X017402Y018146D01*
X017261Y018005D01*
X016852Y018414D01*
G37*
G36*
X016993Y017029D02*
X016852Y017170D01*
X017261Y017579D01*
X017402Y017438D01*
X016993Y017029D01*
G37*
G36*
X017212Y016810D02*
X017071Y016951D01*
X017480Y017360D01*
X017621Y017219D01*
X017212Y016810D01*
G37*
G36*
X017438Y016583D02*
X017297Y016724D01*
X017706Y017133D01*
X017847Y016992D01*
X017438Y016583D01*
G37*
G36*
X017657Y016364D02*
X017516Y016505D01*
X017925Y016914D01*
X018066Y016773D01*
X017657Y016364D01*
G37*
G36*
X017884Y016138D02*
X017743Y016279D01*
X018152Y016688D01*
X018293Y016547D01*
X017884Y016138D01*
G37*
G36*
X018103Y015919D02*
X017962Y016060D01*
X018371Y016469D01*
X018512Y016328D01*
X018103Y015919D01*
G37*
G36*
X018322Y015699D02*
X018181Y015840D01*
X018590Y016249D01*
X018731Y016108D01*
X018322Y015699D01*
G37*
G36*
X018548Y015473D02*
X018407Y015614D01*
X018816Y016023D01*
X018957Y015882D01*
X018548Y015473D01*
G37*
G36*
X018768Y015254D02*
X018627Y015395D01*
X019036Y015804D01*
X019177Y015663D01*
X018768Y015254D01*
G37*
G36*
X018994Y015028D02*
X018853Y015169D01*
X019262Y015578D01*
X019403Y015437D01*
X018994Y015028D01*
G37*
G36*
X019213Y014809D02*
X019072Y014950D01*
X019481Y015359D01*
X019622Y015218D01*
X019213Y014809D01*
G37*
D26*
X011400Y006217D03*
X011400Y005307D03*
X011400Y004397D03*
D27*
X013840Y005307D03*
M02*
