G75*
%MOIN*%
%OFA0B0*%
%FSLAX24Y24*%
%IPPOS*%
%LPD*%
%AMOC8*
5,1,8,0,0,1.08239X$1,22.5*
%
%ADD10C,0.0000*%
%ADD11C,0.1418*%
%ADD12R,0.0434X0.1851*%
%ADD13R,0.0670X0.1379*%
%ADD14R,0.1379X0.0670*%
%ADD15R,0.1221X0.0591*%
%ADD16R,0.0355X0.0512*%
%ADD17R,0.0788X0.0591*%
%ADD18R,0.0640X0.0640*%
%ADD19C,0.0640*%
%ADD20R,0.0946X0.0540*%
%ADD21R,0.0640X0.0640*%
%ADD22R,0.0640X0.0340*%
%ADD23R,0.0512X0.0355*%
%ADD24R,0.0237X0.1024*%
%ADD25R,0.0827X0.1024*%
%ADD26C,0.0394*%
%ADD27R,0.0190X0.0490*%
%ADD28R,0.0316X0.0316*%
%ADD29R,0.0512X0.0591*%
%ADD30R,0.0240X0.0620*%
%ADD31C,0.0434*%
%ADD32R,0.0920X0.0520*%
%ADD33R,0.0906X0.1457*%
%ADD34C,0.1024*%
%ADD35R,0.1024X0.1024*%
D10*
X009993Y000744D02*
X000150Y017792D01*
X009993Y034839D01*
X029678Y034839D01*
X039520Y017792D01*
X029678Y000744D01*
X009993Y000744D01*
X010091Y002108D02*
X010093Y002160D01*
X010099Y002212D01*
X010109Y002263D01*
X010122Y002313D01*
X010140Y002363D01*
X010161Y002410D01*
X010185Y002456D01*
X010214Y002500D01*
X010245Y002542D01*
X010279Y002581D01*
X010316Y002618D01*
X010356Y002651D01*
X010399Y002682D01*
X010443Y002709D01*
X010489Y002733D01*
X010538Y002753D01*
X010587Y002769D01*
X010638Y002782D01*
X010689Y002791D01*
X010741Y002796D01*
X010793Y002797D01*
X010845Y002794D01*
X010897Y002787D01*
X010948Y002776D01*
X010998Y002762D01*
X011047Y002743D01*
X011094Y002721D01*
X011139Y002696D01*
X011183Y002667D01*
X011224Y002635D01*
X011263Y002600D01*
X011298Y002562D01*
X011331Y002521D01*
X011361Y002479D01*
X011387Y002434D01*
X011410Y002387D01*
X011429Y002338D01*
X011445Y002288D01*
X011457Y002238D01*
X011465Y002186D01*
X011469Y002134D01*
X011469Y002082D01*
X011465Y002030D01*
X011457Y001978D01*
X011445Y001928D01*
X011429Y001878D01*
X011410Y001829D01*
X011387Y001782D01*
X011361Y001737D01*
X011331Y001695D01*
X011298Y001654D01*
X011263Y001616D01*
X011224Y001581D01*
X011183Y001549D01*
X011139Y001520D01*
X011094Y001495D01*
X011047Y001473D01*
X010998Y001454D01*
X010948Y001440D01*
X010897Y001429D01*
X010845Y001422D01*
X010793Y001419D01*
X010741Y001420D01*
X010689Y001425D01*
X010638Y001434D01*
X010587Y001447D01*
X010538Y001463D01*
X010489Y001483D01*
X010443Y001507D01*
X010399Y001534D01*
X010356Y001565D01*
X010316Y001598D01*
X010279Y001635D01*
X010245Y001674D01*
X010214Y001716D01*
X010185Y001760D01*
X010161Y001806D01*
X010140Y001853D01*
X010122Y001903D01*
X010109Y001953D01*
X010099Y002004D01*
X010093Y002056D01*
X010091Y002108D01*
X018792Y002831D02*
X018794Y002857D01*
X018800Y002883D01*
X018810Y002908D01*
X018823Y002931D01*
X018839Y002951D01*
X018859Y002969D01*
X018881Y002984D01*
X018904Y002996D01*
X018930Y003004D01*
X018956Y003008D01*
X018982Y003008D01*
X019008Y003004D01*
X019034Y002996D01*
X019058Y002984D01*
X019079Y002969D01*
X019099Y002951D01*
X019115Y002931D01*
X019128Y002908D01*
X019138Y002883D01*
X019144Y002857D01*
X019146Y002831D01*
X019144Y002805D01*
X019138Y002779D01*
X019128Y002754D01*
X019115Y002731D01*
X019099Y002711D01*
X019079Y002693D01*
X019057Y002678D01*
X019034Y002666D01*
X019008Y002658D01*
X018982Y002654D01*
X018956Y002654D01*
X018930Y002658D01*
X018904Y002666D01*
X018880Y002678D01*
X018859Y002693D01*
X018839Y002711D01*
X018823Y002731D01*
X018810Y002754D01*
X018800Y002779D01*
X018794Y002805D01*
X018792Y002831D01*
X020524Y002831D02*
X020526Y002857D01*
X020532Y002883D01*
X020542Y002908D01*
X020555Y002931D01*
X020571Y002951D01*
X020591Y002969D01*
X020613Y002984D01*
X020636Y002996D01*
X020662Y003004D01*
X020688Y003008D01*
X020714Y003008D01*
X020740Y003004D01*
X020766Y002996D01*
X020790Y002984D01*
X020811Y002969D01*
X020831Y002951D01*
X020847Y002931D01*
X020860Y002908D01*
X020870Y002883D01*
X020876Y002857D01*
X020878Y002831D01*
X020876Y002805D01*
X020870Y002779D01*
X020860Y002754D01*
X020847Y002731D01*
X020831Y002711D01*
X020811Y002693D01*
X020789Y002678D01*
X020766Y002666D01*
X020740Y002658D01*
X020714Y002654D01*
X020688Y002654D01*
X020662Y002658D01*
X020636Y002666D01*
X020612Y002678D01*
X020591Y002693D01*
X020571Y002711D01*
X020555Y002731D01*
X020542Y002754D01*
X020532Y002779D01*
X020526Y002805D01*
X020524Y002831D01*
X028201Y002108D02*
X028203Y002160D01*
X028209Y002212D01*
X028219Y002263D01*
X028232Y002313D01*
X028250Y002363D01*
X028271Y002410D01*
X028295Y002456D01*
X028324Y002500D01*
X028355Y002542D01*
X028389Y002581D01*
X028426Y002618D01*
X028466Y002651D01*
X028509Y002682D01*
X028553Y002709D01*
X028599Y002733D01*
X028648Y002753D01*
X028697Y002769D01*
X028748Y002782D01*
X028799Y002791D01*
X028851Y002796D01*
X028903Y002797D01*
X028955Y002794D01*
X029007Y002787D01*
X029058Y002776D01*
X029108Y002762D01*
X029157Y002743D01*
X029204Y002721D01*
X029249Y002696D01*
X029293Y002667D01*
X029334Y002635D01*
X029373Y002600D01*
X029408Y002562D01*
X029441Y002521D01*
X029471Y002479D01*
X029497Y002434D01*
X029520Y002387D01*
X029539Y002338D01*
X029555Y002288D01*
X029567Y002238D01*
X029575Y002186D01*
X029579Y002134D01*
X029579Y002082D01*
X029575Y002030D01*
X029567Y001978D01*
X029555Y001928D01*
X029539Y001878D01*
X029520Y001829D01*
X029497Y001782D01*
X029471Y001737D01*
X029441Y001695D01*
X029408Y001654D01*
X029373Y001616D01*
X029334Y001581D01*
X029293Y001549D01*
X029249Y001520D01*
X029204Y001495D01*
X029157Y001473D01*
X029108Y001454D01*
X029058Y001440D01*
X029007Y001429D01*
X028955Y001422D01*
X028903Y001419D01*
X028851Y001420D01*
X028799Y001425D01*
X028748Y001434D01*
X028697Y001447D01*
X028648Y001463D01*
X028599Y001483D01*
X028553Y001507D01*
X028509Y001534D01*
X028466Y001565D01*
X028426Y001598D01*
X028389Y001635D01*
X028355Y001674D01*
X028324Y001716D01*
X028295Y001760D01*
X028271Y001806D01*
X028250Y001853D01*
X028232Y001903D01*
X028219Y001953D01*
X028209Y002004D01*
X028203Y002056D01*
X028201Y002108D01*
X037256Y017792D02*
X037258Y017844D01*
X037264Y017896D01*
X037274Y017947D01*
X037287Y017997D01*
X037305Y018047D01*
X037326Y018094D01*
X037350Y018140D01*
X037379Y018184D01*
X037410Y018226D01*
X037444Y018265D01*
X037481Y018302D01*
X037521Y018335D01*
X037564Y018366D01*
X037608Y018393D01*
X037654Y018417D01*
X037703Y018437D01*
X037752Y018453D01*
X037803Y018466D01*
X037854Y018475D01*
X037906Y018480D01*
X037958Y018481D01*
X038010Y018478D01*
X038062Y018471D01*
X038113Y018460D01*
X038163Y018446D01*
X038212Y018427D01*
X038259Y018405D01*
X038304Y018380D01*
X038348Y018351D01*
X038389Y018319D01*
X038428Y018284D01*
X038463Y018246D01*
X038496Y018205D01*
X038526Y018163D01*
X038552Y018118D01*
X038575Y018071D01*
X038594Y018022D01*
X038610Y017972D01*
X038622Y017922D01*
X038630Y017870D01*
X038634Y017818D01*
X038634Y017766D01*
X038630Y017714D01*
X038622Y017662D01*
X038610Y017612D01*
X038594Y017562D01*
X038575Y017513D01*
X038552Y017466D01*
X038526Y017421D01*
X038496Y017379D01*
X038463Y017338D01*
X038428Y017300D01*
X038389Y017265D01*
X038348Y017233D01*
X038304Y017204D01*
X038259Y017179D01*
X038212Y017157D01*
X038163Y017138D01*
X038113Y017124D01*
X038062Y017113D01*
X038010Y017106D01*
X037958Y017103D01*
X037906Y017104D01*
X037854Y017109D01*
X037803Y017118D01*
X037752Y017131D01*
X037703Y017147D01*
X037654Y017167D01*
X037608Y017191D01*
X037564Y017218D01*
X037521Y017249D01*
X037481Y017282D01*
X037444Y017319D01*
X037410Y017358D01*
X037379Y017400D01*
X037350Y017444D01*
X037326Y017490D01*
X037305Y017537D01*
X037287Y017587D01*
X037274Y017637D01*
X037264Y017688D01*
X037258Y017740D01*
X037256Y017792D01*
X028201Y033476D02*
X028203Y033528D01*
X028209Y033580D01*
X028219Y033631D01*
X028232Y033681D01*
X028250Y033731D01*
X028271Y033778D01*
X028295Y033824D01*
X028324Y033868D01*
X028355Y033910D01*
X028389Y033949D01*
X028426Y033986D01*
X028466Y034019D01*
X028509Y034050D01*
X028553Y034077D01*
X028599Y034101D01*
X028648Y034121D01*
X028697Y034137D01*
X028748Y034150D01*
X028799Y034159D01*
X028851Y034164D01*
X028903Y034165D01*
X028955Y034162D01*
X029007Y034155D01*
X029058Y034144D01*
X029108Y034130D01*
X029157Y034111D01*
X029204Y034089D01*
X029249Y034064D01*
X029293Y034035D01*
X029334Y034003D01*
X029373Y033968D01*
X029408Y033930D01*
X029441Y033889D01*
X029471Y033847D01*
X029497Y033802D01*
X029520Y033755D01*
X029539Y033706D01*
X029555Y033656D01*
X029567Y033606D01*
X029575Y033554D01*
X029579Y033502D01*
X029579Y033450D01*
X029575Y033398D01*
X029567Y033346D01*
X029555Y033296D01*
X029539Y033246D01*
X029520Y033197D01*
X029497Y033150D01*
X029471Y033105D01*
X029441Y033063D01*
X029408Y033022D01*
X029373Y032984D01*
X029334Y032949D01*
X029293Y032917D01*
X029249Y032888D01*
X029204Y032863D01*
X029157Y032841D01*
X029108Y032822D01*
X029058Y032808D01*
X029007Y032797D01*
X028955Y032790D01*
X028903Y032787D01*
X028851Y032788D01*
X028799Y032793D01*
X028748Y032802D01*
X028697Y032815D01*
X028648Y032831D01*
X028599Y032851D01*
X028553Y032875D01*
X028509Y032902D01*
X028466Y032933D01*
X028426Y032966D01*
X028389Y033003D01*
X028355Y033042D01*
X028324Y033084D01*
X028295Y033128D01*
X028271Y033174D01*
X028250Y033221D01*
X028232Y033271D01*
X028219Y033321D01*
X028209Y033372D01*
X028203Y033424D01*
X028201Y033476D01*
X010091Y033476D02*
X010093Y033528D01*
X010099Y033580D01*
X010109Y033631D01*
X010122Y033681D01*
X010140Y033731D01*
X010161Y033778D01*
X010185Y033824D01*
X010214Y033868D01*
X010245Y033910D01*
X010279Y033949D01*
X010316Y033986D01*
X010356Y034019D01*
X010399Y034050D01*
X010443Y034077D01*
X010489Y034101D01*
X010538Y034121D01*
X010587Y034137D01*
X010638Y034150D01*
X010689Y034159D01*
X010741Y034164D01*
X010793Y034165D01*
X010845Y034162D01*
X010897Y034155D01*
X010948Y034144D01*
X010998Y034130D01*
X011047Y034111D01*
X011094Y034089D01*
X011139Y034064D01*
X011183Y034035D01*
X011224Y034003D01*
X011263Y033968D01*
X011298Y033930D01*
X011331Y033889D01*
X011361Y033847D01*
X011387Y033802D01*
X011410Y033755D01*
X011429Y033706D01*
X011445Y033656D01*
X011457Y033606D01*
X011465Y033554D01*
X011469Y033502D01*
X011469Y033450D01*
X011465Y033398D01*
X011457Y033346D01*
X011445Y033296D01*
X011429Y033246D01*
X011410Y033197D01*
X011387Y033150D01*
X011361Y033105D01*
X011331Y033063D01*
X011298Y033022D01*
X011263Y032984D01*
X011224Y032949D01*
X011183Y032917D01*
X011139Y032888D01*
X011094Y032863D01*
X011047Y032841D01*
X010998Y032822D01*
X010948Y032808D01*
X010897Y032797D01*
X010845Y032790D01*
X010793Y032787D01*
X010741Y032788D01*
X010689Y032793D01*
X010638Y032802D01*
X010587Y032815D01*
X010538Y032831D01*
X010489Y032851D01*
X010443Y032875D01*
X010399Y032902D01*
X010356Y032933D01*
X010316Y032966D01*
X010279Y033003D01*
X010245Y033042D01*
X010214Y033084D01*
X010185Y033128D01*
X010161Y033174D01*
X010140Y033221D01*
X010122Y033271D01*
X010109Y033321D01*
X010099Y033372D01*
X010093Y033424D01*
X010091Y033476D01*
X001036Y017792D02*
X001038Y017844D01*
X001044Y017896D01*
X001054Y017947D01*
X001067Y017997D01*
X001085Y018047D01*
X001106Y018094D01*
X001130Y018140D01*
X001159Y018184D01*
X001190Y018226D01*
X001224Y018265D01*
X001261Y018302D01*
X001301Y018335D01*
X001344Y018366D01*
X001388Y018393D01*
X001434Y018417D01*
X001483Y018437D01*
X001532Y018453D01*
X001583Y018466D01*
X001634Y018475D01*
X001686Y018480D01*
X001738Y018481D01*
X001790Y018478D01*
X001842Y018471D01*
X001893Y018460D01*
X001943Y018446D01*
X001992Y018427D01*
X002039Y018405D01*
X002084Y018380D01*
X002128Y018351D01*
X002169Y018319D01*
X002208Y018284D01*
X002243Y018246D01*
X002276Y018205D01*
X002306Y018163D01*
X002332Y018118D01*
X002355Y018071D01*
X002374Y018022D01*
X002390Y017972D01*
X002402Y017922D01*
X002410Y017870D01*
X002414Y017818D01*
X002414Y017766D01*
X002410Y017714D01*
X002402Y017662D01*
X002390Y017612D01*
X002374Y017562D01*
X002355Y017513D01*
X002332Y017466D01*
X002306Y017421D01*
X002276Y017379D01*
X002243Y017338D01*
X002208Y017300D01*
X002169Y017265D01*
X002128Y017233D01*
X002084Y017204D01*
X002039Y017179D01*
X001992Y017157D01*
X001943Y017138D01*
X001893Y017124D01*
X001842Y017113D01*
X001790Y017106D01*
X001738Y017103D01*
X001686Y017104D01*
X001634Y017109D01*
X001583Y017118D01*
X001532Y017131D01*
X001483Y017147D01*
X001434Y017167D01*
X001388Y017191D01*
X001344Y017218D01*
X001301Y017249D01*
X001261Y017282D01*
X001224Y017319D01*
X001190Y017358D01*
X001159Y017400D01*
X001130Y017444D01*
X001106Y017490D01*
X001085Y017537D01*
X001067Y017587D01*
X001054Y017637D01*
X001044Y017688D01*
X001038Y017740D01*
X001036Y017792D01*
D11*
X001725Y017792D03*
X010780Y002108D03*
X028890Y002108D03*
X037945Y017792D03*
X028890Y033476D03*
X010780Y033476D03*
D12*
X013496Y031796D03*
X014284Y031796D03*
X015071Y031796D03*
X015859Y031796D03*
X024367Y031874D03*
X025154Y031874D03*
X025941Y031874D03*
G36*
X033061Y014539D02*
X033278Y014915D01*
X034879Y013991D01*
X034662Y013615D01*
X033061Y014539D01*
G37*
G36*
X032667Y013857D02*
X032884Y014233D01*
X034485Y013309D01*
X034268Y012933D01*
X032667Y013857D01*
G37*
G36*
X032274Y013176D02*
X032491Y013552D01*
X034092Y012628D01*
X033875Y012252D01*
X032274Y013176D01*
G37*
G36*
X031880Y012494D02*
X032097Y012870D01*
X033698Y011946D01*
X033481Y011570D01*
X031880Y012494D01*
G37*
G36*
X030098Y009250D02*
X030315Y009626D01*
X031916Y008702D01*
X031699Y008326D01*
X030098Y009250D01*
G37*
G36*
X029704Y008568D02*
X029921Y008944D01*
X031522Y008020D01*
X031305Y007644D01*
X029704Y008568D01*
G37*
G36*
X029311Y007886D02*
X029528Y008262D01*
X031129Y007338D01*
X030912Y006962D01*
X029311Y007886D01*
G37*
G36*
X010406Y007964D02*
X010623Y007588D01*
X009022Y006664D01*
X008805Y007040D01*
X010406Y007964D01*
G37*
G36*
X010012Y008646D02*
X010229Y008270D01*
X008628Y007346D01*
X008411Y007722D01*
X010012Y008646D01*
G37*
G36*
X009618Y009328D02*
X009835Y008952D01*
X008234Y008028D01*
X008017Y008404D01*
X009618Y009328D01*
G37*
G36*
X009224Y010009D02*
X009441Y009633D01*
X007840Y008709D01*
X007623Y009085D01*
X009224Y010009D01*
G37*
G36*
X007306Y013175D02*
X007523Y012799D01*
X005922Y011875D01*
X005705Y012251D01*
X007306Y013175D01*
G37*
G36*
X006913Y013857D02*
X007130Y013481D01*
X005529Y012557D01*
X005312Y012933D01*
X006913Y013857D01*
G37*
G36*
X006519Y014538D02*
X006736Y014162D01*
X005135Y013238D01*
X004918Y013614D01*
X006519Y014538D01*
G37*
D13*
X012552Y033843D03*
X016804Y033843D03*
X023422Y033922D03*
X026886Y033922D03*
D14*
G36*
X036644Y013426D02*
X035451Y014114D01*
X035786Y014694D01*
X036979Y014006D01*
X036644Y013426D01*
G37*
G36*
X034518Y009744D02*
X033325Y010432D01*
X033660Y011012D01*
X034853Y010324D01*
X034518Y009744D01*
G37*
G36*
X033681Y008136D02*
X032488Y008824D01*
X032823Y009404D01*
X034016Y008716D01*
X033681Y008136D01*
G37*
G36*
X031949Y005136D02*
X030756Y005824D01*
X031091Y006404D01*
X032284Y005716D01*
X031949Y005136D01*
G37*
G36*
X007649Y005418D02*
X008842Y006106D01*
X009177Y005526D01*
X007984Y004838D01*
X007649Y005418D01*
G37*
G36*
X005523Y009100D02*
X006716Y009788D01*
X007051Y009208D01*
X005858Y008520D01*
X005523Y009100D01*
G37*
G36*
X004550Y010629D02*
X005743Y011317D01*
X006078Y010737D01*
X004885Y010049D01*
X004550Y010629D01*
G37*
G36*
X002817Y013629D02*
X004010Y014317D01*
X004345Y013737D01*
X003152Y013049D01*
X002817Y013629D01*
G37*
D15*
G36*
X012398Y013886D02*
X011789Y014941D01*
X012300Y015236D01*
X012909Y014181D01*
X012398Y013886D01*
G37*
G36*
X013343Y012249D02*
X012734Y013304D01*
X013245Y013599D01*
X013854Y012544D01*
X013343Y012249D01*
G37*
X013930Y007831D03*
X015819Y007831D03*
G36*
X026936Y013304D02*
X026327Y012249D01*
X025816Y012544D01*
X026425Y013599D01*
X026936Y013304D01*
G37*
G36*
X027881Y014941D02*
X027272Y013886D01*
X026761Y014181D01*
X027370Y015236D01*
X027881Y014941D01*
G37*
X020898Y025891D03*
X019008Y025891D03*
D16*
G36*
X017299Y020735D02*
X017550Y020986D01*
X017911Y020625D01*
X017660Y020374D01*
X017299Y020735D01*
G37*
G36*
X016798Y020234D02*
X017049Y020485D01*
X017410Y020124D01*
X017159Y019873D01*
X016798Y020234D01*
G37*
G36*
X016770Y015625D02*
X016519Y015374D01*
X016158Y015735D01*
X016409Y015986D01*
X016770Y015625D01*
G37*
G36*
X016268Y015124D02*
X016017Y014873D01*
X015656Y015234D01*
X015907Y015485D01*
X016268Y015124D01*
G37*
G36*
X018703Y012776D02*
X018452Y013027D01*
X018813Y013388D01*
X019064Y013137D01*
X018703Y012776D01*
G37*
G36*
X019204Y012275D02*
X018953Y012526D01*
X019314Y012887D01*
X019565Y012636D01*
X019204Y012275D01*
G37*
G36*
X019676Y012786D02*
X019425Y013037D01*
X019786Y013398D01*
X020037Y013147D01*
X019676Y012786D01*
G37*
G36*
X019175Y013287D02*
X018924Y013538D01*
X019285Y013899D01*
X019536Y013648D01*
X019175Y013287D01*
G37*
G36*
X022514Y015868D02*
X022765Y015617D01*
X022404Y015256D01*
X022153Y015507D01*
X022514Y015868D01*
G37*
G36*
X022876Y015728D02*
X022625Y015979D01*
X022986Y016340D01*
X023237Y016089D01*
X022876Y015728D01*
G37*
G36*
X023015Y015367D02*
X023266Y015116D01*
X022905Y014755D01*
X022654Y015006D01*
X023015Y015367D01*
G37*
G36*
X023377Y015227D02*
X023126Y015478D01*
X023487Y015839D01*
X023738Y015588D01*
X023377Y015227D01*
G37*
G36*
X023849Y015700D02*
X023598Y015951D01*
X023959Y016312D01*
X024210Y016061D01*
X023849Y015700D01*
G37*
G36*
X023348Y016201D02*
X023097Y016452D01*
X023458Y016813D01*
X023709Y016562D01*
X023348Y016201D01*
G37*
G36*
X022826Y019440D02*
X022575Y019691D01*
X022936Y020052D01*
X023187Y019801D01*
X022826Y019440D01*
G37*
G36*
X022325Y019941D02*
X022074Y020192D01*
X022435Y020553D01*
X022686Y020302D01*
X022325Y019941D01*
G37*
G36*
X023298Y019912D02*
X023047Y020163D01*
X023408Y020524D01*
X023659Y020273D01*
X023298Y019912D01*
G37*
G36*
X022797Y020413D02*
X022546Y020664D01*
X022907Y021025D01*
X023158Y020774D01*
X022797Y020413D01*
G37*
X021764Y009721D03*
X021056Y009721D03*
X019481Y009681D03*
X018772Y009681D03*
X023536Y006138D03*
X024244Y006138D03*
X024205Y004996D03*
X023496Y004996D03*
X023496Y003855D03*
X024205Y003855D03*
X025504Y007530D03*
X026213Y007530D03*
X026213Y008264D03*
X025504Y008264D03*
D17*
G36*
X018730Y013742D02*
X018173Y014299D01*
X018590Y014716D01*
X019147Y014159D01*
X018730Y013742D01*
G37*
G36*
X018062Y013074D02*
X017505Y013631D01*
X017922Y014048D01*
X018479Y013491D01*
X018062Y013074D01*
G37*
G36*
X016837Y014299D02*
X016280Y014856D01*
X016697Y015273D01*
X017254Y014716D01*
X016837Y014299D01*
G37*
G36*
X017505Y014967D02*
X016948Y015524D01*
X017365Y015941D01*
X017922Y015384D01*
X017505Y014967D01*
G37*
D18*
G36*
X016853Y012398D02*
X017173Y011844D01*
X016619Y011524D01*
X016299Y012078D01*
X016853Y012398D01*
G37*
G36*
X025997Y017907D02*
X026317Y018461D01*
X026871Y018141D01*
X026551Y017587D01*
X025997Y017907D01*
G37*
G36*
X034126Y011449D02*
X034680Y011129D01*
X034360Y010575D01*
X033806Y010895D01*
X034126Y011449D01*
G37*
G36*
X031543Y006976D02*
X032097Y006656D01*
X031777Y006102D01*
X031223Y006422D01*
X031543Y006976D01*
G37*
G36*
X034894Y023164D02*
X035448Y023484D01*
X035768Y022930D01*
X035214Y022610D01*
X034894Y023164D01*
G37*
G36*
X031197Y029567D02*
X031751Y029887D01*
X032071Y029333D01*
X031517Y029013D01*
X031197Y029567D01*
G37*
G36*
X012873Y020926D02*
X012319Y021246D01*
X012639Y021800D01*
X013193Y021480D01*
X012873Y020926D01*
G37*
G36*
X007653Y028147D02*
X007099Y028467D01*
X007419Y029021D01*
X007973Y028701D01*
X007653Y028147D01*
G37*
G36*
X003956Y021744D02*
X003402Y022064D01*
X003722Y022618D01*
X004276Y022298D01*
X003956Y021744D01*
G37*
G36*
X004615Y013068D02*
X004061Y012748D01*
X003741Y013302D01*
X004295Y013622D01*
X004615Y013068D01*
G37*
G36*
X007197Y008587D02*
X006643Y008267D01*
X006323Y008821D01*
X006877Y009141D01*
X007197Y008587D01*
G37*
D19*
X007760Y006972D03*
X008260Y006106D03*
X007260Y007838D03*
X005178Y011453D03*
X004678Y012319D03*
X008906Y015524D03*
X009406Y014658D03*
X009906Y013792D03*
X010406Y012926D03*
X010906Y012060D03*
X011406Y011193D03*
X011906Y010327D03*
X012406Y009461D03*
X016236Y012827D03*
X015736Y013693D03*
X015236Y014560D03*
X014736Y015426D03*
X014236Y016292D03*
X013736Y017158D03*
X013236Y018024D03*
X014488Y020363D03*
X014988Y021229D03*
X014122Y021729D03*
X013256Y022229D03*
X013622Y020863D03*
X010401Y019547D03*
X009901Y018681D03*
X009035Y019181D03*
X008169Y019681D03*
X007303Y020181D03*
X006437Y020681D03*
X005571Y021181D03*
X004705Y021681D03*
X005205Y022547D03*
X006071Y022047D03*
X006937Y021547D03*
X007803Y021047D03*
X008669Y020547D03*
X009535Y020047D03*
X004339Y023047D03*
X009268Y027584D03*
X010134Y027084D03*
X011000Y026584D03*
X011866Y026084D03*
X012732Y025584D03*
X013598Y025084D03*
X014098Y025950D03*
X013232Y026450D03*
X012366Y026950D03*
X011500Y027450D03*
X010634Y027950D03*
X009768Y028450D03*
X008902Y028950D03*
X008402Y028084D03*
X008036Y029450D03*
X013178Y033540D03*
X014178Y033540D03*
X015178Y033540D03*
X016453Y028391D03*
X017453Y028391D03*
X018453Y028391D03*
X019453Y028391D03*
X020453Y028391D03*
X021453Y028391D03*
X022453Y028391D03*
X023453Y028391D03*
X025572Y025950D03*
X026438Y026450D03*
X026938Y025584D03*
X026072Y025084D03*
X027804Y026084D03*
X028670Y026584D03*
X029536Y027084D03*
X029036Y027950D03*
X029902Y028450D03*
X030768Y028950D03*
X031268Y028084D03*
X030402Y027584D03*
X032134Y028584D03*
X028170Y027450D03*
X027304Y026950D03*
X023453Y023391D03*
X022453Y023391D03*
X021453Y023391D03*
X020453Y023391D03*
X019453Y023391D03*
X018453Y023391D03*
X017453Y023391D03*
X019335Y021784D03*
X020335Y021784D03*
X021335Y021784D03*
X025934Y017158D03*
X025434Y016292D03*
X024934Y015426D03*
X024434Y014560D03*
X023934Y013693D03*
X023434Y012827D03*
X022934Y011961D03*
X022335Y010705D03*
X021335Y010705D03*
X020335Y010705D03*
X019335Y010705D03*
X018335Y010705D03*
X019835Y014406D03*
X027264Y009461D03*
X027764Y010327D03*
X028264Y011193D03*
X028764Y012060D03*
X029264Y012926D03*
X029764Y013792D03*
X030264Y014658D03*
X030764Y015524D03*
X029769Y018681D03*
X029269Y019547D03*
X030135Y020047D03*
X030635Y019181D03*
X031501Y019681D03*
X032367Y020181D03*
X033233Y020681D03*
X034099Y021181D03*
X034965Y021681D03*
X035831Y022181D03*
X034465Y022547D03*
X033599Y022047D03*
X032733Y021547D03*
X031867Y021047D03*
X031001Y020547D03*
X035743Y013610D03*
X035243Y012744D03*
X034743Y011878D03*
X032660Y008271D03*
X032160Y007405D03*
X016308Y001650D03*
X015172Y001650D03*
X014011Y001650D03*
X012911Y001650D03*
X024150Y033540D03*
X025150Y033540D03*
D20*
G36*
X029577Y028472D02*
X029105Y029290D01*
X029573Y029560D01*
X030045Y028742D01*
X029577Y028472D01*
G37*
G36*
X028711Y027972D02*
X028239Y028790D01*
X028707Y029060D01*
X029179Y028242D01*
X028711Y027972D01*
G37*
G36*
X027845Y027472D02*
X027373Y028290D01*
X027841Y028560D01*
X028313Y027742D01*
X027845Y027472D01*
G37*
G36*
X026979Y026972D02*
X026507Y027790D01*
X026975Y028060D01*
X027447Y027242D01*
X026979Y026972D01*
G37*
G36*
X026113Y026472D02*
X025641Y027290D01*
X026109Y027560D01*
X026581Y026742D01*
X026113Y026472D01*
G37*
G36*
X025247Y025972D02*
X024775Y026790D01*
X025243Y027060D01*
X025715Y026242D01*
X025247Y025972D01*
G37*
G36*
X026401Y023974D02*
X025929Y024792D01*
X026397Y025062D01*
X026869Y024244D01*
X026401Y023974D01*
G37*
G36*
X027267Y024474D02*
X026795Y025292D01*
X027263Y025562D01*
X027735Y024744D01*
X027267Y024474D01*
G37*
G36*
X028133Y024974D02*
X027661Y025792D01*
X028129Y026062D01*
X028601Y025244D01*
X028133Y024974D01*
G37*
G36*
X028999Y025474D02*
X028527Y026292D01*
X028995Y026562D01*
X029467Y025744D01*
X028999Y025474D01*
G37*
G36*
X029865Y025974D02*
X029393Y026792D01*
X029861Y027062D01*
X030333Y026244D01*
X029865Y025974D01*
G37*
G36*
X030731Y026474D02*
X030259Y027292D01*
X030727Y027562D01*
X031199Y026744D01*
X030731Y026474D01*
G37*
G36*
X031597Y026974D02*
X031125Y027792D01*
X031593Y028062D01*
X032065Y027244D01*
X031597Y026974D01*
G37*
G36*
X032463Y027474D02*
X031991Y028292D01*
X032459Y028562D01*
X032931Y027744D01*
X032463Y027474D01*
G37*
G36*
X030443Y028972D02*
X029971Y029790D01*
X030439Y030060D01*
X030911Y029242D01*
X030443Y028972D01*
G37*
G36*
X031309Y029472D02*
X030837Y030290D01*
X031305Y030560D01*
X031777Y029742D01*
X031309Y029472D01*
G37*
G36*
X035006Y023069D02*
X034534Y023887D01*
X035002Y024157D01*
X035474Y023339D01*
X035006Y023069D01*
G37*
G36*
X034140Y022569D02*
X033668Y023387D01*
X034136Y023657D01*
X034608Y022839D01*
X034140Y022569D01*
G37*
G36*
X033274Y022069D02*
X032802Y022887D01*
X033270Y023157D01*
X033742Y022339D01*
X033274Y022069D01*
G37*
G36*
X032408Y021569D02*
X031936Y022387D01*
X032404Y022657D01*
X032876Y021839D01*
X032408Y021569D01*
G37*
G36*
X031542Y021069D02*
X031070Y021887D01*
X031538Y022157D01*
X032010Y021339D01*
X031542Y021069D01*
G37*
G36*
X030676Y020569D02*
X030204Y021387D01*
X030672Y021657D01*
X031144Y020839D01*
X030676Y020569D01*
G37*
G36*
X029810Y020069D02*
X029338Y020887D01*
X029806Y021157D01*
X030278Y020339D01*
X029810Y020069D01*
G37*
G36*
X028944Y019569D02*
X028472Y020387D01*
X028940Y020657D01*
X029412Y019839D01*
X028944Y019569D01*
G37*
G36*
X030098Y017571D02*
X029626Y018389D01*
X030094Y018659D01*
X030566Y017841D01*
X030098Y017571D01*
G37*
G36*
X030964Y018071D02*
X030492Y018889D01*
X030960Y019159D01*
X031432Y018341D01*
X030964Y018071D01*
G37*
G36*
X031830Y018571D02*
X031358Y019389D01*
X031826Y019659D01*
X032298Y018841D01*
X031830Y018571D01*
G37*
G36*
X032696Y019071D02*
X032224Y019889D01*
X032692Y020159D01*
X033164Y019341D01*
X032696Y019071D01*
G37*
G36*
X033562Y019571D02*
X033090Y020389D01*
X033558Y020659D01*
X034030Y019841D01*
X033562Y019571D01*
G37*
G36*
X034428Y020071D02*
X033956Y020889D01*
X034424Y021159D01*
X034896Y020341D01*
X034428Y020071D01*
G37*
G36*
X035294Y020571D02*
X034822Y021389D01*
X035290Y021659D01*
X035762Y020841D01*
X035294Y020571D01*
G37*
G36*
X036160Y021071D02*
X035688Y021889D01*
X036156Y022159D01*
X036628Y021341D01*
X036160Y021071D01*
G37*
G36*
X015785Y022069D02*
X015313Y021251D01*
X014845Y021521D01*
X015317Y022339D01*
X015785Y022069D01*
G37*
G36*
X014919Y022569D02*
X014447Y021751D01*
X013979Y022021D01*
X014451Y022839D01*
X014919Y022569D01*
G37*
G36*
X014053Y023069D02*
X013581Y022251D01*
X013113Y022521D01*
X013585Y023339D01*
X014053Y023069D01*
G37*
G36*
X013741Y024792D02*
X013269Y023974D01*
X012801Y024244D01*
X013273Y025062D01*
X013741Y024792D01*
G37*
G36*
X012875Y025292D02*
X012403Y024474D01*
X011935Y024744D01*
X012407Y025562D01*
X012875Y025292D01*
G37*
G36*
X012009Y025792D02*
X011537Y024974D01*
X011069Y025244D01*
X011541Y026062D01*
X012009Y025792D01*
G37*
G36*
X011143Y026292D02*
X010671Y025474D01*
X010203Y025744D01*
X010675Y026562D01*
X011143Y026292D01*
G37*
G36*
X013163Y027790D02*
X012691Y026972D01*
X012223Y027242D01*
X012695Y028060D01*
X013163Y027790D01*
G37*
G36*
X014029Y027290D02*
X013557Y026472D01*
X013089Y026742D01*
X013561Y027560D01*
X014029Y027290D01*
G37*
G36*
X014895Y026790D02*
X014423Y025972D01*
X013955Y026242D01*
X014427Y027060D01*
X014895Y026790D01*
G37*
G36*
X012297Y028290D02*
X011825Y027472D01*
X011357Y027742D01*
X011829Y028560D01*
X012297Y028290D01*
G37*
G36*
X011431Y028790D02*
X010959Y027972D01*
X010491Y028242D01*
X010963Y029060D01*
X011431Y028790D01*
G37*
G36*
X010565Y029290D02*
X010093Y028472D01*
X009625Y028742D01*
X010097Y029560D01*
X010565Y029290D01*
G37*
G36*
X009699Y029790D02*
X009227Y028972D01*
X008759Y029242D01*
X009231Y030060D01*
X009699Y029790D01*
G37*
G36*
X008833Y030290D02*
X008361Y029472D01*
X007893Y029742D01*
X008365Y030560D01*
X008833Y030290D01*
G37*
G36*
X007679Y028292D02*
X007207Y027474D01*
X006739Y027744D01*
X007211Y028562D01*
X007679Y028292D01*
G37*
G36*
X008545Y027792D02*
X008073Y026974D01*
X007605Y027244D01*
X008077Y028062D01*
X008545Y027792D01*
G37*
G36*
X009411Y027292D02*
X008939Y026474D01*
X008471Y026744D01*
X008943Y027562D01*
X009411Y027292D01*
G37*
G36*
X010277Y026792D02*
X009805Y025974D01*
X009337Y026244D01*
X009809Y027062D01*
X010277Y026792D01*
G37*
G36*
X006868Y022887D02*
X006396Y022069D01*
X005928Y022339D01*
X006400Y023157D01*
X006868Y022887D01*
G37*
G36*
X007734Y022387D02*
X007262Y021569D01*
X006794Y021839D01*
X007266Y022657D01*
X007734Y022387D01*
G37*
G36*
X008600Y021887D02*
X008128Y021069D01*
X007660Y021339D01*
X008132Y022157D01*
X008600Y021887D01*
G37*
G36*
X009466Y021387D02*
X008994Y020569D01*
X008526Y020839D01*
X008998Y021657D01*
X009466Y021387D01*
G37*
G36*
X010332Y020887D02*
X009860Y020069D01*
X009392Y020339D01*
X009864Y021157D01*
X010332Y020887D01*
G37*
G36*
X011198Y020387D02*
X010726Y019569D01*
X010258Y019839D01*
X010730Y020657D01*
X011198Y020387D01*
G37*
G36*
X012899Y021071D02*
X012427Y020253D01*
X011959Y020523D01*
X012431Y021341D01*
X012899Y021071D01*
G37*
G36*
X013765Y020571D02*
X013293Y019753D01*
X012825Y020023D01*
X013297Y020841D01*
X013765Y020571D01*
G37*
G36*
X014631Y020071D02*
X014159Y019253D01*
X013691Y019523D01*
X014163Y020341D01*
X014631Y020071D01*
G37*
G36*
X010044Y018389D02*
X009572Y017571D01*
X009104Y017841D01*
X009576Y018659D01*
X010044Y018389D01*
G37*
G36*
X009178Y018889D02*
X008706Y018071D01*
X008238Y018341D01*
X008710Y019159D01*
X009178Y018889D01*
G37*
G36*
X008312Y019389D02*
X007840Y018571D01*
X007372Y018841D01*
X007844Y019659D01*
X008312Y019389D01*
G37*
G36*
X007446Y019889D02*
X006974Y019071D01*
X006506Y019341D01*
X006978Y020159D01*
X007446Y019889D01*
G37*
G36*
X006580Y020389D02*
X006108Y019571D01*
X005640Y019841D01*
X006112Y020659D01*
X006580Y020389D01*
G37*
G36*
X005714Y020889D02*
X005242Y020071D01*
X004774Y020341D01*
X005246Y021159D01*
X005714Y020889D01*
G37*
G36*
X004848Y021389D02*
X004376Y020571D01*
X003908Y020841D01*
X004380Y021659D01*
X004848Y021389D01*
G37*
G36*
X003982Y021889D02*
X003510Y021071D01*
X003042Y021341D01*
X003514Y022159D01*
X003982Y021889D01*
G37*
G36*
X006002Y023387D02*
X005530Y022569D01*
X005062Y022839D01*
X005534Y023657D01*
X006002Y023387D01*
G37*
G36*
X005136Y023887D02*
X004664Y023069D01*
X004196Y023339D01*
X004668Y024157D01*
X005136Y023887D01*
G37*
D21*
X016178Y033540D03*
X026150Y033540D03*
X016453Y023391D03*
X018335Y021784D03*
X017335Y010705D03*
D22*
X023599Y002971D03*
X023599Y001471D03*
X025599Y001471D03*
X025599Y002971D03*
D23*
X020898Y005075D03*
X020189Y005075D03*
X019481Y005075D03*
X019481Y005784D03*
X020189Y005784D03*
X020898Y005784D03*
X018693Y005784D03*
X018693Y005075D03*
X017709Y007516D03*
X017709Y008225D03*
X014993Y004445D03*
X014993Y003737D03*
X010150Y004406D03*
X010150Y005115D03*
X021941Y013579D03*
X021941Y014288D03*
X022394Y008225D03*
X022394Y007516D03*
X024835Y007516D03*
X024835Y008225D03*
D24*
X020465Y003815D03*
X020150Y003815D03*
X019835Y003815D03*
X019520Y003815D03*
X019205Y003815D03*
D25*
X018063Y003815D03*
X018063Y001650D03*
X021607Y001650D03*
X021607Y003815D03*
D26*
X020701Y002831D03*
X018969Y002831D03*
D27*
X018960Y006815D03*
X018710Y006815D03*
X019210Y006815D03*
X019460Y006815D03*
X019710Y006815D03*
X019960Y006815D03*
X020210Y006815D03*
X020460Y006815D03*
X020710Y006815D03*
X020960Y006815D03*
X020960Y008925D03*
X020710Y008925D03*
X020460Y008925D03*
X020210Y008925D03*
X019960Y008925D03*
X019710Y008925D03*
X019460Y008925D03*
X019210Y008925D03*
X018960Y008925D03*
X018710Y008925D03*
D28*
X023250Y008126D03*
X023250Y007615D03*
X023979Y007870D03*
D29*
X024874Y006138D03*
X024914Y004996D03*
X024914Y003855D03*
X026095Y003855D03*
X026095Y004996D03*
X026056Y006138D03*
D30*
G36*
X020019Y015218D02*
X020189Y015388D01*
X020627Y014950D01*
X020457Y014780D01*
X020019Y015218D01*
G37*
G36*
X020238Y015437D02*
X020408Y015607D01*
X020846Y015169D01*
X020676Y014999D01*
X020238Y015437D01*
G37*
G36*
X020464Y015663D02*
X020634Y015833D01*
X021072Y015395D01*
X020902Y015225D01*
X020464Y015663D01*
G37*
G36*
X020684Y015882D02*
X020854Y016052D01*
X021292Y015614D01*
X021122Y015444D01*
X020684Y015882D01*
G37*
G36*
X020910Y016108D02*
X021080Y016278D01*
X021518Y015840D01*
X021348Y015670D01*
X020910Y016108D01*
G37*
G36*
X021129Y016328D02*
X021299Y016498D01*
X021737Y016060D01*
X021567Y015890D01*
X021129Y016328D01*
G37*
G36*
X021348Y016547D02*
X021518Y016717D01*
X021956Y016279D01*
X021786Y016109D01*
X021348Y016547D01*
G37*
G36*
X021575Y016773D02*
X021745Y016943D01*
X022183Y016505D01*
X022013Y016335D01*
X021575Y016773D01*
G37*
G36*
X021794Y016992D02*
X021964Y017162D01*
X022402Y016724D01*
X022232Y016554D01*
X021794Y016992D01*
G37*
G36*
X022020Y017219D02*
X022190Y017389D01*
X022628Y016951D01*
X022458Y016781D01*
X022020Y017219D01*
G37*
G36*
X022239Y017438D02*
X022409Y017608D01*
X022847Y017170D01*
X022677Y017000D01*
X022239Y017438D01*
G37*
G36*
X022409Y017976D02*
X022239Y018146D01*
X022677Y018584D01*
X022847Y018414D01*
X022409Y017976D01*
G37*
G36*
X022190Y018195D02*
X022020Y018365D01*
X022458Y018803D01*
X022628Y018633D01*
X022190Y018195D01*
G37*
G36*
X021964Y018421D02*
X021794Y018591D01*
X022232Y019029D01*
X022402Y018859D01*
X021964Y018421D01*
G37*
G36*
X021745Y018640D02*
X021575Y018810D01*
X022013Y019248D01*
X022183Y019078D01*
X021745Y018640D01*
G37*
G36*
X021518Y018867D02*
X021348Y019037D01*
X021786Y019475D01*
X021956Y019305D01*
X021518Y018867D01*
G37*
G36*
X021299Y019086D02*
X021129Y019256D01*
X021567Y019694D01*
X021737Y019524D01*
X021299Y019086D01*
G37*
G36*
X021080Y019305D02*
X020910Y019475D01*
X021348Y019913D01*
X021518Y019743D01*
X021080Y019305D01*
G37*
G36*
X020854Y019531D02*
X020684Y019701D01*
X021122Y020139D01*
X021292Y019969D01*
X020854Y019531D01*
G37*
G36*
X020634Y019750D02*
X020464Y019920D01*
X020902Y020358D01*
X021072Y020188D01*
X020634Y019750D01*
G37*
G36*
X020408Y019977D02*
X020238Y020147D01*
X020676Y020585D01*
X020846Y020415D01*
X020408Y019977D01*
G37*
G36*
X020189Y020196D02*
X020019Y020366D01*
X020457Y020804D01*
X020627Y020634D01*
X020189Y020196D01*
G37*
G36*
X019043Y020634D02*
X019213Y020804D01*
X019651Y020366D01*
X019481Y020196D01*
X019043Y020634D01*
G37*
G36*
X018824Y020415D02*
X018994Y020585D01*
X019432Y020147D01*
X019262Y019977D01*
X018824Y020415D01*
G37*
G36*
X018598Y020188D02*
X018768Y020358D01*
X019206Y019920D01*
X019036Y019750D01*
X018598Y020188D01*
G37*
G36*
X018378Y019969D02*
X018548Y020139D01*
X018986Y019701D01*
X018816Y019531D01*
X018378Y019969D01*
G37*
G36*
X018152Y019743D02*
X018322Y019913D01*
X018760Y019475D01*
X018590Y019305D01*
X018152Y019743D01*
G37*
G36*
X017933Y019524D02*
X018103Y019694D01*
X018541Y019256D01*
X018371Y019086D01*
X017933Y019524D01*
G37*
G36*
X017714Y019305D02*
X017884Y019475D01*
X018322Y019037D01*
X018152Y018867D01*
X017714Y019305D01*
G37*
G36*
X017487Y019078D02*
X017657Y019248D01*
X018095Y018810D01*
X017925Y018640D01*
X017487Y019078D01*
G37*
G36*
X017268Y018859D02*
X017438Y019029D01*
X017876Y018591D01*
X017706Y018421D01*
X017268Y018859D01*
G37*
G36*
X017042Y018633D02*
X017212Y018803D01*
X017650Y018365D01*
X017480Y018195D01*
X017042Y018633D01*
G37*
G36*
X016823Y018414D02*
X016993Y018584D01*
X017431Y018146D01*
X017261Y017976D01*
X016823Y018414D01*
G37*
G36*
X016993Y017000D02*
X016823Y017170D01*
X017261Y017608D01*
X017431Y017438D01*
X016993Y017000D01*
G37*
G36*
X017212Y016781D02*
X017042Y016951D01*
X017480Y017389D01*
X017650Y017219D01*
X017212Y016781D01*
G37*
G36*
X017438Y016554D02*
X017268Y016724D01*
X017706Y017162D01*
X017876Y016992D01*
X017438Y016554D01*
G37*
G36*
X017657Y016335D02*
X017487Y016505D01*
X017925Y016943D01*
X018095Y016773D01*
X017657Y016335D01*
G37*
G36*
X017884Y016109D02*
X017714Y016279D01*
X018152Y016717D01*
X018322Y016547D01*
X017884Y016109D01*
G37*
G36*
X018103Y015890D02*
X017933Y016060D01*
X018371Y016498D01*
X018541Y016328D01*
X018103Y015890D01*
G37*
G36*
X018322Y015670D02*
X018152Y015840D01*
X018590Y016278D01*
X018760Y016108D01*
X018322Y015670D01*
G37*
G36*
X018548Y015444D02*
X018378Y015614D01*
X018816Y016052D01*
X018986Y015882D01*
X018548Y015444D01*
G37*
G36*
X018768Y015225D02*
X018598Y015395D01*
X019036Y015833D01*
X019206Y015663D01*
X018768Y015225D01*
G37*
G36*
X018994Y014999D02*
X018824Y015169D01*
X019262Y015607D01*
X019432Y015437D01*
X018994Y014999D01*
G37*
G36*
X019213Y014780D02*
X019043Y014950D01*
X019481Y015388D01*
X019651Y015218D01*
X019213Y014780D01*
G37*
D31*
X016764Y017792D03*
X022945Y017792D03*
X017709Y008855D03*
X021449Y006729D03*
D32*
X011400Y006217D03*
X011400Y005307D03*
X011400Y004397D03*
D33*
X013840Y005307D03*
D34*
X020819Y032674D03*
D35*
X018851Y032674D03*
M02*
