G75*
%MOIN*%
%OFA0B0*%
%FSLAX24Y24*%
%IPPOS*%
%LPD*%
%AMOC8*
5,1,8,0,0,1.08239X$1,22.5*
%
%ADD10C,0.0000*%
%ADD11R,0.0394X0.1811*%
%ADD12R,0.0630X0.1339*%
%ADD13R,0.1339X0.0630*%
%ADD14R,0.1181X0.0551*%
%ADD15R,0.0315X0.0472*%
%ADD16R,0.0748X0.0551*%
%ADD17R,0.0906X0.0500*%
%ADD18R,0.0600X0.0300*%
%ADD19R,0.0472X0.0315*%
%ADD20R,0.0709X0.0394*%
%ADD21R,0.0197X0.0984*%
%ADD22R,0.0787X0.0984*%
%ADD23R,0.0150X0.0450*%
%ADD24R,0.0276X0.0276*%
%ADD25R,0.0472X0.0551*%
%ADD26R,0.0200X0.0580*%
D10*
X009993Y000376D02*
X000150Y017423D01*
X009993Y034471D01*
X029678Y034471D01*
X039520Y017423D01*
X029678Y000376D01*
X009993Y000376D01*
X010091Y001740D02*
X010093Y001792D01*
X010099Y001844D01*
X010109Y001895D01*
X010122Y001945D01*
X010140Y001995D01*
X010161Y002042D01*
X010185Y002088D01*
X010214Y002132D01*
X010245Y002174D01*
X010279Y002213D01*
X010316Y002250D01*
X010356Y002283D01*
X010399Y002314D01*
X010443Y002341D01*
X010489Y002365D01*
X010538Y002385D01*
X010587Y002401D01*
X010638Y002414D01*
X010689Y002423D01*
X010741Y002428D01*
X010793Y002429D01*
X010845Y002426D01*
X010897Y002419D01*
X010948Y002408D01*
X010998Y002394D01*
X011047Y002375D01*
X011094Y002353D01*
X011139Y002328D01*
X011183Y002299D01*
X011224Y002267D01*
X011263Y002232D01*
X011298Y002194D01*
X011331Y002153D01*
X011361Y002111D01*
X011387Y002066D01*
X011410Y002019D01*
X011429Y001970D01*
X011445Y001920D01*
X011457Y001870D01*
X011465Y001818D01*
X011469Y001766D01*
X011469Y001714D01*
X011465Y001662D01*
X011457Y001610D01*
X011445Y001560D01*
X011429Y001510D01*
X011410Y001461D01*
X011387Y001414D01*
X011361Y001369D01*
X011331Y001327D01*
X011298Y001286D01*
X011263Y001248D01*
X011224Y001213D01*
X011183Y001181D01*
X011139Y001152D01*
X011094Y001127D01*
X011047Y001105D01*
X010998Y001086D01*
X010948Y001072D01*
X010897Y001061D01*
X010845Y001054D01*
X010793Y001051D01*
X010741Y001052D01*
X010689Y001057D01*
X010638Y001066D01*
X010587Y001079D01*
X010538Y001095D01*
X010489Y001115D01*
X010443Y001139D01*
X010399Y001166D01*
X010356Y001197D01*
X010316Y001230D01*
X010279Y001267D01*
X010245Y001306D01*
X010214Y001348D01*
X010185Y001392D01*
X010161Y001438D01*
X010140Y001485D01*
X010122Y001535D01*
X010109Y001585D01*
X010099Y001636D01*
X010093Y001688D01*
X010091Y001740D01*
X018792Y002463D02*
X018794Y002489D01*
X018800Y002515D01*
X018810Y002540D01*
X018823Y002563D01*
X018839Y002583D01*
X018859Y002601D01*
X018881Y002616D01*
X018904Y002628D01*
X018930Y002636D01*
X018956Y002640D01*
X018982Y002640D01*
X019008Y002636D01*
X019034Y002628D01*
X019058Y002616D01*
X019079Y002601D01*
X019099Y002583D01*
X019115Y002563D01*
X019128Y002540D01*
X019138Y002515D01*
X019144Y002489D01*
X019146Y002463D01*
X019144Y002437D01*
X019138Y002411D01*
X019128Y002386D01*
X019115Y002363D01*
X019099Y002343D01*
X019079Y002325D01*
X019057Y002310D01*
X019034Y002298D01*
X019008Y002290D01*
X018982Y002286D01*
X018956Y002286D01*
X018930Y002290D01*
X018904Y002298D01*
X018880Y002310D01*
X018859Y002325D01*
X018839Y002343D01*
X018823Y002363D01*
X018810Y002386D01*
X018800Y002411D01*
X018794Y002437D01*
X018792Y002463D01*
X020524Y002463D02*
X020526Y002489D01*
X020532Y002515D01*
X020542Y002540D01*
X020555Y002563D01*
X020571Y002583D01*
X020591Y002601D01*
X020613Y002616D01*
X020636Y002628D01*
X020662Y002636D01*
X020688Y002640D01*
X020714Y002640D01*
X020740Y002636D01*
X020766Y002628D01*
X020790Y002616D01*
X020811Y002601D01*
X020831Y002583D01*
X020847Y002563D01*
X020860Y002540D01*
X020870Y002515D01*
X020876Y002489D01*
X020878Y002463D01*
X020876Y002437D01*
X020870Y002411D01*
X020860Y002386D01*
X020847Y002363D01*
X020831Y002343D01*
X020811Y002325D01*
X020789Y002310D01*
X020766Y002298D01*
X020740Y002290D01*
X020714Y002286D01*
X020688Y002286D01*
X020662Y002290D01*
X020636Y002298D01*
X020612Y002310D01*
X020591Y002325D01*
X020571Y002343D01*
X020555Y002363D01*
X020542Y002386D01*
X020532Y002411D01*
X020526Y002437D01*
X020524Y002463D01*
X028201Y001740D02*
X028203Y001792D01*
X028209Y001844D01*
X028219Y001895D01*
X028232Y001945D01*
X028250Y001995D01*
X028271Y002042D01*
X028295Y002088D01*
X028324Y002132D01*
X028355Y002174D01*
X028389Y002213D01*
X028426Y002250D01*
X028466Y002283D01*
X028509Y002314D01*
X028553Y002341D01*
X028599Y002365D01*
X028648Y002385D01*
X028697Y002401D01*
X028748Y002414D01*
X028799Y002423D01*
X028851Y002428D01*
X028903Y002429D01*
X028955Y002426D01*
X029007Y002419D01*
X029058Y002408D01*
X029108Y002394D01*
X029157Y002375D01*
X029204Y002353D01*
X029249Y002328D01*
X029293Y002299D01*
X029334Y002267D01*
X029373Y002232D01*
X029408Y002194D01*
X029441Y002153D01*
X029471Y002111D01*
X029497Y002066D01*
X029520Y002019D01*
X029539Y001970D01*
X029555Y001920D01*
X029567Y001870D01*
X029575Y001818D01*
X029579Y001766D01*
X029579Y001714D01*
X029575Y001662D01*
X029567Y001610D01*
X029555Y001560D01*
X029539Y001510D01*
X029520Y001461D01*
X029497Y001414D01*
X029471Y001369D01*
X029441Y001327D01*
X029408Y001286D01*
X029373Y001248D01*
X029334Y001213D01*
X029293Y001181D01*
X029249Y001152D01*
X029204Y001127D01*
X029157Y001105D01*
X029108Y001086D01*
X029058Y001072D01*
X029007Y001061D01*
X028955Y001054D01*
X028903Y001051D01*
X028851Y001052D01*
X028799Y001057D01*
X028748Y001066D01*
X028697Y001079D01*
X028648Y001095D01*
X028599Y001115D01*
X028553Y001139D01*
X028509Y001166D01*
X028466Y001197D01*
X028426Y001230D01*
X028389Y001267D01*
X028355Y001306D01*
X028324Y001348D01*
X028295Y001392D01*
X028271Y001438D01*
X028250Y001485D01*
X028232Y001535D01*
X028219Y001585D01*
X028209Y001636D01*
X028203Y001688D01*
X028201Y001740D01*
X037256Y017423D02*
X037258Y017475D01*
X037264Y017527D01*
X037274Y017578D01*
X037287Y017628D01*
X037305Y017678D01*
X037326Y017725D01*
X037350Y017771D01*
X037379Y017815D01*
X037410Y017857D01*
X037444Y017896D01*
X037481Y017933D01*
X037521Y017966D01*
X037564Y017997D01*
X037608Y018024D01*
X037654Y018048D01*
X037703Y018068D01*
X037752Y018084D01*
X037803Y018097D01*
X037854Y018106D01*
X037906Y018111D01*
X037958Y018112D01*
X038010Y018109D01*
X038062Y018102D01*
X038113Y018091D01*
X038163Y018077D01*
X038212Y018058D01*
X038259Y018036D01*
X038304Y018011D01*
X038348Y017982D01*
X038389Y017950D01*
X038428Y017915D01*
X038463Y017877D01*
X038496Y017836D01*
X038526Y017794D01*
X038552Y017749D01*
X038575Y017702D01*
X038594Y017653D01*
X038610Y017603D01*
X038622Y017553D01*
X038630Y017501D01*
X038634Y017449D01*
X038634Y017397D01*
X038630Y017345D01*
X038622Y017293D01*
X038610Y017243D01*
X038594Y017193D01*
X038575Y017144D01*
X038552Y017097D01*
X038526Y017052D01*
X038496Y017010D01*
X038463Y016969D01*
X038428Y016931D01*
X038389Y016896D01*
X038348Y016864D01*
X038304Y016835D01*
X038259Y016810D01*
X038212Y016788D01*
X038163Y016769D01*
X038113Y016755D01*
X038062Y016744D01*
X038010Y016737D01*
X037958Y016734D01*
X037906Y016735D01*
X037854Y016740D01*
X037803Y016749D01*
X037752Y016762D01*
X037703Y016778D01*
X037654Y016798D01*
X037608Y016822D01*
X037564Y016849D01*
X037521Y016880D01*
X037481Y016913D01*
X037444Y016950D01*
X037410Y016989D01*
X037379Y017031D01*
X037350Y017075D01*
X037326Y017121D01*
X037305Y017168D01*
X037287Y017218D01*
X037274Y017268D01*
X037264Y017319D01*
X037258Y017371D01*
X037256Y017423D01*
X028201Y033107D02*
X028203Y033159D01*
X028209Y033211D01*
X028219Y033262D01*
X028232Y033312D01*
X028250Y033362D01*
X028271Y033409D01*
X028295Y033455D01*
X028324Y033499D01*
X028355Y033541D01*
X028389Y033580D01*
X028426Y033617D01*
X028466Y033650D01*
X028509Y033681D01*
X028553Y033708D01*
X028599Y033732D01*
X028648Y033752D01*
X028697Y033768D01*
X028748Y033781D01*
X028799Y033790D01*
X028851Y033795D01*
X028903Y033796D01*
X028955Y033793D01*
X029007Y033786D01*
X029058Y033775D01*
X029108Y033761D01*
X029157Y033742D01*
X029204Y033720D01*
X029249Y033695D01*
X029293Y033666D01*
X029334Y033634D01*
X029373Y033599D01*
X029408Y033561D01*
X029441Y033520D01*
X029471Y033478D01*
X029497Y033433D01*
X029520Y033386D01*
X029539Y033337D01*
X029555Y033287D01*
X029567Y033237D01*
X029575Y033185D01*
X029579Y033133D01*
X029579Y033081D01*
X029575Y033029D01*
X029567Y032977D01*
X029555Y032927D01*
X029539Y032877D01*
X029520Y032828D01*
X029497Y032781D01*
X029471Y032736D01*
X029441Y032694D01*
X029408Y032653D01*
X029373Y032615D01*
X029334Y032580D01*
X029293Y032548D01*
X029249Y032519D01*
X029204Y032494D01*
X029157Y032472D01*
X029108Y032453D01*
X029058Y032439D01*
X029007Y032428D01*
X028955Y032421D01*
X028903Y032418D01*
X028851Y032419D01*
X028799Y032424D01*
X028748Y032433D01*
X028697Y032446D01*
X028648Y032462D01*
X028599Y032482D01*
X028553Y032506D01*
X028509Y032533D01*
X028466Y032564D01*
X028426Y032597D01*
X028389Y032634D01*
X028355Y032673D01*
X028324Y032715D01*
X028295Y032759D01*
X028271Y032805D01*
X028250Y032852D01*
X028232Y032902D01*
X028219Y032952D01*
X028209Y033003D01*
X028203Y033055D01*
X028201Y033107D01*
X010091Y033107D02*
X010093Y033159D01*
X010099Y033211D01*
X010109Y033262D01*
X010122Y033312D01*
X010140Y033362D01*
X010161Y033409D01*
X010185Y033455D01*
X010214Y033499D01*
X010245Y033541D01*
X010279Y033580D01*
X010316Y033617D01*
X010356Y033650D01*
X010399Y033681D01*
X010443Y033708D01*
X010489Y033732D01*
X010538Y033752D01*
X010587Y033768D01*
X010638Y033781D01*
X010689Y033790D01*
X010741Y033795D01*
X010793Y033796D01*
X010845Y033793D01*
X010897Y033786D01*
X010948Y033775D01*
X010998Y033761D01*
X011047Y033742D01*
X011094Y033720D01*
X011139Y033695D01*
X011183Y033666D01*
X011224Y033634D01*
X011263Y033599D01*
X011298Y033561D01*
X011331Y033520D01*
X011361Y033478D01*
X011387Y033433D01*
X011410Y033386D01*
X011429Y033337D01*
X011445Y033287D01*
X011457Y033237D01*
X011465Y033185D01*
X011469Y033133D01*
X011469Y033081D01*
X011465Y033029D01*
X011457Y032977D01*
X011445Y032927D01*
X011429Y032877D01*
X011410Y032828D01*
X011387Y032781D01*
X011361Y032736D01*
X011331Y032694D01*
X011298Y032653D01*
X011263Y032615D01*
X011224Y032580D01*
X011183Y032548D01*
X011139Y032519D01*
X011094Y032494D01*
X011047Y032472D01*
X010998Y032453D01*
X010948Y032439D01*
X010897Y032428D01*
X010845Y032421D01*
X010793Y032418D01*
X010741Y032419D01*
X010689Y032424D01*
X010638Y032433D01*
X010587Y032446D01*
X010538Y032462D01*
X010489Y032482D01*
X010443Y032506D01*
X010399Y032533D01*
X010356Y032564D01*
X010316Y032597D01*
X010279Y032634D01*
X010245Y032673D01*
X010214Y032715D01*
X010185Y032759D01*
X010161Y032805D01*
X010140Y032852D01*
X010122Y032902D01*
X010109Y032952D01*
X010099Y033003D01*
X010093Y033055D01*
X010091Y033107D01*
X001036Y017423D02*
X001038Y017475D01*
X001044Y017527D01*
X001054Y017578D01*
X001067Y017628D01*
X001085Y017678D01*
X001106Y017725D01*
X001130Y017771D01*
X001159Y017815D01*
X001190Y017857D01*
X001224Y017896D01*
X001261Y017933D01*
X001301Y017966D01*
X001344Y017997D01*
X001388Y018024D01*
X001434Y018048D01*
X001483Y018068D01*
X001532Y018084D01*
X001583Y018097D01*
X001634Y018106D01*
X001686Y018111D01*
X001738Y018112D01*
X001790Y018109D01*
X001842Y018102D01*
X001893Y018091D01*
X001943Y018077D01*
X001992Y018058D01*
X002039Y018036D01*
X002084Y018011D01*
X002128Y017982D01*
X002169Y017950D01*
X002208Y017915D01*
X002243Y017877D01*
X002276Y017836D01*
X002306Y017794D01*
X002332Y017749D01*
X002355Y017702D01*
X002374Y017653D01*
X002390Y017603D01*
X002402Y017553D01*
X002410Y017501D01*
X002414Y017449D01*
X002414Y017397D01*
X002410Y017345D01*
X002402Y017293D01*
X002390Y017243D01*
X002374Y017193D01*
X002355Y017144D01*
X002332Y017097D01*
X002306Y017052D01*
X002276Y017010D01*
X002243Y016969D01*
X002208Y016931D01*
X002169Y016896D01*
X002128Y016864D01*
X002084Y016835D01*
X002039Y016810D01*
X001992Y016788D01*
X001943Y016769D01*
X001893Y016755D01*
X001842Y016744D01*
X001790Y016737D01*
X001738Y016734D01*
X001686Y016735D01*
X001634Y016740D01*
X001583Y016749D01*
X001532Y016762D01*
X001483Y016778D01*
X001434Y016798D01*
X001388Y016822D01*
X001344Y016849D01*
X001301Y016880D01*
X001261Y016913D01*
X001224Y016950D01*
X001190Y016989D01*
X001159Y017031D01*
X001130Y017075D01*
X001106Y017121D01*
X001085Y017168D01*
X001067Y017218D01*
X001054Y017268D01*
X001044Y017319D01*
X001038Y017371D01*
X001036Y017423D01*
D11*
G36*
X006512Y014143D02*
X006709Y013801D01*
X005142Y012897D01*
X004945Y013239D01*
X006512Y014143D01*
G37*
G36*
X006906Y013461D02*
X007103Y013119D01*
X005536Y012215D01*
X005339Y012557D01*
X006906Y013461D01*
G37*
G36*
X007299Y012779D02*
X007496Y012437D01*
X005929Y011533D01*
X005732Y011875D01*
X007299Y012779D01*
G37*
G36*
X009217Y009614D02*
X009414Y009272D01*
X007847Y008368D01*
X007650Y008710D01*
X009217Y009614D01*
G37*
G36*
X009611Y008932D02*
X009808Y008590D01*
X008241Y007686D01*
X008044Y008028D01*
X009611Y008932D01*
G37*
G36*
X010005Y008250D02*
X010202Y007908D01*
X008635Y007004D01*
X008438Y007346D01*
X010005Y008250D01*
G37*
G36*
X010399Y007568D02*
X010596Y007226D01*
X009029Y006322D01*
X008832Y006664D01*
X010399Y007568D01*
G37*
G36*
X029338Y007525D02*
X029535Y007867D01*
X031102Y006963D01*
X030905Y006621D01*
X029338Y007525D01*
G37*
G36*
X029731Y008207D02*
X029928Y008549D01*
X031495Y007645D01*
X031298Y007303D01*
X029731Y008207D01*
G37*
G36*
X030125Y008888D02*
X030322Y009230D01*
X031889Y008326D01*
X031692Y007984D01*
X030125Y008888D01*
G37*
G36*
X031907Y012132D02*
X032104Y012474D01*
X033671Y011570D01*
X033474Y011228D01*
X031907Y012132D01*
G37*
G36*
X032301Y012814D02*
X032498Y013156D01*
X034065Y012252D01*
X033868Y011910D01*
X032301Y012814D01*
G37*
G36*
X032694Y013496D02*
X032891Y013838D01*
X034458Y012934D01*
X034261Y012592D01*
X032694Y013496D01*
G37*
G36*
X033088Y014178D02*
X033285Y014520D01*
X034852Y013616D01*
X034655Y013274D01*
X033088Y014178D01*
G37*
X025941Y031506D03*
X025154Y031506D03*
X024367Y031506D03*
X015859Y031427D03*
X015071Y031427D03*
X014284Y031427D03*
X013496Y031427D03*
D12*
X012552Y033475D03*
X016804Y033475D03*
X023422Y033553D03*
X026886Y033553D03*
D13*
G36*
X007677Y005043D02*
X008834Y005711D01*
X009149Y005165D01*
X007992Y004497D01*
X007677Y005043D01*
G37*
G36*
X005551Y008725D02*
X006708Y009393D01*
X007023Y008847D01*
X005866Y008179D01*
X005551Y008725D01*
G37*
G36*
X004578Y010253D02*
X005735Y010921D01*
X006050Y010375D01*
X004893Y009707D01*
X004578Y010253D01*
G37*
G36*
X002845Y013254D02*
X004002Y013922D01*
X004317Y013376D01*
X003160Y012708D01*
X002845Y013254D01*
G37*
G36*
X031941Y004795D02*
X030784Y005463D01*
X031099Y006009D01*
X032256Y005341D01*
X031941Y004795D01*
G37*
G36*
X033673Y007795D02*
X032516Y008463D01*
X032831Y009009D01*
X033988Y008341D01*
X033673Y007795D01*
G37*
G36*
X034510Y009402D02*
X033353Y010070D01*
X033668Y010616D01*
X034825Y009948D01*
X034510Y009402D01*
G37*
G36*
X036636Y013085D02*
X035479Y013753D01*
X035794Y014299D01*
X036951Y013631D01*
X036636Y013085D01*
G37*
D14*
G36*
X027854Y014566D02*
X027265Y013545D01*
X026788Y013820D01*
X027377Y014841D01*
X027854Y014566D01*
G37*
G36*
X026909Y012929D02*
X026320Y011908D01*
X025843Y012183D01*
X026432Y013204D01*
X026909Y012929D01*
G37*
X015819Y007266D03*
X013930Y007266D03*
G36*
X013350Y011908D02*
X012761Y012929D01*
X013238Y013204D01*
X013827Y012183D01*
X013350Y011908D01*
G37*
G36*
X012405Y013545D02*
X011816Y014566D01*
X012293Y014841D01*
X012882Y013820D01*
X012405Y013545D01*
G37*
X019008Y025522D03*
X020898Y025522D03*
D15*
G36*
X022797Y020074D02*
X022575Y020296D01*
X022907Y020628D01*
X023129Y020406D01*
X022797Y020074D01*
G37*
G36*
X022325Y019602D02*
X022103Y019824D01*
X022435Y020156D01*
X022657Y019934D01*
X022325Y019602D01*
G37*
G36*
X022826Y019101D02*
X022604Y019323D01*
X022936Y019655D01*
X023158Y019433D01*
X022826Y019101D01*
G37*
G36*
X023298Y019573D02*
X023076Y019795D01*
X023408Y020127D01*
X023630Y019905D01*
X023298Y019573D01*
G37*
G36*
X023348Y015862D02*
X023126Y016084D01*
X023458Y016416D01*
X023680Y016194D01*
X023348Y015862D01*
G37*
G36*
X022876Y015389D02*
X022654Y015611D01*
X022986Y015943D01*
X023208Y015721D01*
X022876Y015389D01*
G37*
G36*
X022514Y015471D02*
X022736Y015249D01*
X022404Y014917D01*
X022182Y015139D01*
X022514Y015471D01*
G37*
G36*
X023015Y014970D02*
X023237Y014748D01*
X022905Y014416D01*
X022683Y014638D01*
X023015Y014970D01*
G37*
G36*
X023377Y014888D02*
X023155Y015110D01*
X023487Y015442D01*
X023709Y015220D01*
X023377Y014888D01*
G37*
G36*
X023849Y015360D02*
X023627Y015582D01*
X023959Y015914D01*
X024181Y015692D01*
X023849Y015360D01*
G37*
G36*
X019676Y012447D02*
X019454Y012669D01*
X019786Y013001D01*
X020008Y012779D01*
X019676Y012447D01*
G37*
G36*
X019204Y011935D02*
X018982Y012157D01*
X019314Y012489D01*
X019536Y012267D01*
X019204Y011935D01*
G37*
G36*
X018703Y012436D02*
X018481Y012658D01*
X018813Y012990D01*
X019035Y012768D01*
X018703Y012436D01*
G37*
G36*
X019175Y012948D02*
X018953Y013170D01*
X019285Y013502D01*
X019507Y013280D01*
X019175Y012948D01*
G37*
G36*
X016741Y015257D02*
X016519Y015035D01*
X016187Y015367D01*
X016409Y015589D01*
X016741Y015257D01*
G37*
G36*
X016239Y014756D02*
X016017Y014534D01*
X015685Y014866D01*
X015907Y015088D01*
X016239Y014756D01*
G37*
G36*
X016827Y019866D02*
X017049Y020088D01*
X017381Y019756D01*
X017159Y019534D01*
X016827Y019866D01*
G37*
G36*
X017328Y020367D02*
X017550Y020589D01*
X017882Y020257D01*
X017660Y020035D01*
X017328Y020367D01*
G37*
X019796Y009353D03*
X020504Y009353D03*
X021056Y009353D03*
X021764Y009353D03*
X023536Y005770D03*
X024244Y005770D03*
X024205Y004628D03*
X023496Y004628D03*
X023496Y003486D03*
X024205Y003486D03*
X025504Y007161D03*
X026213Y007161D03*
X026213Y007896D03*
X025504Y007896D03*
D16*
G36*
X018730Y013403D02*
X018202Y013931D01*
X018590Y014319D01*
X019118Y013791D01*
X018730Y013403D01*
G37*
G36*
X018062Y012735D02*
X017534Y013263D01*
X017922Y013651D01*
X018450Y013123D01*
X018062Y012735D01*
G37*
G36*
X016837Y013960D02*
X016309Y014488D01*
X016697Y014876D01*
X017225Y014348D01*
X016837Y013960D01*
G37*
G36*
X017505Y014628D02*
X016977Y015156D01*
X017365Y015544D01*
X017893Y015016D01*
X017505Y014628D01*
G37*
D17*
G36*
X014604Y019695D02*
X014152Y018911D01*
X013718Y019161D01*
X014170Y019945D01*
X014604Y019695D01*
G37*
G36*
X013738Y020195D02*
X013286Y019411D01*
X012852Y019661D01*
X013304Y020445D01*
X013738Y020195D01*
G37*
G36*
X012872Y020695D02*
X012420Y019911D01*
X011986Y020161D01*
X012438Y020945D01*
X012872Y020695D01*
G37*
G36*
X014026Y022693D02*
X013574Y021909D01*
X013140Y022159D01*
X013592Y022943D01*
X014026Y022693D01*
G37*
G36*
X014892Y022193D02*
X014440Y021409D01*
X014006Y021659D01*
X014458Y022443D01*
X014892Y022193D01*
G37*
G36*
X015758Y021693D02*
X015306Y020909D01*
X014872Y021159D01*
X015324Y021943D01*
X015758Y021693D01*
G37*
G36*
X013714Y024417D02*
X013262Y023633D01*
X012828Y023883D01*
X013280Y024667D01*
X013714Y024417D01*
G37*
G36*
X012848Y024917D02*
X012396Y024133D01*
X011962Y024383D01*
X012414Y025167D01*
X012848Y024917D01*
G37*
G36*
X011982Y025417D02*
X011530Y024633D01*
X011096Y024883D01*
X011548Y025667D01*
X011982Y025417D01*
G37*
G36*
X011116Y025917D02*
X010664Y025133D01*
X010230Y025383D01*
X010682Y026167D01*
X011116Y025917D01*
G37*
G36*
X010250Y026417D02*
X009798Y025633D01*
X009364Y025883D01*
X009816Y026667D01*
X010250Y026417D01*
G37*
G36*
X009384Y026917D02*
X008932Y026133D01*
X008498Y026383D01*
X008950Y027167D01*
X009384Y026917D01*
G37*
G36*
X008518Y027417D02*
X008066Y026633D01*
X007632Y026883D01*
X008084Y027667D01*
X008518Y027417D01*
G37*
G36*
X007652Y027917D02*
X007200Y027133D01*
X006766Y027383D01*
X007218Y028167D01*
X007652Y027917D01*
G37*
G36*
X008806Y029915D02*
X008354Y029131D01*
X007920Y029381D01*
X008372Y030165D01*
X008806Y029915D01*
G37*
G36*
X009672Y029415D02*
X009220Y028631D01*
X008786Y028881D01*
X009238Y029665D01*
X009672Y029415D01*
G37*
G36*
X010538Y028915D02*
X010086Y028131D01*
X009652Y028381D01*
X010104Y029165D01*
X010538Y028915D01*
G37*
G36*
X011404Y028415D02*
X010952Y027631D01*
X010518Y027881D01*
X010970Y028665D01*
X011404Y028415D01*
G37*
G36*
X012270Y027915D02*
X011818Y027131D01*
X011384Y027381D01*
X011836Y028165D01*
X012270Y027915D01*
G37*
G36*
X013136Y027415D02*
X012684Y026631D01*
X012250Y026881D01*
X012702Y027665D01*
X013136Y027415D01*
G37*
G36*
X014002Y026915D02*
X013550Y026131D01*
X013116Y026381D01*
X013568Y027165D01*
X014002Y026915D01*
G37*
G36*
X014868Y026415D02*
X014416Y025631D01*
X013982Y025881D01*
X014434Y026665D01*
X014868Y026415D01*
G37*
G36*
X009439Y021012D02*
X008987Y020228D01*
X008553Y020478D01*
X009005Y021262D01*
X009439Y021012D01*
G37*
G36*
X010305Y020512D02*
X009853Y019728D01*
X009419Y019978D01*
X009871Y020762D01*
X010305Y020512D01*
G37*
G36*
X011171Y020012D02*
X010719Y019228D01*
X010285Y019478D01*
X010737Y020262D01*
X011171Y020012D01*
G37*
G36*
X010017Y018014D02*
X009565Y017230D01*
X009131Y017480D01*
X009583Y018264D01*
X010017Y018014D01*
G37*
G36*
X009151Y018514D02*
X008699Y017730D01*
X008265Y017980D01*
X008717Y018764D01*
X009151Y018514D01*
G37*
G36*
X008285Y019014D02*
X007833Y018230D01*
X007399Y018480D01*
X007851Y019264D01*
X008285Y019014D01*
G37*
G36*
X007419Y019514D02*
X006967Y018730D01*
X006533Y018980D01*
X006985Y019764D01*
X007419Y019514D01*
G37*
G36*
X006553Y020014D02*
X006101Y019230D01*
X005667Y019480D01*
X006119Y020264D01*
X006553Y020014D01*
G37*
G36*
X005687Y020514D02*
X005235Y019730D01*
X004801Y019980D01*
X005253Y020764D01*
X005687Y020514D01*
G37*
G36*
X004821Y021014D02*
X004369Y020230D01*
X003935Y020480D01*
X004387Y021264D01*
X004821Y021014D01*
G37*
G36*
X003955Y021514D02*
X003503Y020730D01*
X003069Y020980D01*
X003521Y021764D01*
X003955Y021514D01*
G37*
G36*
X005109Y023512D02*
X004657Y022728D01*
X004223Y022978D01*
X004675Y023762D01*
X005109Y023512D01*
G37*
G36*
X005975Y023012D02*
X005523Y022228D01*
X005089Y022478D01*
X005541Y023262D01*
X005975Y023012D01*
G37*
G36*
X006841Y022512D02*
X006389Y021728D01*
X005955Y021978D01*
X006407Y022762D01*
X006841Y022512D01*
G37*
G36*
X007707Y022012D02*
X007255Y021228D01*
X006821Y021478D01*
X007273Y022262D01*
X007707Y022012D01*
G37*
G36*
X008573Y021512D02*
X008121Y020728D01*
X007687Y020978D01*
X008139Y021762D01*
X008573Y021512D01*
G37*
G36*
X025254Y025631D02*
X024802Y026415D01*
X025236Y026665D01*
X025688Y025881D01*
X025254Y025631D01*
G37*
G36*
X026120Y026131D02*
X025668Y026915D01*
X026102Y027165D01*
X026554Y026381D01*
X026120Y026131D01*
G37*
G36*
X026986Y026631D02*
X026534Y027415D01*
X026968Y027665D01*
X027420Y026881D01*
X026986Y026631D01*
G37*
G36*
X027852Y027131D02*
X027400Y027915D01*
X027834Y028165D01*
X028286Y027381D01*
X027852Y027131D01*
G37*
G36*
X028718Y027631D02*
X028266Y028415D01*
X028700Y028665D01*
X029152Y027881D01*
X028718Y027631D01*
G37*
G36*
X029584Y028131D02*
X029132Y028915D01*
X029566Y029165D01*
X030018Y028381D01*
X029584Y028131D01*
G37*
G36*
X030450Y028631D02*
X029998Y029415D01*
X030432Y029665D01*
X030884Y028881D01*
X030450Y028631D01*
G37*
G36*
X031316Y029131D02*
X030864Y029915D01*
X031298Y030165D01*
X031750Y029381D01*
X031316Y029131D01*
G37*
G36*
X032470Y027133D02*
X032018Y027917D01*
X032452Y028167D01*
X032904Y027383D01*
X032470Y027133D01*
G37*
G36*
X031604Y026633D02*
X031152Y027417D01*
X031586Y027667D01*
X032038Y026883D01*
X031604Y026633D01*
G37*
G36*
X030738Y026133D02*
X030286Y026917D01*
X030720Y027167D01*
X031172Y026383D01*
X030738Y026133D01*
G37*
G36*
X029872Y025633D02*
X029420Y026417D01*
X029854Y026667D01*
X030306Y025883D01*
X029872Y025633D01*
G37*
G36*
X029006Y025133D02*
X028554Y025917D01*
X028988Y026167D01*
X029440Y025383D01*
X029006Y025133D01*
G37*
G36*
X028140Y024633D02*
X027688Y025417D01*
X028122Y025667D01*
X028574Y024883D01*
X028140Y024633D01*
G37*
G36*
X027274Y024133D02*
X026822Y024917D01*
X027256Y025167D01*
X027708Y024383D01*
X027274Y024133D01*
G37*
G36*
X026408Y023633D02*
X025956Y024417D01*
X026390Y024667D01*
X026842Y023883D01*
X026408Y023633D01*
G37*
G36*
X029817Y019728D02*
X029365Y020512D01*
X029799Y020762D01*
X030251Y019978D01*
X029817Y019728D01*
G37*
G36*
X028951Y019228D02*
X028499Y020012D01*
X028933Y020262D01*
X029385Y019478D01*
X028951Y019228D01*
G37*
G36*
X030105Y017230D02*
X029653Y018014D01*
X030087Y018264D01*
X030539Y017480D01*
X030105Y017230D01*
G37*
G36*
X030971Y017730D02*
X030519Y018514D01*
X030953Y018764D01*
X031405Y017980D01*
X030971Y017730D01*
G37*
G36*
X031837Y018230D02*
X031385Y019014D01*
X031819Y019264D01*
X032271Y018480D01*
X031837Y018230D01*
G37*
G36*
X032703Y018730D02*
X032251Y019514D01*
X032685Y019764D01*
X033137Y018980D01*
X032703Y018730D01*
G37*
G36*
X033569Y019230D02*
X033117Y020014D01*
X033551Y020264D01*
X034003Y019480D01*
X033569Y019230D01*
G37*
G36*
X034435Y019730D02*
X033983Y020514D01*
X034417Y020764D01*
X034869Y019980D01*
X034435Y019730D01*
G37*
G36*
X035301Y020230D02*
X034849Y021014D01*
X035283Y021264D01*
X035735Y020480D01*
X035301Y020230D01*
G37*
G36*
X036167Y020730D02*
X035715Y021514D01*
X036149Y021764D01*
X036601Y020980D01*
X036167Y020730D01*
G37*
G36*
X035013Y022728D02*
X034561Y023512D01*
X034995Y023762D01*
X035447Y022978D01*
X035013Y022728D01*
G37*
G36*
X034147Y022228D02*
X033695Y023012D01*
X034129Y023262D01*
X034581Y022478D01*
X034147Y022228D01*
G37*
G36*
X033281Y021728D02*
X032829Y022512D01*
X033263Y022762D01*
X033715Y021978D01*
X033281Y021728D01*
G37*
G36*
X032415Y021228D02*
X031963Y022012D01*
X032397Y022262D01*
X032849Y021478D01*
X032415Y021228D01*
G37*
G36*
X031549Y020728D02*
X031097Y021512D01*
X031531Y021762D01*
X031983Y020978D01*
X031549Y020728D01*
G37*
G36*
X030683Y020228D02*
X030231Y021012D01*
X030665Y021262D01*
X031117Y020478D01*
X030683Y020228D01*
G37*
D18*
X025599Y002603D03*
X025599Y001103D03*
X023599Y001103D03*
X023599Y002603D03*
D19*
X021607Y004707D03*
X021607Y005416D03*
X020898Y005416D03*
X020898Y004707D03*
X020189Y004707D03*
X019481Y004707D03*
X019481Y005416D03*
X020189Y005416D03*
X018693Y005416D03*
X018693Y004707D03*
X016764Y005061D03*
X016764Y005770D03*
X017709Y007148D03*
X017709Y007857D03*
X022394Y007857D03*
X022394Y007148D03*
X024835Y007148D03*
X024835Y007857D03*
X021941Y013211D03*
X021941Y013920D03*
D20*
X017827Y005967D03*
X017827Y004864D03*
D21*
X019205Y003447D03*
X019520Y003447D03*
X019835Y003447D03*
X020150Y003447D03*
X020465Y003447D03*
D22*
X021607Y003447D03*
X021607Y001282D03*
X018063Y001282D03*
X018063Y003447D03*
D23*
X018710Y006447D03*
X018960Y006447D03*
X019210Y006447D03*
X019460Y006447D03*
X019710Y006447D03*
X019960Y006447D03*
X020210Y006447D03*
X020460Y006447D03*
X020710Y006447D03*
X020960Y006447D03*
X020960Y008557D03*
X020710Y008557D03*
X020460Y008557D03*
X020210Y008557D03*
X019960Y008557D03*
X019710Y008557D03*
X019460Y008557D03*
X019210Y008557D03*
X018960Y008557D03*
X018710Y008557D03*
D24*
X023250Y007758D03*
X023250Y007246D03*
X023979Y007502D03*
D25*
X024874Y005770D03*
X024914Y004628D03*
X024914Y003486D03*
X026095Y003486D03*
X026095Y004628D03*
X026056Y005770D03*
D26*
G36*
X020048Y014849D02*
X020189Y014990D01*
X020598Y014581D01*
X020457Y014440D01*
X020048Y014849D01*
G37*
G36*
X020267Y015068D02*
X020408Y015209D01*
X020817Y014800D01*
X020676Y014659D01*
X020267Y015068D01*
G37*
G36*
X020493Y015295D02*
X020634Y015436D01*
X021043Y015027D01*
X020902Y014886D01*
X020493Y015295D01*
G37*
G36*
X020713Y015514D02*
X020854Y015655D01*
X021263Y015246D01*
X021122Y015105D01*
X020713Y015514D01*
G37*
G36*
X020939Y015740D02*
X021080Y015881D01*
X021489Y015472D01*
X021348Y015331D01*
X020939Y015740D01*
G37*
G36*
X021158Y015959D02*
X021299Y016100D01*
X021708Y015691D01*
X021567Y015550D01*
X021158Y015959D01*
G37*
G36*
X021377Y016179D02*
X021518Y016320D01*
X021927Y015911D01*
X021786Y015770D01*
X021377Y016179D01*
G37*
G36*
X021604Y016405D02*
X021745Y016546D01*
X022154Y016137D01*
X022013Y015996D01*
X021604Y016405D01*
G37*
G36*
X021823Y016624D02*
X021964Y016765D01*
X022373Y016356D01*
X022232Y016215D01*
X021823Y016624D01*
G37*
G36*
X022049Y016850D02*
X022190Y016991D01*
X022599Y016582D01*
X022458Y016441D01*
X022049Y016850D01*
G37*
G36*
X022268Y017070D02*
X022409Y017211D01*
X022818Y016802D01*
X022677Y016661D01*
X022268Y017070D01*
G37*
G36*
X022409Y017636D02*
X022268Y017777D01*
X022677Y018186D01*
X022818Y018045D01*
X022409Y017636D01*
G37*
G36*
X022190Y017856D02*
X022049Y017997D01*
X022458Y018406D01*
X022599Y018265D01*
X022190Y017856D01*
G37*
G36*
X021964Y018082D02*
X021823Y018223D01*
X022232Y018632D01*
X022373Y018491D01*
X021964Y018082D01*
G37*
G36*
X021745Y018301D02*
X021604Y018442D01*
X022013Y018851D01*
X022154Y018710D01*
X021745Y018301D01*
G37*
G36*
X021518Y018527D02*
X021377Y018668D01*
X021786Y019077D01*
X021927Y018936D01*
X021518Y018527D01*
G37*
G36*
X021299Y018747D02*
X021158Y018888D01*
X021567Y019297D01*
X021708Y019156D01*
X021299Y018747D01*
G37*
G36*
X021080Y018966D02*
X020939Y019107D01*
X021348Y019516D01*
X021489Y019375D01*
X021080Y018966D01*
G37*
G36*
X020854Y019192D02*
X020713Y019333D01*
X021122Y019742D01*
X021263Y019601D01*
X020854Y019192D01*
G37*
G36*
X020634Y019411D02*
X020493Y019552D01*
X020902Y019961D01*
X021043Y019820D01*
X020634Y019411D01*
G37*
G36*
X020408Y019637D02*
X020267Y019778D01*
X020676Y020187D01*
X020817Y020046D01*
X020408Y019637D01*
G37*
G36*
X020189Y019857D02*
X020048Y019998D01*
X020457Y020407D01*
X020598Y020266D01*
X020189Y019857D01*
G37*
G36*
X019072Y020266D02*
X019213Y020407D01*
X019622Y019998D01*
X019481Y019857D01*
X019072Y020266D01*
G37*
G36*
X018853Y020046D02*
X018994Y020187D01*
X019403Y019778D01*
X019262Y019637D01*
X018853Y020046D01*
G37*
G36*
X018627Y019820D02*
X018768Y019961D01*
X019177Y019552D01*
X019036Y019411D01*
X018627Y019820D01*
G37*
G36*
X018407Y019601D02*
X018548Y019742D01*
X018957Y019333D01*
X018816Y019192D01*
X018407Y019601D01*
G37*
G36*
X018181Y019375D02*
X018322Y019516D01*
X018731Y019107D01*
X018590Y018966D01*
X018181Y019375D01*
G37*
G36*
X017962Y019156D02*
X018103Y019297D01*
X018512Y018888D01*
X018371Y018747D01*
X017962Y019156D01*
G37*
G36*
X017743Y018936D02*
X017884Y019077D01*
X018293Y018668D01*
X018152Y018527D01*
X017743Y018936D01*
G37*
G36*
X017516Y018710D02*
X017657Y018851D01*
X018066Y018442D01*
X017925Y018301D01*
X017516Y018710D01*
G37*
G36*
X017297Y018491D02*
X017438Y018632D01*
X017847Y018223D01*
X017706Y018082D01*
X017297Y018491D01*
G37*
G36*
X017071Y018265D02*
X017212Y018406D01*
X017621Y017997D01*
X017480Y017856D01*
X017071Y018265D01*
G37*
G36*
X016852Y018045D02*
X016993Y018186D01*
X017402Y017777D01*
X017261Y017636D01*
X016852Y018045D01*
G37*
G36*
X016993Y016661D02*
X016852Y016802D01*
X017261Y017211D01*
X017402Y017070D01*
X016993Y016661D01*
G37*
G36*
X017212Y016441D02*
X017071Y016582D01*
X017480Y016991D01*
X017621Y016850D01*
X017212Y016441D01*
G37*
G36*
X017438Y016215D02*
X017297Y016356D01*
X017706Y016765D01*
X017847Y016624D01*
X017438Y016215D01*
G37*
G36*
X017657Y015996D02*
X017516Y016137D01*
X017925Y016546D01*
X018066Y016405D01*
X017657Y015996D01*
G37*
G36*
X017884Y015770D02*
X017743Y015911D01*
X018152Y016320D01*
X018293Y016179D01*
X017884Y015770D01*
G37*
G36*
X018103Y015550D02*
X017962Y015691D01*
X018371Y016100D01*
X018512Y015959D01*
X018103Y015550D01*
G37*
G36*
X018322Y015331D02*
X018181Y015472D01*
X018590Y015881D01*
X018731Y015740D01*
X018322Y015331D01*
G37*
G36*
X018548Y015105D02*
X018407Y015246D01*
X018816Y015655D01*
X018957Y015514D01*
X018548Y015105D01*
G37*
G36*
X018768Y014886D02*
X018627Y015027D01*
X019036Y015436D01*
X019177Y015295D01*
X018768Y014886D01*
G37*
G36*
X018994Y014659D02*
X018853Y014800D01*
X019262Y015209D01*
X019403Y015068D01*
X018994Y014659D01*
G37*
G36*
X019213Y014440D02*
X019072Y014581D01*
X019481Y014990D01*
X019622Y014849D01*
X019213Y014440D01*
G37*
M02*
