%
M48
M72
T01C0.0120
T02C0.0197
T03C0.0236
T04C0.0354
T05C0.0394
T06C0.0400
T07C0.0551
T08C0.1378
%
T01
X18693Y5430
X17827Y5784
X16607Y6807
X17709Y7004
X18221Y8776
X19710Y8429
X20741Y8225
X20426Y7477
X19960Y7194
X19953Y6256
X20898Y5430
X22709Y6138
X22867Y7870
X22394Y7870
X21260Y8925
X22237Y9721
X19796Y12556
X20426Y13461
X21922Y13933
X21882Y15784
X21179Y16886
X21252Y17398
X21764Y17398
X21252Y18304
X19363Y16768
X19323Y16256
X18733Y16689
X18496Y17162
X18063Y17674
X18693Y18933
X19599Y20902
X18890Y21059
X19323Y22319
X17512Y22595
X17985Y24091
X18969Y24012
X21843Y26532
X22433Y26532
X21843Y27398
X22433Y27674
X24008Y26374
X24284Y28185
X26607Y28579
X28063Y23579
X27906Y22949
X28181Y22398
X28634Y22623
X30071Y23067
X30131Y22090
X27197Y21926
X26882Y21217
X26764Y20863
X26961Y20272
X26449Y21611
X26056Y21886
X25583Y22083
X25426Y22477
X24323Y20941
X23969Y20548
X23496Y20981
X24717Y20548
X20071Y16374
X19796Y15705
X16843Y15823
X15426Y15626
X16489Y18737
X16213Y18933
X15977Y20075
X15622Y20744
X17040Y20823
X14599Y23185
X14126Y23855
X14914Y24130
X12867Y23185
X12591Y23855
X11528Y23540
X11646Y17792
X10937Y16138
X16252Y3540
X22906Y2556
X26095Y4406
X26095Y5587
X25504Y6886
X29166Y7359
T02
X9284Y32201
X9756Y31493
X10347Y31099
X10819Y31532
X11213Y31178
X12433Y31138
X12079Y32359
X9678Y30626
X8890Y31059
X6370Y27477
X6882Y27162
X7000Y26453
X7552Y26059
X6331Y25351
X5347Y25941
X5622Y26374
X5819Y26768
X5071Y25469
X4835Y25115
X4481Y24524
X5307Y24367
X5780Y23973
X6252Y23855
X6370Y24367
X2670Y21099
X3024Y19957
X4087Y19603
X3260Y18894
X3930Y17831
X5071Y17910
X1922Y15941
X3890Y14681
X7040Y10863
X8693Y13737
X7945Y15351
X11056Y16886
X12276Y15626
X11567Y19209
X11331Y19760
X11252Y20941
X12433Y22556
X20504Y25233
X24520Y24406
X25426Y23500
X24638Y25981
X29796Y30272
X29402Y31138
X29796Y31689
X30229Y32162
X30268Y31099
X31134Y30941
X28772Y31532
X28103Y31807
X28103Y31217
X27315Y31178
X23772Y31965
X22827Y31965
X22867Y32477
X22670Y33107
X22591Y33776
X22512Y34327
X22040Y34445
X20859Y34485
X19914Y34052
X19717Y33461
X19402Y34445
X18418Y33737
X17670Y34288
X17552Y33107
X17670Y32280
X16882Y32595
X16922Y31414
X17630Y31335
X18418Y31571
X18851Y31335
X19284Y31729
X19559Y31256
X22079Y31926
X22197Y31374
X22906Y31256
X32512Y26965
X32591Y26611
X32985Y25941
X33496Y25784
X33811Y25233
X33418Y24760
X34323Y25902
X33418Y26296
X33733Y26926
X35111Y24563
X35859Y20272
X36449Y19563
X35741Y19130
X36331Y18815
X37079Y19681
X37748Y19721
X37709Y15863
X36882Y15548
X33851Y18697
X33654Y19170
X30741Y16532
X31804Y14760
X28890Y17477
X28339Y16689
X27630Y15744
X28024Y19327
X25465Y11689
X26804Y10587
X25150Y10036
X24796Y9209
X28811Y9996
X32788Y9957
X30662Y3776
X22630Y3855
X17119Y3973
X16607Y2910
X13124Y6532
X13063Y8619
X11449Y8697
X10741Y7044
X9323Y5075
X9166Y3343
X14953Y11138
X13772Y11847
X1804Y19681
T03
X4178Y13185
X18063Y2713
X21607Y2752
X24559Y1453
X26528Y11689
X28063Y12910
T04
X20701Y2831
X18969Y2831
T05
X14166Y6807
T06
X7760Y6972
X8260Y6106
X7260Y7838
X6760Y8704
X5178Y11453
X4678Y12319
X4178Y13185
X8906Y15524
X9406Y14658
X9906Y13792
X10406Y12926
X10906Y12060
X11406Y11193
X11906Y10327
X12406Y9461
X16236Y12827
X16736Y11961
X17335Y10705
X18335Y10705
X19335Y10705
X20335Y10705
X21335Y10705
X22335Y10705
X22934Y11961
X23434Y12827
X23934Y13693
X24434Y14560
X24934Y15426
X25434Y16292
X25934Y17158
X26434Y18024
X29269Y19547
X29769Y18681
X30635Y19181
X31501Y19681
X32367Y20181
X33233Y20681
X34099Y21181
X34965Y21681
X35831Y22181
X35331Y23047
X34465Y22547
X33599Y22047
X32733Y21547
X31867Y21047
X31001Y20547
X30135Y20047
X30764Y15524
X30264Y14658
X29764Y13792
X29264Y12926
X28764Y12060
X28264Y11193
X27764Y10327
X27264Y9461
X31660Y6539
X32160Y7405
X32660Y8271
X34243Y11012
X34743Y11878
X35243Y12744
X35743Y13610
X29536Y27084
X28670Y26584
X27804Y26084
X26938Y25584
X26072Y25084
X25572Y25950
X26438Y26450
X27304Y26950
X28170Y27450
X29036Y27950
X29902Y28450
X30768Y28950
X31268Y28084
X30402Y27584
X32134Y28584
X31634Y29450
X26150Y33540
X25150Y33540
X24150Y33540
X23453Y28391
X22453Y28391
X21453Y28391
X20453Y28391
X19453Y28391
X18453Y28391
X17453Y28391
X16453Y28391
X14098Y25950
X13232Y26450
X12732Y25584
X13598Y25084
X11866Y26084
X11000Y26584
X10134Y27084
X10634Y27950
X11500Y27450
X12366Y26950
X9768Y28450
X8902Y28950
X8402Y28084
X9268Y27584
X7536Y28584
X8036Y29450
X13178Y33540
X14178Y33540
X15178Y33540
X16178Y33540
X16453Y23391
X17453Y23391
X18453Y23391
X19453Y23391
X20453Y23391
X21453Y23391
X22453Y23391
X23453Y23391
X21335Y21784
X20335Y21784
X19335Y21784
X18335Y21784
X14988Y21229
X14122Y21729
X13256Y22229
X12756Y21363
X13622Y20863
X14488Y20363
X13236Y18024
X13736Y17158
X14236Y16292
X14736Y15426
X15236Y14560
X15736Y13693
X19835Y14406
X10401Y19547
X9901Y18681
X9035Y19181
X8169Y19681
X7303Y20181
X6437Y20681
X5571Y21181
X4705Y21681
X3839Y22181
X4339Y23047
X5205Y22547
X6071Y22047
X6937Y21547
X7803Y21047
X8669Y20547
X9535Y20047
X12911Y1650
X14011Y1650
X15172Y1650
X16308Y1650
T07
X18851Y32674
X20819Y32674
T08
X37945Y17792
X28890Y2108
X10780Y2108
X1725Y17792
X10780Y33476
X28890Y33476
M30
