G75*
%MOIN*%
%OFA0B0*%
%FSLAX24Y24*%
%IPPOS*%
%LPD*%
%AMOC8*
5,1,8,0,0,1.08239X$1,22.5*
%
%ADD10C,0.0000*%
%ADD11C,0.1418*%
%ADD12R,0.0434X0.1851*%
%ADD13R,0.0670X0.1379*%
%ADD14R,0.1379X0.0670*%
%ADD15R,0.1221X0.0591*%
%ADD16R,0.0355X0.0512*%
%ADD17R,0.0788X0.0591*%
%ADD18R,0.0640X0.0640*%
%ADD19C,0.0640*%
%ADD20R,0.0946X0.0540*%
%ADD21R,0.0640X0.0640*%
%ADD22R,0.0640X0.0340*%
%ADD23R,0.0512X0.0355*%
%ADD24R,0.0749X0.0434*%
%ADD25R,0.0237X0.1024*%
%ADD26R,0.0827X0.1024*%
%ADD27C,0.0394*%
%ADD28R,0.0190X0.0490*%
%ADD29R,0.0316X0.0316*%
%ADD30R,0.0512X0.0591*%
%ADD31R,0.1103X0.1103*%
%ADD32C,0.1103*%
%ADD33R,0.0240X0.0620*%
%ADD34C,0.0434*%
D10*
X009993Y000376D02*
X000150Y017423D01*
X009993Y034471D01*
X029678Y034471D01*
X039520Y017423D01*
X029678Y000376D01*
X009993Y000376D01*
X010091Y001740D02*
X010093Y001792D01*
X010099Y001844D01*
X010109Y001895D01*
X010122Y001945D01*
X010140Y001995D01*
X010161Y002042D01*
X010185Y002088D01*
X010214Y002132D01*
X010245Y002174D01*
X010279Y002213D01*
X010316Y002250D01*
X010356Y002283D01*
X010399Y002314D01*
X010443Y002341D01*
X010489Y002365D01*
X010538Y002385D01*
X010587Y002401D01*
X010638Y002414D01*
X010689Y002423D01*
X010741Y002428D01*
X010793Y002429D01*
X010845Y002426D01*
X010897Y002419D01*
X010948Y002408D01*
X010998Y002394D01*
X011047Y002375D01*
X011094Y002353D01*
X011139Y002328D01*
X011183Y002299D01*
X011224Y002267D01*
X011263Y002232D01*
X011298Y002194D01*
X011331Y002153D01*
X011361Y002111D01*
X011387Y002066D01*
X011410Y002019D01*
X011429Y001970D01*
X011445Y001920D01*
X011457Y001870D01*
X011465Y001818D01*
X011469Y001766D01*
X011469Y001714D01*
X011465Y001662D01*
X011457Y001610D01*
X011445Y001560D01*
X011429Y001510D01*
X011410Y001461D01*
X011387Y001414D01*
X011361Y001369D01*
X011331Y001327D01*
X011298Y001286D01*
X011263Y001248D01*
X011224Y001213D01*
X011183Y001181D01*
X011139Y001152D01*
X011094Y001127D01*
X011047Y001105D01*
X010998Y001086D01*
X010948Y001072D01*
X010897Y001061D01*
X010845Y001054D01*
X010793Y001051D01*
X010741Y001052D01*
X010689Y001057D01*
X010638Y001066D01*
X010587Y001079D01*
X010538Y001095D01*
X010489Y001115D01*
X010443Y001139D01*
X010399Y001166D01*
X010356Y001197D01*
X010316Y001230D01*
X010279Y001267D01*
X010245Y001306D01*
X010214Y001348D01*
X010185Y001392D01*
X010161Y001438D01*
X010140Y001485D01*
X010122Y001535D01*
X010109Y001585D01*
X010099Y001636D01*
X010093Y001688D01*
X010091Y001740D01*
X018792Y002463D02*
X018794Y002489D01*
X018800Y002515D01*
X018810Y002540D01*
X018823Y002563D01*
X018839Y002583D01*
X018859Y002601D01*
X018881Y002616D01*
X018904Y002628D01*
X018930Y002636D01*
X018956Y002640D01*
X018982Y002640D01*
X019008Y002636D01*
X019034Y002628D01*
X019058Y002616D01*
X019079Y002601D01*
X019099Y002583D01*
X019115Y002563D01*
X019128Y002540D01*
X019138Y002515D01*
X019144Y002489D01*
X019146Y002463D01*
X019144Y002437D01*
X019138Y002411D01*
X019128Y002386D01*
X019115Y002363D01*
X019099Y002343D01*
X019079Y002325D01*
X019057Y002310D01*
X019034Y002298D01*
X019008Y002290D01*
X018982Y002286D01*
X018956Y002286D01*
X018930Y002290D01*
X018904Y002298D01*
X018880Y002310D01*
X018859Y002325D01*
X018839Y002343D01*
X018823Y002363D01*
X018810Y002386D01*
X018800Y002411D01*
X018794Y002437D01*
X018792Y002463D01*
X020524Y002463D02*
X020526Y002489D01*
X020532Y002515D01*
X020542Y002540D01*
X020555Y002563D01*
X020571Y002583D01*
X020591Y002601D01*
X020613Y002616D01*
X020636Y002628D01*
X020662Y002636D01*
X020688Y002640D01*
X020714Y002640D01*
X020740Y002636D01*
X020766Y002628D01*
X020790Y002616D01*
X020811Y002601D01*
X020831Y002583D01*
X020847Y002563D01*
X020860Y002540D01*
X020870Y002515D01*
X020876Y002489D01*
X020878Y002463D01*
X020876Y002437D01*
X020870Y002411D01*
X020860Y002386D01*
X020847Y002363D01*
X020831Y002343D01*
X020811Y002325D01*
X020789Y002310D01*
X020766Y002298D01*
X020740Y002290D01*
X020714Y002286D01*
X020688Y002286D01*
X020662Y002290D01*
X020636Y002298D01*
X020612Y002310D01*
X020591Y002325D01*
X020571Y002343D01*
X020555Y002363D01*
X020542Y002386D01*
X020532Y002411D01*
X020526Y002437D01*
X020524Y002463D01*
X028201Y001740D02*
X028203Y001792D01*
X028209Y001844D01*
X028219Y001895D01*
X028232Y001945D01*
X028250Y001995D01*
X028271Y002042D01*
X028295Y002088D01*
X028324Y002132D01*
X028355Y002174D01*
X028389Y002213D01*
X028426Y002250D01*
X028466Y002283D01*
X028509Y002314D01*
X028553Y002341D01*
X028599Y002365D01*
X028648Y002385D01*
X028697Y002401D01*
X028748Y002414D01*
X028799Y002423D01*
X028851Y002428D01*
X028903Y002429D01*
X028955Y002426D01*
X029007Y002419D01*
X029058Y002408D01*
X029108Y002394D01*
X029157Y002375D01*
X029204Y002353D01*
X029249Y002328D01*
X029293Y002299D01*
X029334Y002267D01*
X029373Y002232D01*
X029408Y002194D01*
X029441Y002153D01*
X029471Y002111D01*
X029497Y002066D01*
X029520Y002019D01*
X029539Y001970D01*
X029555Y001920D01*
X029567Y001870D01*
X029575Y001818D01*
X029579Y001766D01*
X029579Y001714D01*
X029575Y001662D01*
X029567Y001610D01*
X029555Y001560D01*
X029539Y001510D01*
X029520Y001461D01*
X029497Y001414D01*
X029471Y001369D01*
X029441Y001327D01*
X029408Y001286D01*
X029373Y001248D01*
X029334Y001213D01*
X029293Y001181D01*
X029249Y001152D01*
X029204Y001127D01*
X029157Y001105D01*
X029108Y001086D01*
X029058Y001072D01*
X029007Y001061D01*
X028955Y001054D01*
X028903Y001051D01*
X028851Y001052D01*
X028799Y001057D01*
X028748Y001066D01*
X028697Y001079D01*
X028648Y001095D01*
X028599Y001115D01*
X028553Y001139D01*
X028509Y001166D01*
X028466Y001197D01*
X028426Y001230D01*
X028389Y001267D01*
X028355Y001306D01*
X028324Y001348D01*
X028295Y001392D01*
X028271Y001438D01*
X028250Y001485D01*
X028232Y001535D01*
X028219Y001585D01*
X028209Y001636D01*
X028203Y001688D01*
X028201Y001740D01*
X037256Y017423D02*
X037258Y017475D01*
X037264Y017527D01*
X037274Y017578D01*
X037287Y017628D01*
X037305Y017678D01*
X037326Y017725D01*
X037350Y017771D01*
X037379Y017815D01*
X037410Y017857D01*
X037444Y017896D01*
X037481Y017933D01*
X037521Y017966D01*
X037564Y017997D01*
X037608Y018024D01*
X037654Y018048D01*
X037703Y018068D01*
X037752Y018084D01*
X037803Y018097D01*
X037854Y018106D01*
X037906Y018111D01*
X037958Y018112D01*
X038010Y018109D01*
X038062Y018102D01*
X038113Y018091D01*
X038163Y018077D01*
X038212Y018058D01*
X038259Y018036D01*
X038304Y018011D01*
X038348Y017982D01*
X038389Y017950D01*
X038428Y017915D01*
X038463Y017877D01*
X038496Y017836D01*
X038526Y017794D01*
X038552Y017749D01*
X038575Y017702D01*
X038594Y017653D01*
X038610Y017603D01*
X038622Y017553D01*
X038630Y017501D01*
X038634Y017449D01*
X038634Y017397D01*
X038630Y017345D01*
X038622Y017293D01*
X038610Y017243D01*
X038594Y017193D01*
X038575Y017144D01*
X038552Y017097D01*
X038526Y017052D01*
X038496Y017010D01*
X038463Y016969D01*
X038428Y016931D01*
X038389Y016896D01*
X038348Y016864D01*
X038304Y016835D01*
X038259Y016810D01*
X038212Y016788D01*
X038163Y016769D01*
X038113Y016755D01*
X038062Y016744D01*
X038010Y016737D01*
X037958Y016734D01*
X037906Y016735D01*
X037854Y016740D01*
X037803Y016749D01*
X037752Y016762D01*
X037703Y016778D01*
X037654Y016798D01*
X037608Y016822D01*
X037564Y016849D01*
X037521Y016880D01*
X037481Y016913D01*
X037444Y016950D01*
X037410Y016989D01*
X037379Y017031D01*
X037350Y017075D01*
X037326Y017121D01*
X037305Y017168D01*
X037287Y017218D01*
X037274Y017268D01*
X037264Y017319D01*
X037258Y017371D01*
X037256Y017423D01*
X028201Y033107D02*
X028203Y033159D01*
X028209Y033211D01*
X028219Y033262D01*
X028232Y033312D01*
X028250Y033362D01*
X028271Y033409D01*
X028295Y033455D01*
X028324Y033499D01*
X028355Y033541D01*
X028389Y033580D01*
X028426Y033617D01*
X028466Y033650D01*
X028509Y033681D01*
X028553Y033708D01*
X028599Y033732D01*
X028648Y033752D01*
X028697Y033768D01*
X028748Y033781D01*
X028799Y033790D01*
X028851Y033795D01*
X028903Y033796D01*
X028955Y033793D01*
X029007Y033786D01*
X029058Y033775D01*
X029108Y033761D01*
X029157Y033742D01*
X029204Y033720D01*
X029249Y033695D01*
X029293Y033666D01*
X029334Y033634D01*
X029373Y033599D01*
X029408Y033561D01*
X029441Y033520D01*
X029471Y033478D01*
X029497Y033433D01*
X029520Y033386D01*
X029539Y033337D01*
X029555Y033287D01*
X029567Y033237D01*
X029575Y033185D01*
X029579Y033133D01*
X029579Y033081D01*
X029575Y033029D01*
X029567Y032977D01*
X029555Y032927D01*
X029539Y032877D01*
X029520Y032828D01*
X029497Y032781D01*
X029471Y032736D01*
X029441Y032694D01*
X029408Y032653D01*
X029373Y032615D01*
X029334Y032580D01*
X029293Y032548D01*
X029249Y032519D01*
X029204Y032494D01*
X029157Y032472D01*
X029108Y032453D01*
X029058Y032439D01*
X029007Y032428D01*
X028955Y032421D01*
X028903Y032418D01*
X028851Y032419D01*
X028799Y032424D01*
X028748Y032433D01*
X028697Y032446D01*
X028648Y032462D01*
X028599Y032482D01*
X028553Y032506D01*
X028509Y032533D01*
X028466Y032564D01*
X028426Y032597D01*
X028389Y032634D01*
X028355Y032673D01*
X028324Y032715D01*
X028295Y032759D01*
X028271Y032805D01*
X028250Y032852D01*
X028232Y032902D01*
X028219Y032952D01*
X028209Y033003D01*
X028203Y033055D01*
X028201Y033107D01*
X010091Y033107D02*
X010093Y033159D01*
X010099Y033211D01*
X010109Y033262D01*
X010122Y033312D01*
X010140Y033362D01*
X010161Y033409D01*
X010185Y033455D01*
X010214Y033499D01*
X010245Y033541D01*
X010279Y033580D01*
X010316Y033617D01*
X010356Y033650D01*
X010399Y033681D01*
X010443Y033708D01*
X010489Y033732D01*
X010538Y033752D01*
X010587Y033768D01*
X010638Y033781D01*
X010689Y033790D01*
X010741Y033795D01*
X010793Y033796D01*
X010845Y033793D01*
X010897Y033786D01*
X010948Y033775D01*
X010998Y033761D01*
X011047Y033742D01*
X011094Y033720D01*
X011139Y033695D01*
X011183Y033666D01*
X011224Y033634D01*
X011263Y033599D01*
X011298Y033561D01*
X011331Y033520D01*
X011361Y033478D01*
X011387Y033433D01*
X011410Y033386D01*
X011429Y033337D01*
X011445Y033287D01*
X011457Y033237D01*
X011465Y033185D01*
X011469Y033133D01*
X011469Y033081D01*
X011465Y033029D01*
X011457Y032977D01*
X011445Y032927D01*
X011429Y032877D01*
X011410Y032828D01*
X011387Y032781D01*
X011361Y032736D01*
X011331Y032694D01*
X011298Y032653D01*
X011263Y032615D01*
X011224Y032580D01*
X011183Y032548D01*
X011139Y032519D01*
X011094Y032494D01*
X011047Y032472D01*
X010998Y032453D01*
X010948Y032439D01*
X010897Y032428D01*
X010845Y032421D01*
X010793Y032418D01*
X010741Y032419D01*
X010689Y032424D01*
X010638Y032433D01*
X010587Y032446D01*
X010538Y032462D01*
X010489Y032482D01*
X010443Y032506D01*
X010399Y032533D01*
X010356Y032564D01*
X010316Y032597D01*
X010279Y032634D01*
X010245Y032673D01*
X010214Y032715D01*
X010185Y032759D01*
X010161Y032805D01*
X010140Y032852D01*
X010122Y032902D01*
X010109Y032952D01*
X010099Y033003D01*
X010093Y033055D01*
X010091Y033107D01*
X001036Y017423D02*
X001038Y017475D01*
X001044Y017527D01*
X001054Y017578D01*
X001067Y017628D01*
X001085Y017678D01*
X001106Y017725D01*
X001130Y017771D01*
X001159Y017815D01*
X001190Y017857D01*
X001224Y017896D01*
X001261Y017933D01*
X001301Y017966D01*
X001344Y017997D01*
X001388Y018024D01*
X001434Y018048D01*
X001483Y018068D01*
X001532Y018084D01*
X001583Y018097D01*
X001634Y018106D01*
X001686Y018111D01*
X001738Y018112D01*
X001790Y018109D01*
X001842Y018102D01*
X001893Y018091D01*
X001943Y018077D01*
X001992Y018058D01*
X002039Y018036D01*
X002084Y018011D01*
X002128Y017982D01*
X002169Y017950D01*
X002208Y017915D01*
X002243Y017877D01*
X002276Y017836D01*
X002306Y017794D01*
X002332Y017749D01*
X002355Y017702D01*
X002374Y017653D01*
X002390Y017603D01*
X002402Y017553D01*
X002410Y017501D01*
X002414Y017449D01*
X002414Y017397D01*
X002410Y017345D01*
X002402Y017293D01*
X002390Y017243D01*
X002374Y017193D01*
X002355Y017144D01*
X002332Y017097D01*
X002306Y017052D01*
X002276Y017010D01*
X002243Y016969D01*
X002208Y016931D01*
X002169Y016896D01*
X002128Y016864D01*
X002084Y016835D01*
X002039Y016810D01*
X001992Y016788D01*
X001943Y016769D01*
X001893Y016755D01*
X001842Y016744D01*
X001790Y016737D01*
X001738Y016734D01*
X001686Y016735D01*
X001634Y016740D01*
X001583Y016749D01*
X001532Y016762D01*
X001483Y016778D01*
X001434Y016798D01*
X001388Y016822D01*
X001344Y016849D01*
X001301Y016880D01*
X001261Y016913D01*
X001224Y016950D01*
X001190Y016989D01*
X001159Y017031D01*
X001130Y017075D01*
X001106Y017121D01*
X001085Y017168D01*
X001067Y017218D01*
X001054Y017268D01*
X001044Y017319D01*
X001038Y017371D01*
X001036Y017423D01*
D11*
X001725Y017423D03*
X010780Y001740D03*
X028890Y001740D03*
X037945Y017423D03*
X028890Y033107D03*
X010780Y033107D03*
D12*
X013496Y031427D03*
X014284Y031427D03*
X015071Y031427D03*
X015859Y031427D03*
X024367Y031506D03*
X025154Y031506D03*
X025941Y031506D03*
G36*
X033061Y014171D02*
X033278Y014547D01*
X034879Y013623D01*
X034662Y013247D01*
X033061Y014171D01*
G37*
G36*
X032667Y013489D02*
X032884Y013865D01*
X034485Y012941D01*
X034268Y012565D01*
X032667Y013489D01*
G37*
G36*
X032274Y012807D02*
X032491Y013183D01*
X034092Y012259D01*
X033875Y011883D01*
X032274Y012807D01*
G37*
G36*
X031880Y012125D02*
X032097Y012501D01*
X033698Y011577D01*
X033481Y011201D01*
X031880Y012125D01*
G37*
G36*
X030098Y008881D02*
X030315Y009257D01*
X031916Y008333D01*
X031699Y007957D01*
X030098Y008881D01*
G37*
G36*
X029704Y008200D02*
X029921Y008576D01*
X031522Y007652D01*
X031305Y007276D01*
X029704Y008200D01*
G37*
G36*
X029311Y007518D02*
X029528Y007894D01*
X031129Y006970D01*
X030912Y006594D01*
X029311Y007518D01*
G37*
G36*
X010406Y007595D02*
X010623Y007219D01*
X009022Y006295D01*
X008805Y006671D01*
X010406Y007595D01*
G37*
G36*
X010012Y008277D02*
X010229Y007901D01*
X008628Y006977D01*
X008411Y007353D01*
X010012Y008277D01*
G37*
G36*
X009618Y008959D02*
X009835Y008583D01*
X008234Y007659D01*
X008017Y008035D01*
X009618Y008959D01*
G37*
G36*
X009224Y009641D02*
X009441Y009265D01*
X007840Y008341D01*
X007623Y008717D01*
X009224Y009641D01*
G37*
G36*
X007306Y012806D02*
X007523Y012430D01*
X005922Y011506D01*
X005705Y011882D01*
X007306Y012806D01*
G37*
G36*
X006913Y013488D02*
X007130Y013112D01*
X005529Y012188D01*
X005312Y012564D01*
X006913Y013488D01*
G37*
G36*
X006519Y014170D02*
X006736Y013794D01*
X005135Y012870D01*
X004918Y013246D01*
X006519Y014170D01*
G37*
D13*
X012552Y033475D03*
X016804Y033475D03*
X023422Y033553D03*
X026886Y033553D03*
D14*
G36*
X036644Y013058D02*
X035451Y013746D01*
X035786Y014326D01*
X036979Y013638D01*
X036644Y013058D01*
G37*
G36*
X034518Y009375D02*
X033325Y010063D01*
X033660Y010643D01*
X034853Y009955D01*
X034518Y009375D01*
G37*
G36*
X033681Y007768D02*
X032488Y008456D01*
X032823Y009036D01*
X034016Y008348D01*
X033681Y007768D01*
G37*
G36*
X031949Y004768D02*
X030756Y005456D01*
X031091Y006036D01*
X032284Y005348D01*
X031949Y004768D01*
G37*
G36*
X007649Y005050D02*
X008842Y005738D01*
X009177Y005158D01*
X007984Y004470D01*
X007649Y005050D01*
G37*
G36*
X005523Y008732D02*
X006716Y009420D01*
X007051Y008840D01*
X005858Y008152D01*
X005523Y008732D01*
G37*
G36*
X004550Y010260D02*
X005743Y010948D01*
X006078Y010368D01*
X004885Y009680D01*
X004550Y010260D01*
G37*
G36*
X002817Y013261D02*
X004010Y013949D01*
X004345Y013369D01*
X003152Y012681D01*
X002817Y013261D01*
G37*
D15*
G36*
X012398Y013518D02*
X011789Y014573D01*
X012300Y014868D01*
X012909Y013813D01*
X012398Y013518D01*
G37*
G36*
X013343Y011881D02*
X012734Y012936D01*
X013245Y013231D01*
X013854Y012176D01*
X013343Y011881D01*
G37*
X013930Y007266D03*
X015819Y007266D03*
G36*
X026936Y012936D02*
X026327Y011881D01*
X025816Y012176D01*
X026425Y013231D01*
X026936Y012936D01*
G37*
G36*
X027881Y014573D02*
X027272Y013518D01*
X026761Y013813D01*
X027370Y014868D01*
X027881Y014573D01*
G37*
X020898Y025522D03*
X019008Y025522D03*
D16*
G36*
X017299Y020367D02*
X017550Y020618D01*
X017911Y020257D01*
X017660Y020006D01*
X017299Y020367D01*
G37*
G36*
X016798Y019866D02*
X017049Y020117D01*
X017410Y019756D01*
X017159Y019505D01*
X016798Y019866D01*
G37*
G36*
X016770Y015257D02*
X016519Y015006D01*
X016158Y015367D01*
X016409Y015618D01*
X016770Y015257D01*
G37*
G36*
X016268Y014756D02*
X016017Y014505D01*
X015656Y014866D01*
X015907Y015117D01*
X016268Y014756D01*
G37*
G36*
X018703Y012407D02*
X018452Y012658D01*
X018813Y013019D01*
X019064Y012768D01*
X018703Y012407D01*
G37*
G36*
X019204Y011906D02*
X018953Y012157D01*
X019314Y012518D01*
X019565Y012267D01*
X019204Y011906D01*
G37*
G36*
X019676Y012418D02*
X019425Y012669D01*
X019786Y013030D01*
X020037Y012779D01*
X019676Y012418D01*
G37*
G36*
X019175Y012919D02*
X018924Y013170D01*
X019285Y013531D01*
X019536Y013280D01*
X019175Y012919D01*
G37*
G36*
X022514Y015500D02*
X022765Y015249D01*
X022404Y014888D01*
X022153Y015139D01*
X022514Y015500D01*
G37*
G36*
X022876Y015360D02*
X022625Y015611D01*
X022986Y015972D01*
X023237Y015721D01*
X022876Y015360D01*
G37*
G36*
X023377Y014859D02*
X023126Y015110D01*
X023487Y015471D01*
X023738Y015220D01*
X023377Y014859D01*
G37*
G36*
X023015Y014999D02*
X023266Y014748D01*
X022905Y014387D01*
X022654Y014638D01*
X023015Y014999D01*
G37*
G36*
X023849Y015331D02*
X023598Y015582D01*
X023959Y015943D01*
X024210Y015692D01*
X023849Y015331D01*
G37*
G36*
X023348Y015833D02*
X023097Y016084D01*
X023458Y016445D01*
X023709Y016194D01*
X023348Y015833D01*
G37*
G36*
X022826Y019072D02*
X022575Y019323D01*
X022936Y019684D01*
X023187Y019433D01*
X022826Y019072D01*
G37*
G36*
X022325Y019573D02*
X022074Y019824D01*
X022435Y020185D01*
X022686Y019934D01*
X022325Y019573D01*
G37*
G36*
X022797Y020045D02*
X022546Y020296D01*
X022907Y020657D01*
X023158Y020406D01*
X022797Y020045D01*
G37*
G36*
X023298Y019544D02*
X023047Y019795D01*
X023408Y020156D01*
X023659Y019905D01*
X023298Y019544D01*
G37*
X021764Y009353D03*
X021056Y009353D03*
X020504Y009353D03*
X019796Y009353D03*
X023536Y005770D03*
X024244Y005770D03*
X024205Y004628D03*
X023496Y004628D03*
X023496Y003486D03*
X024205Y003486D03*
X025504Y007161D03*
X026213Y007161D03*
X026213Y007896D03*
X025504Y007896D03*
D17*
G36*
X018730Y013374D02*
X018173Y013931D01*
X018590Y014348D01*
X019147Y013791D01*
X018730Y013374D01*
G37*
G36*
X018062Y012706D02*
X017505Y013263D01*
X017922Y013680D01*
X018479Y013123D01*
X018062Y012706D01*
G37*
G36*
X016837Y013931D02*
X016280Y014488D01*
X016697Y014905D01*
X017254Y014348D01*
X016837Y013931D01*
G37*
G36*
X017505Y014599D02*
X016948Y015156D01*
X017365Y015573D01*
X017922Y015016D01*
X017505Y014599D01*
G37*
D18*
G36*
X016853Y012030D02*
X017173Y011476D01*
X016619Y011156D01*
X016299Y011710D01*
X016853Y012030D01*
G37*
G36*
X012873Y020557D02*
X012319Y020877D01*
X012639Y021431D01*
X013193Y021111D01*
X012873Y020557D01*
G37*
G36*
X007653Y027779D02*
X007099Y028099D01*
X007419Y028653D01*
X007973Y028333D01*
X007653Y027779D01*
G37*
G36*
X003956Y021376D02*
X003402Y021696D01*
X003722Y022250D01*
X004276Y021930D01*
X003956Y021376D01*
G37*
G36*
X004615Y012700D02*
X004061Y012380D01*
X003741Y012934D01*
X004295Y013254D01*
X004615Y012700D01*
G37*
G36*
X007197Y008219D02*
X006643Y007899D01*
X006323Y008453D01*
X006877Y008773D01*
X007197Y008219D01*
G37*
G36*
X025997Y017538D02*
X026317Y018092D01*
X026871Y017772D01*
X026551Y017218D01*
X025997Y017538D01*
G37*
G36*
X034126Y011081D02*
X034680Y010761D01*
X034360Y010207D01*
X033806Y010527D01*
X034126Y011081D01*
G37*
G36*
X031543Y006608D02*
X032097Y006288D01*
X031777Y005734D01*
X031223Y006054D01*
X031543Y006608D01*
G37*
G36*
X034894Y022796D02*
X035448Y023116D01*
X035768Y022562D01*
X035214Y022242D01*
X034894Y022796D01*
G37*
G36*
X031197Y029199D02*
X031751Y029519D01*
X032071Y028965D01*
X031517Y028645D01*
X031197Y029199D01*
G37*
D19*
X007760Y006604D03*
X008260Y005738D03*
X007260Y007470D03*
X005178Y011085D03*
X004678Y011951D03*
X008906Y015155D03*
X009406Y014289D03*
X009906Y013423D03*
X010406Y012557D03*
X010906Y011691D03*
X011406Y010825D03*
X011906Y009959D03*
X012406Y009093D03*
X016236Y012459D03*
X015736Y013325D03*
X015236Y014191D03*
X014736Y015057D03*
X014236Y015923D03*
X013736Y016789D03*
X013236Y017655D03*
X014488Y019994D03*
X013622Y020494D03*
X014122Y021360D03*
X014988Y020860D03*
X013256Y021860D03*
X010401Y019179D03*
X009535Y019679D03*
X009035Y018813D03*
X008169Y019313D03*
X007303Y019813D03*
X006437Y020313D03*
X005571Y020813D03*
X006071Y021679D03*
X005205Y022179D03*
X004705Y021313D03*
X004339Y022679D03*
X006937Y021179D03*
X007803Y020679D03*
X008669Y020179D03*
X009901Y018313D03*
X013598Y024716D03*
X012732Y025216D03*
X013232Y026082D03*
X014098Y025582D03*
X012366Y026582D03*
X011866Y025716D03*
X011000Y026216D03*
X011500Y027082D03*
X010634Y027582D03*
X010134Y026716D03*
X009268Y027216D03*
X009768Y028082D03*
X008902Y028582D03*
X008036Y029082D03*
X008402Y027716D03*
X013178Y033171D03*
X014178Y033171D03*
X015178Y033171D03*
X016453Y028022D03*
X017453Y028022D03*
X018453Y028022D03*
X019453Y028022D03*
X020453Y028022D03*
X021453Y028022D03*
X022453Y028022D03*
X023453Y028022D03*
X025572Y025582D03*
X026072Y024716D03*
X026938Y025216D03*
X026438Y026082D03*
X027304Y026582D03*
X028170Y027082D03*
X028670Y026216D03*
X027804Y025716D03*
X029536Y026716D03*
X029036Y027582D03*
X029902Y028082D03*
X030402Y027216D03*
X031268Y027716D03*
X032134Y028216D03*
X030768Y028582D03*
X025150Y033171D03*
X024150Y033171D03*
X023453Y023022D03*
X022453Y023022D03*
X021453Y023022D03*
X020453Y023022D03*
X019453Y023022D03*
X018453Y023022D03*
X017453Y023022D03*
X019335Y021416D03*
X020335Y021416D03*
X021335Y021416D03*
X025934Y016789D03*
X025434Y015923D03*
X024934Y015057D03*
X024434Y014191D03*
X023934Y013325D03*
X023434Y012459D03*
X022934Y011593D03*
X021335Y010337D03*
X020335Y010337D03*
X019335Y010337D03*
X018335Y010337D03*
X017335Y010337D03*
X019835Y014038D03*
X027264Y009093D03*
X027764Y009959D03*
X028264Y010825D03*
X028764Y011691D03*
X029264Y012557D03*
X029764Y013423D03*
X030264Y014289D03*
X030764Y015155D03*
X029769Y018313D03*
X030635Y018813D03*
X031501Y019313D03*
X032367Y019813D03*
X031867Y020679D03*
X032733Y021179D03*
X033599Y021679D03*
X034465Y022179D03*
X034965Y021313D03*
X035831Y021813D03*
X034099Y020813D03*
X033233Y020313D03*
X031001Y020179D03*
X030135Y019679D03*
X029269Y019179D03*
X035743Y013242D03*
X035243Y012376D03*
X034743Y011510D03*
X032660Y007903D03*
X032160Y007037D03*
X013811Y005061D03*
X013811Y004038D03*
X013772Y003014D03*
X013772Y001990D03*
D20*
G36*
X010044Y018021D02*
X009572Y017203D01*
X009104Y017473D01*
X009576Y018291D01*
X010044Y018021D01*
G37*
G36*
X009178Y018521D02*
X008706Y017703D01*
X008238Y017973D01*
X008710Y018791D01*
X009178Y018521D01*
G37*
G36*
X008312Y019021D02*
X007840Y018203D01*
X007372Y018473D01*
X007844Y019291D01*
X008312Y019021D01*
G37*
G36*
X007446Y019521D02*
X006974Y018703D01*
X006506Y018973D01*
X006978Y019791D01*
X007446Y019521D01*
G37*
G36*
X006580Y020021D02*
X006108Y019203D01*
X005640Y019473D01*
X006112Y020291D01*
X006580Y020021D01*
G37*
G36*
X005714Y020521D02*
X005242Y019703D01*
X004774Y019973D01*
X005246Y020791D01*
X005714Y020521D01*
G37*
G36*
X004848Y021021D02*
X004376Y020203D01*
X003908Y020473D01*
X004380Y021291D01*
X004848Y021021D01*
G37*
G36*
X003982Y021521D02*
X003510Y020703D01*
X003042Y020973D01*
X003514Y021791D01*
X003982Y021521D01*
G37*
G36*
X006002Y023019D02*
X005530Y022201D01*
X005062Y022471D01*
X005534Y023289D01*
X006002Y023019D01*
G37*
G36*
X006868Y022519D02*
X006396Y021701D01*
X005928Y021971D01*
X006400Y022789D01*
X006868Y022519D01*
G37*
G36*
X007734Y022019D02*
X007262Y021201D01*
X006794Y021471D01*
X007266Y022289D01*
X007734Y022019D01*
G37*
G36*
X008600Y021519D02*
X008128Y020701D01*
X007660Y020971D01*
X008132Y021789D01*
X008600Y021519D01*
G37*
G36*
X009466Y021019D02*
X008994Y020201D01*
X008526Y020471D01*
X008998Y021289D01*
X009466Y021019D01*
G37*
G36*
X010332Y020519D02*
X009860Y019701D01*
X009392Y019971D01*
X009864Y020789D01*
X010332Y020519D01*
G37*
G36*
X011198Y020019D02*
X010726Y019201D01*
X010258Y019471D01*
X010730Y020289D01*
X011198Y020019D01*
G37*
G36*
X012899Y020702D02*
X012427Y019884D01*
X011959Y020154D01*
X012431Y020972D01*
X012899Y020702D01*
G37*
G36*
X013765Y020202D02*
X013293Y019384D01*
X012825Y019654D01*
X013297Y020472D01*
X013765Y020202D01*
G37*
G36*
X014631Y019702D02*
X014159Y018884D01*
X013691Y019154D01*
X014163Y019972D01*
X014631Y019702D01*
G37*
G36*
X015785Y021700D02*
X015313Y020882D01*
X014845Y021152D01*
X015317Y021970D01*
X015785Y021700D01*
G37*
G36*
X014919Y022200D02*
X014447Y021382D01*
X013979Y021652D01*
X014451Y022470D01*
X014919Y022200D01*
G37*
G36*
X014053Y022700D02*
X013581Y021882D01*
X013113Y022152D01*
X013585Y022970D01*
X014053Y022700D01*
G37*
G36*
X013741Y024424D02*
X013269Y023606D01*
X012801Y023876D01*
X013273Y024694D01*
X013741Y024424D01*
G37*
G36*
X012875Y024924D02*
X012403Y024106D01*
X011935Y024376D01*
X012407Y025194D01*
X012875Y024924D01*
G37*
G36*
X012009Y025424D02*
X011537Y024606D01*
X011069Y024876D01*
X011541Y025694D01*
X012009Y025424D01*
G37*
G36*
X011143Y025924D02*
X010671Y025106D01*
X010203Y025376D01*
X010675Y026194D01*
X011143Y025924D01*
G37*
G36*
X013163Y027422D02*
X012691Y026604D01*
X012223Y026874D01*
X012695Y027692D01*
X013163Y027422D01*
G37*
G36*
X014029Y026922D02*
X013557Y026104D01*
X013089Y026374D01*
X013561Y027192D01*
X014029Y026922D01*
G37*
G36*
X014895Y026422D02*
X014423Y025604D01*
X013955Y025874D01*
X014427Y026692D01*
X014895Y026422D01*
G37*
G36*
X012297Y027922D02*
X011825Y027104D01*
X011357Y027374D01*
X011829Y028192D01*
X012297Y027922D01*
G37*
G36*
X011431Y028422D02*
X010959Y027604D01*
X010491Y027874D01*
X010963Y028692D01*
X011431Y028422D01*
G37*
G36*
X010565Y028922D02*
X010093Y028104D01*
X009625Y028374D01*
X010097Y029192D01*
X010565Y028922D01*
G37*
G36*
X009699Y029422D02*
X009227Y028604D01*
X008759Y028874D01*
X009231Y029692D01*
X009699Y029422D01*
G37*
G36*
X008833Y029922D02*
X008361Y029104D01*
X007893Y029374D01*
X008365Y030192D01*
X008833Y029922D01*
G37*
G36*
X007679Y027924D02*
X007207Y027106D01*
X006739Y027376D01*
X007211Y028194D01*
X007679Y027924D01*
G37*
G36*
X008545Y027424D02*
X008073Y026606D01*
X007605Y026876D01*
X008077Y027694D01*
X008545Y027424D01*
G37*
G36*
X009411Y026924D02*
X008939Y026106D01*
X008471Y026376D01*
X008943Y027194D01*
X009411Y026924D01*
G37*
G36*
X010277Y026424D02*
X009805Y025606D01*
X009337Y025876D01*
X009809Y026694D01*
X010277Y026424D01*
G37*
G36*
X005136Y023519D02*
X004664Y022701D01*
X004196Y022971D01*
X004668Y023789D01*
X005136Y023519D01*
G37*
G36*
X025247Y025604D02*
X024775Y026422D01*
X025243Y026692D01*
X025715Y025874D01*
X025247Y025604D01*
G37*
G36*
X026113Y026104D02*
X025641Y026922D01*
X026109Y027192D01*
X026581Y026374D01*
X026113Y026104D01*
G37*
G36*
X026979Y026604D02*
X026507Y027422D01*
X026975Y027692D01*
X027447Y026874D01*
X026979Y026604D01*
G37*
G36*
X027845Y027104D02*
X027373Y027922D01*
X027841Y028192D01*
X028313Y027374D01*
X027845Y027104D01*
G37*
G36*
X028711Y027604D02*
X028239Y028422D01*
X028707Y028692D01*
X029179Y027874D01*
X028711Y027604D01*
G37*
G36*
X029577Y028104D02*
X029105Y028922D01*
X029573Y029192D01*
X030045Y028374D01*
X029577Y028104D01*
G37*
G36*
X030443Y028604D02*
X029971Y029422D01*
X030439Y029692D01*
X030911Y028874D01*
X030443Y028604D01*
G37*
G36*
X031309Y029104D02*
X030837Y029922D01*
X031305Y030192D01*
X031777Y029374D01*
X031309Y029104D01*
G37*
G36*
X032463Y027106D02*
X031991Y027924D01*
X032459Y028194D01*
X032931Y027376D01*
X032463Y027106D01*
G37*
G36*
X031597Y026606D02*
X031125Y027424D01*
X031593Y027694D01*
X032065Y026876D01*
X031597Y026606D01*
G37*
G36*
X030731Y026106D02*
X030259Y026924D01*
X030727Y027194D01*
X031199Y026376D01*
X030731Y026106D01*
G37*
G36*
X029865Y025606D02*
X029393Y026424D01*
X029861Y026694D01*
X030333Y025876D01*
X029865Y025606D01*
G37*
G36*
X028999Y025106D02*
X028527Y025924D01*
X028995Y026194D01*
X029467Y025376D01*
X028999Y025106D01*
G37*
G36*
X028133Y024606D02*
X027661Y025424D01*
X028129Y025694D01*
X028601Y024876D01*
X028133Y024606D01*
G37*
G36*
X027267Y024106D02*
X026795Y024924D01*
X027263Y025194D01*
X027735Y024376D01*
X027267Y024106D01*
G37*
G36*
X026401Y023606D02*
X025929Y024424D01*
X026397Y024694D01*
X026869Y023876D01*
X026401Y023606D01*
G37*
G36*
X029810Y019701D02*
X029338Y020519D01*
X029806Y020789D01*
X030278Y019971D01*
X029810Y019701D01*
G37*
G36*
X028944Y019201D02*
X028472Y020019D01*
X028940Y020289D01*
X029412Y019471D01*
X028944Y019201D01*
G37*
G36*
X030098Y017203D02*
X029626Y018021D01*
X030094Y018291D01*
X030566Y017473D01*
X030098Y017203D01*
G37*
G36*
X030964Y017703D02*
X030492Y018521D01*
X030960Y018791D01*
X031432Y017973D01*
X030964Y017703D01*
G37*
G36*
X031830Y018203D02*
X031358Y019021D01*
X031826Y019291D01*
X032298Y018473D01*
X031830Y018203D01*
G37*
G36*
X032696Y018703D02*
X032224Y019521D01*
X032692Y019791D01*
X033164Y018973D01*
X032696Y018703D01*
G37*
G36*
X033562Y019203D02*
X033090Y020021D01*
X033558Y020291D01*
X034030Y019473D01*
X033562Y019203D01*
G37*
G36*
X034428Y019703D02*
X033956Y020521D01*
X034424Y020791D01*
X034896Y019973D01*
X034428Y019703D01*
G37*
G36*
X035294Y020203D02*
X034822Y021021D01*
X035290Y021291D01*
X035762Y020473D01*
X035294Y020203D01*
G37*
G36*
X036160Y020703D02*
X035688Y021521D01*
X036156Y021791D01*
X036628Y020973D01*
X036160Y020703D01*
G37*
G36*
X035006Y022701D02*
X034534Y023519D01*
X035002Y023789D01*
X035474Y022971D01*
X035006Y022701D01*
G37*
G36*
X034140Y022201D02*
X033668Y023019D01*
X034136Y023289D01*
X034608Y022471D01*
X034140Y022201D01*
G37*
G36*
X033274Y021701D02*
X032802Y022519D01*
X033270Y022789D01*
X033742Y021971D01*
X033274Y021701D01*
G37*
G36*
X032408Y021201D02*
X031936Y022019D01*
X032404Y022289D01*
X032876Y021471D01*
X032408Y021201D01*
G37*
G36*
X031542Y020701D02*
X031070Y021519D01*
X031538Y021789D01*
X032010Y020971D01*
X031542Y020701D01*
G37*
G36*
X030676Y020201D02*
X030204Y021019D01*
X030672Y021289D01*
X031144Y020471D01*
X030676Y020201D01*
G37*
D21*
X022335Y010337D03*
X018335Y021416D03*
X016453Y023022D03*
X016178Y033171D03*
X026150Y033171D03*
D22*
X025599Y002603D03*
X025599Y001103D03*
X023599Y001103D03*
X023599Y002603D03*
D23*
X021607Y004707D03*
X021607Y005416D03*
X020898Y005416D03*
X020898Y004707D03*
X020189Y004707D03*
X019481Y004707D03*
X019481Y005416D03*
X020189Y005416D03*
X018693Y005416D03*
X018693Y004707D03*
X016764Y005061D03*
X016764Y005770D03*
X017709Y007148D03*
X017709Y007857D03*
X022394Y007857D03*
X022394Y007148D03*
X024835Y007148D03*
X024835Y007857D03*
X021941Y013211D03*
X021941Y013920D03*
D24*
X017827Y005967D03*
X017827Y004864D03*
D25*
X019205Y003447D03*
X019520Y003447D03*
X019835Y003447D03*
X020150Y003447D03*
X020465Y003447D03*
D26*
X021607Y003447D03*
X021607Y001282D03*
X018063Y001282D03*
X018063Y003447D03*
D27*
X018969Y002463D03*
X020701Y002463D03*
D28*
X020710Y006447D03*
X020460Y006447D03*
X020210Y006447D03*
X019960Y006447D03*
X019710Y006447D03*
X019460Y006447D03*
X019210Y006447D03*
X018960Y006447D03*
X018710Y006447D03*
X018710Y008557D03*
X018960Y008557D03*
X019210Y008557D03*
X019460Y008557D03*
X019710Y008557D03*
X019960Y008557D03*
X020210Y008557D03*
X020460Y008557D03*
X020710Y008557D03*
X020960Y008557D03*
X020960Y006447D03*
D29*
X023250Y007246D03*
X023250Y007758D03*
X023979Y007502D03*
D30*
X024874Y005770D03*
X024914Y004628D03*
X024914Y003486D03*
X026095Y003486D03*
X026095Y004628D03*
X026056Y005770D03*
D31*
X021685Y031203D03*
D32*
X020032Y031203D03*
X018378Y031203D03*
X018378Y033368D03*
X020032Y033368D03*
X021685Y033368D03*
D33*
G36*
X020189Y019828D02*
X020019Y019998D01*
X020457Y020436D01*
X020627Y020266D01*
X020189Y019828D01*
G37*
G36*
X020408Y019608D02*
X020238Y019778D01*
X020676Y020216D01*
X020846Y020046D01*
X020408Y019608D01*
G37*
G36*
X020634Y019382D02*
X020464Y019552D01*
X020902Y019990D01*
X021072Y019820D01*
X020634Y019382D01*
G37*
G36*
X020854Y019163D02*
X020684Y019333D01*
X021122Y019771D01*
X021292Y019601D01*
X020854Y019163D01*
G37*
G36*
X021080Y018937D02*
X020910Y019107D01*
X021348Y019545D01*
X021518Y019375D01*
X021080Y018937D01*
G37*
G36*
X021299Y018718D02*
X021129Y018888D01*
X021567Y019326D01*
X021737Y019156D01*
X021299Y018718D01*
G37*
G36*
X021518Y018498D02*
X021348Y018668D01*
X021786Y019106D01*
X021956Y018936D01*
X021518Y018498D01*
G37*
G36*
X021745Y018272D02*
X021575Y018442D01*
X022013Y018880D01*
X022183Y018710D01*
X021745Y018272D01*
G37*
G36*
X021964Y018053D02*
X021794Y018223D01*
X022232Y018661D01*
X022402Y018491D01*
X021964Y018053D01*
G37*
G36*
X022190Y017827D02*
X022020Y017997D01*
X022458Y018435D01*
X022628Y018265D01*
X022190Y017827D01*
G37*
G36*
X022409Y017607D02*
X022239Y017777D01*
X022677Y018215D01*
X022847Y018045D01*
X022409Y017607D01*
G37*
G36*
X022239Y017070D02*
X022409Y017240D01*
X022847Y016802D01*
X022677Y016632D01*
X022239Y017070D01*
G37*
G36*
X022020Y016850D02*
X022190Y017020D01*
X022628Y016582D01*
X022458Y016412D01*
X022020Y016850D01*
G37*
G36*
X021794Y016624D02*
X021964Y016794D01*
X022402Y016356D01*
X022232Y016186D01*
X021794Y016624D01*
G37*
G36*
X021575Y016405D02*
X021745Y016575D01*
X022183Y016137D01*
X022013Y015967D01*
X021575Y016405D01*
G37*
G36*
X021348Y016179D02*
X021518Y016349D01*
X021956Y015911D01*
X021786Y015741D01*
X021348Y016179D01*
G37*
G36*
X021129Y015959D02*
X021299Y016129D01*
X021737Y015691D01*
X021567Y015521D01*
X021129Y015959D01*
G37*
G36*
X020910Y015740D02*
X021080Y015910D01*
X021518Y015472D01*
X021348Y015302D01*
X020910Y015740D01*
G37*
G36*
X020684Y015514D02*
X020854Y015684D01*
X021292Y015246D01*
X021122Y015076D01*
X020684Y015514D01*
G37*
G36*
X020464Y015295D02*
X020634Y015465D01*
X021072Y015027D01*
X020902Y014857D01*
X020464Y015295D01*
G37*
G36*
X020238Y015068D02*
X020408Y015238D01*
X020846Y014800D01*
X020676Y014630D01*
X020238Y015068D01*
G37*
G36*
X020019Y014849D02*
X020189Y015019D01*
X020627Y014581D01*
X020457Y014411D01*
X020019Y014849D01*
G37*
G36*
X019213Y014411D02*
X019043Y014581D01*
X019481Y015019D01*
X019651Y014849D01*
X019213Y014411D01*
G37*
G36*
X018994Y014630D02*
X018824Y014800D01*
X019262Y015238D01*
X019432Y015068D01*
X018994Y014630D01*
G37*
G36*
X018768Y014857D02*
X018598Y015027D01*
X019036Y015465D01*
X019206Y015295D01*
X018768Y014857D01*
G37*
G36*
X018548Y015076D02*
X018378Y015246D01*
X018816Y015684D01*
X018986Y015514D01*
X018548Y015076D01*
G37*
G36*
X018322Y015302D02*
X018152Y015472D01*
X018590Y015910D01*
X018760Y015740D01*
X018322Y015302D01*
G37*
G36*
X018103Y015521D02*
X017933Y015691D01*
X018371Y016129D01*
X018541Y015959D01*
X018103Y015521D01*
G37*
G36*
X017884Y015741D02*
X017714Y015911D01*
X018152Y016349D01*
X018322Y016179D01*
X017884Y015741D01*
G37*
G36*
X017657Y015967D02*
X017487Y016137D01*
X017925Y016575D01*
X018095Y016405D01*
X017657Y015967D01*
G37*
G36*
X017438Y016186D02*
X017268Y016356D01*
X017706Y016794D01*
X017876Y016624D01*
X017438Y016186D01*
G37*
G36*
X017212Y016412D02*
X017042Y016582D01*
X017480Y017020D01*
X017650Y016850D01*
X017212Y016412D01*
G37*
G36*
X016993Y016632D02*
X016823Y016802D01*
X017261Y017240D01*
X017431Y017070D01*
X016993Y016632D01*
G37*
G36*
X016823Y018045D02*
X016993Y018215D01*
X017431Y017777D01*
X017261Y017607D01*
X016823Y018045D01*
G37*
G36*
X017042Y018265D02*
X017212Y018435D01*
X017650Y017997D01*
X017480Y017827D01*
X017042Y018265D01*
G37*
G36*
X017268Y018491D02*
X017438Y018661D01*
X017876Y018223D01*
X017706Y018053D01*
X017268Y018491D01*
G37*
G36*
X017487Y018710D02*
X017657Y018880D01*
X018095Y018442D01*
X017925Y018272D01*
X017487Y018710D01*
G37*
G36*
X017714Y018936D02*
X017884Y019106D01*
X018322Y018668D01*
X018152Y018498D01*
X017714Y018936D01*
G37*
G36*
X017933Y019156D02*
X018103Y019326D01*
X018541Y018888D01*
X018371Y018718D01*
X017933Y019156D01*
G37*
G36*
X018152Y019375D02*
X018322Y019545D01*
X018760Y019107D01*
X018590Y018937D01*
X018152Y019375D01*
G37*
G36*
X018378Y019601D02*
X018548Y019771D01*
X018986Y019333D01*
X018816Y019163D01*
X018378Y019601D01*
G37*
G36*
X018598Y019820D02*
X018768Y019990D01*
X019206Y019552D01*
X019036Y019382D01*
X018598Y019820D01*
G37*
G36*
X018824Y020046D02*
X018994Y020216D01*
X019432Y019778D01*
X019262Y019608D01*
X018824Y020046D01*
G37*
G36*
X019043Y020266D02*
X019213Y020436D01*
X019651Y019998D01*
X019481Y019828D01*
X019043Y020266D01*
G37*
D34*
X016764Y017423D03*
X022945Y017423D03*
X017709Y008486D03*
X021449Y006360D03*
M02*
