G75*
%MOIN*%
%OFA0B0*%
%FSLAX24Y24*%
%IPPOS*%
%LPD*%
%AMOC8*
5,1,8,0,0,1.08239X$1,22.5*
%
%ADD10R,0.0472X0.0472*%
%ADD11C,0.0472*%
%ADD12R,0.0551X0.0433*%
%ADD13C,0.0660*%
%ADD14R,0.1000X0.0500*%
%ADD15C,0.0120*%
%ADD16C,0.0160*%
D10*
X009560Y001147D03*
X009560Y001973D03*
X006860Y003960D03*
D11*
X006860Y002960D03*
X009860Y002960D03*
X009860Y003960D03*
D12*
X011360Y001954D03*
X011360Y001166D03*
X007260Y001166D03*
X007260Y001954D03*
X004460Y001954D03*
X004460Y001166D03*
D13*
X000860Y001560D03*
X000860Y002560D03*
X000860Y003560D03*
D14*
X002160Y003560D03*
X002160Y002560D03*
X002160Y001560D03*
D15*
X000320Y000420D02*
X000320Y005396D01*
X013670Y005396D01*
X013670Y000420D01*
X000320Y000420D01*
X000320Y000486D02*
X013670Y000486D01*
X013670Y000604D02*
X000320Y000604D01*
X000320Y000723D02*
X013670Y000723D01*
X013670Y000841D02*
X011697Y000841D01*
X011685Y000830D02*
X011756Y000900D01*
X011756Y001433D01*
X011685Y001503D01*
X011035Y001503D01*
X010964Y001433D01*
X010964Y001347D01*
X009916Y001347D01*
X009916Y001433D01*
X009846Y001503D01*
X009274Y001503D01*
X009204Y001433D01*
X009204Y000861D01*
X009274Y000790D01*
X009846Y000790D01*
X009916Y000861D01*
X009916Y000947D01*
X010964Y000947D01*
X010964Y000900D01*
X011035Y000830D01*
X011685Y000830D01*
X011756Y000960D02*
X013670Y000960D01*
X013670Y001079D02*
X011756Y001079D01*
X011756Y001197D02*
X013670Y001197D01*
X013670Y001316D02*
X011756Y001316D01*
X011754Y001434D02*
X013670Y001434D01*
X013670Y001553D02*
X002780Y001553D01*
X002780Y001671D02*
X004081Y001671D01*
X004064Y001687D02*
X004064Y001754D01*
X003483Y001754D01*
X002877Y002360D01*
X002780Y002360D01*
X002780Y002260D01*
X002710Y002190D01*
X001610Y002190D01*
X001540Y002260D01*
X001540Y002360D01*
X001264Y002360D01*
X001241Y002305D01*
X001115Y002179D01*
X000950Y002110D01*
X000770Y002110D01*
X000605Y002179D01*
X000479Y002305D01*
X000410Y002470D01*
X000410Y002650D01*
X000479Y002815D01*
X000605Y002941D01*
X000770Y003010D01*
X000950Y003010D01*
X001115Y002941D01*
X001241Y002815D01*
X001264Y002760D01*
X001540Y002760D01*
X001540Y002860D01*
X001610Y002930D01*
X002710Y002930D01*
X002780Y002860D01*
X002780Y002760D01*
X003043Y002760D01*
X003160Y002643D01*
X003649Y002154D01*
X004064Y002154D01*
X004064Y002220D01*
X004135Y002290D01*
X004785Y002290D01*
X004856Y002220D01*
X004856Y002154D01*
X005371Y002154D01*
X005860Y002643D01*
X005860Y004643D01*
X005960Y004743D01*
X006077Y004860D01*
X007843Y004860D01*
X009543Y003160D01*
X009557Y003160D01*
X009558Y003162D01*
X009658Y003262D01*
X009789Y003316D01*
X009931Y003316D01*
X010062Y003262D01*
X010162Y003162D01*
X010163Y003160D01*
X010743Y003160D01*
X010860Y003043D01*
X011560Y002343D01*
X011560Y002290D01*
X011685Y002290D01*
X011756Y002220D01*
X011756Y001687D01*
X011685Y001617D01*
X011035Y001617D01*
X010964Y001687D01*
X010964Y002220D01*
X011035Y002290D01*
X011047Y002290D01*
X010577Y002760D01*
X010163Y002760D01*
X010162Y002758D01*
X010062Y002658D01*
X009931Y002604D01*
X009789Y002604D01*
X009658Y002658D01*
X009558Y002758D01*
X009557Y002760D01*
X009377Y002760D01*
X009260Y002877D01*
X007677Y004460D01*
X006260Y004460D01*
X006260Y002477D01*
X006143Y002360D01*
X005537Y001754D01*
X004856Y001754D01*
X004856Y001687D01*
X004785Y001617D01*
X004135Y001617D01*
X004064Y001687D01*
X004123Y001532D02*
X004086Y001511D01*
X004056Y001481D01*
X004035Y001445D01*
X004024Y001404D01*
X004024Y001215D01*
X004412Y001215D01*
X004412Y001543D01*
X004163Y001543D01*
X004123Y001532D01*
X004032Y001434D02*
X002780Y001434D01*
X002780Y001316D02*
X004024Y001316D01*
X004412Y001316D02*
X004508Y001316D01*
X004508Y001215D02*
X004412Y001215D01*
X004412Y001118D01*
X004508Y001118D01*
X004508Y000790D01*
X004757Y000790D01*
X004797Y000801D01*
X004834Y000822D01*
X004864Y000852D01*
X004885Y000888D01*
X004896Y000929D01*
X004896Y001118D01*
X004508Y001118D01*
X004508Y001215D01*
X004508Y001543D01*
X004757Y001543D01*
X004797Y001532D01*
X004834Y001511D01*
X004864Y001481D01*
X004885Y001445D01*
X004896Y001404D01*
X004896Y001215D01*
X004508Y001215D01*
X004508Y001197D02*
X007212Y001197D01*
X007212Y001215D02*
X007212Y001118D01*
X007308Y001118D01*
X007308Y000790D01*
X007557Y000790D01*
X007597Y000801D01*
X007634Y000822D01*
X007664Y000852D01*
X007685Y000888D01*
X007696Y000929D01*
X007696Y001118D01*
X007308Y001118D01*
X007308Y001215D01*
X007212Y001215D01*
X007212Y001543D01*
X006963Y001543D01*
X006923Y001532D01*
X006886Y001511D01*
X006856Y001481D01*
X006835Y001445D01*
X006824Y001404D01*
X006824Y001215D01*
X007212Y001215D01*
X007308Y001215D02*
X007308Y001543D01*
X007557Y001543D01*
X007597Y001532D01*
X007634Y001511D01*
X007664Y001481D01*
X007685Y001445D01*
X007696Y001404D01*
X007696Y001215D01*
X007308Y001215D01*
X007308Y001197D02*
X009204Y001197D01*
X009204Y001079D02*
X007696Y001079D01*
X007696Y000960D02*
X009204Y000960D01*
X009223Y000841D02*
X007654Y000841D01*
X007308Y000841D02*
X007212Y000841D01*
X007212Y000790D02*
X007212Y001118D01*
X006824Y001118D01*
X006824Y000929D01*
X006835Y000888D01*
X006856Y000852D01*
X006886Y000822D01*
X006923Y000801D01*
X006963Y000790D01*
X007212Y000790D01*
X007212Y000960D02*
X007308Y000960D01*
X007308Y001079D02*
X007212Y001079D01*
X006824Y001079D02*
X004896Y001079D01*
X004896Y000960D02*
X006824Y000960D01*
X006866Y000841D02*
X004854Y000841D01*
X004508Y000841D02*
X004412Y000841D01*
X004412Y000790D02*
X004412Y001118D01*
X004024Y001118D01*
X004024Y000929D01*
X004035Y000888D01*
X004056Y000852D01*
X004086Y000822D01*
X004123Y000801D01*
X004163Y000790D01*
X004412Y000790D01*
X004066Y000841D02*
X000320Y000841D01*
X000320Y000960D02*
X004024Y000960D01*
X004024Y001079D02*
X000320Y001079D01*
X000320Y001197D02*
X000587Y001197D01*
X000605Y001179D02*
X000770Y001110D01*
X000950Y001110D01*
X001115Y001179D01*
X001241Y001305D01*
X001264Y001360D01*
X001540Y001360D01*
X001540Y001260D01*
X001610Y001190D01*
X002710Y001190D01*
X002780Y001260D01*
X002780Y001860D01*
X002710Y001930D01*
X001610Y001930D01*
X001540Y001860D01*
X001540Y001760D01*
X001264Y001760D01*
X001241Y001815D01*
X001115Y001941D01*
X000950Y002010D01*
X000770Y002010D01*
X000605Y001941D01*
X000479Y001815D01*
X000410Y001650D01*
X000410Y001470D01*
X000479Y001305D01*
X000605Y001179D01*
X000474Y001316D02*
X000320Y001316D01*
X000320Y001434D02*
X000425Y001434D01*
X000410Y001553D02*
X000320Y001553D01*
X000320Y001671D02*
X000419Y001671D01*
X000468Y001790D02*
X000320Y001790D01*
X000320Y001908D02*
X000572Y001908D01*
X000320Y002027D02*
X003211Y002027D01*
X003092Y002145D02*
X001034Y002145D01*
X001200Y002264D02*
X001540Y002264D01*
X001588Y001908D02*
X001148Y001908D01*
X001252Y001790D02*
X001540Y001790D01*
X000686Y002145D02*
X000320Y002145D01*
X000320Y002264D02*
X000520Y002264D01*
X000447Y002382D02*
X000320Y002382D01*
X000320Y002501D02*
X000410Y002501D01*
X000410Y002619D02*
X000320Y002619D01*
X000320Y002738D02*
X000446Y002738D01*
X000520Y002856D02*
X000320Y002856D01*
X000320Y002975D02*
X000685Y002975D01*
X000745Y003082D02*
X000820Y003070D01*
X000820Y003520D01*
X000900Y003520D01*
X000900Y003600D01*
X001350Y003600D01*
X001338Y003675D01*
X001314Y003748D01*
X001279Y003817D01*
X001234Y003879D01*
X001179Y003934D01*
X001117Y003979D01*
X001048Y004014D01*
X000975Y004038D01*
X000900Y004050D01*
X000900Y003600D01*
X000820Y003600D01*
X000820Y004050D01*
X000745Y004038D01*
X000672Y004014D01*
X000603Y003979D01*
X000541Y003934D01*
X000486Y003879D01*
X000441Y003817D01*
X000406Y003748D01*
X000382Y003675D01*
X000370Y003600D01*
X000820Y003600D01*
X000820Y003520D01*
X000370Y003520D01*
X000382Y003445D01*
X000406Y003372D01*
X000441Y003303D01*
X000486Y003241D01*
X000541Y003186D01*
X000603Y003141D01*
X000672Y003106D01*
X000745Y003082D01*
X000712Y003093D02*
X000320Y003093D01*
X000320Y003212D02*
X000516Y003212D01*
X000427Y003330D02*
X000320Y003330D01*
X000320Y003449D02*
X000382Y003449D01*
X000320Y003567D02*
X000820Y003567D01*
X000900Y003567D02*
X002100Y003567D01*
X002100Y003620D02*
X002100Y003500D01*
X002220Y003500D01*
X002220Y003620D01*
X002100Y003620D01*
X002100Y003970D01*
X001639Y003970D01*
X001598Y003959D01*
X001562Y003938D01*
X001532Y003908D01*
X001511Y003872D01*
X001500Y003831D01*
X001500Y003620D01*
X002100Y003620D01*
X002100Y003686D02*
X002220Y003686D01*
X002220Y003620D02*
X002220Y003970D01*
X002681Y003970D01*
X002722Y003959D01*
X002758Y003938D01*
X002788Y003908D01*
X002809Y003872D01*
X002820Y003831D01*
X002820Y003620D01*
X002220Y003620D01*
X002220Y003567D02*
X003800Y003567D01*
X003800Y003621D02*
X003800Y003299D01*
X003924Y003001D01*
X004151Y002774D01*
X004449Y002650D01*
X004771Y002650D01*
X005069Y002774D01*
X005296Y003001D01*
X005420Y003299D01*
X005420Y003621D01*
X005296Y003919D01*
X005069Y004146D01*
X004771Y004270D01*
X004449Y004270D01*
X004151Y004146D01*
X003924Y003919D01*
X003800Y003621D01*
X003827Y003686D02*
X002820Y003686D01*
X002820Y003804D02*
X003876Y003804D01*
X003928Y003923D02*
X002774Y003923D01*
X002220Y003923D02*
X002100Y003923D01*
X002100Y003804D02*
X002220Y003804D01*
X001546Y003923D02*
X001190Y003923D01*
X001286Y003804D02*
X001500Y003804D01*
X001500Y003686D02*
X001334Y003686D01*
X001350Y003520D02*
X000900Y003520D01*
X000900Y003070D01*
X000975Y003082D01*
X001048Y003106D01*
X001117Y003141D01*
X001179Y003186D01*
X001234Y003241D01*
X001279Y003303D01*
X001314Y003372D01*
X001338Y003445D01*
X001350Y003520D01*
X001338Y003449D02*
X001500Y003449D01*
X001500Y003500D02*
X001500Y003289D01*
X001511Y003248D01*
X001532Y003212D01*
X001562Y003182D01*
X001598Y003161D01*
X001639Y003150D01*
X002100Y003150D01*
X002100Y003500D01*
X001500Y003500D01*
X001500Y003330D02*
X001293Y003330D01*
X001204Y003212D02*
X001532Y003212D01*
X001008Y003093D02*
X003886Y003093D01*
X003837Y003212D02*
X002788Y003212D01*
X002809Y003248D01*
X002820Y003289D01*
X002820Y003500D01*
X002220Y003500D01*
X002220Y003150D01*
X002681Y003150D01*
X002722Y003161D01*
X002758Y003182D01*
X002788Y003212D01*
X002820Y003330D02*
X003800Y003330D01*
X003800Y003449D02*
X002820Y003449D01*
X002220Y003449D02*
X002100Y003449D01*
X002100Y003330D02*
X002220Y003330D01*
X002220Y003212D02*
X002100Y003212D01*
X001540Y002856D02*
X001200Y002856D01*
X001035Y002975D02*
X003951Y002975D01*
X004069Y002856D02*
X002780Y002856D01*
X003065Y002738D02*
X004239Y002738D01*
X004981Y002738D02*
X005860Y002738D01*
X005860Y002856D02*
X005151Y002856D01*
X005269Y002975D02*
X005860Y002975D01*
X005860Y003093D02*
X005334Y003093D01*
X005383Y003212D02*
X005860Y003212D01*
X005860Y003330D02*
X005420Y003330D01*
X005420Y003449D02*
X005860Y003449D01*
X005860Y003567D02*
X005420Y003567D01*
X005393Y003686D02*
X005860Y003686D01*
X005860Y003804D02*
X005344Y003804D01*
X005292Y003923D02*
X005860Y003923D01*
X005860Y004041D02*
X005174Y004041D01*
X005037Y004160D02*
X005860Y004160D01*
X005860Y004278D02*
X000320Y004278D01*
X000320Y004160D02*
X004183Y004160D01*
X004046Y004041D02*
X000955Y004041D01*
X000900Y004041D02*
X000820Y004041D01*
X000765Y004041D02*
X000320Y004041D01*
X000320Y003923D02*
X000530Y003923D01*
X000434Y003804D02*
X000320Y003804D01*
X000320Y003686D02*
X000386Y003686D01*
X000820Y003686D02*
X000900Y003686D01*
X000900Y003804D02*
X000820Y003804D01*
X000820Y003923D02*
X000900Y003923D01*
X000900Y003449D02*
X000820Y003449D01*
X000820Y003330D02*
X000900Y003330D01*
X000900Y003212D02*
X000820Y003212D01*
X000820Y003093D02*
X000900Y003093D01*
X002780Y002264D02*
X002974Y002264D01*
X003421Y002382D02*
X005599Y002382D01*
X005481Y002264D02*
X004812Y002264D01*
X004108Y002264D02*
X003539Y002264D01*
X003302Y002501D02*
X005718Y002501D01*
X005836Y002619D02*
X003184Y002619D01*
X003329Y001908D02*
X002732Y001908D01*
X002780Y001790D02*
X003448Y001790D01*
X004412Y001434D02*
X004508Y001434D01*
X004888Y001434D02*
X006832Y001434D01*
X006824Y001316D02*
X004896Y001316D01*
X004412Y001197D02*
X002717Y001197D01*
X001603Y001197D02*
X001133Y001197D01*
X001246Y001316D02*
X001540Y001316D01*
X004412Y001079D02*
X004508Y001079D01*
X004508Y000960D02*
X004412Y000960D01*
X004839Y001671D02*
X006881Y001671D01*
X006864Y001687D02*
X006935Y001617D01*
X007585Y001617D01*
X007656Y001687D01*
X007656Y002173D01*
X007760Y002277D01*
X007760Y003743D01*
X007460Y004043D01*
X007343Y004160D01*
X007216Y004160D01*
X007216Y004246D01*
X007146Y004316D01*
X006574Y004316D01*
X006504Y004246D01*
X006504Y003674D01*
X006574Y003604D01*
X007146Y003604D01*
X007216Y003674D01*
X007216Y003721D01*
X007360Y003577D01*
X007360Y002443D01*
X007207Y002290D01*
X006935Y002290D01*
X006864Y002220D01*
X006864Y001687D01*
X006864Y001790D02*
X005572Y001790D01*
X005691Y001908D02*
X006864Y001908D01*
X006864Y002027D02*
X005809Y002027D01*
X005928Y002145D02*
X006864Y002145D01*
X006908Y002264D02*
X006046Y002264D01*
X006165Y002382D02*
X007299Y002382D01*
X007360Y002501D02*
X006260Y002501D01*
X006260Y002619D02*
X006752Y002619D01*
X006789Y002604D02*
X006931Y002604D01*
X007062Y002658D01*
X007162Y002758D01*
X007216Y002889D01*
X007216Y003031D01*
X007162Y003162D01*
X007062Y003262D01*
X006931Y003316D01*
X006789Y003316D01*
X006658Y003262D01*
X006558Y003162D01*
X006504Y003031D01*
X006504Y002889D01*
X006558Y002758D01*
X006658Y002658D01*
X006789Y002604D01*
X006968Y002619D02*
X007360Y002619D01*
X007360Y002738D02*
X007141Y002738D01*
X007202Y002856D02*
X007360Y002856D01*
X007360Y002975D02*
X007216Y002975D01*
X007190Y003093D02*
X007360Y003093D01*
X007360Y003212D02*
X007112Y003212D01*
X007360Y003330D02*
X006260Y003330D01*
X006260Y003212D02*
X006608Y003212D01*
X006530Y003093D02*
X006260Y003093D01*
X006260Y002975D02*
X006504Y002975D01*
X006518Y002856D02*
X006260Y002856D01*
X006260Y002738D02*
X006579Y002738D01*
X007760Y002738D02*
X009579Y002738D01*
X009752Y002619D02*
X007760Y002619D01*
X007760Y002501D02*
X010837Y002501D01*
X010718Y002619D02*
X009968Y002619D01*
X010141Y002738D02*
X010600Y002738D01*
X011047Y002856D02*
X011569Y002856D01*
X011651Y002774D02*
X011949Y002650D01*
X012271Y002650D01*
X012569Y002774D01*
X012796Y003001D01*
X012920Y003299D01*
X012920Y003621D01*
X012796Y003919D01*
X012569Y004146D01*
X012271Y004270D01*
X011949Y004270D01*
X011651Y004146D01*
X011424Y003919D01*
X011300Y003621D01*
X011300Y003299D01*
X011424Y003001D01*
X011651Y002774D01*
X011739Y002738D02*
X011165Y002738D01*
X011284Y002619D02*
X013670Y002619D01*
X013670Y002501D02*
X011402Y002501D01*
X011521Y002382D02*
X013670Y002382D01*
X013670Y002264D02*
X011712Y002264D01*
X011756Y002145D02*
X013670Y002145D01*
X013670Y002027D02*
X011756Y002027D01*
X011756Y001908D02*
X013670Y001908D01*
X013670Y001790D02*
X011756Y001790D01*
X011739Y001671D02*
X013670Y001671D01*
X013670Y002738D02*
X012481Y002738D01*
X012651Y002856D02*
X013670Y002856D01*
X013670Y002975D02*
X012769Y002975D01*
X012834Y003093D02*
X013670Y003093D01*
X013670Y003212D02*
X012883Y003212D01*
X012920Y003330D02*
X013670Y003330D01*
X013670Y003449D02*
X012920Y003449D01*
X012920Y003567D02*
X013670Y003567D01*
X013670Y003686D02*
X012893Y003686D01*
X012844Y003804D02*
X013670Y003804D01*
X013670Y003923D02*
X012792Y003923D01*
X012674Y004041D02*
X013670Y004041D01*
X013670Y004160D02*
X012537Y004160D01*
X011683Y004160D02*
X010163Y004160D01*
X010162Y004162D02*
X010062Y004262D01*
X009931Y004316D01*
X009789Y004316D01*
X009658Y004262D01*
X009558Y004162D01*
X009504Y004031D01*
X009504Y003889D01*
X009558Y003758D01*
X009658Y003658D01*
X009789Y003604D01*
X009931Y003604D01*
X010062Y003658D01*
X010162Y003758D01*
X010216Y003889D01*
X010216Y004031D01*
X010162Y004162D01*
X010212Y004041D02*
X011546Y004041D01*
X011428Y003923D02*
X010216Y003923D01*
X010181Y003804D02*
X011376Y003804D01*
X011327Y003686D02*
X010089Y003686D01*
X009631Y003686D02*
X009017Y003686D01*
X008899Y003804D02*
X009539Y003804D01*
X009504Y003923D02*
X008780Y003923D01*
X008662Y004041D02*
X009508Y004041D01*
X009557Y004160D02*
X008543Y004160D01*
X008425Y004278D02*
X009697Y004278D01*
X010023Y004278D02*
X013670Y004278D01*
X013670Y004397D02*
X008306Y004397D01*
X008188Y004515D02*
X013670Y004515D01*
X013670Y004634D02*
X008069Y004634D01*
X007951Y004752D02*
X013670Y004752D01*
X013670Y004871D02*
X000320Y004871D01*
X000320Y004989D02*
X013670Y004989D01*
X013670Y005108D02*
X000320Y005108D01*
X000320Y005226D02*
X013670Y005226D01*
X013670Y005345D02*
X000320Y005345D01*
X000320Y004752D02*
X005969Y004752D01*
X005860Y004634D02*
X000320Y004634D01*
X000320Y004515D02*
X005860Y004515D01*
X005860Y004397D02*
X000320Y004397D01*
X006260Y004397D02*
X007741Y004397D01*
X007859Y004278D02*
X007184Y004278D01*
X007343Y004160D02*
X007978Y004160D01*
X008096Y004041D02*
X007462Y004041D01*
X007580Y003923D02*
X008215Y003923D01*
X008333Y003804D02*
X007699Y003804D01*
X007760Y003686D02*
X008452Y003686D01*
X008570Y003567D02*
X007760Y003567D01*
X007760Y003449D02*
X008689Y003449D01*
X008807Y003330D02*
X007760Y003330D01*
X007760Y003212D02*
X008926Y003212D01*
X009044Y003093D02*
X007760Y003093D01*
X007760Y002975D02*
X009163Y002975D01*
X009281Y002856D02*
X007760Y002856D01*
X007760Y002382D02*
X010955Y002382D01*
X011008Y002264D02*
X009947Y002264D01*
X009945Y002271D02*
X009924Y002308D01*
X009894Y002338D01*
X009858Y002359D01*
X009817Y002370D01*
X009618Y002370D01*
X009618Y002032D01*
X009502Y002032D01*
X009502Y002370D01*
X009303Y002370D01*
X009262Y002359D01*
X009226Y002338D01*
X009196Y002308D01*
X009175Y002271D01*
X009164Y002231D01*
X009164Y002031D01*
X009502Y002031D01*
X009502Y001915D01*
X009618Y001915D01*
X009618Y001577D01*
X009817Y001577D01*
X009858Y001588D01*
X009894Y001609D01*
X009924Y001639D01*
X009945Y001675D01*
X009956Y001716D01*
X009956Y001915D01*
X009618Y001915D01*
X009618Y002031D01*
X009956Y002031D01*
X009956Y002231D01*
X009945Y002271D01*
X009956Y002145D02*
X010964Y002145D01*
X010964Y002027D02*
X009618Y002027D01*
X009502Y002027D02*
X007656Y002027D01*
X007656Y002145D02*
X009164Y002145D01*
X009173Y002264D02*
X007746Y002264D01*
X007656Y001908D02*
X009164Y001908D01*
X009164Y001915D02*
X009164Y001716D01*
X009175Y001675D01*
X009196Y001639D01*
X009226Y001609D01*
X009262Y001588D01*
X009303Y001577D01*
X009502Y001577D01*
X009502Y001915D01*
X009164Y001915D01*
X009164Y001790D02*
X007656Y001790D01*
X007639Y001671D02*
X009177Y001671D01*
X009502Y001671D02*
X009618Y001671D01*
X009618Y001790D02*
X009502Y001790D01*
X009502Y001908D02*
X009618Y001908D01*
X009956Y001908D02*
X010964Y001908D01*
X010964Y001790D02*
X009956Y001790D01*
X009943Y001671D02*
X010981Y001671D01*
X010966Y001434D02*
X009915Y001434D01*
X009205Y001434D02*
X007688Y001434D01*
X007308Y001434D02*
X007212Y001434D01*
X007212Y001316D02*
X007308Y001316D01*
X007696Y001316D02*
X009204Y001316D01*
X009897Y000841D02*
X011023Y000841D01*
X009618Y002145D02*
X009502Y002145D01*
X009502Y002264D02*
X009618Y002264D01*
X010928Y002975D02*
X011451Y002975D01*
X011386Y003093D02*
X010810Y003093D01*
X011337Y003212D02*
X010112Y003212D01*
X009608Y003212D02*
X009491Y003212D01*
X009373Y003330D02*
X011300Y003330D01*
X011300Y003449D02*
X009254Y003449D01*
X009136Y003567D02*
X011300Y003567D01*
X007360Y003567D02*
X006260Y003567D01*
X006260Y003449D02*
X007360Y003449D01*
X007252Y003686D02*
X007216Y003686D01*
X006504Y003686D02*
X006260Y003686D01*
X006260Y003804D02*
X006504Y003804D01*
X006504Y003923D02*
X006260Y003923D01*
X006260Y004041D02*
X006504Y004041D01*
X006504Y004160D02*
X006260Y004160D01*
X006260Y004278D02*
X006536Y004278D01*
D16*
X006860Y003960D02*
X007260Y003960D01*
X007560Y003660D01*
X007560Y002360D01*
X007260Y002060D01*
X007260Y001954D01*
X006060Y002560D02*
X006060Y004560D01*
X006160Y004660D01*
X007760Y004660D01*
X009460Y002960D01*
X009860Y002960D01*
X010660Y002960D01*
X011360Y002260D01*
X011360Y001954D01*
X011360Y001166D02*
X011340Y001147D01*
X009560Y001147D01*
X006060Y002560D02*
X005454Y001954D01*
X004460Y001954D01*
X003566Y001954D01*
X002960Y002560D01*
X002160Y002560D01*
X000860Y002560D01*
X000860Y001560D02*
X002160Y001560D01*
M02*
