G75*
%MOIN*%
%OFA0B0*%
%FSLAX24Y24*%
%IPPOS*%
%LPD*%
%AMOC8*
5,1,8,0,0,1.08239X$1,22.5*
%
%ADD10R,0.0472X0.0472*%
%ADD11C,0.0472*%
%ADD12C,0.0660*%
%ADD13C,0.0120*%
D10*
X006860Y003860D03*
D11*
X006860Y002860D03*
X009860Y002860D03*
X009860Y003860D03*
D12*
X000860Y003460D03*
X000860Y002460D03*
X000860Y001460D03*
D13*
X000320Y000320D02*
X000320Y005296D01*
X013670Y005296D01*
X013670Y000320D01*
X000320Y000320D01*
X000320Y000386D02*
X013670Y000386D01*
X013670Y000504D02*
X000320Y000504D01*
X000320Y000623D02*
X013670Y000623D01*
X013670Y000741D02*
X000320Y000741D01*
X000320Y000860D02*
X013670Y000860D01*
X013670Y000979D02*
X000320Y000979D01*
X000320Y001097D02*
X013670Y001097D01*
X013670Y001216D02*
X000320Y001216D01*
X000320Y001334D02*
X013670Y001334D01*
X013670Y001453D02*
X000320Y001453D01*
X000320Y001571D02*
X013670Y001571D01*
X013670Y001690D02*
X000320Y001690D01*
X000320Y001808D02*
X013670Y001808D01*
X013670Y001927D02*
X000320Y001927D01*
X000320Y002045D02*
X000686Y002045D01*
X000605Y002079D02*
X000770Y002010D01*
X000950Y002010D01*
X001115Y002079D01*
X001241Y002205D01*
X001310Y002370D01*
X001310Y002550D01*
X001241Y002715D01*
X001115Y002841D01*
X000950Y002910D01*
X000770Y002910D01*
X000605Y002841D01*
X000479Y002715D01*
X000410Y002550D01*
X000410Y002370D01*
X000479Y002205D01*
X000605Y002079D01*
X000520Y002164D02*
X000320Y002164D01*
X000320Y002282D02*
X000447Y002282D01*
X000410Y002401D02*
X000320Y002401D01*
X000320Y002519D02*
X000410Y002519D01*
X000446Y002638D02*
X000320Y002638D01*
X000320Y002756D02*
X000520Y002756D01*
X000685Y002875D02*
X000320Y002875D01*
X000320Y002993D02*
X003886Y002993D01*
X003924Y002901D02*
X004151Y002674D01*
X004449Y002550D01*
X004771Y002550D01*
X005069Y002674D01*
X005296Y002901D01*
X005420Y003199D01*
X005420Y003521D01*
X005296Y003819D01*
X005069Y004046D01*
X004771Y004170D01*
X004449Y004170D01*
X004151Y004046D01*
X003924Y003819D01*
X003800Y003521D01*
X003800Y003199D01*
X003924Y002901D01*
X003951Y002875D02*
X001035Y002875D01*
X000950Y003010D02*
X000770Y003010D01*
X000605Y003079D01*
X000479Y003205D01*
X000410Y003370D01*
X000410Y003550D01*
X000479Y003715D01*
X000605Y003841D01*
X000770Y003910D01*
X000950Y003910D01*
X001115Y003841D01*
X001241Y003715D01*
X001310Y003550D01*
X001310Y003370D01*
X001241Y003205D01*
X001115Y003079D01*
X000950Y003010D01*
X001148Y003112D02*
X003837Y003112D01*
X003800Y003230D02*
X001252Y003230D01*
X001301Y003349D02*
X003800Y003349D01*
X003800Y003467D02*
X001310Y003467D01*
X001295Y003586D02*
X003827Y003586D01*
X003876Y003704D02*
X001246Y003704D01*
X001134Y003823D02*
X003928Y003823D01*
X004046Y003941D02*
X000320Y003941D01*
X000320Y003823D02*
X000586Y003823D01*
X000474Y003704D02*
X000320Y003704D01*
X000320Y003586D02*
X000425Y003586D01*
X000410Y003467D02*
X000320Y003467D01*
X000320Y003349D02*
X000419Y003349D01*
X000468Y003230D02*
X000320Y003230D01*
X000320Y003112D02*
X000572Y003112D01*
X001200Y002756D02*
X004069Y002756D01*
X004239Y002638D02*
X001274Y002638D01*
X001310Y002519D02*
X009752Y002519D01*
X009789Y002504D02*
X009931Y002504D01*
X010062Y002558D01*
X010162Y002658D01*
X010216Y002789D01*
X010216Y002931D01*
X010162Y003062D01*
X010062Y003162D01*
X009931Y003216D01*
X009789Y003216D01*
X009658Y003162D01*
X009558Y003062D01*
X009504Y002931D01*
X009504Y002789D01*
X009558Y002658D01*
X009658Y002558D01*
X009789Y002504D01*
X009968Y002519D02*
X013670Y002519D01*
X013670Y002401D02*
X001310Y002401D01*
X001273Y002282D02*
X013670Y002282D01*
X013670Y002164D02*
X001200Y002164D01*
X001034Y002045D02*
X013670Y002045D01*
X013670Y002638D02*
X012481Y002638D01*
X012569Y002674D02*
X012796Y002901D01*
X012920Y003199D01*
X012920Y003521D01*
X012796Y003819D01*
X012569Y004046D01*
X012271Y004170D01*
X011949Y004170D01*
X011651Y004046D01*
X011424Y003819D01*
X011300Y003521D01*
X011300Y003199D01*
X011424Y002901D01*
X011651Y002674D01*
X011949Y002550D01*
X012271Y002550D01*
X012569Y002674D01*
X012651Y002756D02*
X013670Y002756D01*
X013670Y002875D02*
X012769Y002875D01*
X012834Y002993D02*
X013670Y002993D01*
X013670Y003112D02*
X012883Y003112D01*
X012920Y003230D02*
X013670Y003230D01*
X013670Y003349D02*
X012920Y003349D01*
X012920Y003467D02*
X013670Y003467D01*
X013670Y003586D02*
X012893Y003586D01*
X012844Y003704D02*
X013670Y003704D01*
X013670Y003823D02*
X012792Y003823D01*
X012674Y003941D02*
X013670Y003941D01*
X013670Y004060D02*
X012537Y004060D01*
X011683Y004060D02*
X007216Y004060D01*
X007216Y004146D02*
X007146Y004216D01*
X006574Y004216D01*
X006504Y004146D01*
X006504Y003574D01*
X006574Y003504D01*
X007146Y003504D01*
X007216Y003574D01*
X007216Y004146D01*
X007184Y004178D02*
X013670Y004178D01*
X013670Y004297D02*
X000320Y004297D01*
X000320Y004415D02*
X013670Y004415D01*
X013670Y004534D02*
X000320Y004534D01*
X000320Y004652D02*
X013670Y004652D01*
X013670Y004771D02*
X000320Y004771D01*
X000320Y004889D02*
X013670Y004889D01*
X013670Y005008D02*
X000320Y005008D01*
X000320Y005126D02*
X013670Y005126D01*
X013670Y005245D02*
X000320Y005245D01*
X000320Y004178D02*
X006536Y004178D01*
X006504Y004060D02*
X005037Y004060D01*
X005174Y003941D02*
X006504Y003941D01*
X006504Y003823D02*
X005292Y003823D01*
X005344Y003704D02*
X006504Y003704D01*
X006504Y003586D02*
X005393Y003586D01*
X005420Y003467D02*
X011300Y003467D01*
X011300Y003349D02*
X005420Y003349D01*
X005420Y003230D02*
X011300Y003230D01*
X011337Y003112D02*
X010112Y003112D01*
X010190Y002993D02*
X011386Y002993D01*
X011451Y002875D02*
X010216Y002875D01*
X010202Y002756D02*
X011569Y002756D01*
X011739Y002638D02*
X010141Y002638D01*
X009579Y002638D02*
X004981Y002638D01*
X005151Y002756D02*
X009518Y002756D01*
X009504Y002875D02*
X005269Y002875D01*
X005334Y002993D02*
X009530Y002993D01*
X009608Y003112D02*
X005383Y003112D01*
X007216Y003586D02*
X011327Y003586D01*
X011376Y003704D02*
X007216Y003704D01*
X007216Y003823D02*
X011428Y003823D01*
X011546Y003941D02*
X007216Y003941D01*
X004183Y004060D02*
X000320Y004060D01*
M02*
