G75*
%MOIN*%
%OFA0B0*%
%FSLAX24Y24*%
%IPPOS*%
%LPD*%
%AMOC8*
5,1,8,0,0,1.08239X$1,22.5*
%
%ADD10R,0.0472X0.0472*%
%ADD11C,0.0472*%
%ADD12C,0.0660*%
%ADD13C,0.0120*%
D10*
X006860Y003960D03*
D11*
X006860Y002960D03*
X009860Y002960D03*
X009860Y003960D03*
D12*
X000860Y003560D03*
X000860Y002560D03*
X000860Y001560D03*
D13*
X000320Y000420D02*
X000320Y005396D01*
X013670Y005396D01*
X013670Y000420D01*
X000320Y000420D01*
X000320Y000486D02*
X013670Y000486D01*
X013670Y000604D02*
X000320Y000604D01*
X000320Y000723D02*
X013670Y000723D01*
X013670Y000841D02*
X000320Y000841D01*
X000320Y000960D02*
X013670Y000960D01*
X013670Y001079D02*
X000320Y001079D01*
X000320Y001197D02*
X013670Y001197D01*
X013670Y001316D02*
X000320Y001316D01*
X000320Y001434D02*
X013670Y001434D01*
X013670Y001553D02*
X000320Y001553D01*
X000320Y001671D02*
X013670Y001671D01*
X013670Y001790D02*
X000320Y001790D01*
X000320Y001908D02*
X013670Y001908D01*
X013670Y002027D02*
X000320Y002027D01*
X000320Y002145D02*
X000686Y002145D01*
X000605Y002179D02*
X000770Y002110D01*
X000950Y002110D01*
X001115Y002179D01*
X001241Y002305D01*
X001310Y002470D01*
X001310Y002650D01*
X001241Y002815D01*
X001115Y002941D01*
X000950Y003010D01*
X000770Y003010D01*
X000605Y002941D01*
X000479Y002815D01*
X000410Y002650D01*
X000410Y002470D01*
X000479Y002305D01*
X000605Y002179D01*
X000520Y002264D02*
X000320Y002264D01*
X000320Y002382D02*
X000447Y002382D01*
X000410Y002501D02*
X000320Y002501D01*
X000320Y002619D02*
X000410Y002619D01*
X000446Y002738D02*
X000320Y002738D01*
X000320Y002856D02*
X000520Y002856D01*
X000685Y002975D02*
X000320Y002975D01*
X000320Y003093D02*
X003886Y003093D01*
X003924Y003001D02*
X004151Y002774D01*
X004449Y002650D01*
X004771Y002650D01*
X005069Y002774D01*
X005296Y003001D01*
X005420Y003299D01*
X005420Y003621D01*
X005296Y003919D01*
X005069Y004146D01*
X004771Y004270D01*
X004449Y004270D01*
X004151Y004146D01*
X003924Y003919D01*
X003800Y003621D01*
X003800Y003299D01*
X003924Y003001D01*
X003951Y002975D02*
X001035Y002975D01*
X000950Y003110D02*
X000770Y003110D01*
X000605Y003179D01*
X000479Y003305D01*
X000410Y003470D01*
X000410Y003650D01*
X000479Y003815D01*
X000605Y003941D01*
X000770Y004010D01*
X000950Y004010D01*
X001115Y003941D01*
X001241Y003815D01*
X001310Y003650D01*
X001310Y003470D01*
X001241Y003305D01*
X001115Y003179D01*
X000950Y003110D01*
X001148Y003212D02*
X003837Y003212D01*
X003800Y003330D02*
X001252Y003330D01*
X001301Y003449D02*
X003800Y003449D01*
X003800Y003567D02*
X001310Y003567D01*
X001295Y003686D02*
X003827Y003686D01*
X003876Y003804D02*
X001246Y003804D01*
X001134Y003923D02*
X003928Y003923D01*
X004046Y004041D02*
X000320Y004041D01*
X000320Y003923D02*
X000586Y003923D01*
X000474Y003804D02*
X000320Y003804D01*
X000320Y003686D02*
X000425Y003686D01*
X000410Y003567D02*
X000320Y003567D01*
X000320Y003449D02*
X000419Y003449D01*
X000468Y003330D02*
X000320Y003330D01*
X000320Y003212D02*
X000572Y003212D01*
X001200Y002856D02*
X004069Y002856D01*
X004239Y002738D02*
X001274Y002738D01*
X001310Y002619D02*
X009752Y002619D01*
X009789Y002604D02*
X009931Y002604D01*
X010062Y002658D01*
X010162Y002758D01*
X010216Y002889D01*
X010216Y003031D01*
X010162Y003162D01*
X010062Y003262D01*
X009931Y003316D01*
X009789Y003316D01*
X009658Y003262D01*
X009558Y003162D01*
X009504Y003031D01*
X009504Y002889D01*
X009558Y002758D01*
X009658Y002658D01*
X009789Y002604D01*
X009968Y002619D02*
X013670Y002619D01*
X013670Y002501D02*
X001310Y002501D01*
X001273Y002382D02*
X013670Y002382D01*
X013670Y002264D02*
X001200Y002264D01*
X001034Y002145D02*
X013670Y002145D01*
X013670Y002738D02*
X012481Y002738D01*
X012569Y002774D02*
X012796Y003001D01*
X012920Y003299D01*
X012920Y003621D01*
X012796Y003919D01*
X012569Y004146D01*
X012271Y004270D01*
X011949Y004270D01*
X011651Y004146D01*
X011424Y003919D01*
X011300Y003621D01*
X011300Y003299D01*
X011424Y003001D01*
X011651Y002774D01*
X011949Y002650D01*
X012271Y002650D01*
X012569Y002774D01*
X012651Y002856D02*
X013670Y002856D01*
X013670Y002975D02*
X012769Y002975D01*
X012834Y003093D02*
X013670Y003093D01*
X013670Y003212D02*
X012883Y003212D01*
X012920Y003330D02*
X013670Y003330D01*
X013670Y003449D02*
X012920Y003449D01*
X012920Y003567D02*
X013670Y003567D01*
X013670Y003686D02*
X012893Y003686D01*
X012844Y003804D02*
X013670Y003804D01*
X013670Y003923D02*
X012792Y003923D01*
X012674Y004041D02*
X013670Y004041D01*
X013670Y004160D02*
X012537Y004160D01*
X011683Y004160D02*
X007216Y004160D01*
X007216Y004246D02*
X007146Y004316D01*
X006574Y004316D01*
X006504Y004246D01*
X006504Y003674D01*
X006574Y003604D01*
X007146Y003604D01*
X007216Y003674D01*
X007216Y004246D01*
X007184Y004278D02*
X013670Y004278D01*
X013670Y004397D02*
X000320Y004397D01*
X000320Y004515D02*
X013670Y004515D01*
X013670Y004634D02*
X000320Y004634D01*
X000320Y004752D02*
X013670Y004752D01*
X013670Y004871D02*
X000320Y004871D01*
X000320Y004989D02*
X013670Y004989D01*
X013670Y005108D02*
X000320Y005108D01*
X000320Y005226D02*
X013670Y005226D01*
X013670Y005345D02*
X000320Y005345D01*
X000320Y004278D02*
X006536Y004278D01*
X006504Y004160D02*
X005037Y004160D01*
X005174Y004041D02*
X006504Y004041D01*
X006504Y003923D02*
X005292Y003923D01*
X005344Y003804D02*
X006504Y003804D01*
X006504Y003686D02*
X005393Y003686D01*
X005420Y003567D02*
X011300Y003567D01*
X011300Y003449D02*
X005420Y003449D01*
X005420Y003330D02*
X011300Y003330D01*
X011337Y003212D02*
X010112Y003212D01*
X010190Y003093D02*
X011386Y003093D01*
X011451Y002975D02*
X010216Y002975D01*
X010202Y002856D02*
X011569Y002856D01*
X011739Y002738D02*
X010141Y002738D01*
X009579Y002738D02*
X004981Y002738D01*
X005151Y002856D02*
X009518Y002856D01*
X009504Y002975D02*
X005269Y002975D01*
X005334Y003093D02*
X009530Y003093D01*
X009608Y003212D02*
X005383Y003212D01*
X007216Y003686D02*
X011327Y003686D01*
X011376Y003804D02*
X007216Y003804D01*
X007216Y003923D02*
X011428Y003923D01*
X011546Y004041D02*
X007216Y004041D01*
X004183Y004160D02*
X000320Y004160D01*
M02*
