G75*
%MOIN*%
%OFA0B0*%
%FSLAX24Y24*%
%IPPOS*%
%LPD*%
%AMOC8*
5,1,8,0,0,1.08239X$1,22.5*
%
%ADD10C,0.0000*%
%ADD11C,0.0050*%
%ADD12C,0.0040*%
%ADD13R,0.0551X0.0256*%
%ADD14R,0.0079X0.0079*%
%ADD15C,0.0030*%
%ADD16C,0.0020*%
D10*
X000160Y000260D02*
X000160Y005556D01*
X013830Y005556D01*
X013830Y000260D01*
X000160Y000260D01*
X003960Y003460D02*
X003962Y003510D01*
X003968Y003560D01*
X003978Y003610D01*
X003991Y003658D01*
X004008Y003706D01*
X004029Y003752D01*
X004053Y003796D01*
X004081Y003838D01*
X004112Y003878D01*
X004146Y003915D01*
X004183Y003950D01*
X004222Y003981D01*
X004263Y004010D01*
X004307Y004035D01*
X004353Y004057D01*
X004400Y004075D01*
X004448Y004089D01*
X004497Y004100D01*
X004547Y004107D01*
X004597Y004110D01*
X004648Y004109D01*
X004698Y004104D01*
X004748Y004095D01*
X004796Y004083D01*
X004844Y004066D01*
X004890Y004046D01*
X004935Y004023D01*
X004978Y003996D01*
X005018Y003966D01*
X005056Y003933D01*
X005091Y003897D01*
X005124Y003858D01*
X005153Y003817D01*
X005179Y003774D01*
X005202Y003729D01*
X005221Y003682D01*
X005236Y003634D01*
X005248Y003585D01*
X005256Y003535D01*
X005260Y003485D01*
X005260Y003435D01*
X005256Y003385D01*
X005248Y003335D01*
X005236Y003286D01*
X005221Y003238D01*
X005202Y003191D01*
X005179Y003146D01*
X005153Y003103D01*
X005124Y003062D01*
X005091Y003023D01*
X005056Y002987D01*
X005018Y002954D01*
X004978Y002924D01*
X004935Y002897D01*
X004890Y002874D01*
X004844Y002854D01*
X004796Y002837D01*
X004748Y002825D01*
X004698Y002816D01*
X004648Y002811D01*
X004597Y002810D01*
X004547Y002813D01*
X004497Y002820D01*
X004448Y002831D01*
X004400Y002845D01*
X004353Y002863D01*
X004307Y002885D01*
X004263Y002910D01*
X004222Y002939D01*
X004183Y002970D01*
X004146Y003005D01*
X004112Y003042D01*
X004081Y003082D01*
X004053Y003124D01*
X004029Y003168D01*
X004008Y003214D01*
X003991Y003262D01*
X003978Y003310D01*
X003968Y003360D01*
X003962Y003410D01*
X003960Y003460D01*
X011460Y003460D02*
X011462Y003510D01*
X011468Y003560D01*
X011478Y003610D01*
X011491Y003658D01*
X011508Y003706D01*
X011529Y003752D01*
X011553Y003796D01*
X011581Y003838D01*
X011612Y003878D01*
X011646Y003915D01*
X011683Y003950D01*
X011722Y003981D01*
X011763Y004010D01*
X011807Y004035D01*
X011853Y004057D01*
X011900Y004075D01*
X011948Y004089D01*
X011997Y004100D01*
X012047Y004107D01*
X012097Y004110D01*
X012148Y004109D01*
X012198Y004104D01*
X012248Y004095D01*
X012296Y004083D01*
X012344Y004066D01*
X012390Y004046D01*
X012435Y004023D01*
X012478Y003996D01*
X012518Y003966D01*
X012556Y003933D01*
X012591Y003897D01*
X012624Y003858D01*
X012653Y003817D01*
X012679Y003774D01*
X012702Y003729D01*
X012721Y003682D01*
X012736Y003634D01*
X012748Y003585D01*
X012756Y003535D01*
X012760Y003485D01*
X012760Y003435D01*
X012756Y003385D01*
X012748Y003335D01*
X012736Y003286D01*
X012721Y003238D01*
X012702Y003191D01*
X012679Y003146D01*
X012653Y003103D01*
X012624Y003062D01*
X012591Y003023D01*
X012556Y002987D01*
X012518Y002954D01*
X012478Y002924D01*
X012435Y002897D01*
X012390Y002874D01*
X012344Y002854D01*
X012296Y002837D01*
X012248Y002825D01*
X012198Y002816D01*
X012148Y002811D01*
X012097Y002810D01*
X012047Y002813D01*
X011997Y002820D01*
X011948Y002831D01*
X011900Y002845D01*
X011853Y002863D01*
X011807Y002885D01*
X011763Y002910D01*
X011722Y002939D01*
X011683Y002970D01*
X011646Y003005D01*
X011612Y003042D01*
X011581Y003082D01*
X011553Y003124D01*
X011529Y003168D01*
X011508Y003214D01*
X011491Y003262D01*
X011478Y003310D01*
X011468Y003360D01*
X011462Y003410D01*
X011460Y003460D01*
D11*
X011110Y004460D02*
X011110Y002460D01*
X013360Y002460D01*
X013360Y004460D01*
X011110Y004460D01*
X005610Y004460D01*
X005610Y002460D01*
X011110Y002460D01*
X005610Y002460D02*
X003360Y002460D01*
X003360Y004460D01*
X005610Y004460D01*
D12*
X005513Y004492D02*
X005206Y004799D01*
X005513Y004799D01*
X005590Y004723D01*
X005590Y004569D01*
X005513Y004492D01*
X005206Y004492D01*
X005130Y004569D01*
X005130Y004723D01*
X005206Y004799D01*
X005206Y004953D02*
X005130Y005029D01*
X005130Y005183D01*
X005206Y005260D01*
X005283Y005260D01*
X005360Y005183D01*
X005437Y005260D01*
X005513Y005260D01*
X005590Y005183D01*
X005590Y005029D01*
X005513Y004953D01*
X005360Y005106D02*
X005360Y005183D01*
X005590Y004339D02*
X005590Y004032D01*
X005283Y004032D02*
X005130Y004185D01*
X005590Y004185D01*
X005590Y003878D02*
X005590Y003572D01*
X005283Y003878D01*
X005206Y003878D01*
X005130Y003802D01*
X005130Y003648D01*
X005206Y003572D01*
X005130Y003418D02*
X005130Y003111D01*
X005130Y003265D02*
X005590Y003265D01*
X005513Y002958D02*
X005437Y002958D01*
X005360Y002881D01*
X005360Y002728D01*
X005283Y002651D01*
X005206Y002651D01*
X005130Y002728D01*
X005130Y002881D01*
X005206Y002958D01*
X005513Y002958D02*
X005590Y002881D01*
X005590Y002728D01*
X005513Y002651D01*
X005513Y002497D02*
X005590Y002421D01*
X005590Y002267D01*
X005513Y002190D01*
X005206Y002190D01*
X005130Y002267D01*
X005130Y002421D01*
X005206Y002497D01*
X005130Y002037D02*
X005130Y001730D01*
X005130Y001883D02*
X005590Y001883D01*
X007380Y002730D02*
X007687Y002730D01*
X007380Y002730D02*
X007380Y003190D01*
X007687Y003190D01*
X007533Y002960D02*
X007380Y002960D01*
X008880Y002960D02*
X009187Y002960D01*
X009033Y003114D02*
X009033Y002807D01*
X009110Y003730D02*
X008880Y003730D01*
X008880Y004190D01*
X009110Y004190D01*
X009187Y004114D01*
X009187Y003807D01*
X009110Y003730D01*
X007687Y004210D02*
X007380Y004210D01*
X007533Y004057D02*
X007533Y004364D01*
D13*
X007259Y001848D03*
X007259Y001268D03*
X004459Y001268D03*
X004459Y001848D03*
X011359Y001848D03*
X011359Y001268D03*
D14*
X009560Y001521D03*
D15*
X009065Y001479D02*
X009065Y001286D01*
X008775Y001286D01*
X008775Y001479D01*
X008920Y001382D02*
X008920Y001286D01*
X009065Y001185D02*
X009065Y000991D01*
X008775Y000991D01*
X008775Y001580D02*
X008775Y001725D01*
X008823Y001774D01*
X009017Y001774D01*
X009065Y001725D01*
X009065Y001580D01*
X008775Y001580D01*
D16*
X002441Y001099D02*
X002441Y001062D01*
X002404Y001025D01*
X002441Y000988D01*
X002441Y000952D01*
X002404Y000915D01*
X002331Y000915D01*
X002294Y000952D01*
X002220Y000952D02*
X002183Y000915D01*
X002073Y000915D01*
X002073Y001135D01*
X002183Y001135D01*
X002220Y001099D01*
X002220Y000952D01*
X002367Y001025D02*
X002404Y001025D01*
X002441Y001099D02*
X002404Y001135D01*
X002331Y001135D01*
X002294Y001099D01*
X001999Y001062D02*
X001999Y000915D01*
X001852Y000915D02*
X001852Y001062D01*
X001925Y001135D01*
X001999Y001062D01*
X001999Y001025D02*
X001852Y001025D01*
X001778Y001025D02*
X001741Y000988D01*
X001631Y000988D01*
X001778Y001025D02*
X001778Y001099D01*
X001741Y001135D01*
X001631Y001135D01*
X001631Y000915D01*
X000393Y002340D02*
X000430Y002377D01*
X000430Y002413D01*
X000393Y002450D01*
X000210Y002450D01*
X000210Y002413D02*
X000210Y002487D01*
X000210Y002561D02*
X000210Y002671D01*
X000247Y002708D01*
X000320Y002708D01*
X000357Y002671D01*
X000357Y002561D01*
X000430Y002561D02*
X000210Y002561D01*
X000283Y002782D02*
X000210Y002855D01*
X000430Y002855D01*
X000430Y002782D02*
X000430Y002929D01*
X001631Y002915D02*
X001631Y003135D01*
X001741Y003135D01*
X001778Y003099D01*
X001778Y003025D01*
X001741Y002988D01*
X001631Y002988D01*
X001852Y003025D02*
X001999Y003025D01*
X001999Y003062D02*
X001999Y002915D01*
X002073Y002915D02*
X002183Y002915D01*
X002220Y002952D01*
X002220Y003099D01*
X002183Y003135D01*
X002073Y003135D01*
X002073Y002915D01*
X001852Y002915D02*
X001852Y003062D01*
X001925Y003135D01*
X001999Y003062D01*
X002294Y003099D02*
X002331Y003135D01*
X002404Y003135D01*
X002441Y003099D01*
X002441Y003062D01*
X002294Y002915D01*
X002441Y002915D01*
X002441Y003915D02*
X002294Y003915D01*
X002367Y003915D02*
X002367Y004135D01*
X002294Y004062D01*
X002220Y004099D02*
X002183Y004135D01*
X002073Y004135D01*
X002073Y003915D01*
X002183Y003915D01*
X002220Y003952D01*
X002220Y004099D01*
X001999Y004062D02*
X001999Y003915D01*
X001852Y003915D02*
X001852Y004062D01*
X001925Y004135D01*
X001999Y004062D01*
X001999Y004025D02*
X001852Y004025D01*
X001778Y004025D02*
X001741Y003988D01*
X001631Y003988D01*
X001631Y003915D02*
X001631Y004135D01*
X001741Y004135D01*
X001778Y004099D01*
X001778Y004025D01*
M02*
