G75*
%MOIN*%
%OFA0B0*%
%FSLAX24Y24*%
%IPPOS*%
%LPD*%
%AMOC8*
5,1,8,0,0,1.08239X$1,22.5*
%
%ADD10C,0.0000*%
%ADD11C,0.0030*%
%ADD12C,0.0050*%
%ADD13C,0.0040*%
%ADD14R,0.0551X0.0256*%
%ADD15R,0.0079X0.0079*%
%ADD16C,0.0020*%
D10*
X000160Y000160D02*
X000160Y005456D01*
X013830Y005456D01*
X013830Y000160D01*
X000160Y000160D01*
X003960Y003360D02*
X003962Y003410D01*
X003968Y003460D01*
X003978Y003510D01*
X003991Y003558D01*
X004008Y003606D01*
X004029Y003652D01*
X004053Y003696D01*
X004081Y003738D01*
X004112Y003778D01*
X004146Y003815D01*
X004183Y003850D01*
X004222Y003881D01*
X004263Y003910D01*
X004307Y003935D01*
X004353Y003957D01*
X004400Y003975D01*
X004448Y003989D01*
X004497Y004000D01*
X004547Y004007D01*
X004597Y004010D01*
X004648Y004009D01*
X004698Y004004D01*
X004748Y003995D01*
X004796Y003983D01*
X004844Y003966D01*
X004890Y003946D01*
X004935Y003923D01*
X004978Y003896D01*
X005018Y003866D01*
X005056Y003833D01*
X005091Y003797D01*
X005124Y003758D01*
X005153Y003717D01*
X005179Y003674D01*
X005202Y003629D01*
X005221Y003582D01*
X005236Y003534D01*
X005248Y003485D01*
X005256Y003435D01*
X005260Y003385D01*
X005260Y003335D01*
X005256Y003285D01*
X005248Y003235D01*
X005236Y003186D01*
X005221Y003138D01*
X005202Y003091D01*
X005179Y003046D01*
X005153Y003003D01*
X005124Y002962D01*
X005091Y002923D01*
X005056Y002887D01*
X005018Y002854D01*
X004978Y002824D01*
X004935Y002797D01*
X004890Y002774D01*
X004844Y002754D01*
X004796Y002737D01*
X004748Y002725D01*
X004698Y002716D01*
X004648Y002711D01*
X004597Y002710D01*
X004547Y002713D01*
X004497Y002720D01*
X004448Y002731D01*
X004400Y002745D01*
X004353Y002763D01*
X004307Y002785D01*
X004263Y002810D01*
X004222Y002839D01*
X004183Y002870D01*
X004146Y002905D01*
X004112Y002942D01*
X004081Y002982D01*
X004053Y003024D01*
X004029Y003068D01*
X004008Y003114D01*
X003991Y003162D01*
X003978Y003210D01*
X003968Y003260D01*
X003962Y003310D01*
X003960Y003360D01*
X011460Y003360D02*
X011462Y003410D01*
X011468Y003460D01*
X011478Y003510D01*
X011491Y003558D01*
X011508Y003606D01*
X011529Y003652D01*
X011553Y003696D01*
X011581Y003738D01*
X011612Y003778D01*
X011646Y003815D01*
X011683Y003850D01*
X011722Y003881D01*
X011763Y003910D01*
X011807Y003935D01*
X011853Y003957D01*
X011900Y003975D01*
X011948Y003989D01*
X011997Y004000D01*
X012047Y004007D01*
X012097Y004010D01*
X012148Y004009D01*
X012198Y004004D01*
X012248Y003995D01*
X012296Y003983D01*
X012344Y003966D01*
X012390Y003946D01*
X012435Y003923D01*
X012478Y003896D01*
X012518Y003866D01*
X012556Y003833D01*
X012591Y003797D01*
X012624Y003758D01*
X012653Y003717D01*
X012679Y003674D01*
X012702Y003629D01*
X012721Y003582D01*
X012736Y003534D01*
X012748Y003485D01*
X012756Y003435D01*
X012760Y003385D01*
X012760Y003335D01*
X012756Y003285D01*
X012748Y003235D01*
X012736Y003186D01*
X012721Y003138D01*
X012702Y003091D01*
X012679Y003046D01*
X012653Y003003D01*
X012624Y002962D01*
X012591Y002923D01*
X012556Y002887D01*
X012518Y002854D01*
X012478Y002824D01*
X012435Y002797D01*
X012390Y002774D01*
X012344Y002754D01*
X012296Y002737D01*
X012248Y002725D01*
X012198Y002716D01*
X012148Y002711D01*
X012097Y002710D01*
X012047Y002713D01*
X011997Y002720D01*
X011948Y002731D01*
X011900Y002745D01*
X011853Y002763D01*
X011807Y002785D01*
X011763Y002810D01*
X011722Y002839D01*
X011683Y002870D01*
X011646Y002905D01*
X011612Y002942D01*
X011581Y002982D01*
X011553Y003024D01*
X011529Y003068D01*
X011508Y003114D01*
X011491Y003162D01*
X011478Y003210D01*
X011468Y003260D01*
X011462Y003310D01*
X011460Y003360D01*
D11*
X010875Y004605D02*
X010779Y004605D01*
X010730Y004653D01*
X010629Y004653D02*
X010581Y004605D01*
X010484Y004605D01*
X010436Y004653D01*
X010629Y004847D01*
X010629Y004653D01*
X010436Y004653D02*
X010436Y004847D01*
X010484Y004895D01*
X010581Y004895D01*
X010629Y004847D01*
X010730Y004847D02*
X010779Y004895D01*
X010875Y004895D01*
X010924Y004847D01*
X010924Y004798D01*
X010875Y004750D01*
X010924Y004702D01*
X010924Y004653D01*
X010875Y004605D01*
X010875Y004750D02*
X010827Y004750D01*
X010335Y004605D02*
X010141Y004605D01*
X010238Y004605D02*
X010238Y004895D01*
X010141Y004798D01*
X010040Y004798D02*
X010040Y004847D01*
X009992Y004895D01*
X009895Y004895D01*
X009846Y004847D01*
X009745Y004895D02*
X009552Y004895D01*
X009648Y004895D02*
X009648Y004605D01*
X009451Y004653D02*
X009402Y004605D01*
X009305Y004605D01*
X009257Y004653D01*
X009156Y004653D02*
X009108Y004605D01*
X009011Y004605D01*
X008962Y004653D01*
X008962Y004847D01*
X009011Y004895D01*
X009108Y004895D01*
X009156Y004847D01*
X009257Y004847D02*
X009257Y004798D01*
X009305Y004750D01*
X009402Y004750D01*
X009451Y004702D01*
X009451Y004653D01*
X009846Y004605D02*
X010040Y004798D01*
X010040Y004605D02*
X009846Y004605D01*
X009451Y004847D02*
X009402Y004895D01*
X009305Y004895D01*
X009257Y004847D01*
X008861Y004895D02*
X008668Y004895D01*
X008765Y004895D02*
X008765Y004605D01*
X004302Y004827D02*
X004302Y005020D01*
X004205Y005020D01*
X004205Y004972D02*
X004302Y004972D01*
X003810Y005020D02*
X003616Y005020D01*
X003761Y005165D01*
X003761Y004875D01*
X003515Y004875D02*
X003322Y004875D01*
X003418Y004875D02*
X003418Y005165D01*
X003322Y005068D01*
X003220Y005117D02*
X003027Y004923D01*
X003075Y004875D01*
X003172Y004875D01*
X003220Y004923D01*
X003220Y005117D01*
X003172Y005165D01*
X003075Y005165D01*
X003027Y005117D01*
X003027Y004923D01*
X002926Y004875D02*
X002732Y004875D01*
X002926Y005068D01*
X002926Y005117D01*
X002877Y005165D01*
X002781Y005165D01*
X002732Y005117D01*
X002337Y005068D02*
X002192Y004972D01*
X002337Y004875D01*
X002192Y004875D02*
X002192Y005165D01*
X002091Y005068D02*
X001946Y005068D01*
X001897Y005020D01*
X001897Y004923D01*
X001946Y004875D01*
X002091Y004875D01*
X001798Y004875D02*
X001701Y004875D01*
X001749Y004875D02*
X001749Y005068D01*
X001701Y005068D01*
X001749Y005165D02*
X001749Y005214D01*
X001600Y005117D02*
X001600Y005020D01*
X001551Y004972D01*
X001406Y004972D01*
X001305Y004972D02*
X001305Y005020D01*
X001257Y005068D01*
X001160Y005068D01*
X001112Y005020D01*
X001112Y004923D01*
X001160Y004875D01*
X001257Y004875D01*
X001305Y004972D02*
X001112Y004972D01*
X000963Y005068D02*
X000866Y004972D01*
X000866Y005068D02*
X000866Y004875D01*
X000766Y004875D02*
X000670Y004875D01*
X000718Y004875D02*
X000718Y005068D01*
X000670Y005068D01*
X000718Y005165D02*
X000718Y005214D01*
X000568Y005165D02*
X000375Y005165D01*
X000375Y004875D01*
X000375Y005020D02*
X000472Y005020D01*
X000963Y005068D02*
X001011Y005068D01*
X001406Y005165D02*
X001551Y005165D01*
X001600Y005117D01*
X001406Y005165D02*
X001406Y004875D01*
X008775Y001625D02*
X008823Y001674D01*
X009017Y001674D01*
X009065Y001625D01*
X009065Y001480D01*
X008775Y001480D01*
X008775Y001625D01*
X008775Y001379D02*
X008775Y001186D01*
X009065Y001186D01*
X009065Y001379D01*
X008920Y001282D02*
X008920Y001186D01*
X009065Y001085D02*
X009065Y000891D01*
X008775Y000891D01*
D12*
X011110Y002360D02*
X005610Y002360D01*
X005610Y004360D01*
X003360Y004360D01*
X003360Y002360D01*
X005610Y002360D01*
X005610Y004360D02*
X011110Y004360D01*
X011110Y002360D01*
X013360Y002360D01*
X013360Y004360D01*
X011110Y004360D01*
D13*
X009187Y004014D02*
X009187Y003707D01*
X009110Y003630D01*
X008880Y003630D01*
X008880Y004090D01*
X009110Y004090D01*
X009187Y004014D01*
X007687Y004110D02*
X007380Y004110D01*
X007533Y003957D02*
X007533Y004264D01*
X007380Y003090D02*
X007380Y002630D01*
X007687Y002630D01*
X007533Y002860D02*
X007380Y002860D01*
X007380Y003090D02*
X007687Y003090D01*
X008880Y002860D02*
X009187Y002860D01*
X009033Y003014D02*
X009033Y002707D01*
D14*
X007259Y001748D03*
X007259Y001168D03*
X004459Y001168D03*
X004459Y001748D03*
X011359Y001748D03*
X011359Y001168D03*
D15*
X009560Y001421D03*
D16*
X002441Y001852D02*
X002404Y001815D01*
X002331Y001815D01*
X002294Y001852D01*
X002220Y001852D02*
X002220Y001999D01*
X002183Y002035D01*
X002073Y002035D01*
X002073Y001815D01*
X002183Y001815D01*
X002220Y001852D01*
X001999Y001815D02*
X001999Y001962D01*
X001925Y002035D01*
X001852Y001962D01*
X001852Y001815D01*
X001778Y001925D02*
X001741Y001888D01*
X001631Y001888D01*
X001631Y001815D02*
X001631Y002035D01*
X001741Y002035D01*
X001778Y001999D01*
X001778Y001925D01*
X001852Y001925D02*
X001999Y001925D01*
X002294Y001999D02*
X002331Y002035D01*
X002404Y002035D01*
X002441Y001999D01*
X002441Y001962D01*
X002404Y001925D01*
X002441Y001888D01*
X002441Y001852D01*
X002404Y001925D02*
X002367Y001925D01*
X000514Y002752D02*
X000514Y002789D01*
X000477Y002826D01*
X000294Y002826D01*
X000294Y002862D02*
X000294Y002789D01*
X000477Y002716D02*
X000514Y002752D01*
X000514Y002936D02*
X000294Y002936D01*
X000294Y003047D01*
X000330Y003083D01*
X000404Y003083D01*
X000440Y003047D01*
X000440Y002936D01*
X000367Y003157D02*
X000294Y003231D01*
X000514Y003231D01*
X000514Y003304D02*
X000514Y003157D01*
X001631Y003035D02*
X001631Y002815D01*
X001631Y002888D02*
X001741Y002888D01*
X001778Y002925D01*
X001778Y002999D01*
X001741Y003035D01*
X001631Y003035D01*
X001852Y002962D02*
X001925Y003035D01*
X001999Y002962D01*
X001999Y002815D01*
X002073Y002815D02*
X002183Y002815D01*
X002220Y002852D01*
X002220Y002999D01*
X002183Y003035D01*
X002073Y003035D01*
X002073Y002815D01*
X001852Y002815D02*
X001852Y002962D01*
X001852Y002925D02*
X001999Y002925D01*
X002294Y002999D02*
X002331Y003035D01*
X002404Y003035D01*
X002441Y002999D01*
X002441Y002962D01*
X002294Y002815D01*
X002441Y002815D01*
X002441Y003815D02*
X002294Y003815D01*
X002367Y003815D02*
X002367Y004035D01*
X002294Y003962D01*
X002220Y003999D02*
X002183Y004035D01*
X002073Y004035D01*
X002073Y003815D01*
X002183Y003815D01*
X002220Y003852D01*
X002220Y003999D01*
X001999Y003962D02*
X001999Y003815D01*
X001852Y003815D02*
X001852Y003962D01*
X001925Y004035D01*
X001999Y003962D01*
X001999Y003925D02*
X001852Y003925D01*
X001778Y003925D02*
X001741Y003888D01*
X001631Y003888D01*
X001778Y003925D02*
X001778Y003999D01*
X001741Y004035D01*
X001631Y004035D01*
X001631Y003815D01*
M02*
