700 0 1 0           
11 SatConsumer 24 ASM 220.3.1.1720 Unknown 24 Sat Nov 29 16:56:41 2014 
1 9.999999999999999547e-07 1.000000000000000036e-10 
body $1 -1 $-1 $2 $-1 $3 #
rgb_color-st-attrib $-1 -1 $4 $-1 $0 0.9098039215686274384 0.6784313725490196401 0.1372549019607843257 #
lump $-1 -1 $-1 $-1 $5 $0 #
transform $-1 -1 1 0 0 0 1 0 0 0 1 0 0 0 1 no_rotate no_reflect no_shear #
DXID-attrib $-1 -1 $-1 $1 $0 @10 ASM ENTITY @176 {"label":"Body1","asset":"9421c90f-bd97-4a74-a08a-bbb16a8c1f9b","segment":"0","entity":"217","meta":"D3937028-C20C-4E65-B010-94AD418A5C20","metaName":"BodyMetaType","extra":""} #
shell $6 -1 $-1 $-1 $-1 $7 $-1 $2 #
string_attrib-name_attrib-gen-attrib $-1 -1 $-1 $-1 $5 keep keep_kept ignore copy @17 ATF_ExternalShell @4 true #
face $-1 -1 $-1 $8 $9 $5 $-1 $10 forward single #
face $-1 -1 $-1 $11 $12 $5 $-1 $13 forward single #
loop $-1 -1 $-1 $-1 $14 $7 #
cone-surface $-1 -1 $-1 -0.9637978263100615006 1 3.200000000000000622 1 0 0 0 -0.7071067811865472397 -0.7071067811865479058 1 I I 0 1 1 forward I I I I #
face $-1 -1 $-1 $15 $16 $5 $-1 $17 reversed single #
loop $-1 -1 $-1 $-1 $18 $8 #
torus-surface $-1 -1 $-1 -2.775557561562891351e-16 1 0 0 1 0 3.924999999999999822 1 0 0 1 forward_v I I I I #
coedge $-1 -1 $-1 $19 $20 $21 $22 forward $9 $-1 #
face $-1 -1 $-1 $23 $24 $5 $-1 $25 reversed single #
loop $-1 -1 $-1 $-1 $26 $11 #
plane-surface $-1 -1 $-1 -1.927595652620123001 0 2.200000000000000178 0 0 1 10 0 0 forward_v I I I I #
coedge $-1 -1 $-1 $27 $28 $29 $30 forward $12 $-1 #
coedge $-1 -1 $-1 $31 $14 $27 $32 forward $9 $-1 #
coedge $-1 -1 $-1 $14 $31 $28 $33 forward $9 $-1 #
coedge $-1 -1 $-1 $34 $34 $14 $22 reversed $35 $-1 #
edge $-1 -1 $-1 $36 -0.3236598961473450831 $37 0.1309003308853328162 $21 $38 forward @7 tangent #
face $-1 -1 $-1 $39 $40 $5 $-1 $41 reversed single #
loop $-1 -1 $-1 $35 $42 $15 #
plane-surface $-1 -1 $-1 0 0 0 0 1 0 10 0 0 forward_v I I I I #
coedge $-1 -1 $-1 $43 $44 $31 $45 reversed $16 $-1 #
coedge $-1 -1 $-1 $46 $18 $19 $32 reversed $12 $-1 #
coedge $-1 -1 $-1 $18 $46 $20 $33 reversed $12 $-1 #
coedge $-1 -1 $-1 $47 $48 $18 $30 reversed $40 $-1 #
edge $-1 -1 $-1 $49 -2.42209481539905136 $50 2.422094815399052248 $29 $51 forward @7 tangent #
coedge $-1 -1 $-1 $20 $19 $26 $45 forward $9 $-1 #
edge $-1 -1 $-1 $37 -0.0004928490919130577418 $50 0.1617528832605316103 $19 $52 forward @7 unknown #
edge $-1 -1 $-1 $49 0 $36 0.1618001585140124987 $20 $53 forward @7 unknown #
coedge $-1 -1 $-1 $21 $21 $46 $54 reversed $35 $-1 #
loop $-1 -1 $-1 $-1 $21 $15 #
vertex $-1 -1 $-1 $22 $55 #
vertex $-1 -1 $-1 $22 $56 #
straight-curve $-1 -1 $-1 -0.9637978263100615006 0 3.200000000000000622 -10 -0 -0 F -1.456380782631006232 F 1.263621217368993799 #
face $-1 -1 $-1 $57 $58 $5 $-1 $59 forward single #
loop $-1 -1 $-1 $-1 $29 $23 #
cone-surface $-1 -1 $-1 -2.775557561562891351e-16 0 0 0 1 0 -1.927595652620122557 0 2.200000000000000622 1 I I 0 1 2.924999999999999822 forward I I I I #
coedge $-1 -1 $-1 $42 $42 $60 $61 reversed $24 $-1 #
coedge $-1 -1 $-1 $62 $26 $48 $63 forward $16 $-1 #
coedge $-1 -1 $-1 $26 $62 $47 $64 reversed $16 $-1 #
edge $-1 -1 $-1 $50 -0.09637978263100614729 $49 0.2891393478930184835 $26 $65 forward @7 tangent #
coedge $-1 -1 $-1 $28 $27 $34 $54 forward $12 $-1 #
coedge $-1 -1 $-1 $66 $29 $44 $64 forward $40 $-1 #
coedge $-1 -1 $-1 $29 $66 $43 $63 reversed $40 $-1 #
vertex $-1 -1 $-1 $64 $67 #
vertex $-1 -1 $-1 $63 $68 #
ellipse-curve $-1 -1 $-1 -2.775557561562891351e-16 1 0 0 1 0 0 0 -2.924999999999999822 1 I I #
intcurve-curve $-1 -1 $-1 reversed { surfintcur full nubs 3 open 6 
	-0.1617528832605316103 3 -0.1253945608634979003 2 -0.08531774573660749761 2 -0.04295762415990658084 2 -0 2 
	0.0004928490919130577418 3 
	-1.927595652620122557 1.000000000000084155 2.200000000000000622 
	-1.927595652620134326 0.8791824080824551801 2.199999999999990408 
	-1.935869496816787994 0.7598843063102773687 2.221875350435273955 
	-1.968872551004603899 0.5239269442819918243 2.310713574455739661 
	-1.994707525072457077 0.4119595633936284362 2.380848710795467227 
	-2.059835336892241298 0.217153944103278207 2.562880449724485921 
	-2.099139379202324296 0.1381752254018734916 2.675181009051579295 
	-2.183363430504062119 0.0291956120956309087 2.923898289992614252 
	-2.227760874820297943 0.0006515052574763112447 3.058894900950535511 
	-2.271802466054830827 3.674446078436864434e-06 3.196869789805814932 
	-2.272301875038668317 -9.583654928240579771e-20 3.198434870374885719 
	-2.272801135163389663 0 3.200000000000000622 
	1.104702698708945772e-05 
	
	cone -0.9637978263100615006 1 3.200000000000000622 1 0 0 0 -0.7071067811865472397 -0.7071067811865479058 1 I I 0 1 1 forward I I I I 
	torus -2.775557561562891351e-16 1 0 0 1 0 3.924999999999999822 1 0 0 1 forward_v I I I I 
	nullbs 
	nullbs 
	F -0.3234138296200671503 F -0 
	0 
	1 -0 
	0 
	} I I #
intcurve-curve $-1 -1 $-1 reversed { surfintcur full nubs 3 open 7 
	-0.1618001585140124987 3 -0.1613082063147046052 2 -0.1382511398783232703 2 -0.1152389922070826966 2 -0.07469800369359841374 2 
	-0.03670233184429137763 2 -0 3 
	2.272801135163389219 0 3.200000000000000622 
	2.272301875038660768 -9.58365492837854617e-20 3.198434870374862626 
	2.271802466054850367 3.674446078103267707e-06 3.196869789805868223 
	2.247889559962895856 0.000355421894843302021 3.121954681887326277 
	2.224199758116241821 0.008769139801414829044 3.04888634098793343 
	2.177155544700233758 0.04137110213911734946 2.906089003062376719 
	2.15388812082106007 0.0654676511723786686 2.836620703937295485 
	2.091579852494991343 0.1526351044347298846 2.653449286208369617 
	2.054397027882829185 0.2308601365563509034 2.547530882247162509 
	1.993064355111271002 0.4195736441761016011 2.376413840403601707 
	1.968758473748421167 0.5262715055404389997 2.31041974205571643 
	1.936079614029207363 0.7569559124641962455 2.222428593037640177 
	1.927595652620123223 0.8776588938523620653 2.199999999999999734 
	1.927595652620123223 0.999999999999999889 2.199999999999999734 
	9.004718946985506168e-06 
	
	cone -0.9637978263100615006 1 3.200000000000000622 1 0 0 0 -0.7071067811865472397 -0.7071067811865479058 1 I I 0 1 1 forward I I I I 
	torus -2.775557561562891351e-16 1 0 0 1 0 3.924999999999999822 1 0 0 1 forward_v I I I I 
	nullbs 
	nullbs 
	F -0.1613082063147046052 I 
	0 
	1 -0.1613082063147046052 
	0 
	} I I #
edge $-1 -1 $-1 $37 -2.524020333307360975 $36 2.524020333307360975 $34 $69 forward @7 tangent #
point $-1 -1 $-1 2.272801135163389219 0 3.200000000000000622 #
point $-1 -1 $-1 -2.272801135163389663 0 3.200000000000000622 #
face $-1 -1 $-1 $70 $71 $5 $-1 $72 reversed single #
loop $-1 -1 $-1 $-1 $73 $39 #
plane-surface $-1 -1 $-1 0 10 -0.3624999999999994893 0 -1 0 10 0 0 forward_v I I I I #
coedge $-1 -1 $-1 $60 $60 $42 $61 forward $74 $-1 #
edge $-1 -1 $-1 $75 -3.141592653589793116 $75 3.141592653589793116 $60 $76 forward @7 unknown #
coedge $-1 -1 $-1 $44 $43 $77 $78 forward $16 $-1 #
edge $-1 -1 $-1 $50 0.1000000000000000056 $79 1 $48 $80 forward @7 unknown #
edge $-1 -1 $-1 $49 0.1000000000000000056 $81 1 $47 $82 forward @7 unknown #
straight-curve $-1 -1 $-1 -0.9637978263100615006 1 2.200000000000000178 10 0 0 F -1.263621217368993799 F 1.456380782631006232 #
coedge $-1 -1 $-1 $48 $47 $73 $83 forward $40 $-1 #
point $-1 -1 $-1 1.927595652620123223 1 2.199999999999999289 #
point $-1 -1 $-1 -1.927595652620123001 1 2.200000000000000622 #
ellipse-curve $-1 -1 $-1 -2.775557561562891351e-16 0 0 -0 -1 -0 0 0 -3.924999999999999822 1 I I #
face $-1 -1 $-1 $84 $85 $5 $-1 $86 forward single #
loop $-1 -1 $-1 $-1 $87 $57 #
sphere-surface $-1 -1 $-1 -5.447920836809535317 12.00000000000000178 5.8583409388543215 1.500000000000000444 0 0 -1 0 1 0 forward_v I I I I #
coedge $-1 -1 $-1 $77 $77 $66 $83 reversed $58 $-1 #
loop $-1 -1 $-1 $88 $60 $84 #
vertex $-1 -1 $-1 $61 $89 #
ellipse-curve $-1 -1 $-1 0 0 0 0 1 0 12.5 0 0 1 I I #
coedge $-1 -1 $-1 $73 $73 $62 $78 reversed $58 $-1 #
edge $-1 -1 $-1 $79 0 $81 0.3855191305240245891 $62 $90 forward @7 unknown #
vertex $-1 -1 $-1 $63 $91 #
straight-curve $-1 -1 $-1 -1.927595652620123001 0 2.200000000000000622 0 10 0 I I #
vertex $-1 -1 $-1 $64 $92 #
straight-curve $-1 -1 $-1 1.927595652620123223 0 2.199999999999999289 0 10 0 I I #
edge $-1 -1 $-1 $81 -4.844189630798103607 $79 -0 $66 $93 forward @7 unknown #
face $-1 -1 $-1 $94 $74 $5 $-1 $95 forward single #
loop $-1 -1 $-1 $96 $97 $70 #
cone-surface $-1 -1 $-1 0 11.25000000000000178 0 0 1 0 11.75 0 0 1 I I -0.7071067811865474617 0.7071067811865474617 11.75 forward I I I I #
coedge $-1 -1 $-1 $87 $87 $98 $99 reversed $71 $-1 #
loop $-1 -1 $-1 $-1 $100 $84 #
point $-1 -1 $-1 -12.5 0 1.530808498934191521e-15 #
straight-curve $-1 -1 $-1 -1.927595652620123001 10 2.200000000000000178 10 0 0 I I #
point $-1 -1 $-1 -1.927595652620123001 10 2.200000000000000622 #
point $-1 -1 $-1 1.927595652620123445 10 2.199999999999999289 #
ellipse-curve $-1 -1 $-1 -2.775557561562891351e-16 10 0 0 1 0 -1.927595652620122557 0 2.200000000000000622 1 I I #
face $-1 -1 $-1 $-1 $101 $5 $-1 $102 forward single #
cone-surface $-1 -1 $-1 0 0 0 0 1 0 12.5 0 0 1 I I 0 1 12.5 forward I I I I #
loop $-1 -1 $-1 $-1 $103 $70 #
coedge $-1 -1 $-1 $97 $97 $100 $104 forward $85 $-1 #
coedge $-1 -1 $-1 $98 $98 $87 $99 forward $101 $-1 #
edge $-1 -1 $-1 $105 -2.392478806025184479 $105 3.890706501154401753 $98 $106 forward @7 unknown #
coedge $-1 -1 $-1 $100 $100 $97 $104 reversed $88 $-1 #
loop $-1 -1 $-1 $107 $98 $94 #
plane-surface $-1 -1 $-1 0 12.00000000000000178 0 0 1 0 10 0 0 forward_v I I I I #
coedge $-1 -1 $-1 $103 $103 $108 $109 forward $96 $-1 #
edge $-1 -1 $-1 $110 -3.141592653589793116 $110 3.141592653589793116 $100 $111 forward @7 unknown #
vertex $-1 -1 $-1 $99 $112 #
ellipse-curve $-1 -1 $-1 -5.447920836809535317 12.00000000000000178 5.8583409388543215 -0 -1 -0 0 0 -1.500000000000000444 1 I I #
loop $-1 -1 $-1 $-1 $108 $94 #
coedge $-1 -1 $-1 $108 $108 $103 $109 reversed $107 $-1 #
edge $-1 -1 $-1 $113 -3.141592653589793116 $113 3.141592653589793116 $108 $114 forward @7 unknown #
vertex $-1 -1 $-1 $104 $115 #
ellipse-curve $-1 -1 $-1 0 10.50000000000000355 0 0 1 0 12.5 0 0 1 I I #
point $-1 -1 $-1 -6.469405993711321301 12.00000000000000178 6.95677986488950495 #
vertex $-1 -1 $-1 $109 $116 #
ellipse-curve $-1 -1 $-1 0 12.00000000000000178 0 -0 -1 -0 11 0 0 1 I I #
point $-1 -1 $-1 -12.5 10.50000000000000355 1.530808498934191521e-15 #
point $-1 -1 $-1 -11 12.00000000000000178 -1.347111479062088799e-15 #
End-of-ACIS-data 