700 0 1 0           
11 SatConsumer 24 ASM 220.3.1.1720 Unknown 24 Sun Nov 30 09:54:13 2014 
1 9.999999999999999547e-07 1.000000000000000036e-10 
body $1 -1 $-1 $2 $-1 $3 #
rgb_color-st-attrib $-1 -1 $4 $-1 $0 0.9098039215686274384 0.6784313725490196401 0.1372549019607843257 #
lump $-1 -1 $-1 $-1 $5 $0 #
transform $-1 -1 1 0 0 0 1 0 0 0 1 0 0 0 1 no_rotate no_reflect no_shear #
DXID-attrib $-1 -1 $-1 $1 $0 @10 ASM ENTITY @176 {"label":"Body1","asset":"8b3d88d1-877d-475f-a4d6-812d77fc9f69","segment":"0","entity":"327","meta":"D3937028-C20C-4E65-B010-94AD418A5C20","metaName":"BodyMetaType","extra":""} #
shell $6 -1 $-1 $-1 $-1 $7 $-1 $2 #
string_attrib-name_attrib-gen-attrib $-1 -1 $-1 $-1 $5 keep keep_kept ignore copy @17 ATF_ExternalShell @4 true #
face $-1 -1 $-1 $8 $9 $5 $-1 $10 forward single #
face $-1 -1 $-1 $11 $12 $5 $-1 $13 reversed single #
loop $-1 -1 $-1 $-1 $14 $7 #
cone-surface $-1 -1 $-1 22.88599796334012382 0 -0.7086513255864107519 0 1 0 2.247197847766438272 0 -1.987486310139994439 1 I I 0 1 3.000000000000000444 forward I I I I #
face $-1 -1 $-1 $15 $16 $5 $-1 $17 forward single #
loop $-1 -1 $-1 $-1 $18 $8 #
plane-surface $-1 -1 $-1 19.38599796334012026 -0.5 5.551115123125782702e-16 0 1 0 10 0 0 forward_v I I I I #
coedge $-1 -1 $-1 $19 $20 $21 $22 forward $9 $-1 #
face $-1 -1 $-1 $23 $24 $5 $-1 $25 forward single #
loop $-1 -1 $-1 $-1 $26 $11 #
plane-surface $-1 -1 $-1 25.88599796334012382 0 3.361937477647418238 1 0 0 -0 -0 -10 forward_v I I I I #
coedge $-1 -1 $-1 $27 $28 $29 $30 reversed $12 $-1 #
coedge $-1 -1 $-1 $29 $14 $26 $31 forward $9 $-1 #
coedge $-1 -1 $-1 $14 $29 $32 $33 forward $9 $-1 #
coedge $-1 -1 $-1 $34 $35 $14 $22 reversed $36 $-1 #
edge $-1 -1 $-1 $37 -0.7241452714875047381 $38 0.724145271487504294 $21 $39 forward @7 unknown #
face $-1 -1 $-1 $40 $36 $5 $-1 $41 forward single #
loop $-1 -1 $-1 $-1 $42 $15 #
cone-surface $-1 -1 $-1 22.88599796334012382 0 0.7086513255864104188 0 1 0 2.247197847766438272 0 1.987486310139995105 1 I I 0 1 3.000000000000000888 forward I I I I #
coedge $-1 -1 $-1 $43 $44 $19 $31 reversed $16 $-1 #
coedge $-1 -1 $-1 $45 $18 $44 $46 forward $12 $-1 #
coedge $-1 -1 $-1 $18 $47 $48 $49 forward $12 $-1 #
coedge $-1 -1 $-1 $20 $19 $18 $30 forward $9 $-1 #
edge $-1 -1 $-1 $50 -0.724145271487504294 $51 0.7241452714875047381 $18 $52 forward @7 unknown #
edge $-1 -1 $-1 $38 -0.05000000000000000278 $50 0.05000000000000000278 $26 $53 forward @7 tangent #
coedge $-1 -1 $-1 $48 $54 $20 $33 reversed $55 $-1 #
edge $-1 -1 $-1 $51 -0.05000000000000000278 $37 0.05000000000000000278 $32 $56 forward @7 tangent #
coedge $-1 -1 $-1 $57 $21 $54 $58 forward $36 $-1 #
coedge $-1 -1 $-1 $21 $59 $43 $60 forward $36 $-1 #
loop $-1 -1 $-1 $-1 $21 $23 #
vertex $-1 -1 $-1 $58 $61 #
vertex $-1 -1 $-1 $31 $62 #
ellipse-curve $-1 -1 $-1 22.88599796334012382 0.5 -0.7086513255864107519 -0 -1 -0 2.247197847766438272 0 -1.987486310139994439 1 I I #
face $-1 -1 $-1 $63 $64 $5 $-1 $65 forward single #
plane-surface $-1 -1 $-1 19.38599796334012026 0.5 5.551115123125782702e-16 0 1 0 10 0 0 forward_v I I I I #
coedge $-1 -1 $-1 $66 $67 $59 $68 forward $24 $-1 #
coedge $-1 -1 $-1 $69 $26 $35 $60 reversed $16 $-1 #
coedge $-1 -1 $-1 $26 $69 $27 $46 reversed $16 $-1 #
coedge $-1 -1 $-1 $70 $27 $71 $72 reversed $12 $-1 #
edge $-1 -1 $-1 $50 0.2653286152061001824 $73 0.4070588803233823327 $44 $74 forward @7 unknown #
coedge $-1 -1 $-1 $28 $70 $75 $76 reversed $12 $-1 #
coedge $-1 -1 $-1 $77 $32 $28 $49 reversed $55 $-1 #
edge $-1 -1 $-1 $78 0 $51 1.044487742768021699 $48 $79 forward @7 unknown #
vertex $-1 -1 $-1 $46 $80 #
vertex $-1 -1 $-1 $30 $81 #
ellipse-curve $-1 -1 $-1 22.88599796334012382 -0.5 -0.7086513255864107519 0 1 0 2.247197847766438272 0 -1.987486310139994439 1 I I #
straight-curve $-1 -1 $-1 25.88599796334012382 0 -0.7086513255864107519 0 -10 0 F -0.980001000000000233 F 0.980001000000000233 #
coedge $-1 -1 $-1 $32 $82 $34 $58 reversed $55 $-1 #
loop $-1 -1 $-1 $-1 $32 $83 #
straight-curve $-1 -1 $-1 23.25259674134419896 0 -3.686167964660981511 0 10 0 F -0.980001000000000233 F 0.980001000000000233 #
coedge $-1 -1 $-1 $84 $34 $85 $86 reversed $36 $-1 #
edge $-1 -1 $-1 $37 -1.044487742768021699 $87 -0 $54 $88 forward @7 unknown #
coedge $-1 -1 $-1 $35 $84 $42 $68 reversed $36 $-1 #
edge $-1 -1 $-1 $89 -0.4070588803233823327 $38 -0.2653286152061001824 $43 $90 forward @7 unknown #
point $-1 -1 $-1 23.25259674134419896 0.5 -3.686167964660977958 #
point $-1 -1 $-1 25.88599796334012382 0.5 -0.7086513255864107519 #
face $-1 -1 $-1 $91 $92 $5 $-1 $65 forward single #
loop $-1 -1 $-1 $-1 $75 $40 #
cone-surface $-1 -1 $-1 12.27500000000000036 0 4.780422564333380404e-16 0 1 0 0.6109979633401230181 0 4.962527731790947527 1 I I 0 1 4.999999999999998224 forward I I I I #
coedge $-1 -1 $-1 $71 $42 $93 $94 forward $24 $-1 #
coedge $-1 -1 $-1 $42 $71 $69 $95 forward $24 $-1 #
edge $-1 -1 $-1 $89 -0.724145271487504405 $96 0.7241452714875047381 $59 $97 forward @7 unknown #
coedge $-1 -1 $-1 $44 $43 $67 $95 reversed $16 $-1 #
coedge $-1 -1 $-1 $47 $45 $98 $99 forward $12 $-1 #
coedge $-1 -1 $-1 $67 $66 $45 $72 forward $24 $-1 #
edge $-1 -1 $-1 $100 -0.7241452714875047381 $73 0.724145271487504405 $45 $101 forward @7 unknown #
vertex $-1 -1 $-1 $72 $102 #
straight-curve $-1 -1 $-1 25.88599796334012382 -0.5 -3.361937477647412464 0 0 10 I I #
coedge $-1 -1 $-1 $103 $104 $47 $76 forward $64 $-1 #
edge $-1 -1 $-1 $78 -2.896581085950018064 $105 0 $75 $106 forward @7 unknown #
coedge $-1 -1 $-1 $107 $48 $104 $108 reversed $55 $-1 #
vertex $-1 -1 $-1 $108 $109 #
straight-curve $-1 -1 $-1 12.88599796334011849 -0.5 -4.962527731790947527 9.925055463581898607 0 1.221995926680247813 I I #
point $-1 -1 $-1 25.88599796334012382 -0.5 -0.7086513255864107519 #
point $-1 -1 $-1 23.25259674134419896 -0.5 -3.686167964660977958 #
coedge $-1 -1 $-1 $54 $110 $111 $112 reversed $55 $-1 #
face $-1 -1 $-1 $113 $55 $5 $-1 $114 forward single #
coedge $-1 -1 $-1 $59 $57 $115 $116 forward $36 $-1 #
coedge $-1 -1 $-1 $111 $117 $57 $86 forward $92 $-1 #
edge $-1 -1 $-1 $118 0 $87 2.896581085950018064 $85 $119 forward @7 unknown #
vertex $-1 -1 $-1 $112 $120 #
straight-curve $-1 -1 $-1 12.88599796334011849 0.5 -4.962527731790947527 -9.925055463581898607 -0 -1.221995926680247813 I I #
vertex $-1 -1 $-1 $60 $121 #
straight-curve $-1 -1 $-1 25.88599796334012382 0.5 -3.361937477647412464 -0 -0 -10 I I #
face $-1 -1 $-1 $122 $123 $5 $-1 $124 reversed single #
loop $-1 -1 $-1 $-1 $85 $63 #
coedge $-1 -1 $-1 $115 $98 $66 $94 reversed $125 $-1 #
edge $-1 -1 $-1 $96 -0.05000000000000000278 $100 0.05000000000000000278 $93 $126 forward @7 tangent #
edge $-1 -1 $-1 $73 -0.05000000000000000278 $89 0.05000000000000000278 $69 $127 forward @7 tangent #
vertex $-1 -1 $-1 $94 $128 #
ellipse-curve $-1 -1 $-1 22.88599796334012382 0.5 0.7086513255864104188 -0 -1 -0 2.247197847766438272 0 1.987486310139995105 1 I I #
coedge $-1 -1 $-1 $93 $129 $70 $99 reversed $125 $-1 #
edge $-1 -1 $-1 $100 -1.044487742768021699 $105 -0 $98 $130 forward @7 unknown #
vertex $-1 -1 $-1 $99 $131 #
ellipse-curve $-1 -1 $-1 22.88599796334012382 -0.5 0.7086513255864104188 0 1 0 2.247197847766438272 0 1.987486310139995105 1 I I #
point $-1 -1 $-1 25.88599796334012382 -0.5 0.7086513255864107519 #
coedge $-1 -1 $-1 $132 $75 $129 $133 reversed $64 $-1 #
coedge $-1 -1 $-1 $75 $132 $77 $108 forward $64 $-1 #
vertex $-1 -1 $-1 $99 $134 #
ellipse-curve $-1 -1 $-1 12.27500000000000036 -0.5 4.780422564333380404e-16 -0 -1 -0 0.6109979633401230181 0 4.962527731790947527 1 I I #
coedge $-1 -1 $-1 $135 $77 $136 $137 reversed $55 $-1 #
edge $-1 -1 $-1 $138 -0.6000000000000000888 $78 -0.05000000000000000278 $104 $139 forward @7 tangent #
point $-1 -1 $-1 12.88599796334011849 -0.5 -4.962527731790947527 #
coedge $-1 -1 $-1 $82 $135 $140 $141 reversed $55 $-1 #
coedge $-1 -1 $-1 $142 $85 $82 $112 forward $92 $-1 #
edge $-1 -1 $-1 $87 0.05000000000000000278 $143 0.6000000000000000888 $111 $139 forward @7 tangent #
face $-1 -1 $-1 $144 $125 $5 $-1 $145 forward single #
plane-surface $-1 -1 $-1 12.88599796334012026 0 -4.962527731790949304 0.1221995926680246453 0 -0.9925055463581898829 -9.925055463581898607 -0 -1.22199592668024648 forward_v I I I I #
coedge $-1 -1 $-1 $146 $93 $84 $116 reversed $125 $-1 #
edge $-1 -1 $-1 $118 0 $96 1.044487742768021699 $115 $147 forward @7 unknown #
coedge $-1 -1 $-1 $85 $142 $146 $148 reversed $92 $-1 #
vertex $-1 -1 $-1 $148 $149 #
ellipse-curve $-1 -1 $-1 12.27500000000000036 0.5 4.780422564333380404e-16 0 1 0 0.6109979633401230181 0 4.962527731790947527 1 I I #
point $-1 -1 $-1 12.88599796334011849 0.5 -4.962527731790947527 #
point $-1 -1 $-1 25.88599796334012382 0.5 0.7086513255864107519 #
face $-1 -1 $-1 $150 $151 $5 $-1 $152 forward single #
loop $-1 -1 $-1 $153 $154 $91 #
plane-surface $-1 -1 $-1 5.387499999999998401 -6.000000000000000888 0 0 1 0 10 0 0 forward_v I I I I #
loop $-1 -1 $-1 $-1 $93 $113 #
straight-curve $-1 -1 $-1 23.25259674134419896 0 3.686167964660982399 0 -10 0 F -0.980001000000000233 F 0.980001000000000233 #
straight-curve $-1 -1 $-1 25.88599796334012382 0 0.7086513255864104188 0 10 0 F -0.980001000000000233 F 0.980001000000000233 #
point $-1 -1 $-1 23.25259674134419896 0.5 3.686167964660982843 #
coedge $-1 -1 $-1 $98 $155 $103 $133 forward $125 $-1 #
straight-curve $-1 -1 $-1 12.88599796334012382 -0.5 4.962527731790948415 -9.925055463581898607 0 1.221995926680244704 I I #
point $-1 -1 $-1 23.25259674134419896 -0.5 3.686167964660982843 #
coedge $-1 -1 $-1 $104 $103 $156 $157 reversed $64 $-1 #
edge $-1 -1 $-1 $158 -0.6000000000000000888 $105 -0.05000000000000000278 $129 $159 forward @7 tangent #
point $-1 -1 $-1 12.88599796334012382 -0.5 4.962527731790948415 #
coedge $-1 -1 $-1 $110 $107 $160 $161 reversed $55 $-1 #
coedge $-1 -1 $-1 $156 $162 $107 $137 forward $163 $-1 #
edge $-1 -1 $-1 $164 0 $138 1.218300558154677971 $107 $165 forward @7 unknown #
vertex $-1 -1 $-1 $108 $166 #
straight-curve $-1 -1 $-1 12.88599796334011849 0 -4.962527731790947527 0 10 0 I I #
coedge $-1 -1 $-1 $167 $168 $110 $141 forward $169 $-1 #
edge $-1 -1 $-1 $143 -1.218300558154677971 $170 -0 $110 $171 forward @7 unknown #
coedge $-1 -1 $-1 $117 $111 $168 $172 reversed $92 $-1 #
vertex $-1 -1 $-1 $112 $173 #
face $-1 -1 $-1 $174 $175 $5 $-1 $176 forward single #
plane-surface $-1 -1 $-1 0.7942973523421590354 0 6.451286051328235516 0.1221995926680246453 0 0.9925055463581898829 9.925055463581898607 0 -1.22199592668024648 forward_v I I I I #
coedge $-1 -1 $-1 $177 $115 $117 $148 forward $125 $-1 #
straight-curve $-1 -1 $-1 12.88599796334012382 0.5 4.962527731790948415 9.925055463581898607 0 -1.221995926680244704 I I #
edge $-1 -1 $-1 $118 0.05000000000000000278 $178 0.6000000000000000888 $146 $159 forward @7 tangent #
point $-1 -1 $-1 12.88599796334012382 0.5 4.962527731790948415 #
face $-1 -1 $-1 $83 $179 $5 $-1 $180 forward single #
loop $-1 -1 $-1 $181 $182 $122 #
cone-surface $-1 -1 $-1 0 0 0 0 1 0 1.750000000000000222 0 0 1 I I 0 -1 1.750000000000000222 forward I I I I #
loop $-1 -1 $-1 $163 $183 $91 #
coedge $-1 -1 $-1 $154 $154 $184 $185 forward $123 $-1 #
coedge $-1 -1 $-1 $129 $186 $187 $188 reversed $125 $-1 #
coedge $-1 -1 $-1 $187 $136 $132 $157 forward $163 $-1 #
edge $-1 -1 $-1 $138 -2.896581085950018064 $158 -0 $132 $189 forward @7 unknown #
vertex $-1 -1 $-1 $133 $190 #
straight-curve $-1 -1 $-1 12.88599796334012382 0 4.962527731790948415 0 10 0 I I #
coedge $-1 -1 $-1 $191 $192 $135 $161 forward $175 $-1 #
edge $-1 -1 $-1 $170 -0.6000000000000000888 $164 0.6000000000000000888 $160 $193 forward @7 tangent #
coedge $-1 -1 $-1 $136 $187 $191 $194 forward $163 $-1 #
loop $-1 -1 $-1 $-1 $162 $91 #
vertex $-1 -1 $-1 $161 $195 #
straight-curve $-1 -1 $-1 0.7942973523421598125 -6.000000000000000888 -6.451286051328235516 9.925055463581898607 0 1.221995926680246258 I I #
point $-1 -1 $-1 12.88599796334011849 -6.000000000000000888 -4.962527731790947527 #
coedge $-1 -1 $-1 $196 $140 $192 $197 forward $169 $-1 #
coedge $-1 -1 $-1 $140 $196 $142 $172 forward $169 $-1 #
loop $-1 -1 $-1 $-1 $167 $174 #
vertex $-1 -1 $-1 $161 $198 #
straight-curve $-1 -1 $-1 0.7942973523421598125 6.000000000000000888 -6.451286051328235516 -9.925055463581898607 -0 -1.221995926680246258 I I #
edge $-1 -1 $-1 $178 0 $143 2.896581085950018064 $142 $199 forward @7 unknown #
point $-1 -1 $-1 12.88599796334011849 6.000000000000000888 -4.962527731790947527 #
face $-1 -1 $-1 $-1 $200 $5 $-1 $201 forward single #
loop $-1 -1 $-1 $-1 $202 $144 #
cone-surface $-1 -1 $-1 2.220446049250313081e-15 0 -4.075295328995686222e-16 0 1 0 0.7942973523421575921 0 -6.451286051328235516 1 I I 0 1 6.500000000000001776 forward I I I I #
coedge $-1 -1 $-1 $186 $146 $196 $203 reversed $125 $-1 #
vertex $-1 -1 $-1 $148 $204 #
loop $-1 -1 $-1 $205 $184 $150 #
cone-surface $-1 -1 $-1 12.27500000000000036 0 0 0 1 0 1.750000000000000444 0 0 1 I I 0 -1 1.750000000000000444 forward I I I I #
loop $-1 -1 $-1 $-1 $206 $122 #
coedge $-1 -1 $-1 $182 $182 $183 $207 reversed $151 $-1 #
coedge $-1 -1 $-1 $183 $183 $182 $207 forward $153 $-1 #
coedge $-1 -1 $-1 $184 $184 $154 $185 reversed $179 $-1 #
edge $-1 -1 $-1 $208 -3.141592653589793116 $208 3.141592653589793116 $184 $209 forward @7 unknown #
coedge $-1 -1 $-1 $155 $177 $202 $210 reversed $125 $-1 #
coedge $-1 -1 $-1 $162 $156 $155 $188 forward $163 $-1 #
edge $-1 -1 $-1 $158 -1.218300558154678193 $211 -0 $155 $212 forward @7 unknown #
ellipse-curve $-1 -1 $-1 12.27500000000000036 -6.000000000000000888 4.780422564333380404e-16 -0 -1 -0 0.6109979633401230181 0 4.962527731790947527 1 I I #
point $-1 -1 $-1 12.88599796334012382 -6.000000000000000888 4.962527731790948415 #
coedge $-1 -1 $-1 $202 $160 $162 $194 reversed $175 $-1 #
coedge $-1 -1 $-1 $160 $202 $167 $197 reversed $175 $-1 #
straight-curve $-1 -1 $-1 0.7942973523421598125 0 -6.451286051328235516 0 -10 0 I I #
edge $-1 -1 $-1 $211 -3.386604221229566836 $164 -0 $191 $213 forward @7 unknown #
point $-1 -1 $-1 0.7942973523421592574 -6.000000000000000888 -6.451286051328235516 #
coedge $-1 -1 $-1 $168 $167 $177 $203 forward $169 $-1 #
edge $-1 -1 $-1 $170 0 $214 3.386604221229566836 $192 $215 forward @7 unknown #
point $-1 -1 $-1 0.7942973523421592574 6.000000000000000888 -6.451286051328235516 #
ellipse-curve $-1 -1 $-1 12.27500000000000036 6.000000000000000888 4.780422564333380404e-16 0 1 0 0.6109979633401230181 0 4.962527731790947527 1 I I #
loop $-1 -1 $-1 $216 $217 $174 #
plane-surface $-1 -1 $-1 5.387499999999998401 6.000000000000000888 0 0 1 0 10 0 0 forward_v I I I I #
coedge $-1 -1 $-1 $192 $191 $186 $210 forward $175 $-1 #
edge $-1 -1 $-1 $214 0 $178 1.218300558154678193 $177 $218 forward @7 unknown #
point $-1 -1 $-1 12.88599796334012382 6.000000000000000888 4.962527731790948415 #
loop $-1 -1 $-1 $-1 $219 $150 #
coedge $-1 -1 $-1 $206 $206 $220 $221 reversed $181 $-1 #
edge $-1 -1 $-1 $222 -3.141592653589793116 $222 3.141592653589793116 $182 $223 forward @7 unknown #
vertex $-1 -1 $-1 $185 $224 #
ellipse-curve $-1 -1 $-1 12.27500000000000036 -6.000000000000000888 0 0 1 0 1.750000000000000444 0 0 1 I I #
edge $-1 -1 $-1 $211 -0.6000000000000000888 $214 0.6000000000000000888 $202 $225 forward @7 tangent #
vertex $-1 -1 $-1 $210 $226 #
straight-curve $-1 -1 $-1 0.7942973523421590354 -6.000000000000000888 6.451286051328235516 -9.925055463581898607 0 1.221995926680246258 I I #
ellipse-curve $-1 -1 $-1 2.220446049250313081e-15 -6.000000000000000888 -4.075295328995686222e-16 -0 -1 -0 0.7942973523421575921 0 -6.451286051328235516 1 I I #
vertex $-1 -1 $-1 $210 $227 #
ellipse-curve $-1 -1 $-1 2.220446049250313081e-15 6.000000000000000888 -4.075295328995686222e-16 0 1 0 0.7942973523421575921 0 -6.451286051328235516 1 I I #
loop $-1 -1 $-1 $169 $220 $174 #
coedge $-1 -1 $-1 $217 $217 $219 $228 forward $200 $-1 #
straight-curve $-1 -1 $-1 0.7942973523421590354 6.000000000000000888 6.451286051328235516 9.925055463581898607 0 -1.221995926680246258 I I #
coedge $-1 -1 $-1 $219 $219 $217 $228 reversed $205 $-1 #
coedge $-1 -1 $-1 $220 $220 $206 $221 forward $216 $-1 #
edge $-1 -1 $-1 $229 -3.141592653589793116 $229 3.141592653589793116 $206 $230 forward @7 unknown #
vertex $-1 -1 $-1 $207 $231 #
ellipse-curve $-1 -1 $-1 0 -6.000000000000000888 0 0 1 0 1.750000000000000222 0 0 1 I I #
point $-1 -1 $-1 10.52500000000000036 -6.000000000000000888 2.143131898507868544e-16 #
straight-curve $-1 -1 $-1 0.7942973523421527071 0 6.451286051328236404 0 10 0 I I #
point $-1 -1 $-1 0.7942973523421525961 -6.000000000000000888 6.451286051328236404 #
point $-1 -1 $-1 0.7942973523421525961 6.000000000000000888 6.451286051328236404 #
edge $-1 -1 $-1 $232 -3.141592653589793116 $232 3.141592653589793116 $219 $233 forward @7 unknown #
vertex $-1 -1 $-1 $221 $234 #
ellipse-curve $-1 -1 $-1 0 6.000000000000000888 0 0 -1 0 1.750000000000000222 0 0 1 I I #
point $-1 -1 $-1 -1.750000000000000444 -6.000000000000000888 2.143131898507868297e-16 #
vertex $-1 -1 $-1 $228 $235 #
ellipse-curve $-1 -1 $-1 12.27500000000000036 6.000000000000000888 0 0 -1 0 1.750000000000000444 0 0 1 I I #
point $-1 -1 $-1 -1.750000000000000444 6.000000000000000888 2.143131898507868297e-16 #
point $-1 -1 $-1 10.52500000000000036 6.000000000000000888 2.143131898507868544e-16 #
End-of-ACIS-data 