%
M48
M72
T01C0.0197
T02C0.0512
T03C0.0827
%
T01
X1065Y957
X1143Y1941
X1419Y3043
X1773Y3437
X2049Y3949
X2088Y4697
X2403Y5406
X1065Y5366
X1025Y6508
X710Y7965
X2521Y8831
X2600Y7413
X3230Y6784
X4529Y6665
X5671Y6744
X6852Y6784
X7443Y7335
X8742Y7689
X7521Y8949
X5592Y8910
X4096Y8949
X7167Y5917
X8309Y4461
X8466Y3240
X8939Y2532
X9057Y1626
X8939Y721
X9450Y4933
X7521Y1665
X7521Y642
X5868Y1705
X4687Y1665
X3545Y1784
X2443Y1587
T02
X2226Y6248
X1990Y8197
X7935Y6248
X8171Y8197
T03
X946Y3992
X946Y8913
X9214Y8913
X9214Y3992
M30
