G75*
%MOIN*%
%OFA0B0*%
%FSLAX24Y24*%
%IPPOS*%
%LPD*%
%AMOC8*
5,1,8,0,0,1.08239X$1,22.5*
%
%ADD10C,0.0118*%
%ADD11C,0.0000*%
%ADD12C,0.0060*%
%ADD13C,0.0050*%
%ADD14C,0.0040*%
%ADD15R,0.0072X0.0004*%
%ADD16R,0.0080X0.0004*%
%ADD17R,0.0152X0.0004*%
%ADD18R,0.0144X0.0004*%
%ADD19R,0.0194X0.0004*%
%ADD20R,0.0190X0.0004*%
%ADD21R,0.0224X0.0004*%
%ADD22R,0.0220X0.0004*%
%ADD23R,0.0236X0.0004*%
%ADD24R,0.0220X0.0004*%
%ADD25R,0.0251X0.0004*%
%ADD26R,0.0247X0.0004*%
%ADD27R,0.0243X0.0004*%
%ADD28R,0.0274X0.0004*%
%ADD29R,0.0266X0.0004*%
%ADD30R,0.0293X0.0004*%
%ADD31R,0.0285X0.0004*%
%ADD32R,0.0236X0.0004*%
%ADD33R,0.0308X0.0004*%
%ADD34R,0.0300X0.0004*%
%ADD35R,0.0319X0.0004*%
%ADD36R,0.0334X0.0004*%
%ADD37R,0.0224X0.0004*%
%ADD38R,0.0331X0.0004*%
%ADD39R,0.0346X0.0004*%
%ADD40R,0.0357X0.0004*%
%ADD41R,0.0369X0.0004*%
%ADD42R,0.0380X0.0004*%
%ADD43R,0.0376X0.0004*%
%ADD44R,0.0239X0.0004*%
%ADD45R,0.0388X0.0004*%
%ADD46R,0.0388X0.0004*%
%ADD47R,0.0395X0.0004*%
%ADD48R,0.0403X0.0004*%
%ADD49R,0.0410X0.0004*%
%ADD50R,0.0414X0.0004*%
%ADD51R,0.0422X0.0004*%
%ADD52R,0.0426X0.0004*%
%ADD53R,0.0433X0.0004*%
%ADD54R,0.0437X0.0004*%
%ADD55R,0.0445X0.0004*%
%ADD56R,0.0448X0.0004*%
%ADD57R,0.0232X0.0004*%
%ADD58R,0.0456X0.0004*%
%ADD59R,0.0460X0.0004*%
%ADD60R,0.0464X0.0004*%
%ADD61R,0.0467X0.0004*%
%ADD62R,0.0471X0.0004*%
%ADD63R,0.0475X0.0004*%
%ADD64R,0.0479X0.0004*%
%ADD65R,0.0483X0.0004*%
%ADD66R,0.0486X0.0004*%
%ADD67R,0.0490X0.0004*%
%ADD68R,0.0494X0.0004*%
%ADD69R,0.0498X0.0004*%
%ADD70R,0.0505X0.0004*%
%ADD71R,0.0502X0.0004*%
%ADD72R,0.0232X0.0004*%
%ADD73R,0.0509X0.0004*%
%ADD74R,0.0217X0.0004*%
%ADD75R,0.0513X0.0004*%
%ADD76R,0.0213X0.0004*%
%ADD77R,0.0517X0.0004*%
%ADD78R,0.0209X0.0004*%
%ADD79R,0.0247X0.0004*%
%ADD80R,0.0205X0.0004*%
%ADD81R,0.0228X0.0004*%
%ADD82R,0.0201X0.0004*%
%ADD83R,0.0213X0.0004*%
%ADD84R,0.0209X0.0004*%
%ADD85R,0.0255X0.0004*%
%ADD86R,0.0201X0.0004*%
%ADD87R,0.0471X0.0004*%
%ADD88R,0.0559X0.0004*%
%ADD89R,0.0452X0.0004*%
%ADD90R,0.0441X0.0004*%
%ADD91R,0.0399X0.0004*%
%ADD92R,0.0418X0.0004*%
%ADD93R,0.0483X0.0004*%
%ADD94R,0.0555X0.0004*%
%ADD95R,0.0494X0.0004*%
%ADD96R,0.0414X0.0004*%
%ADD97R,0.0555X0.0004*%
%ADD98R,0.0524X0.0004*%
%ADD99R,0.0407X0.0004*%
%ADD100R,0.0528X0.0004*%
%ADD101R,0.0532X0.0004*%
%ADD102R,0.0536X0.0004*%
%ADD103R,0.0543X0.0004*%
%ADD104R,0.0551X0.0004*%
%ADD105R,0.0547X0.0004*%
%ADD106R,0.0429X0.0004*%
%ADD107R,0.0562X0.0004*%
%ADD108R,0.0566X0.0004*%
%ADD109R,0.0437X0.0004*%
%ADD110R,0.0517X0.0004*%
%ADD111R,0.0570X0.0004*%
%ADD112R,0.0574X0.0004*%
%ADD113R,0.0262X0.0004*%
%ADD114R,0.0578X0.0004*%
%ADD115R,0.0581X0.0004*%
%ADD116R,0.0581X0.0004*%
%ADD117R,0.0585X0.0004*%
%ADD118R,0.0315X0.0004*%
%ADD119R,0.0198X0.0004*%
%ADD120R,0.0589X0.0004*%
%ADD121R,0.0015X0.0004*%
%ADD122R,0.0593X0.0004*%
%ADD123R,0.0597X0.0004*%
%ADD124R,0.0600X0.0004*%
%ADD125R,0.0600X0.0004*%
%ADD126R,0.0604X0.0004*%
%ADD127R,0.0277X0.0004*%
%ADD128R,0.0258X0.0004*%
%ADD129R,0.0509X0.0004*%
%ADD130R,0.0486X0.0004*%
%ADD131R,0.0505X0.0004*%
%ADD132R,0.0498X0.0004*%
%ADD133R,0.0186X0.0004*%
%ADD134R,0.0182X0.0004*%
%ADD135R,0.0179X0.0004*%
%ADD136R,0.0175X0.0004*%
%ADD137R,0.0171X0.0004*%
%ADD138R,0.0167X0.0004*%
%ADD139R,0.0163X0.0004*%
%ADD140R,0.0084X0.0004*%
%ADD141R,0.0061X0.0004*%
%ADD142R,0.0160X0.0004*%
%ADD143R,0.0065X0.0004*%
%ADD144R,0.0426X0.0004*%
%ADD145R,0.0076X0.0004*%
%ADD146R,0.0384X0.0004*%
%ADD147R,0.0068X0.0004*%
%ADD148R,0.0148X0.0004*%
%ADD149R,0.0372X0.0004*%
%ADD150R,0.0410X0.0004*%
%ADD151R,0.0365X0.0004*%
%ADD152R,0.0080X0.0004*%
%ADD153R,0.0353X0.0004*%
%ADD154R,0.0068X0.0004*%
%ADD155R,0.0137X0.0004*%
%ADD156R,0.0338X0.0004*%
%ADD157R,0.0133X0.0004*%
%ADD158R,0.0376X0.0004*%
%ADD159R,0.0129X0.0004*%
%ADD160R,0.0125X0.0004*%
%ADD161R,0.0118X0.0004*%
%ADD162R,0.0342X0.0004*%
%ADD163R,0.0114X0.0004*%
%ADD164R,0.0331X0.0004*%
%ADD165R,0.0106X0.0004*%
%ADD166R,0.0099X0.0004*%
%ADD167R,0.0087X0.0004*%
%ADD168R,0.0281X0.0004*%
%ADD169R,0.0258X0.0004*%
%ADD170R,0.0053X0.0004*%
%ADD171R,0.0152X0.0004*%
%ADD172R,0.0091X0.0004*%
%ADD173R,0.0095X0.0004*%
%ADD174R,0.0091X0.0004*%
%ADD175R,0.0103X0.0004*%
%ADD176R,0.0532X0.0004*%
%ADD177R,0.0110X0.0004*%
%ADD178R,0.0589X0.0004*%
%ADD179R,0.0057X0.0004*%
%ADD180R,0.0566X0.0004*%
%ADD181R,0.0540X0.0004*%
%ADD182R,0.0057X0.0004*%
%ADD183R,0.0521X0.0004*%
%ADD184R,0.0129X0.0004*%
%ADD185R,0.0122X0.0004*%
%ADD186R,0.0391X0.0004*%
%ADD187R,0.0114X0.0004*%
%ADD188R,0.0005X0.0003*%
%ADD189R,0.0008X0.0003*%
%ADD190R,0.0013X0.0003*%
%ADD191R,0.0020X0.0003*%
%ADD192R,0.0025X0.0003*%
%ADD193R,0.0032X0.0003*%
%ADD194R,0.0030X0.0003*%
%ADD195R,0.0037X0.0003*%
%ADD196R,0.0045X0.0003*%
%ADD197R,0.0043X0.0003*%
%ADD198R,0.0050X0.0003*%
%ADD199R,0.0055X0.0003*%
%ADD200R,0.0063X0.0003*%
%ADD201R,0.0067X0.0003*%
%ADD202R,0.0075X0.0003*%
%ADD203R,0.0080X0.0003*%
%ADD204R,0.0088X0.0003*%
%ADD205R,0.0090X0.0003*%
%ADD206R,0.0092X0.0003*%
%ADD207R,0.0098X0.0003*%
%ADD208R,0.0103X0.0003*%
%ADD209R,0.0105X0.0003*%
%ADD210R,0.0107X0.0003*%
%ADD211R,0.0110X0.0003*%
%ADD212R,0.0115X0.0003*%
%ADD213R,0.0010X0.0003*%
%ADD214R,0.0118X0.0003*%
%ADD215R,0.0120X0.0003*%
%ADD216R,0.0018X0.0003*%
%ADD217R,0.0123X0.0003*%
%ADD218R,0.0130X0.0003*%
%ADD219R,0.0022X0.0003*%
%ADD220R,0.0135X0.0003*%
%ADD221R,0.0143X0.0003*%
%ADD222R,0.0035X0.0003*%
%ADD223R,0.0145X0.0003*%
%ADD224R,0.0040X0.0003*%
%ADD225R,0.0147X0.0003*%
%ADD226R,0.0155X0.0003*%
%ADD227R,0.0047X0.0003*%
%ADD228R,0.0163X0.0003*%
%ADD229R,0.0053X0.0003*%
%ADD230R,0.0160X0.0003*%
%ADD231R,0.0227X0.0003*%
%ADD232R,0.0230X0.0003*%
%ADD233R,0.0235X0.0003*%
%ADD234R,0.0238X0.0003*%
%ADD235R,0.0243X0.0003*%
%ADD236R,0.0240X0.0003*%
%ADD237R,0.0245X0.0003*%
%ADD238R,0.0248X0.0003*%
%ADD239R,0.0253X0.0003*%
%ADD240R,0.0255X0.0003*%
%ADD241R,0.0250X0.0003*%
%ADD242R,0.0233X0.0003*%
%ADD243R,0.0257X0.0003*%
%ADD244R,0.0260X0.0003*%
%ADD245R,0.0262X0.0003*%
%ADD246R,0.0265X0.0003*%
%ADD247R,0.0267X0.0003*%
%ADD248R,0.0270X0.0003*%
%ADD249R,0.0273X0.0003*%
%ADD250R,0.0275X0.0003*%
%ADD251R,0.0278X0.0003*%
%ADD252R,0.0290X0.0003*%
%ADD253R,0.0302X0.0003*%
%ADD254R,0.0313X0.0003*%
%ADD255R,0.0310X0.0003*%
%ADD256R,0.0323X0.0003*%
%ADD257R,0.0325X0.0003*%
%ADD258R,0.0335X0.0003*%
%ADD259R,0.0348X0.0003*%
%ADD260R,0.0345X0.0003*%
%ADD261R,0.0343X0.0003*%
%ADD262R,0.0340X0.0003*%
%ADD263R,0.0338X0.0003*%
%ADD264R,0.0333X0.0003*%
%ADD265R,0.0350X0.0003*%
%ADD266R,0.0330X0.0003*%
%ADD267R,0.0318X0.0003*%
%ADD268R,0.0305X0.0003*%
%ADD269R,0.0295X0.0003*%
%ADD270R,0.0285X0.0003*%
%ADD271R,0.0283X0.0003*%
%ADD272R,0.0280X0.0003*%
%ADD273R,0.0288X0.0003*%
%ADD274R,0.0293X0.0003*%
%ADD275R,0.0308X0.0003*%
%ADD276R,0.0645X0.0003*%
%ADD277R,0.0643X0.0003*%
%ADD278R,0.0640X0.0003*%
%ADD279R,0.0635X0.0003*%
%ADD280R,0.0633X0.0003*%
%ADD281R,0.0630X0.0003*%
%ADD282R,0.0625X0.0003*%
%ADD283R,0.0620X0.0003*%
%ADD284R,0.0617X0.0003*%
%ADD285R,0.0615X0.0003*%
%ADD286R,0.0610X0.0003*%
%ADD287R,0.0648X0.0003*%
%ADD288R,0.0653X0.0003*%
%ADD289R,0.0655X0.0003*%
%ADD290R,0.0660X0.0003*%
%ADD291R,0.0663X0.0003*%
%ADD292R,0.0665X0.0003*%
%ADD293R,0.0670X0.0003*%
%ADD294R,0.0673X0.0003*%
%ADD295R,0.0675X0.0003*%
%ADD296R,0.0680X0.0003*%
%ADD297R,0.0683X0.0003*%
%ADD298R,0.0685X0.0003*%
%ADD299R,0.0690X0.0003*%
%ADD300R,0.0693X0.0003*%
%ADD301R,0.0695X0.0003*%
%ADD302R,0.0700X0.0003*%
%ADD303R,0.0705X0.0003*%
%ADD304R,0.0710X0.0003*%
%ADD305R,0.0715X0.0003*%
%ADD306R,0.0720X0.0003*%
%ADD307R,0.0725X0.0003*%
%ADD308R,0.0727X0.0003*%
%ADD309R,0.0730X0.0003*%
%ADD310R,0.0735X0.0003*%
%ADD311R,0.0737X0.0003*%
%ADD312R,0.0740X0.0003*%
%ADD313R,0.0745X0.0003*%
%ADD314R,0.0747X0.0003*%
%ADD315R,0.0175X0.0003*%
%ADD316R,0.0168X0.0003*%
%ADD317R,0.0320X0.0003*%
%ADD318R,0.0150X0.0003*%
%ADD319R,0.0138X0.0003*%
%ADD320R,0.0133X0.0003*%
%ADD321R,0.0125X0.0003*%
%ADD322R,0.0113X0.0003*%
%ADD323R,0.0220X0.0003*%
%ADD324R,0.0210X0.0003*%
%ADD325R,0.0100X0.0003*%
%ADD326R,0.0200X0.0003*%
%ADD327R,0.0095X0.0003*%
%ADD328R,0.0185X0.0003*%
%ADD329R,0.0180X0.0003*%
%ADD330R,0.0083X0.0003*%
%ADD331R,0.0170X0.0003*%
%ADD332R,0.0070X0.0003*%
%ADD333R,0.0057X0.0003*%
%ADD334R,0.0165X0.0003*%
%ADD335R,0.0027X0.0003*%
%ADD336R,0.0015X0.0003*%
%ADD337R,0.0158X0.0003*%
%ADD338R,0.0153X0.0003*%
%ADD339R,0.0140X0.0003*%
%ADD340R,0.3990X0.0010*%
%ADD341R,0.4010X0.0010*%
%ADD342R,0.4030X0.0010*%
%ADD343R,0.1910X0.0010*%
%ADD344R,0.0170X0.0010*%
%ADD345R,0.0670X0.0010*%
%ADD346R,0.0060X0.0010*%
%ADD347R,0.0120X0.0010*%
%ADD348R,0.0780X0.0010*%
%ADD349R,0.0640X0.0010*%
%ADD350R,0.0040X0.0010*%
%ADD351R,0.0110X0.0010*%
%ADD352R,0.0770X0.0010*%
%ADD353R,0.0100X0.0010*%
%ADD354R,0.0630X0.0010*%
%ADD355R,0.0020X0.0010*%
%ADD356R,0.0610X0.0010*%
%ADD357R,0.1120X0.0010*%
%ADD358R,0.0090X0.0010*%
%ADD359R,0.0620X0.0010*%
%ADD360R,0.0560X0.0010*%
%ADD361R,0.1070X0.0010*%
%ADD362R,0.0530X0.0010*%
%ADD363R,0.1030X0.0010*%
%ADD364R,0.0070X0.0010*%
%ADD365R,0.0080X0.0010*%
%ADD366R,0.0790X0.0010*%
%ADD367R,0.0500X0.0010*%
%ADD368R,0.1010X0.0010*%
%ADD369R,0.0030X0.0010*%
%ADD370R,0.0470X0.0010*%
%ADD371R,0.0980X0.0010*%
%ADD372R,0.0600X0.0010*%
%ADD373R,0.0450X0.0010*%
%ADD374R,0.0960X0.0010*%
%ADD375R,0.0800X0.0010*%
%ADD376R,0.0430X0.0010*%
%ADD377R,0.0940X0.0010*%
%ADD378R,0.0700X0.0010*%
%ADD379R,0.0410X0.0010*%
%ADD380R,0.0920X0.0010*%
%ADD381R,0.0660X0.0010*%
%ADD382R,0.0810X0.0010*%
%ADD383R,0.0390X0.0010*%
%ADD384R,0.0900X0.0010*%
%ADD385R,0.0050X0.0010*%
%ADD386R,0.0380X0.0010*%
%ADD387R,0.0880X0.0010*%
%ADD388R,0.0360X0.0010*%
%ADD389R,0.0870X0.0010*%
%ADD390R,0.0590X0.0010*%
%ADD391R,0.0820X0.0010*%
%ADD392R,0.0350X0.0010*%
%ADD393R,0.0860X0.0010*%
%ADD394R,0.0580X0.0010*%
%ADD395R,0.0130X0.0010*%
%ADD396R,0.0010X0.0010*%
%ADD397R,0.0330X0.0010*%
%ADD398R,0.0840X0.0010*%
%ADD399R,0.0570X0.0010*%
%ADD400R,0.0320X0.0010*%
%ADD401R,0.0240X0.0010*%
%ADD402R,0.0830X0.0010*%
%ADD403R,0.0310X0.0010*%
%ADD404R,0.0300X0.0010*%
%ADD405R,0.0370X0.0010*%
%ADD406R,0.0550X0.0010*%
%ADD407R,0.0290X0.0010*%
%ADD408R,0.0420X0.0010*%
%ADD409R,0.0280X0.0010*%
%ADD410R,0.0460X0.0010*%
%ADD411R,0.0270X0.0010*%
%ADD412R,0.0850X0.0010*%
%ADD413R,0.0260X0.0010*%
%ADD414R,0.0250X0.0010*%
%ADD415R,0.1750X0.0010*%
%ADD416R,0.1060X0.0010*%
%ADD417R,0.0230X0.0010*%
%ADD418R,0.2870X0.0010*%
%ADD419R,0.0200X0.0010*%
%ADD420R,0.2860X0.0010*%
%ADD421R,0.0220X0.0010*%
%ADD422R,0.0180X0.0010*%
%ADD423R,0.2850X0.0010*%
%ADD424R,0.0160X0.0010*%
%ADD425R,0.2840X0.0010*%
%ADD426R,0.0210X0.0010*%
%ADD427R,0.0150X0.0010*%
%ADD428R,0.0140X0.0010*%
%ADD429R,0.2830X0.0010*%
%ADD430R,0.0190X0.0010*%
%ADD431R,0.2820X0.0010*%
%ADD432R,0.2810X0.0010*%
%ADD433R,0.0490X0.0010*%
%ADD434R,0.0340X0.0010*%
%ADD435R,0.3970X0.0010*%
%ADD436R,0.3950X0.0010*%
%ADD437R,0.3890X0.0010*%
%ADD438C,0.0010*%
%ADD439C,0.0080*%
D10*
X000159Y000169D02*
X000159Y009618D01*
X010002Y009618D01*
X010002Y000169D01*
X000159Y000169D01*
D11*
X000533Y003992D02*
X000535Y004032D01*
X000541Y004073D01*
X000551Y004112D01*
X000564Y004150D01*
X000582Y004187D01*
X000603Y004221D01*
X000627Y004254D01*
X000654Y004284D01*
X000684Y004311D01*
X000717Y004335D01*
X000751Y004356D01*
X000788Y004374D01*
X000826Y004387D01*
X000865Y004397D01*
X000906Y004403D01*
X000946Y004405D01*
X000986Y004403D01*
X001027Y004397D01*
X001066Y004387D01*
X001104Y004374D01*
X001141Y004356D01*
X001175Y004335D01*
X001208Y004311D01*
X001238Y004284D01*
X001265Y004254D01*
X001289Y004221D01*
X001310Y004187D01*
X001328Y004150D01*
X001341Y004112D01*
X001351Y004073D01*
X001357Y004032D01*
X001359Y003992D01*
X001357Y003952D01*
X001351Y003911D01*
X001341Y003872D01*
X001328Y003834D01*
X001310Y003797D01*
X001289Y003763D01*
X001265Y003730D01*
X001238Y003700D01*
X001208Y003673D01*
X001175Y003649D01*
X001141Y003628D01*
X001104Y003610D01*
X001066Y003597D01*
X001027Y003587D01*
X000986Y003581D01*
X000946Y003579D01*
X000906Y003581D01*
X000865Y003587D01*
X000826Y003597D01*
X000788Y003610D01*
X000751Y003628D01*
X000717Y003649D01*
X000684Y003673D01*
X000654Y003700D01*
X000627Y003730D01*
X000603Y003763D01*
X000582Y003797D01*
X000564Y003834D01*
X000551Y003872D01*
X000541Y003911D01*
X000535Y003952D01*
X000533Y003992D01*
X000533Y008913D02*
X000535Y008953D01*
X000541Y008994D01*
X000551Y009033D01*
X000564Y009071D01*
X000582Y009108D01*
X000603Y009142D01*
X000627Y009175D01*
X000654Y009205D01*
X000684Y009232D01*
X000717Y009256D01*
X000751Y009277D01*
X000788Y009295D01*
X000826Y009308D01*
X000865Y009318D01*
X000906Y009324D01*
X000946Y009326D01*
X000986Y009324D01*
X001027Y009318D01*
X001066Y009308D01*
X001104Y009295D01*
X001141Y009277D01*
X001175Y009256D01*
X001208Y009232D01*
X001238Y009205D01*
X001265Y009175D01*
X001289Y009142D01*
X001310Y009108D01*
X001328Y009071D01*
X001341Y009033D01*
X001351Y008994D01*
X001357Y008953D01*
X001359Y008913D01*
X001357Y008873D01*
X001351Y008832D01*
X001341Y008793D01*
X001328Y008755D01*
X001310Y008718D01*
X001289Y008684D01*
X001265Y008651D01*
X001238Y008621D01*
X001208Y008594D01*
X001175Y008570D01*
X001141Y008549D01*
X001104Y008531D01*
X001066Y008518D01*
X001027Y008508D01*
X000986Y008502D01*
X000946Y008500D01*
X000906Y008502D01*
X000865Y008508D01*
X000826Y008518D01*
X000788Y008531D01*
X000751Y008549D01*
X000717Y008570D01*
X000684Y008594D01*
X000654Y008621D01*
X000627Y008651D01*
X000603Y008684D01*
X000582Y008718D01*
X000564Y008755D01*
X000551Y008793D01*
X000541Y008832D01*
X000535Y008873D01*
X000533Y008913D01*
X008801Y008913D02*
X008803Y008953D01*
X008809Y008994D01*
X008819Y009033D01*
X008832Y009071D01*
X008850Y009108D01*
X008871Y009142D01*
X008895Y009175D01*
X008922Y009205D01*
X008952Y009232D01*
X008985Y009256D01*
X009019Y009277D01*
X009056Y009295D01*
X009094Y009308D01*
X009133Y009318D01*
X009174Y009324D01*
X009214Y009326D01*
X009254Y009324D01*
X009295Y009318D01*
X009334Y009308D01*
X009372Y009295D01*
X009409Y009277D01*
X009443Y009256D01*
X009476Y009232D01*
X009506Y009205D01*
X009533Y009175D01*
X009557Y009142D01*
X009578Y009108D01*
X009596Y009071D01*
X009609Y009033D01*
X009619Y008994D01*
X009625Y008953D01*
X009627Y008913D01*
X009625Y008873D01*
X009619Y008832D01*
X009609Y008793D01*
X009596Y008755D01*
X009578Y008718D01*
X009557Y008684D01*
X009533Y008651D01*
X009506Y008621D01*
X009476Y008594D01*
X009443Y008570D01*
X009409Y008549D01*
X009372Y008531D01*
X009334Y008518D01*
X009295Y008508D01*
X009254Y008502D01*
X009214Y008500D01*
X009174Y008502D01*
X009133Y008508D01*
X009094Y008518D01*
X009056Y008531D01*
X009019Y008549D01*
X008985Y008570D01*
X008952Y008594D01*
X008922Y008621D01*
X008895Y008651D01*
X008871Y008684D01*
X008850Y008718D01*
X008832Y008755D01*
X008819Y008793D01*
X008809Y008832D01*
X008803Y008873D01*
X008801Y008913D01*
X008801Y003992D02*
X008803Y004032D01*
X008809Y004073D01*
X008819Y004112D01*
X008832Y004150D01*
X008850Y004187D01*
X008871Y004221D01*
X008895Y004254D01*
X008922Y004284D01*
X008952Y004311D01*
X008985Y004335D01*
X009019Y004356D01*
X009056Y004374D01*
X009094Y004387D01*
X009133Y004397D01*
X009174Y004403D01*
X009214Y004405D01*
X009254Y004403D01*
X009295Y004397D01*
X009334Y004387D01*
X009372Y004374D01*
X009409Y004356D01*
X009443Y004335D01*
X009476Y004311D01*
X009506Y004284D01*
X009533Y004254D01*
X009557Y004221D01*
X009578Y004187D01*
X009596Y004150D01*
X009609Y004112D01*
X009619Y004073D01*
X009625Y004032D01*
X009627Y003992D01*
X009625Y003952D01*
X009619Y003911D01*
X009609Y003872D01*
X009596Y003834D01*
X009578Y003797D01*
X009557Y003763D01*
X009533Y003730D01*
X009506Y003700D01*
X009476Y003673D01*
X009443Y003649D01*
X009409Y003628D01*
X009372Y003610D01*
X009334Y003597D01*
X009295Y003587D01*
X009254Y003581D01*
X009214Y003579D01*
X009174Y003581D01*
X009133Y003587D01*
X009094Y003597D01*
X009056Y003610D01*
X009019Y003628D01*
X008985Y003649D01*
X008952Y003673D01*
X008922Y003700D01*
X008895Y003730D01*
X008871Y003763D01*
X008850Y003797D01*
X008832Y003834D01*
X008819Y003872D01*
X008809Y003911D01*
X008803Y003952D01*
X008801Y003992D01*
D12*
X008859Y003988D02*
X008859Y003877D01*
X008914Y003821D01*
X009026Y003821D01*
X009081Y003877D01*
X009081Y003988D01*
X009026Y004044D01*
X008914Y004044D01*
X008859Y003988D01*
X008733Y003877D02*
X008733Y003821D01*
X008677Y003821D01*
X008677Y003877D01*
X008733Y003877D01*
X008542Y003821D02*
X008375Y003933D01*
X008542Y004044D01*
X008375Y004155D02*
X008375Y003821D01*
X008235Y003821D02*
X008068Y003821D01*
X008013Y003877D01*
X008013Y003988D01*
X008068Y004044D01*
X008235Y004044D01*
X007827Y004044D02*
X007827Y003821D01*
X007882Y003821D02*
X007771Y003821D01*
X007631Y003877D02*
X007631Y003988D01*
X007576Y004044D01*
X007409Y004044D01*
X007409Y003710D01*
X007278Y003604D02*
X007278Y003270D01*
X007167Y003270D02*
X007390Y003270D01*
X007167Y003493D02*
X007278Y003604D01*
X007027Y003549D02*
X007027Y003326D01*
X006971Y003270D01*
X006860Y003270D01*
X006804Y003326D01*
X007027Y003549D01*
X006971Y003604D01*
X006860Y003604D01*
X006804Y003549D01*
X006804Y003326D01*
X006665Y003326D02*
X006609Y003270D01*
X006498Y003270D01*
X006442Y003326D01*
X006442Y003549D01*
X006498Y003604D01*
X006609Y003604D01*
X006665Y003549D01*
X006614Y003821D02*
X006502Y003821D01*
X006558Y003821D02*
X006558Y004044D01*
X006502Y004044D01*
X006558Y004155D02*
X006558Y004211D01*
X006372Y004155D02*
X006316Y004100D01*
X006316Y003821D01*
X006261Y003988D02*
X006372Y003988D01*
X006135Y003877D02*
X006135Y003821D01*
X006079Y003821D01*
X006079Y003877D01*
X006135Y003877D01*
X005939Y003821D02*
X005772Y003821D01*
X005717Y003877D01*
X005772Y003933D01*
X005939Y003933D01*
X005939Y003988D02*
X005939Y003821D01*
X005939Y003988D02*
X005884Y004044D01*
X005772Y004044D01*
X005586Y004044D02*
X005475Y004044D01*
X005531Y004100D02*
X005531Y003877D01*
X005586Y003821D01*
X005345Y003821D02*
X005233Y003821D01*
X005289Y003821D02*
X005289Y004155D01*
X005233Y004155D01*
X005094Y003988D02*
X005094Y003933D01*
X004871Y003933D01*
X004871Y003988D02*
X004927Y004044D01*
X005038Y004044D01*
X005094Y003988D01*
X005038Y003821D02*
X004927Y003821D01*
X004871Y003877D01*
X004871Y003988D01*
X004731Y004044D02*
X004564Y004044D01*
X004508Y003988D01*
X004508Y003877D01*
X004564Y003821D01*
X004731Y003821D01*
X004731Y004155D01*
X004369Y004155D02*
X004146Y003821D01*
X004248Y003604D02*
X004025Y003604D01*
X004025Y003270D01*
X004248Y003270D01*
X004388Y003270D02*
X004388Y003604D01*
X004388Y003437D02*
X004610Y003437D01*
X004610Y003604D02*
X004610Y003270D01*
X004750Y003270D02*
X004917Y003270D01*
X004973Y003326D01*
X004973Y003549D01*
X004917Y003604D01*
X004750Y003604D01*
X004750Y003270D01*
X005113Y003270D02*
X005113Y003604D01*
X005224Y003493D01*
X005335Y003604D01*
X005335Y003270D01*
X005475Y003270D02*
X005586Y003270D01*
X005531Y003270D02*
X005531Y003604D01*
X005586Y003604D02*
X005475Y003604D01*
X005717Y003604D02*
X005717Y003270D01*
X005717Y003437D02*
X005828Y003437D01*
X005717Y003604D02*
X005939Y003604D01*
X006079Y003604D02*
X006246Y003604D01*
X006302Y003549D01*
X006302Y003437D01*
X006246Y003382D01*
X006079Y003382D01*
X006079Y003270D02*
X006079Y003604D01*
X006744Y003821D02*
X006744Y004044D01*
X006744Y003933D02*
X006855Y004044D01*
X006911Y004044D01*
X007046Y003988D02*
X007102Y004044D01*
X007213Y004044D01*
X007269Y003988D01*
X007269Y003933D01*
X007046Y003933D01*
X007046Y003988D02*
X007046Y003877D01*
X007102Y003821D01*
X007213Y003821D01*
X007409Y003821D02*
X007576Y003821D01*
X007631Y003877D01*
X007771Y004044D02*
X007827Y004044D01*
X007827Y004155D02*
X007827Y004211D01*
X007757Y004894D02*
X007994Y004894D01*
X007994Y005366D02*
X007757Y005366D01*
X009221Y004044D02*
X009221Y003821D01*
X009221Y003933D02*
X009332Y004044D01*
X009388Y004044D01*
X009523Y003988D02*
X009523Y003877D01*
X009579Y003821D01*
X009746Y003821D01*
X009746Y003766D02*
X009746Y004044D01*
X009579Y004044D01*
X009523Y003988D01*
X009746Y003766D02*
X009690Y003710D01*
X009635Y003710D01*
X004136Y003437D02*
X004025Y003437D01*
X003783Y003821D02*
X004006Y004155D01*
X003658Y004044D02*
X003658Y003988D01*
X003602Y003988D01*
X003602Y004044D01*
X003658Y004044D01*
X003658Y003877D02*
X003602Y003877D01*
X003602Y003821D01*
X003658Y003821D01*
X003658Y003877D01*
X003462Y003877D02*
X003407Y003821D01*
X003240Y003821D01*
X003109Y003821D02*
X003054Y003877D01*
X003054Y004100D01*
X003109Y004044D02*
X002998Y004044D01*
X002868Y004044D02*
X002756Y004044D01*
X002812Y004100D02*
X002812Y003877D01*
X002868Y003821D01*
X002979Y003604D02*
X002756Y003270D01*
X002616Y003437D02*
X002561Y003382D01*
X002394Y003382D01*
X002394Y003270D02*
X002394Y003604D01*
X002561Y003604D01*
X002616Y003549D01*
X002616Y003437D01*
X002616Y003821D02*
X002616Y003988D01*
X002561Y004044D01*
X002449Y004044D01*
X002394Y003988D01*
X002394Y004155D02*
X002394Y003821D01*
X003119Y003604D02*
X003119Y003270D01*
X003341Y003270D02*
X003341Y003604D01*
X003240Y003710D02*
X003240Y004044D01*
X003407Y004044D01*
X003462Y003988D01*
X003462Y003877D01*
X003481Y003493D02*
X003481Y003437D01*
X003537Y003437D01*
X003537Y003493D01*
X003481Y003493D01*
X003481Y003326D02*
X003481Y003270D01*
X003537Y003270D01*
X003537Y003326D01*
X003481Y003326D01*
X003341Y003270D02*
X003119Y003604D01*
D13*
X001694Y002413D02*
X001143Y002413D01*
X001143Y002390D02*
X001143Y000618D01*
X009017Y000618D01*
X009017Y002390D01*
X009017Y002413D02*
X008466Y002413D01*
X009017Y000618D02*
X009214Y000618D01*
X009214Y000224D01*
X000946Y000224D01*
X000946Y000618D01*
X001143Y000618D01*
X002403Y005835D02*
X003033Y005835D01*
X001990Y006721D02*
X001990Y007665D01*
X001990Y008689D02*
X001990Y009555D01*
X001990Y009583D02*
X008171Y009583D01*
X008171Y009555D02*
X008171Y008689D01*
X008171Y007665D02*
X008171Y006721D01*
X007600Y005835D02*
X006970Y005835D01*
D14*
X001616Y005900D02*
X001539Y005823D01*
X001385Y005823D01*
X001309Y005900D01*
X001462Y006053D02*
X001539Y006053D01*
X001616Y005977D01*
X001616Y005900D01*
X001539Y006053D02*
X001616Y006130D01*
X001616Y006207D01*
X001539Y006284D01*
X001385Y006284D01*
X001309Y006207D01*
X001155Y006284D02*
X001002Y006284D01*
X001079Y006284D02*
X001079Y005900D01*
X001002Y005823D01*
X000925Y005823D01*
X000848Y005900D01*
X000840Y003106D02*
X000687Y003106D01*
X000764Y003106D02*
X000764Y002723D01*
X000687Y002646D01*
X000610Y002646D01*
X000533Y002723D01*
X000994Y002876D02*
X001301Y002876D01*
X001224Y002646D02*
X001224Y003106D01*
X000994Y002876D01*
D15*
X004007Y004335D03*
X006994Y004985D03*
X006994Y004989D03*
X006997Y004996D03*
X006997Y005000D03*
X006997Y005004D03*
X007001Y005011D03*
X007001Y005015D03*
X007001Y005019D03*
X007005Y005027D03*
X007005Y005030D03*
X007005Y005034D03*
X007009Y005042D03*
X007009Y005046D03*
X007009Y005049D03*
X007013Y005057D03*
X007013Y005061D03*
X007013Y005065D03*
X007016Y005072D03*
X007016Y005076D03*
X007016Y005080D03*
X007020Y005087D03*
X007020Y005091D03*
X007020Y005095D03*
X007024Y005103D03*
X007024Y005106D03*
X007024Y005110D03*
X007028Y005118D03*
X007028Y005122D03*
X007028Y005125D03*
X007032Y005137D03*
X007032Y005141D03*
X007035Y005152D03*
X007035Y005156D03*
X007039Y005167D03*
X007039Y005171D03*
X007043Y005182D03*
X007043Y005186D03*
X007047Y005198D03*
X007047Y005201D03*
X007051Y005213D03*
X007119Y005019D03*
X007119Y005015D03*
X007229Y004992D03*
X007229Y004989D03*
X007229Y004985D03*
X007233Y005000D03*
X007233Y005004D03*
X007233Y005008D03*
X007237Y005015D03*
X007237Y005019D03*
X007237Y005023D03*
X007241Y005030D03*
X007241Y005034D03*
X007241Y005038D03*
X007241Y005042D03*
X007244Y005046D03*
X007244Y005049D03*
X007244Y005053D03*
X007244Y005057D03*
X007248Y005061D03*
X007248Y005065D03*
X007248Y005068D03*
X007248Y005072D03*
X007252Y005076D03*
X007252Y005080D03*
X007252Y005084D03*
X007252Y005087D03*
X007256Y005091D03*
X007256Y005095D03*
X007256Y005099D03*
X007256Y005103D03*
X007260Y005106D03*
X007260Y005110D03*
X007260Y005114D03*
X007260Y005118D03*
X007263Y005122D03*
X007263Y005125D03*
X007263Y005129D03*
X007263Y005133D03*
X007267Y005141D03*
X007267Y005144D03*
X007267Y005148D03*
X007271Y005156D03*
X007271Y005160D03*
X007271Y005163D03*
X007275Y005171D03*
X007275Y005175D03*
X007275Y005179D03*
X007279Y005186D03*
X007279Y005190D03*
X007279Y005194D03*
X007282Y005201D03*
X007282Y005205D03*
X007282Y005209D03*
D16*
X006895Y005236D03*
X006895Y005239D03*
X006887Y005209D03*
X006887Y005205D03*
X006876Y005163D03*
X006876Y005160D03*
X006868Y005133D03*
X006868Y005129D03*
X006864Y005118D03*
X006864Y005114D03*
X006857Y005087D03*
X006857Y005084D03*
X006857Y005080D03*
X006853Y005072D03*
X006853Y005068D03*
X006853Y005065D03*
X006845Y005042D03*
X006845Y005038D03*
X006845Y005034D03*
X006842Y005027D03*
X006842Y005023D03*
X006842Y005019D03*
X006834Y004996D03*
X006834Y004992D03*
X006834Y004989D03*
X005622Y004335D03*
D17*
X004206Y005046D03*
X003803Y004996D03*
X004016Y004339D03*
D18*
X003807Y005004D03*
X003811Y005008D03*
X005627Y004339D03*
D19*
X004022Y004343D03*
X003767Y004939D03*
D20*
X003769Y004943D03*
X003773Y004947D03*
X004202Y005042D03*
X005631Y004343D03*
D21*
X005523Y004502D03*
X005523Y004506D03*
X005523Y004510D03*
X005527Y004601D03*
X005527Y004605D03*
X005531Y004620D03*
X005531Y004624D03*
X005531Y004628D03*
X005538Y004654D03*
X005538Y004658D03*
X005538Y004662D03*
X005542Y004669D03*
X005542Y004673D03*
X005542Y004677D03*
X005542Y004681D03*
X005550Y004700D03*
X005550Y004704D03*
X005550Y004707D03*
X005553Y004715D03*
X005553Y004719D03*
X005553Y004723D03*
X005561Y004742D03*
X005561Y004745D03*
X005565Y004757D03*
X005569Y004768D03*
X005618Y004886D03*
X005622Y004890D03*
X005626Y004894D03*
X005318Y004977D03*
X005318Y004981D03*
X005322Y004992D03*
X005322Y004996D03*
X005329Y005023D03*
X005329Y005027D03*
X005310Y004951D03*
X005310Y004947D03*
X005306Y004935D03*
X005306Y004932D03*
X005299Y004905D03*
X005299Y004901D03*
X005295Y004890D03*
X005295Y004886D03*
X005291Y004875D03*
X005291Y004871D03*
X005287Y004859D03*
X005287Y004856D03*
X005284Y004844D03*
X005284Y004840D03*
X005280Y004829D03*
X005280Y004825D03*
X005276Y004814D03*
X005276Y004810D03*
X005268Y004783D03*
X005268Y004780D03*
X005265Y004768D03*
X005265Y004764D03*
X005257Y004738D03*
X005257Y004734D03*
X005253Y004723D03*
X005253Y004719D03*
X005246Y004692D03*
X005246Y004688D03*
X005242Y004677D03*
X005242Y004673D03*
X005238Y004662D03*
X005238Y004658D03*
X005234Y004647D03*
X005234Y004643D03*
X005227Y004616D03*
X005227Y004612D03*
X005223Y004601D03*
X005223Y004597D03*
X005215Y004571D03*
X005215Y004567D03*
X005211Y004555D03*
X005211Y004552D03*
X005204Y004525D03*
X005204Y004521D03*
X005200Y004510D03*
X005200Y004506D03*
X005196Y004495D03*
X005196Y004491D03*
X005192Y004479D03*
X005192Y004476D03*
X005189Y004464D03*
X005189Y004460D03*
X005185Y004449D03*
X005185Y004445D03*
X005181Y004434D03*
X005181Y004430D03*
X005173Y004403D03*
X005173Y004400D03*
X005170Y004388D03*
X005170Y004384D03*
X005162Y004358D03*
X005162Y004354D03*
X004197Y004476D03*
X004022Y004346D03*
X003916Y004476D03*
X003912Y004479D03*
X003923Y004635D03*
X003923Y004639D03*
X003927Y004650D03*
X003927Y004654D03*
X003517Y004745D03*
X003517Y004749D03*
X003517Y004753D03*
X003513Y004738D03*
X003513Y004734D03*
X003505Y004707D03*
X003505Y004704D03*
X003501Y004692D03*
X003501Y004688D03*
X003494Y004662D03*
X003494Y004658D03*
X003490Y004647D03*
X003490Y004643D03*
X003486Y004631D03*
X003486Y004628D03*
X003482Y004616D03*
X003482Y004612D03*
X003479Y004601D03*
X003479Y004597D03*
X003475Y004586D03*
X003475Y004582D03*
X003471Y004571D03*
X003471Y004567D03*
X003463Y004540D03*
X003463Y004536D03*
X003460Y004525D03*
X003460Y004521D03*
X003452Y004495D03*
X003452Y004491D03*
X003448Y004479D03*
X003448Y004476D03*
X003441Y004449D03*
X003441Y004445D03*
X003437Y004434D03*
X003437Y004430D03*
X003433Y004419D03*
X003433Y004415D03*
X003429Y004403D03*
X003429Y004400D03*
X003422Y004373D03*
X003422Y004369D03*
X003418Y004358D03*
X003418Y004354D03*
X003152Y004567D03*
X003152Y004571D03*
X003156Y004582D03*
X003156Y004586D03*
X003163Y004612D03*
X003163Y004616D03*
X003167Y004628D03*
X003167Y004631D03*
X003175Y004658D03*
X003175Y004662D03*
X003178Y004673D03*
X003178Y004677D03*
X003186Y004704D03*
X003186Y004707D03*
X003190Y004719D03*
X003190Y004723D03*
X003194Y004734D03*
X003194Y004738D03*
X003197Y004749D03*
X003197Y004753D03*
X003201Y004764D03*
X003201Y004768D03*
X003205Y004780D03*
X003205Y004783D03*
X003209Y004795D03*
X003209Y004799D03*
X003216Y004825D03*
X003216Y004829D03*
X003220Y004840D03*
X003220Y004844D03*
X003228Y004871D03*
X003228Y004875D03*
X003232Y004886D03*
X003232Y004890D03*
X003239Y004916D03*
X003239Y004920D03*
X003243Y004932D03*
X003243Y004935D03*
X003247Y004947D03*
X003247Y004951D03*
X003251Y004962D03*
X003251Y004966D03*
X003258Y004992D03*
X003258Y004996D03*
X003262Y005008D03*
X003262Y005011D03*
X003281Y005087D03*
X003281Y005091D03*
X003285Y005103D03*
X003285Y005106D03*
X003289Y005118D03*
X003289Y005122D03*
X003292Y005133D03*
X003292Y005137D03*
X003296Y005148D03*
X003296Y005152D03*
X003300Y005163D03*
X003300Y005167D03*
X003304Y005179D03*
X003304Y005182D03*
X003311Y005213D03*
X003315Y005228D03*
X003323Y005258D03*
X003148Y004555D03*
X003148Y004552D03*
X003144Y004540D03*
X003144Y004536D03*
X003137Y004510D03*
X003137Y004506D03*
X003133Y004495D03*
X003133Y004491D03*
X003125Y004464D03*
X003125Y004460D03*
X003121Y004449D03*
X003121Y004445D03*
X003114Y004419D03*
X003114Y004415D03*
X003110Y004403D03*
X003110Y004400D03*
X003106Y004388D03*
X003106Y004384D03*
X003102Y004373D03*
X003102Y004369D03*
X003099Y004358D03*
X003099Y004354D03*
X004201Y005038D03*
X006142Y004525D03*
X006142Y004521D03*
X006139Y004510D03*
X006139Y004506D03*
X006135Y004495D03*
X006135Y004491D03*
X006131Y004479D03*
X006131Y004476D03*
X006123Y004449D03*
X006123Y004445D03*
X006120Y004434D03*
X006120Y004430D03*
X006112Y004403D03*
X006112Y004400D03*
X006108Y004388D03*
X006108Y004384D03*
X006101Y004358D03*
X006101Y004354D03*
X006146Y004533D03*
X006215Y004814D03*
X006215Y004818D03*
X006218Y004829D03*
X006218Y004833D03*
X006226Y004859D03*
X006226Y004863D03*
X006230Y004875D03*
X006230Y004878D03*
X006234Y004890D03*
X006234Y004894D03*
X006237Y004905D03*
X006237Y004909D03*
X006241Y004920D03*
X006241Y004924D03*
X006245Y004935D03*
X006245Y004939D03*
X006249Y004951D03*
X006249Y004954D03*
X006256Y004981D03*
X006256Y004985D03*
X006260Y004996D03*
X006260Y005000D03*
X006268Y005027D03*
X006268Y005030D03*
X006272Y005042D03*
X006272Y005046D03*
X006279Y005072D03*
X006279Y005076D03*
X006283Y005087D03*
X006283Y005091D03*
X006287Y005103D03*
X006287Y005106D03*
X006291Y005118D03*
X006291Y005122D03*
X006298Y005152D03*
X006302Y005167D03*
X006310Y005198D03*
X006313Y005213D03*
X006321Y005243D03*
X006325Y005258D03*
X006530Y004913D03*
X006526Y004909D03*
X006522Y004905D03*
X006515Y004894D03*
X006511Y004890D03*
X006503Y004882D03*
X006500Y004878D03*
X006477Y004852D03*
D22*
X006479Y004856D03*
X006482Y004859D03*
X006486Y004863D03*
X006490Y004867D03*
X006494Y004871D03*
X006471Y004844D03*
X006467Y004840D03*
X006463Y004837D03*
X006460Y004833D03*
X006235Y004897D03*
X006235Y004901D03*
X006239Y004913D03*
X006239Y004916D03*
X006247Y004943D03*
X006247Y004947D03*
X006251Y004958D03*
X006251Y004962D03*
X006254Y004973D03*
X006254Y004977D03*
X006258Y004989D03*
X006258Y004992D03*
X006262Y005004D03*
X006262Y005008D03*
X006266Y005019D03*
X006266Y005023D03*
X006270Y005034D03*
X006270Y005038D03*
X006273Y005049D03*
X006273Y005053D03*
X006277Y005065D03*
X006277Y005068D03*
X006281Y005080D03*
X006281Y005084D03*
X006289Y005110D03*
X006289Y005114D03*
X006292Y005125D03*
X006292Y005129D03*
X006292Y005133D03*
X006296Y005141D03*
X006296Y005144D03*
X006296Y005148D03*
X006300Y005156D03*
X006300Y005160D03*
X006300Y005163D03*
X006304Y005171D03*
X006304Y005175D03*
X006304Y005179D03*
X006308Y005186D03*
X006308Y005190D03*
X006308Y005194D03*
X006311Y005201D03*
X006311Y005205D03*
X006311Y005209D03*
X006315Y005217D03*
X006315Y005220D03*
X006315Y005224D03*
X006319Y005232D03*
X006319Y005236D03*
X006319Y005239D03*
X006323Y005247D03*
X006323Y005251D03*
X006323Y005255D03*
X006228Y004871D03*
X006228Y004867D03*
X006224Y004856D03*
X006224Y004852D03*
X006220Y004840D03*
X006220Y004837D03*
X006216Y004825D03*
X006216Y004821D03*
X006213Y004810D03*
X006144Y004529D03*
X006140Y004517D03*
X006140Y004514D03*
X006133Y004487D03*
X006133Y004483D03*
X006129Y004472D03*
X006129Y004468D03*
X006125Y004457D03*
X006125Y004453D03*
X006121Y004441D03*
X006121Y004438D03*
X006118Y004426D03*
X006118Y004422D03*
X006114Y004411D03*
X006114Y004407D03*
X006110Y004396D03*
X006110Y004392D03*
X006106Y004381D03*
X006106Y004377D03*
X006102Y004365D03*
X006102Y004362D03*
X006099Y004350D03*
X005829Y004498D03*
X005825Y004495D03*
X005635Y004346D03*
X005521Y004514D03*
X005521Y004517D03*
X005521Y004521D03*
X005521Y004525D03*
X005521Y004529D03*
X005521Y004533D03*
X005521Y004536D03*
X005521Y004540D03*
X005521Y004544D03*
X005521Y004548D03*
X005521Y004552D03*
X005521Y004555D03*
X005521Y004559D03*
X005521Y004563D03*
X005521Y004567D03*
X005521Y004571D03*
X005521Y004574D03*
X005529Y004609D03*
X005529Y004612D03*
X005529Y004616D03*
X005532Y004631D03*
X005536Y004650D03*
X005540Y004666D03*
X005551Y004711D03*
X005559Y004738D03*
X005563Y004749D03*
X005563Y004753D03*
X005570Y004772D03*
X005570Y004776D03*
X005570Y004780D03*
X005574Y004783D03*
X005574Y004787D03*
X005574Y004791D03*
X005582Y004806D03*
X005582Y004810D03*
X005586Y004818D03*
X005586Y004821D03*
X005589Y004829D03*
X005593Y004837D03*
X005593Y004840D03*
X005597Y004848D03*
X005601Y004856D03*
X005605Y004863D03*
X005608Y004871D03*
X005612Y004875D03*
X005612Y004878D03*
X005616Y004882D03*
X005312Y004954D03*
X005312Y004958D03*
X005316Y004970D03*
X005316Y004973D03*
X005320Y004985D03*
X005320Y004989D03*
X005323Y005000D03*
X005323Y005004D03*
X005327Y005015D03*
X005327Y005019D03*
X005331Y005030D03*
X005308Y004943D03*
X005308Y004939D03*
X005304Y004928D03*
X005304Y004924D03*
X005301Y004913D03*
X005301Y004909D03*
X005297Y004897D03*
X005297Y004894D03*
X005289Y004867D03*
X005289Y004863D03*
X005285Y004852D03*
X005285Y004848D03*
X005278Y004821D03*
X005278Y004818D03*
X005274Y004806D03*
X005274Y004802D03*
X005270Y004791D03*
X005270Y004787D03*
X005266Y004776D03*
X005266Y004772D03*
X005263Y004761D03*
X005263Y004757D03*
X005259Y004745D03*
X005259Y004742D03*
X005255Y004730D03*
X005255Y004726D03*
X005251Y004715D03*
X005251Y004711D03*
X005247Y004700D03*
X005247Y004696D03*
X005244Y004685D03*
X005244Y004681D03*
X005236Y004654D03*
X005236Y004650D03*
X005232Y004639D03*
X005232Y004635D03*
X005228Y004624D03*
X005228Y004620D03*
X005225Y004609D03*
X005225Y004605D03*
X005221Y004593D03*
X005221Y004590D03*
X005217Y004578D03*
X005217Y004574D03*
X005213Y004563D03*
X005213Y004559D03*
X005209Y004548D03*
X005209Y004544D03*
X005206Y004533D03*
X005206Y004529D03*
X005202Y004517D03*
X005202Y004514D03*
X005194Y004487D03*
X005194Y004483D03*
X005190Y004472D03*
X005190Y004468D03*
X005183Y004441D03*
X005183Y004438D03*
X005179Y004426D03*
X005179Y004422D03*
X005175Y004411D03*
X005175Y004407D03*
X005171Y004396D03*
X005171Y004392D03*
X005168Y004381D03*
X005168Y004377D03*
X005164Y004365D03*
X005164Y004362D03*
X005160Y004350D03*
X005928Y004909D03*
X004020Y004901D03*
X004016Y004897D03*
X003925Y004647D03*
X003925Y004643D03*
X003921Y004631D03*
X003921Y004628D03*
X003921Y004624D03*
X003917Y004616D03*
X003917Y004612D03*
X003917Y004609D03*
X003917Y004605D03*
X003914Y004597D03*
X003914Y004593D03*
X003914Y004590D03*
X003503Y004696D03*
X003503Y004700D03*
X003507Y004711D03*
X003507Y004715D03*
X003511Y004726D03*
X003511Y004730D03*
X003515Y004742D03*
X003499Y004685D03*
X003499Y004681D03*
X003496Y004669D03*
X003496Y004666D03*
X003492Y004654D03*
X003492Y004650D03*
X003484Y004624D03*
X003484Y004620D03*
X003480Y004609D03*
X003480Y004605D03*
X003473Y004578D03*
X003473Y004574D03*
X003469Y004563D03*
X003469Y004559D03*
X003465Y004548D03*
X003465Y004544D03*
X003461Y004533D03*
X003461Y004529D03*
X003458Y004517D03*
X003458Y004514D03*
X003454Y004502D03*
X003454Y004498D03*
X003450Y004487D03*
X003450Y004483D03*
X003446Y004472D03*
X003446Y004468D03*
X003442Y004457D03*
X003442Y004453D03*
X003439Y004441D03*
X003439Y004438D03*
X003431Y004411D03*
X003431Y004407D03*
X003427Y004396D03*
X003427Y004392D03*
X003423Y004381D03*
X003423Y004377D03*
X003420Y004365D03*
X003420Y004362D03*
X003416Y004350D03*
X003154Y004574D03*
X003154Y004578D03*
X003157Y004590D03*
X003157Y004593D03*
X003161Y004605D03*
X003161Y004609D03*
X003165Y004620D03*
X003165Y004624D03*
X003169Y004635D03*
X003169Y004639D03*
X003173Y004650D03*
X003173Y004654D03*
X003176Y004666D03*
X003176Y004669D03*
X003180Y004681D03*
X003180Y004685D03*
X003184Y004696D03*
X003184Y004700D03*
X003188Y004711D03*
X003188Y004715D03*
X003195Y004742D03*
X003195Y004745D03*
X003199Y004757D03*
X003199Y004761D03*
X003207Y004787D03*
X003207Y004791D03*
X003211Y004802D03*
X003211Y004806D03*
X003214Y004818D03*
X003214Y004821D03*
X003218Y004833D03*
X003218Y004837D03*
X003222Y004848D03*
X003222Y004852D03*
X003226Y004863D03*
X003226Y004867D03*
X003230Y004878D03*
X003230Y004882D03*
X003233Y004894D03*
X003233Y004897D03*
X003237Y004909D03*
X003237Y004913D03*
X003241Y004924D03*
X003241Y004928D03*
X003249Y004954D03*
X003249Y004958D03*
X003252Y004970D03*
X003252Y004973D03*
X003256Y004985D03*
X003256Y004989D03*
X003260Y005000D03*
X003260Y005004D03*
X003264Y005015D03*
X003264Y005019D03*
X003268Y005030D03*
X003283Y005095D03*
X003283Y005099D03*
X003290Y005125D03*
X003290Y005129D03*
X003294Y005141D03*
X003294Y005144D03*
X003302Y005171D03*
X003302Y005175D03*
X003306Y005186D03*
X003306Y005190D03*
X003309Y005201D03*
X003309Y005205D03*
X003309Y005209D03*
X003313Y005217D03*
X003313Y005220D03*
X003313Y005224D03*
X003317Y005232D03*
X003317Y005236D03*
X003317Y005239D03*
X003321Y005247D03*
X003321Y005251D03*
X003321Y005255D03*
X003146Y004548D03*
X003146Y004544D03*
X003142Y004533D03*
X003142Y004529D03*
X003138Y004517D03*
X003138Y004514D03*
X003135Y004502D03*
X003135Y004498D03*
X003131Y004487D03*
X003131Y004483D03*
X003127Y004472D03*
X003127Y004468D03*
X003123Y004457D03*
X003123Y004453D03*
X003119Y004441D03*
X003119Y004438D03*
X003116Y004426D03*
X003116Y004422D03*
X003112Y004411D03*
X003112Y004407D03*
X003104Y004381D03*
X003104Y004377D03*
X003100Y004365D03*
X003100Y004362D03*
D23*
X003530Y004783D03*
X003921Y004472D03*
X004187Y004472D03*
X004510Y004403D03*
X004510Y004400D03*
X004510Y004396D03*
X004510Y004392D03*
X004514Y004407D03*
X004514Y004411D03*
X004514Y004415D03*
X004514Y004419D03*
X004522Y004441D03*
X004522Y004445D03*
X004522Y004449D03*
X004525Y004457D03*
X004525Y004460D03*
X004525Y004464D03*
X004529Y004472D03*
X004529Y004476D03*
X004529Y004479D03*
X004533Y004487D03*
X004533Y004491D03*
X004533Y004495D03*
X004541Y004517D03*
X004541Y004521D03*
X004541Y004525D03*
X004544Y004533D03*
X004544Y004536D03*
X004544Y004540D03*
X004544Y004544D03*
X004552Y004563D03*
X004552Y004567D03*
X004552Y004571D03*
X004552Y004574D03*
X004556Y004578D03*
X004556Y004582D03*
X004556Y004586D03*
X004556Y004590D03*
X004563Y004609D03*
X004563Y004612D03*
X004563Y004616D03*
X004563Y004620D03*
X004567Y004624D03*
X004567Y004628D03*
X004567Y004631D03*
X004567Y004635D03*
X004575Y004658D03*
X004575Y004662D03*
X004575Y004666D03*
X004582Y004688D03*
X004582Y004692D03*
X004582Y004696D03*
X004628Y004875D03*
X004636Y004901D03*
X004636Y004905D03*
X004639Y004916D03*
X004639Y004920D03*
X004639Y004924D03*
X004647Y004947D03*
X004647Y004951D03*
X004647Y004954D03*
X004651Y004962D03*
X004651Y004966D03*
X004651Y004970D03*
X004658Y004992D03*
X004658Y004996D03*
X004658Y005000D03*
X004662Y005008D03*
X004662Y005011D03*
X004662Y005015D03*
X004670Y005038D03*
X004670Y005042D03*
X004670Y005046D03*
X004677Y005068D03*
X004677Y005072D03*
X004677Y005076D03*
X004681Y005084D03*
X004503Y004373D03*
X004503Y004369D03*
X004503Y004365D03*
X004503Y004362D03*
X004499Y004358D03*
X004499Y004354D03*
X004499Y004350D03*
X005639Y004909D03*
X005829Y005049D03*
X006156Y004552D03*
X006156Y004548D03*
X006425Y004578D03*
X006425Y004582D03*
X006429Y004574D03*
X006429Y004571D03*
X006429Y004567D03*
X006429Y004563D03*
X006433Y004559D03*
X006433Y004555D03*
X006433Y004552D03*
X006433Y004548D03*
X006441Y004529D03*
X006441Y004525D03*
X006441Y004521D03*
X006444Y004510D03*
X006452Y004479D03*
X006589Y004981D03*
X006593Y004985D03*
X006600Y004992D03*
X006604Y004996D03*
X006615Y005011D03*
X006619Y005015D03*
X006623Y005019D03*
X002698Y005065D03*
X002698Y005068D03*
X002694Y005061D03*
X002694Y005057D03*
X002694Y005053D03*
X002694Y005049D03*
X002686Y005027D03*
X002686Y005023D03*
X002686Y005019D03*
X002682Y005011D03*
X002682Y005008D03*
X002682Y005004D03*
X002675Y004981D03*
X002675Y004977D03*
X002675Y004973D03*
X002667Y004951D03*
X002667Y004947D03*
X002667Y004943D03*
X002663Y004935D03*
X002663Y004932D03*
X002663Y004928D03*
X002610Y004723D03*
X002610Y004719D03*
X002610Y004715D03*
X002603Y004692D03*
X002603Y004688D03*
X002603Y004685D03*
X002599Y004677D03*
X002599Y004673D03*
X002599Y004669D03*
X002591Y004647D03*
X002591Y004643D03*
X002591Y004639D03*
X002587Y004631D03*
X002587Y004628D03*
X002587Y004624D03*
X002580Y004601D03*
X002580Y004597D03*
X002580Y004593D03*
X002572Y004571D03*
X002572Y004567D03*
X002572Y004563D03*
X002572Y004559D03*
X002568Y004555D03*
X002568Y004552D03*
X002568Y004548D03*
X002568Y004544D03*
X002561Y004525D03*
X002561Y004521D03*
X002561Y004517D03*
X002561Y004514D03*
X002557Y004510D03*
X002557Y004506D03*
X002557Y004502D03*
X002557Y004498D03*
X002549Y004479D03*
X002549Y004476D03*
X002549Y004472D03*
X002549Y004468D03*
X002546Y004464D03*
X002546Y004460D03*
X002546Y004457D03*
X002546Y004453D03*
X002538Y004434D03*
X002538Y004430D03*
X002538Y004426D03*
X002538Y004422D03*
X002534Y004419D03*
X002534Y004415D03*
X002534Y004411D03*
X002534Y004407D03*
X002530Y004403D03*
X002530Y004400D03*
X002530Y004396D03*
X002530Y004392D03*
X002527Y004388D03*
X002527Y004384D03*
X002527Y004381D03*
X002527Y004377D03*
X002519Y004358D03*
X002519Y004354D03*
X002519Y004350D03*
D24*
X003097Y004350D03*
X003108Y004392D03*
X003108Y004396D03*
X003150Y004559D03*
X003150Y004563D03*
X003192Y004726D03*
X003192Y004730D03*
X003203Y004772D03*
X003203Y004776D03*
X003245Y004939D03*
X003245Y004943D03*
X003287Y005110D03*
X003287Y005114D03*
X003298Y005156D03*
X003298Y005160D03*
X003488Y004639D03*
X003488Y004635D03*
X003477Y004593D03*
X003477Y004590D03*
X003435Y004426D03*
X003435Y004422D03*
X003910Y004483D03*
X003963Y004787D03*
X005198Y004502D03*
X005198Y004498D03*
X005187Y004457D03*
X005187Y004453D03*
X005240Y004666D03*
X005240Y004669D03*
X005282Y004833D03*
X005282Y004837D03*
X005293Y004878D03*
X005293Y004882D03*
X005578Y004802D03*
X005578Y004799D03*
X005578Y004795D03*
X005567Y004764D03*
X005567Y004761D03*
X005525Y004597D03*
X005525Y004593D03*
X005525Y004590D03*
X005525Y004586D03*
X005525Y004582D03*
X005525Y004578D03*
X006137Y004502D03*
X006137Y004498D03*
X006232Y004882D03*
X006232Y004886D03*
X006243Y004928D03*
X006243Y004932D03*
X006285Y005095D03*
X006285Y005099D03*
X006475Y004848D03*
D25*
X006171Y004578D03*
X006167Y004571D03*
X005012Y004920D03*
X005008Y004913D03*
X005004Y004909D03*
X005035Y005061D03*
X005035Y005065D03*
X004024Y004350D03*
X003545Y004806D03*
D26*
X003543Y004802D03*
X004201Y005034D03*
X005010Y004916D03*
X005014Y004924D03*
X005037Y005053D03*
X005037Y005057D03*
X005637Y004350D03*
X006165Y004567D03*
D27*
X006163Y004563D03*
X006463Y004438D03*
X006467Y004422D03*
X006471Y004411D03*
X006471Y004407D03*
X006471Y004403D03*
X006475Y004396D03*
X006475Y004392D03*
X006475Y004388D03*
X006479Y004381D03*
X006479Y004377D03*
X006479Y004373D03*
X006482Y004369D03*
X006482Y004365D03*
X006482Y004362D03*
X006482Y004358D03*
X006486Y004354D03*
X006486Y004350D03*
X005916Y004916D03*
X005042Y005030D03*
X005042Y005034D03*
X005027Y004954D03*
X005023Y004947D03*
X005023Y004943D03*
X005019Y004939D03*
X005019Y004935D03*
X005016Y004928D03*
X003537Y004795D03*
D28*
X003560Y004821D03*
X004024Y004354D03*
X004985Y004886D03*
X005027Y005080D03*
D29*
X005031Y005076D03*
X004993Y004894D03*
X004989Y004890D03*
X005639Y004354D03*
X004199Y005030D03*
X003556Y004818D03*
D30*
X004026Y004358D03*
X004968Y004875D03*
D31*
X004976Y004878D03*
X005021Y005084D03*
X005641Y004358D03*
X004197Y005027D03*
X003566Y004825D03*
D32*
X003534Y004787D03*
X004031Y004909D03*
X004571Y004650D03*
X004571Y004647D03*
X004571Y004643D03*
X004579Y004673D03*
X004579Y004677D03*
X004579Y004681D03*
X004560Y004605D03*
X004560Y004601D03*
X004560Y004597D03*
X004560Y004593D03*
X004548Y004559D03*
X004548Y004555D03*
X004548Y004552D03*
X004548Y004548D03*
X004537Y004510D03*
X004537Y004506D03*
X004537Y004502D03*
X004518Y004434D03*
X004518Y004430D03*
X004518Y004426D03*
X004506Y004388D03*
X004506Y004384D03*
X004506Y004381D03*
X004506Y004377D03*
X004632Y004882D03*
X004632Y004886D03*
X004632Y004890D03*
X004643Y004932D03*
X004643Y004935D03*
X004643Y004939D03*
X004655Y004977D03*
X004655Y004981D03*
X004655Y004985D03*
X004666Y005023D03*
X004666Y005027D03*
X004666Y005030D03*
X004674Y005053D03*
X004674Y005057D03*
X004674Y005061D03*
X005529Y004491D03*
X005814Y004487D03*
X006437Y004536D03*
X006437Y004540D03*
X006437Y004544D03*
X006448Y004495D03*
X006596Y004989D03*
X002690Y005034D03*
X002690Y005038D03*
X002690Y005042D03*
X002690Y005046D03*
X002679Y004996D03*
X002679Y004992D03*
X002679Y004989D03*
X002671Y004966D03*
X002671Y004962D03*
X002671Y004958D03*
X002660Y004920D03*
X002660Y004916D03*
X002660Y004913D03*
X002606Y004707D03*
X002606Y004704D03*
X002606Y004700D03*
X002595Y004662D03*
X002595Y004658D03*
X002595Y004654D03*
X002584Y004616D03*
X002584Y004612D03*
X002584Y004609D03*
X002576Y004586D03*
X002576Y004582D03*
X002576Y004578D03*
X002565Y004540D03*
X002565Y004536D03*
X002565Y004533D03*
X002565Y004529D03*
X002553Y004495D03*
X002553Y004491D03*
X002553Y004487D03*
X002553Y004483D03*
X002542Y004449D03*
X002542Y004445D03*
X002542Y004441D03*
X002542Y004438D03*
X002523Y004373D03*
X002523Y004369D03*
X002523Y004365D03*
X002523Y004362D03*
D33*
X004026Y004362D03*
D34*
X003574Y004829D03*
X004197Y005023D03*
X005641Y004362D03*
X005823Y005038D03*
D35*
X005643Y004365D03*
X004195Y005019D03*
X004028Y004365D03*
D36*
X004028Y004369D03*
D37*
X003919Y004620D03*
X003520Y004757D03*
X003520Y004761D03*
X003509Y004723D03*
X003509Y004719D03*
X003498Y004677D03*
X003498Y004673D03*
X003467Y004555D03*
X003467Y004552D03*
X003456Y004510D03*
X003456Y004506D03*
X003444Y004464D03*
X003444Y004460D03*
X003425Y004388D03*
X003425Y004384D03*
X003129Y004476D03*
X003129Y004479D03*
X003140Y004521D03*
X003140Y004525D03*
X003159Y004597D03*
X003159Y004601D03*
X003171Y004643D03*
X003171Y004647D03*
X003182Y004688D03*
X003182Y004692D03*
X003213Y004810D03*
X003213Y004814D03*
X003224Y004856D03*
X003224Y004859D03*
X003235Y004901D03*
X003235Y004905D03*
X003254Y004977D03*
X003254Y004981D03*
X003266Y005023D03*
X003266Y005027D03*
X003308Y005194D03*
X003308Y005198D03*
X003319Y005243D03*
X003118Y004434D03*
X003118Y004430D03*
X005166Y004373D03*
X005166Y004369D03*
X005177Y004415D03*
X005177Y004419D03*
X005208Y004536D03*
X005208Y004540D03*
X005219Y004582D03*
X005219Y004586D03*
X005230Y004628D03*
X005230Y004631D03*
X005249Y004704D03*
X005249Y004707D03*
X005261Y004749D03*
X005261Y004753D03*
X005272Y004795D03*
X005272Y004799D03*
X005303Y004916D03*
X005303Y004920D03*
X005314Y004962D03*
X005314Y004966D03*
X005325Y005008D03*
X005325Y005011D03*
X005557Y004734D03*
X005557Y004730D03*
X005557Y004726D03*
X005546Y004696D03*
X005546Y004692D03*
X005546Y004688D03*
X005546Y004685D03*
X005534Y004647D03*
X005534Y004643D03*
X005534Y004639D03*
X005534Y004635D03*
X006127Y004464D03*
X006127Y004460D03*
X006116Y004419D03*
X006116Y004415D03*
X006104Y004373D03*
X006104Y004369D03*
X006222Y004844D03*
X006222Y004848D03*
X006253Y004966D03*
X006253Y004970D03*
X006264Y005011D03*
X006264Y005015D03*
X006275Y005057D03*
X006275Y005061D03*
X006294Y005137D03*
X006306Y005182D03*
X006317Y005228D03*
X006507Y004886D03*
X006496Y004875D03*
D38*
X005645Y004369D03*
X004193Y005015D03*
D39*
X003600Y004837D03*
X004030Y004373D03*
X005645Y004373D03*
D40*
X005646Y004377D03*
X005817Y005023D03*
X004031Y004377D03*
D41*
X004030Y004381D03*
X004653Y004700D03*
X005648Y004381D03*
X005816Y005019D03*
D42*
X004031Y004384D03*
D43*
X005648Y004384D03*
D44*
X006158Y004555D03*
X006161Y004559D03*
X006439Y004533D03*
X006443Y004517D03*
X006443Y004514D03*
X006446Y004506D03*
X006446Y004502D03*
X006446Y004498D03*
X006450Y004491D03*
X006450Y004487D03*
X006450Y004483D03*
X006454Y004476D03*
X006454Y004472D03*
X006454Y004468D03*
X006458Y004464D03*
X006458Y004460D03*
X006458Y004457D03*
X006458Y004453D03*
X006462Y004449D03*
X006462Y004445D03*
X006462Y004441D03*
X006465Y004434D03*
X006465Y004430D03*
X006465Y004426D03*
X006469Y004419D03*
X006469Y004415D03*
X006473Y004400D03*
X006477Y004384D03*
X006606Y005000D03*
X006610Y005004D03*
X006614Y005008D03*
X006625Y005023D03*
X006629Y005027D03*
X006633Y005030D03*
X005645Y004913D03*
X005040Y005004D03*
X005040Y005008D03*
X005040Y005011D03*
X005040Y005015D03*
X005040Y005019D03*
X005040Y005023D03*
X005040Y005027D03*
X005037Y005000D03*
X005037Y004996D03*
X005037Y004992D03*
X005037Y004989D03*
X005037Y004985D03*
X005033Y004981D03*
X005033Y004977D03*
X005033Y004973D03*
X005033Y004970D03*
X005029Y004966D03*
X005029Y004962D03*
X005029Y004958D03*
X005025Y004951D03*
X004676Y005065D03*
X004679Y005080D03*
X004672Y005049D03*
X004668Y005034D03*
X004664Y005019D03*
X004660Y005004D03*
X004657Y004989D03*
X004653Y004973D03*
X004649Y004958D03*
X004645Y004943D03*
X004641Y004928D03*
X004638Y004913D03*
X004638Y004909D03*
X004634Y004897D03*
X004634Y004894D03*
X004630Y004878D03*
X003536Y004791D03*
X002681Y005000D03*
X002684Y005015D03*
X002688Y005030D03*
X002677Y004985D03*
X002673Y004970D03*
X002669Y004954D03*
X002665Y004939D03*
X002662Y004924D03*
X002658Y004909D03*
X002608Y004711D03*
X002605Y004696D03*
X002601Y004681D03*
X002597Y004666D03*
X002593Y004650D03*
X002589Y004635D03*
X002586Y004620D03*
X002582Y004605D03*
X002578Y004590D03*
X002574Y004574D03*
D45*
X004031Y004388D03*
X004187Y004992D03*
X005814Y005011D03*
D46*
X005650Y004388D03*
D47*
X005650Y004392D03*
X005810Y005008D03*
X004187Y004989D03*
X004035Y004392D03*
D48*
X004035Y004396D03*
X005650Y004396D03*
X005810Y005004D03*
D49*
X006292Y004757D03*
X006296Y004761D03*
X006292Y004749D03*
X006292Y004745D03*
X004183Y004981D03*
X003655Y004928D03*
X003655Y004924D03*
X003651Y004909D03*
X003648Y004894D03*
X003644Y004878D03*
X003640Y004863D03*
X003636Y004848D03*
X004035Y004400D03*
D50*
X003634Y004840D03*
X003634Y004844D03*
X003646Y004882D03*
X003646Y004886D03*
X003646Y004890D03*
X003657Y004932D03*
X003657Y004935D03*
X005652Y004400D03*
D51*
X005652Y004403D03*
X006291Y004726D03*
X006302Y004772D03*
X006306Y004776D03*
X004037Y004403D03*
D52*
X004039Y004407D03*
X004183Y004973D03*
X005654Y004407D03*
X006292Y004715D03*
X006292Y004719D03*
X006292Y004723D03*
X006308Y004780D03*
D53*
X006311Y004787D03*
X006315Y004791D03*
X006292Y004711D03*
X006292Y004707D03*
X006292Y004704D03*
X006292Y004700D03*
X005806Y004989D03*
X005654Y004411D03*
X004039Y004411D03*
D54*
X004041Y004415D03*
X004182Y004966D03*
X004687Y004711D03*
X004824Y005251D03*
X005656Y004415D03*
X005804Y004985D03*
D55*
X004695Y004715D03*
X004178Y004958D03*
X004041Y004419D03*
D56*
X004043Y004422D03*
X005658Y004419D03*
X006292Y004673D03*
X006292Y004677D03*
X006292Y004681D03*
D57*
X006154Y004544D03*
X006150Y004540D03*
X005819Y004491D03*
X005633Y004905D03*
X006553Y004939D03*
X006557Y004943D03*
X006560Y004947D03*
X006564Y004951D03*
X006568Y004954D03*
X006568Y004958D03*
X006572Y004962D03*
X006576Y004966D03*
X006579Y004970D03*
X006583Y004973D03*
X006587Y004977D03*
X004581Y004685D03*
X004577Y004669D03*
X004573Y004654D03*
X004569Y004639D03*
X004543Y004529D03*
X004539Y004514D03*
X004535Y004498D03*
X004531Y004483D03*
X004524Y004453D03*
X004520Y004438D03*
X004516Y004422D03*
X003528Y004776D03*
X003528Y004780D03*
D58*
X004043Y004426D03*
X004176Y004951D03*
X005658Y004426D03*
X005658Y004422D03*
X005798Y004973D03*
X006292Y004662D03*
X006292Y004658D03*
D59*
X006294Y004654D03*
X006294Y004650D03*
X004702Y004719D03*
X004045Y004430D03*
D60*
X004176Y004947D03*
X004833Y005243D03*
X005658Y004430D03*
X005798Y004970D03*
X006292Y004647D03*
D61*
X006294Y004643D03*
X006294Y004639D03*
X006294Y004635D03*
X005797Y004962D03*
X005797Y004966D03*
X005660Y004434D03*
X004174Y004943D03*
X004045Y004434D03*
D62*
X004047Y004438D03*
X004172Y004939D03*
X004837Y005239D03*
X005662Y004438D03*
D63*
X005797Y004958D03*
X006294Y004628D03*
X006294Y004624D03*
X006294Y004620D03*
X004170Y004935D03*
X004049Y004441D03*
D64*
X004047Y004445D03*
X004172Y004932D03*
X004712Y004726D03*
X005662Y004441D03*
X005795Y004954D03*
X006292Y004616D03*
D65*
X006294Y004612D03*
X006294Y004609D03*
X006294Y004605D03*
X005664Y004445D03*
X004170Y004928D03*
X004049Y004449D03*
D66*
X004050Y004453D03*
X005665Y004449D03*
X005791Y004947D03*
D67*
X005789Y004943D03*
X005664Y004453D03*
X006294Y004590D03*
X006294Y004593D03*
X006294Y004597D03*
X006294Y004601D03*
X004843Y005232D03*
X004166Y004920D03*
X004166Y004916D03*
X004052Y004457D03*
D68*
X004050Y004460D03*
X004164Y004913D03*
X005665Y004457D03*
D69*
X005667Y004460D03*
X006294Y004586D03*
X004847Y005228D03*
X004052Y004464D03*
D70*
X005667Y004464D03*
X005667Y004468D03*
D71*
X005787Y004932D03*
X004727Y004738D03*
X004054Y004468D03*
D72*
X004527Y004468D03*
D73*
X004731Y004742D03*
X004734Y004745D03*
X004852Y005220D03*
X005669Y004476D03*
X005669Y004472D03*
D74*
X005835Y004502D03*
X005584Y004814D03*
X005588Y004825D03*
X005591Y004833D03*
X005595Y004844D03*
X005599Y004852D03*
X005603Y004859D03*
X005607Y004867D03*
X005930Y004905D03*
X006439Y004810D03*
X006443Y004814D03*
X006446Y004818D03*
X006450Y004821D03*
X006454Y004825D03*
X006458Y004829D03*
X004307Y004905D03*
X004014Y004894D03*
X004011Y004890D03*
X004007Y004886D03*
X003976Y004825D03*
X003973Y004818D03*
X003973Y004814D03*
X003969Y004806D03*
X003969Y004802D03*
X003965Y004799D03*
X003965Y004795D03*
X003965Y004791D03*
X003961Y004783D03*
X003916Y004601D03*
X003912Y004586D03*
X003912Y004582D03*
X003912Y004578D03*
X003912Y004574D03*
X003908Y004567D03*
X003908Y004563D03*
X003908Y004559D03*
X003908Y004487D03*
X004204Y004479D03*
D75*
X005671Y004479D03*
X002795Y004897D03*
X002795Y004901D03*
X002791Y004886D03*
X002791Y004882D03*
X002787Y004871D03*
X002787Y004867D03*
X002783Y004856D03*
X002783Y004852D03*
X002779Y004840D03*
X002779Y004837D03*
X002776Y004825D03*
X002776Y004821D03*
X002772Y004810D03*
X002772Y004806D03*
X002768Y004795D03*
X002768Y004791D03*
X002764Y004780D03*
X002764Y004776D03*
X002760Y004764D03*
X002760Y004761D03*
X002757Y004749D03*
X002757Y004745D03*
X002753Y004734D03*
X002753Y004730D03*
D76*
X003560Y004939D03*
X003560Y004943D03*
X003560Y004947D03*
X003560Y004951D03*
X003564Y004954D03*
X003564Y004958D03*
X003564Y004962D03*
X003564Y004966D03*
X003568Y004970D03*
X003568Y004973D03*
X003568Y004977D03*
X003568Y004981D03*
X003572Y004985D03*
X003572Y004989D03*
X003572Y004992D03*
X003572Y004996D03*
X003575Y005000D03*
X003575Y005004D03*
X003575Y005008D03*
X003575Y005011D03*
X003579Y005015D03*
X003579Y005019D03*
X003579Y005023D03*
X003579Y005027D03*
X003583Y005030D03*
X003982Y004844D03*
X003982Y004840D03*
X003982Y004837D03*
X003986Y004848D03*
X003986Y004852D03*
X003993Y004863D03*
X003997Y004871D03*
X004001Y004875D03*
X004001Y004878D03*
X004005Y004882D03*
X003974Y004821D03*
X003971Y004810D03*
X003910Y004571D03*
X003906Y004555D03*
X003906Y004552D03*
X003906Y004548D03*
X003906Y004544D03*
X003906Y004540D03*
X003906Y004506D03*
X003906Y004502D03*
X003906Y004498D03*
X003906Y004495D03*
X003906Y004491D03*
X004206Y004483D03*
X004309Y004901D03*
X005840Y004510D03*
D77*
X005673Y004483D03*
X004852Y005217D03*
X004738Y004749D03*
X002796Y004905D03*
X002793Y004894D03*
X002793Y004890D03*
X002789Y004878D03*
X002789Y004875D03*
X002785Y004863D03*
X002785Y004859D03*
X002781Y004848D03*
X002781Y004844D03*
X002777Y004833D03*
X002777Y004829D03*
X002774Y004818D03*
X002774Y004814D03*
X002766Y004787D03*
X002766Y004783D03*
X002762Y004772D03*
X002762Y004768D03*
X002758Y004757D03*
X002758Y004753D03*
X002755Y004742D03*
X002755Y004738D03*
X002751Y004726D03*
D78*
X003995Y004867D03*
X004311Y004897D03*
X004250Y004571D03*
X004212Y004487D03*
X005842Y004514D03*
X005933Y004890D03*
X005933Y004894D03*
X006895Y005243D03*
X006895Y005247D03*
X006895Y005251D03*
X006899Y005255D03*
X006899Y005258D03*
X006899Y005262D03*
X006899Y005266D03*
X006906Y005285D03*
X006906Y005289D03*
X006906Y005293D03*
X006906Y005296D03*
X006910Y005300D03*
X006910Y005304D03*
X006910Y005308D03*
X006910Y005312D03*
D79*
X006169Y004574D03*
X005534Y004487D03*
X005018Y004932D03*
X005040Y005038D03*
X005040Y005042D03*
X005040Y005046D03*
X005040Y005049D03*
X003539Y004799D03*
D80*
X004214Y004491D03*
X004218Y004495D03*
X004221Y004498D03*
X004225Y004506D03*
X004229Y004514D03*
X004233Y004521D03*
X004237Y004529D03*
X004240Y004540D03*
X004244Y004548D03*
X004244Y004552D03*
X004244Y004555D03*
X004248Y004559D03*
X004248Y004563D03*
X004248Y004567D03*
X004252Y004574D03*
X004252Y004578D03*
X004252Y004582D03*
X004305Y004795D03*
X004313Y004894D03*
X005848Y004521D03*
X005852Y004529D03*
X005855Y004536D03*
X005859Y004544D03*
X005867Y004563D03*
X005871Y004574D03*
X005878Y004601D03*
X005882Y004616D03*
X005886Y004631D03*
X005924Y004791D03*
X005924Y004795D03*
X005928Y004806D03*
X005928Y004810D03*
X005928Y004814D03*
X005931Y004825D03*
X005931Y004829D03*
X005931Y004833D03*
X005931Y004837D03*
X005935Y004852D03*
X005935Y004856D03*
X005935Y004859D03*
X005935Y004863D03*
X005935Y004867D03*
X005935Y004871D03*
X005935Y004875D03*
X005935Y004878D03*
X005935Y004882D03*
X005935Y004886D03*
D81*
X005924Y004913D03*
X005631Y004901D03*
X005627Y004897D03*
X005525Y004498D03*
X005525Y004495D03*
X006148Y004536D03*
X006517Y004897D03*
X006520Y004901D03*
X006532Y004916D03*
X006536Y004920D03*
X006539Y004924D03*
X006543Y004928D03*
X006547Y004932D03*
X006551Y004935D03*
X004301Y004909D03*
X004024Y004905D03*
X003526Y004772D03*
X003522Y004768D03*
X003522Y004764D03*
D82*
X004223Y004502D03*
X004227Y004510D03*
X004231Y004517D03*
X004235Y004525D03*
X004239Y004533D03*
X004239Y004536D03*
X004242Y004544D03*
X004303Y004783D03*
X004303Y004787D03*
X004303Y004791D03*
X004307Y004799D03*
X004307Y004802D03*
X004307Y004806D03*
X004307Y004810D03*
X004315Y004844D03*
X004315Y004848D03*
X004315Y004882D03*
X004315Y004886D03*
X004315Y004890D03*
X005850Y004525D03*
X005854Y004533D03*
X005857Y004540D03*
X005861Y004548D03*
X005861Y004552D03*
X005865Y004555D03*
X005865Y004559D03*
X005869Y004567D03*
X005869Y004571D03*
X005873Y004578D03*
X005873Y004582D03*
X005873Y004586D03*
X005876Y004590D03*
X005876Y004593D03*
X005876Y004597D03*
X005880Y004605D03*
X005880Y004609D03*
X005880Y004612D03*
X005888Y004635D03*
X005888Y004639D03*
X005922Y004783D03*
X005922Y004787D03*
X005930Y004818D03*
X005930Y004821D03*
X005933Y004840D03*
X005933Y004844D03*
X005933Y004848D03*
D83*
X005931Y004897D03*
X005931Y004901D03*
X005836Y004506D03*
X003990Y004856D03*
X003990Y004859D03*
X003978Y004833D03*
X003978Y004829D03*
D84*
X003904Y004536D03*
X003904Y004533D03*
X003904Y004529D03*
X003904Y004525D03*
X003904Y004521D03*
X003904Y004517D03*
X003904Y004514D03*
X003904Y004510D03*
X004254Y004586D03*
X005846Y004517D03*
X006902Y005270D03*
X006902Y005274D03*
X006902Y005277D03*
X006902Y005281D03*
D85*
X006173Y004582D03*
X005652Y004916D03*
X005033Y005068D03*
X005002Y004905D03*
X004999Y004901D03*
X003547Y004810D03*
D86*
X004311Y004814D03*
X004311Y004818D03*
X004311Y004821D03*
X004311Y004825D03*
X004311Y004829D03*
X005831Y005053D03*
X005926Y004802D03*
X005926Y004799D03*
X005884Y004628D03*
X005884Y004624D03*
X005884Y004620D03*
D87*
X006292Y004631D03*
X004708Y004723D03*
D88*
X004767Y004787D03*
X004121Y004757D03*
X004117Y004745D03*
X004117Y004742D03*
X004117Y004738D03*
X004113Y004730D03*
X004113Y004726D03*
X004113Y004723D03*
X004109Y004719D03*
X004109Y004715D03*
X004109Y004711D03*
X004109Y004707D03*
X004106Y004704D03*
X004106Y004700D03*
X004106Y004696D03*
X004106Y004692D03*
X004102Y004688D03*
X004102Y004685D03*
X004102Y004681D03*
X004102Y004677D03*
X004098Y004673D03*
X004098Y004669D03*
X004098Y004666D03*
X004098Y004662D03*
X004094Y004658D03*
D89*
X004178Y004954D03*
X004828Y005247D03*
X005800Y004977D03*
X006294Y004669D03*
X006294Y004666D03*
D90*
X006292Y004685D03*
X006292Y004688D03*
X006292Y004692D03*
X006292Y004696D03*
X006319Y004799D03*
X006319Y004802D03*
X006323Y004806D03*
X005802Y004981D03*
X004180Y004962D03*
D91*
X004668Y004704D03*
D92*
X004677Y004707D03*
X004183Y004977D03*
X004814Y005255D03*
X005806Y004996D03*
X006292Y004738D03*
X006292Y004734D03*
X006292Y004730D03*
X006300Y004768D03*
D93*
X005793Y004951D03*
X004843Y005236D03*
X004717Y004730D03*
D94*
X004864Y005175D03*
X004864Y005179D03*
X004126Y004780D03*
X004126Y004776D03*
X004115Y004734D03*
D95*
X004723Y004734D03*
D96*
X003653Y004913D03*
X003653Y004916D03*
X003653Y004920D03*
X003650Y004905D03*
X003650Y004901D03*
X003650Y004897D03*
X003642Y004875D03*
X003642Y004871D03*
X003642Y004867D03*
X003638Y004859D03*
X003638Y004856D03*
X003638Y004852D03*
X006291Y004742D03*
X006298Y004764D03*
D97*
X004765Y004783D03*
X004123Y004768D03*
X004123Y004764D03*
X004123Y004761D03*
X004119Y004753D03*
X004119Y004749D03*
D98*
X004742Y004753D03*
X004856Y005209D03*
D99*
X004185Y004985D03*
X006291Y004753D03*
D100*
X004858Y005205D03*
X004744Y004757D03*
D101*
X004750Y004761D03*
X002880Y005205D03*
X002869Y005160D03*
X002861Y005125D03*
X002850Y005080D03*
X002891Y005251D03*
D102*
X002890Y005247D03*
X002890Y005243D03*
X002890Y005239D03*
X002886Y005232D03*
X002886Y005228D03*
X002886Y005224D03*
X002882Y005217D03*
X002882Y005213D03*
X002882Y005209D03*
X002878Y005201D03*
X002878Y005198D03*
X002878Y005194D03*
X002874Y005186D03*
X002874Y005182D03*
X002874Y005179D03*
X002871Y005171D03*
X002871Y005167D03*
X002871Y005163D03*
X002867Y005156D03*
X002867Y005152D03*
X002867Y005148D03*
X002863Y005137D03*
X002863Y005133D03*
X002863Y005129D03*
X002859Y005122D03*
X002859Y005118D03*
X002859Y005114D03*
X002855Y005106D03*
X002855Y005103D03*
X002855Y005099D03*
X002852Y005091D03*
X002852Y005087D03*
X002852Y005084D03*
X002848Y005076D03*
X002848Y005072D03*
X002893Y005255D03*
X002893Y005258D03*
X004752Y004764D03*
X004858Y005201D03*
D103*
X004862Y005190D03*
X004755Y004768D03*
D104*
X004763Y004780D03*
X004862Y005182D03*
X004862Y005186D03*
X004125Y004772D03*
D105*
X004757Y004772D03*
X004761Y004776D03*
D106*
X004182Y004970D03*
X006310Y004783D03*
D107*
X004864Y005167D03*
X004864Y005171D03*
X004772Y004791D03*
D108*
X004774Y004795D03*
D109*
X006317Y004795D03*
D110*
X002770Y004799D03*
X002770Y004802D03*
D111*
X004776Y004799D03*
X004780Y004806D03*
X004864Y005156D03*
D112*
X004866Y005152D03*
X004866Y005148D03*
X004866Y005144D03*
X004782Y004810D03*
X004778Y004802D03*
D113*
X003551Y004814D03*
D114*
X004784Y004814D03*
D115*
X004786Y004818D03*
D116*
X004790Y004821D03*
X004866Y005129D03*
X004866Y005133D03*
X004866Y005137D03*
X004866Y005141D03*
D117*
X004864Y005125D03*
X004791Y004829D03*
X004791Y004825D03*
D118*
X005823Y005034D03*
X003585Y004833D03*
D119*
X004313Y004833D03*
X004313Y004837D03*
X004313Y004840D03*
X004316Y004852D03*
X004316Y004856D03*
X004316Y004859D03*
X004316Y004863D03*
X004316Y004867D03*
X004316Y004871D03*
X004316Y004875D03*
X004316Y004878D03*
D120*
X004793Y004833D03*
X004797Y004837D03*
D121*
X003834Y004837D03*
D122*
X004799Y004840D03*
X004799Y004844D03*
X004864Y005099D03*
X004864Y005103D03*
X004864Y005106D03*
X004864Y005110D03*
D123*
X004862Y005095D03*
X004862Y005091D03*
X004862Y005087D03*
X004805Y004856D03*
X004805Y004852D03*
X004801Y004848D03*
D124*
X004807Y004859D03*
X004807Y004863D03*
D125*
X004810Y004867D03*
D126*
X004812Y004871D03*
D127*
X004980Y004882D03*
D128*
X004997Y004897D03*
X005031Y005072D03*
D129*
X005783Y004920D03*
D130*
X004168Y004924D03*
D131*
X004850Y005224D03*
X005785Y004928D03*
X005785Y004924D03*
D132*
X005789Y004935D03*
X005789Y004939D03*
D133*
X003775Y004951D03*
D134*
X003777Y004954D03*
D135*
X003779Y004958D03*
X003783Y004962D03*
X003783Y004966D03*
D136*
X003784Y004970D03*
D137*
X003786Y004973D03*
X003790Y004977D03*
D138*
X003792Y004981D03*
D139*
X003794Y004985D03*
D140*
X005844Y005061D03*
X006832Y004985D03*
X006836Y005000D03*
X006840Y005015D03*
X006843Y005030D03*
X006847Y005046D03*
X006851Y005061D03*
X006855Y005076D03*
X006859Y005091D03*
X006859Y005095D03*
X006862Y005106D03*
X006862Y005110D03*
X006866Y005122D03*
X006866Y005125D03*
X006870Y005137D03*
X006870Y005141D03*
X006874Y005152D03*
X006874Y005156D03*
X006878Y005167D03*
X006878Y005171D03*
X006881Y005182D03*
X006881Y005186D03*
X006885Y005198D03*
X006885Y005201D03*
X006889Y005213D03*
X006889Y005217D03*
X006893Y005228D03*
X006893Y005232D03*
X007125Y005046D03*
X007125Y005042D03*
D141*
X007109Y004985D03*
D142*
X003800Y004992D03*
X003796Y004989D03*
D143*
X007111Y004989D03*
X007111Y004992D03*
X007115Y005000D03*
X007115Y005004D03*
D144*
X005806Y004992D03*
D145*
X006995Y004992D03*
X006999Y005008D03*
X007003Y005023D03*
X007007Y005038D03*
X007011Y005053D03*
X007014Y005068D03*
X007018Y005084D03*
X007022Y005099D03*
X007026Y005114D03*
X007030Y005129D03*
X007030Y005133D03*
X007033Y005144D03*
X007033Y005148D03*
X007037Y005160D03*
X007037Y005163D03*
X007041Y005175D03*
X007041Y005179D03*
X007045Y005190D03*
X007045Y005194D03*
X007049Y005205D03*
X007049Y005209D03*
X007121Y005027D03*
X007121Y005023D03*
X007231Y004996D03*
X007235Y005011D03*
X007239Y005027D03*
X007265Y005137D03*
X007269Y005152D03*
X007273Y005167D03*
X007277Y005182D03*
X007280Y005198D03*
X003853Y005046D03*
D146*
X004189Y004996D03*
D147*
X007113Y004996D03*
D148*
X003805Y005000D03*
D149*
X004191Y005000D03*
D150*
X005810Y005000D03*
D151*
X004191Y005004D03*
D152*
X004212Y005049D03*
X006838Y005011D03*
X006838Y005008D03*
X006838Y005004D03*
X006849Y005049D03*
X006849Y005053D03*
X006849Y005057D03*
X006861Y005099D03*
X006861Y005103D03*
X006872Y005144D03*
X006872Y005148D03*
X006880Y005175D03*
X006880Y005179D03*
X006883Y005190D03*
X006883Y005194D03*
X006891Y005220D03*
X006891Y005224D03*
X007123Y005038D03*
X007123Y005034D03*
X007123Y005030D03*
D153*
X004193Y005008D03*
D154*
X007117Y005008D03*
X007117Y005011D03*
D155*
X003815Y005011D03*
D156*
X004193Y005011D03*
D157*
X003817Y005015D03*
X007081Y005217D03*
X007081Y005220D03*
X007081Y005224D03*
X007256Y005217D03*
X007256Y005213D03*
X007260Y005228D03*
D158*
X005816Y005015D03*
D159*
X007258Y005220D03*
X007258Y005224D03*
X007265Y005243D03*
X003819Y005019D03*
D160*
X003824Y005023D03*
X007085Y005243D03*
X007085Y005247D03*
X007085Y005251D03*
X007085Y005255D03*
X007089Y005258D03*
X007089Y005262D03*
X007089Y005266D03*
X007089Y005270D03*
X007263Y005239D03*
X007267Y005247D03*
X007267Y005251D03*
X007271Y005258D03*
X007271Y005262D03*
D161*
X007279Y005281D03*
X007279Y005285D03*
X007282Y005289D03*
X007282Y005293D03*
X007282Y005296D03*
X007286Y005304D03*
X007092Y005300D03*
X007092Y005296D03*
X007092Y005293D03*
X007092Y005289D03*
X003828Y005027D03*
D162*
X005817Y005027D03*
D163*
X007094Y005304D03*
X007094Y005308D03*
X007094Y005312D03*
X007284Y005300D03*
X007144Y005118D03*
X003830Y005030D03*
D164*
X005819Y005030D03*
D165*
X007140Y005099D03*
X007140Y005103D03*
X007140Y005106D03*
X003834Y005034D03*
D166*
X003841Y005038D03*
X007136Y005084D03*
X007136Y005087D03*
D167*
X007127Y005053D03*
X007127Y005049D03*
X003847Y005042D03*
D168*
X005825Y005042D03*
D169*
X005825Y005046D03*
D170*
X007113Y005122D03*
X007113Y005125D03*
X007113Y005129D03*
X007113Y005133D03*
X007117Y005137D03*
X007117Y005141D03*
X007117Y005144D03*
X007117Y005148D03*
X007117Y005152D03*
X007117Y005156D03*
X007117Y005160D03*
X007117Y005163D03*
X007117Y005167D03*
X007117Y005171D03*
X007117Y005175D03*
X007117Y005179D03*
X007117Y005182D03*
X007117Y005186D03*
X007117Y005190D03*
X007117Y005194D03*
X007121Y005201D03*
X007121Y005205D03*
X007121Y005209D03*
X007121Y005213D03*
X007197Y005175D03*
X007197Y005171D03*
X007201Y005179D03*
X007201Y005182D03*
X007204Y005186D03*
X007204Y005190D03*
X007208Y005198D03*
X007212Y005205D03*
X007212Y005209D03*
X007193Y005163D03*
X007193Y005160D03*
X007189Y005156D03*
X007189Y005152D03*
X007185Y005148D03*
X007185Y005144D03*
X007182Y005141D03*
X007182Y005137D03*
X007178Y005129D03*
X007178Y005125D03*
X007174Y005122D03*
X003864Y005049D03*
D171*
X005836Y005057D03*
D172*
X007128Y005057D03*
X007128Y005061D03*
D173*
X007130Y005065D03*
X007134Y005076D03*
X007134Y005080D03*
D174*
X007132Y005072D03*
X007132Y005068D03*
D175*
X007138Y005091D03*
X007138Y005095D03*
D176*
X002888Y005236D03*
X002884Y005220D03*
X002876Y005190D03*
X002872Y005175D03*
X002865Y005144D03*
X002865Y005141D03*
X002857Y005110D03*
X002853Y005095D03*
D177*
X007142Y005110D03*
X007142Y005114D03*
D178*
X004866Y005114D03*
X004866Y005118D03*
X004866Y005122D03*
D179*
X007180Y005133D03*
X007195Y005167D03*
X007206Y005194D03*
X007210Y005201D03*
D180*
X004866Y005163D03*
X004866Y005160D03*
D181*
X004860Y005194D03*
X004860Y005198D03*
D182*
X007119Y005198D03*
D183*
X004854Y005213D03*
D184*
X007083Y005228D03*
X007083Y005232D03*
X007083Y005236D03*
X007083Y005239D03*
X007261Y005236D03*
X007261Y005232D03*
D185*
X007269Y005255D03*
X007273Y005266D03*
X007273Y005270D03*
X007277Y005274D03*
X007277Y005277D03*
X007090Y005277D03*
X007090Y005274D03*
X007090Y005281D03*
X007090Y005285D03*
D186*
X004801Y005258D03*
D187*
X007288Y005308D03*
X007288Y005312D03*
D188*
X001182Y006899D03*
X000902Y006899D03*
X000757Y006856D03*
D189*
X001328Y006856D03*
X001328Y007601D03*
X000755Y007601D03*
D190*
X000900Y006901D03*
X000755Y006859D03*
X001328Y006859D03*
D191*
X001327Y006861D03*
X000757Y006861D03*
X000757Y007596D03*
X001327Y007596D03*
D192*
X001327Y006864D03*
X000757Y006864D03*
D193*
X000758Y006866D03*
X000758Y007591D03*
X001325Y007591D03*
D194*
X001189Y006909D03*
X001327Y006866D03*
X000894Y006909D03*
D195*
X000758Y006869D03*
X001325Y006869D03*
D196*
X000889Y006916D03*
X000759Y006871D03*
X000759Y007586D03*
X001324Y007586D03*
D197*
X001325Y006871D03*
X000890Y006914D03*
D198*
X000759Y006874D03*
X001197Y006919D03*
X001324Y006874D03*
D199*
X001324Y006876D03*
X000759Y006876D03*
D200*
X000760Y006879D03*
X001323Y006879D03*
X001323Y007579D03*
X000760Y007579D03*
D201*
X000760Y006881D03*
X001323Y006881D03*
D202*
X001322Y006884D03*
X000762Y006884D03*
X000762Y007574D03*
X001322Y007574D03*
D203*
X001322Y006886D03*
X000762Y006886D03*
D204*
X000763Y006889D03*
X001320Y006889D03*
X001320Y007569D03*
X000763Y007569D03*
D205*
X000764Y006891D03*
D206*
X001320Y006891D03*
D207*
X001320Y006894D03*
X000765Y006894D03*
D208*
X000765Y006896D03*
D209*
X001319Y006896D03*
D210*
X000765Y006899D03*
X000765Y007561D03*
X001318Y007561D03*
D211*
X001319Y006899D03*
D212*
X000767Y006901D03*
D213*
X001184Y006901D03*
D214*
X001318Y006901D03*
X001318Y007556D03*
D215*
X000767Y007556D03*
X000767Y006904D03*
D216*
X000898Y006904D03*
X001185Y006904D03*
D217*
X001318Y006904D03*
X001043Y007696D03*
D218*
X001042Y007691D03*
X001042Y007689D03*
X001042Y007686D03*
X001042Y007684D03*
X001042Y007681D03*
X001317Y006906D03*
X000767Y006906D03*
D219*
X000895Y006906D03*
X001188Y006906D03*
D220*
X001317Y006909D03*
X000767Y006909D03*
X001042Y007666D03*
X001042Y007669D03*
X001042Y007671D03*
X001042Y007674D03*
X001042Y007676D03*
D221*
X001043Y007651D03*
X001315Y007546D03*
X001315Y006911D03*
X000768Y006911D03*
D222*
X000892Y006911D03*
X001192Y006911D03*
D223*
X000769Y006914D03*
X000769Y007546D03*
X001042Y007639D03*
X001042Y007641D03*
X001042Y007644D03*
X001042Y007646D03*
X001042Y007649D03*
D224*
X001324Y007589D03*
X000759Y007589D03*
X001194Y006914D03*
D225*
X001315Y006914D03*
X001043Y007636D03*
D226*
X001042Y007621D03*
X001042Y007619D03*
X001042Y007616D03*
X001314Y007541D03*
X000769Y007541D03*
X000769Y006916D03*
X001314Y006916D03*
D227*
X001195Y006916D03*
D228*
X000770Y006919D03*
X000770Y007539D03*
X001043Y007599D03*
X001313Y007539D03*
D229*
X001323Y007584D03*
X000760Y007584D03*
X000888Y006919D03*
D230*
X001314Y006919D03*
X001042Y007601D03*
X001042Y007604D03*
X001042Y007606D03*
D231*
X001283Y006921D03*
X000800Y006921D03*
D232*
X000799Y006924D03*
X000844Y007034D03*
X000847Y007039D03*
X000849Y007041D03*
X000849Y007044D03*
X001234Y007044D03*
X001234Y007046D03*
X001234Y007041D03*
X001237Y007039D03*
X001284Y006924D03*
D233*
X001284Y006926D03*
X001249Y007016D03*
X001247Y007019D03*
X001247Y007021D03*
X001244Y007024D03*
X001242Y007029D03*
X001234Y007051D03*
X000849Y007051D03*
X000842Y007029D03*
X000839Y007024D03*
X000837Y007019D03*
X000834Y007014D03*
X000799Y006926D03*
X001042Y007556D03*
D234*
X001233Y007056D03*
X001233Y007054D03*
X001250Y007014D03*
X001253Y007009D03*
X001285Y006929D03*
X000850Y007054D03*
X000835Y007016D03*
X000833Y007011D03*
X000798Y006929D03*
D235*
X000798Y006931D03*
X000820Y006989D03*
X000823Y006994D03*
X000825Y006999D03*
X000850Y007059D03*
X000850Y007061D03*
X001233Y007061D03*
X001260Y006994D03*
X001263Y006991D03*
X001265Y006986D03*
X001263Y007319D03*
D236*
X001234Y007059D03*
X001252Y007011D03*
X001254Y007006D03*
X001257Y007004D03*
X001257Y007001D03*
X001259Y006999D03*
X001259Y006996D03*
X001287Y006931D03*
X000849Y007056D03*
X000832Y007009D03*
X000829Y007006D03*
X000829Y007004D03*
X000827Y007001D03*
X000824Y006996D03*
D237*
X000822Y006991D03*
X000819Y006986D03*
X000817Y006984D03*
X000817Y006981D03*
X000797Y006934D03*
X000819Y007141D03*
X000819Y007316D03*
X000822Y007319D03*
X000824Y007321D03*
X001257Y007326D03*
X001259Y007324D03*
X001262Y007321D03*
X001264Y007316D03*
X001264Y007141D03*
X001264Y007139D03*
X001262Y007136D03*
X001234Y007064D03*
X001264Y006989D03*
X001267Y006984D03*
X001269Y006979D03*
X001287Y006934D03*
D238*
X001288Y006936D03*
X001275Y006969D03*
X001273Y006971D03*
X001273Y006974D03*
X001270Y006976D03*
X001268Y006981D03*
X001233Y007066D03*
X001233Y007069D03*
X001260Y007134D03*
X001268Y007144D03*
X001255Y007329D03*
X001043Y007554D03*
X000828Y007326D03*
X000825Y007324D03*
X000815Y007144D03*
X000820Y007139D03*
X000823Y007136D03*
X000850Y007066D03*
X000850Y007064D03*
X000815Y006979D03*
X000813Y006976D03*
X000810Y006971D03*
X000795Y006936D03*
D239*
X000795Y006939D03*
X000795Y006941D03*
X000800Y006954D03*
X000803Y006956D03*
X000803Y006959D03*
X000850Y007071D03*
X000850Y007074D03*
X000828Y007129D03*
X000810Y007146D03*
X000830Y007331D03*
X000833Y007334D03*
X001250Y007334D03*
X001253Y007331D03*
X001273Y007146D03*
X001258Y007131D03*
X001255Y007129D03*
X001233Y007074D03*
X001233Y007071D03*
X001280Y006959D03*
X001283Y006954D03*
X001288Y006941D03*
X001288Y006939D03*
D240*
X001287Y006944D03*
X001287Y006946D03*
X001287Y006949D03*
X001284Y006951D03*
X001282Y006956D03*
X001234Y007076D03*
X001252Y007124D03*
X001254Y007126D03*
X001249Y007336D03*
X000834Y007336D03*
X000829Y007126D03*
X000832Y007124D03*
X000799Y006951D03*
X000797Y006949D03*
X000797Y006946D03*
X000794Y006944D03*
D241*
X000804Y006961D03*
X000807Y006964D03*
X000807Y006966D03*
X000809Y006969D03*
X000812Y006974D03*
X000849Y007069D03*
X000827Y007131D03*
X000824Y007134D03*
X000814Y007314D03*
X000829Y007329D03*
X001269Y007314D03*
X001277Y006966D03*
X001277Y006964D03*
X001279Y006961D03*
D242*
X001243Y007026D03*
X001240Y007031D03*
X001238Y007034D03*
X001238Y007036D03*
X001233Y007049D03*
X000850Y007049D03*
X000850Y007046D03*
X000845Y007036D03*
X000843Y007031D03*
X000840Y007026D03*
X000838Y007021D03*
D243*
X000850Y007076D03*
X000850Y007079D03*
X000850Y007081D03*
X000833Y007121D03*
X000838Y007339D03*
X001245Y007339D03*
X001250Y007121D03*
X001233Y007079D03*
D244*
X001234Y007081D03*
X001247Y007119D03*
X001277Y007311D03*
X001244Y007341D03*
X001042Y007551D03*
X000807Y007311D03*
X000837Y007119D03*
D245*
X000838Y007116D03*
X000850Y007086D03*
X000850Y007084D03*
X000803Y007149D03*
X000840Y007341D03*
X000843Y007344D03*
X001245Y007116D03*
X001233Y007086D03*
X001233Y007084D03*
D246*
X001244Y007114D03*
X001282Y007149D03*
X001242Y007344D03*
X001239Y007346D03*
X000839Y007114D03*
X000852Y007089D03*
D247*
X000850Y007091D03*
X000850Y007094D03*
X000843Y007111D03*
X000845Y007346D03*
X001240Y007111D03*
X001233Y007091D03*
X001233Y007089D03*
D248*
X001234Y007094D03*
X001239Y007109D03*
X001284Y007309D03*
X001237Y007349D03*
X001042Y007549D03*
X000849Y007349D03*
X000799Y007309D03*
X000844Y007109D03*
D249*
X000848Y007106D03*
X000850Y007099D03*
X000850Y007096D03*
X001233Y007096D03*
X001233Y007351D03*
D250*
X001237Y007106D03*
X001234Y007104D03*
X001234Y007101D03*
X001234Y007099D03*
X000849Y007101D03*
X000849Y007104D03*
X000852Y007351D03*
D251*
X000795Y007151D03*
X001290Y007151D03*
D252*
X001297Y007154D03*
X000787Y007154D03*
D253*
X000778Y007156D03*
X001305Y007156D03*
D254*
X000773Y007159D03*
D255*
X001312Y007159D03*
D256*
X000765Y007161D03*
D257*
X001319Y007161D03*
D258*
X001327Y007164D03*
X001342Y007201D03*
X001342Y007204D03*
X001342Y007206D03*
X001342Y007209D03*
X001342Y007211D03*
X001342Y007214D03*
X001342Y007216D03*
X001342Y007219D03*
X001342Y007241D03*
X001342Y007244D03*
X001342Y007246D03*
X001342Y007249D03*
X001342Y007251D03*
X001342Y007254D03*
X001342Y007256D03*
X000757Y007164D03*
X000742Y007206D03*
X000742Y007209D03*
X000742Y007211D03*
X000742Y007214D03*
X000742Y007216D03*
X000742Y007219D03*
X000742Y007221D03*
X000742Y007224D03*
X000742Y007226D03*
X000742Y007229D03*
X000742Y007231D03*
X000742Y007234D03*
X000742Y007236D03*
X000742Y007239D03*
X000742Y007241D03*
X000742Y007244D03*
X000742Y007246D03*
X000742Y007249D03*
X000742Y007251D03*
D259*
X000748Y007286D03*
X000748Y007289D03*
X000748Y007171D03*
X000748Y007169D03*
X000750Y007166D03*
X001333Y007166D03*
X001335Y007169D03*
X001335Y007171D03*
X001335Y007286D03*
X001335Y007289D03*
X001333Y007291D03*
D260*
X001337Y007284D03*
X001337Y007281D03*
X001337Y007176D03*
X001337Y007174D03*
X001042Y007534D03*
X000747Y007284D03*
X000747Y007281D03*
X000747Y007279D03*
X000747Y007176D03*
X000747Y007174D03*
D261*
X000745Y007179D03*
X000745Y007181D03*
X000745Y007184D03*
X000745Y007186D03*
X000745Y007271D03*
X000745Y007274D03*
X000745Y007276D03*
X000753Y007294D03*
X001330Y007294D03*
X001338Y007279D03*
X001338Y007276D03*
X001338Y007274D03*
X001338Y007184D03*
X001338Y007181D03*
X001338Y007179D03*
D262*
X001339Y007186D03*
X001339Y007189D03*
X001339Y007191D03*
X001339Y007266D03*
X001339Y007269D03*
X001339Y007271D03*
X000744Y007269D03*
X000744Y007266D03*
X000744Y007264D03*
X000744Y007194D03*
X000744Y007191D03*
X000744Y007189D03*
D263*
X000743Y007196D03*
X000743Y007199D03*
X000743Y007201D03*
X000743Y007204D03*
X000743Y007254D03*
X000743Y007256D03*
X000743Y007259D03*
X000743Y007261D03*
X001340Y007261D03*
X001340Y007259D03*
X001340Y007264D03*
X001340Y007199D03*
X001340Y007196D03*
X001340Y007194D03*
D264*
X001343Y007221D03*
X001343Y007224D03*
X001343Y007226D03*
X001343Y007229D03*
X001343Y007231D03*
X001343Y007234D03*
X001343Y007236D03*
X001343Y007239D03*
D265*
X000749Y007291D03*
D266*
X000762Y007296D03*
X001042Y007536D03*
X001322Y007296D03*
D267*
X001315Y007299D03*
X000770Y007299D03*
D268*
X000777Y007301D03*
X001042Y007541D03*
X001307Y007301D03*
D269*
X001299Y007304D03*
X001042Y007544D03*
X000864Y007359D03*
X000784Y007304D03*
D270*
X000792Y007306D03*
X000859Y007356D03*
D271*
X001043Y007546D03*
X001293Y007306D03*
D272*
X001229Y007354D03*
X000854Y007354D03*
D273*
X001225Y007356D03*
D274*
X001220Y007359D03*
D275*
X001213Y007361D03*
X000873Y007361D03*
D276*
X001042Y007364D03*
X001042Y007439D03*
D277*
X001043Y007366D03*
D278*
X001042Y007369D03*
X001042Y007371D03*
X001042Y007434D03*
X001042Y007436D03*
D279*
X001042Y007431D03*
X001042Y007376D03*
X001042Y007374D03*
D280*
X001040Y007379D03*
D281*
X001042Y007381D03*
X001042Y007384D03*
X001042Y007426D03*
X001042Y007429D03*
D282*
X001042Y007424D03*
X001042Y007389D03*
X001042Y007386D03*
D283*
X001042Y007391D03*
X001042Y007394D03*
X001042Y007421D03*
D284*
X001043Y007419D03*
X001043Y007396D03*
D285*
X001042Y007399D03*
X001042Y007401D03*
X001042Y007416D03*
D286*
X001042Y007414D03*
X001042Y007411D03*
X001042Y007409D03*
X001042Y007406D03*
X001042Y007404D03*
D287*
X001043Y007441D03*
D288*
X001043Y007444D03*
D289*
X001042Y007446D03*
D290*
X001042Y007449D03*
D291*
X001043Y007451D03*
D292*
X001042Y007454D03*
D293*
X001042Y007456D03*
D294*
X001043Y007459D03*
D295*
X001042Y007461D03*
D296*
X001042Y007464D03*
D297*
X001043Y007466D03*
D298*
X001042Y007469D03*
D299*
X001042Y007471D03*
D300*
X001043Y007474D03*
D301*
X001042Y007476D03*
D302*
X001042Y007479D03*
D303*
X001042Y007481D03*
X001042Y007484D03*
D304*
X001042Y007486D03*
D305*
X001042Y007489D03*
X001042Y007491D03*
D306*
X001042Y007494D03*
X001042Y007531D03*
D307*
X001042Y007529D03*
X001042Y007496D03*
D308*
X001043Y007499D03*
D309*
X001042Y007501D03*
X001042Y007526D03*
D310*
X001042Y007524D03*
X001042Y007504D03*
D311*
X001043Y007506D03*
D312*
X001042Y007509D03*
X001042Y007521D03*
D313*
X001042Y007519D03*
X001042Y007514D03*
X001042Y007511D03*
D314*
X001040Y007516D03*
D315*
X001042Y007571D03*
X001312Y007534D03*
X000772Y007534D03*
D316*
X000770Y007536D03*
X001043Y007584D03*
X001043Y007586D03*
X001313Y007536D03*
D317*
X001042Y007539D03*
D318*
X001042Y007626D03*
X001042Y007629D03*
X001042Y007631D03*
X001042Y007634D03*
X001314Y007544D03*
X000769Y007544D03*
D319*
X000768Y007549D03*
X001315Y007549D03*
D320*
X001315Y007551D03*
X001040Y007679D03*
X000768Y007551D03*
D321*
X000767Y007554D03*
X001042Y007694D03*
X001317Y007554D03*
D322*
X001318Y007559D03*
X000765Y007559D03*
D323*
X001042Y007559D03*
D324*
X001042Y007561D03*
D325*
X001319Y007564D03*
X000764Y007564D03*
D326*
X001042Y007564D03*
D327*
X001319Y007566D03*
X000764Y007566D03*
D328*
X001042Y007566D03*
D329*
X001042Y007569D03*
D330*
X001320Y007571D03*
X000763Y007571D03*
D331*
X001042Y007574D03*
X001042Y007576D03*
X001042Y007579D03*
X001042Y007581D03*
D332*
X001322Y007576D03*
X000762Y007576D03*
D333*
X000760Y007581D03*
X001323Y007581D03*
D334*
X001042Y007589D03*
X001042Y007591D03*
X001042Y007594D03*
X001042Y007596D03*
D335*
X001325Y007594D03*
X000758Y007594D03*
D336*
X000757Y007599D03*
X001327Y007599D03*
D337*
X001043Y007609D03*
X001043Y007611D03*
X001043Y007614D03*
D338*
X001043Y007624D03*
D339*
X001042Y007654D03*
X001042Y007656D03*
X001042Y007659D03*
X001042Y007661D03*
X001042Y007664D03*
D340*
X005043Y007217D03*
D341*
X005043Y007227D03*
D342*
X005043Y007237D03*
X005043Y007247D03*
X005043Y007257D03*
X005043Y007267D03*
X005043Y007277D03*
X005043Y007287D03*
D343*
X003983Y007297D03*
X003983Y007307D03*
X003983Y007317D03*
D344*
X003963Y007557D03*
X003983Y007567D03*
X003983Y008367D03*
X003483Y008367D03*
X005133Y007297D03*
X006033Y007447D03*
X005293Y008437D03*
D345*
X005593Y007297D03*
D346*
X005968Y007347D03*
X006038Y007297D03*
X006088Y007457D03*
X005968Y007457D03*
X005968Y007467D03*
X005778Y007997D03*
X005768Y008027D03*
X005758Y008057D03*
X005758Y008067D03*
X005758Y008077D03*
X005758Y008087D03*
X005758Y008097D03*
X005758Y008107D03*
X005758Y008117D03*
X005758Y008127D03*
X005758Y008137D03*
X005758Y008147D03*
X005758Y008157D03*
X005758Y008167D03*
X005758Y008177D03*
X005768Y008207D03*
X005768Y008217D03*
X005778Y008237D03*
X005508Y008177D03*
X005508Y008167D03*
X005508Y008157D03*
X005508Y008147D03*
X005508Y008137D03*
X005508Y008127D03*
X005508Y008117D03*
X005508Y008107D03*
X005508Y008097D03*
X005508Y008087D03*
X005508Y008077D03*
X005508Y008067D03*
X005508Y008057D03*
X005498Y008027D03*
X005488Y007997D03*
X005498Y008207D03*
X005488Y008237D03*
X005488Y008247D03*
X005158Y008277D03*
X005158Y008357D03*
X004818Y008227D03*
X004808Y008197D03*
X004808Y008187D03*
X004808Y008177D03*
X004808Y008167D03*
X004798Y008127D03*
X004798Y008117D03*
X004808Y008077D03*
X004808Y008067D03*
X004808Y008057D03*
X004808Y008047D03*
X004818Y008017D03*
X004828Y007987D03*
X005018Y007477D03*
X005238Y007497D03*
X006438Y007987D03*
X006448Y008007D03*
X006448Y008017D03*
X006458Y008047D03*
X006458Y008057D03*
X006458Y008067D03*
X006458Y008077D03*
X006458Y008087D03*
X006458Y008147D03*
X006458Y008157D03*
X006458Y008167D03*
X006458Y008177D03*
X006458Y008187D03*
X006458Y008197D03*
X006448Y008217D03*
X006448Y008227D03*
X003978Y007887D03*
X003678Y007887D03*
D347*
X003588Y007817D03*
X003388Y007637D03*
X003378Y007647D03*
X003368Y007657D03*
X003888Y007817D03*
X004108Y007677D03*
X004118Y007687D03*
X004108Y008257D03*
X004098Y008267D03*
X004088Y008277D03*
X004078Y008287D03*
X003378Y008287D03*
X003348Y008247D03*
X004968Y008417D03*
X005338Y008417D03*
X005928Y008417D03*
X006298Y008417D03*
X006018Y007987D03*
X005918Y007827D03*
X005938Y007817D03*
X006088Y007517D03*
X006178Y007297D03*
X005348Y007827D03*
X005148Y007307D03*
D348*
X004548Y007497D03*
X006668Y007337D03*
X006668Y007327D03*
X006668Y007317D03*
X006668Y007297D03*
D349*
X005588Y007307D03*
D350*
X005238Y007477D03*
X005138Y007477D03*
X005138Y007467D03*
X005128Y007497D03*
X005118Y007507D03*
X005108Y007517D03*
X006048Y007307D03*
X006078Y007387D03*
X006078Y007397D03*
X006178Y007397D03*
X007018Y008587D03*
X003968Y008037D03*
X003978Y007897D03*
X003668Y008037D03*
X003068Y008587D03*
D351*
X003373Y008277D03*
X003363Y008267D03*
X003353Y008257D03*
X003343Y008237D03*
X003333Y008227D03*
X003323Y008217D03*
X003313Y008197D03*
X003303Y008177D03*
X003513Y008057D03*
X003813Y008057D03*
X004113Y008247D03*
X004123Y008237D03*
X004143Y008207D03*
X004153Y008187D03*
X004133Y007707D03*
X004123Y007697D03*
X004103Y007667D03*
X004093Y007657D03*
X003363Y007667D03*
X003353Y007677D03*
X003343Y007687D03*
X003333Y007697D03*
X003333Y007707D03*
X003323Y007717D03*
X004963Y007827D03*
X005153Y007877D03*
X005153Y007887D03*
X005153Y007897D03*
X005153Y007907D03*
X005153Y007917D03*
X005153Y007927D03*
X005153Y007937D03*
X005153Y007947D03*
X005153Y007957D03*
X005153Y007967D03*
X005153Y007977D03*
X005153Y007987D03*
X005153Y007997D03*
X005153Y008007D03*
X005153Y008017D03*
X005153Y008027D03*
X005153Y008037D03*
X005153Y008047D03*
X005153Y008057D03*
X005363Y007837D03*
X005373Y008397D03*
X005353Y008407D03*
X004953Y008407D03*
X005893Y008397D03*
X005913Y008407D03*
X006013Y008237D03*
X005983Y008157D03*
X006213Y008237D03*
X006223Y008227D03*
X006313Y008407D03*
X006223Y008007D03*
X006213Y007997D03*
X006313Y007837D03*
X006303Y007827D03*
X006333Y007847D03*
X005903Y007837D03*
X006173Y007307D03*
D352*
X006673Y007307D03*
X004553Y007507D03*
X004553Y007517D03*
D353*
X004168Y007767D03*
X004168Y007777D03*
X004178Y007797D03*
X004188Y007827D03*
X004158Y007757D03*
X004158Y007747D03*
X004148Y007737D03*
X004148Y007727D03*
X004138Y007717D03*
X003808Y007877D03*
X003808Y008047D03*
X003888Y008117D03*
X003968Y008057D03*
X004158Y008177D03*
X004148Y008197D03*
X004138Y008217D03*
X004128Y008227D03*
X004168Y008157D03*
X004178Y008137D03*
X004188Y008097D03*
X003668Y008057D03*
X003588Y008117D03*
X003498Y007887D03*
X003508Y007877D03*
X003298Y007767D03*
X003298Y007757D03*
X003308Y007747D03*
X003308Y007737D03*
X003318Y007727D03*
X003288Y007777D03*
X003288Y007787D03*
X003278Y007807D03*
X003268Y007847D03*
X003268Y008087D03*
X003278Y008117D03*
X003288Y008147D03*
X003298Y008167D03*
X003308Y008187D03*
X003318Y008207D03*
X003738Y007447D03*
X004938Y007847D03*
X004948Y007837D03*
X005378Y007847D03*
X005388Y007857D03*
X005878Y007857D03*
X005888Y007847D03*
X006008Y007997D03*
X005998Y008007D03*
X006108Y007917D03*
X006238Y008027D03*
X006248Y008047D03*
X006258Y008117D03*
X006238Y008207D03*
X006338Y008387D03*
X006328Y008397D03*
X006008Y008227D03*
X005998Y008217D03*
X005878Y008387D03*
X005388Y008387D03*
X005158Y008327D03*
X005158Y008317D03*
X005158Y008307D03*
X004938Y008397D03*
X004928Y008387D03*
X004918Y008377D03*
X005158Y007317D03*
X006088Y007507D03*
X006178Y007317D03*
D354*
X005593Y007407D03*
X005583Y007317D03*
D355*
X005238Y007457D03*
X006058Y007327D03*
X006058Y007317D03*
X006068Y007337D03*
X006068Y007347D03*
X006078Y007367D03*
X006178Y007427D03*
X007038Y008557D03*
X003968Y007907D03*
X003888Y007807D03*
X003658Y008027D03*
X003048Y008557D03*
D356*
X003333Y007327D03*
X005573Y007337D03*
X005573Y007347D03*
X005573Y007357D03*
X005573Y007377D03*
X005593Y007417D03*
D357*
X004378Y007327D03*
D358*
X004173Y007787D03*
X004183Y007807D03*
X004183Y007817D03*
X004193Y007837D03*
X004193Y007847D03*
X004193Y007857D03*
X004203Y007887D03*
X004203Y007897D03*
X004203Y007907D03*
X004203Y007917D03*
X004203Y007927D03*
X004203Y007937D03*
X004203Y007947D03*
X004203Y007977D03*
X004203Y007987D03*
X004203Y007997D03*
X004203Y008007D03*
X004203Y008017D03*
X004203Y008027D03*
X004203Y008037D03*
X004203Y008047D03*
X004193Y008067D03*
X004193Y008077D03*
X004193Y008087D03*
X004183Y008107D03*
X004183Y008117D03*
X004183Y008127D03*
X004173Y008147D03*
X004163Y008167D03*
X003793Y008037D03*
X003793Y008027D03*
X003783Y007997D03*
X003783Y007987D03*
X003783Y007977D03*
X003783Y007967D03*
X003783Y007957D03*
X003783Y007947D03*
X003783Y007937D03*
X003783Y007927D03*
X003793Y007907D03*
X003793Y007897D03*
X003803Y007887D03*
X003673Y007877D03*
X003493Y007897D03*
X003493Y007907D03*
X003483Y007917D03*
X003483Y007927D03*
X003483Y007937D03*
X003483Y007947D03*
X003483Y007987D03*
X003483Y007997D03*
X003483Y008007D03*
X003483Y008017D03*
X003493Y008027D03*
X003493Y008037D03*
X003503Y008047D03*
X003283Y008127D03*
X003283Y008137D03*
X003293Y008157D03*
X003273Y008107D03*
X003273Y008097D03*
X003263Y008077D03*
X003263Y008067D03*
X003263Y008057D03*
X003263Y008047D03*
X003253Y008007D03*
X003253Y007997D03*
X003253Y007987D03*
X003253Y007977D03*
X003253Y007967D03*
X003253Y007957D03*
X003253Y007947D03*
X003253Y007937D03*
X003253Y007927D03*
X003253Y007917D03*
X003263Y007877D03*
X003263Y007867D03*
X003263Y007857D03*
X003273Y007837D03*
X003273Y007827D03*
X003273Y007817D03*
X003283Y007797D03*
X004883Y007897D03*
X004893Y007887D03*
X004903Y007877D03*
X004913Y007867D03*
X004923Y007857D03*
X005243Y007517D03*
X005143Y007427D03*
X005143Y007417D03*
X005163Y007397D03*
X005163Y007337D03*
X005163Y007327D03*
X005403Y007867D03*
X005413Y007877D03*
X005423Y007887D03*
X005853Y007877D03*
X005863Y007867D03*
X005993Y008017D03*
X005993Y008027D03*
X005983Y008037D03*
X005983Y008047D03*
X005983Y008147D03*
X005983Y008177D03*
X005993Y008197D03*
X005993Y008207D03*
X005853Y008357D03*
X005863Y008367D03*
X005873Y008377D03*
X005833Y008337D03*
X005433Y008337D03*
X005413Y008357D03*
X005403Y008367D03*
X005393Y008377D03*
X005153Y008337D03*
X005153Y008297D03*
X004903Y008367D03*
X006093Y007497D03*
X006063Y007427D03*
X006173Y007337D03*
X006173Y007327D03*
X006343Y007857D03*
X006353Y007867D03*
X006363Y007877D03*
X006373Y007887D03*
X006393Y007907D03*
X006233Y008017D03*
X006243Y008037D03*
X006253Y008057D03*
X006253Y008067D03*
X006253Y008077D03*
X006253Y008087D03*
X006253Y008097D03*
X006253Y008107D03*
X006253Y008127D03*
X006253Y008137D03*
X006253Y008147D03*
X006253Y008157D03*
X006253Y008167D03*
X006253Y008177D03*
X006243Y008187D03*
X006243Y008197D03*
X006233Y008217D03*
X006373Y008357D03*
X006363Y008367D03*
X006353Y008377D03*
D359*
X005578Y007327D03*
D360*
X005598Y007467D03*
X005608Y007487D03*
X005618Y007507D03*
X005628Y007517D03*
X003728Y008407D03*
X003308Y007337D03*
D361*
X004403Y007337D03*
D362*
X003733Y007517D03*
X003293Y007347D03*
X003733Y008417D03*
D363*
X004423Y007347D03*
D364*
X005023Y007347D03*
X005023Y007447D03*
X005023Y007457D03*
X005023Y007467D03*
X005143Y007447D03*
X005143Y007437D03*
X004853Y007937D03*
X004843Y007957D03*
X004833Y007967D03*
X004833Y007977D03*
X004823Y007997D03*
X004823Y008007D03*
X004813Y008027D03*
X004813Y008037D03*
X004803Y008087D03*
X004803Y008097D03*
X004803Y008107D03*
X004803Y008137D03*
X004803Y008147D03*
X004803Y008157D03*
X004813Y008207D03*
X004813Y008217D03*
X004823Y008237D03*
X004823Y008247D03*
X004833Y008257D03*
X004833Y008267D03*
X004843Y008277D03*
X004843Y008287D03*
X004853Y008297D03*
X005453Y008307D03*
X005463Y008297D03*
X005473Y008277D03*
X005483Y008257D03*
X005493Y008227D03*
X005493Y008217D03*
X005503Y008197D03*
X005503Y008187D03*
X005503Y008047D03*
X005503Y008037D03*
X005493Y008017D03*
X005493Y008007D03*
X005483Y007987D03*
X005483Y007977D03*
X005473Y007967D03*
X005473Y007957D03*
X005463Y007947D03*
X005453Y007927D03*
X005763Y008037D03*
X005763Y008047D03*
X005773Y008017D03*
X005773Y008007D03*
X005783Y007987D03*
X005783Y007977D03*
X005793Y007967D03*
X005793Y007957D03*
X005803Y007947D03*
X005813Y007927D03*
X005763Y008187D03*
X005763Y008197D03*
X005773Y008227D03*
X005783Y008247D03*
X005783Y008257D03*
X005793Y008277D03*
X005803Y008287D03*
X005803Y008297D03*
X005813Y008307D03*
X005983Y008137D03*
X006103Y008317D03*
X006403Y008317D03*
X006413Y008297D03*
X006423Y008287D03*
X006433Y008267D03*
X006433Y008257D03*
X006443Y008247D03*
X006443Y008237D03*
X006453Y008207D03*
X006463Y008137D03*
X006463Y008127D03*
X006463Y008117D03*
X006463Y008107D03*
X006463Y008097D03*
X006453Y008037D03*
X006453Y008027D03*
X006443Y007997D03*
X006433Y007977D03*
X006433Y007967D03*
X006423Y007957D03*
X006423Y007947D03*
X006413Y007937D03*
X006093Y007467D03*
X006073Y007417D03*
X003973Y008047D03*
X003673Y008047D03*
D365*
X003788Y008017D03*
X003788Y008007D03*
X003788Y007917D03*
X003978Y007877D03*
X004198Y007877D03*
X004198Y007867D03*
X004208Y007957D03*
X004208Y007967D03*
X004198Y008057D03*
X004848Y007947D03*
X004858Y007927D03*
X004868Y007917D03*
X004878Y007907D03*
X005158Y007737D03*
X005238Y007507D03*
X005158Y007407D03*
X005168Y007387D03*
X005168Y007377D03*
X005168Y007367D03*
X005168Y007357D03*
X005168Y007347D03*
X005028Y007357D03*
X005028Y007367D03*
X005028Y007377D03*
X005028Y007387D03*
X005428Y007897D03*
X005438Y007907D03*
X005448Y007917D03*
X005458Y007937D03*
X005478Y008267D03*
X005468Y008287D03*
X005448Y008317D03*
X005438Y008327D03*
X005428Y008347D03*
X005158Y008347D03*
X005158Y008287D03*
X004898Y008357D03*
X004888Y008347D03*
X004878Y008337D03*
X004868Y008327D03*
X004868Y008317D03*
X004858Y008307D03*
X005788Y008267D03*
X005818Y008317D03*
X005828Y008327D03*
X005838Y008347D03*
X005988Y008187D03*
X005808Y007937D03*
X005818Y007917D03*
X005828Y007907D03*
X005838Y007897D03*
X005848Y007887D03*
X006108Y007737D03*
X006388Y007897D03*
X006398Y007917D03*
X006408Y007927D03*
X006428Y008277D03*
X006408Y008307D03*
X006398Y008327D03*
X006388Y008337D03*
X006378Y008347D03*
X006088Y007487D03*
X006088Y007477D03*
X005968Y007367D03*
X005968Y007357D03*
X005958Y007377D03*
X003478Y007957D03*
X003478Y007967D03*
X003478Y007977D03*
X003258Y008017D03*
X003258Y008027D03*
X003258Y008037D03*
X003258Y007907D03*
X003258Y007897D03*
X003258Y007887D03*
D366*
X006663Y007367D03*
X006663Y007357D03*
X006663Y007347D03*
D367*
X003728Y007507D03*
X003278Y007357D03*
D368*
X004433Y007357D03*
D369*
X005133Y007487D03*
X005243Y007467D03*
X005983Y008117D03*
X006173Y007417D03*
X006173Y007407D03*
X006073Y007377D03*
X006073Y007357D03*
X007043Y007637D03*
X007043Y007647D03*
X007043Y007657D03*
X007043Y007667D03*
X007043Y007677D03*
X007043Y007687D03*
X007043Y007697D03*
X007043Y007707D03*
X007043Y007717D03*
X007043Y007727D03*
X007043Y007737D03*
X007043Y007747D03*
X007043Y007757D03*
X007043Y007767D03*
X007043Y007777D03*
X007043Y007787D03*
X007043Y007797D03*
X007043Y007807D03*
X007043Y007817D03*
X007043Y007827D03*
X007043Y007837D03*
X007043Y007847D03*
X007043Y007857D03*
X007043Y007867D03*
X007043Y007877D03*
X007043Y007887D03*
X007043Y007897D03*
X007043Y007907D03*
X007043Y007917D03*
X007043Y007927D03*
X007043Y007937D03*
X007043Y007947D03*
X007043Y007957D03*
X007043Y007967D03*
X007043Y007977D03*
X007043Y007987D03*
X007043Y007997D03*
X007043Y008007D03*
X007043Y008017D03*
X007043Y008027D03*
X007043Y008037D03*
X007043Y008047D03*
X007043Y008057D03*
X007043Y008067D03*
X007043Y008077D03*
X007043Y008087D03*
X007043Y008097D03*
X007043Y008107D03*
X007043Y008117D03*
X007043Y008127D03*
X007043Y008137D03*
X007043Y008147D03*
X007043Y008157D03*
X007043Y008167D03*
X007043Y008177D03*
X007043Y008187D03*
X007043Y008197D03*
X007043Y008207D03*
X007043Y008217D03*
X007043Y008227D03*
X007043Y008237D03*
X007043Y008247D03*
X007043Y008257D03*
X007043Y008267D03*
X007043Y008277D03*
X007043Y008287D03*
X007043Y008297D03*
X007043Y008307D03*
X007043Y008317D03*
X007043Y008327D03*
X007043Y008337D03*
X007043Y008347D03*
X007043Y008357D03*
X007043Y008367D03*
X007043Y008377D03*
X007043Y008387D03*
X007043Y008397D03*
X007043Y008407D03*
X007043Y008417D03*
X007043Y008427D03*
X007043Y008437D03*
X007043Y008447D03*
X007043Y008457D03*
X007043Y008467D03*
X007043Y008477D03*
X007043Y008487D03*
X007043Y008497D03*
X007043Y008507D03*
X007043Y008517D03*
X007043Y008527D03*
X007043Y008537D03*
X007043Y008547D03*
X007033Y008567D03*
X007033Y008577D03*
X003673Y007897D03*
X003583Y007807D03*
X003043Y007807D03*
X003043Y007817D03*
X003043Y007827D03*
X003043Y007837D03*
X003043Y007847D03*
X003043Y007857D03*
X003043Y007867D03*
X003043Y007877D03*
X003043Y007887D03*
X003043Y007897D03*
X003043Y007907D03*
X003043Y007917D03*
X003043Y007927D03*
X003043Y007937D03*
X003043Y007947D03*
X003043Y007957D03*
X003043Y007967D03*
X003043Y007977D03*
X003043Y007987D03*
X003043Y007997D03*
X003043Y008007D03*
X003043Y008017D03*
X003043Y008027D03*
X003043Y008037D03*
X003043Y008047D03*
X003043Y008057D03*
X003043Y008067D03*
X003043Y008077D03*
X003043Y008087D03*
X003043Y008097D03*
X003043Y008107D03*
X003043Y008117D03*
X003043Y008127D03*
X003043Y008137D03*
X003043Y008147D03*
X003043Y008157D03*
X003043Y008167D03*
X003043Y008177D03*
X003043Y008187D03*
X003043Y008197D03*
X003043Y008207D03*
X003043Y008217D03*
X003043Y008227D03*
X003043Y008237D03*
X003043Y008247D03*
X003043Y008257D03*
X003043Y008267D03*
X003043Y008277D03*
X003043Y008287D03*
X003043Y008297D03*
X003043Y008307D03*
X003043Y008317D03*
X003043Y008327D03*
X003043Y008337D03*
X003043Y008347D03*
X003043Y008357D03*
X003043Y008367D03*
X003043Y008377D03*
X003043Y008387D03*
X003043Y008397D03*
X003043Y008407D03*
X003043Y008417D03*
X003043Y008427D03*
X003043Y008437D03*
X003043Y008447D03*
X003043Y008457D03*
X003043Y008467D03*
X003043Y008477D03*
X003043Y008487D03*
X003043Y008497D03*
X003043Y008507D03*
X003043Y008517D03*
X003043Y008527D03*
X003043Y008537D03*
X003043Y008547D03*
X003053Y008567D03*
X003053Y008577D03*
X003043Y007797D03*
X003043Y007787D03*
X003043Y007777D03*
X003043Y007767D03*
X003043Y007757D03*
X003043Y007747D03*
X003043Y007737D03*
X003043Y007727D03*
X003043Y007717D03*
X003043Y007707D03*
X003043Y007697D03*
X003043Y007687D03*
X003043Y007677D03*
X003043Y007667D03*
X003043Y007657D03*
X003043Y007647D03*
X003043Y007637D03*
D370*
X003263Y007367D03*
D371*
X004448Y007367D03*
D372*
X005568Y007367D03*
D373*
X003733Y008437D03*
X003253Y007377D03*
D374*
X004458Y007377D03*
D375*
X004538Y007487D03*
X006658Y007387D03*
X006658Y007377D03*
D376*
X003243Y007387D03*
D377*
X004468Y007387D03*
D378*
X005618Y007387D03*
D379*
X005153Y008447D03*
X006113Y008447D03*
X003733Y008447D03*
X003233Y007397D03*
D380*
X004478Y007397D03*
D381*
X005608Y007397D03*
D382*
X006653Y007397D03*
X006653Y007407D03*
X006653Y007417D03*
X004533Y007477D03*
D383*
X005153Y007787D03*
X006113Y007787D03*
X003223Y007407D03*
D384*
X004488Y007407D03*
D385*
X005013Y007437D03*
X005143Y007457D03*
X005243Y007487D03*
X005963Y007477D03*
X006073Y007407D03*
X005983Y008127D03*
D386*
X003218Y007417D03*
D387*
X004498Y007417D03*
D388*
X003728Y008457D03*
X003208Y007427D03*
D389*
X004503Y007427D03*
D390*
X005593Y007427D03*
D391*
X006648Y007427D03*
X006648Y007437D03*
X006648Y007447D03*
X004528Y007467D03*
D392*
X005153Y007777D03*
X006113Y007777D03*
X003203Y007437D03*
D393*
X004508Y007437D03*
D394*
X005588Y007437D03*
D395*
X005333Y007817D03*
X004983Y007817D03*
X004993Y008427D03*
X004073Y008297D03*
X004063Y008307D03*
X004053Y008317D03*
X003423Y008327D03*
X003413Y008317D03*
X003403Y008307D03*
X003393Y008297D03*
X003403Y007627D03*
X003413Y007617D03*
X003423Y007607D03*
X004043Y007607D03*
X004053Y007617D03*
X004063Y007627D03*
X004073Y007637D03*
X004083Y007647D03*
X005983Y008167D03*
X006203Y007987D03*
X006283Y007817D03*
X006053Y007437D03*
X006273Y008427D03*
D396*
X005983Y008107D03*
X006173Y007447D03*
X006173Y007437D03*
X005153Y008267D03*
X003963Y008027D03*
X003663Y007907D03*
D397*
X003193Y007447D03*
D398*
X004518Y007447D03*
X006638Y007477D03*
X006638Y007487D03*
X006638Y007497D03*
D399*
X005593Y007457D03*
X005593Y007447D03*
X003733Y007527D03*
D400*
X003728Y007467D03*
X003188Y007457D03*
X005158Y007767D03*
X006108Y007767D03*
D401*
X003908Y007537D03*
X003728Y007457D03*
X003888Y007867D03*
X003888Y008067D03*
X003588Y008067D03*
X003148Y007537D03*
D402*
X004523Y007457D03*
X006643Y007457D03*
X006643Y007467D03*
D403*
X003183Y007467D03*
D404*
X003178Y007477D03*
X005158Y008477D03*
X006108Y008477D03*
D405*
X006113Y008457D03*
X005153Y008457D03*
X003733Y007477D03*
D406*
X005603Y007477D03*
X005613Y007497D03*
D407*
X006113Y007977D03*
X006113Y008247D03*
X003733Y008467D03*
X003173Y007487D03*
D408*
X003728Y007487D03*
X006108Y007797D03*
D409*
X006118Y008257D03*
X003168Y007497D03*
D410*
X003728Y007497D03*
D411*
X003163Y007507D03*
X003573Y008397D03*
X003893Y008397D03*
X006113Y008267D03*
X006113Y007967D03*
D412*
X006633Y007517D03*
X006633Y007507D03*
D413*
X006108Y007757D03*
X005158Y007757D03*
X003158Y007517D03*
D414*
X003153Y007527D03*
X003583Y007867D03*
X006113Y007957D03*
X006113Y008277D03*
D415*
X005053Y007527D03*
D416*
X006528Y007527D03*
D417*
X006113Y007947D03*
X006113Y008487D03*
X005153Y008487D03*
X003893Y008077D03*
X003893Y007857D03*
X003583Y007857D03*
X003553Y007537D03*
X003143Y007547D03*
D418*
X005623Y007537D03*
D419*
X005158Y007747D03*
X005048Y007797D03*
X005158Y008067D03*
X005158Y008077D03*
X005158Y008087D03*
X005158Y008097D03*
X005158Y008107D03*
X005158Y008117D03*
X005158Y008127D03*
X005158Y008137D03*
X005158Y008147D03*
X005158Y008157D03*
X005158Y008167D03*
X005158Y008177D03*
X005158Y008187D03*
X005158Y008197D03*
X005158Y008207D03*
X005158Y008217D03*
X006108Y007937D03*
X006108Y007747D03*
X003938Y007547D03*
X003518Y007547D03*
X003128Y007587D03*
X003128Y007597D03*
X003588Y008087D03*
X003888Y008087D03*
X003728Y008477D03*
X003528Y008387D03*
D420*
X005628Y007547D03*
D421*
X003888Y007847D03*
X003588Y008077D03*
X003138Y007567D03*
X003138Y007557D03*
D422*
X003118Y007617D03*
X003118Y007627D03*
X003498Y007557D03*
X003888Y007837D03*
X003888Y008097D03*
X003958Y008377D03*
X003588Y008097D03*
D423*
X005633Y007557D03*
D424*
X006108Y007927D03*
X005968Y008437D03*
X006108Y008497D03*
X006248Y008437D03*
X005158Y008497D03*
X005018Y008437D03*
X003998Y008357D03*
X003468Y008357D03*
X003588Y007827D03*
X003478Y007567D03*
X003888Y007827D03*
X003998Y007577D03*
D425*
X005638Y007577D03*
X005638Y007567D03*
D426*
X005263Y007797D03*
X006113Y008287D03*
X003933Y008387D03*
X003583Y007847D03*
X003133Y007577D03*
D427*
X003433Y007597D03*
X003463Y007577D03*
X004013Y007587D03*
X003893Y008107D03*
X004013Y008347D03*
X003453Y008347D03*
X005003Y007807D03*
X006263Y007807D03*
D428*
X005958Y007807D03*
X006108Y008307D03*
X005948Y008427D03*
X005318Y008427D03*
X005308Y007807D03*
X004028Y007597D03*
X003588Y008107D03*
X003438Y008337D03*
X004028Y008337D03*
X004038Y008327D03*
X003448Y007587D03*
D429*
X005643Y007587D03*
X005643Y007597D03*
D430*
X005153Y008227D03*
X006113Y008297D03*
X003583Y007837D03*
X003123Y007607D03*
X003503Y008377D03*
D431*
X005648Y007607D03*
D432*
X005653Y007617D03*
X005653Y007627D03*
D433*
X003733Y008427D03*
D434*
X005158Y008467D03*
X006108Y008467D03*
D435*
X005043Y008597D03*
D436*
X005043Y008607D03*
D437*
X005043Y008617D03*
D438*
X008352Y006537D02*
X008502Y006537D01*
X008502Y006487D02*
X008502Y006587D01*
X008402Y006487D02*
X008352Y006537D01*
X008377Y006440D02*
X008352Y006415D01*
X008352Y006339D01*
X008502Y006339D01*
X008502Y006415D01*
X008477Y006440D01*
X008377Y006440D01*
X008352Y006292D02*
X008352Y006192D01*
X008502Y006192D01*
X008502Y006292D01*
X008427Y006242D02*
X008427Y006192D01*
X008502Y006145D02*
X008502Y006045D01*
X008352Y006045D01*
X008108Y004800D02*
X008133Y004775D01*
X008133Y004750D01*
X008108Y004725D01*
X008133Y004700D01*
X008133Y004675D01*
X008108Y004650D01*
X008058Y004650D01*
X008033Y004675D01*
X007986Y004650D02*
X007936Y004700D01*
X007961Y004700D02*
X007886Y004700D01*
X007886Y004650D02*
X007886Y004800D01*
X007961Y004800D01*
X007986Y004775D01*
X007986Y004725D01*
X007961Y004700D01*
X008033Y004775D02*
X008058Y004800D01*
X008108Y004800D01*
X008108Y004725D02*
X008083Y004725D01*
D439*
X008663Y005445D02*
X009450Y005445D01*
X009450Y005996D01*
X009293Y006272D02*
X009057Y006508D01*
X008820Y006272D01*
X009293Y006272D01*
X009332Y006508D02*
X009057Y006508D01*
X008781Y006508D01*
X008663Y006784D02*
X008663Y007335D01*
X009450Y007335D01*
X009450Y006784D01*
X008663Y005996D02*
X008663Y005445D01*
M02*
